999
dxfrw 0.6.3
  0
SECTION
  2
HEADER
  9
$ACADVER
  1
AC1021
  9
$DWGCODEPAGE
  3
ANSI_1252
  9
$INSBASE
 10
0
 20
0
 30
0
  9
$EXTMIN
 10
-30.83333333333334
 20
-21.11111111111111
 30
0
  9
$EXTMAX
 10
495.8333333333335
 20
105
 30
0
  9
$LIMMIN
 10
0
 20
0
  9
$LIMMAX
 10
420
 20
297
  9
$ORTHOMODE
 70
    0
  9
$REGENMODE
 70
    1
  9
$FILLMODE
 70
    1
  9
$QTEXTMODE
 70
    0
  9
$MIRRTEXT
 70
    0
  9
$LTSCALE
 40
1
  9
$ATTMODE
 70
    0
  9
$TEXTSIZE
 40
2.5
  9
$TRACEWID
 40
15.68
  9
$TEXTSTYLE
  7
STANDARD
  9
$CLAYER
  8
Abmessungen
  9
$CELTYPE
  6
BYLAYER
  9
$CECOLOR
 62
  256
  9
$CELTSCALE
 40
1
  9
$DISPSILH
 70
    0
  9
$DIMSCALE
 40
1
  9
$DIMASZ
 40
2.5
  9
$DIMEXO
 40
0.625
  9
$DIMDLI
 40
3.75
  9
$DIMRND
 40
0
  9
$DIMDLE
 40
0
  9
$DIMEXE
 40
1.25
  9
$DIMTP
 40
0
  9
$DIMTM
 40
0
  9
$DIMTXT
 40
5
  9
$DIMCEN
 40
2.5
  9
$DIMTSZ
 40
0
  9
$DIMTOL
 70
    0
  9
$DIMLIM
 70
    0
  9
$DIMTIH
 70
    1
  9
$DIMTOH
 70
    0
  9
$DIMSE1
 70
    0
  9
$DIMSE2
 70
    0
  9
$DIMTAD
 70
    1
  9
$DIMZIN
 70
    1
  9
$DIMBLK
  1

  9
$DIMASO
 70
    1
  9
$DIMSHO
 70
    1
  9
$DIMPOST
  1

  9
$DIMAPOST
  1

  9
$DIMALT
 70
    0
  9
$DIMALTD
 70
    3
  9
$DIMALTF
 40
0.03937
  9
$DIMLFAC
 40
1
  9
$DIMTOFL
 70
    1
  9
$DIMTVP
 40
0
  9
$DIMTIX
 70
    0
  9
$DIMSOXD
 70
    0
  9
$DIMSAH
 70
    0
  9
$DIMBLK1
  1

  9
$DIMBLK2
  1

  9
$DIMSTYLE
  2
STANDARD
  9
$DIMCLRD
 70
    0
  9
$DIMCLRE
 70
    0
  9
$DIMCLRT
 70
    0
  9
$DIMTFAC
 40
1
  9
$DIMGAP
 40
0.625
  9
$DIMJUST
 70
    0
  9
$DIMSD1
 70
    0
  9
$DIMSD2
 70
    0
  9
$DIMTOLJ
 70
    0
  9
$DIMTZIN
 70
    8
  9
$DIMALTZ
 70
    0
  9
$DIMALTTZ
 70
    0
  9
$DIMUPT
 70
    0
  9
$DIMDEC
 70
    1
  9
$DIMTDEC
 70
    2
  9
$DIMALTU
 70
    2
  9
$DIMALTTD
 70
    3
  9
$DIMTXSTY
  7
standard
  9
$DIMAUNIT
 70
    0
  9
$DIMADEC
 70
    2
  9
$DIMALTRND
 40
0
  9
$DIMAZIN
 70
    0
  9
$DIMDSEP
 70
    0
  9
$DIMATFIT
 70
    3
  9
$DIMFRAC
 70
    0
  9
$DIMLDRBLK
  1
STANDARD
  9
$DIMLUNIT
 70
    2
  9
$DIMLWD
 70
   -2
  9
$DIMLWE
 70
   -2
  9
$DIMTMOVE
 70
    0
  9
$DIMFXL
 40
1
  9
$DIMFXLON
 70
    0
  9
$DIMJOGANG
 40
0.7854
  9
$DIMTFILL
 70
    0
  9
$DIMTFILLCLR
 70
    0
  9
$DIMARCSYM
 70
    0
  9
$DIMLTYPE
  6

  9
$DIMLTEX1
  6

  9
$DIMLTEX2
  6

  9
$LUNITS
 70
    2
  9
$LUPREC
 70
    4
  9
$SKETCHINC
 40
1
  9
$FILLETRAD
 40
0
  9
$AUNITS
 70
    0
  9
$AUPREC
 70
    2
  9
$MENU
  1
.
  9
$ELEVATION
 40
0
  9
$PELEVATION
 40
0
  9
$THICKNESS
 40
0
  9
$LIMCHECK
 70
    0
  9
$CHAMFERA
 40
0
  9
$CHAMFERB
 40
0
  9
$CHAMFERC
 40
0
  9
$CHAMFERD
 40
0
  9
$SKPOLY
 70
    0
  9
$USRTIMER
 70
    1
  9
$ANGBASE
 50
0
  9
$ANGDIR
 70
    0
  9
$PDMODE
 70
   34
  9
$PDSIZE
 40
0
  9
$PLINEWID
 40
0
  9
$SPLFRAME
 70
    0
  9
$SPLINETYPE
 70
    2
  9
$SPLINESEGS
 70
    8
  9
$HANDSEED
  5
20000
  9
$SURFTAB1
 70
    6
  9
$SURFTAB2
 70
    6
  9
$SURFTYPE
 70
    6
  9
$SURFU
 70
    6
  9
$SURFV
 70
    6
  9
$UCSBASE
  2

  9
$UCSNAME
  2

  9
$UCSORG
 10
0
 20
0
 30
0
  9
$UCSXDIR
 10
1
 20
0
 30
0
  9
$UCSYDIR
 10
0
 20
1
 30
0
  9
$UCSORTHOREF
  2

  9
$UCSORTHOVIEW
 70
    0
  9
$UCSORGTOP
 10
0
 20
0
 30
0
  9
$UCSORGBOTTOM
 10
0
 20
0
 30
0
  9
$UCSORGLEFT
 10
0
 20
0
 30
0
  9
$UCSORGRIGHT
 10
0
 20
0
 30
0
  9
$UCSORGFRONT
 10
0
 20
0
 30
0
  9
$UCSORGBACK
 10
0
 20
0
 30
0
  9
$PUCSBASE
  2

  9
$PUCSNAME
  2

  9
$PUCSORG
 10
0
 20
0
 30
0
  9
$PUCSXDIR
 10
1
 20
0
 30
0
  9
$PUCSYDIR
 10
0
 20
1
 30
0
  9
$PUCSORTHOREF
  2

  9
$PUCSORTHOVIEW
 70
    0
  9
$PUCSORGTOP
 10
0
 20
0
 30
0
  9
$PUCSORGBOTTOM
 10
0
 20
0
 30
0
  9
$PUCSORGLEFT
 10
0
 20
0
 30
0
  9
$PUCSORGRIGHT
 10
0
 20
0
 30
0
  9
$PUCSORGFRONT
 10
0
 20
0
 30
0
  9
$PUCSORGBACK
 10
0
 20
0
 30
0
  9
$USERI1
 70
    0
  9
$USERI2
 70
    0
  9
$USERI3
 70
    0
  9
$USERI4
 70
    0
  9
$USERI5
 70
    0
  9
$USERR1
 40
0
  9
$USERR2
 40
0
  9
$USERR3
 40
0
  9
$USERR4
 40
0
  9
$USERR5
 40
0
  9
$WORLDVIEW
 70
    1
  9
$SHADEDGE
 70
    3
  9
$SHADEDIF
 70
   70
  9
$TILEMODE
 70
    1
  9
$MAXACTVP
 70
   64
  9
$PINSBASE
 10
28.4240506329114
 20
83.33755274261604
 30
0
  9
$PLIMCHECK
 70
    0
  9
$PEXTMIN
 10
0
 20
0
 30
0
  9
$PEXTMAX
 10
0
 20
0
 30
0
  9
$GRIDMODE
 70
    1
  9
$SNAPSTYLE
 70
    0
  9
$GRIDUNIT
 10
0
 20
0
  9
$PLIMMIN
 10
0
 20
0
  9
$PLIMMAX
 10
297
 20
210
  9
$UNITMODE
 70
    0
  9
$VISRETAIN
 70
    1
  9
$PLINEGEN
 70
    0
  9
$PSLTSCALE
 70
    1
  9
$TREEDEPTH
 70
 3020
  9
$CMLSTYLE
  2
Standard
  9
$CMLJUST
 70
    0
  9
$CMLSCALE
 40
20
  9
$PROXYGRAPHICS
 70
    1
  9
$MEASUREMENT
 70
    1
  9
$CELWEIGHT
370
   -1
  9
$ENDCAPS
280
    0
  9
$JOINSTYLE
280
    0
  9
$LWDISPLAY
290
    0
  9
$INSUNITS
 70
    4
  9
$HYPERLINKBASE
  1

  9
$STYLESHEET
  1

  9
$XEDIT
290
    1
  9
$CEPSNTYPE
380
    0
  9
$PSTYLEMODE
290
    1
  9
$EXTNAMES
290
    1
  9
$PSVPSCALE
 40
0.5164568990894866
  9
$OLESTARTUP
290
    0
  9
$SORTENTS
280
  127
  9
$INDEXCTL
280
    0
  9
$HIDETEXT
280
    1
  9
$XCLIPFRAME
290
    0
  9
$HALOGAP
280
    0
  9
$OBSCOLOR
 70
  257
  9
$OBSLTYPE
280
    0
  9
$INTERSECTIONDISPLAY
280
    0
  9
$INTERSECTIONCOLOR
 70
  257
  9
$DIMASSOC
280
    1
  9
$PROJECTNAME
  1

  9
$CAMERADISPLAY
290
    0
  9
$LENSLENGTH
 40
50
  9
$CAMERAHEIGHT
 40
0
  9
$STEPSPERSEC
 40
2
  9
$STEPSIZE
 40
50
  9
$3DDWFPREC
 40
2
  9
$PSOLWIDTH
 40
5
  9
$PSOLHEIGHT
 40
80
  9
$LOFTANG1
 40
1.570796326794897
  9
$LOFTANG2
 40
1.570796326794897
  9
$LOFTMAG1
 40
0
  9
$LOFTMAG2
 40
0
  9
$LOFTPARAM
 70
    7
  9
$LOFTNORMALS
280
    1
  9
$LATITUDE
 40
1
  9
$LONGITUDE
 40
1
  9
$NORTHDIRECTION
 40
0
  9
$TIMEZONE
 70
-8000
  9
$LIGHTGLYPHDISPLAY
280
    1
  9
$TILEMODELIGHTSYNCH
280
    1
  9
$SOLIDHIST
280
    1
  9
$SHOWHIST
280
    1
  9
$DWFFRAME
280
    2
  9
$DGNFRAME
280
    0
  9
$REALWORLDSCALE
290
    1
  9
$INTERFERECOLOR
 62
    1
  9
$CSHADOW
280
    0
  9
$SHADOWPLANELOCATION
 40
0
  0
ENDSEC
  0
SECTION
  2
CLASSES
  0
ENDSEC
  0
SECTION
  2
TABLES
  0
TABLE
  2
VPORT
  5
8
330
0
100
AcDbSymbolTable
 70
    1
  0
VPORT
  5
31
330
2
100
AcDbSymbolTableRecord
100
AcDbViewportTableRecord
  2
*ACTIVE
 70
    0
 10
0
 20
0
 11
1
 21
1
 12
269.0374307862689
 22
93.36522702104129
 13
0
 23
0
 14
10
 24
10
 15
10
 25
10
 16
0
 26
0
 36
1
 17
0
 27
0
 37
0
 40
219.7652270210417
 41
1.942675159235669
 42
50
 43
0
 44
0
 50
0
 51
0
 71
    0
 72
  100
 73
    1
 74
    3
 75
    0
 76
    1
 77
    0
 78
    0
281
    0
 65
    1
110
0
120
0
130
0
111
1
121
0
131
0
112
0
122
1
132
0
 79
    0
146
0
348
10020
 60
    7
 61
    5
292
1
282
    1
141
0
142
0
 63
  250
421
3358443
  0
ENDTAB
  0
TABLE
  2
LTYPE
  5
5
330
0
100
AcDbSymbolTable
 70
    4
  0
LTYPE
  5
14
330
5
100
AcDbSymbolTableRecord
100
AcDbLinetypeTableRecord
  2
ByBlock
 70
    0
  3

 72
   65
 73
    0
 40
0
  0
LTYPE
  5
15
330
5
100
AcDbSymbolTableRecord
100
AcDbLinetypeTableRecord
  2
ByLayer
 70
    0
  3

 72
   65
 73
    0
 40
0
  0
LTYPE
  5
16
330
5
100
AcDbSymbolTableRecord
100
AcDbLinetypeTableRecord
  2
Continuous
 70
    0
  3
Solid line
 72
   65
 73
    0
 40
0
  0
LTYPE
  5
32
330
5
100
AcDbSymbolTableRecord
100
AcDbLinetypeTableRecord
  2
DOT
 70
    0
  3
Dot . . . . . . . . . . . . . . . . . . . . . .
 72
   65
 73
    2
 40
6.35
 49
0
 74
    0
 49
-6.35
 74
    0
  0
LTYPE
  5
33
330
5
100
AcDbSymbolTableRecord
100
AcDbLinetypeTableRecord
  2
DOTTINY
 70
    0
  3
Dot (.15x) .....................................
 72
   65
 73
    2
 40
0.9525
 49
0
 74
    0
 49
-0.9525
 74
    0
  0
LTYPE
  5
34
330
5
100
AcDbSymbolTableRecord
100
AcDbLinetypeTableRecord
  2
DOT2
 70
    0
  3
Dot (.5x) .....................................
 72
   65
 73
    2
 40
3.175
 49
0
 74
    0
 49
-3.175
 74
    0
  0
LTYPE
  5
35
330
5
100
AcDbSymbolTableRecord
100
AcDbLinetypeTableRecord
  2
DOTX2
 70
    0
  3
Dot (2x) .  .  .  .  .  .  .  .  .  .  .  .  .
 72
   65
 73
    2
 40
12.7
 49
0
 74
    0
 49
-12.7
 74
    0
  0
LTYPE
  5
36
330
5
100
AcDbSymbolTableRecord
100
AcDbLinetypeTableRecord
  2
DASHED
 70
    0
  3
Dashed _ _ _ _ _ _ _ _ _ _ _ _ _ _ _ _ _
 72
   65
 73
    2
 40
19.05
 49
12.7
 74
    0
 49
-6.35
 74
    0
  0
LTYPE
  5
37
330
5
100
AcDbSymbolTableRecord
100
AcDbLinetypeTableRecord
  2
DASHEDTINY
 70
    0
  3
Dashed (.15x) _ _ _ _ _ _ _ _ _ _ _ _ _ _ _ _ _
 72
   65
 73
    2
 40
2.8575
 49
1.905
 74
    0
 49
-0.9525
 74
    0
  0
LTYPE
  5
38
330
5
100
AcDbSymbolTableRecord
100
AcDbLinetypeTableRecord
  2
DASHED2
 70
    0
  3
Dashed (.5x) _ _ _ _ _ _ _ _ _ _ _ _ _ _ _ _ _
 72
   65
 73
    2
 40
9.524999999999999
 49
6.35
 74
    0
 49
-3.175
 74
    0
  0
LTYPE
  5
39
330
5
100
AcDbSymbolTableRecord
100
AcDbLinetypeTableRecord
  2
DASHEDX2
 70
    0
  3
Dashed (2x) ____  ____  ____  ____  ____  ___
 72
   65
 73
    2
 40
38.09999999999999
 49
25.4
 74
    0
 49
-12.7
 74
    0
  0
LTYPE
  5
3A
330
5
100
AcDbSymbolTableRecord
100
AcDbLinetypeTableRecord
  2
DASHDOT
 70
    0
  3
Dash dot __ . __ . __ . __ . __ . __ . __ . __
 72
   65
 73
    4
 40
25.4
 49
12.7
 74
    0
 49
-6.35
 74
    0
 49
0
 74
    0
 49
-6.35
 74
    0
  0
LTYPE
  5
3B
330
5
100
AcDbSymbolTableRecord
100
AcDbLinetypeTableRecord
  2
DASHDOTTINY
 70
    0
  3
Dash dot (.15x) _._._._._._._._._._._._._._._.
 72
   65
 73
    4
 40
3.81
 49
1.905
 74
    0
 49
-0.9525
 74
    0
 49
0
 74
    0
 49
-0.9525
 74
    0
  0
LTYPE
  5
3C
330
5
100
AcDbSymbolTableRecord
100
AcDbLinetypeTableRecord
  2
DASHDOT2
 70
    0
  3
Dash dot (.5x) _._._._._._._._._._._._._._._.
 72
   65
 73
    4
 40
12.7
 49
6.35
 74
    0
 49
-3.175
 74
    0
 49
0
 74
    0
 49
-3.175
 74
    0
  0
LTYPE
  5
3D
330
5
100
AcDbSymbolTableRecord
100
AcDbLinetypeTableRecord
  2
DASHDOTX2
 70
    0
  3
Dash dot (2x) ____  .  ____  .  ____  .  ___
 72
   65
 73
    4
 40
50.8
 49
25.4
 74
    0
 49
-12.7
 74
    0
 49
0
 74
    0
 49
-12.7
 74
    0
  0
LTYPE
  5
3E
330
5
100
AcDbSymbolTableRecord
100
AcDbLinetypeTableRecord
  2
DIVIDE
 70
    0
  3
Divide ____ . . ____ . . ____ . . ____ . . ____
 72
   65
 73
    6
 40
31.75
 49
12.7
 74
    0
 49
-6.35
 74
    0
 49
0
 74
    0
 49
-6.35
 74
    0
 49
0
 74
    0
 49
-6.35
 74
    0
  0
LTYPE
  5
3F
330
5
100
AcDbSymbolTableRecord
100
AcDbLinetypeTableRecord
  2
DIVIDETINY
 70
    0
  3
Divide (.15x) __..__..__..__..__..__..__..__.._
 72
   65
 73
    6
 40
4.7625
 49
1.905
 74
    0
 49
-0.9525
 74
    0
 49
0
 74
    0
 49
-0.9525
 74
    0
 49
0
 74
    0
 49
-0.9525
 74
    0
  0
LTYPE
  5
40
330
5
100
AcDbSymbolTableRecord
100
AcDbLinetypeTableRecord
  2
DIVIDE2
 70
    0
  3
Divide (.5x) __..__..__..__..__..__..__..__.._
 72
   65
 73
    6
 40
15.875
 49
6.35
 74
    0
 49
-3.175
 74
    0
 49
0
 74
    0
 49
-3.175
 74
    0
 49
0
 74
    0
 49
-3.175
 74
    0
  0
LTYPE
  5
41
330
5
100
AcDbSymbolTableRecord
100
AcDbLinetypeTableRecord
  2
DIVIDEX2
 70
    0
  3
Divide (2x) ________  .  .  ________  .  .  _
 72
   65
 73
    6
 40
63.5
 49
25.4
 74
    0
 49
-12.7
 74
    0
 49
0
 74
    0
 49
-12.7
 74
    0
 49
0
 74
    0
 49
-12.7
 74
    0
  0
LTYPE
  5
42
330
5
100
AcDbSymbolTableRecord
100
AcDbLinetypeTableRecord
  2
BORDER
 70
    0
  3
Border __ __ . __ __ . __ __ . __ __ . __ __ .
 72
   65
 73
    6
 40
44.45
 49
12.7
 74
    0
 49
-6.35
 74
    0
 49
12.7
 74
    0
 49
-6.35
 74
    0
 49
0
 74
    0
 49
-6.35
 74
    0
  0
LTYPE
  5
43
330
5
100
AcDbSymbolTableRecord
100
AcDbLinetypeTableRecord
  2
BORDERTINY
 70
    0
  3
Border (.15x) __.__.__.__.__.__.__.__.__.__.__.
 72
   65
 73
    6
 40
6.6675
 49
1.905
 74
    0
 49
-0.9525
 74
    0
 49
1.905
 74
    0
 49
-0.9525
 74
    0
 49
0
 74
    0
 49
-0.9525
 74
    0
  0
LTYPE
  5
44
330
5
100
AcDbSymbolTableRecord
100
AcDbLinetypeTableRecord
  2
BORDER2
 70
    0
  3
Border (.5x) __.__.__.__.__.__.__.__.__.__.__.
 72
   65
 73
    6
 40
22.225
 49
6.35
 74
    0
 49
-3.175
 74
    0
 49
6.35
 74
    0
 49
-3.175
 74
    0
 49
0
 74
    0
 49
-3.175
 74
    0
  0
LTYPE
  5
45
330
5
100
AcDbSymbolTableRecord
100
AcDbLinetypeTableRecord
  2
BORDERX2
 70
    0
  3
Border (2x) ____  ____  .  ____  ____  .  ___
 72
   65
 73
    6
 40
88.89999999999999
 49
25.4
 74
    0
 49
-12.7
 74
    0
 49
25.4
 74
    0
 49
-12.7
 74
    0
 49
0
 74
    0
 49
-12.7
 74
    0
  0
LTYPE
  5
46
330
5
100
AcDbSymbolTableRecord
100
AcDbLinetypeTableRecord
  2
CENTER
 70
    0
  3
Center ____ _ ____ _ ____ _ ____ _ ____ _ ____
 72
   65
 73
    4
 40
50.8
 49
31.75
 74
    0
 49
-6.35
 74
    0
 49
6.35
 74
    0
 49
-6.35
 74
    0
  0
LTYPE
  5
47
330
5
100
AcDbSymbolTableRecord
100
AcDbLinetypeTableRecord
  2
CENTERTINY
 70
    0
  3
Center (.15x) ___ _ ___ _ ___ _ ___ _ ___ _ ___
 72
   65
 73
    4
 40
7.619999999999999
 49
4.7625
 74
    0
 49
-0.9525
 74
    0
 49
0.9525
 74
    0
 49
-0.9525
 74
    0
  0
LTYPE
  5
48
330
5
100
AcDbSymbolTableRecord
100
AcDbLinetypeTableRecord
  2
CENTER2
 70
    0
  3
Center (.5x) ___ _ ___ _ ___ _ ___ _ ___ _ ___
 72
   65
 73
    4
 40
28.575
 49
19.05
 74
    0
 49
-3.175
 74
    0
 49
3.175
 74
    0
 49
-3.175
 74
    0
  0
LTYPE
  5
49
330
5
100
AcDbSymbolTableRecord
100
AcDbLinetypeTableRecord
  2
CENTERX2
 70
    0
  3
Center (2x) ________  __  ________  __  _____
 72
   65
 73
    4
 40
101.6
 49
63.5
 74
    0
 49
-12.7
 74
    0
 49
12.7
 74
    0
 49
-12.7
 74
    0
  0
ENDTAB
  0
TABLE
  2
LAYER
  5
2
330
0
100
AcDbSymbolTable
 70
    1
  0
LAYER
  5
10
330
2
100
AcDbSymbolTableRecord
100
AcDbLayerTableRecord
  2
0
 70
    0
 62
    7
  6
CONTINUOUS
370
    0
390
F
  0
LAYER
  5
4A
330
2
100
AcDbSymbolTableRecord
100
AcDbLayerTableRecord
  2
Abmessungen
 70
    0
 62
    4
  6
CONTINUOUS
370
    0
390
F
  0
LAYER
  5
4B
330
2
100
AcDbSymbolTableRecord
100
AcDbLayerTableRecord
  2
Platinen
 70
    1
 62
   96
420
32768
  6
CONTINUOUS
370
    0
390
F
  0
ENDTAB
  0
TABLE
  2
STYLE
  5
3
330
0
100
AcDbSymbolTable
 70
    3
  0
STYLE
  5
4C
330
2
100
AcDbSymbolTableRecord
100
AcDbTextStyleTableRecord
  2
standard
 70
    0
 40
0
 41
1
 50
0
 71
    0
 42
1
  3
standard
  4

  0
ENDTAB
  0
TABLE
  2
VIEW
  5
6
330
0
100
AcDbSymbolTable
 70
    0
  0
ENDTAB
  0
TABLE
  2
UCS
  5
7
330
0
100
AcDbSymbolTable
 70
    0
  0
ENDTAB
  0
TABLE
  2
APPID
  5
9
330
0
100
AcDbSymbolTable
 70
    1
  0
APPID
  5
12
330
9
100
AcDbSymbolTableRecord
100
AcDbRegAppTableRecord
  2
ACAD
 70
    0
  0
APPID
  5
4D
330
9
100
AcDbSymbolTableRecord
100
AcDbRegAppTableRecord
  2
LibreCad
 70
    0
  0
ENDTAB
  0
TABLE
  2
DIMSTYLE
  5
A
330
0
100
AcDbSymbolTable
 70
    1
100
AcDbDimStyleTable
 71
    1
  0
DIMSTYLE
105
4E
330
A
100
AcDbSymbolTableRecord
100
AcDbDimStyleTableRecord
  2
Standard
 70
    0
 40
1
 41
2.5
 42
0.625
 43
0.38
 44
1.25
 45
0
 46
0
 47
0
 48
0
 49
1
140
5
141
0.09
142
0
143
25.4
144
1
145
0
146
1
147
0.625
148
0
 71
    0
 72
    0
 73
    1
 74
    1
 75
    0
 76
    0
 77
    0
 78
    1
 79
    0
170
    0
171
    2
172
    0
173
    0
174
    0
175
    0
176
    0
177
    0
178
    0
179
    2
271
    1
272
    4
273
    2
274
    2
275
    0
276
    0
277
    2
278
    0
279
    0
280
    0
281
    0
282
    0
283
    1
284
    0
285
    0
286
    0
288
    0
289
    3
340
standard
341

371
   -2
372
   -2
  0
ENDTAB
  0
TABLE
  2
BLOCK_RECORD
  5
1
330
0
100
AcDbSymbolTable
 70
    2
  0
BLOCK_RECORD
  5
1F
330
1
100
AcDbSymbolTableRecord
100
AcDbBlockTableRecord
  2
*Model_Space
 70
    0
280
    1
281
    0
  0
BLOCK_RECORD
  5
1E
330
1
100
AcDbSymbolTableRecord
100
AcDbBlockTableRecord
  2
*Paper_Space
 70
    0
280
    1
281
    0
  0
BLOCK_RECORD
  5
4F
330
1
100
AcDbSymbolTableRecord
100
AcDbBlockTableRecord
  2
*D15
 70
    0
280
    1
281
    0
  0
BLOCK_RECORD
  5
52
330
1
100
AcDbSymbolTableRecord
100
AcDbBlockTableRecord
  2
*D5
 70
    0
280
    1
281
    0
  0
BLOCK_RECORD
  5
55
330
1
100
AcDbSymbolTableRecord
100
AcDbBlockTableRecord
  2
*D17
 70
    0
280
    1
281
    0
  0
BLOCK_RECORD
  5
58
330
1
100
AcDbSymbolTableRecord
100
AcDbBlockTableRecord
  2
*D12
 70
    0
280
    1
281
    0
  0
BLOCK_RECORD
  5
5B
330
1
100
AcDbSymbolTableRecord
100
AcDbBlockTableRecord
  2
*D16
 70
    0
280
    1
281
    0
  0
BLOCK_RECORD
  5
5E
330
1
100
AcDbSymbolTableRecord
100
AcDbBlockTableRecord
  2
*D8
 70
    0
280
    1
281
    0
  0
BLOCK_RECORD
  5
61
330
1
100
AcDbSymbolTableRecord
100
AcDbBlockTableRecord
  2
*D21
 70
    0
280
    1
281
    0
  0
BLOCK_RECORD
  5
64
330
1
100
AcDbSymbolTableRecord
100
AcDbBlockTableRecord
  2
*D3
 70
    0
280
    1
281
    0
  0
BLOCK_RECORD
  5
67
330
1
100
AcDbSymbolTableRecord
100
AcDbBlockTableRecord
  2
*D22
 70
    0
280
    1
281
    0
  0
BLOCK_RECORD
  5
6A
330
1
100
AcDbSymbolTableRecord
100
AcDbBlockTableRecord
  2
*D11
 70
    0
280
    1
281
    0
  0
BLOCK_RECORD
  5
6D
330
1
100
AcDbSymbolTableRecord
100
AcDbBlockTableRecord
  2
*D1
 70
    0
280
    1
281
    0
  0
BLOCK_RECORD
  5
70
330
1
100
AcDbSymbolTableRecord
100
AcDbBlockTableRecord
  2
*D20
 70
    0
280
    1
281
    0
  0
BLOCK_RECORD
  5
73
330
1
100
AcDbSymbolTableRecord
100
AcDbBlockTableRecord
  2
*D13
 70
    0
280
    1
281
    0
  0
BLOCK_RECORD
  5
76
330
1
100
AcDbSymbolTableRecord
100
AcDbBlockTableRecord
  2
*D4
 70
    0
280
    1
281
    0
  0
BLOCK_RECORD
  5
79
330
1
100
AcDbSymbolTableRecord
100
AcDbBlockTableRecord
  2
*D10
 70
    0
280
    1
281
    0
  0
BLOCK_RECORD
  5
7C
330
1
100
AcDbSymbolTableRecord
100
AcDbBlockTableRecord
  2
*D7
 70
    0
280
    1
281
    0
  0
BLOCK_RECORD
  5
7F
330
1
100
AcDbSymbolTableRecord
100
AcDbBlockTableRecord
  2
*D2
 70
    0
280
    1
281
    0
  0
BLOCK_RECORD
  5
82
330
1
100
AcDbSymbolTableRecord
100
AcDbBlockTableRecord
  2
*D9
 70
    0
280
    1
281
    0
  0
BLOCK_RECORD
  5
85
330
1
100
AcDbSymbolTableRecord
100
AcDbBlockTableRecord
  2
*D18
 70
    0
280
    1
281
    0
  0
BLOCK_RECORD
  5
88
330
1
100
AcDbSymbolTableRecord
100
AcDbBlockTableRecord
  2
*D14
 70
    0
280
    1
281
    0
  0
BLOCK_RECORD
  5
8B
330
1
100
AcDbSymbolTableRecord
100
AcDbBlockTableRecord
  2
*D6
 70
    0
280
    1
281
    0
  0
BLOCK_RECORD
  5
8E
330
1
100
AcDbSymbolTableRecord
100
AcDbBlockTableRecord
  2
*D19
 70
    0
280
    1
281
    0
  0
ENDTAB
  0
ENDSEC
  0
SECTION
  2
BLOCKS
  0
BLOCK
  5
20
330
1F
100
AcDbEntity
  8
0
100
AcDbBlockBegin
  2
*Model_Space
 70
    0
 10
0
 20
0
 30
0
  3
*Model_Space
  1

  0
ENDBLK
  5
21
330
1F
100
AcDbEntity
  8
0
100
AcDbBlockEnd
  0
BLOCK
  5
1C
330
1B
100
AcDbEntity
  8
0
100
AcDbBlockBegin
  2
*Paper_Space
 70
    0
 10
0
 20
0
 30
0
  3
*Paper_Space
  1

  0
ENDBLK
  5
1D
330
1F
100
AcDbEntity
  8
0
100
AcDbBlockEnd
  0
BLOCK
  5
50
330
4F
100
AcDbEntity
  8
0
100
AcDbBlockBegin
  2
*D15
 70
    1
 10
0
 20
0
  3
*D15
  1

  0
LINE
  5
91
100
AcDbEntity
  8
Abmessungen
  6
ByBlock
 62
    0
370
   -2
100
AcDbLine
 10
234
 20
54
 11
269.2638888888889
 21
54
  0
SOLID
  5
92
100
AcDbEntity
  8
Abmessungen
  6
ByBlock
 62
    0
370
   -2
100
AcDbTrace
 10
234
 20
54
 30
0
 11
236.5
 21
54.41628465777284
 31
0
 12
236.5
 22
53.58371534222716
 32
0
 13
236.5
 23
53.58371534222716
 33
0
  0
SOLID
  5
93
100
AcDbEntity
  8
Abmessungen
  6
ByBlock
 62
    0
370
   -2
100
AcDbTrace
 10
318
 20
54
 30
0
 11
315.5
 21
53.58371534222716
 31
0
 12
315.5
 22
54.41628465777284
 32
0
 13
315.5
 23
54.41628465777284
 33
0
  0
LINE
  5
94
100
AcDbEntity
  8
Abmessungen
  6
ByBlock
 62
    0
370
   -2
100
AcDbLine
 10
282.7361111111111
 20
54
 11
318
 21
54
  0
MTEXT
  5
95
100
AcDbEntity
  8
Abmessungen
  6
CONTINUOUS
 62
    0
370
   -2
100
AcDbMText
 10
276
 20
54
 30
0
 40
5
 41
12.22222222222222
 71
    5
 72
    1
  1
84.0
  7
standard
210
0
220
0
230
1
 50
0
 73
    2
 44
1
  0
LINE
  5
96
100
AcDbEntity
  8
Abmessungen
  6
ByBlock
 62
    0
370
   -2
100
AcDbLine
 10
234
 20
61.375
 11
234
 21
52.75
  0
LINE
  5
97
100
AcDbEntity
  8
Abmessungen
  6
ByBlock
 62
    0
370
   -2
100
AcDbLine
 10
318
 20
61.375
 11
318
 21
52.75
  0
ENDBLK
  5
51
330
4F
100
AcDbEntity
  8
0
100
AcDbBlockEnd
  0
BLOCK
  5
53
330
52
100
AcDbEntity
  8
0
100
AcDbBlockBegin
  2
*D5
 70
    1
 10
0
 20
0
  3
*D5
  1

  0
LINE
  5
98
100
AcDbEntity
  8
Abmessungen
  6
ByBlock
 62
    0
370
   -2
100
AcDbLine
 10
174
 20
10
 11
217.1527777777778
 21
10
  0
SOLID
  5
99
100
AcDbEntity
  8
Abmessungen
  6
ByBlock
 62
    0
370
   -2
100
AcDbTrace
 10
174
 20
10
 30
0
 11
176.5
 21
10.41628465777284
 31
0
 12
176.5
 22
9.583715342227158
 32
0
 13
176.5
 23
9.583715342227158
 33
0
  0
SOLID
  5
9A
100
AcDbEntity
  8
Abmessungen
  6
ByBlock
 62
    0
370
   -2
100
AcDbTrace
 10
276
 20
10
 30
0
 11
273.5
 21
9.58371534222716
 31
0
 12
273.5
 22
10.41628465777284
 32
0
 13
273.5
 23
10.41628465777284
 33
0
  0
LINE
  5
9B
100
AcDbEntity
  8
Abmessungen
  6
ByBlock
 62
    0
370
   -2
100
AcDbLine
 10
232.8472222222222
 20
10
 11
276
 21
10
  0
MTEXT
  5
9C
100
AcDbEntity
  8
Abmessungen
  6
CONTINUOUS
 62
    0
370
   -2
100
AcDbMText
 10
225
 20
10
 30
0
 40
5
 41
14.44444444444444
 71
    5
 72
    1
  1
102.0
  7
standard
210
0
220
0
230
1
 50
0
 73
    2
 44
1
  0
LINE
  5
9D
100
AcDbEntity
  8
Abmessungen
  6
ByBlock
 62
    0
370
   -2
100
AcDbLine
 10
174
 20
19.375
 11
174
 21
8.75
  0
LINE
  5
9E
100
AcDbEntity
  8
Abmessungen
  6
ByBlock
 62
    0
370
   -2
100
AcDbLine
 10
276
 20
19.375
 11
276
 21
8.75
  0
ENDBLK
  5
54
330
52
100
AcDbEntity
  8
0
100
AcDbBlockEnd
  0
BLOCK
  5
56
330
55
100
AcDbEntity
  8
0
100
AcDbBlockBegin
  2
*D17
 70
    1
 10
0
 20
0
  3
*D17
  1

  0
LINE
  5
9F
100
AcDbEntity
  8
Abmessungen
  6
ByBlock
 62
    0
370
   -2
100
AcDbLine
 10
336
 20
54
 11
371.2638888888889
 21
54
  0
SOLID
  5
A0
100
AcDbEntity
  8
Abmessungen
  6
ByBlock
 62
    0
370
   -2
100
AcDbTrace
 10
336
 20
54
 30
0
 11
338.5
 21
54.41628465777284
 31
0
 12
338.5
 22
53.58371534222716
 32
0
 13
338.5
 23
53.58371534222716
 33
0
  0
SOLID
  5
A1
100
AcDbEntity
  8
Abmessungen
  6
ByBlock
 62
    0
370
   -2
100
AcDbTrace
 10
420
 20
54
 30
0
 11
417.5
 21
53.58371534222716
 31
0
 12
417.5
 22
54.41628465777284
 32
0
 13
417.5
 23
54.41628465777284
 33
0
  0
LINE
  5
A2
100
AcDbEntity
  8
Abmessungen
  6
ByBlock
 62
    0
370
   -2
100
AcDbLine
 10
384.7361111111111
 20
54
 11
420
 21
54
  0
MTEXT
  5
A3
100
AcDbEntity
  8
Abmessungen
  6
CONTINUOUS
 62
    0
370
   -2
100
AcDbMText
 10
378
 20
54
 30
0
 40
5
 41
12.22222222222222
 71
    5
 72
    1
  1
84.0
  7
standard
210
0
220
0
230
1
 50
0
 73
    2
 44
1
  0
LINE
  5
A4
100
AcDbEntity
  8
Abmessungen
  6
ByBlock
 62
    0
370
   -2
100
AcDbLine
 10
336
 20
61.375
 11
336
 21
52.75
  0
LINE
  5
A5
100
AcDbEntity
  8
Abmessungen
  6
ByBlock
 62
    0
370
   -2
100
AcDbLine
 10
420
 20
61.375
 11
420
 21
52.75
  0
ENDBLK
  5
57
330
55
100
AcDbEntity
  8
0
100
AcDbBlockEnd
  0
BLOCK
  5
59
330
58
100
AcDbEntity
  8
0
100
AcDbBlockBegin
  2
*D12
 70
    1
 10
0
 20
0
  3
*D12
  1

  0
LINE
  5
A6
100
AcDbEntity
  8
Abmessungen
  6
ByBlock
 62
    0
370
   -2
100
AcDbLine
 10
114
 20
54
 11
117.0972222222222
 21
54
  0
SOLID
  5
A7
100
AcDbEntity
  8
Abmessungen
  6
ByBlock
 62
    0
370
   -2
100
AcDbTrace
 10
114
 20
54
 30
0
 11
116.5
 21
54.41628465777284
 31
0
 12
116.5
 22
53.58371534222716
 32
0
 13
116.5
 23
53.58371534222716
 33
0
  0
SOLID
  5
A8
100
AcDbEntity
  8
Abmessungen
  6
ByBlock
 62
    0
370
   -2
100
AcDbTrace
 10
132
 20
54
 30
0
 11
129.5
 21
53.58371534222716
 31
0
 12
129.5
 22
54.41628465777284
 32
0
 13
129.5
 23
54.41628465777284
 33
0
  0
LINE
  5
A9
100
AcDbEntity
  8
Abmessungen
  6
ByBlock
 62
    0
370
   -2
100
AcDbLine
 10
128.9027777777778
 20
54
 11
132
 21
54
  0
MTEXT
  5
AA
100
AcDbEntity
  8
Abmessungen
  6
CONTINUOUS
 62
    0
370
   -2
100
AcDbMText
 10
123
 20
54
 30
0
 40
5
 41
10.55555555555556
 71
    5
 72
    1
  1
18.0
  7
standard
210
0
220
0
230
1
 50
0
 73
    2
 44
1
  0
LINE
  5
AB
100
AcDbEntity
  8
Abmessungen
  6
ByBlock
 62
    0
370
   -2
100
AcDbLine
 10
114
 20
61.375
 11
114
 21
52.75
  0
LINE
  5
AC
100
AcDbEntity
  8
Abmessungen
  6
ByBlock
 62
    0
370
   -2
100
AcDbLine
 10
132
 20
61.375
 11
132
 21
52.75
  0
ENDBLK
  5
5A
330
58
100
AcDbEntity
  8
0
100
AcDbBlockEnd
  0
BLOCK
  5
5C
330
5B
100
AcDbEntity
  8
0
100
AcDbBlockBegin
  2
*D16
 70
    1
 10
0
 20
0
  3
*D16
  1

  0
LINE
  5
AD
100
AcDbEntity
  8
Abmessungen
  6
ByBlock
 62
    0
370
   -2
100
AcDbLine
 10
318
 20
54
 11
321.0972222222222
 21
54
  0
SOLID
  5
AE
100
AcDbEntity
  8
Abmessungen
  6
ByBlock
 62
    0
370
   -2
100
AcDbTrace
 10
318
 20
54
 30
0
 11
320.5
 21
54.41628465777284
 31
0
 12
320.5
 22
53.58371534222716
 32
0
 13
320.5
 23
53.58371534222716
 33
0
  0
SOLID
  5
AF
100
AcDbEntity
  8
Abmessungen
  6
ByBlock
 62
    0
370
   -2
100
AcDbTrace
 10
336
 20
54
 30
0
 11
333.5
 21
53.58371534222716
 31
0
 12
333.5
 22
54.41628465777284
 32
0
 13
333.5
 23
54.41628465777284
 33
0
  0
LINE
  5
B0
100
AcDbEntity
  8
Abmessungen
  6
ByBlock
 62
    0
370
   -2
100
AcDbLine
 10
332.9027777777777
 20
54
 11
336
 21
54
  0
MTEXT
  5
B1
100
AcDbEntity
  8
Abmessungen
  6
CONTINUOUS
 62
    0
370
   -2
100
AcDbMText
 10
327
 20
54
 30
0
 40
5
 41
10.55555555555556
 71
    5
 72
    1
  1
18.0
  7
standard
210
0
220
0
230
1
 50
0
 73
    2
 44
1
  0
LINE
  5
B2
100
AcDbEntity
  8
Abmessungen
  6
ByBlock
 62
    0
370
   -2
100
AcDbLine
 10
318
 20
61.375
 11
318
 21
52.75
  0
LINE
  5
B3
100
AcDbEntity
  8
Abmessungen
  6
ByBlock
 62
    0
370
   -2
100
AcDbLine
 10
336
 20
61.375
 11
336
 21
52.75
  0
ENDBLK
  5
5D
330
5B
100
AcDbEntity
  8
0
100
AcDbBlockEnd
  0
BLOCK
  5
5F
330
5E
100
AcDbEntity
  8
0
100
AcDbBlockBegin
  2
*D8
 70
    1
 10
0
 20
0
  3
*D8
  1

  0
LINE
  5
B4
100
AcDbEntity
  8
Abmessungen
  6
ByBlock
 62
    0
370
   -2
100
AcDbLine
 10
12
 20
27
 11
110.6527777777776
 21
27
  0
SOLID
  5
B5
100
AcDbEntity
  8
Abmessungen
  6
ByBlock
 62
    0
370
   -2
100
AcDbTrace
 10
12
 20
27
 30
0
 11
14.5
 21
27.41628465777284
 31
0
 12
14.5
 22
26.58371534222716
 32
0
 13
14.5
 23
26.58371534222716
 33
0
  0
SOLID
  5
B6
100
AcDbEntity
  8
Abmessungen
  6
ByBlock
 62
    0
370
   -2
100
AcDbTrace
 10
225
 20
27
 30
0
 11
222.5
 21
26.58371534222716
 31
0
 12
222.5
 22
27.41628465777284
 32
0
 13
222.5
 23
27.41628465777284
 33
0
  0
LINE
  5
B7
100
AcDbEntity
  8
Abmessungen
  6
ByBlock
 62
    0
370
   -2
100
AcDbLine
 10
126.3472222222224
 20
27
 11
225
 21
27
  0
MTEXT
  5
B8
100
AcDbEntity
  8
Abmessungen
  6
CONTINUOUS
 62
    0
370
   -2
100
AcDbMText
 10
118.5
 20
27
 30
0
 40
5
 41
14.44444444444476
 71
    5
 72
    1
  1
213.0
  7
standard
210
0
220
0
230
1
 50
0
 73
    2
 44
1
  0
LINE
  5
B9
100
AcDbEntity
  8
Abmessungen
  6
ByBlock
 62
    0
370
   -2
100
AcDbLine
 10
12
 20
34.375
 11
12
 21
25.75
  0
LINE
  5
BA
100
AcDbEntity
  8
Abmessungen
  6
ByBlock
 62
    0
370
   -2
100
AcDbLine
 10
225
 20
34.375
 11
225
 21
25.75
  0
ENDBLK
  5
60
330
5E
100
AcDbEntity
  8
0
100
AcDbBlockEnd
  0
BLOCK
  5
62
330
61
100
AcDbEntity
  8
0
100
AcDbBlockBegin
  2
*D21
 70
    1
 10
0
 20
0
  3
*D21
  1

  0
LINE
  5
BB
100
AcDbEntity
  8
Abmessungen
  6
ByBlock
 62
    0
370
   -2
100
AcDbLine
 10
480
 20
7.105427357601002e-15
 11
480
 21
14.375
  0
SOLID
  5
BC
100
AcDbEntity
  8
Abmessungen
  6
ByBlock
 62
    0
370
   -2
100
AcDbTrace
 10
480
 20
7.105427357601002e-15
 30
0
 11
479.5837153422272
 21
2.500000000000007
 31
0
 12
480.4162846577728
 22
2.500000000000007
 32
0
 13
480.4162846577728
 23
2.500000000000007
 33
0
  0
SOLID
  5
BD
100
AcDbEntity
  8
Abmessungen
  6
ByBlock
 62
    0
370
   -2
100
AcDbTrace
 10
480
 20
35
 30
0
 11
480.4162846577728
 21
32.5
 31
0
 12
479.5837153422272
 22
32.5
 32
0
 13
479.5837153422272
 23
32.5
 33
0
  0
LINE
  5
BE
100
AcDbEntity
  8
Abmessungen
  6
ByBlock
 62
    0
370
   -2
100
AcDbLine
 10
480
 20
20.625
 11
480
 21
35
  0
MTEXT
  5
BF
100
AcDbEntity
  8
Abmessungen
  6
CONTINUOUS
 62
    0
370
   -2
100
AcDbMText
 10
480
 20
17.5
 30
0
 40
5
 41
11.66666666666729
 71
    5
 72
    1
  1
35.0
  7
standard
210
0
220
0
230
1
 50
0
 73
    2
 44
1
  0
LINE
  5
C0
100
AcDbEntity
  8
Abmessungen
  6
ByBlock
 62
    0
370
   -2
100
AcDbLine
 10
450.625
 20
2.775557561562891e-16
 11
481.25
 21
7.66053886991358e-15
  0
LINE
  5
C1
100
AcDbEntity
  8
Abmessungen
  6
ByBlock
 62
    0
370
   -2
100
AcDbLine
 10
450.625
 20
35
 11
481.25
 21
35
  0
ENDBLK
  5
63
330
61
100
AcDbEntity
  8
0
100
AcDbBlockEnd
  0
BLOCK
  5
65
330
64
100
AcDbEntity
  8
0
100
AcDbBlockBegin
  2
*D3
 70
    1
 10
0
 20
0
  3
*D3
  1

  0
LINE
  5
C2
100
AcDbEntity
  8
Abmessungen
  6
ByBlock
 62
    0
370
   -2
100
AcDbLine
 10
0
 20
10
 11
29.54166666666666
 21
10
  0
SOLID
  5
C3
100
AcDbEntity
  8
Abmessungen
  6
ByBlock
 62
    0
370
   -2
100
AcDbTrace
 10
0
 20
10
 30
0
 11
2.5
 21
10.41628465777284
 31
0
 12
2.5
 22
9.583715342227158
 32
0
 13
2.5
 23
9.583715342227158
 33
0
  0
SOLID
  5
C4
100
AcDbEntity
  8
Abmessungen
  6
ByBlock
 62
    0
370
   -2
100
AcDbTrace
 10
72
 20
10
 30
0
 11
69.5
 21
9.58371534222716
 31
0
 12
69.5
 22
10.41628465777284
 32
0
 13
69.5
 23
10.41628465777284
 33
0
  0
LINE
  5
C5
100
AcDbEntity
  8
Abmessungen
  6
ByBlock
 62
    0
370
   -2
100
AcDbLine
 10
42.45833333333334
 20
10
 11
72
 21
10
  0
MTEXT
  5
C6
100
AcDbEntity
  8
Abmessungen
  6
CONTINUOUS
 62
    0
370
   -2
100
AcDbMText
 10
36
 20
10
 30
0
 40
5
 41
11.66666666666667
 71
    5
 72
    1
  1
72.0
  7
standard
210
0
220
0
230
1
 50
0
 73
    2
 44
1
  0
LINE
  5
C7
100
AcDbEntity
  8
Abmessungen
  6
ByBlock
 62
    0
370
   -2
100
AcDbLine
 10
-1.148106374200643e-16
 20
19.375
 11
-2.296212748401287e-16
 21
8.75
  0
LINE
  5
C8
100
AcDbEntity
  8
Abmessungen
  6
ByBlock
 62
    0
370
   -2
100
AcDbLine
 10
72
 20
19.375
 11
72
 21
8.75
  0
ENDBLK
  5
66
330
64
100
AcDbEntity
  8
0
100
AcDbBlockEnd
  0
BLOCK
  5
68
330
67
100
AcDbEntity
  8
0
100
AcDbBlockBegin
  2
*D22
 70
    1
 10
0
 20
0
  3
*D22
  1

  0
LINE
  5
C9
100
AcDbEntity
  8
Abmessungen
  6
ByBlock
 62
    0
370
   -2
100
AcDbLine
 10
490
 20
7.105427357601002e-15
 11
490
 21
27.875
  0
SOLID
  5
CA
100
AcDbEntity
  8
Abmessungen
  6
ByBlock
 62
    0
370
   -2
100
AcDbTrace
 10
490
 20
7.105427357601002e-15
 30
0
 11
489.5837153422272
 21
2.500000000000007
 31
0
 12
490.4162846577728
 22
2.500000000000007
 32
0
 13
490.4162846577728
 23
2.500000000000007
 33
0
  0
SOLID
  5
CB
100
AcDbEntity
  8
Abmessungen
  6
ByBlock
 62
    0
370
   -2
100
AcDbTrace
 10
490
 20
62
 30
0
 11
490.4162846577728
 21
59.5
 31
0
 12
489.5837153422272
 22
59.5
 32
0
 13
489.5837153422272
 23
59.5
 33
0
  0
LINE
  5
CC
100
AcDbEntity
  8
Abmessungen
  6
ByBlock
 62
    0
370
   -2
100
AcDbLine
 10
490
 20
34.125
 11
490
 21
62
  0
MTEXT
  5
CD
100
AcDbEntity
  8
Abmessungen
  6
CONTINUOUS
 62
    0
370
   -2
100
AcDbMText
 10
490
 20
31
 30
0
 40
5
 41
11.66666666666698
 71
    5
 72
    1
  1
62.0
  7
standard
210
0
220
0
230
1
 50
0
 73
    2
 44
1
  0
LINE
  5
CE
100
AcDbEntity
  8
Abmessungen
  6
ByBlock
 62
    0
370
   -2
100
AcDbLine
 10
450.625
 20
0
 11
491.25
 21
7.105427357601002e-15
  0
LINE
  5
CF
100
AcDbEntity
  8
Abmessungen
  6
ByBlock
 62
    0
370
   -2
100
AcDbLine
 10
450.625
 20
62
 11
491.25
 21
62
  0
ENDBLK
  5
69
330
67
100
AcDbEntity
  8
0
100
AcDbBlockEnd
  0
BLOCK
  5
6B
330
6A
100
AcDbEntity
  8
0
100
AcDbBlockBegin
  2
*D11
 70
    1
 10
0
 20
0
  3
*D11
  1

  0
LINE
  5
D0
100
AcDbEntity
  8
Abmessungen
  6
ByBlock
 62
    0
370
   -2
100
AcDbLine
 10
30
 20
54
 11
65.26388888888889
 21
54
  0
SOLID
  5
D1
100
AcDbEntity
  8
Abmessungen
  6
ByBlock
 62
    0
370
   -2
100
AcDbTrace
 10
30
 20
54
 30
0
 11
32.5
 21
54.41628465777284
 31
0
 12
32.5
 22
53.58371534222716
 32
0
 13
32.5
 23
53.58371534222716
 33
0
  0
SOLID
  5
D2
100
AcDbEntity
  8
Abmessungen
  6
ByBlock
 62
    0
370
   -2
100
AcDbTrace
 10
114
 20
54
 30
0
 11
111.5
 21
53.58371534222716
 31
0
 12
111.5
 22
54.41628465777284
 32
0
 13
111.5
 23
54.41628465777284
 33
0
  0
LINE
  5
D3
100
AcDbEntity
  8
Abmessungen
  6
ByBlock
 62
    0
370
   -2
100
AcDbLine
 10
78.73611111111111
 20
54
 11
114
 21
54
  0
MTEXT
  5
D4
100
AcDbEntity
  8
Abmessungen
  6
CONTINUOUS
 62
    0
370
   -2
100
AcDbMText
 10
72
 20
54
 30
0
 40
5
 41
12.22222222222222
 71
    5
 72
    1
  1
84.0
  7
standard
210
0
220
0
230
1
 50
0
 73
    2
 44
1
  0
LINE
  5
D5
100
AcDbEntity
  8
Abmessungen
  6
ByBlock
 62
    0
370
   -2
100
AcDbLine
 10
30
 20
61.375
 11
30
 21
52.75
  0
LINE
  5
D6
100
AcDbEntity
  8
Abmessungen
  6
ByBlock
 62
    0
370
   -2
100
AcDbLine
 10
114
 20
61.375
 11
114
 21
52.75
  0
ENDBLK
  5
6C
330
6A
100
AcDbEntity
  8
0
100
AcDbBlockEnd
  0
BLOCK
  5
6E
330
6D
100
AcDbEntity
  8
0
100
AcDbBlockBegin
  2
*D1
 70
    1
 10
0
 20
0
  3
*D1
  1

  0
LINE
  5
D7
100
AcDbEntity
  8
Abmessungen
  6
ByBlock
 62
    0
370
   -2
100
AcDbLine
 10
3.827021247335479e-17
 20
65.625
 11
1.607348923880901e-15
 21
91.25
  0
LINE
  5
D8
100
AcDbEntity
  8
Abmessungen
  6
ByBlock
 62
    0
370
   -2
100
AcDbLine
 10
450
 20
65.625
 11
450
 21
91.25
  0
LINE
  5
D9
100
AcDbEntity
  8
Abmessungen
  6
ByBlock
 62
    0
370
   -2
100
AcDbLine
 10
1.530808498934192e-15
 20
90
 11
216.3194444444443
 21
90
  0
SOLID
  5
DA
100
AcDbEntity
  8
Abmessungen
  6
ByBlock
 62
    0
370
   -2
100
AcDbTrace
 10
1.530808498934192e-15
 20
90
 30
0
 11
2.500000000000001
 21
90.41628465777283
 31
0
 12
2.500000000000001
 22
89.58371534222717
 32
0
 13
2.500000000000001
 23
89.58371534222717
 33
0
  0
SOLID
  5
DB
100
AcDbEntity
  8
Abmessungen
  6
ByBlock
 62
    0
370
   -2
100
AcDbTrace
 10
450
 20
90
 30
0
 11
447.5
 21
89.58371534222717
 31
0
 12
447.5
 22
90.41628465777283
 32
0
 13
447.5
 23
90.41628465777283
 33
0
  0
LINE
  5
DC
100
AcDbEntity
  8
Abmessungen
  6
ByBlock
 62
    0
370
   -2
100
AcDbLine
 10
233.6805555555557
 20
90
 11
450
 21
90
  0
MTEXT
  5
DD
100
AcDbEntity
  8
Abmessungen
  6
CONTINUOUS
 62
    0
370
   -2
100
AcDbMText
 10
225
 20
90
 30
0
 40
5
 41
16.11111111111142
 71
    5
 72
    1
  1
450.0
  7
standard
210
0
220
0
230
1
 50
0
 73
    2
 44
1
  0
ENDBLK
  5
6F
330
6D
100
AcDbEntity
  8
0
100
AcDbBlockEnd
  0
BLOCK
  5
71
330
70
100
AcDbEntity
  8
0
100
AcDbBlockBegin
  2
*D20
 70
    1
 10
0
 20
0
  3
*D20
  1

  0
LINE
  5
DE
100
AcDbEntity
  8
Abmessungen
  6
ByBlock
 62
    0
370
   -2
100
AcDbLine
 10
468
 20
20
 11
468
 21
13.125
  0
SOLID
  5
DF
100
AcDbEntity
  8
Abmessungen
  6
ByBlock
 62
    0
370
   -2
100
AcDbTrace
 10
468
 20
20
 30
0
 11
468.4162846577728
 21
17.5
 31
0
 12
467.5837153422272
 22
17.5
 32
0
 13
467.5837153422272
 23
17.5
 33
0
  0
SOLID
  5
E0
100
AcDbEntity
  8
Abmessungen
  6
ByBlock
 62
    0
370
   -2
100
AcDbTrace
 10
468
 20
0
 30
0
 11
467.5837153422272
 21
2.5
 31
0
 12
468.4162846577728
 22
2.5
 32
0
 13
468.4162846577728
 23
2.5
 33
0
  0
LINE
  5
E1
100
AcDbEntity
  8
Abmessungen
  6
ByBlock
 62
    0
370
   -2
100
AcDbLine
 10
468
 20
6.875
 11
468
 21
0
  0
MTEXT
  5
E2
100
AcDbEntity
  8
Abmessungen
  6
CONTINUOUS
 62
    0
370
   -2
100
AcDbMText
 10
468
 20
10
 30
0
 40
5
 41
11.66666666666667
 71
    5
 72
    1
  1
20.0
  7
standard
210
0
220
0
230
1
 50
0
 73
    2
 44
1
  0
LINE
  5
E3
100
AcDbEntity
  8
Abmessungen
  6
ByBlock
 62
    0
370
   -2
100
AcDbLine
 10
450.625
 20
20
 11
469.25
 21
20
  0
LINE
  5
E4
100
AcDbEntity
  8
Abmessungen
  6
ByBlock
 62
    0
370
   -2
100
AcDbLine
 10
450.625
 20
0
 11
469.25
 21
0
  0
ENDBLK
  5
72
330
70
100
AcDbEntity
  8
0
100
AcDbBlockEnd
  0
BLOCK
  5
74
330
73
100
AcDbEntity
  8
0
100
AcDbBlockBegin
  2
*D13
 70
    1
 10
0
 20
0
  3
*D13
  1

  0
LINE
  5
E5
100
AcDbEntity
  8
Abmessungen
  6
ByBlock
 62
    0
370
   -2
100
AcDbLine
 10
132
 20
54
 11
167.2638888888889
 21
54
  0
SOLID
  5
E6
100
AcDbEntity
  8
Abmessungen
  6
ByBlock
 62
    0
370
   -2
100
AcDbTrace
 10
132
 20
54
 30
0
 11
134.5
 21
54.41628465777284
 31
0
 12
134.5
 22
53.58371534222716
 32
0
 13
134.5
 23
53.58371534222716
 33
0
  0
SOLID
  5
E7
100
AcDbEntity
  8
Abmessungen
  6
ByBlock
 62
    0
370
   -2
100
AcDbTrace
 10
216
 20
54
 30
0
 11
213.5
 21
53.58371534222716
 31
0
 12
213.5
 22
54.41628465777284
 32
0
 13
213.5
 23
54.41628465777284
 33
0
  0
LINE
  5
E8
100
AcDbEntity
  8
Abmessungen
  6
ByBlock
 62
    0
370
   -2
100
AcDbLine
 10
180.7361111111111
 20
54
 11
216
 21
54
  0
MTEXT
  5
E9
100
AcDbEntity
  8
Abmessungen
  6
CONTINUOUS
 62
    0
370
   -2
100
AcDbMText
 10
174
 20
54
 30
0
 40
5
 41
12.22222222222222
 71
    5
 72
    1
  1
84.0
  7
standard
210
0
220
0
230
1
 50
0
 73
    2
 44
1
  0
LINE
  5
EA
100
AcDbEntity
  8
Abmessungen
  6
ByBlock
 62
    0
370
   -2
100
AcDbLine
 10
132
 20
61.375
 11
132
 21
52.75
  0
LINE
  5
EB
100
AcDbEntity
  8
Abmessungen
  6
ByBlock
 62
    0
370
   -2
100
AcDbLine
 10
216
 20
61.375
 11
216
 21
52.75
  0
ENDBLK
  5
75
330
73
100
AcDbEntity
  8
0
100
AcDbBlockEnd
  0
BLOCK
  5
77
330
76
100
AcDbEntity
  8
0
100
AcDbBlockBegin
  2
*D4
 70
    1
 10
0
 20
0
  3
*D4
  1

  0
LINE
  5
EC
100
AcDbEntity
  8
Abmessungen
  6
ByBlock
 62
    0
370
   -2
100
AcDbLine
 10
72
 20
10
 11
115.1527777777778
 21
10
  0
SOLID
  5
ED
100
AcDbEntity
  8
Abmessungen
  6
ByBlock
 62
    0
370
   -2
100
AcDbTrace
 10
72
 20
10
 30
0
 11
74.5
 21
10.41628465777284
 31
0
 12
74.5
 22
9.583715342227158
 32
0
 13
74.5
 23
9.583715342227158
 33
0
  0
SOLID
  5
EE
100
AcDbEntity
  8
Abmessungen
  6
ByBlock
 62
    0
370
   -2
100
AcDbTrace
 10
174
 20
10
 30
0
 11
171.5
 21
9.58371534222716
 31
0
 12
171.5
 22
10.41628465777284
 32
0
 13
171.5
 23
10.41628465777284
 33
0
  0
LINE
  5
EF
100
AcDbEntity
  8
Abmessungen
  6
ByBlock
 62
    0
370
   -2
100
AcDbLine
 10
130.8472222222222
 20
10
 11
174
 21
10
  0
MTEXT
  5
F0
100
AcDbEntity
  8
Abmessungen
  6
CONTINUOUS
 62
    0
370
   -2
100
AcDbMText
 10
123
 20
10
 30
0
 40
5
 41
14.44444444444444
 71
    5
 72
    1
  1
102.0
  7
standard
210
0
220
0
230
1
 50
0
 73
    2
 44
1
  0
LINE
  5
F1
100
AcDbEntity
  8
Abmessungen
  6
ByBlock
 62
    0
370
   -2
100
AcDbLine
 10
72
 20
19.375
 11
72
 21
8.75
  0
LINE
  5
F2
100
AcDbEntity
  8
Abmessungen
  6
ByBlock
 62
    0
370
   -2
100
AcDbLine
 10
174
 20
19.375
 11
174
 21
8.75
  0
ENDBLK
  5
78
330
76
100
AcDbEntity
  8
0
100
AcDbBlockEnd
  0
BLOCK
  5
7A
330
79
100
AcDbEntity
  8
0
100
AcDbBlockBegin
  2
*D10
 70
    1
 10
0
 20
0
  3
*D10
  1

  0
LINE
  5
F3
100
AcDbEntity
  8
Abmessungen
  6
ByBlock
 62
    0
370
   -2
100
AcDbLine
 10
0
 20
54
 11
8.541666666666512
 21
54
  0
SOLID
  5
F4
100
AcDbEntity
  8
Abmessungen
  6
ByBlock
 62
    0
370
   -2
100
AcDbTrace
 10
0
 20
54
 30
0
 11
2.5
 21
54.41628465777284
 31
0
 12
2.5
 22
53.58371534222716
 32
0
 13
2.5
 23
53.58371534222716
 33
0
  0
SOLID
  5
F5
100
AcDbEntity
  8
Abmessungen
  6
ByBlock
 62
    0
370
   -2
100
AcDbTrace
 10
30
 20
54
 30
0
 11
27.5
 21
53.58371534222716
 31
0
 12
27.5
 22
54.41628465777284
 32
0
 13
27.5
 23
54.41628465777284
 33
0
  0
LINE
  5
F6
100
AcDbEntity
  8
Abmessungen
  6
ByBlock
 62
    0
370
   -2
100
AcDbLine
 10
21.45833333333349
 20
54
 11
30
 21
54
  0
MTEXT
  5
F7
100
AcDbEntity
  8
Abmessungen
  6
CONTINUOUS
 62
    0
370
   -2
100
AcDbMText
 10
15
 20
54
 30
0
 40
5
 41
11.66666666666698
 71
    5
 72
    1
  1
30.0
  7
standard
210
0
220
0
230
1
 50
0
 73
    2
 44
1
  0
LINE
  5
F8
100
AcDbEntity
  8
Abmessungen
  6
ByBlock
 62
    0
370
   -2
100
AcDbLine
 10
-1.148106374200643e-16
 20
61.375
 11
-2.296212748401287e-16
 21
52.75
  0
LINE
  5
F9
100
AcDbEntity
  8
Abmessungen
  6
ByBlock
 62
    0
370
   -2
100
AcDbLine
 10
30
 20
61.375
 11
30
 21
52.75
  0
ENDBLK
  5
7B
330
79
100
AcDbEntity
  8
0
100
AcDbBlockEnd
  0
BLOCK
  5
7D
330
7C
100
AcDbEntity
  8
0
100
AcDbBlockBegin
  2
*D7
 70
    1
 10
0
 20
0
  3
*D7
  1

  0
LINE
  5
FA
100
AcDbEntity
  8
Abmessungen
  6
ByBlock
 62
    0
370
   -2
100
AcDbLine
 10
0
 20
27
 11
0.09722222222222143
 21
27
  0
SOLID
  5
FB
100
AcDbEntity
  8
Abmessungen
  6
ByBlock
 62
    0
370
   -2
100
AcDbTrace
 10
0
 20
27
 30
0
 11
2.5
 21
27.41628465777284
 31
0
 12
2.5
 22
26.58371534222716
 32
0
 13
2.5
 23
26.58371534222716
 33
0
  0
SOLID
  5
FC
100
AcDbEntity
  8
Abmessungen
  6
ByBlock
 62
    0
370
   -2
100
AcDbTrace
 10
12
 20
27
 30
0
 11
9.5
 21
26.58371534222716
 31
0
 12
9.5
 22
27.41628465777284
 32
0
 13
9.5
 23
27.41628465777284
 33
0
  0
LINE
  5
FD
100
AcDbEntity
  8
Abmessungen
  6
ByBlock
 62
    0
370
   -2
100
AcDbLine
 10
11.90277777777778
 20
27
 11
12
 21
27
  0
MTEXT
  5
FE
100
AcDbEntity
  8
Abmessungen
  6
CONTINUOUS
 62
    0
370
   -2
100
AcDbMText
 10
6
 20
27
 30
0
 40
5
 41
10.55555555555556
 71
    5
 72
    1
  1
12.0
  7
standard
210
0
220
0
230
1
 50
0
 73
    2
 44
1
  0
LINE
  5
FF
100
AcDbEntity
  8
Abmessungen
  6
ByBlock
 62
    0
370
   -2
100
AcDbLine
 10
-1.148106374200643e-16
 20
34.375
 11
-2.296212748401287e-16
 21
25.75
  0
LINE
  5
100
100
AcDbEntity
  8
Abmessungen
  6
ByBlock
 62
    0
370
   -2
100
AcDbLine
 10
12
 20
34.375
 11
12
 21
25.75
  0
ENDBLK
  5
7E
330
7C
100
AcDbEntity
  8
0
100
AcDbBlockEnd
  0
BLOCK
  5
80
330
7F
100
AcDbEntity
  8
0
100
AcDbBlockBegin
  2
*D2
 70
    1
 10
0
 20
0
  3
*D2
  1

  0
LINE
  5
101
100
AcDbEntity
  8
Abmessungen
  6
ByBlock
 62
    0
370
   -2
100
AcDbLine
 10
4.374999999999988
 20
70.00000000000001
 11
-26.25000000000001
 21
70.00000000000001
  0
LINE
  5
102
100
AcDbEntity
  8
Abmessungen
  6
ByBlock
 62
    0
370
   -2
100
AcDbLine
 10
4.375000000000004
 20
7.654042494670958e-17
 11
-26.25
 21
3.827021247335479e-15
  0
LINE
  5
103
100
AcDbEntity
  8
Abmessungen
  6
ByBlock
 62
    0
370
   -2
100
AcDbLine
 10
-25.00000000000001
 20
70.00000000000001
 11
-25.00000000000001
 21
38.12500000000001
  0
SOLID
  5
104
100
AcDbEntity
  8
Abmessungen
  6
ByBlock
 62
    0
370
   -2
100
AcDbTrace
 10
-25.00000000000001
 20
70.00000000000001
 30
0
 11
-24.58371534222717
 21
67.50000000000001
 31
0
 12
-25.41628465777286
 22
67.50000000000001
 32
0
 13
-25.41628465777286
 23
67.50000000000001
 33
0
  0
SOLID
  5
105
100
AcDbEntity
  8
Abmessungen
  6
ByBlock
 62
    0
370
   -2
100
AcDbTrace
 10
-25
 20
3.67394039744206e-15
 30
0
 11
-25.41628465777284
 21
2.500000000000004
 31
0
 12
-24.58371534222716
 22
2.500000000000004
 32
0
 13
-24.58371534222716
 23
2.500000000000004
 33
0
  0
LINE
  5
106
100
AcDbEntity
  8
Abmessungen
  6
ByBlock
 62
    0
370
   -2
100
AcDbLine
 10
-25.00000000000001
 20
31.87500000000001
 11
-25
 21
3.67394039744206e-15
  0
MTEXT
  5
107
100
AcDbEntity
  8
Abmessungen
  6
CONTINUOUS
 62
    0
370
   -2
100
AcDbMText
 10
-25.00000000000001
 20
35.00000000000001
 30
0
 40
5
 41
11.66666666666667
 71
    5
 72
    1
  1
70.0
  7
standard
210
0
220
0
230
1
 50
0
 73
    2
 44
1
  0
ENDBLK
  5
81
330
7F
100
AcDbEntity
  8
0
100
AcDbBlockEnd
  0
BLOCK
  5
83
330
82
100
AcDbEntity
  8
0
100
AcDbBlockBegin
  2
*D9
 70
    1
 10
0
 20
0
  3
*D9
  1

  0
LINE
  5
108
100
AcDbEntity
  8
Abmessungen
  6
ByBlock
 62
    0
370
   -2
100
AcDbLine
 10
225
 20
27
 11
323.6527777777776
 21
27
  0
SOLID
  5
109
100
AcDbEntity
  8
Abmessungen
  6
ByBlock
 62
    0
370
   -2
100
AcDbTrace
 10
225
 20
27
 30
0
 11
227.5
 21
27.41628465777284
 31
0
 12
227.5
 22
26.58371534222716
 32
0
 13
227.5
 23
26.58371534222716
 33
0
  0
SOLID
  5
10A
100
AcDbEntity
  8
Abmessungen
  6
ByBlock
 62
    0
370
   -2
100
AcDbTrace
 10
438
 20
27
 30
0
 11
435.5
 21
26.58371534222716
 31
0
 12
435.5
 22
27.41628465777284
 32
0
 13
435.5
 23
27.41628465777284
 33
0
  0
LINE
  5
10B
100
AcDbEntity
  8
Abmessungen
  6
ByBlock
 62
    0
370
   -2
100
AcDbLine
 10
339.3472222222224
 20
27
 11
438
 21
27
  0
MTEXT
  5
10C
100
AcDbEntity
  8
Abmessungen
  6
CONTINUOUS
 62
    0
370
   -2
100
AcDbMText
 10
331.5
 20
27
 30
0
 40
5
 41
14.44444444444476
 71
    5
 72
    1
  1
213.0
  7
standard
210
0
220
0
230
1
 50
0
 73
    2
 44
1
  0
LINE
  5
10D
100
AcDbEntity
  8
Abmessungen
  6
ByBlock
 62
    0
370
   -2
100
AcDbLine
 10
225
 20
34.375
 11
225
 21
25.75
  0
LINE
  5
10E
100
AcDbEntity
  8
Abmessungen
  6
ByBlock
 62
    0
370
   -2
100
AcDbLine
 10
438
 20
34.375
 11
438
 21
25.75
  0
ENDBLK
  5
84
330
82
100
AcDbEntity
  8
0
100
AcDbBlockEnd
  0
BLOCK
  5
86
330
85
100
AcDbEntity
  8
0
100
AcDbBlockBegin
  2
*D18
 70
    1
 10
0
 20
0
  3
*D18
  1

  0
LINE
  5
10F
100
AcDbEntity
  8
Abmessungen
  6
ByBlock
 62
    0
370
   -2
100
AcDbLine
 10
450.625
 20
5
 11
453.25
 21
5
  0
LINE
  5
110
100
AcDbEntity
  8
Abmessungen
  6
ByBlock
 62
    0
370
   -2
100
AcDbLine
 10
450.625
 20
0
 11
453.25
 21
0
  0
LINE
  5
111
100
AcDbEntity
  8
Abmessungen
  6
ByBlock
 62
    0
370
   -2
100
AcDbLine
 10
452
 20
10
 11
452
 21
5.625
  0
SOLID
  5
112
100
AcDbEntity
  8
Abmessungen
  6
ByBlock
 62
    0
370
   -2
100
AcDbTrace
 10
452
 20
5
 30
0
 11
451.5837153422272
 21
7.5
 31
0
 12
452.4162846577728
 22
7.5
 32
0
 13
452.4162846577728
 23
7.5
 33
0
  0
SOLID
  5
113
100
AcDbEntity
  8
Abmessungen
  6
ByBlock
 62
    0
370
   -2
100
AcDbTrace
 10
452
 20
0
 30
0
 11
452.4162846577728
 21
-2.5
 31
0
 12
451.5837153422272
 22
-2.5
 32
0
 13
451.5837153422272
 23
-2.5
 33
0
  0
LINE
  5
114
100
AcDbEntity
  8
Abmessungen
  6
ByBlock
 62
    0
370
   -2
100
AcDbLine
 10
452
 20
-0.625
 11
452
 21
-5
  0
MTEXT
  5
115
100
AcDbEntity
  8
Abmessungen
  6
CONTINUOUS
 62
    0
370
   -2
100
AcDbMText
 10
459.013888888889
 20
2.5
 30
0
 40
5
 41
7.777777777778088
 71
    5
 72
    1
  1
5.0
  7
standard
210
0
220
0
230
1
 50
0
 73
    2
 44
1
  0
ENDBLK
  5
87
330
85
100
AcDbEntity
  8
0
100
AcDbBlockEnd
  0
BLOCK
  5
89
330
88
100
AcDbEntity
  8
0
100
AcDbBlockBegin
  2
*D14
 70
    1
 10
0
 20
0
  3
*D14
  1

  0
LINE
  5
116
100
AcDbEntity
  8
Abmessungen
  6
ByBlock
 62
    0
370
   -2
100
AcDbLine
 10
216
 20
54
 11
219.0972222222222
 21
54
  0
SOLID
  5
117
100
AcDbEntity
  8
Abmessungen
  6
ByBlock
 62
    0
370
   -2
100
AcDbTrace
 10
216
 20
54
 30
0
 11
218.5
 21
54.41628465777284
 31
0
 12
218.5
 22
53.58371534222716
 32
0
 13
218.5
 23
53.58371534222716
 33
0
  0
SOLID
  5
118
100
AcDbEntity
  8
Abmessungen
  6
ByBlock
 62
    0
370
   -2
100
AcDbTrace
 10
234
 20
54
 30
0
 11
231.5
 21
53.58371534222716
 31
0
 12
231.5
 22
54.41628465777284
 32
0
 13
231.5
 23
54.41628465777284
 33
0
  0
LINE
  5
119
100
AcDbEntity
  8
Abmessungen
  6
ByBlock
 62
    0
370
   -2
100
AcDbLine
 10
230.9027777777778
 20
54
 11
234
 21
54
  0
MTEXT
  5
11A
100
AcDbEntity
  8
Abmessungen
  6
CONTINUOUS
 62
    0
370
   -2
100
AcDbMText
 10
225
 20
54
 30
0
 40
5
 41
10.55555555555556
 71
    5
 72
    1
  1
18.0
  7
standard
210
0
220
0
230
1
 50
0
 73
    2
 44
1
  0
LINE
  5
11B
100
AcDbEntity
  8
Abmessungen
  6
ByBlock
 62
    0
370
   -2
100
AcDbLine
 10
216
 20
61.375
 11
216
 21
52.75
  0
LINE
  5
11C
100
AcDbEntity
  8
Abmessungen
  6
ByBlock
 62
    0
370
   -2
100
AcDbLine
 10
234
 20
61.375
 11
234
 21
52.75
  0
ENDBLK
  5
8A
330
88
100
AcDbEntity
  8
0
100
AcDbBlockEnd
  0
BLOCK
  5
8C
330
8B
100
AcDbEntity
  8
0
100
AcDbBlockBegin
  2
*D6
 70
    1
 10
0
 20
0
  3
*D6
  1

  0
LINE
  5
11D
100
AcDbEntity
  8
Abmessungen
  6
ByBlock
 62
    0
370
   -2
100
AcDbLine
 10
276
 20
10
 11
319.1527777777778
 21
10
  0
SOLID
  5
11E
100
AcDbEntity
  8
Abmessungen
  6
ByBlock
 62
    0
370
   -2
100
AcDbTrace
 10
276
 20
10
 30
0
 11
278.5
 21
10.41628465777284
 31
0
 12
278.5
 22
9.583715342227158
 32
0
 13
278.5
 23
9.583715342227158
 33
0
  0
SOLID
  5
11F
100
AcDbEntity
  8
Abmessungen
  6
ByBlock
 62
    0
370
   -2
100
AcDbTrace
 10
378
 20
10
 30
0
 11
375.5
 21
9.58371534222716
 31
0
 12
375.5
 22
10.41628465777284
 32
0
 13
375.5
 23
10.41628465777284
 33
0
  0
LINE
  5
120
100
AcDbEntity
  8
Abmessungen
  6
ByBlock
 62
    0
370
   -2
100
AcDbLine
 10
334.8472222222223
 20
10
 11
378
 21
10
  0
MTEXT
  5
121
100
AcDbEntity
  8
Abmessungen
  6
CONTINUOUS
 62
    0
370
   -2
100
AcDbMText
 10
327
 20
10
 30
0
 40
5
 41
14.44444444444444
 71
    5
 72
    1
  1
102.0
  7
standard
210
0
220
0
230
1
 50
0
 73
    2
 44
1
  0
LINE
  5
122
100
AcDbEntity
  8
Abmessungen
  6
ByBlock
 62
    0
370
   -2
100
AcDbLine
 10
276
 20
19.375
 11
276
 21
8.75
  0
LINE
  5
123
100
AcDbEntity
  8
Abmessungen
  6
ByBlock
 62
    0
370
   -2
100
AcDbLine
 10
378
 20
19.375
 11
378
 21
8.75
  0
ENDBLK
  5
8D
330
8B
100
AcDbEntity
  8
0
100
AcDbBlockEnd
  0
BLOCK
  5
8F
330
8E
100
AcDbEntity
  8
0
100
AcDbBlockBegin
  2
*D19
 70
    1
 10
0
 20
0
  3
*D19
  1

  0
LINE
  5
124
100
AcDbEntity
  8
Abmessungen
  6
ByBlock
 62
    0
370
   -2
100
AcDbLine
 10
445
 20
-0.625
 11
445
 21
-10.25
  0
LINE
  5
125
100
AcDbEntity
  8
Abmessungen
  6
ByBlock
 62
    0
370
   -2
100
AcDbLine
 10
450
 20
-0.625
 11
450
 21
-10.25
  0
LINE
  5
126
100
AcDbEntity
  8
Abmessungen
  6
ByBlock
 62
    0
370
   -2
100
AcDbLine
 10
440
 20
-9
 11
442.986111111111
 21
-9
  0
SOLID
  5
127
100
AcDbEntity
  8
Abmessungen
  6
ByBlock
 62
    0
370
   -2
100
AcDbTrace
 10
445
 20
-9
 30
0
 11
442.5
 21
-9.41628465777284
 31
0
 12
442.5
 22
-8.58371534222716
 32
0
 13
442.5
 23
-8.58371534222716
 33
0
  0
SOLID
  5
128
100
AcDbEntity
  8
Abmessungen
  6
ByBlock
 62
    0
370
   -2
100
AcDbTrace
 10
450
 20
-9
 30
0
 11
452.5
 21
-8.58371534222716
 31
0
 12
452.5
 22
-9.416284657772842
 32
0
 13
452.5
 23
-9.416284657772842
 33
0
  0
LINE
  5
129
100
AcDbEntity
  8
Abmessungen
  6
ByBlock
 62
    0
370
   -2
100
AcDbLine
 10
452.013888888889
 20
-9
 11
455
 21
-9
  0
MTEXT
  5
12A
100
AcDbEntity
  8
Abmessungen
  6
CONTINUOUS
 62
    0
370
   -2
100
AcDbMText
 10
454.513888888889
 20
-9
 30
0
 40
5
 41
7.777777777778088
 71
    5
 72
    1
  1
5.0
  7
standard
210
0
220
0
230
1
 50
0
 73
    2
 44
1
  0
ENDBLK
  5
90
330
8E
100
AcDbEntity
  8
0
100
AcDbBlockEnd
  0
ENDSEC
  0
SECTION
  2
ENTITIES
  0
LWPOLYLINE
  5
12B
100
AcDbEntity
  8
Platinen
  6
ByLayer
 62
  256
370
   -1
100
AcDbPolyline
 90
    4
 70
    1
 43
0
 10
22
 20
-10
 10
122
 20
-10
 10
122
 20
70
 10
22
 20
70
  0
CIRCLE
  5
12C
100
AcDbEntity
  8
Platinen
  6
ByLayer
 62
  256
370
   -1
100
AcDbCircle
 10
30
 20
62
 40
1.6
  0
CIRCLE
  5
12D
100
AcDbEntity
  8
Platinen
  6
ByLayer
 62
  256
370
   -1
100
AcDbCircle
 10
114
 20
62
 40
1.6
  0
CIRCLE
  5
12E
100
AcDbEntity
  8
Platinen
  6
ByLayer
 62
  256
370
   -1
100
AcDbCircle
 10
72
 20
20
 40
1.6
  0
LWPOLYLINE
  5
12F
100
AcDbEntity
  8
Platinen
  6
ByLayer
 62
  256
370
   -1
100
AcDbPolyline
 90
    4
 70
    1
 43
0
 10
124
 20
-10
 10
224
 20
-10
 10
224
 20
70
 10
124
 20
70
  0
CIRCLE
  5
130
100
AcDbEntity
  8
Platinen
  6
ByLayer
 62
  256
370
   -1
100
AcDbCircle
 10
132
 20
62
 40
1.6
  0
CIRCLE
  5
131
100
AcDbEntity
  8
Platinen
  6
ByLayer
 62
  256
370
   -1
100
AcDbCircle
 10
216
 20
62
 40
1.6
  0
CIRCLE
  5
132
100
AcDbEntity
  8
Platinen
  6
ByLayer
 62
  256
370
   -1
100
AcDbCircle
 10
174
 20
20
 40
1.6
  0
LWPOLYLINE
  5
133
100
AcDbEntity
  8
Platinen
  6
ByLayer
 62
  256
370
   -1
100
AcDbPolyline
 90
    4
 70
    1
 43
0
 10
226
 20
-10
 10
326
 20
-10
 10
326
 20
70
 10
226
 20
70
  0
CIRCLE
  5
134
100
AcDbEntity
  8
Platinen
  6
ByLayer
 62
  256
370
   -1
100
AcDbCircle
 10
234
 20
62
 40
1.6
  0
CIRCLE
  5
135
100
AcDbEntity
  8
Platinen
  6
ByLayer
 62
  256
370
   -1
100
AcDbCircle
 10
318
 20
62
 40
1.6
  0
CIRCLE
  5
136
100
AcDbEntity
  8
Platinen
  6
ByLayer
 62
  256
370
   -1
100
AcDbCircle
 10
276
 20
20
 40
1.6
  0
CIRCLE
  5
137
100
AcDbEntity
  8
Platinen
  6
ByLayer
 62
  256
370
   -1
100
AcDbCircle
 10
30
 20
62
 40
1.6
  0
CIRCLE
  5
138
100
AcDbEntity
  8
Platinen
  6
ByLayer
 62
  256
370
   -1
100
AcDbCircle
 10
72
 20
20
 40
1.6
  0
CIRCLE
  5
139
100
AcDbEntity
  8
Platinen
  6
ByLayer
 62
  256
370
   -1
100
AcDbCircle
 10
114
 20
62
 40
1.6
  0
CIRCLE
  5
13A
100
AcDbEntity
  8
Platinen
  6
ByLayer
 62
  256
370
   -1
100
AcDbCircle
 10
132
 20
62
 40
1.6
  0
CIRCLE
  5
13B
100
AcDbEntity
  8
Platinen
  6
ByLayer
 62
  256
370
   -1
100
AcDbCircle
 10
174
 20
20
 40
1.6
  0
CIRCLE
  5
13C
100
AcDbEntity
  8
Platinen
  6
ByLayer
 62
  256
370
   -1
100
AcDbCircle
 10
216
 20
62
 40
1.6
  0
CIRCLE
  5
13D
100
AcDbEntity
  8
Platinen
  6
ByLayer
 62
  256
370
   -1
100
AcDbCircle
 10
234
 20
62
 40
1.6
  0
CIRCLE
  5
13E
100
AcDbEntity
  8
Platinen
  6
ByLayer
 62
  256
370
   -1
100
AcDbCircle
 10
276
 20
20
 40
1.6
  0
CIRCLE
  5
13F
100
AcDbEntity
  8
Platinen
  6
ByLayer
 62
  256
370
   -1
100
AcDbCircle
 10
318
 20
62
 40
1.6
  0
CIRCLE
  5
140
100
AcDbEntity
  8
0
  6
ByLayer
 62
  256
370
   -1
100
AcDbCircle
 10
276
 20
20
 40
1.25
  0
CIRCLE
  5
141
100
AcDbEntity
  8
0
  6
ByLayer
 62
  256
370
   -1
100
AcDbCircle
 10
318
 20
62
 40
1.25
  0
CIRCLE
  5
142
100
AcDbEntity
  8
0
  6
ByLayer
 62
  256
370
   -1
100
AcDbCircle
 10
234
 20
62
 40
1.25
  0
CIRCLE
  5
143
100
AcDbEntity
  8
0
  6
ByLayer
 62
  256
370
   -1
100
AcDbCircle
 10
216
 20
62
 40
1.25
  0
CIRCLE
  5
144
100
AcDbEntity
  8
0
  6
ByLayer
 62
  256
370
   -1
100
AcDbCircle
 10
174
 20
20
 40
1.25
  0
CIRCLE
  5
145
100
AcDbEntity
  8
0
  6
ByLayer
 62
  256
370
   -1
100
AcDbCircle
 10
132
 20
62
 40
1.25
  0
CIRCLE
  5
146
100
AcDbEntity
  8
0
  6
ByLayer
 62
  256
370
   -1
100
AcDbCircle
 10
30
 20
62
 40
1.25
  0
CIRCLE
  5
147
100
AcDbEntity
  8
0
  6
ByLayer
 62
  256
370
   -1
100
AcDbCircle
 10
72
 20
20
 40
1.25
  0
CIRCLE
  5
148
100
AcDbEntity
  8
0
  6
ByLayer
 62
  256
370
   -1
100
AcDbCircle
 10
114
 20
62
 40
1.25
  0
CIRCLE
  5
149
100
AcDbEntity
  8
0
  6
ByLayer
 62
  256
370
   -1
100
AcDbCircle
 10
12
 20
35
 40
1.25
  0
CIRCLE
  5
14A
100
AcDbEntity
  8
0
  6
ByLayer
 62
  256
370
   -1
100
AcDbCircle
 10
438
 20
35
 40
1.25
  0
CIRCLE
  5
14B
100
AcDbEntity
  8
0
  6
ByLayer
 62
  256
370
   -1
100
AcDbCircle
 10
225
 20
35
 40
1.25
  0
DIMENSION
  5
14C
100
AcDbEntity
  8
Abmessungen
  6
ByLayer
 62
  256
370
   -1
100
AcDbDimension
  2
*D1
 10
450
 20
90
 30
0
 11
225
 21
90
 31
0
 70
   33
 71
    5
  3
Standard
 53
0
210
0
220
0
230
1
100
AcDbAlignedDimension
 13
0
 23
65
 33
0
 14
450
 24
65
 34
0
  0
DIMENSION
  5
14D
100
AcDbEntity
  8
Abmessungen
  6
ByLayer
 62
  256
370
   -1
100
AcDbDimension
  2
*D2
 10
-25
 20
-1.4210854715202e-14
 30
0
 11
-25.00000000000001
 21
35.00000000000001
 31
0
 70
   33
 71
    5
  3
Standard
 53
0
210
0
220
0
230
1
100
AcDbAlignedDimension
 13
4.999999999999988
 23
70.00000000000001
 33
0
 14
5.000000000000004
 24
0
 34
0
  0
LINE
  5
14E
100
AcDbEntity
  8
Abmessungen
  6
DIVIDE2
 62
  256
370
   -1
100
AcDbLine
 10
0
 20
62
 11
450
 21
62
  0
LINE
  5
14F
100
AcDbEntity
  8
Abmessungen
  6
DIVIDE2
 62
  256
370
   -1
100
AcDbLine
 10
0
 20
35
 11
450
 21
35
  0
LINE
  5
150
100
AcDbEntity
  8
Abmessungen
  6
DIVIDE2
 62
  256
370
   -1
100
AcDbLine
 10
0
 20
20
 11
450
 21
20
  0
CIRCLE
  5
151
100
AcDbEntity
  8
0
  6
ByLayer
 62
  256
370
   -1
100
AcDbCircle
 10
336
 20
62
 40
1.25
  0
CIRCLE
  5
152
100
AcDbEntity
  8
0
  6
ByLayer
 62
  256
370
   -1
100
AcDbCircle
 10
420
 20
62
 40
1.25
  0
CIRCLE
  5
153
100
AcDbEntity
  8
0
  6
ByLayer
 62
  256
370
   -1
100
AcDbCircle
 10
378
 20
20
 40
1.25
  0
LWPOLYLINE
  5
154
100
AcDbEntity
  8
Platinen
  6
ByLayer
 62
  256
370
   -1
100
AcDbPolyline
 90
    4
 70
    1
 43
0
 10
328
 20
-10
 10
428
 20
-10
 10
428
 20
70
 10
328
 20
70
  0
CIRCLE
  5
155
100
AcDbEntity
  8
Platinen
  6
ByLayer
 62
  256
370
   -1
100
AcDbCircle
 10
336
 20
62
 40
1.6
  0
CIRCLE
  5
156
100
AcDbEntity
  8
Platinen
  6
ByLayer
 62
  256
370
   -1
100
AcDbCircle
 10
420
 20
62
 40
1.6
  0
CIRCLE
  5
157
100
AcDbEntity
  8
Platinen
  6
ByLayer
 62
  256
370
   -1
100
AcDbCircle
 10
378
 20
20
 40
1.6
  0
DIMENSION
  5
158
100
AcDbEntity
  8
Abmessungen
  6
CONTINUOUS
 62
  256
370
   -1
100
AcDbDimension
  2
*D3
 10
72
 20
10
 30
0
 11
36
 21
10
 31
0
 70
   32
 71
    5
  3
Standard
 53
0
210
0
220
0
230
1
100
AcDbAlignedDimension
 13
0
 23
20
 33
0
 14
72
 24
20
 34
0
100
AcDbRotatedDimension
  0
DIMENSION
  5
159
100
AcDbEntity
  8
Abmessungen
  6
CONTINUOUS
 62
  256
370
   -1
100
AcDbDimension
  2
*D4
 10
174
 20
10
 30
0
 11
123
 21
10
 31
0
 70
   32
 71
    5
  3
Standard
 53
0
210
0
220
0
230
1
100
AcDbAlignedDimension
 13
72
 23
20
 33
0
 14
174
 24
20
 34
0
100
AcDbRotatedDimension
  0
DIMENSION
  5
15A
100
AcDbEntity
  8
Abmessungen
  6
CONTINUOUS
 62
  256
370
   -1
100
AcDbDimension
  2
*D5
 10
276
 20
10
 30
0
 11
225
 21
10
 31
0
 70
   32
 71
    5
  3
Standard
 53
0
210
0
220
0
230
1
100
AcDbAlignedDimension
 13
174
 23
20
 33
0
 14
276
 24
20
 34
0
100
AcDbRotatedDimension
  0
DIMENSION
  5
15B
100
AcDbEntity
  8
Abmessungen
  6
CONTINUOUS
 62
  256
370
   -1
100
AcDbDimension
  2
*D6
 10
378
 20
10
 30
0
 11
327
 21
10
 31
0
 70
   32
 71
    5
  3
Standard
 53
0
210
0
220
0
230
1
100
AcDbAlignedDimension
 13
276
 23
20
 33
0
 14
378
 24
20
 34
0
100
AcDbRotatedDimension
  0
DIMENSION
  5
15C
100
AcDbEntity
  8
Abmessungen
  6
CONTINUOUS
 62
  256
370
   -1
100
AcDbDimension
  2
*D7
 10
12
 20
27
 30
0
 11
6
 21
27
 31
0
 70
   32
 71
    5
  3
Standard
 53
0
210
0
220
0
230
1
100
AcDbAlignedDimension
 13
0
 23
35
 33
0
 14
12
 24
35
 34
0
100
AcDbRotatedDimension
  0
DIMENSION
  5
15D
100
AcDbEntity
  8
Abmessungen
  6
CONTINUOUS
 62
  256
370
   -1
100
AcDbDimension
  2
*D8
 10
225
 20
27
 30
0
 11
118.5
 21
27
 31
0
 70
   32
 71
    5
  3
Standard
 53
0
210
0
220
0
230
1
100
AcDbAlignedDimension
 13
12
 23
35
 33
0
 14
225
 24
35
 34
0
100
AcDbRotatedDimension
  0
DIMENSION
  5
15E
100
AcDbEntity
  8
Abmessungen
  6
CONTINUOUS
 62
  256
370
   -1
100
AcDbDimension
  2
*D9
 10
438
 20
27
 30
0
 11
331.5
 21
27
 31
0
 70
   32
 71
    5
  3
Standard
 53
0
210
0
220
0
230
1
100
AcDbAlignedDimension
 13
225
 23
35
 33
0
 14
438
 24
35
 34
0
100
AcDbRotatedDimension
  0
DIMENSION
  5
15F
100
AcDbEntity
  8
Abmessungen
  6
CONTINUOUS
 62
  256
370
   -1
100
AcDbDimension
  2
*D10
 10
30
 20
54
 30
0
 11
15
 21
54
 31
0
 70
   32
 71
    5
  3
Standard
 53
0
210
0
220
0
230
1
100
AcDbAlignedDimension
 13
0
 23
62
 33
0
 14
30
 24
62
 34
0
100
AcDbRotatedDimension
  0
DIMENSION
  5
160
100
AcDbEntity
  8
Abmessungen
  6
CONTINUOUS
 62
  256
370
   -1
100
AcDbDimension
  2
*D11
 10
114
 20
54
 30
0
 11
72
 21
54
 31
0
 70
   32
 71
    5
  3
Standard
 53
0
210
0
220
0
230
1
100
AcDbAlignedDimension
 13
30
 23
62
 33
0
 14
114
 24
62
 34
0
100
AcDbRotatedDimension
  0
DIMENSION
  5
161
100
AcDbEntity
  8
Abmessungen
  6
CONTINUOUS
 62
  256
370
   -1
100
AcDbDimension
  2
*D12
 10
132
 20
54
 30
0
 11
123
 21
54
 31
0
 70
   32
 71
    5
  3
Standard
 53
0
210
0
220
0
230
1
100
AcDbAlignedDimension
 13
114
 23
62
 33
0
 14
132
 24
62
 34
0
100
AcDbRotatedDimension
  0
DIMENSION
  5
162
100
AcDbEntity
  8
Abmessungen
  6
CONTINUOUS
 62
  256
370
   -1
100
AcDbDimension
  2
*D13
 10
216
 20
54
 30
0
 11
174
 21
54
 31
0
 70
   32
 71
    5
  3
Standard
 53
0
210
0
220
0
230
1
100
AcDbAlignedDimension
 13
132
 23
62
 33
0
 14
216
 24
62
 34
0
100
AcDbRotatedDimension
  0
DIMENSION
  5
163
100
AcDbEntity
  8
Abmessungen
  6
CONTINUOUS
 62
  256
370
   -1
100
AcDbDimension
  2
*D14
 10
234
 20
54
 30
0
 11
225
 21
54
 31
0
 70
   32
 71
    5
  3
Standard
 53
0
210
0
220
0
230
1
100
AcDbAlignedDimension
 13
216
 23
62
 33
0
 14
234
 24
62
 34
0
100
AcDbRotatedDimension
  0
DIMENSION
  5
164
100
AcDbEntity
  8
Abmessungen
  6
CONTINUOUS
 62
  256
370
   -1
100
AcDbDimension
  2
*D15
 10
318
 20
54
 30
0
 11
276
 21
54
 31
0
 70
   32
 71
    5
  3
Standard
 53
0
210
0
220
0
230
1
100
AcDbAlignedDimension
 13
234
 23
62
 33
0
 14
318
 24
62
 34
0
100
AcDbRotatedDimension
  0
DIMENSION
  5
165
100
AcDbEntity
  8
Abmessungen
  6
CONTINUOUS
 62
  256
370
   -1
100
AcDbDimension
  2
*D16
 10
336
 20
54
 30
0
 11
327
 21
54
 31
0
 70
   32
 71
    5
  3
Standard
 53
0
210
0
220
0
230
1
100
AcDbAlignedDimension
 13
318
 23
62
 33
0
 14
336
 24
62
 34
0
100
AcDbRotatedDimension
  0
DIMENSION
  5
166
100
AcDbEntity
  8
Abmessungen
  6
CONTINUOUS
 62
  256
370
   -1
100
AcDbDimension
  2
*D17
 10
420
 20
54
 30
0
 11
378
 21
54
 31
0
 70
   32
 71
    5
  3
Standard
 53
0
210
0
220
0
230
1
100
AcDbAlignedDimension
 13
336
 23
62
 33
0
 14
420
 24
62
 34
0
100
AcDbRotatedDimension
  0
DIMENSION
  5
167
100
AcDbEntity
  8
Abmessungen
  6
CONTINUOUS
 62
  256
370
   -1
100
AcDbDimension
  2
*D18
 10
452
 20
3.983197000411839e-16
 30
0
 11
452
 21
2.5
 31
0
 70
   33
 71
    5
  3
Standard
 53
0
210
0
220
0
230
1
100
AcDbAlignedDimension
 13
450
 23
5
 33
0
 14
450
 24
0
 34
0
  0
DIMENSION
  5
168
100
AcDbEntity
  8
Abmessungen
  6
CONTINUOUS
 62
  256
370
   -1
100
AcDbDimension
  2
*D19
 10
450
 20
-9
 30
0
 11
447.5
 21
-9
 31
0
 70
   33
 71
    5
  3
Standard
 53
0
210
0
220
0
230
1
100
AcDbAlignedDimension
 13
445
 23
0
 33
0
 14
450
 24
0
 34
0
  0
DIMENSION
  5
169
100
AcDbEntity
  8
Abmessungen
  6
CONTINUOUS
 62
  256
370
   -1
100
AcDbDimension
  2
*D20
 10
468
 20
-2.204364238465236e-15
 30
0
 11
468
 21
10
 31
0
 70
   32
 71
    5
  3
Standard
 53
0
210
0
220
0
230
1
100
AcDbAlignedDimension
 13
450
 23
20
 33
0
 14
450
 24
0
 34
0
 50
90
100
AcDbRotatedDimension
  0
DIMENSION
  5
16A
100
AcDbEntity
  8
Abmessungen
  6
CONTINUOUS
 62
  256
370
   -1
100
AcDbDimension
  2
*D21
 10
480
 20
34.99999999999999
 30
0
 11
480
 21
17.5
 31
0
 70
   32
 71
    5
  3
Standard
 53
0
210
0
220
0
230
1
100
AcDbAlignedDimension
 13
450
 23
0
 33
0
 14
450
 24
35
 34
0
 50
90
100
AcDbRotatedDimension
  0
DIMENSION
  5
16B
100
AcDbEntity
  8
Abmessungen
  6
CONTINUOUS
 62
  256
370
   -1
100
AcDbDimension
  2
*D22
 10
490
 20
61.99999999999999
 30
0
 11
490
 21
31
 31
0
 70
   32
 71
    5
  3
Standard
 53
0
210
0
220
0
230
1
100
AcDbAlignedDimension
 13
450
 23
0
 33
0
 14
450
 24
62
 34
0
 50
90
100
AcDbRotatedDimension
  0
LWPOLYLINE
  5
16C
100
AcDbEntity
  8
0
  6
ByLayer
 62
  256
370
   -1
100
AcDbPolyline
 90
    8
 70
    1
 43
0
 10
4.999999999999999
 20
0
 10
445
 20
0
 10
450
 20
5
 10
450
 20
65
 10
445
 20
70
 10
4.999999999999999
 20
70
 10
-1.77635683940025e-15
 20
65
 10
0
 20
5
  0
MTEXT
  5
16D
100
AcDbEntity
  8
Abmessungen
  6
CONTINUOUS
 62
  256
370
   -1
100
AcDbMText
 10
0
 20
-15
 30
0
 40
5
 41
109.72222479366
 71
    1
 72
    1
  1
All holes %%C2.50mm, M3 threaded
  7
standard
210
0
220
0
230
1
 50
0
 73
    2
 44
1
  0
MTEXT
  5
16E
100
AcDbEntity
  8
Abmessungen
  6
ByLayer
 62
  256
370
   -1
100
AcDbMText
 10
0.1388863174521973
 20
105
 30
0
 40
5
 41
30.41666923810358
 71
    1
 72
    1
  1
units: mm
  7
standard
210
0
220
0
230
1
 50
0
 73
    2
 44
1
  0
ENDSEC
  0
SECTION
  2
OBJECTS
  0
DICTIONARY
  5
C
330
0
100
AcDbDictionary
281
    1
  3
ACAD_GROUP
350
D
  0
DICTIONARY
  5
D
330
C
100
AcDbDictionary
281
    1
  0
ENDSEC
  0
EOF
