G75*
%MOIN*%
%OFA0B0*%
%FSLAX25Y25*%
%IPPOS*%
%LPD*%
%AMOC8*
5,1,8,0,0,1.08239X$1,22.5*
%
%ADD10C,0.00000*%
%ADD11C,0.00600*%
%ADD12C,0.01200*%
%ADD13C,0.00400*%
%ADD14C,0.00700*%
%ADD15C,0.00500*%
%ADD16C,0.00300*%
%ADD17C,0.00800*%
%ADD18C,0.01000*%
%ADD19C,0.00200*%
%ADD20C,0.00100*%
D10*
X0002000Y0004500D02*
X0002000Y0319461D01*
X0395701Y0319461D01*
X0395701Y0004500D01*
X0002000Y0004500D01*
X0007905Y0024185D02*
X0007907Y0024338D01*
X0007913Y0024492D01*
X0007923Y0024645D01*
X0007937Y0024797D01*
X0007955Y0024950D01*
X0007977Y0025101D01*
X0008002Y0025252D01*
X0008032Y0025403D01*
X0008066Y0025553D01*
X0008103Y0025701D01*
X0008144Y0025849D01*
X0008189Y0025995D01*
X0008238Y0026141D01*
X0008291Y0026285D01*
X0008347Y0026427D01*
X0008407Y0026568D01*
X0008471Y0026708D01*
X0008538Y0026846D01*
X0008609Y0026982D01*
X0008684Y0027116D01*
X0008761Y0027248D01*
X0008843Y0027378D01*
X0008927Y0027506D01*
X0009015Y0027632D01*
X0009106Y0027755D01*
X0009200Y0027876D01*
X0009298Y0027994D01*
X0009398Y0028110D01*
X0009502Y0028223D01*
X0009608Y0028334D01*
X0009717Y0028442D01*
X0009829Y0028547D01*
X0009943Y0028648D01*
X0010061Y0028747D01*
X0010180Y0028843D01*
X0010302Y0028936D01*
X0010427Y0029025D01*
X0010554Y0029112D01*
X0010683Y0029194D01*
X0010814Y0029274D01*
X0010947Y0029350D01*
X0011082Y0029423D01*
X0011219Y0029492D01*
X0011358Y0029557D01*
X0011498Y0029619D01*
X0011640Y0029677D01*
X0011783Y0029732D01*
X0011928Y0029783D01*
X0012074Y0029830D01*
X0012221Y0029873D01*
X0012369Y0029912D01*
X0012518Y0029948D01*
X0012668Y0029979D01*
X0012819Y0030007D01*
X0012970Y0030031D01*
X0013123Y0030051D01*
X0013275Y0030067D01*
X0013428Y0030079D01*
X0013581Y0030087D01*
X0013734Y0030091D01*
X0013888Y0030091D01*
X0014041Y0030087D01*
X0014194Y0030079D01*
X0014347Y0030067D01*
X0014499Y0030051D01*
X0014652Y0030031D01*
X0014803Y0030007D01*
X0014954Y0029979D01*
X0015104Y0029948D01*
X0015253Y0029912D01*
X0015401Y0029873D01*
X0015548Y0029830D01*
X0015694Y0029783D01*
X0015839Y0029732D01*
X0015982Y0029677D01*
X0016124Y0029619D01*
X0016264Y0029557D01*
X0016403Y0029492D01*
X0016540Y0029423D01*
X0016675Y0029350D01*
X0016808Y0029274D01*
X0016939Y0029194D01*
X0017068Y0029112D01*
X0017195Y0029025D01*
X0017320Y0028936D01*
X0017442Y0028843D01*
X0017561Y0028747D01*
X0017679Y0028648D01*
X0017793Y0028547D01*
X0017905Y0028442D01*
X0018014Y0028334D01*
X0018120Y0028223D01*
X0018224Y0028110D01*
X0018324Y0027994D01*
X0018422Y0027876D01*
X0018516Y0027755D01*
X0018607Y0027632D01*
X0018695Y0027506D01*
X0018779Y0027378D01*
X0018861Y0027248D01*
X0018938Y0027116D01*
X0019013Y0026982D01*
X0019084Y0026846D01*
X0019151Y0026708D01*
X0019215Y0026568D01*
X0019275Y0026427D01*
X0019331Y0026285D01*
X0019384Y0026141D01*
X0019433Y0025995D01*
X0019478Y0025849D01*
X0019519Y0025701D01*
X0019556Y0025553D01*
X0019590Y0025403D01*
X0019620Y0025252D01*
X0019645Y0025101D01*
X0019667Y0024950D01*
X0019685Y0024797D01*
X0019699Y0024645D01*
X0019709Y0024492D01*
X0019715Y0024338D01*
X0019717Y0024185D01*
X0019715Y0024032D01*
X0019709Y0023878D01*
X0019699Y0023725D01*
X0019685Y0023573D01*
X0019667Y0023420D01*
X0019645Y0023269D01*
X0019620Y0023118D01*
X0019590Y0022967D01*
X0019556Y0022817D01*
X0019519Y0022669D01*
X0019478Y0022521D01*
X0019433Y0022375D01*
X0019384Y0022229D01*
X0019331Y0022085D01*
X0019275Y0021943D01*
X0019215Y0021802D01*
X0019151Y0021662D01*
X0019084Y0021524D01*
X0019013Y0021388D01*
X0018938Y0021254D01*
X0018861Y0021122D01*
X0018779Y0020992D01*
X0018695Y0020864D01*
X0018607Y0020738D01*
X0018516Y0020615D01*
X0018422Y0020494D01*
X0018324Y0020376D01*
X0018224Y0020260D01*
X0018120Y0020147D01*
X0018014Y0020036D01*
X0017905Y0019928D01*
X0017793Y0019823D01*
X0017679Y0019722D01*
X0017561Y0019623D01*
X0017442Y0019527D01*
X0017320Y0019434D01*
X0017195Y0019345D01*
X0017068Y0019258D01*
X0016939Y0019176D01*
X0016808Y0019096D01*
X0016675Y0019020D01*
X0016540Y0018947D01*
X0016403Y0018878D01*
X0016264Y0018813D01*
X0016124Y0018751D01*
X0015982Y0018693D01*
X0015839Y0018638D01*
X0015694Y0018587D01*
X0015548Y0018540D01*
X0015401Y0018497D01*
X0015253Y0018458D01*
X0015104Y0018422D01*
X0014954Y0018391D01*
X0014803Y0018363D01*
X0014652Y0018339D01*
X0014499Y0018319D01*
X0014347Y0018303D01*
X0014194Y0018291D01*
X0014041Y0018283D01*
X0013888Y0018279D01*
X0013734Y0018279D01*
X0013581Y0018283D01*
X0013428Y0018291D01*
X0013275Y0018303D01*
X0013123Y0018319D01*
X0012970Y0018339D01*
X0012819Y0018363D01*
X0012668Y0018391D01*
X0012518Y0018422D01*
X0012369Y0018458D01*
X0012221Y0018497D01*
X0012074Y0018540D01*
X0011928Y0018587D01*
X0011783Y0018638D01*
X0011640Y0018693D01*
X0011498Y0018751D01*
X0011358Y0018813D01*
X0011219Y0018878D01*
X0011082Y0018947D01*
X0010947Y0019020D01*
X0010814Y0019096D01*
X0010683Y0019176D01*
X0010554Y0019258D01*
X0010427Y0019345D01*
X0010302Y0019434D01*
X0010180Y0019527D01*
X0010061Y0019623D01*
X0009943Y0019722D01*
X0009829Y0019823D01*
X0009717Y0019928D01*
X0009608Y0020036D01*
X0009502Y0020147D01*
X0009398Y0020260D01*
X0009298Y0020376D01*
X0009200Y0020494D01*
X0009106Y0020615D01*
X0009015Y0020738D01*
X0008927Y0020864D01*
X0008843Y0020992D01*
X0008761Y0021122D01*
X0008684Y0021254D01*
X0008609Y0021388D01*
X0008538Y0021524D01*
X0008471Y0021662D01*
X0008407Y0021802D01*
X0008347Y0021943D01*
X0008291Y0022085D01*
X0008238Y0022229D01*
X0008189Y0022375D01*
X0008144Y0022521D01*
X0008103Y0022669D01*
X0008066Y0022817D01*
X0008032Y0022967D01*
X0008002Y0023118D01*
X0007977Y0023269D01*
X0007955Y0023420D01*
X0007937Y0023573D01*
X0007923Y0023725D01*
X0007913Y0023878D01*
X0007907Y0024032D01*
X0007905Y0024185D01*
X0015779Y0299776D02*
X0015781Y0299929D01*
X0015787Y0300083D01*
X0015797Y0300236D01*
X0015811Y0300388D01*
X0015829Y0300541D01*
X0015851Y0300692D01*
X0015876Y0300843D01*
X0015906Y0300994D01*
X0015940Y0301144D01*
X0015977Y0301292D01*
X0016018Y0301440D01*
X0016063Y0301586D01*
X0016112Y0301732D01*
X0016165Y0301876D01*
X0016221Y0302018D01*
X0016281Y0302159D01*
X0016345Y0302299D01*
X0016412Y0302437D01*
X0016483Y0302573D01*
X0016558Y0302707D01*
X0016635Y0302839D01*
X0016717Y0302969D01*
X0016801Y0303097D01*
X0016889Y0303223D01*
X0016980Y0303346D01*
X0017074Y0303467D01*
X0017172Y0303585D01*
X0017272Y0303701D01*
X0017376Y0303814D01*
X0017482Y0303925D01*
X0017591Y0304033D01*
X0017703Y0304138D01*
X0017817Y0304239D01*
X0017935Y0304338D01*
X0018054Y0304434D01*
X0018176Y0304527D01*
X0018301Y0304616D01*
X0018428Y0304703D01*
X0018557Y0304785D01*
X0018688Y0304865D01*
X0018821Y0304941D01*
X0018956Y0305014D01*
X0019093Y0305083D01*
X0019232Y0305148D01*
X0019372Y0305210D01*
X0019514Y0305268D01*
X0019657Y0305323D01*
X0019802Y0305374D01*
X0019948Y0305421D01*
X0020095Y0305464D01*
X0020243Y0305503D01*
X0020392Y0305539D01*
X0020542Y0305570D01*
X0020693Y0305598D01*
X0020844Y0305622D01*
X0020997Y0305642D01*
X0021149Y0305658D01*
X0021302Y0305670D01*
X0021455Y0305678D01*
X0021608Y0305682D01*
X0021762Y0305682D01*
X0021915Y0305678D01*
X0022068Y0305670D01*
X0022221Y0305658D01*
X0022373Y0305642D01*
X0022526Y0305622D01*
X0022677Y0305598D01*
X0022828Y0305570D01*
X0022978Y0305539D01*
X0023127Y0305503D01*
X0023275Y0305464D01*
X0023422Y0305421D01*
X0023568Y0305374D01*
X0023713Y0305323D01*
X0023856Y0305268D01*
X0023998Y0305210D01*
X0024138Y0305148D01*
X0024277Y0305083D01*
X0024414Y0305014D01*
X0024549Y0304941D01*
X0024682Y0304865D01*
X0024813Y0304785D01*
X0024942Y0304703D01*
X0025069Y0304616D01*
X0025194Y0304527D01*
X0025316Y0304434D01*
X0025435Y0304338D01*
X0025553Y0304239D01*
X0025667Y0304138D01*
X0025779Y0304033D01*
X0025888Y0303925D01*
X0025994Y0303814D01*
X0026098Y0303701D01*
X0026198Y0303585D01*
X0026296Y0303467D01*
X0026390Y0303346D01*
X0026481Y0303223D01*
X0026569Y0303097D01*
X0026653Y0302969D01*
X0026735Y0302839D01*
X0026812Y0302707D01*
X0026887Y0302573D01*
X0026958Y0302437D01*
X0027025Y0302299D01*
X0027089Y0302159D01*
X0027149Y0302018D01*
X0027205Y0301876D01*
X0027258Y0301732D01*
X0027307Y0301586D01*
X0027352Y0301440D01*
X0027393Y0301292D01*
X0027430Y0301144D01*
X0027464Y0300994D01*
X0027494Y0300843D01*
X0027519Y0300692D01*
X0027541Y0300541D01*
X0027559Y0300388D01*
X0027573Y0300236D01*
X0027583Y0300083D01*
X0027589Y0299929D01*
X0027591Y0299776D01*
X0027589Y0299623D01*
X0027583Y0299469D01*
X0027573Y0299316D01*
X0027559Y0299164D01*
X0027541Y0299011D01*
X0027519Y0298860D01*
X0027494Y0298709D01*
X0027464Y0298558D01*
X0027430Y0298408D01*
X0027393Y0298260D01*
X0027352Y0298112D01*
X0027307Y0297966D01*
X0027258Y0297820D01*
X0027205Y0297676D01*
X0027149Y0297534D01*
X0027089Y0297393D01*
X0027025Y0297253D01*
X0026958Y0297115D01*
X0026887Y0296979D01*
X0026812Y0296845D01*
X0026735Y0296713D01*
X0026653Y0296583D01*
X0026569Y0296455D01*
X0026481Y0296329D01*
X0026390Y0296206D01*
X0026296Y0296085D01*
X0026198Y0295967D01*
X0026098Y0295851D01*
X0025994Y0295738D01*
X0025888Y0295627D01*
X0025779Y0295519D01*
X0025667Y0295414D01*
X0025553Y0295313D01*
X0025435Y0295214D01*
X0025316Y0295118D01*
X0025194Y0295025D01*
X0025069Y0294936D01*
X0024942Y0294849D01*
X0024813Y0294767D01*
X0024682Y0294687D01*
X0024549Y0294611D01*
X0024414Y0294538D01*
X0024277Y0294469D01*
X0024138Y0294404D01*
X0023998Y0294342D01*
X0023856Y0294284D01*
X0023713Y0294229D01*
X0023568Y0294178D01*
X0023422Y0294131D01*
X0023275Y0294088D01*
X0023127Y0294049D01*
X0022978Y0294013D01*
X0022828Y0293982D01*
X0022677Y0293954D01*
X0022526Y0293930D01*
X0022373Y0293910D01*
X0022221Y0293894D01*
X0022068Y0293882D01*
X0021915Y0293874D01*
X0021762Y0293870D01*
X0021608Y0293870D01*
X0021455Y0293874D01*
X0021302Y0293882D01*
X0021149Y0293894D01*
X0020997Y0293910D01*
X0020844Y0293930D01*
X0020693Y0293954D01*
X0020542Y0293982D01*
X0020392Y0294013D01*
X0020243Y0294049D01*
X0020095Y0294088D01*
X0019948Y0294131D01*
X0019802Y0294178D01*
X0019657Y0294229D01*
X0019514Y0294284D01*
X0019372Y0294342D01*
X0019232Y0294404D01*
X0019093Y0294469D01*
X0018956Y0294538D01*
X0018821Y0294611D01*
X0018688Y0294687D01*
X0018557Y0294767D01*
X0018428Y0294849D01*
X0018301Y0294936D01*
X0018176Y0295025D01*
X0018054Y0295118D01*
X0017935Y0295214D01*
X0017817Y0295313D01*
X0017703Y0295414D01*
X0017591Y0295519D01*
X0017482Y0295627D01*
X0017376Y0295738D01*
X0017272Y0295851D01*
X0017172Y0295967D01*
X0017074Y0296085D01*
X0016980Y0296206D01*
X0016889Y0296329D01*
X0016801Y0296455D01*
X0016717Y0296583D01*
X0016635Y0296713D01*
X0016558Y0296845D01*
X0016483Y0296979D01*
X0016412Y0297115D01*
X0016345Y0297253D01*
X0016281Y0297393D01*
X0016221Y0297534D01*
X0016165Y0297676D01*
X0016112Y0297820D01*
X0016063Y0297966D01*
X0016018Y0298112D01*
X0015977Y0298260D01*
X0015940Y0298408D01*
X0015906Y0298558D01*
X0015876Y0298709D01*
X0015851Y0298860D01*
X0015829Y0299011D01*
X0015811Y0299164D01*
X0015797Y0299316D01*
X0015787Y0299469D01*
X0015781Y0299623D01*
X0015779Y0299776D01*
X0254322Y0308516D02*
X0254324Y0308669D01*
X0254330Y0308823D01*
X0254340Y0308976D01*
X0254354Y0309128D01*
X0254372Y0309281D01*
X0254394Y0309432D01*
X0254419Y0309583D01*
X0254449Y0309734D01*
X0254483Y0309884D01*
X0254520Y0310032D01*
X0254561Y0310180D01*
X0254606Y0310326D01*
X0254655Y0310472D01*
X0254708Y0310616D01*
X0254764Y0310758D01*
X0254824Y0310899D01*
X0254888Y0311039D01*
X0254955Y0311177D01*
X0255026Y0311313D01*
X0255101Y0311447D01*
X0255178Y0311579D01*
X0255260Y0311709D01*
X0255344Y0311837D01*
X0255432Y0311963D01*
X0255523Y0312086D01*
X0255617Y0312207D01*
X0255715Y0312325D01*
X0255815Y0312441D01*
X0255919Y0312554D01*
X0256025Y0312665D01*
X0256134Y0312773D01*
X0256246Y0312878D01*
X0256360Y0312979D01*
X0256478Y0313078D01*
X0256597Y0313174D01*
X0256719Y0313267D01*
X0256844Y0313356D01*
X0256971Y0313443D01*
X0257100Y0313525D01*
X0257231Y0313605D01*
X0257364Y0313681D01*
X0257499Y0313754D01*
X0257636Y0313823D01*
X0257775Y0313888D01*
X0257915Y0313950D01*
X0258057Y0314008D01*
X0258200Y0314063D01*
X0258345Y0314114D01*
X0258491Y0314161D01*
X0258638Y0314204D01*
X0258786Y0314243D01*
X0258935Y0314279D01*
X0259085Y0314310D01*
X0259236Y0314338D01*
X0259387Y0314362D01*
X0259540Y0314382D01*
X0259692Y0314398D01*
X0259845Y0314410D01*
X0259998Y0314418D01*
X0260151Y0314422D01*
X0260305Y0314422D01*
X0260458Y0314418D01*
X0260611Y0314410D01*
X0260764Y0314398D01*
X0260916Y0314382D01*
X0261069Y0314362D01*
X0261220Y0314338D01*
X0261371Y0314310D01*
X0261521Y0314279D01*
X0261670Y0314243D01*
X0261818Y0314204D01*
X0261965Y0314161D01*
X0262111Y0314114D01*
X0262256Y0314063D01*
X0262399Y0314008D01*
X0262541Y0313950D01*
X0262681Y0313888D01*
X0262820Y0313823D01*
X0262957Y0313754D01*
X0263092Y0313681D01*
X0263225Y0313605D01*
X0263356Y0313525D01*
X0263485Y0313443D01*
X0263612Y0313356D01*
X0263737Y0313267D01*
X0263859Y0313174D01*
X0263978Y0313078D01*
X0264096Y0312979D01*
X0264210Y0312878D01*
X0264322Y0312773D01*
X0264431Y0312665D01*
X0264537Y0312554D01*
X0264641Y0312441D01*
X0264741Y0312325D01*
X0264839Y0312207D01*
X0264933Y0312086D01*
X0265024Y0311963D01*
X0265112Y0311837D01*
X0265196Y0311709D01*
X0265278Y0311579D01*
X0265355Y0311447D01*
X0265430Y0311313D01*
X0265501Y0311177D01*
X0265568Y0311039D01*
X0265632Y0310899D01*
X0265692Y0310758D01*
X0265748Y0310616D01*
X0265801Y0310472D01*
X0265850Y0310326D01*
X0265895Y0310180D01*
X0265936Y0310032D01*
X0265973Y0309884D01*
X0266007Y0309734D01*
X0266037Y0309583D01*
X0266062Y0309432D01*
X0266084Y0309281D01*
X0266102Y0309128D01*
X0266116Y0308976D01*
X0266126Y0308823D01*
X0266132Y0308669D01*
X0266134Y0308516D01*
X0266132Y0308363D01*
X0266126Y0308209D01*
X0266116Y0308056D01*
X0266102Y0307904D01*
X0266084Y0307751D01*
X0266062Y0307600D01*
X0266037Y0307449D01*
X0266007Y0307298D01*
X0265973Y0307148D01*
X0265936Y0307000D01*
X0265895Y0306852D01*
X0265850Y0306706D01*
X0265801Y0306560D01*
X0265748Y0306416D01*
X0265692Y0306274D01*
X0265632Y0306133D01*
X0265568Y0305993D01*
X0265501Y0305855D01*
X0265430Y0305719D01*
X0265355Y0305585D01*
X0265278Y0305453D01*
X0265196Y0305323D01*
X0265112Y0305195D01*
X0265024Y0305069D01*
X0264933Y0304946D01*
X0264839Y0304825D01*
X0264741Y0304707D01*
X0264641Y0304591D01*
X0264537Y0304478D01*
X0264431Y0304367D01*
X0264322Y0304259D01*
X0264210Y0304154D01*
X0264096Y0304053D01*
X0263978Y0303954D01*
X0263859Y0303858D01*
X0263737Y0303765D01*
X0263612Y0303676D01*
X0263485Y0303589D01*
X0263356Y0303507D01*
X0263225Y0303427D01*
X0263092Y0303351D01*
X0262957Y0303278D01*
X0262820Y0303209D01*
X0262681Y0303144D01*
X0262541Y0303082D01*
X0262399Y0303024D01*
X0262256Y0302969D01*
X0262111Y0302918D01*
X0261965Y0302871D01*
X0261818Y0302828D01*
X0261670Y0302789D01*
X0261521Y0302753D01*
X0261371Y0302722D01*
X0261220Y0302694D01*
X0261069Y0302670D01*
X0260916Y0302650D01*
X0260764Y0302634D01*
X0260611Y0302622D01*
X0260458Y0302614D01*
X0260305Y0302610D01*
X0260151Y0302610D01*
X0259998Y0302614D01*
X0259845Y0302622D01*
X0259692Y0302634D01*
X0259540Y0302650D01*
X0259387Y0302670D01*
X0259236Y0302694D01*
X0259085Y0302722D01*
X0258935Y0302753D01*
X0258786Y0302789D01*
X0258638Y0302828D01*
X0258491Y0302871D01*
X0258345Y0302918D01*
X0258200Y0302969D01*
X0258057Y0303024D01*
X0257915Y0303082D01*
X0257775Y0303144D01*
X0257636Y0303209D01*
X0257499Y0303278D01*
X0257364Y0303351D01*
X0257231Y0303427D01*
X0257100Y0303507D01*
X0256971Y0303589D01*
X0256844Y0303676D01*
X0256719Y0303765D01*
X0256597Y0303858D01*
X0256478Y0303954D01*
X0256360Y0304053D01*
X0256246Y0304154D01*
X0256134Y0304259D01*
X0256025Y0304367D01*
X0255919Y0304478D01*
X0255815Y0304591D01*
X0255715Y0304707D01*
X0255617Y0304825D01*
X0255523Y0304946D01*
X0255432Y0305069D01*
X0255344Y0305195D01*
X0255260Y0305323D01*
X0255178Y0305453D01*
X0255101Y0305585D01*
X0255026Y0305719D01*
X0254955Y0305855D01*
X0254888Y0305993D01*
X0254824Y0306133D01*
X0254764Y0306274D01*
X0254708Y0306416D01*
X0254655Y0306560D01*
X0254606Y0306706D01*
X0254561Y0306852D01*
X0254520Y0307000D01*
X0254483Y0307148D01*
X0254449Y0307298D01*
X0254419Y0307449D01*
X0254394Y0307600D01*
X0254372Y0307751D01*
X0254354Y0307904D01*
X0254340Y0308056D01*
X0254330Y0308209D01*
X0254324Y0308363D01*
X0254322Y0308516D01*
X0307866Y0308516D02*
X0307868Y0308669D01*
X0307874Y0308823D01*
X0307884Y0308976D01*
X0307898Y0309128D01*
X0307916Y0309281D01*
X0307938Y0309432D01*
X0307963Y0309583D01*
X0307993Y0309734D01*
X0308027Y0309884D01*
X0308064Y0310032D01*
X0308105Y0310180D01*
X0308150Y0310326D01*
X0308199Y0310472D01*
X0308252Y0310616D01*
X0308308Y0310758D01*
X0308368Y0310899D01*
X0308432Y0311039D01*
X0308499Y0311177D01*
X0308570Y0311313D01*
X0308645Y0311447D01*
X0308722Y0311579D01*
X0308804Y0311709D01*
X0308888Y0311837D01*
X0308976Y0311963D01*
X0309067Y0312086D01*
X0309161Y0312207D01*
X0309259Y0312325D01*
X0309359Y0312441D01*
X0309463Y0312554D01*
X0309569Y0312665D01*
X0309678Y0312773D01*
X0309790Y0312878D01*
X0309904Y0312979D01*
X0310022Y0313078D01*
X0310141Y0313174D01*
X0310263Y0313267D01*
X0310388Y0313356D01*
X0310515Y0313443D01*
X0310644Y0313525D01*
X0310775Y0313605D01*
X0310908Y0313681D01*
X0311043Y0313754D01*
X0311180Y0313823D01*
X0311319Y0313888D01*
X0311459Y0313950D01*
X0311601Y0314008D01*
X0311744Y0314063D01*
X0311889Y0314114D01*
X0312035Y0314161D01*
X0312182Y0314204D01*
X0312330Y0314243D01*
X0312479Y0314279D01*
X0312629Y0314310D01*
X0312780Y0314338D01*
X0312931Y0314362D01*
X0313084Y0314382D01*
X0313236Y0314398D01*
X0313389Y0314410D01*
X0313542Y0314418D01*
X0313695Y0314422D01*
X0313849Y0314422D01*
X0314002Y0314418D01*
X0314155Y0314410D01*
X0314308Y0314398D01*
X0314460Y0314382D01*
X0314613Y0314362D01*
X0314764Y0314338D01*
X0314915Y0314310D01*
X0315065Y0314279D01*
X0315214Y0314243D01*
X0315362Y0314204D01*
X0315509Y0314161D01*
X0315655Y0314114D01*
X0315800Y0314063D01*
X0315943Y0314008D01*
X0316085Y0313950D01*
X0316225Y0313888D01*
X0316364Y0313823D01*
X0316501Y0313754D01*
X0316636Y0313681D01*
X0316769Y0313605D01*
X0316900Y0313525D01*
X0317029Y0313443D01*
X0317156Y0313356D01*
X0317281Y0313267D01*
X0317403Y0313174D01*
X0317522Y0313078D01*
X0317640Y0312979D01*
X0317754Y0312878D01*
X0317866Y0312773D01*
X0317975Y0312665D01*
X0318081Y0312554D01*
X0318185Y0312441D01*
X0318285Y0312325D01*
X0318383Y0312207D01*
X0318477Y0312086D01*
X0318568Y0311963D01*
X0318656Y0311837D01*
X0318740Y0311709D01*
X0318822Y0311579D01*
X0318899Y0311447D01*
X0318974Y0311313D01*
X0319045Y0311177D01*
X0319112Y0311039D01*
X0319176Y0310899D01*
X0319236Y0310758D01*
X0319292Y0310616D01*
X0319345Y0310472D01*
X0319394Y0310326D01*
X0319439Y0310180D01*
X0319480Y0310032D01*
X0319517Y0309884D01*
X0319551Y0309734D01*
X0319581Y0309583D01*
X0319606Y0309432D01*
X0319628Y0309281D01*
X0319646Y0309128D01*
X0319660Y0308976D01*
X0319670Y0308823D01*
X0319676Y0308669D01*
X0319678Y0308516D01*
X0319676Y0308363D01*
X0319670Y0308209D01*
X0319660Y0308056D01*
X0319646Y0307904D01*
X0319628Y0307751D01*
X0319606Y0307600D01*
X0319581Y0307449D01*
X0319551Y0307298D01*
X0319517Y0307148D01*
X0319480Y0307000D01*
X0319439Y0306852D01*
X0319394Y0306706D01*
X0319345Y0306560D01*
X0319292Y0306416D01*
X0319236Y0306274D01*
X0319176Y0306133D01*
X0319112Y0305993D01*
X0319045Y0305855D01*
X0318974Y0305719D01*
X0318899Y0305585D01*
X0318822Y0305453D01*
X0318740Y0305323D01*
X0318656Y0305195D01*
X0318568Y0305069D01*
X0318477Y0304946D01*
X0318383Y0304825D01*
X0318285Y0304707D01*
X0318185Y0304591D01*
X0318081Y0304478D01*
X0317975Y0304367D01*
X0317866Y0304259D01*
X0317754Y0304154D01*
X0317640Y0304053D01*
X0317522Y0303954D01*
X0317403Y0303858D01*
X0317281Y0303765D01*
X0317156Y0303676D01*
X0317029Y0303589D01*
X0316900Y0303507D01*
X0316769Y0303427D01*
X0316636Y0303351D01*
X0316501Y0303278D01*
X0316364Y0303209D01*
X0316225Y0303144D01*
X0316085Y0303082D01*
X0315943Y0303024D01*
X0315800Y0302969D01*
X0315655Y0302918D01*
X0315509Y0302871D01*
X0315362Y0302828D01*
X0315214Y0302789D01*
X0315065Y0302753D01*
X0314915Y0302722D01*
X0314764Y0302694D01*
X0314613Y0302670D01*
X0314460Y0302650D01*
X0314308Y0302634D01*
X0314155Y0302622D01*
X0314002Y0302614D01*
X0313849Y0302610D01*
X0313695Y0302610D01*
X0313542Y0302614D01*
X0313389Y0302622D01*
X0313236Y0302634D01*
X0313084Y0302650D01*
X0312931Y0302670D01*
X0312780Y0302694D01*
X0312629Y0302722D01*
X0312479Y0302753D01*
X0312330Y0302789D01*
X0312182Y0302828D01*
X0312035Y0302871D01*
X0311889Y0302918D01*
X0311744Y0302969D01*
X0311601Y0303024D01*
X0311459Y0303082D01*
X0311319Y0303144D01*
X0311180Y0303209D01*
X0311043Y0303278D01*
X0310908Y0303351D01*
X0310775Y0303427D01*
X0310644Y0303507D01*
X0310515Y0303589D01*
X0310388Y0303676D01*
X0310263Y0303765D01*
X0310141Y0303858D01*
X0310022Y0303954D01*
X0309904Y0304053D01*
X0309790Y0304154D01*
X0309678Y0304259D01*
X0309569Y0304367D01*
X0309463Y0304478D01*
X0309359Y0304591D01*
X0309259Y0304707D01*
X0309161Y0304825D01*
X0309067Y0304946D01*
X0308976Y0305069D01*
X0308888Y0305195D01*
X0308804Y0305323D01*
X0308722Y0305453D01*
X0308645Y0305585D01*
X0308570Y0305719D01*
X0308499Y0305855D01*
X0308432Y0305993D01*
X0308368Y0306133D01*
X0308308Y0306274D01*
X0308252Y0306416D01*
X0308199Y0306560D01*
X0308150Y0306706D01*
X0308105Y0306852D01*
X0308064Y0307000D01*
X0308027Y0307148D01*
X0307993Y0307298D01*
X0307963Y0307449D01*
X0307938Y0307600D01*
X0307916Y0307751D01*
X0307898Y0307904D01*
X0307884Y0308056D01*
X0307874Y0308209D01*
X0307868Y0308363D01*
X0307866Y0308516D01*
X0370110Y0299776D02*
X0370112Y0299929D01*
X0370118Y0300083D01*
X0370128Y0300236D01*
X0370142Y0300388D01*
X0370160Y0300541D01*
X0370182Y0300692D01*
X0370207Y0300843D01*
X0370237Y0300994D01*
X0370271Y0301144D01*
X0370308Y0301292D01*
X0370349Y0301440D01*
X0370394Y0301586D01*
X0370443Y0301732D01*
X0370496Y0301876D01*
X0370552Y0302018D01*
X0370612Y0302159D01*
X0370676Y0302299D01*
X0370743Y0302437D01*
X0370814Y0302573D01*
X0370889Y0302707D01*
X0370966Y0302839D01*
X0371048Y0302969D01*
X0371132Y0303097D01*
X0371220Y0303223D01*
X0371311Y0303346D01*
X0371405Y0303467D01*
X0371503Y0303585D01*
X0371603Y0303701D01*
X0371707Y0303814D01*
X0371813Y0303925D01*
X0371922Y0304033D01*
X0372034Y0304138D01*
X0372148Y0304239D01*
X0372266Y0304338D01*
X0372385Y0304434D01*
X0372507Y0304527D01*
X0372632Y0304616D01*
X0372759Y0304703D01*
X0372888Y0304785D01*
X0373019Y0304865D01*
X0373152Y0304941D01*
X0373287Y0305014D01*
X0373424Y0305083D01*
X0373563Y0305148D01*
X0373703Y0305210D01*
X0373845Y0305268D01*
X0373988Y0305323D01*
X0374133Y0305374D01*
X0374279Y0305421D01*
X0374426Y0305464D01*
X0374574Y0305503D01*
X0374723Y0305539D01*
X0374873Y0305570D01*
X0375024Y0305598D01*
X0375175Y0305622D01*
X0375328Y0305642D01*
X0375480Y0305658D01*
X0375633Y0305670D01*
X0375786Y0305678D01*
X0375939Y0305682D01*
X0376093Y0305682D01*
X0376246Y0305678D01*
X0376399Y0305670D01*
X0376552Y0305658D01*
X0376704Y0305642D01*
X0376857Y0305622D01*
X0377008Y0305598D01*
X0377159Y0305570D01*
X0377309Y0305539D01*
X0377458Y0305503D01*
X0377606Y0305464D01*
X0377753Y0305421D01*
X0377899Y0305374D01*
X0378044Y0305323D01*
X0378187Y0305268D01*
X0378329Y0305210D01*
X0378469Y0305148D01*
X0378608Y0305083D01*
X0378745Y0305014D01*
X0378880Y0304941D01*
X0379013Y0304865D01*
X0379144Y0304785D01*
X0379273Y0304703D01*
X0379400Y0304616D01*
X0379525Y0304527D01*
X0379647Y0304434D01*
X0379766Y0304338D01*
X0379884Y0304239D01*
X0379998Y0304138D01*
X0380110Y0304033D01*
X0380219Y0303925D01*
X0380325Y0303814D01*
X0380429Y0303701D01*
X0380529Y0303585D01*
X0380627Y0303467D01*
X0380721Y0303346D01*
X0380812Y0303223D01*
X0380900Y0303097D01*
X0380984Y0302969D01*
X0381066Y0302839D01*
X0381143Y0302707D01*
X0381218Y0302573D01*
X0381289Y0302437D01*
X0381356Y0302299D01*
X0381420Y0302159D01*
X0381480Y0302018D01*
X0381536Y0301876D01*
X0381589Y0301732D01*
X0381638Y0301586D01*
X0381683Y0301440D01*
X0381724Y0301292D01*
X0381761Y0301144D01*
X0381795Y0300994D01*
X0381825Y0300843D01*
X0381850Y0300692D01*
X0381872Y0300541D01*
X0381890Y0300388D01*
X0381904Y0300236D01*
X0381914Y0300083D01*
X0381920Y0299929D01*
X0381922Y0299776D01*
X0381920Y0299623D01*
X0381914Y0299469D01*
X0381904Y0299316D01*
X0381890Y0299164D01*
X0381872Y0299011D01*
X0381850Y0298860D01*
X0381825Y0298709D01*
X0381795Y0298558D01*
X0381761Y0298408D01*
X0381724Y0298260D01*
X0381683Y0298112D01*
X0381638Y0297966D01*
X0381589Y0297820D01*
X0381536Y0297676D01*
X0381480Y0297534D01*
X0381420Y0297393D01*
X0381356Y0297253D01*
X0381289Y0297115D01*
X0381218Y0296979D01*
X0381143Y0296845D01*
X0381066Y0296713D01*
X0380984Y0296583D01*
X0380900Y0296455D01*
X0380812Y0296329D01*
X0380721Y0296206D01*
X0380627Y0296085D01*
X0380529Y0295967D01*
X0380429Y0295851D01*
X0380325Y0295738D01*
X0380219Y0295627D01*
X0380110Y0295519D01*
X0379998Y0295414D01*
X0379884Y0295313D01*
X0379766Y0295214D01*
X0379647Y0295118D01*
X0379525Y0295025D01*
X0379400Y0294936D01*
X0379273Y0294849D01*
X0379144Y0294767D01*
X0379013Y0294687D01*
X0378880Y0294611D01*
X0378745Y0294538D01*
X0378608Y0294469D01*
X0378469Y0294404D01*
X0378329Y0294342D01*
X0378187Y0294284D01*
X0378044Y0294229D01*
X0377899Y0294178D01*
X0377753Y0294131D01*
X0377606Y0294088D01*
X0377458Y0294049D01*
X0377309Y0294013D01*
X0377159Y0293982D01*
X0377008Y0293954D01*
X0376857Y0293930D01*
X0376704Y0293910D01*
X0376552Y0293894D01*
X0376399Y0293882D01*
X0376246Y0293874D01*
X0376093Y0293870D01*
X0375939Y0293870D01*
X0375786Y0293874D01*
X0375633Y0293882D01*
X0375480Y0293894D01*
X0375328Y0293910D01*
X0375175Y0293930D01*
X0375024Y0293954D01*
X0374873Y0293982D01*
X0374723Y0294013D01*
X0374574Y0294049D01*
X0374426Y0294088D01*
X0374279Y0294131D01*
X0374133Y0294178D01*
X0373988Y0294229D01*
X0373845Y0294284D01*
X0373703Y0294342D01*
X0373563Y0294404D01*
X0373424Y0294469D01*
X0373287Y0294538D01*
X0373152Y0294611D01*
X0373019Y0294687D01*
X0372888Y0294767D01*
X0372759Y0294849D01*
X0372632Y0294936D01*
X0372507Y0295025D01*
X0372385Y0295118D01*
X0372266Y0295214D01*
X0372148Y0295313D01*
X0372034Y0295414D01*
X0371922Y0295519D01*
X0371813Y0295627D01*
X0371707Y0295738D01*
X0371603Y0295851D01*
X0371503Y0295967D01*
X0371405Y0296085D01*
X0371311Y0296206D01*
X0371220Y0296329D01*
X0371132Y0296455D01*
X0371048Y0296583D01*
X0370966Y0296713D01*
X0370889Y0296845D01*
X0370814Y0296979D01*
X0370743Y0297115D01*
X0370676Y0297253D01*
X0370612Y0297393D01*
X0370552Y0297534D01*
X0370496Y0297676D01*
X0370443Y0297820D01*
X0370394Y0297966D01*
X0370349Y0298112D01*
X0370308Y0298260D01*
X0370271Y0298408D01*
X0370237Y0298558D01*
X0370207Y0298709D01*
X0370182Y0298860D01*
X0370160Y0299011D01*
X0370142Y0299164D01*
X0370128Y0299316D01*
X0370118Y0299469D01*
X0370112Y0299623D01*
X0370110Y0299776D01*
X0377984Y0024185D02*
X0377986Y0024338D01*
X0377992Y0024492D01*
X0378002Y0024645D01*
X0378016Y0024797D01*
X0378034Y0024950D01*
X0378056Y0025101D01*
X0378081Y0025252D01*
X0378111Y0025403D01*
X0378145Y0025553D01*
X0378182Y0025701D01*
X0378223Y0025849D01*
X0378268Y0025995D01*
X0378317Y0026141D01*
X0378370Y0026285D01*
X0378426Y0026427D01*
X0378486Y0026568D01*
X0378550Y0026708D01*
X0378617Y0026846D01*
X0378688Y0026982D01*
X0378763Y0027116D01*
X0378840Y0027248D01*
X0378922Y0027378D01*
X0379006Y0027506D01*
X0379094Y0027632D01*
X0379185Y0027755D01*
X0379279Y0027876D01*
X0379377Y0027994D01*
X0379477Y0028110D01*
X0379581Y0028223D01*
X0379687Y0028334D01*
X0379796Y0028442D01*
X0379908Y0028547D01*
X0380022Y0028648D01*
X0380140Y0028747D01*
X0380259Y0028843D01*
X0380381Y0028936D01*
X0380506Y0029025D01*
X0380633Y0029112D01*
X0380762Y0029194D01*
X0380893Y0029274D01*
X0381026Y0029350D01*
X0381161Y0029423D01*
X0381298Y0029492D01*
X0381437Y0029557D01*
X0381577Y0029619D01*
X0381719Y0029677D01*
X0381862Y0029732D01*
X0382007Y0029783D01*
X0382153Y0029830D01*
X0382300Y0029873D01*
X0382448Y0029912D01*
X0382597Y0029948D01*
X0382747Y0029979D01*
X0382898Y0030007D01*
X0383049Y0030031D01*
X0383202Y0030051D01*
X0383354Y0030067D01*
X0383507Y0030079D01*
X0383660Y0030087D01*
X0383813Y0030091D01*
X0383967Y0030091D01*
X0384120Y0030087D01*
X0384273Y0030079D01*
X0384426Y0030067D01*
X0384578Y0030051D01*
X0384731Y0030031D01*
X0384882Y0030007D01*
X0385033Y0029979D01*
X0385183Y0029948D01*
X0385332Y0029912D01*
X0385480Y0029873D01*
X0385627Y0029830D01*
X0385773Y0029783D01*
X0385918Y0029732D01*
X0386061Y0029677D01*
X0386203Y0029619D01*
X0386343Y0029557D01*
X0386482Y0029492D01*
X0386619Y0029423D01*
X0386754Y0029350D01*
X0386887Y0029274D01*
X0387018Y0029194D01*
X0387147Y0029112D01*
X0387274Y0029025D01*
X0387399Y0028936D01*
X0387521Y0028843D01*
X0387640Y0028747D01*
X0387758Y0028648D01*
X0387872Y0028547D01*
X0387984Y0028442D01*
X0388093Y0028334D01*
X0388199Y0028223D01*
X0388303Y0028110D01*
X0388403Y0027994D01*
X0388501Y0027876D01*
X0388595Y0027755D01*
X0388686Y0027632D01*
X0388774Y0027506D01*
X0388858Y0027378D01*
X0388940Y0027248D01*
X0389017Y0027116D01*
X0389092Y0026982D01*
X0389163Y0026846D01*
X0389230Y0026708D01*
X0389294Y0026568D01*
X0389354Y0026427D01*
X0389410Y0026285D01*
X0389463Y0026141D01*
X0389512Y0025995D01*
X0389557Y0025849D01*
X0389598Y0025701D01*
X0389635Y0025553D01*
X0389669Y0025403D01*
X0389699Y0025252D01*
X0389724Y0025101D01*
X0389746Y0024950D01*
X0389764Y0024797D01*
X0389778Y0024645D01*
X0389788Y0024492D01*
X0389794Y0024338D01*
X0389796Y0024185D01*
X0389794Y0024032D01*
X0389788Y0023878D01*
X0389778Y0023725D01*
X0389764Y0023573D01*
X0389746Y0023420D01*
X0389724Y0023269D01*
X0389699Y0023118D01*
X0389669Y0022967D01*
X0389635Y0022817D01*
X0389598Y0022669D01*
X0389557Y0022521D01*
X0389512Y0022375D01*
X0389463Y0022229D01*
X0389410Y0022085D01*
X0389354Y0021943D01*
X0389294Y0021802D01*
X0389230Y0021662D01*
X0389163Y0021524D01*
X0389092Y0021388D01*
X0389017Y0021254D01*
X0388940Y0021122D01*
X0388858Y0020992D01*
X0388774Y0020864D01*
X0388686Y0020738D01*
X0388595Y0020615D01*
X0388501Y0020494D01*
X0388403Y0020376D01*
X0388303Y0020260D01*
X0388199Y0020147D01*
X0388093Y0020036D01*
X0387984Y0019928D01*
X0387872Y0019823D01*
X0387758Y0019722D01*
X0387640Y0019623D01*
X0387521Y0019527D01*
X0387399Y0019434D01*
X0387274Y0019345D01*
X0387147Y0019258D01*
X0387018Y0019176D01*
X0386887Y0019096D01*
X0386754Y0019020D01*
X0386619Y0018947D01*
X0386482Y0018878D01*
X0386343Y0018813D01*
X0386203Y0018751D01*
X0386061Y0018693D01*
X0385918Y0018638D01*
X0385773Y0018587D01*
X0385627Y0018540D01*
X0385480Y0018497D01*
X0385332Y0018458D01*
X0385183Y0018422D01*
X0385033Y0018391D01*
X0384882Y0018363D01*
X0384731Y0018339D01*
X0384578Y0018319D01*
X0384426Y0018303D01*
X0384273Y0018291D01*
X0384120Y0018283D01*
X0383967Y0018279D01*
X0383813Y0018279D01*
X0383660Y0018283D01*
X0383507Y0018291D01*
X0383354Y0018303D01*
X0383202Y0018319D01*
X0383049Y0018339D01*
X0382898Y0018363D01*
X0382747Y0018391D01*
X0382597Y0018422D01*
X0382448Y0018458D01*
X0382300Y0018497D01*
X0382153Y0018540D01*
X0382007Y0018587D01*
X0381862Y0018638D01*
X0381719Y0018693D01*
X0381577Y0018751D01*
X0381437Y0018813D01*
X0381298Y0018878D01*
X0381161Y0018947D01*
X0381026Y0019020D01*
X0380893Y0019096D01*
X0380762Y0019176D01*
X0380633Y0019258D01*
X0380506Y0019345D01*
X0380381Y0019434D01*
X0380259Y0019527D01*
X0380140Y0019623D01*
X0380022Y0019722D01*
X0379908Y0019823D01*
X0379796Y0019928D01*
X0379687Y0020036D01*
X0379581Y0020147D01*
X0379477Y0020260D01*
X0379377Y0020376D01*
X0379279Y0020494D01*
X0379185Y0020615D01*
X0379094Y0020738D01*
X0379006Y0020864D01*
X0378922Y0020992D01*
X0378840Y0021122D01*
X0378763Y0021254D01*
X0378688Y0021388D01*
X0378617Y0021524D01*
X0378550Y0021662D01*
X0378486Y0021802D01*
X0378426Y0021943D01*
X0378370Y0022085D01*
X0378317Y0022229D01*
X0378268Y0022375D01*
X0378223Y0022521D01*
X0378182Y0022669D01*
X0378145Y0022817D01*
X0378111Y0022967D01*
X0378081Y0023118D01*
X0378056Y0023269D01*
X0378034Y0023420D01*
X0378016Y0023573D01*
X0378002Y0023725D01*
X0377992Y0023878D01*
X0377986Y0024032D01*
X0377984Y0024185D01*
D11*
X0346570Y0048368D02*
X0346570Y0052638D01*
X0342300Y0048368D01*
X0343368Y0047300D01*
X0345503Y0047300D01*
X0346570Y0048368D01*
X0346570Y0052638D02*
X0345503Y0053705D01*
X0343368Y0053705D01*
X0342300Y0052638D01*
X0342300Y0048368D01*
X0363294Y0079800D02*
X0363294Y0084471D01*
X0363294Y0082135D02*
X0370300Y0082135D01*
X0374694Y0083303D02*
X0374694Y0079800D01*
X0381700Y0079800D01*
X0381700Y0083303D01*
X0380532Y0084471D01*
X0379365Y0084471D01*
X0378197Y0083303D01*
X0378197Y0079800D01*
X0378197Y0083303D02*
X0377029Y0084471D01*
X0375862Y0084471D01*
X0374694Y0083303D01*
X0375862Y0086798D02*
X0380532Y0086798D01*
X0381700Y0087966D01*
X0381700Y0090301D01*
X0380532Y0091469D01*
X0375862Y0091469D01*
X0374694Y0090301D01*
X0374694Y0087966D01*
X0375862Y0086798D01*
X0370300Y0087966D02*
X0370300Y0090301D01*
X0369132Y0091469D01*
X0364462Y0091469D01*
X0363294Y0090301D01*
X0363294Y0087966D01*
X0364462Y0086798D01*
X0369132Y0086798D01*
X0370300Y0087966D01*
X0370300Y0093796D02*
X0363294Y0093796D01*
X0363294Y0097299D01*
X0364462Y0098467D01*
X0366797Y0098467D01*
X0367965Y0097299D01*
X0367965Y0093796D01*
X0374694Y0093796D02*
X0374694Y0098467D01*
X0374694Y0096131D02*
X0381700Y0096131D01*
X0381700Y0100794D02*
X0380532Y0100794D01*
X0380532Y0101962D01*
X0381700Y0101962D01*
X0381700Y0100794D01*
X0378197Y0100794D02*
X0377029Y0100794D01*
X0377029Y0101962D01*
X0378197Y0101962D01*
X0378197Y0100794D01*
X0370300Y0100794D02*
X0369132Y0100794D01*
X0369132Y0101962D01*
X0370300Y0101962D01*
X0370300Y0100794D01*
X0366797Y0100794D02*
X0365629Y0100794D01*
X0365629Y0101962D01*
X0366797Y0101962D01*
X0366797Y0100794D01*
X0367965Y0111291D02*
X0367965Y0114794D01*
X0366797Y0115962D01*
X0364462Y0115962D01*
X0363294Y0114794D01*
X0363294Y0111291D01*
X0370300Y0111291D01*
X0374694Y0111291D02*
X0374694Y0114794D01*
X0375862Y0115962D01*
X0378197Y0115962D01*
X0379365Y0114794D01*
X0379365Y0111291D01*
X0381700Y0111291D02*
X0374694Y0111291D01*
X0374694Y0118289D02*
X0381700Y0118289D01*
X0379365Y0120624D01*
X0381700Y0122959D01*
X0374694Y0122959D01*
X0374694Y0125287D02*
X0377029Y0127622D01*
X0374694Y0129957D01*
X0381700Y0129957D01*
X0378197Y0132285D02*
X0378197Y0136955D01*
X0374694Y0139283D02*
X0377029Y0141618D01*
X0374694Y0143953D01*
X0381700Y0143953D01*
X0380532Y0146281D02*
X0381700Y0147448D01*
X0381700Y0149784D01*
X0380532Y0150951D01*
X0378197Y0150951D01*
X0377029Y0149784D01*
X0377029Y0147448D01*
X0378197Y0146281D01*
X0380532Y0146281D01*
X0380532Y0153279D02*
X0378197Y0153279D01*
X0377029Y0154446D01*
X0377029Y0157949D01*
X0377029Y0160277D02*
X0380532Y0160277D01*
X0381700Y0161444D01*
X0381700Y0164947D01*
X0377029Y0164947D01*
X0374694Y0167275D02*
X0374694Y0168442D01*
X0381700Y0168442D01*
X0381700Y0167275D02*
X0381700Y0169610D01*
X0370300Y0168446D02*
X0366797Y0168446D01*
X0365629Y0167279D01*
X0365629Y0163776D01*
X0370300Y0163776D01*
X0370300Y0161448D02*
X0370300Y0157945D01*
X0369132Y0156778D01*
X0367965Y0157945D01*
X0367965Y0161448D01*
X0366797Y0161448D02*
X0370300Y0161448D01*
X0366797Y0161448D02*
X0365629Y0160281D01*
X0365629Y0157945D01*
X0366797Y0154450D02*
X0369132Y0154450D01*
X0370300Y0153283D01*
X0370300Y0149780D01*
X0370300Y0147452D02*
X0365629Y0142782D01*
X0366797Y0140454D02*
X0365629Y0139287D01*
X0365629Y0136951D01*
X0366797Y0135784D01*
X0369132Y0135784D01*
X0370300Y0136951D01*
X0370300Y0139287D01*
X0367965Y0140454D02*
X0367965Y0135784D01*
X0370300Y0133454D02*
X0369132Y0132286D01*
X0364462Y0132286D01*
X0365629Y0131118D02*
X0365629Y0133454D01*
X0365629Y0128790D02*
X0365629Y0127622D01*
X0367965Y0125287D01*
X0370300Y0125287D02*
X0365629Y0125287D01*
X0366797Y0122959D02*
X0365629Y0121792D01*
X0365629Y0119456D01*
X0366797Y0118289D01*
X0369132Y0118289D01*
X0370300Y0119456D01*
X0370300Y0121792D01*
X0369132Y0122959D01*
X0366797Y0122959D01*
X0374694Y0125287D02*
X0381700Y0125287D01*
X0381700Y0139283D02*
X0374694Y0139283D01*
X0370300Y0142782D02*
X0365629Y0147452D01*
X0365629Y0149780D02*
X0365629Y0153283D01*
X0366797Y0154450D01*
X0365629Y0149780D02*
X0372635Y0149780D01*
X0380532Y0153279D02*
X0381700Y0154446D01*
X0381700Y0157949D01*
X0374694Y0157949D01*
X0369132Y0170774D02*
X0366797Y0170774D01*
X0365629Y0171941D01*
X0365629Y0175444D01*
X0363294Y0175444D02*
X0370300Y0175444D01*
X0370300Y0171941D01*
X0369132Y0170774D01*
X0369132Y0177772D02*
X0366797Y0177772D01*
X0365629Y0178939D01*
X0365629Y0181275D01*
X0366797Y0182442D01*
X0367965Y0182442D01*
X0367965Y0177772D01*
X0369132Y0177772D02*
X0370300Y0178939D01*
X0370300Y0181275D01*
X0370300Y0184770D02*
X0365629Y0184770D01*
X0365629Y0187105D02*
X0365629Y0188273D01*
X0365629Y0187105D02*
X0367965Y0184770D01*
X0367965Y0140454D02*
X0366797Y0140454D01*
X0315243Y0125138D02*
X0315243Y0124070D01*
X0314176Y0123003D01*
X0312041Y0123003D01*
X0310973Y0124070D01*
X0310973Y0125138D01*
X0312041Y0126205D01*
X0314176Y0126205D01*
X0315243Y0125138D01*
X0314176Y0123003D02*
X0315243Y0121935D01*
X0315243Y0120868D01*
X0314176Y0119800D01*
X0312041Y0119800D01*
X0310973Y0120868D01*
X0310973Y0121935D01*
X0312041Y0123003D01*
X0312000Y0122400D02*
X0312000Y0118300D01*
X0308798Y0120868D02*
X0307730Y0119800D01*
X0305595Y0119800D01*
X0304527Y0120868D01*
X0308798Y0125138D01*
X0308798Y0120868D01*
X0308798Y0125138D02*
X0307730Y0126205D01*
X0305595Y0126205D01*
X0304527Y0125138D01*
X0304527Y0120868D01*
X0302352Y0120868D02*
X0301285Y0119800D01*
X0299150Y0119800D01*
X0298082Y0120868D01*
X0295907Y0119800D02*
X0291636Y0119800D01*
X0295907Y0124070D01*
X0295907Y0125138D01*
X0294839Y0126205D01*
X0292704Y0126205D01*
X0291636Y0125138D01*
X0289461Y0126205D02*
X0289461Y0119800D01*
X0285191Y0126205D01*
X0285191Y0119800D01*
X0283016Y0119800D02*
X0278745Y0119800D01*
X0278745Y0126205D01*
X0276570Y0126205D02*
X0276570Y0120868D01*
X0275503Y0119800D01*
X0273368Y0119800D01*
X0272300Y0120868D01*
X0272300Y0126205D01*
X0269600Y0109500D02*
X0268900Y0109500D01*
X0268900Y0095700D01*
X0268900Y0093300D01*
X0268900Y0079500D01*
X0269600Y0079500D01*
X0268900Y0093300D02*
X0268969Y0093302D01*
X0269037Y0093308D01*
X0269105Y0093318D01*
X0269172Y0093331D01*
X0269238Y0093349D01*
X0269303Y0093370D01*
X0269367Y0093395D01*
X0269429Y0093423D01*
X0269490Y0093455D01*
X0269549Y0093490D01*
X0269605Y0093529D01*
X0269660Y0093571D01*
X0269711Y0093616D01*
X0269761Y0093664D01*
X0269807Y0093714D01*
X0269850Y0093767D01*
X0269891Y0093823D01*
X0269928Y0093880D01*
X0269961Y0093940D01*
X0269992Y0094002D01*
X0270018Y0094065D01*
X0270041Y0094129D01*
X0270061Y0094195D01*
X0270076Y0094262D01*
X0270088Y0094329D01*
X0270096Y0094397D01*
X0270100Y0094466D01*
X0270100Y0094534D01*
X0270096Y0094603D01*
X0270088Y0094671D01*
X0270076Y0094738D01*
X0270061Y0094805D01*
X0270041Y0094871D01*
X0270018Y0094935D01*
X0269992Y0094998D01*
X0269961Y0095060D01*
X0269928Y0095120D01*
X0269891Y0095177D01*
X0269850Y0095233D01*
X0269807Y0095286D01*
X0269761Y0095336D01*
X0269711Y0095384D01*
X0269660Y0095429D01*
X0269605Y0095471D01*
X0269549Y0095510D01*
X0269490Y0095545D01*
X0269429Y0095577D01*
X0269367Y0095605D01*
X0269303Y0095630D01*
X0269238Y0095651D01*
X0269172Y0095669D01*
X0269105Y0095682D01*
X0269037Y0095692D01*
X0268969Y0095698D01*
X0268900Y0095700D01*
X0300217Y0123003D02*
X0301285Y0123003D01*
X0302352Y0121935D01*
X0302352Y0120868D01*
X0301285Y0123003D02*
X0302352Y0124070D01*
X0302352Y0125138D01*
X0301285Y0126205D01*
X0299150Y0126205D01*
X0298082Y0125138D01*
X0314400Y0109500D02*
X0315100Y0109500D01*
X0315100Y0079500D01*
X0314400Y0079500D01*
X0252431Y0061205D02*
X0248161Y0061205D01*
X0250296Y0061205D02*
X0250296Y0054800D01*
X0245986Y0055868D02*
X0245986Y0061205D01*
X0241715Y0061205D02*
X0241715Y0055868D01*
X0242783Y0054800D01*
X0244918Y0054800D01*
X0245986Y0055868D01*
X0241570Y0053705D02*
X0241570Y0052638D01*
X0237300Y0048368D01*
X0237300Y0047300D01*
X0237300Y0053705D02*
X0241570Y0053705D01*
X0239540Y0055868D02*
X0239540Y0060138D01*
X0238473Y0061205D01*
X0236338Y0061205D01*
X0235270Y0060138D01*
X0235270Y0055868D01*
X0236338Y0054800D01*
X0238473Y0054800D01*
X0239540Y0055868D01*
X0226649Y0054800D02*
X0226649Y0061205D01*
X0226649Y0058003D02*
X0222379Y0058003D01*
X0220204Y0060138D02*
X0219136Y0061205D01*
X0217001Y0061205D01*
X0215933Y0060138D01*
X0215933Y0055868D01*
X0217001Y0054800D01*
X0219136Y0054800D01*
X0220204Y0055868D01*
X0222379Y0054800D02*
X0222379Y0061205D01*
X0213758Y0061205D02*
X0209488Y0061205D01*
X0211623Y0061205D02*
X0211623Y0054800D01*
X0207326Y0054800D02*
X0205191Y0054800D01*
X0206259Y0054800D02*
X0206259Y0061205D01*
X0207326Y0061205D02*
X0205191Y0061205D01*
X0203016Y0061205D02*
X0203016Y0054800D01*
X0200881Y0056935D01*
X0198745Y0054800D01*
X0198745Y0061205D01*
X0196570Y0060138D02*
X0195503Y0061205D01*
X0193368Y0061205D01*
X0192300Y0060138D01*
X0192300Y0059070D01*
X0193368Y0058003D01*
X0195503Y0058003D01*
X0196570Y0056935D01*
X0196570Y0055868D01*
X0195503Y0054800D01*
X0193368Y0054800D01*
X0192300Y0055868D01*
X0175100Y0079500D02*
X0174400Y0079500D01*
X0175100Y0079500D02*
X0175100Y0109500D01*
X0174400Y0109500D01*
X0172000Y0118300D02*
X0172000Y0122400D01*
X0172041Y0123003D02*
X0174176Y0123003D01*
X0175243Y0121935D01*
X0175243Y0120868D01*
X0174176Y0119800D01*
X0172041Y0119800D01*
X0170973Y0120868D01*
X0170973Y0121935D01*
X0172041Y0123003D01*
X0170973Y0124070D01*
X0170973Y0125138D01*
X0172041Y0126205D01*
X0174176Y0126205D01*
X0175243Y0125138D01*
X0175243Y0124070D01*
X0174176Y0123003D01*
X0168798Y0125138D02*
X0164527Y0120868D01*
X0165595Y0119800D01*
X0167730Y0119800D01*
X0168798Y0120868D01*
X0168798Y0125138D01*
X0167730Y0126205D01*
X0165595Y0126205D01*
X0164527Y0125138D01*
X0164527Y0120868D01*
X0162352Y0120868D02*
X0161285Y0119800D01*
X0159150Y0119800D01*
X0158082Y0120868D01*
X0155907Y0119800D02*
X0151636Y0119800D01*
X0155907Y0124070D01*
X0155907Y0125138D01*
X0154839Y0126205D01*
X0152704Y0126205D01*
X0151636Y0125138D01*
X0149461Y0126205D02*
X0149461Y0119800D01*
X0145191Y0126205D01*
X0145191Y0119800D01*
X0143016Y0119800D02*
X0138745Y0119800D01*
X0138745Y0126205D01*
X0136570Y0126205D02*
X0136570Y0120868D01*
X0135503Y0119800D01*
X0133368Y0119800D01*
X0132300Y0120868D01*
X0132300Y0126205D01*
X0129600Y0109500D02*
X0128900Y0109500D01*
X0128900Y0095700D01*
X0128900Y0093300D01*
X0128900Y0079500D01*
X0129600Y0079500D01*
X0128900Y0093300D02*
X0128969Y0093302D01*
X0129037Y0093308D01*
X0129105Y0093318D01*
X0129172Y0093331D01*
X0129238Y0093349D01*
X0129303Y0093370D01*
X0129367Y0093395D01*
X0129429Y0093423D01*
X0129490Y0093455D01*
X0129549Y0093490D01*
X0129605Y0093529D01*
X0129660Y0093571D01*
X0129711Y0093616D01*
X0129761Y0093664D01*
X0129807Y0093714D01*
X0129850Y0093767D01*
X0129891Y0093823D01*
X0129928Y0093880D01*
X0129961Y0093940D01*
X0129992Y0094002D01*
X0130018Y0094065D01*
X0130041Y0094129D01*
X0130061Y0094195D01*
X0130076Y0094262D01*
X0130088Y0094329D01*
X0130096Y0094397D01*
X0130100Y0094466D01*
X0130100Y0094534D01*
X0130096Y0094603D01*
X0130088Y0094671D01*
X0130076Y0094738D01*
X0130061Y0094805D01*
X0130041Y0094871D01*
X0130018Y0094935D01*
X0129992Y0094998D01*
X0129961Y0095060D01*
X0129928Y0095120D01*
X0129891Y0095177D01*
X0129850Y0095233D01*
X0129807Y0095286D01*
X0129761Y0095336D01*
X0129711Y0095384D01*
X0129660Y0095429D01*
X0129605Y0095471D01*
X0129549Y0095510D01*
X0129490Y0095545D01*
X0129429Y0095577D01*
X0129367Y0095605D01*
X0129303Y0095630D01*
X0129238Y0095651D01*
X0129172Y0095669D01*
X0129105Y0095682D01*
X0129037Y0095692D01*
X0128969Y0095698D01*
X0128900Y0095700D01*
X0107100Y0096100D02*
X0107100Y0099600D01*
X0107100Y0096100D02*
X0103600Y0096100D01*
X0101900Y0100800D02*
X0101900Y0103200D01*
X0107100Y0104400D02*
X0107100Y0107900D01*
X0105700Y0107900D01*
X0103600Y0107900D01*
X0104400Y0106700D02*
X0104468Y0106696D01*
X0104537Y0106697D01*
X0104605Y0106701D01*
X0104673Y0106709D01*
X0104741Y0106720D01*
X0104808Y0106736D01*
X0104874Y0106756D01*
X0104938Y0106779D01*
X0105001Y0106806D01*
X0105063Y0106836D01*
X0105122Y0106870D01*
X0105180Y0106907D01*
X0105235Y0106948D01*
X0105288Y0106991D01*
X0105339Y0107038D01*
X0105386Y0107087D01*
X0105431Y0107139D01*
X0105473Y0107194D01*
X0105512Y0107250D01*
X0105547Y0107309D01*
X0105579Y0107370D01*
X0105607Y0107432D01*
X0105632Y0107497D01*
X0105653Y0107562D01*
X0105670Y0107628D01*
X0105683Y0107696D01*
X0105693Y0107763D01*
X0105698Y0107832D01*
X0105700Y0107900D01*
X0077100Y0085400D02*
X0075700Y0085400D01*
X0073600Y0085400D01*
X0074400Y0084200D02*
X0074468Y0084196D01*
X0074537Y0084197D01*
X0074605Y0084201D01*
X0074673Y0084209D01*
X0074741Y0084220D01*
X0074808Y0084236D01*
X0074874Y0084256D01*
X0074938Y0084279D01*
X0075001Y0084306D01*
X0075063Y0084336D01*
X0075122Y0084370D01*
X0075180Y0084407D01*
X0075235Y0084448D01*
X0075288Y0084491D01*
X0075339Y0084538D01*
X0075386Y0084587D01*
X0075431Y0084639D01*
X0075473Y0084694D01*
X0075512Y0084750D01*
X0075547Y0084809D01*
X0075579Y0084870D01*
X0075607Y0084932D01*
X0075632Y0084997D01*
X0075653Y0085062D01*
X0075670Y0085128D01*
X0075683Y0085196D01*
X0075693Y0085263D01*
X0075698Y0085332D01*
X0075700Y0085400D01*
X0077100Y0085400D02*
X0077100Y0081900D01*
X0077100Y0077100D02*
X0077100Y0073600D01*
X0073600Y0073600D01*
X0071900Y0078300D02*
X0071900Y0080700D01*
X0059600Y0096100D02*
X0059600Y0099600D01*
X0059600Y0096100D02*
X0056100Y0096100D01*
X0054400Y0100800D02*
X0054400Y0103200D01*
X0059600Y0104400D02*
X0059600Y0107900D01*
X0058200Y0107900D01*
X0056100Y0107900D01*
X0056900Y0106700D02*
X0056968Y0106696D01*
X0057037Y0106697D01*
X0057105Y0106701D01*
X0057173Y0106709D01*
X0057241Y0106720D01*
X0057308Y0106736D01*
X0057374Y0106756D01*
X0057438Y0106779D01*
X0057501Y0106806D01*
X0057563Y0106836D01*
X0057622Y0106870D01*
X0057680Y0106907D01*
X0057735Y0106948D01*
X0057788Y0106991D01*
X0057839Y0107038D01*
X0057886Y0107087D01*
X0057931Y0107139D01*
X0057973Y0107194D01*
X0058012Y0107250D01*
X0058047Y0107309D01*
X0058079Y0107370D01*
X0058107Y0107432D01*
X0058132Y0107497D01*
X0058153Y0107562D01*
X0058170Y0107628D01*
X0058183Y0107696D01*
X0058193Y0107763D01*
X0058198Y0107832D01*
X0058200Y0107900D01*
X0037100Y0085400D02*
X0035700Y0085400D01*
X0033600Y0085400D01*
X0034400Y0084200D02*
X0034468Y0084196D01*
X0034537Y0084197D01*
X0034605Y0084201D01*
X0034673Y0084209D01*
X0034741Y0084220D01*
X0034808Y0084236D01*
X0034874Y0084256D01*
X0034938Y0084279D01*
X0035001Y0084306D01*
X0035063Y0084336D01*
X0035122Y0084370D01*
X0035180Y0084407D01*
X0035235Y0084448D01*
X0035288Y0084491D01*
X0035339Y0084538D01*
X0035386Y0084587D01*
X0035431Y0084639D01*
X0035473Y0084694D01*
X0035512Y0084750D01*
X0035547Y0084809D01*
X0035579Y0084870D01*
X0035607Y0084932D01*
X0035632Y0084997D01*
X0035653Y0085062D01*
X0035670Y0085128D01*
X0035683Y0085196D01*
X0035693Y0085263D01*
X0035698Y0085332D01*
X0035700Y0085400D01*
X0037100Y0085400D02*
X0037100Y0081900D01*
X0037100Y0077100D02*
X0037100Y0073600D01*
X0033600Y0073600D01*
X0031900Y0078300D02*
X0031900Y0080700D01*
X0051935Y0053705D02*
X0051935Y0047300D01*
X0049800Y0047300D02*
X0054070Y0047300D01*
X0056245Y0048368D02*
X0057313Y0047300D01*
X0059448Y0047300D01*
X0060516Y0048368D01*
X0060516Y0050503D01*
X0059448Y0051570D01*
X0058381Y0051570D01*
X0056245Y0050503D01*
X0056245Y0053705D01*
X0060516Y0053705D01*
X0064800Y0055868D02*
X0065868Y0054800D01*
X0068003Y0054800D01*
X0069070Y0055868D01*
X0069070Y0056935D01*
X0068003Y0058003D01*
X0065868Y0058003D01*
X0064800Y0059070D01*
X0064800Y0060138D01*
X0065868Y0061205D01*
X0068003Y0061205D01*
X0069070Y0060138D01*
X0071245Y0061205D02*
X0071245Y0054800D01*
X0073381Y0056935D01*
X0075516Y0054800D01*
X0075516Y0061205D01*
X0084136Y0061205D02*
X0086272Y0061205D01*
X0085204Y0061205D02*
X0085204Y0054800D01*
X0084136Y0054800D02*
X0086272Y0054800D01*
X0088433Y0054800D02*
X0088433Y0061205D01*
X0092704Y0054800D01*
X0092704Y0061205D01*
X0096935Y0053705D02*
X0096935Y0047300D01*
X0094800Y0047300D02*
X0099070Y0047300D01*
X0101245Y0047300D02*
X0105516Y0051570D01*
X0105516Y0052638D01*
X0104448Y0053705D01*
X0102313Y0053705D01*
X0101245Y0052638D01*
X0096935Y0053705D02*
X0094800Y0051570D01*
X0101245Y0047300D02*
X0105516Y0047300D01*
X0109800Y0047300D02*
X0114070Y0047300D01*
X0111935Y0047300D02*
X0111935Y0053705D01*
X0109800Y0051570D01*
X0116245Y0051570D02*
X0118381Y0053705D01*
X0118381Y0047300D01*
X0120516Y0047300D02*
X0116245Y0047300D01*
X0157300Y0048368D02*
X0157300Y0049435D01*
X0158368Y0050503D01*
X0160503Y0050503D01*
X0161570Y0049435D01*
X0161570Y0048368D01*
X0160503Y0047300D01*
X0158368Y0047300D01*
X0157300Y0048368D01*
X0158368Y0050503D02*
X0157300Y0051570D01*
X0157300Y0052638D01*
X0158368Y0053705D01*
X0160503Y0053705D01*
X0161570Y0052638D01*
X0161570Y0051570D01*
X0160503Y0050503D01*
X0184000Y0115500D02*
X0190000Y0115500D01*
X0190060Y0115502D01*
X0190121Y0115507D01*
X0190180Y0115516D01*
X0190239Y0115529D01*
X0190298Y0115545D01*
X0190355Y0115565D01*
X0190410Y0115588D01*
X0190465Y0115615D01*
X0190517Y0115644D01*
X0190568Y0115677D01*
X0190617Y0115713D01*
X0190663Y0115751D01*
X0190707Y0115793D01*
X0190749Y0115837D01*
X0190787Y0115883D01*
X0190823Y0115932D01*
X0190856Y0115983D01*
X0190885Y0116035D01*
X0190912Y0116090D01*
X0190935Y0116145D01*
X0190955Y0116202D01*
X0190971Y0116261D01*
X0190984Y0116320D01*
X0190993Y0116379D01*
X0190998Y0116440D01*
X0191000Y0116500D01*
X0191000Y0127500D01*
X0190998Y0127560D01*
X0190993Y0127621D01*
X0190984Y0127680D01*
X0190971Y0127739D01*
X0190955Y0127798D01*
X0190935Y0127855D01*
X0190912Y0127910D01*
X0190885Y0127965D01*
X0190856Y0128017D01*
X0190823Y0128068D01*
X0190787Y0128117D01*
X0190749Y0128163D01*
X0190707Y0128207D01*
X0190663Y0128249D01*
X0190617Y0128287D01*
X0190568Y0128323D01*
X0190517Y0128356D01*
X0190465Y0128385D01*
X0190410Y0128412D01*
X0190355Y0128435D01*
X0190298Y0128455D01*
X0190239Y0128471D01*
X0190180Y0128484D01*
X0190121Y0128493D01*
X0190060Y0128498D01*
X0190000Y0128500D01*
X0184000Y0128500D01*
X0183940Y0128498D01*
X0183879Y0128493D01*
X0183820Y0128484D01*
X0183761Y0128471D01*
X0183702Y0128455D01*
X0183645Y0128435D01*
X0183590Y0128412D01*
X0183535Y0128385D01*
X0183483Y0128356D01*
X0183432Y0128323D01*
X0183383Y0128287D01*
X0183337Y0128249D01*
X0183293Y0128207D01*
X0183251Y0128163D01*
X0183213Y0128117D01*
X0183177Y0128068D01*
X0183144Y0128017D01*
X0183115Y0127965D01*
X0183088Y0127910D01*
X0183065Y0127855D01*
X0183045Y0127798D01*
X0183029Y0127739D01*
X0183016Y0127680D01*
X0183007Y0127621D01*
X0183002Y0127560D01*
X0183000Y0127500D01*
X0183000Y0116500D01*
X0183002Y0116440D01*
X0183007Y0116379D01*
X0183016Y0116320D01*
X0183029Y0116261D01*
X0183045Y0116202D01*
X0183065Y0116145D01*
X0183088Y0116090D01*
X0183115Y0116035D01*
X0183144Y0115983D01*
X0183177Y0115932D01*
X0183213Y0115883D01*
X0183251Y0115837D01*
X0183293Y0115793D01*
X0183337Y0115751D01*
X0183383Y0115713D01*
X0183432Y0115677D01*
X0183483Y0115644D01*
X0183535Y0115615D01*
X0183590Y0115588D01*
X0183645Y0115565D01*
X0183702Y0115545D01*
X0183761Y0115529D01*
X0183820Y0115516D01*
X0183879Y0115507D01*
X0183940Y0115502D01*
X0184000Y0115500D01*
X0200500Y0116500D02*
X0200500Y0127500D01*
X0200502Y0127560D01*
X0200507Y0127621D01*
X0200516Y0127680D01*
X0200529Y0127739D01*
X0200545Y0127798D01*
X0200565Y0127855D01*
X0200588Y0127910D01*
X0200615Y0127965D01*
X0200644Y0128017D01*
X0200677Y0128068D01*
X0200713Y0128117D01*
X0200751Y0128163D01*
X0200793Y0128207D01*
X0200837Y0128249D01*
X0200883Y0128287D01*
X0200932Y0128323D01*
X0200983Y0128356D01*
X0201035Y0128385D01*
X0201090Y0128412D01*
X0201145Y0128435D01*
X0201202Y0128455D01*
X0201261Y0128471D01*
X0201320Y0128484D01*
X0201379Y0128493D01*
X0201440Y0128498D01*
X0201500Y0128500D01*
X0207500Y0128500D01*
X0207560Y0128498D01*
X0207621Y0128493D01*
X0207680Y0128484D01*
X0207739Y0128471D01*
X0207798Y0128455D01*
X0207855Y0128435D01*
X0207910Y0128412D01*
X0207965Y0128385D01*
X0208017Y0128356D01*
X0208068Y0128323D01*
X0208117Y0128287D01*
X0208163Y0128249D01*
X0208207Y0128207D01*
X0208249Y0128163D01*
X0208287Y0128117D01*
X0208323Y0128068D01*
X0208356Y0128017D01*
X0208385Y0127965D01*
X0208412Y0127910D01*
X0208435Y0127855D01*
X0208455Y0127798D01*
X0208471Y0127739D01*
X0208484Y0127680D01*
X0208493Y0127621D01*
X0208498Y0127560D01*
X0208500Y0127500D01*
X0208500Y0116500D01*
X0208498Y0116440D01*
X0208493Y0116379D01*
X0208484Y0116320D01*
X0208471Y0116261D01*
X0208455Y0116202D01*
X0208435Y0116145D01*
X0208412Y0116090D01*
X0208385Y0116035D01*
X0208356Y0115983D01*
X0208323Y0115932D01*
X0208287Y0115883D01*
X0208249Y0115837D01*
X0208207Y0115793D01*
X0208163Y0115751D01*
X0208117Y0115713D01*
X0208068Y0115677D01*
X0208017Y0115644D01*
X0207965Y0115615D01*
X0207910Y0115588D01*
X0207855Y0115565D01*
X0207798Y0115545D01*
X0207739Y0115529D01*
X0207680Y0115516D01*
X0207621Y0115507D01*
X0207560Y0115502D01*
X0207500Y0115500D01*
X0201500Y0115500D01*
X0201440Y0115502D01*
X0201379Y0115507D01*
X0201320Y0115516D01*
X0201261Y0115529D01*
X0201202Y0115545D01*
X0201145Y0115565D01*
X0201090Y0115588D01*
X0201035Y0115615D01*
X0200983Y0115644D01*
X0200932Y0115677D01*
X0200883Y0115713D01*
X0200837Y0115751D01*
X0200793Y0115793D01*
X0200751Y0115837D01*
X0200713Y0115883D01*
X0200677Y0115932D01*
X0200644Y0115983D01*
X0200615Y0116035D01*
X0200588Y0116090D01*
X0200565Y0116145D01*
X0200545Y0116202D01*
X0200529Y0116261D01*
X0200516Y0116320D01*
X0200507Y0116379D01*
X0200502Y0116440D01*
X0200500Y0116500D01*
X0218000Y0116500D02*
X0218000Y0127500D01*
X0218002Y0127560D01*
X0218007Y0127621D01*
X0218016Y0127680D01*
X0218029Y0127739D01*
X0218045Y0127798D01*
X0218065Y0127855D01*
X0218088Y0127910D01*
X0218115Y0127965D01*
X0218144Y0128017D01*
X0218177Y0128068D01*
X0218213Y0128117D01*
X0218251Y0128163D01*
X0218293Y0128207D01*
X0218337Y0128249D01*
X0218383Y0128287D01*
X0218432Y0128323D01*
X0218483Y0128356D01*
X0218535Y0128385D01*
X0218590Y0128412D01*
X0218645Y0128435D01*
X0218702Y0128455D01*
X0218761Y0128471D01*
X0218820Y0128484D01*
X0218879Y0128493D01*
X0218940Y0128498D01*
X0219000Y0128500D01*
X0225000Y0128500D01*
X0225060Y0128498D01*
X0225121Y0128493D01*
X0225180Y0128484D01*
X0225239Y0128471D01*
X0225298Y0128455D01*
X0225355Y0128435D01*
X0225410Y0128412D01*
X0225465Y0128385D01*
X0225517Y0128356D01*
X0225568Y0128323D01*
X0225617Y0128287D01*
X0225663Y0128249D01*
X0225707Y0128207D01*
X0225749Y0128163D01*
X0225787Y0128117D01*
X0225823Y0128068D01*
X0225856Y0128017D01*
X0225885Y0127965D01*
X0225912Y0127910D01*
X0225935Y0127855D01*
X0225955Y0127798D01*
X0225971Y0127739D01*
X0225984Y0127680D01*
X0225993Y0127621D01*
X0225998Y0127560D01*
X0226000Y0127500D01*
X0226000Y0116500D01*
X0225998Y0116440D01*
X0225993Y0116379D01*
X0225984Y0116320D01*
X0225971Y0116261D01*
X0225955Y0116202D01*
X0225935Y0116145D01*
X0225912Y0116090D01*
X0225885Y0116035D01*
X0225856Y0115983D01*
X0225823Y0115932D01*
X0225787Y0115883D01*
X0225749Y0115837D01*
X0225707Y0115793D01*
X0225663Y0115751D01*
X0225617Y0115713D01*
X0225568Y0115677D01*
X0225517Y0115644D01*
X0225465Y0115615D01*
X0225410Y0115588D01*
X0225355Y0115565D01*
X0225298Y0115545D01*
X0225239Y0115529D01*
X0225180Y0115516D01*
X0225121Y0115507D01*
X0225060Y0115502D01*
X0225000Y0115500D01*
X0219000Y0115500D01*
X0218940Y0115502D01*
X0218879Y0115507D01*
X0218820Y0115516D01*
X0218761Y0115529D01*
X0218702Y0115545D01*
X0218645Y0115565D01*
X0218590Y0115588D01*
X0218535Y0115615D01*
X0218483Y0115644D01*
X0218432Y0115677D01*
X0218383Y0115713D01*
X0218337Y0115751D01*
X0218293Y0115793D01*
X0218251Y0115837D01*
X0218213Y0115883D01*
X0218177Y0115932D01*
X0218144Y0115983D01*
X0218115Y0116035D01*
X0218088Y0116090D01*
X0218065Y0116145D01*
X0218045Y0116202D01*
X0218029Y0116261D01*
X0218016Y0116320D01*
X0218007Y0116379D01*
X0218002Y0116440D01*
X0218000Y0116500D01*
X0216619Y0152200D02*
X0187381Y0152200D01*
X0187381Y0221700D01*
X0216619Y0221700D01*
X0216619Y0152200D01*
X0230295Y0164800D02*
X0232430Y0166935D01*
X0230295Y0169070D01*
X0236700Y0169070D01*
X0235632Y0171245D02*
X0231362Y0171245D01*
X0230295Y0172313D01*
X0230295Y0174448D01*
X0231362Y0175516D01*
X0230295Y0177691D02*
X0230295Y0180894D01*
X0231362Y0181961D01*
X0233497Y0181961D01*
X0234565Y0180894D01*
X0234565Y0177691D01*
X0236700Y0177691D02*
X0230295Y0177691D01*
X0235632Y0175516D02*
X0236700Y0174448D01*
X0236700Y0172313D01*
X0235632Y0171245D01*
X0236700Y0164800D02*
X0230295Y0164800D01*
X0231362Y0184136D02*
X0230295Y0185204D01*
X0230295Y0187339D01*
X0231362Y0188407D01*
X0232430Y0188407D01*
X0236700Y0184136D01*
X0236700Y0188407D01*
X0235632Y0190582D02*
X0236700Y0191650D01*
X0236700Y0193785D01*
X0235632Y0194852D01*
X0234565Y0194852D01*
X0233497Y0193785D01*
X0233497Y0192717D01*
X0233497Y0193785D02*
X0232430Y0194852D01*
X0231362Y0194852D01*
X0230295Y0193785D01*
X0230295Y0191650D01*
X0231362Y0190582D01*
X0231362Y0197027D02*
X0230295Y0198095D01*
X0230295Y0200230D01*
X0231362Y0201298D01*
X0235632Y0197027D01*
X0236700Y0198095D01*
X0236700Y0200230D01*
X0235632Y0201298D01*
X0231362Y0201298D01*
X0232430Y0203473D02*
X0230295Y0205608D01*
X0236700Y0205608D01*
X0236700Y0203473D02*
X0236700Y0207743D01*
X0236700Y0209918D02*
X0235632Y0209918D01*
X0231362Y0214189D01*
X0230295Y0214189D01*
X0230295Y0209918D01*
X0231362Y0197027D02*
X0235632Y0197027D01*
X0187500Y0218000D02*
X0187502Y0218092D01*
X0187508Y0218183D01*
X0187518Y0218274D01*
X0187532Y0218365D01*
X0187550Y0218455D01*
X0187572Y0218544D01*
X0187597Y0218631D01*
X0187627Y0218718D01*
X0187660Y0218804D01*
X0187697Y0218887D01*
X0187737Y0218970D01*
X0187781Y0219050D01*
X0187829Y0219128D01*
X0187880Y0219205D01*
X0187934Y0219278D01*
X0187991Y0219350D01*
X0188052Y0219419D01*
X0188115Y0219485D01*
X0188181Y0219548D01*
X0188250Y0219609D01*
X0188322Y0219666D01*
X0188395Y0219720D01*
X0188472Y0219771D01*
X0188550Y0219819D01*
X0188630Y0219863D01*
X0188713Y0219903D01*
X0188796Y0219940D01*
X0188882Y0219973D01*
X0188969Y0220003D01*
X0189056Y0220028D01*
X0189145Y0220050D01*
X0189235Y0220068D01*
X0189326Y0220082D01*
X0189417Y0220092D01*
X0189508Y0220098D01*
X0189600Y0220100D01*
X0189692Y0220098D01*
X0189783Y0220092D01*
X0189874Y0220082D01*
X0189965Y0220068D01*
X0190055Y0220050D01*
X0190144Y0220028D01*
X0190231Y0220003D01*
X0190318Y0219973D01*
X0190404Y0219940D01*
X0190487Y0219903D01*
X0190570Y0219863D01*
X0190650Y0219819D01*
X0190728Y0219771D01*
X0190805Y0219720D01*
X0190878Y0219666D01*
X0190950Y0219609D01*
X0191019Y0219548D01*
X0191085Y0219485D01*
X0191148Y0219419D01*
X0191209Y0219350D01*
X0191266Y0219278D01*
X0191320Y0219205D01*
X0191371Y0219128D01*
X0191419Y0219050D01*
X0191463Y0218970D01*
X0191503Y0218887D01*
X0191540Y0218804D01*
X0191573Y0218718D01*
X0191603Y0218631D01*
X0191628Y0218544D01*
X0191650Y0218455D01*
X0191668Y0218365D01*
X0191682Y0218274D01*
X0191692Y0218183D01*
X0191698Y0218092D01*
X0191700Y0218000D01*
X0191698Y0217908D01*
X0191692Y0217817D01*
X0191682Y0217726D01*
X0191668Y0217635D01*
X0191650Y0217545D01*
X0191628Y0217456D01*
X0191603Y0217369D01*
X0191573Y0217282D01*
X0191540Y0217196D01*
X0191503Y0217113D01*
X0191463Y0217030D01*
X0191419Y0216950D01*
X0191371Y0216872D01*
X0191320Y0216795D01*
X0191266Y0216722D01*
X0191209Y0216650D01*
X0191148Y0216581D01*
X0191085Y0216515D01*
X0191019Y0216452D01*
X0190950Y0216391D01*
X0190878Y0216334D01*
X0190805Y0216280D01*
X0190728Y0216229D01*
X0190650Y0216181D01*
X0190570Y0216137D01*
X0190487Y0216097D01*
X0190404Y0216060D01*
X0190318Y0216027D01*
X0190231Y0215997D01*
X0190144Y0215972D01*
X0190055Y0215950D01*
X0189965Y0215932D01*
X0189874Y0215918D01*
X0189783Y0215908D01*
X0189692Y0215902D01*
X0189600Y0215900D01*
X0189508Y0215902D01*
X0189417Y0215908D01*
X0189326Y0215918D01*
X0189235Y0215932D01*
X0189145Y0215950D01*
X0189056Y0215972D01*
X0188969Y0215997D01*
X0188882Y0216027D01*
X0188796Y0216060D01*
X0188713Y0216097D01*
X0188630Y0216137D01*
X0188550Y0216181D01*
X0188472Y0216229D01*
X0188395Y0216280D01*
X0188322Y0216334D01*
X0188250Y0216391D01*
X0188181Y0216452D01*
X0188115Y0216515D01*
X0188052Y0216581D01*
X0187991Y0216650D01*
X0187934Y0216722D01*
X0187880Y0216795D01*
X0187829Y0216872D01*
X0187781Y0216950D01*
X0187737Y0217030D01*
X0187697Y0217113D01*
X0187660Y0217196D01*
X0187627Y0217282D01*
X0187597Y0217369D01*
X0187572Y0217456D01*
X0187550Y0217545D01*
X0187532Y0217635D01*
X0187518Y0217726D01*
X0187508Y0217817D01*
X0187502Y0217908D01*
X0187500Y0218000D01*
X0148700Y0273978D02*
X0148700Y0276114D01*
X0148700Y0275046D02*
X0142295Y0275046D01*
X0142295Y0273978D02*
X0142295Y0276114D01*
X0142295Y0278275D02*
X0142295Y0280411D01*
X0143362Y0280411D01*
X0145497Y0278275D01*
X0145497Y0280411D01*
X0143362Y0278275D02*
X0142295Y0278275D01*
X0143362Y0282572D02*
X0142295Y0283640D01*
X0142295Y0285775D01*
X0143362Y0286843D01*
X0147632Y0286843D02*
X0148700Y0285775D01*
X0148700Y0283640D01*
X0147632Y0282572D01*
X0143362Y0282572D01*
X0143362Y0295463D02*
X0142295Y0296531D01*
X0142295Y0298666D01*
X0143362Y0299734D01*
X0147632Y0299734D01*
X0148700Y0298666D01*
X0148700Y0296531D01*
X0147632Y0295463D01*
X0143362Y0295463D01*
X0142295Y0301909D02*
X0147632Y0301909D01*
X0148700Y0302977D01*
X0148700Y0305112D01*
X0147632Y0306179D01*
X0142295Y0306179D01*
X0142295Y0308354D02*
X0142295Y0312625D01*
X0142295Y0310490D02*
X0148700Y0310490D01*
X0169500Y0313831D02*
X0164500Y0290799D01*
X0179500Y0290799D02*
X0174500Y0313831D01*
X0169500Y0313831D01*
X0194500Y0313831D02*
X0189500Y0290799D01*
X0204500Y0290799D02*
X0199500Y0313831D01*
X0194500Y0313831D01*
X0071200Y0312625D02*
X0064795Y0312625D01*
X0064795Y0308354D02*
X0071200Y0312625D01*
X0071200Y0308354D02*
X0064795Y0308354D01*
X0064795Y0306193D02*
X0064795Y0304057D01*
X0064795Y0305125D02*
X0071200Y0305125D01*
X0071200Y0304057D02*
X0071200Y0306193D01*
X0070132Y0295437D02*
X0071200Y0294369D01*
X0071200Y0292234D01*
X0070132Y0291166D01*
X0065862Y0291166D01*
X0064795Y0292234D01*
X0064795Y0294369D01*
X0065862Y0295437D01*
X0065862Y0289005D02*
X0067997Y0286869D01*
X0067997Y0289005D01*
X0065862Y0289005D02*
X0064795Y0289005D01*
X0064795Y0286869D01*
X0065862Y0286869D01*
X0064795Y0284708D02*
X0064795Y0282572D01*
X0064795Y0283640D02*
X0071200Y0283640D01*
X0071200Y0282572D02*
X0071200Y0284708D01*
X0159150Y0126205D02*
X0158082Y0125138D01*
X0159150Y0126205D02*
X0161285Y0126205D01*
X0162352Y0125138D01*
X0162352Y0124070D01*
X0161285Y0123003D01*
X0162352Y0121935D01*
X0162352Y0120868D01*
X0161285Y0123003D02*
X0160217Y0123003D01*
X0051935Y0053705D02*
X0049800Y0051570D01*
X0327300Y0296050D02*
X0329435Y0296050D01*
X0328368Y0296050D02*
X0328368Y0302455D01*
X0329435Y0302455D02*
X0327300Y0302455D01*
X0327300Y0306550D02*
X0327300Y0312955D01*
X0330503Y0312955D01*
X0331570Y0311888D01*
X0331570Y0309753D01*
X0330503Y0308685D01*
X0327300Y0308685D01*
X0333745Y0307618D02*
X0334813Y0306550D01*
X0336948Y0306550D01*
X0338016Y0307618D01*
X0338016Y0311888D01*
X0336948Y0312955D01*
X0334813Y0312955D01*
X0333745Y0311888D01*
X0333745Y0307618D01*
X0335867Y0302455D02*
X0335867Y0296050D01*
X0331597Y0302455D01*
X0331597Y0296050D01*
X0340191Y0306550D02*
X0342326Y0308685D01*
X0344461Y0306550D01*
X0344461Y0312955D01*
X0346636Y0312955D02*
X0346636Y0306550D01*
X0350907Y0306550D01*
X0353082Y0306550D02*
X0353082Y0312955D01*
X0356285Y0312955D01*
X0357352Y0311888D01*
X0357352Y0309753D01*
X0356285Y0308685D01*
X0353082Y0308685D01*
X0355217Y0308685D02*
X0357352Y0306550D01*
X0350907Y0312955D02*
X0346636Y0312955D01*
X0346636Y0309753D02*
X0348772Y0309753D01*
X0340191Y0312955D02*
X0340191Y0306550D01*
D12*
X0349500Y0057000D02*
X0259500Y0057000D01*
X0184500Y0057000D02*
X0107000Y0057000D01*
X0094500Y0057000D01*
X0107000Y0057000D02*
X0107000Y0047000D01*
X0062000Y0057000D02*
X0047000Y0057000D01*
X0047000Y0047000D01*
X0349500Y0057000D02*
X0352000Y0057000D01*
X0352000Y0047000D01*
D13*
X0239300Y0107967D02*
X0239300Y0110269D01*
X0239300Y0111804D02*
X0239300Y0113339D01*
X0239300Y0112571D02*
X0234696Y0112571D01*
X0234696Y0111804D01*
X0236231Y0110269D02*
X0236231Y0107967D01*
X0236998Y0107200D01*
X0238533Y0107200D01*
X0239300Y0107967D01*
X0238533Y0114873D02*
X0239300Y0115641D01*
X0239300Y0117175D01*
X0238533Y0117942D01*
X0236998Y0117942D01*
X0236231Y0117175D01*
X0236231Y0115641D01*
X0236998Y0114873D01*
X0238533Y0114873D01*
X0239300Y0119477D02*
X0239300Y0121779D01*
X0238533Y0122546D01*
X0237765Y0121779D01*
X0237765Y0120244D01*
X0236998Y0119477D01*
X0236231Y0120244D01*
X0236231Y0122546D01*
X0236998Y0124081D02*
X0236231Y0124848D01*
X0236231Y0126383D01*
X0236998Y0127150D01*
X0237765Y0127150D01*
X0237765Y0124081D01*
X0236998Y0124081D02*
X0238533Y0124081D01*
X0239300Y0124848D01*
X0239300Y0126383D01*
X0238533Y0128685D02*
X0236998Y0128685D01*
X0236231Y0129452D01*
X0236231Y0131754D01*
X0234696Y0131754D02*
X0239300Y0131754D01*
X0239300Y0129452D01*
X0238533Y0128685D01*
X0237765Y0137893D02*
X0237765Y0140962D01*
X0236231Y0140962D02*
X0236231Y0137893D01*
X0236231Y0147101D02*
X0234696Y0148635D01*
X0239300Y0148635D01*
X0239300Y0147101D02*
X0239300Y0150170D01*
X0216033Y0114477D02*
X0214498Y0114477D01*
X0213731Y0113710D01*
X0213731Y0112942D01*
X0214498Y0111408D01*
X0212196Y0111408D01*
X0212196Y0114477D01*
X0216033Y0114477D02*
X0216800Y0113710D01*
X0216800Y0112175D01*
X0216033Y0111408D01*
X0216800Y0109873D02*
X0216800Y0106804D01*
X0213731Y0109873D01*
X0212963Y0109873D01*
X0212196Y0109106D01*
X0212196Y0107571D01*
X0212963Y0106804D01*
X0212963Y0105269D02*
X0214498Y0105269D01*
X0215265Y0104502D01*
X0215265Y0102200D01*
X0215265Y0103735D02*
X0216800Y0105269D01*
X0216800Y0102200D02*
X0212196Y0102200D01*
X0212196Y0104502D01*
X0212963Y0105269D01*
X0199300Y0105269D02*
X0197765Y0103735D01*
X0197765Y0104502D02*
X0197765Y0102200D01*
X0199300Y0102200D02*
X0194696Y0102200D01*
X0194696Y0104502D01*
X0195463Y0105269D01*
X0196998Y0105269D01*
X0197765Y0104502D01*
X0199300Y0106804D02*
X0196231Y0109873D01*
X0195463Y0109873D01*
X0194696Y0109106D01*
X0194696Y0107571D01*
X0195463Y0106804D01*
X0199300Y0106804D02*
X0199300Y0109873D01*
X0196998Y0111408D02*
X0196998Y0114477D01*
X0194696Y0113710D02*
X0196998Y0111408D01*
X0199300Y0113710D02*
X0194696Y0113710D01*
X0184300Y0113710D02*
X0184300Y0112175D01*
X0183533Y0111408D01*
X0184300Y0109873D02*
X0184300Y0106804D01*
X0181231Y0109873D01*
X0180463Y0109873D01*
X0179696Y0109106D01*
X0179696Y0107571D01*
X0180463Y0106804D01*
X0180463Y0105269D02*
X0181998Y0105269D01*
X0182765Y0104502D01*
X0182765Y0102200D01*
X0182765Y0103735D02*
X0184300Y0105269D01*
X0184300Y0102200D02*
X0179696Y0102200D01*
X0179696Y0104502D01*
X0180463Y0105269D01*
X0180463Y0111408D02*
X0179696Y0112175D01*
X0179696Y0113710D01*
X0180463Y0114477D01*
X0181231Y0114477D01*
X0181998Y0113710D01*
X0182765Y0114477D01*
X0183533Y0114477D01*
X0184300Y0113710D01*
X0181998Y0113710D02*
X0181998Y0112942D01*
X0168533Y0157992D02*
X0165463Y0157992D01*
X0164696Y0158759D01*
X0164696Y0160294D01*
X0165463Y0161061D01*
X0166998Y0162596D02*
X0166998Y0164898D01*
X0167765Y0165665D01*
X0168533Y0165665D01*
X0169300Y0164898D01*
X0169300Y0163363D01*
X0168533Y0162596D01*
X0166998Y0162596D01*
X0165463Y0164131D01*
X0164696Y0165665D01*
X0161800Y0164898D02*
X0161800Y0163363D01*
X0161033Y0162596D01*
X0161033Y0161061D02*
X0161800Y0160294D01*
X0161800Y0158759D01*
X0161033Y0157992D01*
X0157963Y0157992D01*
X0157196Y0158759D01*
X0157196Y0160294D01*
X0157963Y0161061D01*
X0157196Y0162596D02*
X0159498Y0162596D01*
X0158731Y0164131D01*
X0158731Y0164898D01*
X0159498Y0165665D01*
X0161033Y0165665D01*
X0161800Y0164898D01*
X0157196Y0165665D02*
X0157196Y0162596D01*
X0168533Y0161061D02*
X0169300Y0160294D01*
X0169300Y0158759D01*
X0168533Y0157992D01*
X0148710Y0222200D02*
X0149477Y0222967D01*
X0149477Y0223735D01*
X0148710Y0224502D01*
X0146408Y0224502D01*
X0146408Y0222967D01*
X0147175Y0222200D01*
X0148710Y0222200D01*
X0146408Y0224502D02*
X0147942Y0226037D01*
X0149477Y0226804D01*
X0146408Y0229700D02*
X0146408Y0230467D01*
X0149477Y0233537D01*
X0149477Y0234304D01*
X0146408Y0234304D01*
X0144873Y0233537D02*
X0144106Y0234304D01*
X0142571Y0234304D01*
X0141804Y0233537D01*
X0140269Y0233537D02*
X0140269Y0232002D01*
X0139502Y0231235D01*
X0137200Y0231235D01*
X0138735Y0231235D02*
X0140269Y0229700D01*
X0141804Y0229700D02*
X0144873Y0232769D01*
X0144873Y0233537D01*
X0144873Y0229700D02*
X0141804Y0229700D01*
X0142571Y0226804D02*
X0141804Y0226037D01*
X0142571Y0226804D02*
X0144106Y0226804D01*
X0144873Y0226037D01*
X0144873Y0225269D01*
X0141804Y0222200D01*
X0144873Y0222200D01*
X0140269Y0222200D02*
X0138735Y0223735D01*
X0139502Y0223735D02*
X0137200Y0223735D01*
X0137200Y0222200D02*
X0137200Y0226804D01*
X0139502Y0226804D01*
X0140269Y0226037D01*
X0140269Y0224502D01*
X0139502Y0223735D01*
X0137200Y0229700D02*
X0137200Y0234304D01*
X0139502Y0234304D01*
X0140269Y0233537D01*
X0125665Y0249700D02*
X0122596Y0249700D01*
X0121061Y0249700D02*
X0117992Y0254304D01*
X0121061Y0254304D02*
X0117992Y0249700D01*
X0122596Y0252769D02*
X0124131Y0254304D01*
X0124131Y0249700D01*
X0106977Y0251037D02*
X0103908Y0247967D01*
X0103908Y0247200D01*
X0102373Y0247200D02*
X0099304Y0247200D01*
X0100839Y0247200D02*
X0100839Y0251804D01*
X0099304Y0250269D01*
X0097769Y0251804D02*
X0097769Y0247967D01*
X0097002Y0247200D01*
X0095467Y0247200D01*
X0094700Y0247967D01*
X0094700Y0251804D01*
X0103908Y0251804D02*
X0106977Y0251804D01*
X0106977Y0251037D01*
X0144696Y0261717D02*
X0145463Y0260950D01*
X0148533Y0260950D01*
X0149300Y0261717D01*
X0149300Y0263252D01*
X0148533Y0264019D01*
X0148533Y0265554D02*
X0149300Y0266321D01*
X0149300Y0267856D01*
X0148533Y0268623D01*
X0145463Y0268623D01*
X0144696Y0267856D01*
X0144696Y0266321D01*
X0145463Y0265554D01*
X0146231Y0265554D01*
X0146998Y0266321D01*
X0146998Y0268623D01*
X0145463Y0264019D02*
X0144696Y0263252D01*
X0144696Y0261717D01*
X0164696Y0257460D02*
X0165463Y0258227D01*
X0168533Y0255158D01*
X0169300Y0255925D01*
X0169300Y0257460D01*
X0168533Y0258227D01*
X0165463Y0258227D01*
X0164696Y0257460D02*
X0164696Y0255925D01*
X0165463Y0255158D01*
X0168533Y0255158D01*
X0169300Y0253623D02*
X0169300Y0250554D01*
X0169300Y0252089D02*
X0164696Y0252089D01*
X0166231Y0250554D01*
X0165463Y0249019D02*
X0164696Y0248252D01*
X0164696Y0246717D01*
X0165463Y0245950D01*
X0168533Y0245950D01*
X0169300Y0246717D01*
X0169300Y0248252D01*
X0168533Y0249019D01*
X0205492Y0254700D02*
X0208561Y0259304D01*
X0210096Y0258537D02*
X0210863Y0259304D01*
X0212398Y0259304D01*
X0213165Y0258537D01*
X0213165Y0257769D01*
X0212398Y0257002D01*
X0213165Y0256235D01*
X0213165Y0255467D01*
X0212398Y0254700D01*
X0210863Y0254700D01*
X0210096Y0255467D01*
X0208561Y0254700D02*
X0205492Y0259304D01*
X0211631Y0257002D02*
X0212398Y0257002D01*
X0221656Y0279700D02*
X0223190Y0279700D01*
X0223957Y0280467D01*
X0225492Y0279700D02*
X0228561Y0279700D01*
X0227027Y0279700D02*
X0227027Y0284304D01*
X0225492Y0282769D01*
X0223957Y0283537D02*
X0223190Y0284304D01*
X0221656Y0284304D01*
X0220888Y0283537D01*
X0220888Y0280467D01*
X0221656Y0279700D01*
X0230096Y0280467D02*
X0230863Y0279700D01*
X0232398Y0279700D01*
X0233165Y0280467D01*
X0233165Y0281235D01*
X0232398Y0282002D01*
X0230096Y0282002D01*
X0230096Y0280467D01*
X0230096Y0282002D02*
X0231631Y0283537D01*
X0233165Y0284304D01*
X0232398Y0289700D02*
X0230863Y0289700D01*
X0230096Y0290467D01*
X0230096Y0292002D02*
X0231631Y0292769D01*
X0232398Y0292769D01*
X0233165Y0292002D01*
X0233165Y0290467D01*
X0232398Y0289700D01*
X0230096Y0292002D02*
X0230096Y0294304D01*
X0233165Y0294304D01*
X0227027Y0294304D02*
X0227027Y0289700D01*
X0228561Y0289700D02*
X0225492Y0289700D01*
X0223957Y0290467D02*
X0223190Y0289700D01*
X0221656Y0289700D01*
X0220888Y0290467D01*
X0220888Y0293537D01*
X0221656Y0294304D01*
X0223190Y0294304D01*
X0223957Y0293537D01*
X0225492Y0292769D02*
X0227027Y0294304D01*
X0282200Y0276804D02*
X0285269Y0272200D01*
X0286804Y0272200D02*
X0289873Y0275269D01*
X0289873Y0276037D01*
X0289106Y0276804D01*
X0287571Y0276804D01*
X0286804Y0276037D01*
X0285269Y0276804D02*
X0282200Y0272200D01*
X0286804Y0272200D02*
X0289873Y0272200D01*
X0094300Y0118165D02*
X0094300Y0115096D01*
X0091231Y0118165D01*
X0090463Y0118165D01*
X0089696Y0117398D01*
X0089696Y0115863D01*
X0090463Y0115096D01*
X0090463Y0113561D02*
X0089696Y0112794D01*
X0089696Y0111259D01*
X0090463Y0110492D01*
X0093533Y0110492D01*
X0094300Y0111259D01*
X0094300Y0112794D01*
X0093533Y0113561D01*
X0086800Y0112200D02*
X0082196Y0112200D01*
X0082196Y0114502D01*
X0082963Y0115269D01*
X0084498Y0115269D01*
X0085265Y0114502D01*
X0085265Y0112200D01*
X0085265Y0113735D02*
X0086800Y0115269D01*
X0086800Y0116804D02*
X0086800Y0119873D01*
X0086800Y0118339D02*
X0082196Y0118339D01*
X0083731Y0116804D01*
X0083731Y0121408D02*
X0082963Y0121408D01*
X0082196Y0122175D01*
X0082196Y0123710D01*
X0082963Y0124477D01*
X0086033Y0124477D01*
X0086800Y0123710D01*
X0086800Y0122175D01*
X0086033Y0121408D01*
X0084498Y0122175D02*
X0084498Y0124477D01*
X0084498Y0122175D02*
X0083731Y0121408D01*
X0046800Y0117398D02*
X0046800Y0115863D01*
X0046033Y0115096D01*
X0046033Y0113561D02*
X0046800Y0112794D01*
X0046800Y0111259D01*
X0046033Y0110492D01*
X0042963Y0110492D01*
X0042196Y0111259D01*
X0042196Y0112794D01*
X0042963Y0113561D01*
X0042963Y0115096D02*
X0042196Y0115863D01*
X0042196Y0117398D01*
X0042963Y0118165D01*
X0043731Y0118165D01*
X0044498Y0117398D01*
X0045265Y0118165D01*
X0046033Y0118165D01*
X0046800Y0117398D01*
X0044498Y0117398D02*
X0044498Y0116631D01*
X0039300Y0116804D02*
X0036231Y0119873D01*
X0035463Y0119873D01*
X0034696Y0119106D01*
X0034696Y0117571D01*
X0035463Y0116804D01*
X0035463Y0115269D02*
X0036998Y0115269D01*
X0037765Y0114502D01*
X0037765Y0112200D01*
X0037765Y0113735D02*
X0039300Y0115269D01*
X0039300Y0116804D02*
X0039300Y0119873D01*
X0039300Y0121408D02*
X0036231Y0124477D01*
X0035463Y0124477D01*
X0034696Y0123710D01*
X0034696Y0122175D01*
X0035463Y0121408D01*
X0039300Y0121408D02*
X0039300Y0124477D01*
X0035463Y0115269D02*
X0034696Y0114502D01*
X0034696Y0112200D01*
X0039300Y0112200D01*
X0082196Y0086210D02*
X0082963Y0086977D01*
X0086033Y0083908D01*
X0086800Y0084675D01*
X0086800Y0086210D01*
X0086033Y0086977D01*
X0082963Y0086977D01*
X0082196Y0086210D02*
X0082196Y0084675D01*
X0082963Y0083908D01*
X0086033Y0083908D01*
X0086800Y0082373D02*
X0086800Y0079304D01*
X0083731Y0082373D01*
X0082963Y0082373D01*
X0082196Y0081606D01*
X0082196Y0080071D01*
X0082963Y0079304D01*
X0082963Y0077769D02*
X0084498Y0077769D01*
X0085265Y0077002D01*
X0085265Y0074700D01*
X0085265Y0076235D02*
X0086800Y0077769D01*
X0089696Y0077794D02*
X0089696Y0076259D01*
X0090463Y0075492D01*
X0093533Y0075492D01*
X0094300Y0076259D01*
X0094300Y0077794D01*
X0093533Y0078561D01*
X0094300Y0080096D02*
X0094300Y0083165D01*
X0094300Y0081631D02*
X0089696Y0081631D01*
X0091231Y0080096D01*
X0090463Y0078561D02*
X0089696Y0077794D01*
X0086800Y0074700D02*
X0082196Y0074700D01*
X0082196Y0077002D01*
X0082963Y0077769D01*
X0024300Y0064898D02*
X0019696Y0064898D01*
X0021998Y0062596D01*
X0021998Y0065665D01*
X0020463Y0061061D02*
X0019696Y0060294D01*
X0019696Y0058759D01*
X0020463Y0057992D01*
X0023533Y0057992D01*
X0024300Y0058759D01*
X0024300Y0060294D01*
X0023533Y0061061D01*
X0016800Y0059700D02*
X0012196Y0059700D01*
X0012196Y0062002D01*
X0012963Y0062769D01*
X0014498Y0062769D01*
X0015265Y0062002D01*
X0015265Y0059700D01*
X0015265Y0061235D02*
X0016800Y0062769D01*
X0016800Y0064304D02*
X0013731Y0067373D01*
X0012963Y0067373D01*
X0012196Y0066606D01*
X0012196Y0065071D01*
X0012963Y0064304D01*
X0016800Y0064304D02*
X0016800Y0067373D01*
X0016800Y0068908D02*
X0016800Y0071977D01*
X0016800Y0070442D02*
X0012196Y0070442D01*
X0013731Y0068908D01*
X0192328Y0014231D02*
X0193096Y0013463D01*
X0193863Y0013463D01*
X0194630Y0014231D01*
X0194630Y0018067D01*
X0193863Y0018067D02*
X0195398Y0018067D01*
X0196932Y0017300D02*
X0197700Y0018067D01*
X0199234Y0018067D01*
X0200002Y0017300D01*
X0200002Y0016533D01*
X0196932Y0013463D01*
X0200002Y0013463D01*
X0202328Y0014231D02*
X0203096Y0013463D01*
X0203863Y0013463D01*
X0204630Y0014231D01*
X0204630Y0018067D01*
X0203863Y0018067D02*
X0205398Y0018067D01*
X0206932Y0016533D02*
X0208467Y0018067D01*
X0208467Y0013463D01*
X0206932Y0013463D02*
X0210002Y0013463D01*
X0027433Y0240949D02*
X0028300Y0241816D01*
X0028300Y0243551D01*
X0027433Y0244418D01*
X0023963Y0244418D01*
X0023096Y0243551D01*
X0023096Y0241816D01*
X0023963Y0240949D01*
X0027433Y0240949D01*
X0019900Y0242684D02*
X0018165Y0244418D01*
X0014696Y0244418D01*
X0016430Y0246973D02*
X0016430Y0248707D01*
X0017298Y0249575D01*
X0018165Y0249575D01*
X0018165Y0246105D01*
X0017298Y0246105D02*
X0016430Y0246973D01*
X0017298Y0246105D02*
X0019033Y0246105D01*
X0019900Y0246973D01*
X0019900Y0248707D01*
X0019900Y0251262D02*
X0016430Y0251262D01*
X0016430Y0252996D02*
X0016430Y0253864D01*
X0016430Y0252996D02*
X0018165Y0251262D01*
X0019033Y0255559D02*
X0019033Y0256426D01*
X0019900Y0256426D01*
X0019900Y0255559D01*
X0019033Y0255559D01*
X0023963Y0251270D02*
X0027433Y0251270D01*
X0028300Y0252137D01*
X0028300Y0253840D02*
X0028300Y0254707D01*
X0027433Y0254707D01*
X0027433Y0253840D01*
X0028300Y0253840D01*
X0024830Y0252137D02*
X0024830Y0250402D01*
X0024830Y0248707D02*
X0026565Y0246105D01*
X0028300Y0248707D01*
X0028300Y0246105D02*
X0023096Y0246105D01*
X0019900Y0242684D02*
X0018165Y0240949D01*
X0014696Y0240949D01*
X0016430Y0263293D02*
X0014696Y0265028D01*
X0019900Y0265028D01*
X0019900Y0263293D02*
X0019900Y0266763D01*
X0019900Y0268450D02*
X0019033Y0268450D01*
X0019033Y0269317D01*
X0019900Y0269317D01*
X0019900Y0268450D01*
X0019033Y0271028D02*
X0019900Y0271895D01*
X0019900Y0273630D01*
X0019033Y0274497D01*
X0015563Y0274497D01*
X0019033Y0271028D01*
X0015563Y0271028D01*
X0014696Y0271895D01*
X0014696Y0273630D01*
X0015563Y0274497D01*
X0023096Y0273622D02*
X0028300Y0273622D01*
X0028300Y0271887D02*
X0028300Y0275357D01*
X0028300Y0277044D02*
X0027433Y0277044D01*
X0023963Y0280513D01*
X0023096Y0280513D01*
X0023096Y0277044D01*
X0023096Y0273622D02*
X0024830Y0271887D01*
X0023963Y0270200D02*
X0023096Y0269333D01*
X0023096Y0267598D01*
X0023963Y0266731D01*
X0027433Y0266731D01*
X0023963Y0270200D01*
X0027433Y0270200D01*
X0028300Y0269333D01*
X0028300Y0267598D01*
X0027433Y0266731D01*
X0028300Y0265044D02*
X0028300Y0261574D01*
X0024830Y0265044D01*
X0023963Y0265044D01*
X0023096Y0264177D01*
X0023096Y0262442D01*
X0023963Y0261574D01*
D14*
X0186350Y0229655D02*
X0188452Y0229655D01*
X0187401Y0229655D02*
X0187401Y0223350D01*
X0186350Y0223350D02*
X0188452Y0223350D01*
X0190647Y0224401D02*
X0191698Y0223350D01*
X0193800Y0223350D01*
X0194851Y0224401D01*
X0197092Y0223350D02*
X0201296Y0223350D01*
X0199194Y0223350D02*
X0199194Y0229655D01*
X0197092Y0227554D01*
X0194851Y0228604D02*
X0193800Y0229655D01*
X0191698Y0229655D01*
X0190647Y0228604D01*
X0190647Y0224401D01*
D15*
X0112500Y0224500D02*
X0096500Y0224500D01*
X0096500Y0244500D01*
X0112500Y0244500D01*
X0112500Y0224500D01*
X0098250Y0242000D02*
X0098252Y0242070D01*
X0098258Y0242140D01*
X0098268Y0242209D01*
X0098281Y0242278D01*
X0098299Y0242346D01*
X0098320Y0242413D01*
X0098345Y0242478D01*
X0098374Y0242542D01*
X0098406Y0242605D01*
X0098442Y0242665D01*
X0098481Y0242723D01*
X0098523Y0242779D01*
X0098568Y0242833D01*
X0098616Y0242884D01*
X0098667Y0242932D01*
X0098721Y0242977D01*
X0098777Y0243019D01*
X0098835Y0243058D01*
X0098895Y0243094D01*
X0098958Y0243126D01*
X0099022Y0243155D01*
X0099087Y0243180D01*
X0099154Y0243201D01*
X0099222Y0243219D01*
X0099291Y0243232D01*
X0099360Y0243242D01*
X0099430Y0243248D01*
X0099500Y0243250D01*
X0099570Y0243248D01*
X0099640Y0243242D01*
X0099709Y0243232D01*
X0099778Y0243219D01*
X0099846Y0243201D01*
X0099913Y0243180D01*
X0099978Y0243155D01*
X0100042Y0243126D01*
X0100105Y0243094D01*
X0100165Y0243058D01*
X0100223Y0243019D01*
X0100279Y0242977D01*
X0100333Y0242932D01*
X0100384Y0242884D01*
X0100432Y0242833D01*
X0100477Y0242779D01*
X0100519Y0242723D01*
X0100558Y0242665D01*
X0100594Y0242605D01*
X0100626Y0242542D01*
X0100655Y0242478D01*
X0100680Y0242413D01*
X0100701Y0242346D01*
X0100719Y0242278D01*
X0100732Y0242209D01*
X0100742Y0242140D01*
X0100748Y0242070D01*
X0100750Y0242000D01*
X0100748Y0241930D01*
X0100742Y0241860D01*
X0100732Y0241791D01*
X0100719Y0241722D01*
X0100701Y0241654D01*
X0100680Y0241587D01*
X0100655Y0241522D01*
X0100626Y0241458D01*
X0100594Y0241395D01*
X0100558Y0241335D01*
X0100519Y0241277D01*
X0100477Y0241221D01*
X0100432Y0241167D01*
X0100384Y0241116D01*
X0100333Y0241068D01*
X0100279Y0241023D01*
X0100223Y0240981D01*
X0100165Y0240942D01*
X0100105Y0240906D01*
X0100042Y0240874D01*
X0099978Y0240845D01*
X0099913Y0240820D01*
X0099846Y0240799D01*
X0099778Y0240781D01*
X0099709Y0240768D01*
X0099640Y0240758D01*
X0099570Y0240752D01*
X0099500Y0240750D01*
X0099430Y0240752D01*
X0099360Y0240758D01*
X0099291Y0240768D01*
X0099222Y0240781D01*
X0099154Y0240799D01*
X0099087Y0240820D01*
X0099022Y0240845D01*
X0098958Y0240874D01*
X0098895Y0240906D01*
X0098835Y0240942D01*
X0098777Y0240981D01*
X0098721Y0241023D01*
X0098667Y0241068D01*
X0098616Y0241116D01*
X0098568Y0241167D01*
X0098523Y0241221D01*
X0098481Y0241277D01*
X0098442Y0241335D01*
X0098406Y0241395D01*
X0098374Y0241458D01*
X0098345Y0241522D01*
X0098320Y0241587D01*
X0098299Y0241654D01*
X0098281Y0241722D01*
X0098268Y0241791D01*
X0098258Y0241860D01*
X0098252Y0241930D01*
X0098250Y0242000D01*
X0184997Y0139649D02*
X0184246Y0138898D01*
X0184246Y0137397D01*
X0184997Y0136646D01*
X0185747Y0135045D02*
X0188750Y0135045D01*
X0188750Y0136646D02*
X0185747Y0139649D01*
X0184997Y0139649D01*
X0188750Y0139649D02*
X0188750Y0136646D01*
X0186498Y0135045D02*
X0186498Y0132042D01*
X0185747Y0132042D02*
X0184246Y0133543D01*
X0185747Y0135045D01*
X0185747Y0132042D02*
X0188750Y0132042D01*
X0201746Y0133543D02*
X0203247Y0135045D01*
X0206250Y0135045D01*
X0206250Y0136646D02*
X0206250Y0139649D01*
X0206250Y0138147D02*
X0201746Y0138147D01*
X0203247Y0136646D01*
X0203998Y0135045D02*
X0203998Y0132042D01*
X0203247Y0132042D02*
X0201746Y0133543D01*
X0203247Y0132042D02*
X0206250Y0132042D01*
X0219246Y0133543D02*
X0220747Y0135045D01*
X0223750Y0135045D01*
X0222999Y0136646D02*
X0219997Y0139649D01*
X0222999Y0139649D01*
X0223750Y0138898D01*
X0223750Y0137397D01*
X0222999Y0136646D01*
X0219997Y0136646D01*
X0219246Y0137397D01*
X0219246Y0138898D01*
X0219997Y0139649D01*
X0221498Y0135045D02*
X0221498Y0132042D01*
X0220747Y0132042D02*
X0219246Y0133543D01*
X0220747Y0132042D02*
X0223750Y0132042D01*
X0211547Y0044224D02*
X0211547Y0008004D01*
X0372453Y0008004D01*
X0372453Y0044224D01*
X0211547Y0044224D01*
X0187453Y0044224D02*
X0026547Y0044224D01*
X0026547Y0008004D01*
X0187453Y0008004D01*
X0187453Y0044224D01*
D16*
X0129366Y0072950D02*
X0126230Y0076086D01*
X0126230Y0074518D02*
X0129366Y0074518D01*
X0129366Y0076086D02*
X0126230Y0072950D01*
X0127798Y0072950D02*
X0127798Y0076086D01*
X0100486Y0108234D02*
X0097350Y0111370D01*
X0098918Y0111370D02*
X0098918Y0108234D01*
X0097350Y0108234D02*
X0100486Y0111370D01*
X0100486Y0109802D02*
X0097350Y0109802D01*
X0070486Y0088870D02*
X0067350Y0085734D01*
X0067350Y0087302D02*
X0070486Y0087302D01*
X0070486Y0085734D02*
X0067350Y0088870D01*
X0068918Y0088870D02*
X0068918Y0085734D01*
X0052986Y0108234D02*
X0049850Y0111370D01*
X0051418Y0111370D02*
X0051418Y0108234D01*
X0049850Y0108234D02*
X0052986Y0111370D01*
X0052986Y0109802D02*
X0049850Y0109802D01*
X0030486Y0088870D02*
X0027350Y0085734D01*
X0027350Y0087302D02*
X0030486Y0087302D01*
X0030486Y0085734D02*
X0027350Y0088870D01*
X0028918Y0088870D02*
X0028918Y0085734D01*
X0266230Y0076086D02*
X0269366Y0072950D01*
X0267798Y0072950D02*
X0267798Y0076086D01*
X0269366Y0076086D02*
X0266230Y0072950D01*
X0266230Y0074518D02*
X0269366Y0074518D01*
D17*
X0261600Y0082534D02*
X0261600Y0085003D01*
X0260366Y0086238D01*
X0254194Y0086238D01*
X0255428Y0088850D02*
X0254194Y0090085D01*
X0254194Y0092554D01*
X0255428Y0093788D01*
X0256662Y0093788D01*
X0261600Y0088850D01*
X0261600Y0093788D01*
X0261600Y0082534D02*
X0260366Y0081300D01*
X0254194Y0081300D01*
X0121600Y0082534D02*
X0121600Y0085003D01*
X0120366Y0086238D01*
X0114194Y0086238D01*
X0115428Y0088850D02*
X0114194Y0090085D01*
X0114194Y0092554D01*
X0115428Y0093788D01*
X0116662Y0093788D01*
X0117897Y0092554D01*
X0119131Y0093788D01*
X0120366Y0093788D01*
X0121600Y0092554D01*
X0121600Y0090085D01*
X0120366Y0088850D01*
X0117897Y0091319D02*
X0117897Y0092554D01*
X0121600Y0082534D02*
X0120366Y0081300D01*
X0114194Y0081300D01*
X0103000Y0083685D02*
X0101766Y0082450D01*
X0103000Y0083685D02*
X0103000Y0086154D01*
X0101766Y0087388D01*
X0099297Y0087388D01*
X0098062Y0086154D01*
X0098062Y0084919D01*
X0099297Y0082450D01*
X0095594Y0082450D01*
X0095594Y0087388D01*
X0095594Y0079838D02*
X0101766Y0079838D01*
X0103000Y0078603D01*
X0103000Y0076134D01*
X0101766Y0074900D01*
X0095594Y0074900D01*
X0098094Y0112400D02*
X0104266Y0112400D01*
X0105500Y0113634D01*
X0105500Y0116103D01*
X0104266Y0117338D01*
X0098094Y0117338D01*
X0101797Y0119950D02*
X0098094Y0123654D01*
X0105500Y0123654D01*
X0101797Y0124888D02*
X0101797Y0119950D01*
X0060500Y0121185D02*
X0060500Y0123654D01*
X0059266Y0124888D01*
X0058031Y0124888D01*
X0056797Y0123654D01*
X0056797Y0119950D01*
X0059266Y0119950D01*
X0060500Y0121185D01*
X0056797Y0119950D02*
X0054328Y0122419D01*
X0053094Y0124888D01*
X0053094Y0117338D02*
X0059266Y0117338D01*
X0060500Y0116103D01*
X0060500Y0113634D01*
X0059266Y0112400D01*
X0053094Y0112400D01*
X0031828Y0072388D02*
X0030594Y0072388D01*
X0030594Y0067450D01*
X0030594Y0064838D02*
X0036766Y0064838D01*
X0038000Y0063603D01*
X0038000Y0061134D01*
X0036766Y0059900D01*
X0030594Y0059900D01*
X0036766Y0067450D02*
X0038000Y0067450D01*
X0036766Y0067450D02*
X0031828Y0072388D01*
D18*
X0078772Y0257453D02*
X0078772Y0271961D01*
X0078772Y0287453D02*
X0078772Y0319461D01*
X0125228Y0319461D01*
X0125228Y0287453D01*
X0125228Y0271961D02*
X0125228Y0257453D01*
X0078772Y0257453D01*
X0155366Y0263319D02*
X0213634Y0263319D01*
X0213634Y0319618D01*
X0155366Y0319618D01*
X0155366Y0263319D01*
X0254717Y0305012D02*
X0254717Y0312098D01*
X0254717Y0305012D02*
X0254805Y0304879D01*
X0254896Y0304748D01*
X0254990Y0304619D01*
X0255088Y0304492D01*
X0255188Y0304368D01*
X0255292Y0304247D01*
X0255398Y0304128D01*
X0255508Y0304011D01*
X0255620Y0303897D01*
X0255735Y0303786D01*
X0255852Y0303678D01*
X0255972Y0303573D01*
X0256095Y0303471D01*
X0256220Y0303372D01*
X0256348Y0303276D01*
X0256478Y0303183D01*
X0256610Y0303093D01*
X0256744Y0303006D01*
X0256880Y0302923D01*
X0257019Y0302843D01*
X0257159Y0302766D01*
X0257301Y0302693D01*
X0257444Y0302624D01*
X0257590Y0302558D01*
X0257737Y0302495D01*
X0257885Y0302436D01*
X0258035Y0302381D01*
X0258186Y0302329D01*
X0258339Y0302281D01*
X0258492Y0302237D01*
X0258647Y0302197D01*
X0258802Y0302160D01*
X0258958Y0302127D01*
X0259115Y0302098D01*
X0259273Y0302073D01*
X0259431Y0302052D01*
X0259590Y0302034D01*
X0259749Y0302021D01*
X0259909Y0302011D01*
X0260068Y0302005D01*
X0260228Y0302003D01*
X0260388Y0302005D01*
X0260547Y0302011D01*
X0260707Y0302021D01*
X0260866Y0302034D01*
X0261025Y0302052D01*
X0261183Y0302073D01*
X0261341Y0302098D01*
X0261498Y0302127D01*
X0261654Y0302160D01*
X0261809Y0302197D01*
X0261964Y0302237D01*
X0262117Y0302281D01*
X0262270Y0302329D01*
X0262421Y0302381D01*
X0262571Y0302436D01*
X0262719Y0302495D01*
X0262866Y0302558D01*
X0263012Y0302624D01*
X0263155Y0302693D01*
X0263297Y0302766D01*
X0263437Y0302843D01*
X0263576Y0302923D01*
X0263712Y0303006D01*
X0263846Y0303093D01*
X0263978Y0303183D01*
X0264108Y0303276D01*
X0264236Y0303372D01*
X0264361Y0303471D01*
X0264484Y0303573D01*
X0264604Y0303678D01*
X0264721Y0303786D01*
X0264836Y0303897D01*
X0264948Y0304011D01*
X0265058Y0304128D01*
X0265164Y0304247D01*
X0265268Y0304368D01*
X0265368Y0304492D01*
X0265466Y0304619D01*
X0265560Y0304748D01*
X0265651Y0304879D01*
X0265739Y0305012D01*
X0265346Y0304618D02*
X0268102Y0304618D01*
X0268102Y0312492D02*
X0265346Y0312492D01*
X0268496Y0317217D02*
X0268496Y0280209D01*
X0305504Y0280209D01*
X0305504Y0286508D01*
X0305596Y0286510D01*
X0305688Y0286516D01*
X0305779Y0286526D01*
X0305870Y0286539D01*
X0305960Y0286557D01*
X0306050Y0286578D01*
X0306138Y0286603D01*
X0306225Y0286632D01*
X0306311Y0286664D01*
X0306396Y0286700D01*
X0306479Y0286740D01*
X0306560Y0286783D01*
X0306639Y0286829D01*
X0306716Y0286879D01*
X0306791Y0286932D01*
X0306864Y0286989D01*
X0306934Y0287048D01*
X0307002Y0287110D01*
X0307067Y0287175D01*
X0307129Y0287243D01*
X0307188Y0287313D01*
X0307245Y0287386D01*
X0307298Y0287461D01*
X0307348Y0287538D01*
X0307394Y0287617D01*
X0307437Y0287698D01*
X0307477Y0287781D01*
X0307513Y0287866D01*
X0307545Y0287952D01*
X0307574Y0288039D01*
X0307599Y0288127D01*
X0307620Y0288217D01*
X0307638Y0288307D01*
X0307651Y0288398D01*
X0307661Y0288489D01*
X0307667Y0288581D01*
X0307669Y0288673D01*
X0307667Y0288765D01*
X0307661Y0288857D01*
X0307651Y0288948D01*
X0307638Y0289039D01*
X0307620Y0289129D01*
X0307599Y0289219D01*
X0307574Y0289307D01*
X0307545Y0289394D01*
X0307513Y0289480D01*
X0307477Y0289565D01*
X0307437Y0289648D01*
X0307394Y0289729D01*
X0307348Y0289808D01*
X0307298Y0289885D01*
X0307245Y0289960D01*
X0307188Y0290033D01*
X0307129Y0290103D01*
X0307067Y0290171D01*
X0307002Y0290236D01*
X0306934Y0290298D01*
X0306864Y0290357D01*
X0306791Y0290414D01*
X0306716Y0290467D01*
X0306639Y0290517D01*
X0306560Y0290563D01*
X0306479Y0290606D01*
X0306396Y0290646D01*
X0306311Y0290682D01*
X0306225Y0290714D01*
X0306138Y0290743D01*
X0306050Y0290768D01*
X0305960Y0290789D01*
X0305870Y0290807D01*
X0305779Y0290820D01*
X0305688Y0290830D01*
X0305596Y0290836D01*
X0305504Y0290838D01*
X0305504Y0290839D02*
X0305504Y0317217D01*
X0268496Y0317217D01*
X0265739Y0312098D02*
X0265651Y0312231D01*
X0265560Y0312362D01*
X0265466Y0312491D01*
X0265368Y0312618D01*
X0265268Y0312742D01*
X0265164Y0312863D01*
X0265058Y0312982D01*
X0264948Y0313099D01*
X0264836Y0313213D01*
X0264721Y0313324D01*
X0264604Y0313432D01*
X0264484Y0313537D01*
X0264361Y0313639D01*
X0264236Y0313738D01*
X0264108Y0313834D01*
X0263978Y0313927D01*
X0263846Y0314017D01*
X0263712Y0314104D01*
X0263576Y0314187D01*
X0263437Y0314267D01*
X0263297Y0314344D01*
X0263155Y0314417D01*
X0263012Y0314486D01*
X0262866Y0314552D01*
X0262719Y0314615D01*
X0262571Y0314674D01*
X0262421Y0314729D01*
X0262270Y0314781D01*
X0262117Y0314829D01*
X0261964Y0314873D01*
X0261809Y0314913D01*
X0261654Y0314950D01*
X0261498Y0314983D01*
X0261341Y0315012D01*
X0261183Y0315037D01*
X0261025Y0315058D01*
X0260866Y0315076D01*
X0260707Y0315089D01*
X0260547Y0315099D01*
X0260388Y0315105D01*
X0260228Y0315107D01*
X0260068Y0315105D01*
X0259909Y0315099D01*
X0259749Y0315089D01*
X0259590Y0315076D01*
X0259431Y0315058D01*
X0259273Y0315037D01*
X0259115Y0315012D01*
X0258958Y0314983D01*
X0258802Y0314950D01*
X0258647Y0314913D01*
X0258492Y0314873D01*
X0258339Y0314829D01*
X0258186Y0314781D01*
X0258035Y0314729D01*
X0257885Y0314674D01*
X0257737Y0314615D01*
X0257590Y0314552D01*
X0257444Y0314486D01*
X0257301Y0314417D01*
X0257159Y0314344D01*
X0257019Y0314267D01*
X0256880Y0314187D01*
X0256744Y0314104D01*
X0256610Y0314017D01*
X0256478Y0313927D01*
X0256348Y0313834D01*
X0256220Y0313738D01*
X0256095Y0313639D01*
X0255972Y0313537D01*
X0255852Y0313432D01*
X0255735Y0313324D01*
X0255620Y0313213D01*
X0255508Y0313099D01*
X0255398Y0312982D01*
X0255292Y0312863D01*
X0255188Y0312742D01*
X0255088Y0312618D01*
X0254990Y0312491D01*
X0254896Y0312362D01*
X0254805Y0312231D01*
X0254717Y0312098D01*
X0305898Y0312492D02*
X0308654Y0312492D01*
X0308261Y0305012D02*
X0308349Y0304879D01*
X0308440Y0304748D01*
X0308534Y0304619D01*
X0308632Y0304492D01*
X0308732Y0304368D01*
X0308836Y0304247D01*
X0308942Y0304128D01*
X0309052Y0304011D01*
X0309164Y0303897D01*
X0309279Y0303786D01*
X0309396Y0303678D01*
X0309516Y0303573D01*
X0309639Y0303471D01*
X0309764Y0303372D01*
X0309892Y0303276D01*
X0310022Y0303183D01*
X0310154Y0303093D01*
X0310288Y0303006D01*
X0310424Y0302923D01*
X0310563Y0302843D01*
X0310703Y0302766D01*
X0310845Y0302693D01*
X0310988Y0302624D01*
X0311134Y0302558D01*
X0311281Y0302495D01*
X0311429Y0302436D01*
X0311579Y0302381D01*
X0311730Y0302329D01*
X0311883Y0302281D01*
X0312036Y0302237D01*
X0312191Y0302197D01*
X0312346Y0302160D01*
X0312502Y0302127D01*
X0312659Y0302098D01*
X0312817Y0302073D01*
X0312975Y0302052D01*
X0313134Y0302034D01*
X0313293Y0302021D01*
X0313453Y0302011D01*
X0313612Y0302005D01*
X0313772Y0302003D01*
X0313932Y0302005D01*
X0314091Y0302011D01*
X0314251Y0302021D01*
X0314410Y0302034D01*
X0314569Y0302052D01*
X0314727Y0302073D01*
X0314885Y0302098D01*
X0315042Y0302127D01*
X0315198Y0302160D01*
X0315353Y0302197D01*
X0315508Y0302237D01*
X0315661Y0302281D01*
X0315814Y0302329D01*
X0315965Y0302381D01*
X0316115Y0302436D01*
X0316263Y0302495D01*
X0316410Y0302558D01*
X0316556Y0302624D01*
X0316699Y0302693D01*
X0316841Y0302766D01*
X0316981Y0302843D01*
X0317120Y0302923D01*
X0317256Y0303006D01*
X0317390Y0303093D01*
X0317522Y0303183D01*
X0317652Y0303276D01*
X0317780Y0303372D01*
X0317905Y0303471D01*
X0318028Y0303573D01*
X0318148Y0303678D01*
X0318265Y0303786D01*
X0318380Y0303897D01*
X0318492Y0304011D01*
X0318602Y0304128D01*
X0318708Y0304247D01*
X0318812Y0304368D01*
X0318912Y0304492D01*
X0319010Y0304619D01*
X0319104Y0304748D01*
X0319195Y0304879D01*
X0319283Y0305012D01*
X0319283Y0312098D01*
X0319195Y0312231D01*
X0319104Y0312362D01*
X0319010Y0312491D01*
X0318912Y0312618D01*
X0318812Y0312742D01*
X0318708Y0312863D01*
X0318602Y0312982D01*
X0318492Y0313099D01*
X0318380Y0313213D01*
X0318265Y0313324D01*
X0318148Y0313432D01*
X0318028Y0313537D01*
X0317905Y0313639D01*
X0317780Y0313738D01*
X0317652Y0313834D01*
X0317522Y0313927D01*
X0317390Y0314017D01*
X0317256Y0314104D01*
X0317120Y0314187D01*
X0316981Y0314267D01*
X0316841Y0314344D01*
X0316699Y0314417D01*
X0316556Y0314486D01*
X0316410Y0314552D01*
X0316263Y0314615D01*
X0316115Y0314674D01*
X0315965Y0314729D01*
X0315814Y0314781D01*
X0315661Y0314829D01*
X0315508Y0314873D01*
X0315353Y0314913D01*
X0315198Y0314950D01*
X0315042Y0314983D01*
X0314885Y0315012D01*
X0314727Y0315037D01*
X0314569Y0315058D01*
X0314410Y0315076D01*
X0314251Y0315089D01*
X0314091Y0315099D01*
X0313932Y0315105D01*
X0313772Y0315107D01*
X0313612Y0315105D01*
X0313453Y0315099D01*
X0313293Y0315089D01*
X0313134Y0315076D01*
X0312975Y0315058D01*
X0312817Y0315037D01*
X0312659Y0315012D01*
X0312502Y0314983D01*
X0312346Y0314950D01*
X0312191Y0314913D01*
X0312036Y0314873D01*
X0311883Y0314829D01*
X0311730Y0314781D01*
X0311579Y0314729D01*
X0311429Y0314674D01*
X0311281Y0314615D01*
X0311134Y0314552D01*
X0310988Y0314486D01*
X0310845Y0314417D01*
X0310703Y0314344D01*
X0310563Y0314267D01*
X0310424Y0314187D01*
X0310288Y0314104D01*
X0310154Y0314017D01*
X0310022Y0313927D01*
X0309892Y0313834D01*
X0309764Y0313738D01*
X0309639Y0313639D01*
X0309516Y0313537D01*
X0309396Y0313432D01*
X0309279Y0313324D01*
X0309164Y0313213D01*
X0309052Y0313099D01*
X0308942Y0312982D01*
X0308836Y0312863D01*
X0308732Y0312742D01*
X0308632Y0312618D01*
X0308534Y0312491D01*
X0308440Y0312362D01*
X0308349Y0312231D01*
X0308261Y0312098D01*
X0308654Y0304618D02*
X0305898Y0304618D01*
D19*
X0199598Y0283831D02*
X0199598Y0275957D01*
X0197138Y0275957D01*
X0194185Y0275957D01*
X0194185Y0275956D02*
X0194098Y0275958D01*
X0194011Y0275964D01*
X0193924Y0275973D01*
X0193838Y0275987D01*
X0193753Y0276004D01*
X0193668Y0276025D01*
X0193585Y0276050D01*
X0193502Y0276078D01*
X0193421Y0276110D01*
X0193342Y0276146D01*
X0193264Y0276185D01*
X0193188Y0276227D01*
X0193114Y0276273D01*
X0193042Y0276322D01*
X0192972Y0276374D01*
X0192905Y0276429D01*
X0192840Y0276487D01*
X0192777Y0276548D01*
X0192718Y0276612D01*
X0192661Y0276678D01*
X0192608Y0276747D01*
X0192557Y0276818D01*
X0192510Y0276891D01*
X0192465Y0276966D01*
X0192425Y0277043D01*
X0192387Y0277121D01*
X0192354Y0277202D01*
X0192323Y0277283D01*
X0192297Y0277366D01*
X0192274Y0277451D01*
X0192255Y0277536D01*
X0192240Y0277621D01*
X0192228Y0277708D01*
X0192220Y0277794D01*
X0192216Y0277881D01*
X0192216Y0277969D01*
X0192220Y0278056D01*
X0192228Y0278142D01*
X0192240Y0278229D01*
X0192255Y0278314D01*
X0192274Y0278399D01*
X0192297Y0278484D01*
X0192323Y0278567D01*
X0192354Y0278648D01*
X0192387Y0278729D01*
X0192425Y0278807D01*
X0192465Y0278884D01*
X0192510Y0278959D01*
X0192557Y0279032D01*
X0192608Y0279103D01*
X0192661Y0279172D01*
X0192718Y0279238D01*
X0192777Y0279302D01*
X0192840Y0279363D01*
X0192905Y0279421D01*
X0192972Y0279476D01*
X0193042Y0279528D01*
X0193114Y0279577D01*
X0193188Y0279623D01*
X0193264Y0279665D01*
X0193342Y0279704D01*
X0193421Y0279740D01*
X0193502Y0279772D01*
X0193585Y0279800D01*
X0193668Y0279825D01*
X0193753Y0279846D01*
X0193838Y0279863D01*
X0193924Y0279877D01*
X0194011Y0279886D01*
X0194098Y0279892D01*
X0194185Y0279894D01*
X0194185Y0279893D02*
X0194098Y0279895D01*
X0194011Y0279901D01*
X0193924Y0279910D01*
X0193838Y0279924D01*
X0193753Y0279941D01*
X0193668Y0279962D01*
X0193585Y0279987D01*
X0193502Y0280015D01*
X0193421Y0280047D01*
X0193342Y0280083D01*
X0193264Y0280122D01*
X0193188Y0280164D01*
X0193114Y0280210D01*
X0193042Y0280259D01*
X0192972Y0280311D01*
X0192905Y0280366D01*
X0192840Y0280424D01*
X0192777Y0280485D01*
X0192718Y0280549D01*
X0192661Y0280615D01*
X0192608Y0280684D01*
X0192557Y0280755D01*
X0192510Y0280828D01*
X0192465Y0280903D01*
X0192425Y0280980D01*
X0192387Y0281058D01*
X0192354Y0281139D01*
X0192323Y0281220D01*
X0192297Y0281303D01*
X0192274Y0281388D01*
X0192255Y0281473D01*
X0192240Y0281558D01*
X0192228Y0281645D01*
X0192220Y0281731D01*
X0192216Y0281818D01*
X0192216Y0281906D01*
X0192220Y0281993D01*
X0192228Y0282079D01*
X0192240Y0282166D01*
X0192255Y0282251D01*
X0192274Y0282336D01*
X0192297Y0282421D01*
X0192323Y0282504D01*
X0192354Y0282585D01*
X0192387Y0282666D01*
X0192425Y0282744D01*
X0192465Y0282821D01*
X0192510Y0282896D01*
X0192557Y0282969D01*
X0192608Y0283040D01*
X0192661Y0283109D01*
X0192718Y0283175D01*
X0192777Y0283239D01*
X0192840Y0283300D01*
X0192905Y0283358D01*
X0192972Y0283413D01*
X0193042Y0283465D01*
X0193114Y0283514D01*
X0193188Y0283560D01*
X0193264Y0283602D01*
X0193342Y0283641D01*
X0193421Y0283677D01*
X0193502Y0283709D01*
X0193585Y0283737D01*
X0193668Y0283762D01*
X0193753Y0283783D01*
X0193838Y0283800D01*
X0193924Y0283814D01*
X0194011Y0283823D01*
X0194098Y0283829D01*
X0194185Y0283831D01*
X0197138Y0283831D01*
X0194185Y0281862D01*
X0197138Y0279894D01*
X0194185Y0277925D01*
X0197138Y0275957D01*
X0197138Y0279894D01*
X0197138Y0283831D01*
X0199598Y0283831D01*
X0191232Y0283831D02*
X0191232Y0275957D01*
X0184343Y0275957D01*
X0184343Y0277925D01*
X0188772Y0277925D01*
X0188772Y0278909D01*
X0184343Y0278909D01*
X0184343Y0280878D01*
X0188772Y0280878D01*
X0188772Y0281862D01*
X0184343Y0281862D01*
X0184343Y0283831D01*
X0191232Y0283831D01*
X0183358Y0283831D02*
X0183358Y0275957D01*
X0177945Y0275957D01*
X0179421Y0277925D02*
X0180898Y0277925D01*
X0180898Y0279402D01*
X0179421Y0279402D01*
X0179421Y0279401D02*
X0179368Y0279399D01*
X0179316Y0279393D01*
X0179264Y0279384D01*
X0179213Y0279371D01*
X0179163Y0279354D01*
X0179114Y0279334D01*
X0179067Y0279311D01*
X0179022Y0279284D01*
X0178979Y0279254D01*
X0178938Y0279221D01*
X0178899Y0279185D01*
X0178863Y0279146D01*
X0178830Y0279105D01*
X0178800Y0279062D01*
X0178773Y0279017D01*
X0178750Y0278970D01*
X0178730Y0278921D01*
X0178713Y0278871D01*
X0178700Y0278820D01*
X0178691Y0278768D01*
X0178685Y0278716D01*
X0178683Y0278663D01*
X0178685Y0278610D01*
X0178691Y0278558D01*
X0178700Y0278506D01*
X0178713Y0278455D01*
X0178730Y0278405D01*
X0178750Y0278356D01*
X0178773Y0278309D01*
X0178800Y0278264D01*
X0178830Y0278221D01*
X0178863Y0278180D01*
X0178899Y0278141D01*
X0178938Y0278105D01*
X0178979Y0278072D01*
X0179022Y0278042D01*
X0179067Y0278015D01*
X0179114Y0277992D01*
X0179163Y0277972D01*
X0179213Y0277955D01*
X0179264Y0277942D01*
X0179316Y0277933D01*
X0179368Y0277927D01*
X0179421Y0277925D01*
X0177945Y0275956D02*
X0177847Y0275958D01*
X0177749Y0275964D01*
X0177652Y0275973D01*
X0177555Y0275987D01*
X0177459Y0276004D01*
X0177363Y0276026D01*
X0177269Y0276051D01*
X0177175Y0276079D01*
X0177083Y0276112D01*
X0176992Y0276148D01*
X0176902Y0276188D01*
X0176815Y0276231D01*
X0176729Y0276278D01*
X0176645Y0276328D01*
X0176563Y0276381D01*
X0176483Y0276438D01*
X0176405Y0276497D01*
X0176330Y0276560D01*
X0176257Y0276626D01*
X0176188Y0276694D01*
X0176120Y0276765D01*
X0176056Y0276839D01*
X0175995Y0276916D01*
X0175937Y0276994D01*
X0175882Y0277075D01*
X0175830Y0277158D01*
X0175782Y0277243D01*
X0175737Y0277330D01*
X0175695Y0277419D01*
X0175658Y0277509D01*
X0175623Y0277601D01*
X0175593Y0277694D01*
X0175566Y0277788D01*
X0175543Y0277883D01*
X0175523Y0277979D01*
X0175508Y0278076D01*
X0175496Y0278173D01*
X0175488Y0278270D01*
X0175484Y0278368D01*
X0175484Y0278466D01*
X0175488Y0278564D01*
X0175496Y0278661D01*
X0175508Y0278758D01*
X0175523Y0278855D01*
X0175543Y0278951D01*
X0175566Y0279046D01*
X0175593Y0279140D01*
X0175623Y0279233D01*
X0175658Y0279325D01*
X0175695Y0279415D01*
X0175737Y0279504D01*
X0175782Y0279591D01*
X0175830Y0279676D01*
X0175882Y0279759D01*
X0175937Y0279840D01*
X0175995Y0279918D01*
X0176056Y0279995D01*
X0176120Y0280069D01*
X0176188Y0280140D01*
X0176257Y0280208D01*
X0176330Y0280274D01*
X0176405Y0280337D01*
X0176483Y0280396D01*
X0176563Y0280453D01*
X0176645Y0280506D01*
X0176729Y0280556D01*
X0176815Y0280603D01*
X0176902Y0280646D01*
X0176992Y0280686D01*
X0177083Y0280722D01*
X0177175Y0280755D01*
X0177269Y0280783D01*
X0177363Y0280808D01*
X0177459Y0280830D01*
X0177555Y0280847D01*
X0177652Y0280861D01*
X0177749Y0280870D01*
X0177847Y0280876D01*
X0177945Y0280878D01*
X0175976Y0283831D01*
X0178929Y0283831D01*
X0180898Y0280878D01*
X0180898Y0283831D01*
X0183358Y0283831D01*
X0171055Y0283831D02*
X0171179Y0283829D01*
X0171302Y0283823D01*
X0171426Y0283814D01*
X0171548Y0283800D01*
X0171671Y0283783D01*
X0171793Y0283761D01*
X0171914Y0283736D01*
X0172034Y0283707D01*
X0172153Y0283675D01*
X0172272Y0283638D01*
X0172389Y0283598D01*
X0172504Y0283555D01*
X0172619Y0283507D01*
X0172731Y0283456D01*
X0172842Y0283402D01*
X0172952Y0283344D01*
X0173059Y0283283D01*
X0173165Y0283218D01*
X0173268Y0283150D01*
X0173369Y0283079D01*
X0173468Y0283005D01*
X0173565Y0282928D01*
X0173659Y0282847D01*
X0173750Y0282764D01*
X0173839Y0282678D01*
X0173925Y0282589D01*
X0174008Y0282498D01*
X0174089Y0282404D01*
X0174166Y0282307D01*
X0174240Y0282208D01*
X0174311Y0282107D01*
X0174379Y0282004D01*
X0174444Y0281898D01*
X0174505Y0281791D01*
X0174563Y0281681D01*
X0174617Y0281570D01*
X0174668Y0281458D01*
X0174716Y0281343D01*
X0174759Y0281228D01*
X0174799Y0281111D01*
X0174836Y0280992D01*
X0174868Y0280873D01*
X0174897Y0280753D01*
X0174922Y0280632D01*
X0174944Y0280510D01*
X0174961Y0280387D01*
X0174975Y0280265D01*
X0174984Y0280141D01*
X0174990Y0280018D01*
X0174992Y0279894D01*
X0174990Y0279770D01*
X0174984Y0279647D01*
X0174975Y0279523D01*
X0174961Y0279401D01*
X0174944Y0279278D01*
X0174922Y0279156D01*
X0174897Y0279035D01*
X0174868Y0278915D01*
X0174836Y0278796D01*
X0174799Y0278677D01*
X0174759Y0278560D01*
X0174716Y0278445D01*
X0174668Y0278330D01*
X0174617Y0278218D01*
X0174563Y0278107D01*
X0174505Y0277997D01*
X0174444Y0277890D01*
X0174379Y0277784D01*
X0174311Y0277681D01*
X0174240Y0277580D01*
X0174166Y0277481D01*
X0174089Y0277384D01*
X0174008Y0277290D01*
X0173925Y0277199D01*
X0173839Y0277110D01*
X0173750Y0277024D01*
X0173659Y0276941D01*
X0173565Y0276860D01*
X0173468Y0276783D01*
X0173369Y0276709D01*
X0173268Y0276638D01*
X0173165Y0276570D01*
X0173059Y0276505D01*
X0172952Y0276444D01*
X0172842Y0276386D01*
X0172731Y0276332D01*
X0172619Y0276281D01*
X0172504Y0276233D01*
X0172389Y0276190D01*
X0172272Y0276150D01*
X0172153Y0276113D01*
X0172034Y0276081D01*
X0171914Y0276052D01*
X0171793Y0276027D01*
X0171671Y0276005D01*
X0171548Y0275988D01*
X0171426Y0275974D01*
X0171302Y0275965D01*
X0171179Y0275959D01*
X0171055Y0275957D01*
X0171055Y0283831D02*
X0170840Y0283828D01*
X0170626Y0283819D01*
X0170411Y0283806D01*
X0170197Y0283788D01*
X0169984Y0283765D01*
X0169771Y0283737D01*
X0169559Y0283704D01*
X0169347Y0283666D01*
X0169137Y0283623D01*
X0168928Y0283576D01*
X0168719Y0283524D01*
X0168512Y0283467D01*
X0168307Y0283405D01*
X0168102Y0283339D01*
X0168102Y0279894D01*
X0170071Y0279894D01*
X0170071Y0277925D02*
X0170158Y0277927D01*
X0170245Y0277933D01*
X0170332Y0277942D01*
X0170418Y0277956D01*
X0170503Y0277973D01*
X0170588Y0277994D01*
X0170671Y0278019D01*
X0170754Y0278047D01*
X0170835Y0278079D01*
X0170914Y0278115D01*
X0170992Y0278154D01*
X0171068Y0278196D01*
X0171142Y0278242D01*
X0171214Y0278291D01*
X0171284Y0278343D01*
X0171351Y0278398D01*
X0171416Y0278456D01*
X0171479Y0278517D01*
X0171538Y0278581D01*
X0171595Y0278647D01*
X0171648Y0278716D01*
X0171699Y0278787D01*
X0171746Y0278860D01*
X0171791Y0278935D01*
X0171831Y0279012D01*
X0171869Y0279090D01*
X0171902Y0279171D01*
X0171933Y0279252D01*
X0171959Y0279335D01*
X0171982Y0279420D01*
X0172001Y0279505D01*
X0172016Y0279590D01*
X0172028Y0279677D01*
X0172036Y0279763D01*
X0172040Y0279850D01*
X0172040Y0279938D01*
X0172036Y0280025D01*
X0172028Y0280111D01*
X0172016Y0280198D01*
X0172001Y0280283D01*
X0171982Y0280368D01*
X0171959Y0280453D01*
X0171933Y0280536D01*
X0171902Y0280617D01*
X0171869Y0280698D01*
X0171831Y0280776D01*
X0171791Y0280853D01*
X0171746Y0280928D01*
X0171699Y0281001D01*
X0171648Y0281072D01*
X0171595Y0281141D01*
X0171538Y0281207D01*
X0171479Y0281271D01*
X0171416Y0281332D01*
X0171351Y0281390D01*
X0171284Y0281445D01*
X0171214Y0281497D01*
X0171142Y0281546D01*
X0171068Y0281592D01*
X0170992Y0281634D01*
X0170914Y0281673D01*
X0170835Y0281709D01*
X0170754Y0281741D01*
X0170671Y0281769D01*
X0170588Y0281794D01*
X0170503Y0281815D01*
X0170418Y0281832D01*
X0170332Y0281846D01*
X0170245Y0281855D01*
X0170158Y0281861D01*
X0170071Y0281863D01*
X0170071Y0281862D02*
X0170071Y0279894D01*
X0168122Y0277925D02*
X0168122Y0276173D01*
X0168103Y0277925D02*
X0168281Y0277904D01*
X0168460Y0277886D01*
X0168639Y0277874D01*
X0168818Y0277865D01*
X0168997Y0277861D01*
X0169177Y0277861D01*
X0169356Y0277865D01*
X0169535Y0277874D01*
X0169714Y0277886D01*
X0169893Y0277904D01*
X0170071Y0277925D01*
X0171055Y0275957D02*
X0170721Y0275950D01*
X0170387Y0275950D01*
X0170053Y0275959D01*
X0169720Y0275975D01*
X0169387Y0275999D01*
X0169054Y0276031D01*
X0168723Y0276071D01*
X0168392Y0276118D01*
X0168063Y0276173D01*
X0117098Y0276626D02*
X0114638Y0276626D01*
X0111685Y0276626D01*
X0111685Y0278594D02*
X0114638Y0276626D01*
X0114638Y0280563D01*
X0111685Y0282531D01*
X0111685Y0284500D02*
X0111598Y0284498D01*
X0111511Y0284492D01*
X0111424Y0284483D01*
X0111338Y0284469D01*
X0111253Y0284452D01*
X0111168Y0284431D01*
X0111085Y0284406D01*
X0111002Y0284378D01*
X0110921Y0284346D01*
X0110842Y0284310D01*
X0110764Y0284271D01*
X0110688Y0284229D01*
X0110614Y0284183D01*
X0110542Y0284134D01*
X0110472Y0284082D01*
X0110405Y0284027D01*
X0110340Y0283969D01*
X0110277Y0283908D01*
X0110218Y0283844D01*
X0110161Y0283778D01*
X0110108Y0283709D01*
X0110057Y0283638D01*
X0110010Y0283565D01*
X0109965Y0283490D01*
X0109925Y0283413D01*
X0109887Y0283335D01*
X0109854Y0283254D01*
X0109823Y0283173D01*
X0109797Y0283090D01*
X0109774Y0283005D01*
X0109755Y0282920D01*
X0109740Y0282835D01*
X0109728Y0282748D01*
X0109720Y0282662D01*
X0109716Y0282575D01*
X0109716Y0282487D01*
X0109720Y0282400D01*
X0109728Y0282314D01*
X0109740Y0282227D01*
X0109755Y0282142D01*
X0109774Y0282057D01*
X0109797Y0281972D01*
X0109823Y0281889D01*
X0109854Y0281808D01*
X0109887Y0281727D01*
X0109925Y0281649D01*
X0109965Y0281572D01*
X0110010Y0281497D01*
X0110057Y0281424D01*
X0110108Y0281353D01*
X0110161Y0281284D01*
X0110218Y0281218D01*
X0110277Y0281154D01*
X0110340Y0281093D01*
X0110405Y0281035D01*
X0110472Y0280980D01*
X0110542Y0280928D01*
X0110614Y0280879D01*
X0110688Y0280833D01*
X0110764Y0280791D01*
X0110842Y0280752D01*
X0110921Y0280716D01*
X0111002Y0280684D01*
X0111085Y0280656D01*
X0111168Y0280631D01*
X0111253Y0280610D01*
X0111338Y0280593D01*
X0111424Y0280579D01*
X0111511Y0280570D01*
X0111598Y0280564D01*
X0111685Y0280562D01*
X0111685Y0280563D02*
X0111598Y0280561D01*
X0111511Y0280555D01*
X0111424Y0280546D01*
X0111338Y0280532D01*
X0111253Y0280515D01*
X0111168Y0280494D01*
X0111085Y0280469D01*
X0111002Y0280441D01*
X0110921Y0280409D01*
X0110842Y0280373D01*
X0110764Y0280334D01*
X0110688Y0280292D01*
X0110614Y0280246D01*
X0110542Y0280197D01*
X0110472Y0280145D01*
X0110405Y0280090D01*
X0110340Y0280032D01*
X0110277Y0279971D01*
X0110218Y0279907D01*
X0110161Y0279841D01*
X0110108Y0279772D01*
X0110057Y0279701D01*
X0110010Y0279628D01*
X0109965Y0279553D01*
X0109925Y0279476D01*
X0109887Y0279398D01*
X0109854Y0279317D01*
X0109823Y0279236D01*
X0109797Y0279153D01*
X0109774Y0279068D01*
X0109755Y0278983D01*
X0109740Y0278898D01*
X0109728Y0278811D01*
X0109720Y0278725D01*
X0109716Y0278638D01*
X0109716Y0278550D01*
X0109720Y0278463D01*
X0109728Y0278377D01*
X0109740Y0278290D01*
X0109755Y0278205D01*
X0109774Y0278120D01*
X0109797Y0278035D01*
X0109823Y0277952D01*
X0109854Y0277871D01*
X0109887Y0277790D01*
X0109925Y0277712D01*
X0109965Y0277635D01*
X0110010Y0277560D01*
X0110057Y0277487D01*
X0110108Y0277416D01*
X0110161Y0277347D01*
X0110218Y0277281D01*
X0110277Y0277217D01*
X0110340Y0277156D01*
X0110405Y0277098D01*
X0110472Y0277043D01*
X0110542Y0276991D01*
X0110614Y0276942D01*
X0110688Y0276896D01*
X0110764Y0276854D01*
X0110842Y0276815D01*
X0110921Y0276779D01*
X0111002Y0276747D01*
X0111085Y0276719D01*
X0111168Y0276694D01*
X0111253Y0276673D01*
X0111338Y0276656D01*
X0111424Y0276642D01*
X0111511Y0276633D01*
X0111598Y0276627D01*
X0111685Y0276625D01*
X0111685Y0278594D02*
X0114638Y0280563D01*
X0114638Y0284500D01*
X0111685Y0284500D01*
X0111685Y0282531D02*
X0114638Y0284500D01*
X0117098Y0284500D01*
X0117098Y0276626D01*
X0108732Y0276626D02*
X0101843Y0276626D01*
X0101843Y0278594D01*
X0106272Y0278594D01*
X0106272Y0279579D01*
X0101843Y0279579D01*
X0101843Y0281547D01*
X0106272Y0281547D01*
X0106272Y0282531D01*
X0101843Y0282531D01*
X0101843Y0284500D01*
X0108732Y0284500D01*
X0108732Y0276626D01*
X0100858Y0276626D02*
X0095445Y0276626D01*
X0096921Y0278594D02*
X0098398Y0278594D01*
X0098398Y0280071D01*
X0096921Y0280071D01*
X0096868Y0280069D01*
X0096816Y0280063D01*
X0096764Y0280054D01*
X0096713Y0280041D01*
X0096663Y0280024D01*
X0096614Y0280004D01*
X0096567Y0279981D01*
X0096522Y0279954D01*
X0096479Y0279924D01*
X0096438Y0279891D01*
X0096399Y0279855D01*
X0096363Y0279816D01*
X0096330Y0279775D01*
X0096300Y0279732D01*
X0096273Y0279687D01*
X0096250Y0279640D01*
X0096230Y0279591D01*
X0096213Y0279541D01*
X0096200Y0279490D01*
X0096191Y0279438D01*
X0096185Y0279386D01*
X0096183Y0279333D01*
X0096185Y0279280D01*
X0096191Y0279228D01*
X0096200Y0279176D01*
X0096213Y0279125D01*
X0096230Y0279075D01*
X0096250Y0279026D01*
X0096273Y0278979D01*
X0096300Y0278934D01*
X0096330Y0278891D01*
X0096363Y0278850D01*
X0096399Y0278811D01*
X0096438Y0278775D01*
X0096479Y0278742D01*
X0096522Y0278712D01*
X0096567Y0278685D01*
X0096614Y0278662D01*
X0096663Y0278642D01*
X0096713Y0278625D01*
X0096764Y0278612D01*
X0096816Y0278603D01*
X0096868Y0278597D01*
X0096921Y0278595D01*
X0095445Y0276626D02*
X0095347Y0276628D01*
X0095249Y0276634D01*
X0095152Y0276643D01*
X0095055Y0276657D01*
X0094959Y0276674D01*
X0094863Y0276696D01*
X0094769Y0276721D01*
X0094675Y0276749D01*
X0094583Y0276782D01*
X0094492Y0276818D01*
X0094402Y0276858D01*
X0094315Y0276901D01*
X0094229Y0276948D01*
X0094145Y0276998D01*
X0094063Y0277051D01*
X0093983Y0277108D01*
X0093905Y0277167D01*
X0093830Y0277230D01*
X0093757Y0277296D01*
X0093688Y0277364D01*
X0093620Y0277435D01*
X0093556Y0277509D01*
X0093495Y0277586D01*
X0093437Y0277664D01*
X0093382Y0277745D01*
X0093330Y0277828D01*
X0093282Y0277913D01*
X0093237Y0278000D01*
X0093195Y0278089D01*
X0093158Y0278179D01*
X0093123Y0278271D01*
X0093093Y0278364D01*
X0093066Y0278458D01*
X0093043Y0278553D01*
X0093023Y0278649D01*
X0093008Y0278746D01*
X0092996Y0278843D01*
X0092988Y0278940D01*
X0092984Y0279038D01*
X0092984Y0279136D01*
X0092988Y0279234D01*
X0092996Y0279331D01*
X0093008Y0279428D01*
X0093023Y0279525D01*
X0093043Y0279621D01*
X0093066Y0279716D01*
X0093093Y0279810D01*
X0093123Y0279903D01*
X0093158Y0279995D01*
X0093195Y0280085D01*
X0093237Y0280174D01*
X0093282Y0280261D01*
X0093330Y0280346D01*
X0093382Y0280429D01*
X0093437Y0280510D01*
X0093495Y0280588D01*
X0093556Y0280665D01*
X0093620Y0280739D01*
X0093688Y0280810D01*
X0093757Y0280878D01*
X0093830Y0280944D01*
X0093905Y0281007D01*
X0093983Y0281066D01*
X0094063Y0281123D01*
X0094145Y0281176D01*
X0094229Y0281226D01*
X0094315Y0281273D01*
X0094402Y0281316D01*
X0094492Y0281356D01*
X0094583Y0281392D01*
X0094675Y0281425D01*
X0094769Y0281453D01*
X0094863Y0281478D01*
X0094959Y0281500D01*
X0095055Y0281517D01*
X0095152Y0281531D01*
X0095249Y0281540D01*
X0095347Y0281546D01*
X0095445Y0281548D01*
X0095445Y0281547D02*
X0093476Y0284500D01*
X0096429Y0284500D01*
X0098398Y0281547D01*
X0098398Y0284500D01*
X0100858Y0284500D01*
X0100858Y0276626D01*
X0088555Y0284500D02*
X0088340Y0284497D01*
X0088126Y0284488D01*
X0087911Y0284475D01*
X0087697Y0284457D01*
X0087484Y0284434D01*
X0087271Y0284406D01*
X0087059Y0284373D01*
X0086847Y0284335D01*
X0086637Y0284292D01*
X0086428Y0284245D01*
X0086219Y0284193D01*
X0086012Y0284136D01*
X0085807Y0284074D01*
X0085602Y0284008D01*
X0085602Y0280563D01*
X0087571Y0280563D01*
X0087571Y0278594D02*
X0087658Y0278596D01*
X0087745Y0278602D01*
X0087832Y0278611D01*
X0087918Y0278625D01*
X0088003Y0278642D01*
X0088088Y0278663D01*
X0088171Y0278688D01*
X0088254Y0278716D01*
X0088335Y0278748D01*
X0088414Y0278784D01*
X0088492Y0278823D01*
X0088568Y0278865D01*
X0088642Y0278911D01*
X0088714Y0278960D01*
X0088784Y0279012D01*
X0088851Y0279067D01*
X0088916Y0279125D01*
X0088979Y0279186D01*
X0089038Y0279250D01*
X0089095Y0279316D01*
X0089148Y0279385D01*
X0089199Y0279456D01*
X0089246Y0279529D01*
X0089291Y0279604D01*
X0089331Y0279681D01*
X0089369Y0279759D01*
X0089402Y0279840D01*
X0089433Y0279921D01*
X0089459Y0280004D01*
X0089482Y0280089D01*
X0089501Y0280174D01*
X0089516Y0280259D01*
X0089528Y0280346D01*
X0089536Y0280432D01*
X0089540Y0280519D01*
X0089540Y0280607D01*
X0089536Y0280694D01*
X0089528Y0280780D01*
X0089516Y0280867D01*
X0089501Y0280952D01*
X0089482Y0281037D01*
X0089459Y0281122D01*
X0089433Y0281205D01*
X0089402Y0281286D01*
X0089369Y0281367D01*
X0089331Y0281445D01*
X0089291Y0281522D01*
X0089246Y0281597D01*
X0089199Y0281670D01*
X0089148Y0281741D01*
X0089095Y0281810D01*
X0089038Y0281876D01*
X0088979Y0281940D01*
X0088916Y0282001D01*
X0088851Y0282059D01*
X0088784Y0282114D01*
X0088714Y0282166D01*
X0088642Y0282215D01*
X0088568Y0282261D01*
X0088492Y0282303D01*
X0088414Y0282342D01*
X0088335Y0282378D01*
X0088254Y0282410D01*
X0088171Y0282438D01*
X0088088Y0282463D01*
X0088003Y0282484D01*
X0087918Y0282501D01*
X0087832Y0282515D01*
X0087745Y0282524D01*
X0087658Y0282530D01*
X0087571Y0282532D01*
X0087571Y0282531D02*
X0087571Y0280563D01*
X0088555Y0276626D02*
X0088679Y0276628D01*
X0088802Y0276634D01*
X0088926Y0276643D01*
X0089048Y0276657D01*
X0089171Y0276674D01*
X0089293Y0276696D01*
X0089414Y0276721D01*
X0089534Y0276750D01*
X0089653Y0276782D01*
X0089772Y0276819D01*
X0089889Y0276859D01*
X0090004Y0276902D01*
X0090119Y0276950D01*
X0090231Y0277001D01*
X0090342Y0277055D01*
X0090452Y0277113D01*
X0090559Y0277174D01*
X0090665Y0277239D01*
X0090768Y0277307D01*
X0090869Y0277378D01*
X0090968Y0277452D01*
X0091065Y0277529D01*
X0091159Y0277610D01*
X0091250Y0277693D01*
X0091339Y0277779D01*
X0091425Y0277868D01*
X0091508Y0277959D01*
X0091589Y0278053D01*
X0091666Y0278150D01*
X0091740Y0278249D01*
X0091811Y0278350D01*
X0091879Y0278453D01*
X0091944Y0278559D01*
X0092005Y0278666D01*
X0092063Y0278776D01*
X0092117Y0278887D01*
X0092168Y0278999D01*
X0092216Y0279114D01*
X0092259Y0279229D01*
X0092299Y0279346D01*
X0092336Y0279465D01*
X0092368Y0279584D01*
X0092397Y0279704D01*
X0092422Y0279825D01*
X0092444Y0279947D01*
X0092461Y0280070D01*
X0092475Y0280192D01*
X0092484Y0280316D01*
X0092490Y0280439D01*
X0092492Y0280563D01*
X0092490Y0280687D01*
X0092484Y0280810D01*
X0092475Y0280934D01*
X0092461Y0281056D01*
X0092444Y0281179D01*
X0092422Y0281301D01*
X0092397Y0281422D01*
X0092368Y0281542D01*
X0092336Y0281661D01*
X0092299Y0281780D01*
X0092259Y0281897D01*
X0092216Y0282012D01*
X0092168Y0282127D01*
X0092117Y0282239D01*
X0092063Y0282350D01*
X0092005Y0282460D01*
X0091944Y0282567D01*
X0091879Y0282673D01*
X0091811Y0282776D01*
X0091740Y0282877D01*
X0091666Y0282976D01*
X0091589Y0283073D01*
X0091508Y0283167D01*
X0091425Y0283258D01*
X0091339Y0283347D01*
X0091250Y0283433D01*
X0091159Y0283516D01*
X0091065Y0283597D01*
X0090968Y0283674D01*
X0090869Y0283748D01*
X0090768Y0283819D01*
X0090665Y0283887D01*
X0090559Y0283952D01*
X0090452Y0284013D01*
X0090342Y0284071D01*
X0090231Y0284125D01*
X0090119Y0284176D01*
X0090004Y0284224D01*
X0089889Y0284267D01*
X0089772Y0284307D01*
X0089653Y0284344D01*
X0089534Y0284376D01*
X0089414Y0284405D01*
X0089293Y0284430D01*
X0089171Y0284452D01*
X0089048Y0284469D01*
X0088926Y0284483D01*
X0088802Y0284492D01*
X0088679Y0284498D01*
X0088555Y0284500D01*
X0087571Y0278594D02*
X0087393Y0278573D01*
X0087214Y0278555D01*
X0087035Y0278543D01*
X0086856Y0278534D01*
X0086677Y0278530D01*
X0086497Y0278530D01*
X0086318Y0278534D01*
X0086139Y0278543D01*
X0085960Y0278555D01*
X0085781Y0278573D01*
X0085603Y0278594D01*
X0085622Y0278594D02*
X0085622Y0276843D01*
X0085563Y0276842D02*
X0085892Y0276787D01*
X0086223Y0276740D01*
X0086554Y0276700D01*
X0086887Y0276668D01*
X0087220Y0276644D01*
X0087553Y0276628D01*
X0087887Y0276619D01*
X0088221Y0276619D01*
X0088555Y0276626D01*
D20*
X0087603Y0285981D02*
X0086603Y0285981D01*
X0086603Y0287483D01*
X0087603Y0287483D01*
X0087103Y0286732D02*
X0086603Y0286732D01*
X0089549Y0285981D02*
X0090550Y0285981D01*
X0089549Y0285981D02*
X0089549Y0287483D01*
X0092496Y0287483D02*
X0092496Y0285981D01*
X0093497Y0285981D01*
X0092996Y0286732D02*
X0092496Y0286732D01*
X0092496Y0287483D02*
X0093497Y0287483D01*
X0095442Y0287233D02*
X0095442Y0286232D01*
X0095692Y0285981D01*
X0096193Y0285981D01*
X0096443Y0286232D01*
X0096443Y0287233D02*
X0096193Y0287483D01*
X0095692Y0287483D01*
X0095442Y0287233D01*
X0098389Y0287483D02*
X0099390Y0287483D01*
X0098889Y0287483D02*
X0098889Y0285981D01*
X0101335Y0285981D02*
X0101335Y0287483D01*
X0102086Y0287483D01*
X0102336Y0287233D01*
X0102336Y0286732D01*
X0102086Y0286482D01*
X0101335Y0286482D01*
X0101836Y0286482D02*
X0102336Y0285981D01*
X0104282Y0286232D02*
X0104532Y0285981D01*
X0105032Y0285981D01*
X0105283Y0286232D01*
X0105283Y0287233D01*
X0105032Y0287483D01*
X0104532Y0287483D01*
X0104282Y0287233D01*
X0104282Y0286232D01*
X0107228Y0285981D02*
X0107228Y0287483D01*
X0108229Y0285981D01*
X0108229Y0287483D01*
X0110175Y0287483D02*
X0110675Y0287483D01*
X0110425Y0287483D02*
X0110425Y0285981D01*
X0110175Y0285981D02*
X0110675Y0285981D01*
X0112630Y0286232D02*
X0112880Y0285981D01*
X0113381Y0285981D01*
X0113631Y0286232D01*
X0113631Y0287233D02*
X0113381Y0287483D01*
X0112880Y0287483D01*
X0112630Y0287233D01*
X0112630Y0286232D01*
X0115577Y0286232D02*
X0115827Y0285981D01*
X0116327Y0285981D01*
X0116577Y0286232D01*
X0116577Y0286482D01*
X0116327Y0286732D01*
X0115827Y0286732D01*
X0115577Y0286982D01*
X0115577Y0287233D01*
X0115827Y0287483D01*
X0116327Y0287483D01*
X0116577Y0287233D01*
X0169103Y0287483D02*
X0169103Y0285981D01*
X0170103Y0285981D01*
X0169603Y0286732D02*
X0169103Y0286732D01*
X0169103Y0287483D02*
X0170103Y0287483D01*
X0172049Y0287483D02*
X0172049Y0285981D01*
X0173050Y0285981D01*
X0174996Y0285981D02*
X0175997Y0285981D01*
X0175496Y0286732D02*
X0174996Y0286732D01*
X0174996Y0287483D02*
X0174996Y0285981D01*
X0174996Y0287483D02*
X0175997Y0287483D01*
X0177942Y0287233D02*
X0177942Y0286232D01*
X0178192Y0285981D01*
X0178693Y0285981D01*
X0178943Y0286232D01*
X0178943Y0287233D02*
X0178693Y0287483D01*
X0178192Y0287483D01*
X0177942Y0287233D01*
X0180889Y0287483D02*
X0181890Y0287483D01*
X0181389Y0287483D02*
X0181389Y0285981D01*
X0183835Y0285981D02*
X0183835Y0287483D01*
X0184586Y0287483D01*
X0184836Y0287233D01*
X0184836Y0286732D01*
X0184586Y0286482D01*
X0183835Y0286482D01*
X0184336Y0286482D02*
X0184836Y0285981D01*
X0186782Y0286232D02*
X0187032Y0285981D01*
X0187532Y0285981D01*
X0187783Y0286232D01*
X0187783Y0287233D01*
X0187532Y0287483D01*
X0187032Y0287483D01*
X0186782Y0287233D01*
X0186782Y0286232D01*
X0189728Y0285981D02*
X0189728Y0287483D01*
X0190729Y0285981D01*
X0190729Y0287483D01*
X0192675Y0287483D02*
X0193175Y0287483D01*
X0192925Y0287483D02*
X0192925Y0285981D01*
X0192675Y0285981D02*
X0193175Y0285981D01*
X0195130Y0286232D02*
X0195380Y0285981D01*
X0195881Y0285981D01*
X0196131Y0286232D01*
X0196131Y0287233D02*
X0195881Y0287483D01*
X0195380Y0287483D01*
X0195130Y0287233D01*
X0195130Y0286232D01*
X0198077Y0286232D02*
X0198327Y0285981D01*
X0198827Y0285981D01*
X0199077Y0286232D01*
X0199077Y0286482D01*
X0198827Y0286732D01*
X0198327Y0286732D01*
X0198077Y0286982D01*
X0198077Y0287233D01*
X0198327Y0287483D01*
X0198827Y0287483D01*
X0199077Y0287233D01*
M02*
