G75*
%MOIN*%
%OFA0B0*%
%FSLAX25Y25*%
%IPPOS*%
%LPD*%
%AMOC8*
5,1,8,0,0,1.08239X$1,22.5*
%
%ADD10C,0.00000*%
%ADD11R,0.05906X0.05118*%
%ADD12R,0.06693X0.02559*%
%ADD13C,0.08268*%
%ADD14R,0.04331X0.03937*%
%ADD15R,0.02200X0.07800*%
%ADD16R,0.05200X0.02200*%
%ADD17OC8,0.05740*%
%ADD18C,0.13055*%
%ADD19R,0.08268X0.08268*%
%ADD20R,0.05000X0.02500*%
%ADD21R,0.03937X0.04331*%
%ADD22R,0.06300X0.04600*%
%ADD23R,0.05118X0.05906*%
%ADD24C,0.05740*%
%ADD25C,0.02978*%
%ADD26C,0.02000*%
%ADD27C,0.01200*%
%ADD28C,0.00600*%
%ADD29C,0.01600*%
D10*
X0002000Y0004500D02*
X0002000Y0319461D01*
X0395701Y0319461D01*
X0395701Y0004500D01*
X0002000Y0004500D01*
X0007905Y0024185D02*
X0007907Y0024338D01*
X0007913Y0024492D01*
X0007923Y0024645D01*
X0007937Y0024797D01*
X0007955Y0024950D01*
X0007977Y0025101D01*
X0008002Y0025252D01*
X0008032Y0025403D01*
X0008066Y0025553D01*
X0008103Y0025701D01*
X0008144Y0025849D01*
X0008189Y0025995D01*
X0008238Y0026141D01*
X0008291Y0026285D01*
X0008347Y0026427D01*
X0008407Y0026568D01*
X0008471Y0026708D01*
X0008538Y0026846D01*
X0008609Y0026982D01*
X0008684Y0027116D01*
X0008761Y0027248D01*
X0008843Y0027378D01*
X0008927Y0027506D01*
X0009015Y0027632D01*
X0009106Y0027755D01*
X0009200Y0027876D01*
X0009298Y0027994D01*
X0009398Y0028110D01*
X0009502Y0028223D01*
X0009608Y0028334D01*
X0009717Y0028442D01*
X0009829Y0028547D01*
X0009943Y0028648D01*
X0010061Y0028747D01*
X0010180Y0028843D01*
X0010302Y0028936D01*
X0010427Y0029025D01*
X0010554Y0029112D01*
X0010683Y0029194D01*
X0010814Y0029274D01*
X0010947Y0029350D01*
X0011082Y0029423D01*
X0011219Y0029492D01*
X0011358Y0029557D01*
X0011498Y0029619D01*
X0011640Y0029677D01*
X0011783Y0029732D01*
X0011928Y0029783D01*
X0012074Y0029830D01*
X0012221Y0029873D01*
X0012369Y0029912D01*
X0012518Y0029948D01*
X0012668Y0029979D01*
X0012819Y0030007D01*
X0012970Y0030031D01*
X0013123Y0030051D01*
X0013275Y0030067D01*
X0013428Y0030079D01*
X0013581Y0030087D01*
X0013734Y0030091D01*
X0013888Y0030091D01*
X0014041Y0030087D01*
X0014194Y0030079D01*
X0014347Y0030067D01*
X0014499Y0030051D01*
X0014652Y0030031D01*
X0014803Y0030007D01*
X0014954Y0029979D01*
X0015104Y0029948D01*
X0015253Y0029912D01*
X0015401Y0029873D01*
X0015548Y0029830D01*
X0015694Y0029783D01*
X0015839Y0029732D01*
X0015982Y0029677D01*
X0016124Y0029619D01*
X0016264Y0029557D01*
X0016403Y0029492D01*
X0016540Y0029423D01*
X0016675Y0029350D01*
X0016808Y0029274D01*
X0016939Y0029194D01*
X0017068Y0029112D01*
X0017195Y0029025D01*
X0017320Y0028936D01*
X0017442Y0028843D01*
X0017561Y0028747D01*
X0017679Y0028648D01*
X0017793Y0028547D01*
X0017905Y0028442D01*
X0018014Y0028334D01*
X0018120Y0028223D01*
X0018224Y0028110D01*
X0018324Y0027994D01*
X0018422Y0027876D01*
X0018516Y0027755D01*
X0018607Y0027632D01*
X0018695Y0027506D01*
X0018779Y0027378D01*
X0018861Y0027248D01*
X0018938Y0027116D01*
X0019013Y0026982D01*
X0019084Y0026846D01*
X0019151Y0026708D01*
X0019215Y0026568D01*
X0019275Y0026427D01*
X0019331Y0026285D01*
X0019384Y0026141D01*
X0019433Y0025995D01*
X0019478Y0025849D01*
X0019519Y0025701D01*
X0019556Y0025553D01*
X0019590Y0025403D01*
X0019620Y0025252D01*
X0019645Y0025101D01*
X0019667Y0024950D01*
X0019685Y0024797D01*
X0019699Y0024645D01*
X0019709Y0024492D01*
X0019715Y0024338D01*
X0019717Y0024185D01*
X0019715Y0024032D01*
X0019709Y0023878D01*
X0019699Y0023725D01*
X0019685Y0023573D01*
X0019667Y0023420D01*
X0019645Y0023269D01*
X0019620Y0023118D01*
X0019590Y0022967D01*
X0019556Y0022817D01*
X0019519Y0022669D01*
X0019478Y0022521D01*
X0019433Y0022375D01*
X0019384Y0022229D01*
X0019331Y0022085D01*
X0019275Y0021943D01*
X0019215Y0021802D01*
X0019151Y0021662D01*
X0019084Y0021524D01*
X0019013Y0021388D01*
X0018938Y0021254D01*
X0018861Y0021122D01*
X0018779Y0020992D01*
X0018695Y0020864D01*
X0018607Y0020738D01*
X0018516Y0020615D01*
X0018422Y0020494D01*
X0018324Y0020376D01*
X0018224Y0020260D01*
X0018120Y0020147D01*
X0018014Y0020036D01*
X0017905Y0019928D01*
X0017793Y0019823D01*
X0017679Y0019722D01*
X0017561Y0019623D01*
X0017442Y0019527D01*
X0017320Y0019434D01*
X0017195Y0019345D01*
X0017068Y0019258D01*
X0016939Y0019176D01*
X0016808Y0019096D01*
X0016675Y0019020D01*
X0016540Y0018947D01*
X0016403Y0018878D01*
X0016264Y0018813D01*
X0016124Y0018751D01*
X0015982Y0018693D01*
X0015839Y0018638D01*
X0015694Y0018587D01*
X0015548Y0018540D01*
X0015401Y0018497D01*
X0015253Y0018458D01*
X0015104Y0018422D01*
X0014954Y0018391D01*
X0014803Y0018363D01*
X0014652Y0018339D01*
X0014499Y0018319D01*
X0014347Y0018303D01*
X0014194Y0018291D01*
X0014041Y0018283D01*
X0013888Y0018279D01*
X0013734Y0018279D01*
X0013581Y0018283D01*
X0013428Y0018291D01*
X0013275Y0018303D01*
X0013123Y0018319D01*
X0012970Y0018339D01*
X0012819Y0018363D01*
X0012668Y0018391D01*
X0012518Y0018422D01*
X0012369Y0018458D01*
X0012221Y0018497D01*
X0012074Y0018540D01*
X0011928Y0018587D01*
X0011783Y0018638D01*
X0011640Y0018693D01*
X0011498Y0018751D01*
X0011358Y0018813D01*
X0011219Y0018878D01*
X0011082Y0018947D01*
X0010947Y0019020D01*
X0010814Y0019096D01*
X0010683Y0019176D01*
X0010554Y0019258D01*
X0010427Y0019345D01*
X0010302Y0019434D01*
X0010180Y0019527D01*
X0010061Y0019623D01*
X0009943Y0019722D01*
X0009829Y0019823D01*
X0009717Y0019928D01*
X0009608Y0020036D01*
X0009502Y0020147D01*
X0009398Y0020260D01*
X0009298Y0020376D01*
X0009200Y0020494D01*
X0009106Y0020615D01*
X0009015Y0020738D01*
X0008927Y0020864D01*
X0008843Y0020992D01*
X0008761Y0021122D01*
X0008684Y0021254D01*
X0008609Y0021388D01*
X0008538Y0021524D01*
X0008471Y0021662D01*
X0008407Y0021802D01*
X0008347Y0021943D01*
X0008291Y0022085D01*
X0008238Y0022229D01*
X0008189Y0022375D01*
X0008144Y0022521D01*
X0008103Y0022669D01*
X0008066Y0022817D01*
X0008032Y0022967D01*
X0008002Y0023118D01*
X0007977Y0023269D01*
X0007955Y0023420D01*
X0007937Y0023573D01*
X0007923Y0023725D01*
X0007913Y0023878D01*
X0007907Y0024032D01*
X0007905Y0024185D01*
X0015779Y0299776D02*
X0015781Y0299929D01*
X0015787Y0300083D01*
X0015797Y0300236D01*
X0015811Y0300388D01*
X0015829Y0300541D01*
X0015851Y0300692D01*
X0015876Y0300843D01*
X0015906Y0300994D01*
X0015940Y0301144D01*
X0015977Y0301292D01*
X0016018Y0301440D01*
X0016063Y0301586D01*
X0016112Y0301732D01*
X0016165Y0301876D01*
X0016221Y0302018D01*
X0016281Y0302159D01*
X0016345Y0302299D01*
X0016412Y0302437D01*
X0016483Y0302573D01*
X0016558Y0302707D01*
X0016635Y0302839D01*
X0016717Y0302969D01*
X0016801Y0303097D01*
X0016889Y0303223D01*
X0016980Y0303346D01*
X0017074Y0303467D01*
X0017172Y0303585D01*
X0017272Y0303701D01*
X0017376Y0303814D01*
X0017482Y0303925D01*
X0017591Y0304033D01*
X0017703Y0304138D01*
X0017817Y0304239D01*
X0017935Y0304338D01*
X0018054Y0304434D01*
X0018176Y0304527D01*
X0018301Y0304616D01*
X0018428Y0304703D01*
X0018557Y0304785D01*
X0018688Y0304865D01*
X0018821Y0304941D01*
X0018956Y0305014D01*
X0019093Y0305083D01*
X0019232Y0305148D01*
X0019372Y0305210D01*
X0019514Y0305268D01*
X0019657Y0305323D01*
X0019802Y0305374D01*
X0019948Y0305421D01*
X0020095Y0305464D01*
X0020243Y0305503D01*
X0020392Y0305539D01*
X0020542Y0305570D01*
X0020693Y0305598D01*
X0020844Y0305622D01*
X0020997Y0305642D01*
X0021149Y0305658D01*
X0021302Y0305670D01*
X0021455Y0305678D01*
X0021608Y0305682D01*
X0021762Y0305682D01*
X0021915Y0305678D01*
X0022068Y0305670D01*
X0022221Y0305658D01*
X0022373Y0305642D01*
X0022526Y0305622D01*
X0022677Y0305598D01*
X0022828Y0305570D01*
X0022978Y0305539D01*
X0023127Y0305503D01*
X0023275Y0305464D01*
X0023422Y0305421D01*
X0023568Y0305374D01*
X0023713Y0305323D01*
X0023856Y0305268D01*
X0023998Y0305210D01*
X0024138Y0305148D01*
X0024277Y0305083D01*
X0024414Y0305014D01*
X0024549Y0304941D01*
X0024682Y0304865D01*
X0024813Y0304785D01*
X0024942Y0304703D01*
X0025069Y0304616D01*
X0025194Y0304527D01*
X0025316Y0304434D01*
X0025435Y0304338D01*
X0025553Y0304239D01*
X0025667Y0304138D01*
X0025779Y0304033D01*
X0025888Y0303925D01*
X0025994Y0303814D01*
X0026098Y0303701D01*
X0026198Y0303585D01*
X0026296Y0303467D01*
X0026390Y0303346D01*
X0026481Y0303223D01*
X0026569Y0303097D01*
X0026653Y0302969D01*
X0026735Y0302839D01*
X0026812Y0302707D01*
X0026887Y0302573D01*
X0026958Y0302437D01*
X0027025Y0302299D01*
X0027089Y0302159D01*
X0027149Y0302018D01*
X0027205Y0301876D01*
X0027258Y0301732D01*
X0027307Y0301586D01*
X0027352Y0301440D01*
X0027393Y0301292D01*
X0027430Y0301144D01*
X0027464Y0300994D01*
X0027494Y0300843D01*
X0027519Y0300692D01*
X0027541Y0300541D01*
X0027559Y0300388D01*
X0027573Y0300236D01*
X0027583Y0300083D01*
X0027589Y0299929D01*
X0027591Y0299776D01*
X0027589Y0299623D01*
X0027583Y0299469D01*
X0027573Y0299316D01*
X0027559Y0299164D01*
X0027541Y0299011D01*
X0027519Y0298860D01*
X0027494Y0298709D01*
X0027464Y0298558D01*
X0027430Y0298408D01*
X0027393Y0298260D01*
X0027352Y0298112D01*
X0027307Y0297966D01*
X0027258Y0297820D01*
X0027205Y0297676D01*
X0027149Y0297534D01*
X0027089Y0297393D01*
X0027025Y0297253D01*
X0026958Y0297115D01*
X0026887Y0296979D01*
X0026812Y0296845D01*
X0026735Y0296713D01*
X0026653Y0296583D01*
X0026569Y0296455D01*
X0026481Y0296329D01*
X0026390Y0296206D01*
X0026296Y0296085D01*
X0026198Y0295967D01*
X0026098Y0295851D01*
X0025994Y0295738D01*
X0025888Y0295627D01*
X0025779Y0295519D01*
X0025667Y0295414D01*
X0025553Y0295313D01*
X0025435Y0295214D01*
X0025316Y0295118D01*
X0025194Y0295025D01*
X0025069Y0294936D01*
X0024942Y0294849D01*
X0024813Y0294767D01*
X0024682Y0294687D01*
X0024549Y0294611D01*
X0024414Y0294538D01*
X0024277Y0294469D01*
X0024138Y0294404D01*
X0023998Y0294342D01*
X0023856Y0294284D01*
X0023713Y0294229D01*
X0023568Y0294178D01*
X0023422Y0294131D01*
X0023275Y0294088D01*
X0023127Y0294049D01*
X0022978Y0294013D01*
X0022828Y0293982D01*
X0022677Y0293954D01*
X0022526Y0293930D01*
X0022373Y0293910D01*
X0022221Y0293894D01*
X0022068Y0293882D01*
X0021915Y0293874D01*
X0021762Y0293870D01*
X0021608Y0293870D01*
X0021455Y0293874D01*
X0021302Y0293882D01*
X0021149Y0293894D01*
X0020997Y0293910D01*
X0020844Y0293930D01*
X0020693Y0293954D01*
X0020542Y0293982D01*
X0020392Y0294013D01*
X0020243Y0294049D01*
X0020095Y0294088D01*
X0019948Y0294131D01*
X0019802Y0294178D01*
X0019657Y0294229D01*
X0019514Y0294284D01*
X0019372Y0294342D01*
X0019232Y0294404D01*
X0019093Y0294469D01*
X0018956Y0294538D01*
X0018821Y0294611D01*
X0018688Y0294687D01*
X0018557Y0294767D01*
X0018428Y0294849D01*
X0018301Y0294936D01*
X0018176Y0295025D01*
X0018054Y0295118D01*
X0017935Y0295214D01*
X0017817Y0295313D01*
X0017703Y0295414D01*
X0017591Y0295519D01*
X0017482Y0295627D01*
X0017376Y0295738D01*
X0017272Y0295851D01*
X0017172Y0295967D01*
X0017074Y0296085D01*
X0016980Y0296206D01*
X0016889Y0296329D01*
X0016801Y0296455D01*
X0016717Y0296583D01*
X0016635Y0296713D01*
X0016558Y0296845D01*
X0016483Y0296979D01*
X0016412Y0297115D01*
X0016345Y0297253D01*
X0016281Y0297393D01*
X0016221Y0297534D01*
X0016165Y0297676D01*
X0016112Y0297820D01*
X0016063Y0297966D01*
X0016018Y0298112D01*
X0015977Y0298260D01*
X0015940Y0298408D01*
X0015906Y0298558D01*
X0015876Y0298709D01*
X0015851Y0298860D01*
X0015829Y0299011D01*
X0015811Y0299164D01*
X0015797Y0299316D01*
X0015787Y0299469D01*
X0015781Y0299623D01*
X0015779Y0299776D01*
X0254322Y0308516D02*
X0254324Y0308669D01*
X0254330Y0308823D01*
X0254340Y0308976D01*
X0254354Y0309128D01*
X0254372Y0309281D01*
X0254394Y0309432D01*
X0254419Y0309583D01*
X0254449Y0309734D01*
X0254483Y0309884D01*
X0254520Y0310032D01*
X0254561Y0310180D01*
X0254606Y0310326D01*
X0254655Y0310472D01*
X0254708Y0310616D01*
X0254764Y0310758D01*
X0254824Y0310899D01*
X0254888Y0311039D01*
X0254955Y0311177D01*
X0255026Y0311313D01*
X0255101Y0311447D01*
X0255178Y0311579D01*
X0255260Y0311709D01*
X0255344Y0311837D01*
X0255432Y0311963D01*
X0255523Y0312086D01*
X0255617Y0312207D01*
X0255715Y0312325D01*
X0255815Y0312441D01*
X0255919Y0312554D01*
X0256025Y0312665D01*
X0256134Y0312773D01*
X0256246Y0312878D01*
X0256360Y0312979D01*
X0256478Y0313078D01*
X0256597Y0313174D01*
X0256719Y0313267D01*
X0256844Y0313356D01*
X0256971Y0313443D01*
X0257100Y0313525D01*
X0257231Y0313605D01*
X0257364Y0313681D01*
X0257499Y0313754D01*
X0257636Y0313823D01*
X0257775Y0313888D01*
X0257915Y0313950D01*
X0258057Y0314008D01*
X0258200Y0314063D01*
X0258345Y0314114D01*
X0258491Y0314161D01*
X0258638Y0314204D01*
X0258786Y0314243D01*
X0258935Y0314279D01*
X0259085Y0314310D01*
X0259236Y0314338D01*
X0259387Y0314362D01*
X0259540Y0314382D01*
X0259692Y0314398D01*
X0259845Y0314410D01*
X0259998Y0314418D01*
X0260151Y0314422D01*
X0260305Y0314422D01*
X0260458Y0314418D01*
X0260611Y0314410D01*
X0260764Y0314398D01*
X0260916Y0314382D01*
X0261069Y0314362D01*
X0261220Y0314338D01*
X0261371Y0314310D01*
X0261521Y0314279D01*
X0261670Y0314243D01*
X0261818Y0314204D01*
X0261965Y0314161D01*
X0262111Y0314114D01*
X0262256Y0314063D01*
X0262399Y0314008D01*
X0262541Y0313950D01*
X0262681Y0313888D01*
X0262820Y0313823D01*
X0262957Y0313754D01*
X0263092Y0313681D01*
X0263225Y0313605D01*
X0263356Y0313525D01*
X0263485Y0313443D01*
X0263612Y0313356D01*
X0263737Y0313267D01*
X0263859Y0313174D01*
X0263978Y0313078D01*
X0264096Y0312979D01*
X0264210Y0312878D01*
X0264322Y0312773D01*
X0264431Y0312665D01*
X0264537Y0312554D01*
X0264641Y0312441D01*
X0264741Y0312325D01*
X0264839Y0312207D01*
X0264933Y0312086D01*
X0265024Y0311963D01*
X0265112Y0311837D01*
X0265196Y0311709D01*
X0265278Y0311579D01*
X0265355Y0311447D01*
X0265430Y0311313D01*
X0265501Y0311177D01*
X0265568Y0311039D01*
X0265632Y0310899D01*
X0265692Y0310758D01*
X0265748Y0310616D01*
X0265801Y0310472D01*
X0265850Y0310326D01*
X0265895Y0310180D01*
X0265936Y0310032D01*
X0265973Y0309884D01*
X0266007Y0309734D01*
X0266037Y0309583D01*
X0266062Y0309432D01*
X0266084Y0309281D01*
X0266102Y0309128D01*
X0266116Y0308976D01*
X0266126Y0308823D01*
X0266132Y0308669D01*
X0266134Y0308516D01*
X0266132Y0308363D01*
X0266126Y0308209D01*
X0266116Y0308056D01*
X0266102Y0307904D01*
X0266084Y0307751D01*
X0266062Y0307600D01*
X0266037Y0307449D01*
X0266007Y0307298D01*
X0265973Y0307148D01*
X0265936Y0307000D01*
X0265895Y0306852D01*
X0265850Y0306706D01*
X0265801Y0306560D01*
X0265748Y0306416D01*
X0265692Y0306274D01*
X0265632Y0306133D01*
X0265568Y0305993D01*
X0265501Y0305855D01*
X0265430Y0305719D01*
X0265355Y0305585D01*
X0265278Y0305453D01*
X0265196Y0305323D01*
X0265112Y0305195D01*
X0265024Y0305069D01*
X0264933Y0304946D01*
X0264839Y0304825D01*
X0264741Y0304707D01*
X0264641Y0304591D01*
X0264537Y0304478D01*
X0264431Y0304367D01*
X0264322Y0304259D01*
X0264210Y0304154D01*
X0264096Y0304053D01*
X0263978Y0303954D01*
X0263859Y0303858D01*
X0263737Y0303765D01*
X0263612Y0303676D01*
X0263485Y0303589D01*
X0263356Y0303507D01*
X0263225Y0303427D01*
X0263092Y0303351D01*
X0262957Y0303278D01*
X0262820Y0303209D01*
X0262681Y0303144D01*
X0262541Y0303082D01*
X0262399Y0303024D01*
X0262256Y0302969D01*
X0262111Y0302918D01*
X0261965Y0302871D01*
X0261818Y0302828D01*
X0261670Y0302789D01*
X0261521Y0302753D01*
X0261371Y0302722D01*
X0261220Y0302694D01*
X0261069Y0302670D01*
X0260916Y0302650D01*
X0260764Y0302634D01*
X0260611Y0302622D01*
X0260458Y0302614D01*
X0260305Y0302610D01*
X0260151Y0302610D01*
X0259998Y0302614D01*
X0259845Y0302622D01*
X0259692Y0302634D01*
X0259540Y0302650D01*
X0259387Y0302670D01*
X0259236Y0302694D01*
X0259085Y0302722D01*
X0258935Y0302753D01*
X0258786Y0302789D01*
X0258638Y0302828D01*
X0258491Y0302871D01*
X0258345Y0302918D01*
X0258200Y0302969D01*
X0258057Y0303024D01*
X0257915Y0303082D01*
X0257775Y0303144D01*
X0257636Y0303209D01*
X0257499Y0303278D01*
X0257364Y0303351D01*
X0257231Y0303427D01*
X0257100Y0303507D01*
X0256971Y0303589D01*
X0256844Y0303676D01*
X0256719Y0303765D01*
X0256597Y0303858D01*
X0256478Y0303954D01*
X0256360Y0304053D01*
X0256246Y0304154D01*
X0256134Y0304259D01*
X0256025Y0304367D01*
X0255919Y0304478D01*
X0255815Y0304591D01*
X0255715Y0304707D01*
X0255617Y0304825D01*
X0255523Y0304946D01*
X0255432Y0305069D01*
X0255344Y0305195D01*
X0255260Y0305323D01*
X0255178Y0305453D01*
X0255101Y0305585D01*
X0255026Y0305719D01*
X0254955Y0305855D01*
X0254888Y0305993D01*
X0254824Y0306133D01*
X0254764Y0306274D01*
X0254708Y0306416D01*
X0254655Y0306560D01*
X0254606Y0306706D01*
X0254561Y0306852D01*
X0254520Y0307000D01*
X0254483Y0307148D01*
X0254449Y0307298D01*
X0254419Y0307449D01*
X0254394Y0307600D01*
X0254372Y0307751D01*
X0254354Y0307904D01*
X0254340Y0308056D01*
X0254330Y0308209D01*
X0254324Y0308363D01*
X0254322Y0308516D01*
X0307866Y0308516D02*
X0307868Y0308669D01*
X0307874Y0308823D01*
X0307884Y0308976D01*
X0307898Y0309128D01*
X0307916Y0309281D01*
X0307938Y0309432D01*
X0307963Y0309583D01*
X0307993Y0309734D01*
X0308027Y0309884D01*
X0308064Y0310032D01*
X0308105Y0310180D01*
X0308150Y0310326D01*
X0308199Y0310472D01*
X0308252Y0310616D01*
X0308308Y0310758D01*
X0308368Y0310899D01*
X0308432Y0311039D01*
X0308499Y0311177D01*
X0308570Y0311313D01*
X0308645Y0311447D01*
X0308722Y0311579D01*
X0308804Y0311709D01*
X0308888Y0311837D01*
X0308976Y0311963D01*
X0309067Y0312086D01*
X0309161Y0312207D01*
X0309259Y0312325D01*
X0309359Y0312441D01*
X0309463Y0312554D01*
X0309569Y0312665D01*
X0309678Y0312773D01*
X0309790Y0312878D01*
X0309904Y0312979D01*
X0310022Y0313078D01*
X0310141Y0313174D01*
X0310263Y0313267D01*
X0310388Y0313356D01*
X0310515Y0313443D01*
X0310644Y0313525D01*
X0310775Y0313605D01*
X0310908Y0313681D01*
X0311043Y0313754D01*
X0311180Y0313823D01*
X0311319Y0313888D01*
X0311459Y0313950D01*
X0311601Y0314008D01*
X0311744Y0314063D01*
X0311889Y0314114D01*
X0312035Y0314161D01*
X0312182Y0314204D01*
X0312330Y0314243D01*
X0312479Y0314279D01*
X0312629Y0314310D01*
X0312780Y0314338D01*
X0312931Y0314362D01*
X0313084Y0314382D01*
X0313236Y0314398D01*
X0313389Y0314410D01*
X0313542Y0314418D01*
X0313695Y0314422D01*
X0313849Y0314422D01*
X0314002Y0314418D01*
X0314155Y0314410D01*
X0314308Y0314398D01*
X0314460Y0314382D01*
X0314613Y0314362D01*
X0314764Y0314338D01*
X0314915Y0314310D01*
X0315065Y0314279D01*
X0315214Y0314243D01*
X0315362Y0314204D01*
X0315509Y0314161D01*
X0315655Y0314114D01*
X0315800Y0314063D01*
X0315943Y0314008D01*
X0316085Y0313950D01*
X0316225Y0313888D01*
X0316364Y0313823D01*
X0316501Y0313754D01*
X0316636Y0313681D01*
X0316769Y0313605D01*
X0316900Y0313525D01*
X0317029Y0313443D01*
X0317156Y0313356D01*
X0317281Y0313267D01*
X0317403Y0313174D01*
X0317522Y0313078D01*
X0317640Y0312979D01*
X0317754Y0312878D01*
X0317866Y0312773D01*
X0317975Y0312665D01*
X0318081Y0312554D01*
X0318185Y0312441D01*
X0318285Y0312325D01*
X0318383Y0312207D01*
X0318477Y0312086D01*
X0318568Y0311963D01*
X0318656Y0311837D01*
X0318740Y0311709D01*
X0318822Y0311579D01*
X0318899Y0311447D01*
X0318974Y0311313D01*
X0319045Y0311177D01*
X0319112Y0311039D01*
X0319176Y0310899D01*
X0319236Y0310758D01*
X0319292Y0310616D01*
X0319345Y0310472D01*
X0319394Y0310326D01*
X0319439Y0310180D01*
X0319480Y0310032D01*
X0319517Y0309884D01*
X0319551Y0309734D01*
X0319581Y0309583D01*
X0319606Y0309432D01*
X0319628Y0309281D01*
X0319646Y0309128D01*
X0319660Y0308976D01*
X0319670Y0308823D01*
X0319676Y0308669D01*
X0319678Y0308516D01*
X0319676Y0308363D01*
X0319670Y0308209D01*
X0319660Y0308056D01*
X0319646Y0307904D01*
X0319628Y0307751D01*
X0319606Y0307600D01*
X0319581Y0307449D01*
X0319551Y0307298D01*
X0319517Y0307148D01*
X0319480Y0307000D01*
X0319439Y0306852D01*
X0319394Y0306706D01*
X0319345Y0306560D01*
X0319292Y0306416D01*
X0319236Y0306274D01*
X0319176Y0306133D01*
X0319112Y0305993D01*
X0319045Y0305855D01*
X0318974Y0305719D01*
X0318899Y0305585D01*
X0318822Y0305453D01*
X0318740Y0305323D01*
X0318656Y0305195D01*
X0318568Y0305069D01*
X0318477Y0304946D01*
X0318383Y0304825D01*
X0318285Y0304707D01*
X0318185Y0304591D01*
X0318081Y0304478D01*
X0317975Y0304367D01*
X0317866Y0304259D01*
X0317754Y0304154D01*
X0317640Y0304053D01*
X0317522Y0303954D01*
X0317403Y0303858D01*
X0317281Y0303765D01*
X0317156Y0303676D01*
X0317029Y0303589D01*
X0316900Y0303507D01*
X0316769Y0303427D01*
X0316636Y0303351D01*
X0316501Y0303278D01*
X0316364Y0303209D01*
X0316225Y0303144D01*
X0316085Y0303082D01*
X0315943Y0303024D01*
X0315800Y0302969D01*
X0315655Y0302918D01*
X0315509Y0302871D01*
X0315362Y0302828D01*
X0315214Y0302789D01*
X0315065Y0302753D01*
X0314915Y0302722D01*
X0314764Y0302694D01*
X0314613Y0302670D01*
X0314460Y0302650D01*
X0314308Y0302634D01*
X0314155Y0302622D01*
X0314002Y0302614D01*
X0313849Y0302610D01*
X0313695Y0302610D01*
X0313542Y0302614D01*
X0313389Y0302622D01*
X0313236Y0302634D01*
X0313084Y0302650D01*
X0312931Y0302670D01*
X0312780Y0302694D01*
X0312629Y0302722D01*
X0312479Y0302753D01*
X0312330Y0302789D01*
X0312182Y0302828D01*
X0312035Y0302871D01*
X0311889Y0302918D01*
X0311744Y0302969D01*
X0311601Y0303024D01*
X0311459Y0303082D01*
X0311319Y0303144D01*
X0311180Y0303209D01*
X0311043Y0303278D01*
X0310908Y0303351D01*
X0310775Y0303427D01*
X0310644Y0303507D01*
X0310515Y0303589D01*
X0310388Y0303676D01*
X0310263Y0303765D01*
X0310141Y0303858D01*
X0310022Y0303954D01*
X0309904Y0304053D01*
X0309790Y0304154D01*
X0309678Y0304259D01*
X0309569Y0304367D01*
X0309463Y0304478D01*
X0309359Y0304591D01*
X0309259Y0304707D01*
X0309161Y0304825D01*
X0309067Y0304946D01*
X0308976Y0305069D01*
X0308888Y0305195D01*
X0308804Y0305323D01*
X0308722Y0305453D01*
X0308645Y0305585D01*
X0308570Y0305719D01*
X0308499Y0305855D01*
X0308432Y0305993D01*
X0308368Y0306133D01*
X0308308Y0306274D01*
X0308252Y0306416D01*
X0308199Y0306560D01*
X0308150Y0306706D01*
X0308105Y0306852D01*
X0308064Y0307000D01*
X0308027Y0307148D01*
X0307993Y0307298D01*
X0307963Y0307449D01*
X0307938Y0307600D01*
X0307916Y0307751D01*
X0307898Y0307904D01*
X0307884Y0308056D01*
X0307874Y0308209D01*
X0307868Y0308363D01*
X0307866Y0308516D01*
X0370110Y0299776D02*
X0370112Y0299929D01*
X0370118Y0300083D01*
X0370128Y0300236D01*
X0370142Y0300388D01*
X0370160Y0300541D01*
X0370182Y0300692D01*
X0370207Y0300843D01*
X0370237Y0300994D01*
X0370271Y0301144D01*
X0370308Y0301292D01*
X0370349Y0301440D01*
X0370394Y0301586D01*
X0370443Y0301732D01*
X0370496Y0301876D01*
X0370552Y0302018D01*
X0370612Y0302159D01*
X0370676Y0302299D01*
X0370743Y0302437D01*
X0370814Y0302573D01*
X0370889Y0302707D01*
X0370966Y0302839D01*
X0371048Y0302969D01*
X0371132Y0303097D01*
X0371220Y0303223D01*
X0371311Y0303346D01*
X0371405Y0303467D01*
X0371503Y0303585D01*
X0371603Y0303701D01*
X0371707Y0303814D01*
X0371813Y0303925D01*
X0371922Y0304033D01*
X0372034Y0304138D01*
X0372148Y0304239D01*
X0372266Y0304338D01*
X0372385Y0304434D01*
X0372507Y0304527D01*
X0372632Y0304616D01*
X0372759Y0304703D01*
X0372888Y0304785D01*
X0373019Y0304865D01*
X0373152Y0304941D01*
X0373287Y0305014D01*
X0373424Y0305083D01*
X0373563Y0305148D01*
X0373703Y0305210D01*
X0373845Y0305268D01*
X0373988Y0305323D01*
X0374133Y0305374D01*
X0374279Y0305421D01*
X0374426Y0305464D01*
X0374574Y0305503D01*
X0374723Y0305539D01*
X0374873Y0305570D01*
X0375024Y0305598D01*
X0375175Y0305622D01*
X0375328Y0305642D01*
X0375480Y0305658D01*
X0375633Y0305670D01*
X0375786Y0305678D01*
X0375939Y0305682D01*
X0376093Y0305682D01*
X0376246Y0305678D01*
X0376399Y0305670D01*
X0376552Y0305658D01*
X0376704Y0305642D01*
X0376857Y0305622D01*
X0377008Y0305598D01*
X0377159Y0305570D01*
X0377309Y0305539D01*
X0377458Y0305503D01*
X0377606Y0305464D01*
X0377753Y0305421D01*
X0377899Y0305374D01*
X0378044Y0305323D01*
X0378187Y0305268D01*
X0378329Y0305210D01*
X0378469Y0305148D01*
X0378608Y0305083D01*
X0378745Y0305014D01*
X0378880Y0304941D01*
X0379013Y0304865D01*
X0379144Y0304785D01*
X0379273Y0304703D01*
X0379400Y0304616D01*
X0379525Y0304527D01*
X0379647Y0304434D01*
X0379766Y0304338D01*
X0379884Y0304239D01*
X0379998Y0304138D01*
X0380110Y0304033D01*
X0380219Y0303925D01*
X0380325Y0303814D01*
X0380429Y0303701D01*
X0380529Y0303585D01*
X0380627Y0303467D01*
X0380721Y0303346D01*
X0380812Y0303223D01*
X0380900Y0303097D01*
X0380984Y0302969D01*
X0381066Y0302839D01*
X0381143Y0302707D01*
X0381218Y0302573D01*
X0381289Y0302437D01*
X0381356Y0302299D01*
X0381420Y0302159D01*
X0381480Y0302018D01*
X0381536Y0301876D01*
X0381589Y0301732D01*
X0381638Y0301586D01*
X0381683Y0301440D01*
X0381724Y0301292D01*
X0381761Y0301144D01*
X0381795Y0300994D01*
X0381825Y0300843D01*
X0381850Y0300692D01*
X0381872Y0300541D01*
X0381890Y0300388D01*
X0381904Y0300236D01*
X0381914Y0300083D01*
X0381920Y0299929D01*
X0381922Y0299776D01*
X0381920Y0299623D01*
X0381914Y0299469D01*
X0381904Y0299316D01*
X0381890Y0299164D01*
X0381872Y0299011D01*
X0381850Y0298860D01*
X0381825Y0298709D01*
X0381795Y0298558D01*
X0381761Y0298408D01*
X0381724Y0298260D01*
X0381683Y0298112D01*
X0381638Y0297966D01*
X0381589Y0297820D01*
X0381536Y0297676D01*
X0381480Y0297534D01*
X0381420Y0297393D01*
X0381356Y0297253D01*
X0381289Y0297115D01*
X0381218Y0296979D01*
X0381143Y0296845D01*
X0381066Y0296713D01*
X0380984Y0296583D01*
X0380900Y0296455D01*
X0380812Y0296329D01*
X0380721Y0296206D01*
X0380627Y0296085D01*
X0380529Y0295967D01*
X0380429Y0295851D01*
X0380325Y0295738D01*
X0380219Y0295627D01*
X0380110Y0295519D01*
X0379998Y0295414D01*
X0379884Y0295313D01*
X0379766Y0295214D01*
X0379647Y0295118D01*
X0379525Y0295025D01*
X0379400Y0294936D01*
X0379273Y0294849D01*
X0379144Y0294767D01*
X0379013Y0294687D01*
X0378880Y0294611D01*
X0378745Y0294538D01*
X0378608Y0294469D01*
X0378469Y0294404D01*
X0378329Y0294342D01*
X0378187Y0294284D01*
X0378044Y0294229D01*
X0377899Y0294178D01*
X0377753Y0294131D01*
X0377606Y0294088D01*
X0377458Y0294049D01*
X0377309Y0294013D01*
X0377159Y0293982D01*
X0377008Y0293954D01*
X0376857Y0293930D01*
X0376704Y0293910D01*
X0376552Y0293894D01*
X0376399Y0293882D01*
X0376246Y0293874D01*
X0376093Y0293870D01*
X0375939Y0293870D01*
X0375786Y0293874D01*
X0375633Y0293882D01*
X0375480Y0293894D01*
X0375328Y0293910D01*
X0375175Y0293930D01*
X0375024Y0293954D01*
X0374873Y0293982D01*
X0374723Y0294013D01*
X0374574Y0294049D01*
X0374426Y0294088D01*
X0374279Y0294131D01*
X0374133Y0294178D01*
X0373988Y0294229D01*
X0373845Y0294284D01*
X0373703Y0294342D01*
X0373563Y0294404D01*
X0373424Y0294469D01*
X0373287Y0294538D01*
X0373152Y0294611D01*
X0373019Y0294687D01*
X0372888Y0294767D01*
X0372759Y0294849D01*
X0372632Y0294936D01*
X0372507Y0295025D01*
X0372385Y0295118D01*
X0372266Y0295214D01*
X0372148Y0295313D01*
X0372034Y0295414D01*
X0371922Y0295519D01*
X0371813Y0295627D01*
X0371707Y0295738D01*
X0371603Y0295851D01*
X0371503Y0295967D01*
X0371405Y0296085D01*
X0371311Y0296206D01*
X0371220Y0296329D01*
X0371132Y0296455D01*
X0371048Y0296583D01*
X0370966Y0296713D01*
X0370889Y0296845D01*
X0370814Y0296979D01*
X0370743Y0297115D01*
X0370676Y0297253D01*
X0370612Y0297393D01*
X0370552Y0297534D01*
X0370496Y0297676D01*
X0370443Y0297820D01*
X0370394Y0297966D01*
X0370349Y0298112D01*
X0370308Y0298260D01*
X0370271Y0298408D01*
X0370237Y0298558D01*
X0370207Y0298709D01*
X0370182Y0298860D01*
X0370160Y0299011D01*
X0370142Y0299164D01*
X0370128Y0299316D01*
X0370118Y0299469D01*
X0370112Y0299623D01*
X0370110Y0299776D01*
X0377984Y0024185D02*
X0377986Y0024338D01*
X0377992Y0024492D01*
X0378002Y0024645D01*
X0378016Y0024797D01*
X0378034Y0024950D01*
X0378056Y0025101D01*
X0378081Y0025252D01*
X0378111Y0025403D01*
X0378145Y0025553D01*
X0378182Y0025701D01*
X0378223Y0025849D01*
X0378268Y0025995D01*
X0378317Y0026141D01*
X0378370Y0026285D01*
X0378426Y0026427D01*
X0378486Y0026568D01*
X0378550Y0026708D01*
X0378617Y0026846D01*
X0378688Y0026982D01*
X0378763Y0027116D01*
X0378840Y0027248D01*
X0378922Y0027378D01*
X0379006Y0027506D01*
X0379094Y0027632D01*
X0379185Y0027755D01*
X0379279Y0027876D01*
X0379377Y0027994D01*
X0379477Y0028110D01*
X0379581Y0028223D01*
X0379687Y0028334D01*
X0379796Y0028442D01*
X0379908Y0028547D01*
X0380022Y0028648D01*
X0380140Y0028747D01*
X0380259Y0028843D01*
X0380381Y0028936D01*
X0380506Y0029025D01*
X0380633Y0029112D01*
X0380762Y0029194D01*
X0380893Y0029274D01*
X0381026Y0029350D01*
X0381161Y0029423D01*
X0381298Y0029492D01*
X0381437Y0029557D01*
X0381577Y0029619D01*
X0381719Y0029677D01*
X0381862Y0029732D01*
X0382007Y0029783D01*
X0382153Y0029830D01*
X0382300Y0029873D01*
X0382448Y0029912D01*
X0382597Y0029948D01*
X0382747Y0029979D01*
X0382898Y0030007D01*
X0383049Y0030031D01*
X0383202Y0030051D01*
X0383354Y0030067D01*
X0383507Y0030079D01*
X0383660Y0030087D01*
X0383813Y0030091D01*
X0383967Y0030091D01*
X0384120Y0030087D01*
X0384273Y0030079D01*
X0384426Y0030067D01*
X0384578Y0030051D01*
X0384731Y0030031D01*
X0384882Y0030007D01*
X0385033Y0029979D01*
X0385183Y0029948D01*
X0385332Y0029912D01*
X0385480Y0029873D01*
X0385627Y0029830D01*
X0385773Y0029783D01*
X0385918Y0029732D01*
X0386061Y0029677D01*
X0386203Y0029619D01*
X0386343Y0029557D01*
X0386482Y0029492D01*
X0386619Y0029423D01*
X0386754Y0029350D01*
X0386887Y0029274D01*
X0387018Y0029194D01*
X0387147Y0029112D01*
X0387274Y0029025D01*
X0387399Y0028936D01*
X0387521Y0028843D01*
X0387640Y0028747D01*
X0387758Y0028648D01*
X0387872Y0028547D01*
X0387984Y0028442D01*
X0388093Y0028334D01*
X0388199Y0028223D01*
X0388303Y0028110D01*
X0388403Y0027994D01*
X0388501Y0027876D01*
X0388595Y0027755D01*
X0388686Y0027632D01*
X0388774Y0027506D01*
X0388858Y0027378D01*
X0388940Y0027248D01*
X0389017Y0027116D01*
X0389092Y0026982D01*
X0389163Y0026846D01*
X0389230Y0026708D01*
X0389294Y0026568D01*
X0389354Y0026427D01*
X0389410Y0026285D01*
X0389463Y0026141D01*
X0389512Y0025995D01*
X0389557Y0025849D01*
X0389598Y0025701D01*
X0389635Y0025553D01*
X0389669Y0025403D01*
X0389699Y0025252D01*
X0389724Y0025101D01*
X0389746Y0024950D01*
X0389764Y0024797D01*
X0389778Y0024645D01*
X0389788Y0024492D01*
X0389794Y0024338D01*
X0389796Y0024185D01*
X0389794Y0024032D01*
X0389788Y0023878D01*
X0389778Y0023725D01*
X0389764Y0023573D01*
X0389746Y0023420D01*
X0389724Y0023269D01*
X0389699Y0023118D01*
X0389669Y0022967D01*
X0389635Y0022817D01*
X0389598Y0022669D01*
X0389557Y0022521D01*
X0389512Y0022375D01*
X0389463Y0022229D01*
X0389410Y0022085D01*
X0389354Y0021943D01*
X0389294Y0021802D01*
X0389230Y0021662D01*
X0389163Y0021524D01*
X0389092Y0021388D01*
X0389017Y0021254D01*
X0388940Y0021122D01*
X0388858Y0020992D01*
X0388774Y0020864D01*
X0388686Y0020738D01*
X0388595Y0020615D01*
X0388501Y0020494D01*
X0388403Y0020376D01*
X0388303Y0020260D01*
X0388199Y0020147D01*
X0388093Y0020036D01*
X0387984Y0019928D01*
X0387872Y0019823D01*
X0387758Y0019722D01*
X0387640Y0019623D01*
X0387521Y0019527D01*
X0387399Y0019434D01*
X0387274Y0019345D01*
X0387147Y0019258D01*
X0387018Y0019176D01*
X0386887Y0019096D01*
X0386754Y0019020D01*
X0386619Y0018947D01*
X0386482Y0018878D01*
X0386343Y0018813D01*
X0386203Y0018751D01*
X0386061Y0018693D01*
X0385918Y0018638D01*
X0385773Y0018587D01*
X0385627Y0018540D01*
X0385480Y0018497D01*
X0385332Y0018458D01*
X0385183Y0018422D01*
X0385033Y0018391D01*
X0384882Y0018363D01*
X0384731Y0018339D01*
X0384578Y0018319D01*
X0384426Y0018303D01*
X0384273Y0018291D01*
X0384120Y0018283D01*
X0383967Y0018279D01*
X0383813Y0018279D01*
X0383660Y0018283D01*
X0383507Y0018291D01*
X0383354Y0018303D01*
X0383202Y0018319D01*
X0383049Y0018339D01*
X0382898Y0018363D01*
X0382747Y0018391D01*
X0382597Y0018422D01*
X0382448Y0018458D01*
X0382300Y0018497D01*
X0382153Y0018540D01*
X0382007Y0018587D01*
X0381862Y0018638D01*
X0381719Y0018693D01*
X0381577Y0018751D01*
X0381437Y0018813D01*
X0381298Y0018878D01*
X0381161Y0018947D01*
X0381026Y0019020D01*
X0380893Y0019096D01*
X0380762Y0019176D01*
X0380633Y0019258D01*
X0380506Y0019345D01*
X0380381Y0019434D01*
X0380259Y0019527D01*
X0380140Y0019623D01*
X0380022Y0019722D01*
X0379908Y0019823D01*
X0379796Y0019928D01*
X0379687Y0020036D01*
X0379581Y0020147D01*
X0379477Y0020260D01*
X0379377Y0020376D01*
X0379279Y0020494D01*
X0379185Y0020615D01*
X0379094Y0020738D01*
X0379006Y0020864D01*
X0378922Y0020992D01*
X0378840Y0021122D01*
X0378763Y0021254D01*
X0378688Y0021388D01*
X0378617Y0021524D01*
X0378550Y0021662D01*
X0378486Y0021802D01*
X0378426Y0021943D01*
X0378370Y0022085D01*
X0378317Y0022229D01*
X0378268Y0022375D01*
X0378223Y0022521D01*
X0378182Y0022669D01*
X0378145Y0022817D01*
X0378111Y0022967D01*
X0378081Y0023118D01*
X0378056Y0023269D01*
X0378034Y0023420D01*
X0378016Y0023573D01*
X0378002Y0023725D01*
X0377992Y0023878D01*
X0377986Y0024032D01*
X0377984Y0024185D01*
D11*
X0167000Y0170760D03*
X0159500Y0170760D03*
X0159500Y0178240D03*
X0167000Y0178240D03*
X0159500Y0247010D03*
X0159500Y0254490D03*
X0147000Y0254490D03*
X0147000Y0247010D03*
X0092000Y0105740D03*
X0092000Y0098260D03*
X0062000Y0083240D03*
X0062000Y0075760D03*
X0044500Y0098260D03*
X0044500Y0105740D03*
X0022000Y0083240D03*
X0022000Y0075760D03*
D12*
X0183181Y0154500D03*
X0183181Y0159500D03*
X0183181Y0164500D03*
X0183181Y0169500D03*
X0183181Y0174500D03*
X0183181Y0179500D03*
X0183181Y0184500D03*
X0183181Y0189500D03*
X0183181Y0194500D03*
X0183181Y0199500D03*
X0183181Y0204500D03*
X0183181Y0209500D03*
X0183181Y0214500D03*
X0183181Y0219500D03*
X0220819Y0219500D03*
X0220819Y0214500D03*
X0220819Y0209500D03*
X0220819Y0204500D03*
X0220819Y0199500D03*
X0220819Y0194500D03*
X0220819Y0189500D03*
X0220819Y0184500D03*
X0220819Y0179500D03*
X0220819Y0174500D03*
X0220819Y0169500D03*
X0220819Y0164500D03*
X0220819Y0159500D03*
X0220819Y0154500D03*
D13*
X0239500Y0039500D03*
X0254500Y0039500D03*
X0269500Y0039500D03*
X0284500Y0039500D03*
X0299500Y0039500D03*
X0314500Y0039500D03*
X0329500Y0039500D03*
X0344500Y0039500D03*
X0159500Y0039500D03*
X0144500Y0039500D03*
X0129500Y0039500D03*
X0114500Y0039500D03*
X0099500Y0039500D03*
X0084500Y0039500D03*
X0069500Y0039500D03*
X0054500Y0039500D03*
D14*
X0054500Y0076154D03*
X0054500Y0082846D03*
X0037000Y0098654D03*
X0037000Y0105346D03*
X0014500Y0082846D03*
X0014500Y0076154D03*
X0084500Y0098654D03*
X0084500Y0105346D03*
X0179500Y0118654D03*
X0179500Y0125346D03*
X0197000Y0125346D03*
X0197000Y0118654D03*
X0214500Y0118654D03*
X0214500Y0125346D03*
D15*
X0172000Y0112900D03*
X0167000Y0112900D03*
X0162000Y0112900D03*
X0157000Y0112900D03*
X0152000Y0112900D03*
X0147000Y0112900D03*
X0142000Y0112900D03*
X0137000Y0112900D03*
X0132000Y0112900D03*
X0132000Y0076100D03*
X0137000Y0076100D03*
X0142000Y0076100D03*
X0147000Y0076100D03*
X0152000Y0076100D03*
X0157000Y0076100D03*
X0162000Y0076100D03*
X0167000Y0076100D03*
X0172000Y0076100D03*
X0272000Y0076100D03*
X0277000Y0076100D03*
X0282000Y0076100D03*
X0287000Y0076100D03*
X0292000Y0076100D03*
X0297000Y0076100D03*
X0302000Y0076100D03*
X0307000Y0076100D03*
X0312000Y0076100D03*
X0312000Y0112900D03*
X0307000Y0112900D03*
X0302000Y0112900D03*
X0297000Y0112900D03*
X0292000Y0112900D03*
X0287000Y0112900D03*
X0282000Y0112900D03*
X0277000Y0112900D03*
X0272000Y0112900D03*
D16*
X0108500Y0102000D03*
X0100500Y0098400D03*
X0100500Y0105600D03*
X0078500Y0079500D03*
X0070500Y0075900D03*
X0070500Y0083100D03*
X0053000Y0098400D03*
X0053000Y0105600D03*
X0061000Y0102000D03*
X0038500Y0079500D03*
X0030500Y0075900D03*
X0030500Y0083100D03*
D17*
X0097079Y0260957D03*
X0106921Y0260957D03*
X0106921Y0268831D03*
X0097079Y0268831D03*
D18*
X0078299Y0279500D03*
X0125701Y0279500D03*
X0158634Y0279500D03*
X0210366Y0279500D03*
D19*
X0278732Y0288673D03*
X0295268Y0288673D03*
X0295268Y0310327D03*
X0278732Y0310327D03*
D20*
X0116600Y0242000D03*
X0116600Y0237000D03*
X0116600Y0232000D03*
X0116600Y0227000D03*
X0092400Y0227000D03*
X0092400Y0232000D03*
X0092400Y0237000D03*
X0092400Y0242000D03*
D21*
X0126154Y0232000D03*
X0132846Y0232000D03*
X0132846Y0224500D03*
X0126154Y0224500D03*
D22*
X0187000Y0125000D03*
X0187000Y0119000D03*
X0204500Y0119000D03*
X0204500Y0125000D03*
X0222000Y0125000D03*
X0222000Y0119000D03*
D23*
X0240760Y0282000D03*
X0248240Y0282000D03*
X0248240Y0292000D03*
X0240760Y0292000D03*
D24*
X0198280Y0271701D02*
X0198280Y0265961D01*
X0188437Y0265961D02*
X0188437Y0271701D01*
X0180563Y0271701D02*
X0180563Y0265961D01*
X0170720Y0265961D02*
X0170720Y0271701D01*
D25*
X0119500Y0222000D03*
X0114518Y0219500D03*
X0110750Y0173250D03*
X0105750Y0173250D03*
X0077000Y0142000D03*
X0058250Y0149500D03*
X0090750Y0115750D03*
X0102000Y0123250D03*
X0102000Y0132000D03*
X0057886Y0113250D03*
X0034500Y0109550D03*
X0014500Y0105750D03*
X0014500Y0098250D03*
X0014500Y0090750D03*
X0077000Y0090750D03*
X0087000Y0087000D03*
X0179450Y0111950D03*
X0197050Y0112100D03*
X0214450Y0112000D03*
X0187000Y0149500D03*
X0233250Y0175750D03*
X0249500Y0252000D03*
X0273250Y0252000D03*
D26*
X0249500Y0252000D01*
X0246204Y0250317D02*
X0215286Y0250317D01*
X0215286Y0252315D02*
X0245811Y0252315D01*
X0245811Y0252734D02*
X0245811Y0251266D01*
X0246373Y0249910D01*
X0247410Y0248873D01*
X0248766Y0248311D01*
X0250234Y0248311D01*
X0251414Y0248800D01*
X0270050Y0248800D01*
X0270050Y0238863D01*
X0270537Y0237687D01*
X0271437Y0236787D01*
X0275537Y0232687D01*
X0276437Y0231787D01*
X0277613Y0231300D01*
X0301925Y0231300D01*
X0308800Y0224425D01*
X0308800Y0119000D01*
X0304989Y0119000D01*
X0304500Y0118511D01*
X0304011Y0119000D01*
X0299989Y0119000D01*
X0299500Y0118511D01*
X0299011Y0119000D01*
X0294989Y0119000D01*
X0294500Y0118511D01*
X0294011Y0119000D01*
X0289989Y0119000D01*
X0289500Y0118511D01*
X0289011Y0119000D01*
X0284989Y0119000D01*
X0284500Y0118511D01*
X0284011Y0119000D01*
X0279989Y0119000D01*
X0279500Y0118511D01*
X0279011Y0119000D01*
X0274989Y0119000D01*
X0274500Y0118511D01*
X0274011Y0119000D01*
X0269989Y0119000D01*
X0268700Y0117711D01*
X0268700Y0115700D01*
X0264760Y0115700D01*
X0262300Y0118160D01*
X0262300Y0210057D01*
X0261874Y0211086D01*
X0251874Y0221086D01*
X0251086Y0221874D01*
X0250057Y0222300D01*
X0225756Y0222300D01*
X0225077Y0222980D01*
X0216561Y0222980D01*
X0215286Y0221705D01*
X0215286Y0260050D01*
X0300137Y0260050D01*
X0301313Y0260537D01*
X0302213Y0261437D01*
X0307563Y0266787D01*
X0308463Y0267687D01*
X0308950Y0268863D01*
X0308950Y0298707D01*
X0309562Y0298353D01*
X0312336Y0297610D01*
X0315207Y0297610D01*
X0317981Y0298353D01*
X0320468Y0299789D01*
X0322498Y0301820D01*
X0323934Y0304306D01*
X0324677Y0307080D01*
X0324677Y0309951D01*
X0323934Y0312725D01*
X0322932Y0314461D01*
X0390701Y0314461D01*
X0390701Y0032797D01*
X0390586Y0032912D01*
X0388099Y0034347D01*
X0385326Y0035091D01*
X0382454Y0035091D01*
X0379680Y0034347D01*
X0377194Y0032912D01*
X0375163Y0030881D01*
X0373727Y0028394D01*
X0372984Y0025621D01*
X0372984Y0022749D01*
X0373727Y0019976D01*
X0375163Y0017489D01*
X0377194Y0015458D01*
X0379680Y0014023D01*
X0382454Y0013280D01*
X0385326Y0013280D01*
X0388099Y0014023D01*
X0390586Y0015458D01*
X0390701Y0015573D01*
X0390701Y0009500D01*
X0007000Y0009500D01*
X0007000Y0015573D01*
X0007115Y0015458D01*
X0009602Y0014023D01*
X0012375Y0013280D01*
X0015247Y0013280D01*
X0018020Y0014023D01*
X0020507Y0015458D01*
X0022538Y0017489D01*
X0023973Y0019976D01*
X0024717Y0022749D01*
X0024717Y0025621D01*
X0023973Y0028394D01*
X0022538Y0030881D01*
X0020507Y0032912D01*
X0018020Y0034347D01*
X0015247Y0035091D01*
X0012375Y0035091D01*
X0009602Y0034347D01*
X0007115Y0032912D01*
X0007000Y0032797D01*
X0007000Y0073473D01*
X0007289Y0073354D01*
X0010135Y0073354D01*
X0010135Y0073274D01*
X0011423Y0071985D01*
X0017152Y0071985D01*
X0018136Y0071001D01*
X0019383Y0071001D01*
X0019626Y0070414D01*
X0020414Y0069626D01*
X0022914Y0067126D01*
X0025414Y0064626D01*
X0027126Y0062914D01*
X0032914Y0057126D01*
X0040414Y0049626D01*
X0041443Y0049200D01*
X0050840Y0049200D01*
X0051700Y0048340D01*
X0051700Y0045196D01*
X0050912Y0044870D01*
X0049130Y0043088D01*
X0048166Y0040760D01*
X0048166Y0038240D01*
X0049130Y0035912D01*
X0050912Y0034130D01*
X0053240Y0033166D01*
X0055760Y0033166D01*
X0058088Y0034130D01*
X0059870Y0035912D01*
X0060834Y0038240D01*
X0060834Y0040760D01*
X0059870Y0043088D01*
X0058088Y0044870D01*
X0057300Y0045196D01*
X0057300Y0050057D01*
X0056874Y0051086D01*
X0054374Y0053586D01*
X0053586Y0054374D01*
X0052557Y0054800D01*
X0043160Y0054800D01*
X0036874Y0061086D01*
X0031086Y0066874D01*
X0029374Y0068586D01*
X0026874Y0071086D01*
X0026412Y0071548D01*
X0027153Y0072290D01*
X0027153Y0072600D01*
X0034011Y0072600D01*
X0034511Y0073100D01*
X0043957Y0073100D01*
X0044200Y0073201D01*
X0044200Y0066443D01*
X0044626Y0065414D01*
X0045414Y0064626D01*
X0052914Y0057126D01*
X0053943Y0056700D01*
X0063340Y0056700D01*
X0066700Y0053340D01*
X0066700Y0045196D01*
X0065912Y0044870D01*
X0064130Y0043088D01*
X0063166Y0040760D01*
X0063166Y0038240D01*
X0064130Y0035912D01*
X0065912Y0034130D01*
X0068240Y0033166D01*
X0070760Y0033166D01*
X0073088Y0034130D01*
X0074870Y0035912D01*
X0075834Y0038240D01*
X0075834Y0040760D01*
X0074870Y0043088D01*
X0073088Y0044870D01*
X0072300Y0045196D01*
X0072300Y0055057D01*
X0071874Y0056086D01*
X0066874Y0061086D01*
X0066086Y0061874D01*
X0065057Y0062300D01*
X0055660Y0062300D01*
X0049800Y0068160D01*
X0049800Y0073354D01*
X0050135Y0073354D01*
X0050135Y0073274D01*
X0051423Y0071985D01*
X0057152Y0071985D01*
X0058136Y0071001D01*
X0059200Y0071001D01*
X0059200Y0068943D01*
X0059626Y0067914D01*
X0060414Y0067126D01*
X0062914Y0064626D01*
X0063943Y0064200D01*
X0080840Y0064200D01*
X0081700Y0063340D01*
X0081700Y0045196D01*
X0080912Y0044870D01*
X0079130Y0043088D01*
X0078166Y0040760D01*
X0078166Y0038240D01*
X0079130Y0035912D01*
X0080912Y0034130D01*
X0083240Y0033166D01*
X0085760Y0033166D01*
X0088088Y0034130D01*
X0089870Y0035912D01*
X0090834Y0038240D01*
X0090834Y0040760D01*
X0089870Y0043088D01*
X0088088Y0044870D01*
X0087300Y0045196D01*
X0087300Y0065057D01*
X0086874Y0066086D01*
X0086086Y0066874D01*
X0084374Y0068586D01*
X0083586Y0069374D01*
X0082557Y0069800D01*
X0065660Y0069800D01*
X0064800Y0070660D01*
X0064800Y0071001D01*
X0065864Y0071001D01*
X0067153Y0072290D01*
X0067153Y0072600D01*
X0074011Y0072600D01*
X0074511Y0073100D01*
X0082707Y0073100D01*
X0083736Y0073526D01*
X0084524Y0074314D01*
X0087847Y0077637D01*
X0088813Y0078037D01*
X0089713Y0078937D01*
X0090200Y0080113D01*
X0090200Y0085086D01*
X0090689Y0086266D01*
X0090689Y0087734D01*
X0090127Y0089090D01*
X0089090Y0090127D01*
X0087734Y0090689D01*
X0086266Y0090689D01*
X0084910Y0090127D01*
X0083873Y0089090D01*
X0083311Y0087734D01*
X0083311Y0086266D01*
X0083800Y0085086D01*
X0083800Y0081510D01*
X0083300Y0081010D01*
X0083300Y0081511D01*
X0082011Y0082800D01*
X0075100Y0082800D01*
X0075100Y0083100D01*
X0075100Y0084463D01*
X0074964Y0084972D01*
X0074700Y0085428D01*
X0074328Y0085800D01*
X0073872Y0086064D01*
X0073363Y0086200D01*
X0070500Y0086200D01*
X0070500Y0083100D01*
X0070500Y0083100D01*
X0075100Y0083100D01*
X0070500Y0083100D01*
X0070500Y0083100D01*
X0070500Y0083100D01*
X0065900Y0083100D01*
X0065900Y0083520D01*
X0062280Y0083520D01*
X0062280Y0082961D01*
X0065900Y0082961D01*
X0065900Y0083100D01*
X0070500Y0083100D01*
X0070500Y0086200D01*
X0067637Y0086200D01*
X0067128Y0086064D01*
X0066953Y0085962D01*
X0066953Y0086063D01*
X0066816Y0086571D01*
X0066553Y0087027D01*
X0066181Y0087400D01*
X0065725Y0087663D01*
X0065216Y0087799D01*
X0062280Y0087799D01*
X0062280Y0083520D01*
X0061720Y0083520D01*
X0061720Y0087799D01*
X0058784Y0087799D01*
X0058275Y0087663D01*
X0057819Y0087400D01*
X0057447Y0087027D01*
X0057271Y0086723D01*
X0056929Y0086815D01*
X0054500Y0086815D01*
X0054500Y0082847D01*
X0054500Y0086815D01*
X0052300Y0086815D01*
X0052300Y0087090D01*
X0053160Y0087950D01*
X0068807Y0087950D01*
X0069836Y0088376D01*
X0073571Y0092111D01*
X0073311Y0091484D01*
X0073311Y0090016D01*
X0073873Y0088660D01*
X0074910Y0087623D01*
X0076266Y0087061D01*
X0077734Y0087061D01*
X0079090Y0087623D01*
X0080127Y0088660D01*
X0080689Y0090016D01*
X0080689Y0091484D01*
X0080200Y0092664D01*
X0080200Y0095708D01*
X0081423Y0094485D01*
X0087152Y0094485D01*
X0088136Y0093501D01*
X0091539Y0093501D01*
X0096700Y0088340D01*
X0096700Y0045196D01*
X0095912Y0044870D01*
X0094130Y0043088D01*
X0093166Y0040760D01*
X0093166Y0038240D01*
X0094130Y0035912D01*
X0095912Y0034130D01*
X0098240Y0033166D01*
X0100760Y0033166D01*
X0103088Y0034130D01*
X0104870Y0035912D01*
X0105834Y0038240D01*
X0105834Y0040760D01*
X0104870Y0043088D01*
X0103088Y0044870D01*
X0102300Y0045196D01*
X0102300Y0090057D01*
X0101874Y0091086D01*
X0097860Y0095100D01*
X0104011Y0095100D01*
X0104511Y0095600D01*
X0113957Y0095600D01*
X0114986Y0096026D01*
X0116086Y0097126D01*
X0116874Y0097914D01*
X0117300Y0098943D01*
X0117300Y0107557D01*
X0116874Y0108586D01*
X0114800Y0110660D01*
X0114800Y0113157D01*
X0114374Y0114186D01*
X0111450Y0117110D01*
X0111450Y0150137D01*
X0110963Y0151313D01*
X0110063Y0152213D01*
X0110063Y0152213D01*
X0102700Y0159575D01*
X0102700Y0171083D01*
X0103660Y0170123D01*
X0104161Y0169915D01*
X0104161Y0161689D01*
X0104587Y0160660D01*
X0107333Y0157914D01*
X0108121Y0157126D01*
X0109150Y0156700D01*
X0177644Y0156700D01*
X0177635Y0156691D01*
X0177635Y0152309D01*
X0178923Y0151020D01*
X0187439Y0151020D01*
X0188728Y0152309D01*
X0188728Y0156691D01*
X0188418Y0157000D01*
X0188728Y0157309D01*
X0188728Y0161691D01*
X0188418Y0162000D01*
X0188728Y0162309D01*
X0188728Y0166691D01*
X0188418Y0167000D01*
X0188728Y0167309D01*
X0188728Y0171691D01*
X0188237Y0172181D01*
X0188391Y0172448D01*
X0188528Y0172957D01*
X0188528Y0174500D01*
X0188528Y0176043D01*
X0188391Y0176551D01*
X0188237Y0176819D01*
X0188728Y0177309D01*
X0188728Y0181691D01*
X0188418Y0182000D01*
X0188728Y0182309D01*
X0188728Y0186691D01*
X0188418Y0187000D01*
X0188728Y0187309D01*
X0188728Y0191691D01*
X0188418Y0192000D01*
X0188728Y0192309D01*
X0188728Y0196691D01*
X0188418Y0197000D01*
X0188728Y0197309D01*
X0188728Y0201313D01*
X0189200Y0200840D01*
X0189200Y0146554D01*
X0187893Y0145247D01*
X0161890Y0145247D01*
X0160861Y0144821D01*
X0150414Y0134374D01*
X0149626Y0133586D01*
X0149200Y0132557D01*
X0149200Y0118811D01*
X0149011Y0119000D01*
X0144989Y0119000D01*
X0144500Y0118511D01*
X0144011Y0119000D01*
X0139989Y0119000D01*
X0139500Y0118511D01*
X0139011Y0119000D01*
X0134989Y0119000D01*
X0134500Y0118511D01*
X0134011Y0119000D01*
X0129989Y0119000D01*
X0128700Y0117711D01*
X0128700Y0108089D01*
X0129989Y0106800D01*
X0134011Y0106800D01*
X0134500Y0107289D01*
X0134989Y0106800D01*
X0139011Y0106800D01*
X0139500Y0107289D01*
X0139989Y0106800D01*
X0144011Y0106800D01*
X0144500Y0107289D01*
X0144989Y0106800D01*
X0149011Y0106800D01*
X0149500Y0107289D01*
X0149989Y0106800D01*
X0154011Y0106800D01*
X0154500Y0107289D01*
X0154989Y0106800D01*
X0159011Y0106800D01*
X0159500Y0107289D01*
X0159989Y0106800D01*
X0164011Y0106800D01*
X0164500Y0107289D01*
X0164989Y0106800D01*
X0168800Y0106800D01*
X0168800Y0088115D01*
X0169287Y0086939D01*
X0171787Y0084439D01*
X0172687Y0083539D01*
X0173863Y0083052D01*
X0232637Y0083052D01*
X0233813Y0083539D01*
X0234713Y0084439D01*
X0235063Y0084789D01*
X0235963Y0085689D01*
X0236450Y0086865D01*
X0236450Y0173836D01*
X0236939Y0175016D01*
X0236939Y0176484D01*
X0236377Y0177840D01*
X0235340Y0178877D01*
X0233984Y0179439D01*
X0232516Y0179439D01*
X0231160Y0178877D01*
X0230123Y0177840D01*
X0229561Y0176484D01*
X0229561Y0175016D01*
X0230050Y0173836D01*
X0230050Y0170410D01*
X0228586Y0171874D01*
X0227557Y0172300D01*
X0226356Y0172300D01*
X0226365Y0172309D01*
X0226365Y0176691D01*
X0226056Y0177000D01*
X0226365Y0177309D01*
X0226365Y0181691D01*
X0226356Y0181700D01*
X0238340Y0181700D01*
X0239200Y0180840D01*
X0239200Y0086443D01*
X0239626Y0085414D01*
X0240414Y0084626D01*
X0242914Y0082126D01*
X0243943Y0081700D01*
X0269489Y0081700D01*
X0268700Y0080911D01*
X0268700Y0073225D01*
X0241148Y0045673D01*
X0240760Y0045834D01*
X0238240Y0045834D01*
X0235912Y0044870D01*
X0234130Y0043088D01*
X0233166Y0040760D01*
X0233166Y0038240D01*
X0234130Y0035912D01*
X0235912Y0034130D01*
X0238240Y0033166D01*
X0240760Y0033166D01*
X0243088Y0034130D01*
X0244870Y0035912D01*
X0245834Y0038240D01*
X0245834Y0040760D01*
X0245673Y0041148D01*
X0273800Y0069275D01*
X0273800Y0068325D01*
X0251787Y0046313D01*
X0251300Y0045137D01*
X0251300Y0045030D01*
X0250912Y0044870D01*
X0249130Y0043088D01*
X0248166Y0040760D01*
X0248166Y0038240D01*
X0249130Y0035912D01*
X0250912Y0034130D01*
X0253240Y0033166D01*
X0255760Y0033166D01*
X0258088Y0034130D01*
X0259870Y0035912D01*
X0260834Y0038240D01*
X0260834Y0040760D01*
X0259870Y0043088D01*
X0258741Y0044216D01*
X0278800Y0064275D01*
X0278800Y0063325D01*
X0267687Y0052213D01*
X0266787Y0051313D01*
X0266300Y0050137D01*
X0266300Y0045030D01*
X0265912Y0044870D01*
X0264130Y0043088D01*
X0263166Y0040760D01*
X0263166Y0038240D01*
X0264130Y0035912D01*
X0265912Y0034130D01*
X0268240Y0033166D01*
X0270760Y0033166D01*
X0273088Y0034130D01*
X0274870Y0035912D01*
X0275834Y0038240D01*
X0275834Y0040760D01*
X0274870Y0043088D01*
X0273088Y0044870D01*
X0272700Y0045030D01*
X0272700Y0048175D01*
X0281300Y0056775D01*
X0281300Y0045030D01*
X0280912Y0044870D01*
X0279130Y0043088D01*
X0278166Y0040760D01*
X0278166Y0038240D01*
X0279130Y0035912D01*
X0280912Y0034130D01*
X0283240Y0033166D01*
X0285760Y0033166D01*
X0288088Y0034130D01*
X0289870Y0035912D01*
X0290834Y0038240D01*
X0290834Y0040760D01*
X0289870Y0043088D01*
X0288088Y0044870D01*
X0287700Y0045030D01*
X0287700Y0055675D01*
X0289713Y0057687D01*
X0290200Y0058863D01*
X0290200Y0059275D01*
X0296300Y0053175D01*
X0296300Y0045030D01*
X0295912Y0044870D01*
X0294130Y0043088D01*
X0293166Y0040760D01*
X0293166Y0038240D01*
X0294130Y0035912D01*
X0295912Y0034130D01*
X0298240Y0033166D01*
X0300760Y0033166D01*
X0303088Y0034130D01*
X0304870Y0035912D01*
X0305834Y0038240D01*
X0305834Y0040760D01*
X0304870Y0043088D01*
X0303088Y0044870D01*
X0302700Y0045030D01*
X0302700Y0054275D01*
X0304287Y0052687D01*
X0305187Y0051787D01*
X0306363Y0051300D01*
X0310675Y0051300D01*
X0311300Y0050675D01*
X0311300Y0045030D01*
X0310912Y0044870D01*
X0309130Y0043088D01*
X0308166Y0040760D01*
X0308166Y0038240D01*
X0309130Y0035912D01*
X0310912Y0034130D01*
X0313240Y0033166D01*
X0315760Y0033166D01*
X0318088Y0034130D01*
X0319870Y0035912D01*
X0320834Y0038240D01*
X0320834Y0040760D01*
X0319870Y0043088D01*
X0318088Y0044870D01*
X0317700Y0045030D01*
X0317700Y0052637D01*
X0317213Y0053813D01*
X0316313Y0054713D01*
X0314725Y0056300D01*
X0323175Y0056300D01*
X0326300Y0053175D01*
X0326300Y0045030D01*
X0325912Y0044870D01*
X0324130Y0043088D01*
X0323166Y0040760D01*
X0323166Y0038240D01*
X0324130Y0035912D01*
X0325912Y0034130D01*
X0328240Y0033166D01*
X0330760Y0033166D01*
X0333088Y0034130D01*
X0334870Y0035912D01*
X0335834Y0038240D01*
X0335834Y0040760D01*
X0334870Y0043088D01*
X0333088Y0044870D01*
X0332700Y0045030D01*
X0332700Y0055137D01*
X0332213Y0056313D01*
X0331313Y0057213D01*
X0327225Y0061300D01*
X0338175Y0061300D01*
X0341300Y0058175D01*
X0341300Y0045030D01*
X0340912Y0044870D01*
X0339130Y0043088D01*
X0338166Y0040760D01*
X0338166Y0038240D01*
X0339130Y0035912D01*
X0340912Y0034130D01*
X0343240Y0033166D01*
X0345760Y0033166D01*
X0348088Y0034130D01*
X0349870Y0035912D01*
X0350834Y0038240D01*
X0350834Y0040760D01*
X0349870Y0043088D01*
X0348088Y0044870D01*
X0347700Y0045030D01*
X0347700Y0060137D01*
X0347213Y0061313D01*
X0346313Y0062213D01*
X0341313Y0067213D01*
X0340137Y0067700D01*
X0313325Y0067700D01*
X0310825Y0070200D01*
X0312000Y0070200D01*
X0313363Y0070200D01*
X0313872Y0070336D01*
X0314328Y0070600D01*
X0314700Y0070972D01*
X0314964Y0071428D01*
X0315100Y0071937D01*
X0315100Y0076100D01*
X0315100Y0080263D01*
X0314964Y0080772D01*
X0314700Y0081228D01*
X0314328Y0081600D01*
X0313872Y0081864D01*
X0313363Y0082000D01*
X0312000Y0082000D01*
X0312000Y0076100D01*
X0312000Y0076100D01*
X0315100Y0076100D01*
X0312000Y0076100D01*
X0312000Y0076100D01*
X0312000Y0082000D01*
X0310637Y0082000D01*
X0310128Y0081864D01*
X0309672Y0081600D01*
X0309641Y0081570D01*
X0309011Y0082200D01*
X0306160Y0082200D01*
X0306874Y0082914D01*
X0309374Y0085414D01*
X0309800Y0086443D01*
X0309800Y0106989D01*
X0309989Y0106800D01*
X0314011Y0106800D01*
X0315300Y0108089D01*
X0315300Y0117711D01*
X0315200Y0117811D01*
X0315200Y0226387D01*
X0314713Y0227563D01*
X0305963Y0236313D01*
X0305063Y0237213D01*
X0303887Y0237700D01*
X0279575Y0237700D01*
X0276450Y0240825D01*
X0276450Y0250086D01*
X0276939Y0251266D01*
X0276939Y0252734D01*
X0276377Y0254090D01*
X0275340Y0255127D01*
X0273984Y0255689D01*
X0272516Y0255689D01*
X0271336Y0255200D01*
X0251414Y0255200D01*
X0250234Y0255689D01*
X0248766Y0255689D01*
X0247410Y0255127D01*
X0246373Y0254090D01*
X0245811Y0252734D01*
X0246597Y0254314D02*
X0215286Y0254314D01*
X0215286Y0256312D02*
X0390701Y0256312D01*
X0390701Y0254314D02*
X0276153Y0254314D01*
X0276939Y0252315D02*
X0390701Y0252315D01*
X0390701Y0250317D02*
X0276546Y0250317D01*
X0276450Y0248318D02*
X0390701Y0248318D01*
X0390701Y0246320D02*
X0276450Y0246320D01*
X0276450Y0244321D02*
X0390701Y0244321D01*
X0390701Y0242323D02*
X0276450Y0242323D01*
X0276951Y0240324D02*
X0390701Y0240324D01*
X0390701Y0238326D02*
X0278950Y0238326D01*
X0278250Y0234500D02*
X0303250Y0234500D01*
X0312000Y0225750D01*
X0312000Y0214500D01*
X0312000Y0128250D01*
X0312000Y0112900D01*
X0315300Y0112420D02*
X0390701Y0112420D01*
X0390701Y0114418D02*
X0315300Y0114418D01*
X0315300Y0116417D02*
X0390701Y0116417D01*
X0390701Y0118415D02*
X0315200Y0118415D01*
X0315200Y0120414D02*
X0390701Y0120414D01*
X0390701Y0122412D02*
X0315200Y0122412D01*
X0315200Y0124411D02*
X0390701Y0124411D01*
X0390701Y0126409D02*
X0315200Y0126409D01*
X0315200Y0128408D02*
X0390701Y0128408D01*
X0390701Y0130406D02*
X0315200Y0130406D01*
X0315200Y0132405D02*
X0390701Y0132405D01*
X0390701Y0134403D02*
X0315200Y0134403D01*
X0315200Y0136402D02*
X0390701Y0136402D01*
X0390701Y0138400D02*
X0315200Y0138400D01*
X0315200Y0140399D02*
X0390701Y0140399D01*
X0390701Y0142397D02*
X0315200Y0142397D01*
X0315200Y0144396D02*
X0390701Y0144396D01*
X0390701Y0146394D02*
X0315200Y0146394D01*
X0315200Y0148393D02*
X0390701Y0148393D01*
X0390701Y0150391D02*
X0315200Y0150391D01*
X0315200Y0152390D02*
X0390701Y0152390D01*
X0390701Y0154388D02*
X0315200Y0154388D01*
X0315200Y0156387D02*
X0390701Y0156387D01*
X0390701Y0158385D02*
X0315200Y0158385D01*
X0315200Y0160384D02*
X0390701Y0160384D01*
X0390701Y0162382D02*
X0315200Y0162382D01*
X0315200Y0164381D02*
X0390701Y0164381D01*
X0390701Y0166379D02*
X0315200Y0166379D01*
X0315200Y0168378D02*
X0390701Y0168378D01*
X0390701Y0170376D02*
X0315200Y0170376D01*
X0315200Y0172375D02*
X0390701Y0172375D01*
X0390701Y0174373D02*
X0315200Y0174373D01*
X0315200Y0176372D02*
X0390701Y0176372D01*
X0390701Y0178370D02*
X0315200Y0178370D01*
X0315200Y0180369D02*
X0390701Y0180369D01*
X0390701Y0182368D02*
X0315200Y0182368D01*
X0315200Y0184366D02*
X0390701Y0184366D01*
X0390701Y0186365D02*
X0315200Y0186365D01*
X0315200Y0188363D02*
X0390701Y0188363D01*
X0390701Y0190362D02*
X0315200Y0190362D01*
X0315200Y0192360D02*
X0390701Y0192360D01*
X0390701Y0194359D02*
X0315200Y0194359D01*
X0315200Y0196357D02*
X0390701Y0196357D01*
X0390701Y0198356D02*
X0315200Y0198356D01*
X0315200Y0200354D02*
X0390701Y0200354D01*
X0390701Y0202353D02*
X0315200Y0202353D01*
X0315200Y0204351D02*
X0390701Y0204351D01*
X0390701Y0206350D02*
X0315200Y0206350D01*
X0315200Y0208348D02*
X0390701Y0208348D01*
X0390701Y0210347D02*
X0315200Y0210347D01*
X0315200Y0212345D02*
X0390701Y0212345D01*
X0390701Y0214344D02*
X0315200Y0214344D01*
X0315200Y0216342D02*
X0390701Y0216342D01*
X0390701Y0218341D02*
X0315200Y0218341D01*
X0315200Y0220339D02*
X0390701Y0220339D01*
X0390701Y0222338D02*
X0315200Y0222338D01*
X0315200Y0224336D02*
X0390701Y0224336D01*
X0390701Y0226335D02*
X0315200Y0226335D01*
X0313942Y0228333D02*
X0390701Y0228333D01*
X0390701Y0230332D02*
X0311944Y0230332D01*
X0309945Y0232330D02*
X0390701Y0232330D01*
X0390701Y0234329D02*
X0307947Y0234329D01*
X0305948Y0236327D02*
X0390701Y0236327D01*
X0390701Y0258311D02*
X0215286Y0258311D01*
X0212086Y0263250D02*
X0212086Y0175836D01*
X0212000Y0175750D01*
X0212000Y0170750D01*
X0213250Y0169500D01*
X0220819Y0169500D01*
X0226365Y0172375D02*
X0230050Y0172375D01*
X0229827Y0174373D02*
X0226365Y0174373D01*
X0226365Y0176372D02*
X0229561Y0176372D01*
X0230653Y0178370D02*
X0226365Y0178370D01*
X0226365Y0180369D02*
X0239200Y0180369D01*
X0239200Y0178370D02*
X0235846Y0178370D01*
X0236939Y0176372D02*
X0239200Y0176372D01*
X0239200Y0174373D02*
X0236673Y0174373D01*
X0236450Y0172375D02*
X0239200Y0172375D01*
X0239200Y0170376D02*
X0236450Y0170376D01*
X0236450Y0168378D02*
X0239200Y0168378D01*
X0239200Y0166379D02*
X0236450Y0166379D01*
X0236450Y0164381D02*
X0239200Y0164381D01*
X0239200Y0162382D02*
X0236450Y0162382D01*
X0236450Y0160384D02*
X0239200Y0160384D01*
X0239200Y0158385D02*
X0236450Y0158385D01*
X0236450Y0156387D02*
X0239200Y0156387D01*
X0239200Y0154388D02*
X0236450Y0154388D01*
X0236450Y0152390D02*
X0239200Y0152390D01*
X0239200Y0150391D02*
X0236450Y0150391D01*
X0236450Y0148393D02*
X0239200Y0148393D01*
X0239200Y0146394D02*
X0236450Y0146394D01*
X0236450Y0144396D02*
X0239200Y0144396D01*
X0239200Y0142397D02*
X0236450Y0142397D01*
X0236450Y0140399D02*
X0239200Y0140399D01*
X0239200Y0138400D02*
X0236450Y0138400D01*
X0236450Y0136402D02*
X0239200Y0136402D01*
X0239200Y0134403D02*
X0236450Y0134403D01*
X0236450Y0132405D02*
X0239200Y0132405D01*
X0239200Y0130406D02*
X0236450Y0130406D01*
X0236450Y0128408D02*
X0239200Y0128408D01*
X0239200Y0126409D02*
X0236450Y0126409D01*
X0236450Y0124411D02*
X0239200Y0124411D01*
X0239200Y0122412D02*
X0236450Y0122412D01*
X0236450Y0120414D02*
X0239200Y0120414D01*
X0239200Y0118415D02*
X0236450Y0118415D01*
X0236450Y0116417D02*
X0239200Y0116417D01*
X0239200Y0114418D02*
X0236450Y0114418D01*
X0236450Y0112420D02*
X0239200Y0112420D01*
X0239200Y0110421D02*
X0236450Y0110421D01*
X0236450Y0108423D02*
X0239200Y0108423D01*
X0239200Y0106424D02*
X0236450Y0106424D01*
X0236450Y0104426D02*
X0239200Y0104426D01*
X0239200Y0102427D02*
X0236450Y0102427D01*
X0236450Y0100429D02*
X0239200Y0100429D01*
X0239200Y0098430D02*
X0236450Y0098430D01*
X0236450Y0096432D02*
X0239200Y0096432D01*
X0239200Y0094433D02*
X0236450Y0094433D01*
X0236450Y0092434D02*
X0239200Y0092434D01*
X0239200Y0090436D02*
X0236450Y0090436D01*
X0236450Y0088437D02*
X0239200Y0088437D01*
X0239202Y0086439D02*
X0236273Y0086439D01*
X0234714Y0084440D02*
X0240600Y0084440D01*
X0242598Y0082442D02*
X0102300Y0082442D01*
X0102300Y0084440D02*
X0171786Y0084440D01*
X0172000Y0082000D02*
X0170637Y0082000D01*
X0170128Y0081864D01*
X0169672Y0081600D01*
X0169641Y0081570D01*
X0169011Y0082200D01*
X0164989Y0082200D01*
X0164500Y0081711D01*
X0164011Y0082200D01*
X0159989Y0082200D01*
X0159500Y0081711D01*
X0159011Y0082200D01*
X0154989Y0082200D01*
X0154500Y0081711D01*
X0154011Y0082200D01*
X0149989Y0082200D01*
X0149500Y0081711D01*
X0149011Y0082200D01*
X0144989Y0082200D01*
X0144500Y0081711D01*
X0144011Y0082200D01*
X0139989Y0082200D01*
X0139500Y0081711D01*
X0139011Y0082200D01*
X0134989Y0082200D01*
X0134500Y0081711D01*
X0134011Y0082200D01*
X0129989Y0082200D01*
X0128700Y0080911D01*
X0128700Y0071289D01*
X0129989Y0070000D01*
X0134011Y0070000D01*
X0134500Y0070489D01*
X0134989Y0070000D01*
X0139011Y0070000D01*
X0139500Y0070489D01*
X0139989Y0070000D01*
X0144011Y0070000D01*
X0144500Y0070489D01*
X0144989Y0070000D01*
X0148800Y0070000D01*
X0148800Y0063325D01*
X0145675Y0060200D01*
X0121363Y0060200D01*
X0120187Y0059713D01*
X0111787Y0051313D01*
X0111300Y0050137D01*
X0111300Y0045030D01*
X0110912Y0044870D01*
X0109130Y0043088D01*
X0108166Y0040760D01*
X0108166Y0038240D01*
X0109130Y0035912D01*
X0110912Y0034130D01*
X0113240Y0033166D01*
X0115760Y0033166D01*
X0118088Y0034130D01*
X0119870Y0035912D01*
X0120834Y0038240D01*
X0120834Y0040760D01*
X0119870Y0043088D01*
X0118088Y0044870D01*
X0117700Y0045030D01*
X0117700Y0048175D01*
X0123325Y0053800D01*
X0134275Y0053800D01*
X0126787Y0046313D01*
X0126300Y0045137D01*
X0126300Y0045030D01*
X0125912Y0044870D01*
X0124130Y0043088D01*
X0123166Y0040760D01*
X0123166Y0038240D01*
X0124130Y0035912D01*
X0125912Y0034130D01*
X0128240Y0033166D01*
X0130760Y0033166D01*
X0133088Y0034130D01*
X0134870Y0035912D01*
X0135834Y0038240D01*
X0135834Y0040760D01*
X0134870Y0043088D01*
X0133741Y0044216D01*
X0138325Y0048800D01*
X0149275Y0048800D01*
X0146148Y0045673D01*
X0145760Y0045834D01*
X0143240Y0045834D01*
X0140912Y0044870D01*
X0139130Y0043088D01*
X0138166Y0040760D01*
X0138166Y0038240D01*
X0139130Y0035912D01*
X0140912Y0034130D01*
X0143240Y0033166D01*
X0145760Y0033166D01*
X0148088Y0034130D01*
X0149870Y0035912D01*
X0150834Y0038240D01*
X0150834Y0040760D01*
X0150673Y0041148D01*
X0163800Y0054275D01*
X0163800Y0048325D01*
X0161148Y0045673D01*
X0160760Y0045834D01*
X0158240Y0045834D01*
X0155912Y0044870D01*
X0154130Y0043088D01*
X0153166Y0040760D01*
X0153166Y0038240D01*
X0154130Y0035912D01*
X0155912Y0034130D01*
X0158240Y0033166D01*
X0160760Y0033166D01*
X0163088Y0034130D01*
X0164870Y0035912D01*
X0165834Y0038240D01*
X0165834Y0040760D01*
X0165673Y0041148D01*
X0169713Y0045187D01*
X0170200Y0046363D01*
X0170200Y0070317D01*
X0170637Y0070200D01*
X0172000Y0070200D01*
X0173363Y0070200D01*
X0173872Y0070336D01*
X0174328Y0070600D01*
X0174700Y0070972D01*
X0174964Y0071428D01*
X0175100Y0071937D01*
X0175100Y0076100D01*
X0175100Y0080263D01*
X0174964Y0080772D01*
X0174700Y0081228D01*
X0174328Y0081600D01*
X0173872Y0081864D01*
X0173363Y0082000D01*
X0172000Y0082000D01*
X0172000Y0076100D01*
X0172000Y0076100D01*
X0175100Y0076100D01*
X0172000Y0076100D01*
X0172000Y0076100D01*
X0172000Y0082000D01*
X0172000Y0080443D02*
X0172000Y0080443D01*
X0172000Y0078445D02*
X0172000Y0078445D01*
X0172000Y0076446D02*
X0172000Y0076446D01*
X0172000Y0076100D02*
X0172000Y0070200D01*
X0172000Y0076100D01*
X0172000Y0076100D01*
X0172000Y0074448D02*
X0172000Y0074448D01*
X0172000Y0072449D02*
X0172000Y0072449D01*
X0172000Y0070451D02*
X0172000Y0070451D01*
X0174070Y0070451D02*
X0265925Y0070451D01*
X0263927Y0068452D02*
X0170200Y0068452D01*
X0170200Y0066454D02*
X0261928Y0066454D01*
X0259930Y0064455D02*
X0170200Y0064455D01*
X0170200Y0062457D02*
X0257931Y0062457D01*
X0255933Y0060458D02*
X0170200Y0060458D01*
X0170200Y0058460D02*
X0253934Y0058460D01*
X0251936Y0056461D02*
X0170200Y0056461D01*
X0170200Y0054463D02*
X0249937Y0054463D01*
X0247939Y0052464D02*
X0170200Y0052464D01*
X0170200Y0050466D02*
X0245940Y0050466D01*
X0243942Y0048467D02*
X0170200Y0048467D01*
X0170200Y0046469D02*
X0241943Y0046469D01*
X0235513Y0044470D02*
X0168996Y0044470D01*
X0166997Y0042472D02*
X0233875Y0042472D01*
X0233166Y0040473D02*
X0165834Y0040473D01*
X0165834Y0038475D02*
X0233166Y0038475D01*
X0233897Y0036476D02*
X0165103Y0036476D01*
X0163435Y0034478D02*
X0235565Y0034478D01*
X0239500Y0039500D02*
X0272000Y0072000D01*
X0272000Y0076100D01*
X0268700Y0076446D02*
X0175100Y0076446D01*
X0175100Y0074448D02*
X0268700Y0074448D01*
X0267924Y0072449D02*
X0175100Y0072449D01*
X0175100Y0078445D02*
X0268700Y0078445D01*
X0268700Y0080443D02*
X0175052Y0080443D01*
X0174500Y0086252D02*
X0232000Y0086252D01*
X0233250Y0087502D01*
X0233250Y0175750D01*
X0215282Y0156700D02*
X0208160Y0156700D01*
X0207300Y0155840D01*
X0207300Y0129500D01*
X0208561Y0129500D01*
X0209850Y0128211D01*
X0209850Y0115789D01*
X0208561Y0114500D01*
X0207300Y0114500D01*
X0207300Y0109800D01*
X0225840Y0109800D01*
X0226700Y0110660D01*
X0226700Y0115139D01*
X0226061Y0114500D01*
X0217939Y0114500D01*
X0217551Y0114887D01*
X0217437Y0114821D01*
X0216929Y0114685D01*
X0214500Y0114685D01*
X0214500Y0118653D01*
X0214500Y0118653D01*
X0214500Y0114685D01*
X0212071Y0114685D01*
X0211563Y0114821D01*
X0211107Y0115085D01*
X0210734Y0115457D01*
X0210471Y0115913D01*
X0210335Y0116422D01*
X0210335Y0118653D01*
X0214500Y0118653D01*
X0214500Y0118654D01*
X0210335Y0118654D01*
X0210335Y0120885D01*
X0210471Y0121394D01*
X0210734Y0121850D01*
X0210743Y0121859D01*
X0210135Y0122467D01*
X0210135Y0128226D01*
X0211423Y0129515D01*
X0217577Y0129515D01*
X0217765Y0129326D01*
X0217939Y0129500D01*
X0219200Y0129500D01*
X0219200Y0151020D01*
X0216561Y0151020D01*
X0215272Y0152309D01*
X0215272Y0156691D01*
X0215282Y0156700D01*
X0215272Y0156387D02*
X0207847Y0156387D01*
X0207300Y0154388D02*
X0215272Y0154388D01*
X0215272Y0152390D02*
X0207300Y0152390D01*
X0207300Y0150391D02*
X0219200Y0150391D01*
X0219200Y0148393D02*
X0207300Y0148393D01*
X0207300Y0146394D02*
X0219200Y0146394D01*
X0219200Y0144396D02*
X0207300Y0144396D01*
X0207300Y0142397D02*
X0219200Y0142397D01*
X0219200Y0140399D02*
X0207300Y0140399D01*
X0207300Y0138400D02*
X0219200Y0138400D01*
X0219200Y0136402D02*
X0207300Y0136402D01*
X0207300Y0134403D02*
X0219200Y0134403D01*
X0219200Y0132405D02*
X0207300Y0132405D01*
X0207300Y0130406D02*
X0219200Y0130406D01*
X0210316Y0128408D02*
X0209654Y0128408D01*
X0209850Y0126409D02*
X0210135Y0126409D01*
X0210135Y0124411D02*
X0209850Y0124411D01*
X0209850Y0122412D02*
X0210189Y0122412D01*
X0210335Y0120414D02*
X0209850Y0120414D01*
X0209850Y0118415D02*
X0210335Y0118415D01*
X0210336Y0116417D02*
X0209850Y0116417D01*
X0207300Y0114418D02*
X0226700Y0114418D01*
X0226700Y0112420D02*
X0207300Y0112420D01*
X0207300Y0110421D02*
X0226461Y0110421D01*
X0230050Y0106090D02*
X0230050Y0089452D01*
X0175825Y0089452D01*
X0175200Y0090077D01*
X0175200Y0107989D01*
X0175300Y0108089D01*
X0175300Y0117711D01*
X0174011Y0119000D01*
X0169989Y0119000D01*
X0169800Y0118811D01*
X0169800Y0130840D01*
X0170660Y0131700D01*
X0185240Y0131700D01*
X0184626Y0131086D01*
X0184200Y0130057D01*
X0184200Y0129500D01*
X0182939Y0129500D01*
X0182765Y0129326D01*
X0182577Y0129515D01*
X0176423Y0129515D01*
X0175135Y0128226D01*
X0175135Y0122467D01*
X0175743Y0121859D01*
X0175734Y0121850D01*
X0175471Y0121394D01*
X0175335Y0120885D01*
X0175335Y0118654D01*
X0179500Y0118654D01*
X0179500Y0118653D01*
X0179500Y0114685D01*
X0181929Y0114685D01*
X0182437Y0114821D01*
X0182551Y0114887D01*
X0182939Y0114500D01*
X0184200Y0114500D01*
X0184200Y0108943D01*
X0184626Y0107914D01*
X0187126Y0105414D01*
X0187914Y0104626D01*
X0188943Y0104200D01*
X0227557Y0104200D01*
X0228586Y0104626D01*
X0230050Y0106090D01*
X0230050Y0104426D02*
X0228102Y0104426D01*
X0230050Y0102427D02*
X0175200Y0102427D01*
X0175200Y0100429D02*
X0230050Y0100429D01*
X0230050Y0098430D02*
X0175200Y0098430D01*
X0175200Y0096432D02*
X0230050Y0096432D01*
X0230050Y0094433D02*
X0175200Y0094433D01*
X0175200Y0092434D02*
X0230050Y0092434D01*
X0230050Y0090436D02*
X0175200Y0090436D01*
X0172000Y0088752D02*
X0174500Y0086252D01*
X0172000Y0088752D02*
X0172000Y0112900D01*
X0175300Y0112420D02*
X0184200Y0112420D01*
X0184200Y0114418D02*
X0175300Y0114418D01*
X0176107Y0115085D02*
X0176563Y0114821D01*
X0177071Y0114685D01*
X0179500Y0114685D01*
X0179500Y0118653D01*
X0179500Y0118653D01*
X0175335Y0118653D01*
X0175335Y0116422D01*
X0175471Y0115913D01*
X0175734Y0115457D01*
X0176107Y0115085D01*
X0175336Y0116417D02*
X0175300Y0116417D01*
X0175335Y0118415D02*
X0174596Y0118415D01*
X0175335Y0120414D02*
X0169800Y0120414D01*
X0169800Y0122412D02*
X0175189Y0122412D01*
X0175135Y0124411D02*
X0169800Y0124411D01*
X0169800Y0126409D02*
X0175135Y0126409D01*
X0175316Y0128408D02*
X0169800Y0128408D01*
X0169800Y0130406D02*
X0184345Y0130406D01*
X0191361Y0129200D02*
X0193608Y0129200D01*
X0192635Y0128226D01*
X0192635Y0122467D01*
X0193243Y0121859D01*
X0193234Y0121850D01*
X0192971Y0121394D01*
X0192835Y0120885D01*
X0192835Y0118654D01*
X0197000Y0118654D01*
X0197000Y0118653D01*
X0197000Y0114685D01*
X0199429Y0114685D01*
X0199937Y0114821D01*
X0200051Y0114887D01*
X0200439Y0114500D01*
X0201700Y0114500D01*
X0201700Y0109800D01*
X0190660Y0109800D01*
X0189800Y0110660D01*
X0189800Y0114500D01*
X0191061Y0114500D01*
X0192350Y0115789D01*
X0192350Y0128211D01*
X0191361Y0129200D01*
X0192154Y0128408D02*
X0192816Y0128408D01*
X0192635Y0126409D02*
X0192350Y0126409D01*
X0192350Y0124411D02*
X0192635Y0124411D01*
X0192689Y0122412D02*
X0192350Y0122412D01*
X0192350Y0120414D02*
X0192835Y0120414D01*
X0192835Y0118653D02*
X0192835Y0116422D01*
X0192971Y0115913D01*
X0193234Y0115457D01*
X0193607Y0115085D01*
X0194063Y0114821D01*
X0194571Y0114685D01*
X0197000Y0114685D01*
X0197000Y0118653D01*
X0197000Y0118653D01*
X0192835Y0118653D01*
X0192835Y0118415D02*
X0192350Y0118415D01*
X0192350Y0116417D02*
X0192836Y0116417D01*
X0189800Y0114418D02*
X0201700Y0114418D01*
X0201700Y0112420D02*
X0189800Y0112420D01*
X0190039Y0110421D02*
X0201700Y0110421D01*
X0197000Y0116417D02*
X0197000Y0116417D01*
X0197000Y0118415D02*
X0197000Y0118415D01*
X0184200Y0110421D02*
X0175300Y0110421D01*
X0175300Y0108423D02*
X0184416Y0108423D01*
X0186116Y0106424D02*
X0175200Y0106424D01*
X0175200Y0104426D02*
X0188398Y0104426D01*
X0179500Y0116417D02*
X0179500Y0116417D01*
X0179500Y0118415D02*
X0179500Y0118415D01*
X0168800Y0106424D02*
X0117300Y0106424D01*
X0117300Y0104426D02*
X0168800Y0104426D01*
X0168800Y0102427D02*
X0117300Y0102427D01*
X0117300Y0100429D02*
X0168800Y0100429D01*
X0168800Y0098430D02*
X0117087Y0098430D01*
X0115391Y0096432D02*
X0168800Y0096432D01*
X0168800Y0094433D02*
X0098527Y0094433D01*
X0100525Y0092434D02*
X0168800Y0092434D01*
X0168800Y0090436D02*
X0102143Y0090436D01*
X0102300Y0088437D02*
X0168800Y0088437D01*
X0169788Y0086439D02*
X0102300Y0086439D01*
X0096700Y0086439D02*
X0090689Y0086439D01*
X0090397Y0088437D02*
X0096603Y0088437D01*
X0094604Y0090436D02*
X0088345Y0090436D01*
X0085655Y0090436D02*
X0080689Y0090436D01*
X0080295Y0092434D02*
X0092606Y0092434D01*
X0087204Y0094433D02*
X0080200Y0094433D01*
X0077000Y0090750D02*
X0077000Y0142000D01*
X0086050Y0142397D02*
X0105050Y0142397D01*
X0105050Y0140399D02*
X0086050Y0140399D01*
X0086050Y0138400D02*
X0105050Y0138400D01*
X0105050Y0136402D02*
X0086050Y0136402D01*
X0086050Y0134403D02*
X0105050Y0134403D01*
X0105050Y0132405D02*
X0086050Y0132405D01*
X0086050Y0130406D02*
X0105050Y0130406D01*
X0105050Y0128408D02*
X0086050Y0128408D01*
X0086050Y0126409D02*
X0105050Y0126409D01*
X0105050Y0124411D02*
X0086050Y0124411D01*
X0086050Y0123943D02*
X0086050Y0179590D01*
X0088160Y0181700D01*
X0154347Y0181700D01*
X0154347Y0181440D01*
X0107016Y0181440D01*
X0105143Y0181447D01*
X0105137Y0181450D01*
X0104507Y0181450D01*
X0103876Y0181452D01*
X0103870Y0181450D01*
X0101363Y0181450D01*
X0100187Y0180963D01*
X0099287Y0180063D01*
X0096787Y0177563D01*
X0096300Y0176387D01*
X0096300Y0157613D01*
X0096787Y0156437D01*
X0097687Y0155537D01*
X0105050Y0148175D01*
X0105050Y0119522D01*
X0094157Y0119522D01*
X0093862Y0119584D01*
X0093527Y0119522D01*
X0093185Y0119522D01*
X0092907Y0119407D01*
X0091979Y0119234D01*
X0091484Y0119439D01*
X0090016Y0119439D01*
X0088660Y0118877D01*
X0087623Y0117840D01*
X0087061Y0116484D01*
X0087061Y0115016D01*
X0087623Y0113660D01*
X0088660Y0112623D01*
X0090016Y0112061D01*
X0091484Y0112061D01*
X0092840Y0112623D01*
X0093161Y0112944D01*
X0094117Y0113122D01*
X0107518Y0113122D01*
X0109200Y0111440D01*
X0109200Y0108943D01*
X0109626Y0107914D01*
X0110414Y0107126D01*
X0111700Y0105840D01*
X0111700Y0105300D01*
X0105100Y0105300D01*
X0105100Y0105600D01*
X0105100Y0106963D01*
X0104964Y0107472D01*
X0104700Y0107928D01*
X0104328Y0108300D01*
X0103872Y0108564D01*
X0103363Y0108700D01*
X0100500Y0108700D01*
X0100500Y0105600D01*
X0100500Y0105600D01*
X0105100Y0105600D01*
X0100500Y0105600D01*
X0100500Y0105600D01*
X0100500Y0105600D01*
X0095900Y0105600D01*
X0095900Y0106020D01*
X0092280Y0106020D01*
X0092280Y0105461D01*
X0095900Y0105461D01*
X0095900Y0105600D01*
X0100500Y0105600D01*
X0100500Y0108700D01*
X0097637Y0108700D01*
X0097128Y0108564D01*
X0096953Y0108462D01*
X0096953Y0108563D01*
X0096816Y0109071D01*
X0096553Y0109527D01*
X0096181Y0109900D01*
X0095725Y0110163D01*
X0095216Y0110299D01*
X0092280Y0110299D01*
X0092280Y0106020D01*
X0091720Y0106020D01*
X0091720Y0110299D01*
X0088784Y0110299D01*
X0088275Y0110163D01*
X0087819Y0109900D01*
X0087447Y0109527D01*
X0087271Y0109223D01*
X0086929Y0109315D01*
X0084500Y0109315D01*
X0084500Y0105347D01*
X0084500Y0109315D01*
X0083550Y0109315D01*
X0083550Y0120840D01*
X0084836Y0122126D01*
X0085624Y0122914D01*
X0086050Y0123943D01*
X0085122Y0122412D02*
X0105050Y0122412D01*
X0105050Y0120414D02*
X0083550Y0120414D01*
X0083550Y0118415D02*
X0088198Y0118415D01*
X0087061Y0116417D02*
X0083550Y0116417D01*
X0083550Y0114418D02*
X0087309Y0114418D01*
X0089150Y0112420D02*
X0083550Y0112420D01*
X0083550Y0110421D02*
X0109200Y0110421D01*
X0109416Y0108423D02*
X0104116Y0108423D01*
X0105100Y0106424D02*
X0111116Y0106424D01*
X0115039Y0110421D02*
X0128700Y0110421D01*
X0128700Y0108423D02*
X0116941Y0108423D01*
X0114800Y0112420D02*
X0128700Y0112420D01*
X0128700Y0114418D02*
X0114142Y0114418D01*
X0112143Y0116417D02*
X0128700Y0116417D01*
X0129404Y0118415D02*
X0111450Y0118415D01*
X0111450Y0120414D02*
X0149200Y0120414D01*
X0149200Y0122412D02*
X0111450Y0122412D01*
X0111450Y0124411D02*
X0149200Y0124411D01*
X0149200Y0126409D02*
X0111450Y0126409D01*
X0111450Y0128408D02*
X0149200Y0128408D01*
X0149200Y0130406D02*
X0111450Y0130406D01*
X0111450Y0132405D02*
X0149200Y0132405D01*
X0150443Y0134403D02*
X0111450Y0134403D01*
X0111450Y0136402D02*
X0152442Y0136402D01*
X0154440Y0138400D02*
X0111450Y0138400D01*
X0111450Y0140399D02*
X0156439Y0140399D01*
X0158437Y0142397D02*
X0111450Y0142397D01*
X0111450Y0144396D02*
X0160436Y0144396D01*
X0177635Y0152390D02*
X0109886Y0152390D01*
X0111344Y0150391D02*
X0189200Y0150391D01*
X0189200Y0148393D02*
X0111450Y0148393D01*
X0111450Y0146394D02*
X0189040Y0146394D01*
X0189200Y0152390D02*
X0188728Y0152390D01*
X0188728Y0154388D02*
X0189200Y0154388D01*
X0189200Y0156387D02*
X0188728Y0156387D01*
X0188728Y0158385D02*
X0189200Y0158385D01*
X0189200Y0160384D02*
X0188728Y0160384D01*
X0188728Y0162382D02*
X0189200Y0162382D01*
X0189200Y0164381D02*
X0188728Y0164381D01*
X0188728Y0166379D02*
X0189200Y0166379D01*
X0189200Y0168378D02*
X0188728Y0168378D01*
X0188728Y0170376D02*
X0189200Y0170376D01*
X0189200Y0172375D02*
X0188349Y0172375D01*
X0188528Y0174373D02*
X0189200Y0174373D01*
X0188528Y0174500D02*
X0183181Y0174500D01*
X0183181Y0174500D01*
X0177835Y0174500D01*
X0177835Y0172957D01*
X0177971Y0172448D01*
X0178125Y0172181D01*
X0177635Y0171691D01*
X0177635Y0167309D01*
X0177658Y0167286D01*
X0176664Y0166874D01*
X0175876Y0166086D01*
X0174590Y0164800D01*
X0113405Y0164800D01*
X0112300Y0165905D01*
X0112300Y0169899D01*
X0112840Y0170123D01*
X0113877Y0171160D01*
X0114439Y0172516D01*
X0114439Y0173984D01*
X0114001Y0175040D01*
X0154347Y0175040D01*
X0154347Y0174770D01*
X0154809Y0174308D01*
X0154684Y0174091D01*
X0154547Y0173582D01*
X0154547Y0171039D01*
X0159220Y0171039D01*
X0159220Y0170480D01*
X0154547Y0170480D01*
X0154547Y0167937D01*
X0154684Y0167429D01*
X0154947Y0166973D01*
X0155319Y0166600D01*
X0155775Y0166337D01*
X0156284Y0166201D01*
X0159220Y0166201D01*
X0159220Y0170480D01*
X0159780Y0170480D01*
X0159780Y0171039D01*
X0166720Y0171039D01*
X0166720Y0170480D01*
X0162047Y0170480D01*
X0159780Y0170480D01*
X0159780Y0166201D01*
X0162716Y0166201D01*
X0163225Y0166337D01*
X0163250Y0166352D01*
X0163275Y0166337D01*
X0163784Y0166201D01*
X0166720Y0166201D01*
X0166720Y0170480D01*
X0167280Y0170480D01*
X0167280Y0171039D01*
X0171953Y0171039D01*
X0171953Y0173582D01*
X0171816Y0174091D01*
X0171691Y0174308D01*
X0172153Y0174770D01*
X0172153Y0176300D01*
X0177904Y0176300D01*
X0177835Y0176043D01*
X0177835Y0174500D01*
X0183181Y0174500D01*
X0174500Y0174500D01*
X0170760Y0170760D01*
X0159500Y0170760D01*
X0159220Y0170376D02*
X0159780Y0170376D01*
X0159780Y0168378D02*
X0159220Y0168378D01*
X0159220Y0166379D02*
X0159780Y0166379D01*
X0155702Y0166379D02*
X0112300Y0166379D01*
X0112300Y0168378D02*
X0154547Y0168378D01*
X0154547Y0170376D02*
X0113093Y0170376D01*
X0114380Y0172375D02*
X0154547Y0172375D01*
X0154744Y0174373D02*
X0114278Y0174373D01*
X0107010Y0178240D02*
X0159500Y0178240D01*
X0167000Y0178240D01*
X0168260Y0179500D01*
X0183181Y0179500D01*
X0183181Y0174500D02*
X0188528Y0174500D01*
X0188439Y0176372D02*
X0189200Y0176372D01*
X0189200Y0178370D02*
X0188728Y0178370D01*
X0188728Y0180369D02*
X0189200Y0180369D01*
X0189200Y0182368D02*
X0188728Y0182368D01*
X0188728Y0184366D02*
X0189200Y0184366D01*
X0189200Y0186365D02*
X0188728Y0186365D01*
X0188728Y0188363D02*
X0189200Y0188363D01*
X0189200Y0190362D02*
X0188728Y0190362D01*
X0188728Y0192360D02*
X0189200Y0192360D01*
X0189200Y0194359D02*
X0188728Y0194359D01*
X0188728Y0196357D02*
X0189200Y0196357D01*
X0189200Y0198356D02*
X0188728Y0198356D01*
X0188728Y0200354D02*
X0189200Y0200354D01*
X0183181Y0174500D02*
X0183181Y0174500D01*
X0177835Y0174373D02*
X0171756Y0174373D01*
X0171953Y0172375D02*
X0178013Y0172375D01*
X0177635Y0170376D02*
X0171953Y0170376D01*
X0171953Y0170480D02*
X0167280Y0170480D01*
X0167280Y0166201D01*
X0170216Y0166201D01*
X0170725Y0166337D01*
X0171181Y0166600D01*
X0171553Y0166973D01*
X0171816Y0167429D01*
X0171953Y0167937D01*
X0171953Y0170480D01*
X0170760Y0170760D02*
X0167000Y0170760D01*
X0166720Y0170376D02*
X0167280Y0170376D01*
X0167280Y0168378D02*
X0166720Y0168378D01*
X0166720Y0166379D02*
X0167280Y0166379D01*
X0170798Y0166379D02*
X0176170Y0166379D01*
X0177635Y0168378D02*
X0171953Y0168378D01*
X0177635Y0156387D02*
X0105889Y0156387D01*
X0106862Y0158385D02*
X0103890Y0158385D01*
X0104863Y0160384D02*
X0102700Y0160384D01*
X0102700Y0162382D02*
X0104161Y0162382D01*
X0104161Y0164381D02*
X0102700Y0164381D01*
X0102700Y0166379D02*
X0104161Y0166379D01*
X0104161Y0168378D02*
X0102700Y0168378D01*
X0102700Y0170376D02*
X0103407Y0170376D01*
X0096300Y0170376D02*
X0086050Y0170376D01*
X0086050Y0168378D02*
X0096300Y0168378D01*
X0096300Y0166379D02*
X0086050Y0166379D01*
X0086050Y0164381D02*
X0096300Y0164381D01*
X0096300Y0162382D02*
X0086050Y0162382D01*
X0086050Y0160384D02*
X0096300Y0160384D01*
X0096300Y0158385D02*
X0086050Y0158385D01*
X0086050Y0156387D02*
X0096838Y0156387D01*
X0098836Y0154388D02*
X0086050Y0154388D01*
X0086050Y0152390D02*
X0100835Y0152390D01*
X0102833Y0150391D02*
X0086050Y0150391D01*
X0086050Y0148393D02*
X0104832Y0148393D01*
X0105050Y0146394D02*
X0086050Y0146394D01*
X0086050Y0144396D02*
X0105050Y0144396D01*
X0108250Y0149500D02*
X0108250Y0116350D01*
X0108250Y0116322D01*
X0093822Y0116322D01*
X0090750Y0115750D01*
X0092349Y0112420D02*
X0108221Y0112420D01*
X0108250Y0116322D02*
X0108250Y0116350D01*
X0108250Y0116322D01*
X0108250Y0116350D01*
X0100500Y0108423D02*
X0100500Y0108423D01*
X0100500Y0106424D02*
X0100500Y0106424D01*
X0092280Y0106424D02*
X0091720Y0106424D01*
X0091720Y0108423D02*
X0092280Y0108423D01*
X0084500Y0108423D02*
X0084500Y0108423D01*
X0084500Y0106424D02*
X0084500Y0106424D01*
X0084500Y0105347D02*
X0084500Y0105347D01*
X0073311Y0090436D02*
X0071896Y0090436D01*
X0069897Y0088437D02*
X0074096Y0088437D01*
X0075100Y0084440D02*
X0083800Y0084440D01*
X0083800Y0082442D02*
X0082369Y0082442D01*
X0083311Y0086439D02*
X0066852Y0086439D01*
X0070500Y0084440D02*
X0070500Y0084440D01*
X0062280Y0084440D02*
X0061720Y0084440D01*
X0062000Y0083240D02*
X0054894Y0083240D01*
X0054500Y0082846D01*
X0054500Y0082847D02*
X0054500Y0082847D01*
X0054500Y0084440D02*
X0054500Y0084440D01*
X0054500Y0086439D02*
X0054500Y0086439D01*
X0061720Y0086439D02*
X0062280Y0086439D01*
X0067153Y0072449D02*
X0096700Y0072449D01*
X0096700Y0070451D02*
X0065009Y0070451D01*
X0061086Y0066454D02*
X0051506Y0066454D01*
X0049800Y0068452D02*
X0059403Y0068452D01*
X0059200Y0070451D02*
X0049800Y0070451D01*
X0049800Y0072449D02*
X0050959Y0072449D01*
X0044200Y0072449D02*
X0027153Y0072449D01*
X0027509Y0070451D02*
X0044200Y0070451D01*
X0044200Y0068452D02*
X0029507Y0068452D01*
X0031506Y0066454D02*
X0044200Y0066454D01*
X0045414Y0064626D02*
X0045414Y0064626D01*
X0045585Y0064455D02*
X0033504Y0064455D01*
X0035503Y0062457D02*
X0047583Y0062457D01*
X0049582Y0060458D02*
X0037501Y0060458D01*
X0036874Y0061086D02*
X0036874Y0061086D01*
X0039500Y0058460D02*
X0051580Y0058460D01*
X0053371Y0054463D02*
X0065577Y0054463D01*
X0066700Y0052464D02*
X0055496Y0052464D01*
X0057131Y0050466D02*
X0066700Y0050466D01*
X0066700Y0048467D02*
X0057300Y0048467D01*
X0057300Y0046469D02*
X0066700Y0046469D01*
X0065513Y0044470D02*
X0058487Y0044470D01*
X0060125Y0042472D02*
X0063875Y0042472D01*
X0063166Y0040473D02*
X0060834Y0040473D01*
X0060834Y0038475D02*
X0063166Y0038475D01*
X0063897Y0036476D02*
X0060103Y0036476D01*
X0058435Y0034478D02*
X0065565Y0034478D01*
X0073435Y0034478D02*
X0080565Y0034478D01*
X0078897Y0036476D02*
X0075103Y0036476D01*
X0075834Y0038475D02*
X0078166Y0038475D01*
X0078166Y0040473D02*
X0075834Y0040473D01*
X0075125Y0042472D02*
X0078875Y0042472D01*
X0080513Y0044470D02*
X0073487Y0044470D01*
X0072300Y0046469D02*
X0081700Y0046469D01*
X0081700Y0048467D02*
X0072300Y0048467D01*
X0072300Y0050466D02*
X0081700Y0050466D01*
X0081700Y0052464D02*
X0072300Y0052464D01*
X0072300Y0054463D02*
X0081700Y0054463D01*
X0081700Y0056461D02*
X0071498Y0056461D01*
X0069500Y0058460D02*
X0081700Y0058460D01*
X0081700Y0060458D02*
X0067501Y0060458D01*
X0063327Y0064455D02*
X0053504Y0064455D01*
X0055503Y0062457D02*
X0081700Y0062457D01*
X0087300Y0062457D02*
X0096700Y0062457D01*
X0096700Y0064455D02*
X0087300Y0064455D01*
X0086506Y0066454D02*
X0096700Y0066454D01*
X0096700Y0068452D02*
X0084507Y0068452D01*
X0086086Y0066874D02*
X0086086Y0066874D01*
X0087300Y0060458D02*
X0096700Y0060458D01*
X0096700Y0058460D02*
X0087300Y0058460D01*
X0087300Y0056461D02*
X0096700Y0056461D01*
X0096700Y0054463D02*
X0087300Y0054463D01*
X0087300Y0052464D02*
X0096700Y0052464D01*
X0096700Y0050466D02*
X0087300Y0050466D01*
X0087300Y0048467D02*
X0096700Y0048467D01*
X0096700Y0046469D02*
X0087300Y0046469D01*
X0088487Y0044470D02*
X0095513Y0044470D01*
X0093875Y0042472D02*
X0090125Y0042472D01*
X0090834Y0040473D02*
X0093166Y0040473D01*
X0093166Y0038475D02*
X0090834Y0038475D01*
X0090103Y0036476D02*
X0093897Y0036476D01*
X0095565Y0034478D02*
X0088435Y0034478D01*
X0102300Y0046469D02*
X0111300Y0046469D01*
X0111300Y0048467D02*
X0102300Y0048467D01*
X0102300Y0050466D02*
X0111436Y0050466D01*
X0112939Y0052464D02*
X0102300Y0052464D01*
X0102300Y0054463D02*
X0114937Y0054463D01*
X0116936Y0056461D02*
X0102300Y0056461D01*
X0102300Y0058460D02*
X0118934Y0058460D01*
X0122000Y0057000D02*
X0114500Y0049500D01*
X0114500Y0039500D01*
X0108875Y0042472D02*
X0105125Y0042472D01*
X0105834Y0040473D02*
X0108166Y0040473D01*
X0108166Y0038475D02*
X0105834Y0038475D01*
X0105103Y0036476D02*
X0108897Y0036476D01*
X0110565Y0034478D02*
X0103435Y0034478D01*
X0103487Y0044470D02*
X0110513Y0044470D01*
X0117700Y0046469D02*
X0126943Y0046469D01*
X0125513Y0044470D02*
X0118487Y0044470D01*
X0120125Y0042472D02*
X0123875Y0042472D01*
X0123166Y0040473D02*
X0120834Y0040473D01*
X0120834Y0038475D02*
X0123166Y0038475D01*
X0123897Y0036476D02*
X0120103Y0036476D01*
X0118435Y0034478D02*
X0125565Y0034478D01*
X0129500Y0039500D02*
X0129500Y0044500D01*
X0137000Y0052000D01*
X0149500Y0052000D01*
X0157000Y0059500D01*
X0157000Y0076100D01*
X0152000Y0076100D02*
X0152000Y0062000D01*
X0147000Y0057000D01*
X0122000Y0057000D01*
X0121990Y0052464D02*
X0132939Y0052464D01*
X0130940Y0050466D02*
X0119991Y0050466D01*
X0117993Y0048467D02*
X0128942Y0048467D01*
X0133996Y0044470D02*
X0140513Y0044470D01*
X0138875Y0042472D02*
X0135125Y0042472D01*
X0135834Y0040473D02*
X0138166Y0040473D01*
X0138166Y0038475D02*
X0135834Y0038475D01*
X0135103Y0036476D02*
X0138897Y0036476D01*
X0140565Y0034478D02*
X0133435Y0034478D01*
X0144500Y0039500D02*
X0162000Y0057000D01*
X0162000Y0076100D01*
X0167000Y0076100D02*
X0167000Y0047000D01*
X0159500Y0039500D01*
X0155565Y0034478D02*
X0148435Y0034478D01*
X0150103Y0036476D02*
X0153897Y0036476D01*
X0153166Y0038475D02*
X0150834Y0038475D01*
X0150834Y0040473D02*
X0153166Y0040473D01*
X0153875Y0042472D02*
X0151997Y0042472D01*
X0153996Y0044470D02*
X0155513Y0044470D01*
X0155994Y0046469D02*
X0161943Y0046469D01*
X0163800Y0048467D02*
X0157993Y0048467D01*
X0159991Y0050466D02*
X0163800Y0050466D01*
X0163800Y0052464D02*
X0161990Y0052464D01*
X0148942Y0048467D02*
X0137993Y0048467D01*
X0135994Y0046469D02*
X0146943Y0046469D01*
X0145933Y0060458D02*
X0102300Y0060458D01*
X0102300Y0062457D02*
X0147931Y0062457D01*
X0148800Y0064455D02*
X0102300Y0064455D01*
X0102300Y0066454D02*
X0148800Y0066454D01*
X0148800Y0068452D02*
X0102300Y0068452D01*
X0102300Y0070451D02*
X0129538Y0070451D01*
X0128700Y0072449D02*
X0102300Y0072449D01*
X0102300Y0074448D02*
X0128700Y0074448D01*
X0128700Y0076446D02*
X0102300Y0076446D01*
X0102300Y0078445D02*
X0128700Y0078445D01*
X0128700Y0080443D02*
X0102300Y0080443D01*
X0096700Y0080443D02*
X0090200Y0080443D01*
X0090200Y0082442D02*
X0096700Y0082442D01*
X0096700Y0084440D02*
X0090200Y0084440D01*
X0087000Y0087000D02*
X0087000Y0080750D01*
X0089220Y0078445D02*
X0096700Y0078445D01*
X0096700Y0076446D02*
X0086656Y0076446D01*
X0084658Y0074448D02*
X0096700Y0074448D01*
X0084524Y0074314D02*
X0084524Y0074314D01*
X0083603Y0088437D02*
X0079904Y0088437D01*
X0064200Y0105300D02*
X0057600Y0105300D01*
X0057600Y0105600D01*
X0057600Y0106963D01*
X0057464Y0107472D01*
X0057200Y0107928D01*
X0056828Y0108300D01*
X0056372Y0108564D01*
X0055863Y0108700D01*
X0053000Y0108700D01*
X0053000Y0105600D01*
X0053000Y0105600D01*
X0057600Y0105600D01*
X0053000Y0105600D01*
X0053000Y0105600D01*
X0053000Y0105600D01*
X0048400Y0105600D01*
X0048400Y0106020D01*
X0044780Y0106020D01*
X0044780Y0105461D01*
X0048400Y0105461D01*
X0048400Y0105600D01*
X0053000Y0105600D01*
X0053000Y0108700D01*
X0050137Y0108700D01*
X0049628Y0108564D01*
X0049453Y0108462D01*
X0049453Y0108563D01*
X0049316Y0109071D01*
X0049053Y0109527D01*
X0048681Y0109900D01*
X0048420Y0110050D01*
X0055972Y0110050D01*
X0057152Y0109561D01*
X0058071Y0109561D01*
X0058943Y0109200D01*
X0063340Y0109200D01*
X0064200Y0108340D01*
X0064200Y0105300D01*
X0064200Y0106424D02*
X0057600Y0106424D01*
X0056616Y0108423D02*
X0064118Y0108423D01*
X0058250Y0113250D02*
X0057886Y0113250D01*
X0025750Y0113250D01*
X0023250Y0110750D01*
X0023250Y0094500D01*
X0027000Y0090750D01*
X0035750Y0090750D01*
X0038500Y0088000D01*
X0040589Y0090436D02*
X0042117Y0090436D01*
X0042126Y0090414D02*
X0042914Y0089626D01*
X0044200Y0088340D01*
X0044200Y0086260D01*
X0041613Y0088847D01*
X0041213Y0089813D01*
X0037563Y0093463D01*
X0036387Y0093950D01*
X0028325Y0093950D01*
X0026450Y0095825D01*
X0026450Y0109425D01*
X0027075Y0110050D01*
X0040580Y0110050D01*
X0040319Y0109900D01*
X0039947Y0109527D01*
X0039771Y0109223D01*
X0039429Y0109315D01*
X0037000Y0109315D01*
X0037000Y0105347D01*
X0037000Y0109315D01*
X0034571Y0109315D01*
X0034063Y0109179D01*
X0033607Y0108915D01*
X0033234Y0108543D01*
X0032971Y0108087D01*
X0032835Y0107578D01*
X0032835Y0105347D01*
X0037000Y0105347D01*
X0037000Y0105347D01*
X0037000Y0105346D01*
X0032835Y0105346D01*
X0032835Y0103115D01*
X0032971Y0102606D01*
X0033234Y0102150D01*
X0033243Y0102141D01*
X0032635Y0101533D01*
X0032635Y0095774D01*
X0033923Y0094485D01*
X0039652Y0094485D01*
X0040636Y0093501D01*
X0041700Y0093501D01*
X0041700Y0091443D01*
X0042126Y0090414D01*
X0042022Y0088437D02*
X0044103Y0088437D01*
X0044021Y0086439D02*
X0044200Y0086439D01*
X0039740Y0082800D02*
X0035100Y0082800D01*
X0035100Y0083100D01*
X0035100Y0084463D01*
X0034964Y0084972D01*
X0034700Y0085428D01*
X0034328Y0085800D01*
X0033872Y0086064D01*
X0033363Y0086200D01*
X0030500Y0086200D01*
X0030500Y0083100D01*
X0030500Y0083100D01*
X0035100Y0083100D01*
X0030500Y0083100D01*
X0030500Y0083100D01*
X0030500Y0083100D01*
X0025900Y0083100D01*
X0025900Y0083520D01*
X0022280Y0083520D01*
X0022280Y0082961D01*
X0025900Y0082961D01*
X0025900Y0083100D01*
X0030500Y0083100D01*
X0030500Y0086200D01*
X0027637Y0086200D01*
X0027128Y0086064D01*
X0026953Y0085962D01*
X0026953Y0086063D01*
X0026816Y0086571D01*
X0026553Y0087027D01*
X0026181Y0087400D01*
X0025725Y0087663D01*
X0025216Y0087799D01*
X0022280Y0087799D01*
X0022280Y0083520D01*
X0021720Y0083520D01*
X0021720Y0087799D01*
X0018784Y0087799D01*
X0018275Y0087663D01*
X0017819Y0087400D01*
X0017447Y0087027D01*
X0017271Y0086723D01*
X0016929Y0086815D01*
X0014500Y0086815D01*
X0014500Y0082847D01*
X0014500Y0086815D01*
X0012071Y0086815D01*
X0011563Y0086679D01*
X0011107Y0086415D01*
X0010734Y0086043D01*
X0010471Y0085587D01*
X0010335Y0085078D01*
X0010335Y0082847D01*
X0014500Y0082847D01*
X0014500Y0082847D01*
X0014500Y0082846D01*
X0010335Y0082846D01*
X0010335Y0080615D01*
X0010471Y0080106D01*
X0010734Y0079650D01*
X0010743Y0079641D01*
X0010135Y0079033D01*
X0010135Y0078954D01*
X0009800Y0078954D01*
X0009800Y0107090D01*
X0016910Y0114200D01*
X0022175Y0114200D01*
X0020537Y0112563D01*
X0020050Y0111387D01*
X0020050Y0093863D01*
X0020537Y0092687D01*
X0024287Y0088937D01*
X0025187Y0088037D01*
X0026363Y0087550D01*
X0034425Y0087550D01*
X0036687Y0085287D01*
X0037653Y0084887D01*
X0039740Y0082800D01*
X0038100Y0084440D02*
X0035100Y0084440D01*
X0035536Y0086439D02*
X0026852Y0086439D01*
X0024787Y0088437D02*
X0009800Y0088437D01*
X0009800Y0086439D02*
X0011148Y0086439D01*
X0010335Y0084440D02*
X0009800Y0084440D01*
X0009800Y0082442D02*
X0010335Y0082442D01*
X0010381Y0080443D02*
X0009800Y0080443D01*
X0014500Y0084440D02*
X0014500Y0084440D01*
X0014500Y0086439D02*
X0014500Y0086439D01*
X0009800Y0090436D02*
X0022789Y0090436D01*
X0020790Y0092434D02*
X0009800Y0092434D01*
X0009800Y0094433D02*
X0020050Y0094433D01*
X0020050Y0096432D02*
X0009800Y0096432D01*
X0009800Y0098430D02*
X0020050Y0098430D01*
X0020050Y0100429D02*
X0009800Y0100429D01*
X0009800Y0102427D02*
X0020050Y0102427D01*
X0020050Y0104426D02*
X0009800Y0104426D01*
X0009800Y0106424D02*
X0020050Y0106424D01*
X0020050Y0108423D02*
X0011132Y0108423D01*
X0013131Y0110421D02*
X0020050Y0110421D01*
X0020478Y0112420D02*
X0015129Y0112420D01*
X0011207Y0116417D02*
X0007000Y0116417D01*
X0007000Y0118415D02*
X0013205Y0118415D01*
X0013376Y0118586D02*
X0007000Y0112210D01*
X0007000Y0314461D01*
X0251068Y0314461D01*
X0250066Y0312725D01*
X0249323Y0309951D01*
X0249323Y0307080D01*
X0250066Y0304306D01*
X0251502Y0301820D01*
X0253121Y0300200D01*
X0252604Y0300200D01*
X0251427Y0299713D01*
X0248867Y0297153D01*
X0244770Y0297153D01*
X0244308Y0296691D01*
X0244091Y0296816D01*
X0243582Y0296953D01*
X0241039Y0296953D01*
X0241039Y0292280D01*
X0240480Y0292280D01*
X0240480Y0296953D01*
X0237937Y0296953D01*
X0237429Y0296816D01*
X0236973Y0296553D01*
X0236600Y0296181D01*
X0236337Y0295725D01*
X0236201Y0295216D01*
X0236201Y0292280D01*
X0240480Y0292280D01*
X0240480Y0291720D01*
X0241039Y0291720D01*
X0241039Y0287047D01*
X0243582Y0287047D01*
X0244091Y0287184D01*
X0244308Y0287309D01*
X0244617Y0287000D01*
X0244308Y0286691D01*
X0244091Y0286816D01*
X0243582Y0286953D01*
X0241039Y0286953D01*
X0241039Y0282280D01*
X0240480Y0282280D01*
X0240480Y0286953D01*
X0237937Y0286953D01*
X0237429Y0286816D01*
X0236973Y0286553D01*
X0236600Y0286181D01*
X0236337Y0285725D01*
X0236201Y0285216D01*
X0236201Y0282280D01*
X0240480Y0282280D01*
X0240480Y0281720D01*
X0241039Y0281720D01*
X0241039Y0277047D01*
X0243582Y0277047D01*
X0244091Y0277184D01*
X0244308Y0277309D01*
X0244770Y0276847D01*
X0251710Y0276847D01*
X0252999Y0278136D01*
X0252999Y0285864D01*
X0251863Y0287000D01*
X0252999Y0288136D01*
X0252999Y0292234D01*
X0254566Y0293800D01*
X0270137Y0293800D01*
X0271313Y0294287D01*
X0272213Y0295187D01*
X0281018Y0303993D01*
X0283777Y0303993D01*
X0285066Y0305282D01*
X0285066Y0314461D01*
X0288934Y0314461D01*
X0288934Y0305282D01*
X0290223Y0303993D01*
X0299666Y0303993D01*
X0299666Y0303362D01*
X0300153Y0302186D01*
X0301053Y0301286D01*
X0302550Y0299789D01*
X0302550Y0270825D01*
X0298175Y0266450D01*
X0212094Y0266450D01*
X0211467Y0266453D01*
X0211459Y0266450D01*
X0211450Y0266450D01*
X0210869Y0266209D01*
X0210288Y0265972D01*
X0210282Y0265966D01*
X0210274Y0265963D01*
X0209829Y0265518D01*
X0209383Y0265077D01*
X0209380Y0265069D01*
X0209374Y0265063D01*
X0209133Y0264481D01*
X0208890Y0263904D01*
X0208890Y0263895D01*
X0208886Y0263887D01*
X0208886Y0263258D01*
X0208817Y0250200D01*
X0164653Y0250200D01*
X0164653Y0250480D01*
X0164191Y0250942D01*
X0164316Y0251159D01*
X0164453Y0251668D01*
X0164453Y0254211D01*
X0159780Y0254211D01*
X0159780Y0254770D01*
X0164453Y0254770D01*
X0164453Y0257313D01*
X0164316Y0257821D01*
X0164053Y0258277D01*
X0163840Y0258491D01*
X0183054Y0258491D01*
X0184083Y0258917D01*
X0184871Y0259704D01*
X0184871Y0259704D01*
X0186459Y0261292D01*
X0187428Y0260891D01*
X0189446Y0260891D01*
X0191309Y0261662D01*
X0192735Y0263089D01*
X0193358Y0264593D01*
X0193981Y0263089D01*
X0195408Y0261662D01*
X0197271Y0260891D01*
X0199288Y0260891D01*
X0201151Y0261662D01*
X0202578Y0263089D01*
X0203350Y0264952D01*
X0203350Y0272709D01*
X0202578Y0274573D01*
X0201151Y0275999D01*
X0199288Y0276771D01*
X0197271Y0276771D01*
X0195408Y0275999D01*
X0193981Y0274573D01*
X0193358Y0273069D01*
X0192735Y0274573D01*
X0191309Y0275999D01*
X0189446Y0276771D01*
X0187428Y0276771D01*
X0185565Y0275999D01*
X0184500Y0274934D01*
X0183435Y0275999D01*
X0181571Y0276771D01*
X0181189Y0276771D01*
X0178586Y0279374D01*
X0177557Y0279800D01*
X0167361Y0279800D01*
X0167361Y0281236D01*
X0166033Y0284444D01*
X0163578Y0286899D01*
X0160370Y0288228D01*
X0156898Y0288228D01*
X0153690Y0286899D01*
X0151235Y0284444D01*
X0149906Y0281236D01*
X0149906Y0277764D01*
X0151235Y0274556D01*
X0151819Y0273972D01*
X0132208Y0273972D01*
X0132806Y0274752D01*
X0133365Y0275720D01*
X0133793Y0276753D01*
X0134082Y0277833D01*
X0134170Y0278500D01*
X0126701Y0278500D01*
X0126701Y0280500D01*
X0134170Y0280500D01*
X0134082Y0281167D01*
X0133793Y0282247D01*
X0133365Y0283280D01*
X0132806Y0284248D01*
X0132126Y0285135D01*
X0131335Y0285925D01*
X0130449Y0286606D01*
X0129481Y0287165D01*
X0128448Y0287592D01*
X0127368Y0287882D01*
X0126701Y0287969D01*
X0126701Y0280500D01*
X0124701Y0280500D01*
X0124701Y0287969D01*
X0124034Y0287882D01*
X0122954Y0287592D01*
X0121921Y0287165D01*
X0120953Y0286606D01*
X0120066Y0285925D01*
X0119276Y0285135D01*
X0118595Y0284248D01*
X0118036Y0283280D01*
X0117608Y0282247D01*
X0117319Y0281167D01*
X0117231Y0280500D01*
X0124701Y0280500D01*
X0124701Y0278500D01*
X0117231Y0278500D01*
X0117319Y0277833D01*
X0117608Y0276753D01*
X0118036Y0275720D01*
X0118595Y0274752D01*
X0119193Y0273972D01*
X0108706Y0273972D01*
X0108533Y0273901D01*
X0104821Y0273901D01*
X0101859Y0270938D01*
X0099096Y0273701D01*
X0097079Y0273701D01*
X0097079Y0268831D01*
X0097079Y0268831D01*
X0097079Y0273701D01*
X0095061Y0273701D01*
X0092209Y0270848D01*
X0092209Y0268831D01*
X0097079Y0268831D01*
X0097079Y0268831D01*
X0097079Y0263961D01*
X0097079Y0260957D01*
X0097079Y0260957D01*
X0097079Y0268831D01*
X0097079Y0268831D01*
X0092209Y0268831D01*
X0092209Y0266813D01*
X0094128Y0264894D01*
X0092209Y0262974D01*
X0092209Y0260957D01*
X0097079Y0260957D01*
X0097079Y0260957D01*
X0097079Y0256087D01*
X0097950Y0256087D01*
X0097950Y0239948D01*
X0097802Y0239800D01*
X0097061Y0239800D01*
X0097100Y0239839D01*
X0097100Y0244161D01*
X0095811Y0245450D01*
X0088989Y0245450D01*
X0087700Y0244161D01*
X0087700Y0239839D01*
X0088039Y0239500D01*
X0087700Y0239161D01*
X0087700Y0234839D01*
X0088039Y0234500D01*
X0087700Y0234161D01*
X0087700Y0229839D01*
X0088212Y0229327D01*
X0088036Y0229022D01*
X0087900Y0228513D01*
X0087900Y0227000D01*
X0092400Y0227000D01*
X0096900Y0227000D01*
X0096900Y0228513D01*
X0096764Y0229022D01*
X0096661Y0229200D01*
X0104143Y0229200D01*
X0104200Y0229143D01*
X0104200Y0221443D01*
X0104626Y0220414D01*
X0105414Y0219626D01*
X0107914Y0217126D01*
X0108943Y0216700D01*
X0112101Y0216700D01*
X0112429Y0216373D01*
X0113784Y0215811D01*
X0115252Y0215811D01*
X0115414Y0215878D01*
X0115416Y0215876D01*
X0116445Y0215450D01*
X0125979Y0215450D01*
X0127008Y0215876D01*
X0127740Y0216608D01*
X0128527Y0217396D01*
X0128954Y0218425D01*
X0128954Y0220135D01*
X0129033Y0220135D01*
X0129500Y0220601D01*
X0129636Y0220466D01*
X0129603Y0208215D01*
X0128160Y0206750D01*
X0076447Y0206750D01*
X0076419Y0206761D01*
X0075811Y0206750D01*
X0075204Y0206750D01*
X0075176Y0206738D01*
X0075146Y0206738D01*
X0074589Y0206495D01*
X0074028Y0206263D01*
X0074006Y0206242D01*
X0073979Y0206230D01*
X0073557Y0205792D01*
X0073127Y0205363D01*
X0073116Y0205335D01*
X0055915Y0187500D01*
X0055484Y0187068D01*
X0055474Y0187043D01*
X0055455Y0187023D01*
X0055232Y0186455D01*
X0054999Y0185892D01*
X0054999Y0185864D01*
X0054989Y0185838D01*
X0055000Y0185229D01*
X0055050Y0152046D01*
X0055050Y0151414D01*
X0054561Y0150234D01*
X0054561Y0148766D01*
X0055123Y0147410D01*
X0056160Y0146373D01*
X0057516Y0145811D01*
X0058984Y0145811D01*
X0060340Y0146373D01*
X0061377Y0147410D01*
X0061939Y0148766D01*
X0061939Y0150234D01*
X0061450Y0151414D01*
X0061450Y0151416D01*
X0061451Y0151418D01*
X0061450Y0152056D01*
X0061450Y0152687D01*
X0061449Y0152689D01*
X0061402Y0183970D01*
X0064200Y0186871D01*
X0064200Y0121910D01*
X0062090Y0119800D01*
X0015193Y0119800D01*
X0014164Y0119374D01*
X0013376Y0118586D01*
X0009208Y0114418D02*
X0007000Y0114418D01*
X0007000Y0112420D02*
X0007210Y0112420D01*
X0007000Y0120414D02*
X0062704Y0120414D01*
X0064200Y0122412D02*
X0007000Y0122412D01*
X0007000Y0124411D02*
X0064200Y0124411D01*
X0064200Y0126409D02*
X0007000Y0126409D01*
X0007000Y0128408D02*
X0064200Y0128408D01*
X0064200Y0130406D02*
X0007000Y0130406D01*
X0007000Y0132405D02*
X0064200Y0132405D01*
X0064200Y0134403D02*
X0007000Y0134403D01*
X0007000Y0136402D02*
X0064200Y0136402D01*
X0064200Y0138400D02*
X0007000Y0138400D01*
X0007000Y0140399D02*
X0064200Y0140399D01*
X0064200Y0142397D02*
X0007000Y0142397D01*
X0007000Y0144396D02*
X0064200Y0144396D01*
X0064200Y0146394D02*
X0060361Y0146394D01*
X0061784Y0148393D02*
X0064200Y0148393D01*
X0064200Y0150391D02*
X0061874Y0150391D01*
X0061450Y0152390D02*
X0064200Y0152390D01*
X0064200Y0154388D02*
X0061446Y0154388D01*
X0061443Y0156387D02*
X0064200Y0156387D01*
X0064200Y0158385D02*
X0061440Y0158385D01*
X0061437Y0160384D02*
X0064200Y0160384D01*
X0064200Y0162382D02*
X0061434Y0162382D01*
X0061431Y0164381D02*
X0064200Y0164381D01*
X0064200Y0166379D02*
X0061428Y0166379D01*
X0061425Y0168378D02*
X0064200Y0168378D01*
X0064200Y0170376D02*
X0061422Y0170376D01*
X0061419Y0172375D02*
X0064200Y0172375D01*
X0064200Y0174373D02*
X0061416Y0174373D01*
X0061413Y0176372D02*
X0064200Y0176372D01*
X0064200Y0178370D02*
X0061410Y0178370D01*
X0061407Y0180369D02*
X0064200Y0180369D01*
X0064200Y0182368D02*
X0061404Y0182368D01*
X0061784Y0184366D02*
X0064200Y0184366D01*
X0064200Y0186365D02*
X0063711Y0186365D01*
X0058200Y0185260D02*
X0058250Y0152050D01*
X0058250Y0149500D01*
X0054716Y0148393D02*
X0007000Y0148393D01*
X0007000Y0150391D02*
X0054626Y0150391D01*
X0055049Y0152390D02*
X0007000Y0152390D01*
X0007000Y0154388D02*
X0055046Y0154388D01*
X0055043Y0156387D02*
X0007000Y0156387D01*
X0007000Y0158385D02*
X0055040Y0158385D01*
X0055037Y0160384D02*
X0007000Y0160384D01*
X0007000Y0162382D02*
X0055034Y0162382D01*
X0055031Y0164381D02*
X0007000Y0164381D01*
X0007000Y0166379D02*
X0055028Y0166379D01*
X0055025Y0168378D02*
X0007000Y0168378D01*
X0007000Y0170376D02*
X0055022Y0170376D01*
X0055019Y0172375D02*
X0007000Y0172375D01*
X0007000Y0174373D02*
X0055016Y0174373D01*
X0055013Y0176372D02*
X0007000Y0176372D01*
X0007000Y0178370D02*
X0055010Y0178370D01*
X0055007Y0180369D02*
X0007000Y0180369D01*
X0007000Y0182368D02*
X0055004Y0182368D01*
X0055001Y0184366D02*
X0007000Y0184366D01*
X0007000Y0186365D02*
X0055194Y0186365D01*
X0056747Y0188363D02*
X0007000Y0188363D01*
X0007000Y0190362D02*
X0058675Y0190362D01*
X0060602Y0192360D02*
X0007000Y0192360D01*
X0007000Y0194359D02*
X0062530Y0194359D01*
X0064457Y0196357D02*
X0007000Y0196357D01*
X0007000Y0198356D02*
X0066385Y0198356D01*
X0068312Y0200354D02*
X0007000Y0200354D01*
X0007000Y0202353D02*
X0070240Y0202353D01*
X0072167Y0204351D02*
X0007000Y0204351D01*
X0007000Y0206350D02*
X0074237Y0206350D01*
X0075840Y0203550D02*
X0127846Y0203550D01*
X0129500Y0203550D01*
X0132800Y0206900D01*
X0132846Y0224500D01*
X0129635Y0220339D02*
X0129238Y0220339D01*
X0128919Y0218341D02*
X0129630Y0218341D01*
X0129625Y0216342D02*
X0127474Y0216342D01*
X0127740Y0216608D02*
X0127740Y0216608D01*
X0129620Y0214344D02*
X0007000Y0214344D01*
X0007000Y0216342D02*
X0112502Y0216342D01*
X0106699Y0218341D02*
X0007000Y0218341D01*
X0007000Y0220339D02*
X0104701Y0220339D01*
X0104200Y0222338D02*
X0007000Y0222338D01*
X0007000Y0224336D02*
X0088485Y0224336D01*
X0088300Y0224522D02*
X0088672Y0224150D01*
X0089128Y0223886D01*
X0089637Y0223750D01*
X0092400Y0223750D01*
X0095163Y0223750D01*
X0095672Y0223886D01*
X0096128Y0224150D01*
X0096500Y0224522D01*
X0096764Y0224978D01*
X0096900Y0225487D01*
X0096900Y0227000D01*
X0092400Y0227000D01*
X0092400Y0227000D01*
X0092400Y0223750D01*
X0092400Y0227000D01*
X0092400Y0227000D01*
X0092400Y0227000D01*
X0087900Y0227000D01*
X0087900Y0225487D01*
X0088036Y0224978D01*
X0088300Y0224522D01*
X0087900Y0226335D02*
X0007000Y0226335D01*
X0007000Y0228333D02*
X0087900Y0228333D01*
X0087700Y0230332D02*
X0007000Y0230332D01*
X0007000Y0232330D02*
X0087700Y0232330D01*
X0087868Y0234329D02*
X0007000Y0234329D01*
X0007000Y0236327D02*
X0087700Y0236327D01*
X0087700Y0238326D02*
X0007000Y0238326D01*
X0007000Y0240324D02*
X0087700Y0240324D01*
X0087700Y0242323D02*
X0007000Y0242323D01*
X0007000Y0244321D02*
X0087860Y0244321D01*
X0096940Y0244321D02*
X0097950Y0244321D01*
X0097950Y0242323D02*
X0097100Y0242323D01*
X0097100Y0240324D02*
X0097950Y0240324D01*
X0097950Y0246320D02*
X0007000Y0246320D01*
X0007000Y0248318D02*
X0097950Y0248318D01*
X0097950Y0250317D02*
X0007000Y0250317D01*
X0007000Y0252315D02*
X0097950Y0252315D01*
X0097950Y0254314D02*
X0007000Y0254314D01*
X0007000Y0256312D02*
X0094836Y0256312D01*
X0095061Y0256087D02*
X0097079Y0256087D01*
X0097079Y0260957D01*
X0097079Y0260957D01*
X0092209Y0260957D01*
X0092209Y0258939D01*
X0095061Y0256087D01*
X0097079Y0256312D02*
X0097079Y0256312D01*
X0097079Y0258311D02*
X0097079Y0258311D01*
X0097079Y0260309D02*
X0097079Y0260309D01*
X0097079Y0262308D02*
X0097079Y0262308D01*
X0097079Y0264306D02*
X0097079Y0264306D01*
X0097079Y0266305D02*
X0097079Y0266305D01*
X0097079Y0268303D02*
X0097079Y0268303D01*
X0097079Y0270302D02*
X0097079Y0270302D01*
X0097079Y0272301D02*
X0097079Y0272301D01*
X0100496Y0272301D02*
X0103221Y0272301D01*
X0093661Y0272301D02*
X0082884Y0272301D01*
X0083047Y0272394D02*
X0083934Y0273075D01*
X0084724Y0273865D01*
X0085405Y0274752D01*
X0085964Y0275720D01*
X0086392Y0276753D01*
X0086681Y0277833D01*
X0086769Y0278500D01*
X0079299Y0278500D01*
X0079299Y0271030D01*
X0079966Y0271118D01*
X0081046Y0271408D01*
X0082079Y0271835D01*
X0083047Y0272394D01*
X0085057Y0274299D02*
X0118943Y0274299D01*
X0117797Y0276298D02*
X0086203Y0276298D01*
X0086742Y0278296D02*
X0117258Y0278296D01*
X0117628Y0282293D02*
X0086372Y0282293D01*
X0086392Y0282247D02*
X0085964Y0283280D01*
X0085405Y0284248D01*
X0084724Y0285135D01*
X0083934Y0285925D01*
X0083047Y0286606D01*
X0082079Y0287165D01*
X0081046Y0287592D01*
X0079966Y0287882D01*
X0079299Y0287969D01*
X0079299Y0280500D01*
X0077299Y0280500D01*
X0077299Y0278500D01*
X0069830Y0278500D01*
X0069918Y0277833D01*
X0070207Y0276753D01*
X0070635Y0275720D01*
X0071194Y0274752D01*
X0071874Y0273865D01*
X0072665Y0273075D01*
X0073551Y0272394D01*
X0074519Y0271835D01*
X0075552Y0271408D01*
X0076632Y0271118D01*
X0077299Y0271030D01*
X0077299Y0278500D01*
X0079299Y0278500D01*
X0079299Y0280500D01*
X0086769Y0280500D01*
X0086681Y0281167D01*
X0086392Y0282247D01*
X0085371Y0284292D02*
X0118629Y0284292D01*
X0120542Y0286290D02*
X0083458Y0286290D01*
X0079299Y0286290D02*
X0077299Y0286290D01*
X0077299Y0287969D02*
X0076632Y0287882D01*
X0075552Y0287592D01*
X0074519Y0287165D01*
X0073551Y0286606D01*
X0072665Y0285925D01*
X0071874Y0285135D01*
X0071194Y0284248D01*
X0070635Y0283280D01*
X0070207Y0282247D01*
X0069918Y0281167D01*
X0069830Y0280500D01*
X0077299Y0280500D01*
X0077299Y0287969D01*
X0073140Y0286290D02*
X0007000Y0286290D01*
X0007000Y0284292D02*
X0071227Y0284292D01*
X0070226Y0282293D02*
X0007000Y0282293D01*
X0007000Y0280295D02*
X0077299Y0280295D01*
X0077299Y0282293D02*
X0079299Y0282293D01*
X0079299Y0280295D02*
X0124701Y0280295D01*
X0124701Y0282293D02*
X0126701Y0282293D01*
X0126701Y0280295D02*
X0149906Y0280295D01*
X0149906Y0278296D02*
X0134143Y0278296D01*
X0133604Y0276298D02*
X0150514Y0276298D01*
X0151492Y0274299D02*
X0132459Y0274299D01*
X0133774Y0282293D02*
X0150344Y0282293D01*
X0151172Y0284292D02*
X0132773Y0284292D01*
X0130860Y0286290D02*
X0153081Y0286290D01*
X0164186Y0286290D02*
X0204814Y0286290D01*
X0205422Y0286899D02*
X0202967Y0284444D01*
X0201639Y0281236D01*
X0201639Y0277764D01*
X0202967Y0274556D01*
X0205422Y0272101D01*
X0208630Y0270772D01*
X0212102Y0270772D01*
X0215310Y0272101D01*
X0217765Y0274556D01*
X0219094Y0277764D01*
X0219094Y0281236D01*
X0217765Y0284444D01*
X0215310Y0286899D01*
X0212102Y0288228D01*
X0208630Y0288228D01*
X0205422Y0286899D01*
X0202904Y0284292D02*
X0166096Y0284292D01*
X0166924Y0282293D02*
X0202076Y0282293D01*
X0201639Y0280295D02*
X0167361Y0280295D01*
X0179664Y0278296D02*
X0201639Y0278296D01*
X0202246Y0276298D02*
X0200431Y0276298D01*
X0202691Y0274299D02*
X0203224Y0274299D01*
X0203350Y0272301D02*
X0205223Y0272301D01*
X0203350Y0270302D02*
X0302027Y0270302D01*
X0302550Y0272301D02*
X0215509Y0272301D01*
X0217508Y0274299D02*
X0302550Y0274299D01*
X0302550Y0276298D02*
X0218486Y0276298D01*
X0219094Y0278296D02*
X0236332Y0278296D01*
X0236337Y0278275D02*
X0236600Y0277819D01*
X0236973Y0277447D01*
X0237429Y0277184D01*
X0237937Y0277047D01*
X0240480Y0277047D01*
X0240480Y0281720D01*
X0236201Y0281720D01*
X0236201Y0278784D01*
X0236337Y0278275D01*
X0236201Y0280295D02*
X0219094Y0280295D01*
X0218656Y0282293D02*
X0236201Y0282293D01*
X0236201Y0284292D02*
X0217828Y0284292D01*
X0215919Y0286290D02*
X0236710Y0286290D01*
X0237429Y0287184D02*
X0237937Y0287047D01*
X0240480Y0287047D01*
X0240480Y0291720D01*
X0236201Y0291720D01*
X0236201Y0288784D01*
X0236337Y0288275D01*
X0236600Y0287819D01*
X0236973Y0287447D01*
X0237429Y0287184D01*
X0236334Y0288289D02*
X0007000Y0288289D01*
X0007000Y0290287D02*
X0016309Y0290287D01*
X0017476Y0289613D02*
X0020249Y0288870D01*
X0023121Y0288870D01*
X0025894Y0289613D01*
X0028381Y0291049D01*
X0030412Y0293079D01*
X0031847Y0295566D01*
X0032591Y0298340D01*
X0032591Y0301211D01*
X0031847Y0303985D01*
X0030412Y0306472D01*
X0028381Y0308502D01*
X0025894Y0309938D01*
X0023121Y0310681D01*
X0020249Y0310681D01*
X0017476Y0309938D01*
X0014989Y0308502D01*
X0012958Y0306472D01*
X0011523Y0303985D01*
X0010780Y0301211D01*
X0010780Y0298340D01*
X0011523Y0295566D01*
X0012958Y0293079D01*
X0014989Y0291049D01*
X0017476Y0289613D01*
X0013752Y0292286D02*
X0007000Y0292286D01*
X0007000Y0294284D02*
X0012263Y0294284D01*
X0011331Y0296283D02*
X0007000Y0296283D01*
X0007000Y0298281D02*
X0010795Y0298281D01*
X0010780Y0300280D02*
X0007000Y0300280D01*
X0007000Y0302278D02*
X0011065Y0302278D01*
X0011691Y0304277D02*
X0007000Y0304277D01*
X0007000Y0306275D02*
X0012845Y0306275D01*
X0014760Y0308274D02*
X0007000Y0308274D01*
X0007000Y0310272D02*
X0018723Y0310272D01*
X0024647Y0310272D02*
X0249409Y0310272D01*
X0249323Y0308274D02*
X0028610Y0308274D01*
X0030525Y0306275D02*
X0249538Y0306275D01*
X0250083Y0304277D02*
X0031679Y0304277D01*
X0032305Y0302278D02*
X0251237Y0302278D01*
X0253042Y0300280D02*
X0032591Y0300280D01*
X0032575Y0298281D02*
X0249996Y0298281D01*
X0253240Y0297000D02*
X0248240Y0292000D01*
X0248240Y0282000D01*
X0252999Y0282293D02*
X0302550Y0282293D01*
X0301002Y0283311D02*
X0301265Y0283767D01*
X0301402Y0284276D01*
X0301402Y0288295D01*
X0295646Y0288295D01*
X0295646Y0289051D01*
X0301402Y0289051D01*
X0301402Y0293070D01*
X0301265Y0293579D01*
X0301002Y0294035D01*
X0300630Y0294407D01*
X0300174Y0294671D01*
X0299665Y0294807D01*
X0295646Y0294807D01*
X0295646Y0289051D01*
X0294890Y0289051D01*
X0294890Y0294807D01*
X0290871Y0294807D01*
X0290362Y0294671D01*
X0289906Y0294407D01*
X0289533Y0294035D01*
X0289270Y0293579D01*
X0289134Y0293070D01*
X0289134Y0289051D01*
X0294890Y0289051D01*
X0294890Y0288295D01*
X0295646Y0288295D01*
X0295646Y0282539D01*
X0299665Y0282539D01*
X0300174Y0282676D01*
X0300630Y0282939D01*
X0301002Y0283311D01*
X0301402Y0284292D02*
X0302550Y0284292D01*
X0302550Y0286290D02*
X0301402Y0286290D01*
X0301402Y0288289D02*
X0302550Y0288289D01*
X0302550Y0290287D02*
X0301402Y0290287D01*
X0301402Y0292286D02*
X0302550Y0292286D01*
X0302550Y0294284D02*
X0300753Y0294284D01*
X0302550Y0296283D02*
X0273308Y0296283D01*
X0273826Y0294671D02*
X0273370Y0294407D01*
X0272998Y0294035D01*
X0272735Y0293579D01*
X0272598Y0293070D01*
X0272598Y0289051D01*
X0278354Y0289051D01*
X0278354Y0288295D01*
X0272598Y0288295D01*
X0272598Y0284276D01*
X0272735Y0283767D01*
X0272998Y0283311D01*
X0273370Y0282939D01*
X0273826Y0282676D01*
X0274335Y0282539D01*
X0278354Y0282539D01*
X0278354Y0288295D01*
X0279110Y0288295D01*
X0279110Y0282539D01*
X0283129Y0282539D01*
X0283638Y0282676D01*
X0284094Y0282939D01*
X0284467Y0283311D01*
X0284730Y0283767D01*
X0284866Y0284276D01*
X0284866Y0288295D01*
X0279110Y0288295D01*
X0279110Y0289051D01*
X0278354Y0289051D01*
X0278354Y0294807D01*
X0274335Y0294807D01*
X0273826Y0294671D01*
X0273247Y0294284D02*
X0271305Y0294284D01*
X0272598Y0292286D02*
X0253051Y0292286D01*
X0252999Y0290287D02*
X0272598Y0290287D01*
X0272598Y0288289D02*
X0252999Y0288289D01*
X0252573Y0286290D02*
X0272598Y0286290D01*
X0272598Y0284292D02*
X0252999Y0284292D01*
X0252999Y0280295D02*
X0302550Y0280295D01*
X0302550Y0278296D02*
X0252999Y0278296D01*
X0241039Y0278296D02*
X0240480Y0278296D01*
X0240480Y0280295D02*
X0241039Y0280295D01*
X0241039Y0282293D02*
X0240480Y0282293D01*
X0240480Y0284292D02*
X0241039Y0284292D01*
X0241039Y0286290D02*
X0240480Y0286290D01*
X0240480Y0288289D02*
X0241039Y0288289D01*
X0241039Y0290287D02*
X0240480Y0290287D01*
X0240480Y0292286D02*
X0241039Y0292286D01*
X0241039Y0294284D02*
X0240480Y0294284D01*
X0240480Y0296283D02*
X0241039Y0296283D01*
X0236702Y0296283D02*
X0032039Y0296283D01*
X0031107Y0294284D02*
X0236201Y0294284D01*
X0236201Y0292286D02*
X0029618Y0292286D01*
X0027062Y0290287D02*
X0236201Y0290287D01*
X0253240Y0297000D02*
X0269500Y0297000D01*
X0278732Y0306232D01*
X0278732Y0310327D01*
X0285066Y0310272D02*
X0288934Y0310272D01*
X0288934Y0308274D02*
X0285066Y0308274D01*
X0285066Y0306275D02*
X0288934Y0306275D01*
X0289939Y0304277D02*
X0284061Y0304277D01*
X0279304Y0302278D02*
X0300115Y0302278D01*
X0302059Y0300280D02*
X0277305Y0300280D01*
X0275307Y0298281D02*
X0302550Y0298281D01*
X0305750Y0301115D02*
X0305750Y0269500D01*
X0299500Y0263250D01*
X0212086Y0263250D01*
X0212000Y0247000D01*
X0159510Y0247000D01*
X0159500Y0247010D01*
X0147000Y0247010D01*
X0133260Y0247010D01*
X0130750Y0244500D01*
X0130750Y0242000D01*
X0116600Y0242000D01*
X0111900Y0242323D02*
X0109721Y0242323D01*
X0109721Y0244321D02*
X0112060Y0244321D01*
X0111900Y0244161D02*
X0113189Y0245450D01*
X0120011Y0245450D01*
X0120261Y0245200D01*
X0127576Y0245200D01*
X0128037Y0246313D01*
X0128937Y0247213D01*
X0131447Y0249723D01*
X0132623Y0250210D01*
X0141847Y0250210D01*
X0141847Y0250480D01*
X0142309Y0250942D01*
X0142184Y0251159D01*
X0142047Y0251668D01*
X0142047Y0254211D01*
X0146720Y0254211D01*
X0146720Y0254770D01*
X0142047Y0254770D01*
X0142047Y0257313D01*
X0142184Y0257821D01*
X0142447Y0258277D01*
X0142660Y0258491D01*
X0111625Y0258491D01*
X0109721Y0256587D01*
X0109721Y0239800D01*
X0111939Y0239800D01*
X0111900Y0239839D01*
X0111900Y0244161D01*
X0109721Y0246320D02*
X0128044Y0246320D01*
X0130043Y0248318D02*
X0109721Y0248318D01*
X0109721Y0250317D02*
X0141847Y0250317D01*
X0142047Y0252315D02*
X0109721Y0252315D01*
X0109721Y0254314D02*
X0146720Y0254314D01*
X0147280Y0254314D02*
X0159220Y0254314D01*
X0159220Y0254211D02*
X0154547Y0254211D01*
X0154547Y0251668D01*
X0154684Y0251159D01*
X0154809Y0250942D01*
X0154347Y0250480D01*
X0154347Y0250210D01*
X0152153Y0250210D01*
X0152153Y0250480D01*
X0151691Y0250942D01*
X0151816Y0251159D01*
X0151953Y0251668D01*
X0151953Y0254211D01*
X0147280Y0254211D01*
X0147280Y0254770D01*
X0151953Y0254770D01*
X0151953Y0257313D01*
X0151816Y0257821D01*
X0151553Y0258277D01*
X0151340Y0258491D01*
X0155160Y0258491D01*
X0154947Y0258277D01*
X0154684Y0257821D01*
X0154547Y0257313D01*
X0154547Y0254770D01*
X0159220Y0254770D01*
X0159220Y0254211D01*
X0159780Y0254314D02*
X0208839Y0254314D01*
X0208849Y0256312D02*
X0164453Y0256312D01*
X0164019Y0258311D02*
X0208860Y0258311D01*
X0208871Y0260309D02*
X0185476Y0260309D01*
X0191955Y0262308D02*
X0194762Y0262308D01*
X0193477Y0264306D02*
X0193240Y0264306D01*
X0201797Y0262308D02*
X0208881Y0262308D01*
X0209059Y0264306D02*
X0203082Y0264306D01*
X0203350Y0266305D02*
X0211100Y0266305D01*
X0203350Y0268303D02*
X0300028Y0268303D01*
X0305082Y0264306D02*
X0390701Y0264306D01*
X0390701Y0262308D02*
X0303083Y0262308D01*
X0300763Y0260309D02*
X0390701Y0260309D01*
X0390701Y0266305D02*
X0307080Y0266305D01*
X0308718Y0268303D02*
X0390701Y0268303D01*
X0390701Y0270302D02*
X0308950Y0270302D01*
X0308950Y0272301D02*
X0390701Y0272301D01*
X0390701Y0274299D02*
X0308950Y0274299D01*
X0308950Y0276298D02*
X0390701Y0276298D01*
X0390701Y0278296D02*
X0308950Y0278296D01*
X0308950Y0280295D02*
X0390701Y0280295D01*
X0390701Y0282293D02*
X0308950Y0282293D01*
X0308950Y0284292D02*
X0390701Y0284292D01*
X0390701Y0286290D02*
X0308950Y0286290D01*
X0308950Y0288289D02*
X0390701Y0288289D01*
X0390701Y0290287D02*
X0381392Y0290287D01*
X0380225Y0289613D02*
X0382712Y0291049D01*
X0384742Y0293079D01*
X0386178Y0295566D01*
X0386921Y0298340D01*
X0386921Y0301211D01*
X0386178Y0303985D01*
X0384742Y0306472D01*
X0382712Y0308502D01*
X0380225Y0309938D01*
X0377451Y0310681D01*
X0374580Y0310681D01*
X0371806Y0309938D01*
X0369320Y0308502D01*
X0367289Y0306472D01*
X0365853Y0303985D01*
X0365110Y0301211D01*
X0365110Y0298340D01*
X0365853Y0295566D01*
X0367289Y0293079D01*
X0369320Y0291049D01*
X0371806Y0289613D01*
X0374580Y0288870D01*
X0377451Y0288870D01*
X0380225Y0289613D01*
X0383949Y0292286D02*
X0390701Y0292286D01*
X0390701Y0294284D02*
X0385438Y0294284D01*
X0386370Y0296283D02*
X0390701Y0296283D01*
X0390701Y0298281D02*
X0386906Y0298281D01*
X0386921Y0300280D02*
X0390701Y0300280D01*
X0390701Y0302278D02*
X0386635Y0302278D01*
X0386010Y0304277D02*
X0390701Y0304277D01*
X0390701Y0306275D02*
X0384856Y0306275D01*
X0382940Y0308274D02*
X0390701Y0308274D01*
X0390701Y0310272D02*
X0378977Y0310272D01*
X0373054Y0310272D02*
X0324591Y0310272D01*
X0324677Y0308274D02*
X0369091Y0308274D01*
X0367176Y0306275D02*
X0324462Y0306275D01*
X0323917Y0304277D02*
X0366022Y0304277D01*
X0365396Y0302278D02*
X0322763Y0302278D01*
X0320958Y0300280D02*
X0365110Y0300280D01*
X0365126Y0298281D02*
X0317711Y0298281D01*
X0309832Y0298281D02*
X0308950Y0298281D01*
X0308950Y0296283D02*
X0365661Y0296283D01*
X0366594Y0294284D02*
X0308950Y0294284D01*
X0308950Y0292286D02*
X0368083Y0292286D01*
X0370639Y0290287D02*
X0308950Y0290287D01*
X0305750Y0301115D02*
X0302866Y0303999D01*
X0302866Y0308250D01*
X0300789Y0310327D01*
X0295268Y0310327D01*
X0288934Y0312271D02*
X0285066Y0312271D01*
X0285066Y0314269D02*
X0288934Y0314269D01*
X0283638Y0294671D02*
X0283129Y0294807D01*
X0279110Y0294807D01*
X0279110Y0289051D01*
X0284866Y0289051D01*
X0284866Y0293070D01*
X0284730Y0293579D01*
X0284467Y0294035D01*
X0284094Y0294407D01*
X0283638Y0294671D01*
X0284218Y0294284D02*
X0289782Y0294284D01*
X0289134Y0292286D02*
X0284866Y0292286D01*
X0284866Y0290287D02*
X0289134Y0290287D01*
X0289134Y0288295D02*
X0289134Y0284276D01*
X0289270Y0283767D01*
X0289533Y0283311D01*
X0289906Y0282939D01*
X0290362Y0282676D01*
X0290871Y0282539D01*
X0294890Y0282539D01*
X0294890Y0288295D01*
X0289134Y0288295D01*
X0289134Y0288289D02*
X0284866Y0288289D01*
X0284866Y0286290D02*
X0289134Y0286290D01*
X0289134Y0284292D02*
X0284866Y0284292D01*
X0279110Y0284292D02*
X0278354Y0284292D01*
X0278354Y0286290D02*
X0279110Y0286290D01*
X0279110Y0288289D02*
X0278354Y0288289D01*
X0278354Y0290287D02*
X0279110Y0290287D01*
X0279110Y0292286D02*
X0278354Y0292286D01*
X0278354Y0294284D02*
X0279110Y0294284D01*
X0294890Y0294284D02*
X0295646Y0294284D01*
X0295646Y0292286D02*
X0294890Y0292286D01*
X0294890Y0290287D02*
X0295646Y0290287D01*
X0295646Y0288289D02*
X0294890Y0288289D01*
X0294890Y0286290D02*
X0295646Y0286290D01*
X0295646Y0284292D02*
X0294890Y0284292D01*
X0273250Y0252000D02*
X0273250Y0239500D01*
X0278250Y0234500D01*
X0275894Y0232330D02*
X0215286Y0232330D01*
X0215286Y0230332D02*
X0302893Y0230332D01*
X0304891Y0228333D02*
X0215286Y0228333D01*
X0215286Y0226335D02*
X0306890Y0226335D01*
X0308800Y0224336D02*
X0215286Y0224336D01*
X0215286Y0222338D02*
X0215919Y0222338D01*
X0225718Y0222338D02*
X0308800Y0222338D01*
X0308800Y0220339D02*
X0252621Y0220339D01*
X0254619Y0218341D02*
X0308800Y0218341D01*
X0308800Y0216342D02*
X0256618Y0216342D01*
X0258616Y0214344D02*
X0308800Y0214344D01*
X0308800Y0212345D02*
X0260615Y0212345D01*
X0262180Y0210347D02*
X0308800Y0210347D01*
X0308800Y0208348D02*
X0262300Y0208348D01*
X0262300Y0206350D02*
X0308800Y0206350D01*
X0308800Y0204351D02*
X0262300Y0204351D01*
X0262300Y0202353D02*
X0308800Y0202353D01*
X0308800Y0200354D02*
X0262300Y0200354D01*
X0262300Y0198356D02*
X0308800Y0198356D01*
X0308800Y0196357D02*
X0262300Y0196357D01*
X0262300Y0194359D02*
X0308800Y0194359D01*
X0308800Y0192360D02*
X0262300Y0192360D01*
X0262300Y0190362D02*
X0308800Y0190362D01*
X0308800Y0188363D02*
X0262300Y0188363D01*
X0262300Y0186365D02*
X0308800Y0186365D01*
X0308800Y0184366D02*
X0262300Y0184366D01*
X0262300Y0182368D02*
X0308800Y0182368D01*
X0308800Y0180369D02*
X0262300Y0180369D01*
X0262300Y0178370D02*
X0308800Y0178370D01*
X0308800Y0176372D02*
X0262300Y0176372D01*
X0262300Y0174373D02*
X0308800Y0174373D01*
X0308800Y0172375D02*
X0262300Y0172375D01*
X0262300Y0170376D02*
X0308800Y0170376D01*
X0308800Y0168378D02*
X0262300Y0168378D01*
X0262300Y0166379D02*
X0308800Y0166379D01*
X0308800Y0164381D02*
X0262300Y0164381D01*
X0262300Y0162382D02*
X0308800Y0162382D01*
X0308800Y0160384D02*
X0262300Y0160384D01*
X0262300Y0158385D02*
X0308800Y0158385D01*
X0308800Y0156387D02*
X0262300Y0156387D01*
X0262300Y0154388D02*
X0308800Y0154388D01*
X0308800Y0152390D02*
X0262300Y0152390D01*
X0262300Y0150391D02*
X0308800Y0150391D01*
X0308800Y0148393D02*
X0262300Y0148393D01*
X0262300Y0146394D02*
X0308800Y0146394D01*
X0308800Y0144396D02*
X0262300Y0144396D01*
X0262300Y0142397D02*
X0308800Y0142397D01*
X0308800Y0140399D02*
X0262300Y0140399D01*
X0262300Y0138400D02*
X0308800Y0138400D01*
X0308800Y0136402D02*
X0262300Y0136402D01*
X0262300Y0134403D02*
X0308800Y0134403D01*
X0308800Y0132405D02*
X0262300Y0132405D01*
X0262300Y0130406D02*
X0308800Y0130406D01*
X0308800Y0128408D02*
X0262300Y0128408D01*
X0262300Y0126409D02*
X0308800Y0126409D01*
X0308800Y0124411D02*
X0262300Y0124411D01*
X0262300Y0122412D02*
X0308800Y0122412D01*
X0308800Y0120414D02*
X0262300Y0120414D01*
X0262300Y0118415D02*
X0269404Y0118415D01*
X0268700Y0116417D02*
X0264043Y0116417D01*
X0309800Y0106424D02*
X0390701Y0106424D01*
X0390701Y0104426D02*
X0309800Y0104426D01*
X0309800Y0102427D02*
X0390701Y0102427D01*
X0390701Y0100429D02*
X0309800Y0100429D01*
X0309800Y0098430D02*
X0390701Y0098430D01*
X0390701Y0096432D02*
X0309800Y0096432D01*
X0309800Y0094433D02*
X0390701Y0094433D01*
X0390701Y0092434D02*
X0309800Y0092434D01*
X0309800Y0090436D02*
X0390701Y0090436D01*
X0390701Y0088437D02*
X0309800Y0088437D01*
X0309798Y0086439D02*
X0390701Y0086439D01*
X0390701Y0084440D02*
X0308400Y0084440D01*
X0306402Y0082442D02*
X0390701Y0082442D01*
X0390701Y0080443D02*
X0315052Y0080443D01*
X0315100Y0078445D02*
X0390701Y0078445D01*
X0390701Y0076446D02*
X0315100Y0076446D01*
X0315100Y0074448D02*
X0390701Y0074448D01*
X0390701Y0072449D02*
X0315100Y0072449D01*
X0314070Y0070451D02*
X0390701Y0070451D01*
X0390701Y0068452D02*
X0312573Y0068452D01*
X0312000Y0070200D02*
X0312000Y0076100D01*
X0312000Y0076100D01*
X0312000Y0070200D01*
X0312000Y0070451D02*
X0312000Y0070451D01*
X0312000Y0072449D02*
X0312000Y0072449D01*
X0312000Y0074448D02*
X0312000Y0074448D01*
X0312000Y0076446D02*
X0312000Y0076446D01*
X0312000Y0078445D02*
X0312000Y0078445D01*
X0312000Y0080443D02*
X0312000Y0080443D01*
X0307000Y0076100D02*
X0307000Y0069500D01*
X0312000Y0064500D01*
X0339500Y0064500D01*
X0344500Y0059500D01*
X0344500Y0039500D01*
X0338875Y0042472D02*
X0335125Y0042472D01*
X0335834Y0040473D02*
X0338166Y0040473D01*
X0338166Y0038475D02*
X0335834Y0038475D01*
X0335103Y0036476D02*
X0338897Y0036476D01*
X0340565Y0034478D02*
X0333435Y0034478D01*
X0329500Y0039500D02*
X0329500Y0054500D01*
X0324500Y0059500D01*
X0309500Y0059500D01*
X0302000Y0067000D01*
X0302000Y0076100D01*
X0297000Y0076100D02*
X0297000Y0064500D01*
X0307000Y0054500D01*
X0312000Y0054500D01*
X0314500Y0052000D01*
X0314500Y0039500D01*
X0320125Y0042472D02*
X0323875Y0042472D01*
X0323166Y0040473D02*
X0320834Y0040473D01*
X0320834Y0038475D02*
X0323166Y0038475D01*
X0323897Y0036476D02*
X0320103Y0036476D01*
X0318435Y0034478D02*
X0325565Y0034478D01*
X0325513Y0044470D02*
X0318487Y0044470D01*
X0317700Y0046469D02*
X0326300Y0046469D01*
X0326300Y0048467D02*
X0317700Y0048467D01*
X0317700Y0050466D02*
X0326300Y0050466D01*
X0326300Y0052464D02*
X0317700Y0052464D01*
X0316563Y0054463D02*
X0325012Y0054463D01*
X0330066Y0058460D02*
X0341015Y0058460D01*
X0341300Y0056461D02*
X0332064Y0056461D01*
X0332700Y0054463D02*
X0341300Y0054463D01*
X0341300Y0052464D02*
X0332700Y0052464D01*
X0332700Y0050466D02*
X0341300Y0050466D01*
X0341300Y0048467D02*
X0332700Y0048467D01*
X0332700Y0046469D02*
X0341300Y0046469D01*
X0340513Y0044470D02*
X0333487Y0044470D01*
X0347700Y0046469D02*
X0390701Y0046469D01*
X0390701Y0048467D02*
X0347700Y0048467D01*
X0347700Y0050466D02*
X0390701Y0050466D01*
X0390701Y0052464D02*
X0347700Y0052464D01*
X0347700Y0054463D02*
X0390701Y0054463D01*
X0390701Y0056461D02*
X0347700Y0056461D01*
X0347700Y0058460D02*
X0390701Y0058460D01*
X0390701Y0060458D02*
X0347567Y0060458D01*
X0346069Y0062457D02*
X0390701Y0062457D01*
X0390701Y0064455D02*
X0344070Y0064455D01*
X0342072Y0066454D02*
X0390701Y0066454D01*
X0390701Y0044470D02*
X0348487Y0044470D01*
X0350125Y0042472D02*
X0390701Y0042472D01*
X0390701Y0040473D02*
X0350834Y0040473D01*
X0350834Y0038475D02*
X0390701Y0038475D01*
X0390701Y0036476D02*
X0350103Y0036476D01*
X0348435Y0034478D02*
X0380167Y0034478D01*
X0376761Y0032479D02*
X0020940Y0032479D01*
X0022769Y0030481D02*
X0374932Y0030481D01*
X0373778Y0028482D02*
X0023923Y0028482D01*
X0024485Y0026484D02*
X0373215Y0026484D01*
X0372984Y0024485D02*
X0024717Y0024485D01*
X0024646Y0022487D02*
X0373055Y0022487D01*
X0373590Y0020488D02*
X0024111Y0020488D01*
X0023115Y0018490D02*
X0374585Y0018490D01*
X0376161Y0016491D02*
X0021540Y0016491D01*
X0018834Y0014493D02*
X0378867Y0014493D01*
X0388913Y0014493D02*
X0390701Y0014493D01*
X0390701Y0012494D02*
X0007000Y0012494D01*
X0007000Y0010496D02*
X0390701Y0010496D01*
X0390701Y0034478D02*
X0387613Y0034478D01*
X0339016Y0060458D02*
X0328067Y0060458D01*
X0311300Y0050466D02*
X0302700Y0050466D01*
X0302700Y0052464D02*
X0304510Y0052464D01*
X0302700Y0048467D02*
X0311300Y0048467D01*
X0311300Y0046469D02*
X0302700Y0046469D01*
X0303487Y0044470D02*
X0310513Y0044470D01*
X0308875Y0042472D02*
X0305125Y0042472D01*
X0305834Y0040473D02*
X0308166Y0040473D01*
X0308166Y0038475D02*
X0305834Y0038475D01*
X0305103Y0036476D02*
X0308897Y0036476D01*
X0310565Y0034478D02*
X0303435Y0034478D01*
X0299500Y0039500D02*
X0299500Y0054500D01*
X0292000Y0062000D01*
X0292000Y0076100D01*
X0287000Y0076100D02*
X0287000Y0059500D01*
X0284500Y0057000D01*
X0284500Y0039500D01*
X0278875Y0042472D02*
X0275125Y0042472D01*
X0275834Y0040473D02*
X0278166Y0040473D01*
X0278166Y0038475D02*
X0275834Y0038475D01*
X0275103Y0036476D02*
X0278897Y0036476D01*
X0280565Y0034478D02*
X0273435Y0034478D01*
X0269500Y0039500D02*
X0269500Y0049500D01*
X0282000Y0062000D01*
X0282000Y0076100D01*
X0277000Y0076100D02*
X0277000Y0067000D01*
X0254500Y0044500D01*
X0254500Y0039500D01*
X0248875Y0042472D02*
X0246997Y0042472D01*
X0245834Y0040473D02*
X0248166Y0040473D01*
X0248166Y0038475D02*
X0245834Y0038475D01*
X0245103Y0036476D02*
X0248897Y0036476D01*
X0250565Y0034478D02*
X0243435Y0034478D01*
X0248996Y0044470D02*
X0250513Y0044470D01*
X0250994Y0046469D02*
X0251943Y0046469D01*
X0252993Y0048467D02*
X0253942Y0048467D01*
X0254991Y0050466D02*
X0255940Y0050466D01*
X0256990Y0052464D02*
X0257939Y0052464D01*
X0258988Y0054463D02*
X0259937Y0054463D01*
X0260987Y0056461D02*
X0261936Y0056461D01*
X0262985Y0058460D02*
X0263934Y0058460D01*
X0264984Y0060458D02*
X0265933Y0060458D01*
X0266982Y0062457D02*
X0267931Y0062457D01*
X0268981Y0064455D02*
X0269930Y0064455D01*
X0270979Y0066454D02*
X0271928Y0066454D01*
X0272978Y0068452D02*
X0273800Y0068452D01*
X0276982Y0062457D02*
X0277931Y0062457D01*
X0275933Y0060458D02*
X0274984Y0060458D01*
X0273934Y0058460D02*
X0272985Y0058460D01*
X0271936Y0056461D02*
X0270987Y0056461D01*
X0269937Y0054463D02*
X0268988Y0054463D01*
X0267939Y0052464D02*
X0266990Y0052464D01*
X0266436Y0050466D02*
X0264991Y0050466D01*
X0266300Y0048467D02*
X0262993Y0048467D01*
X0260994Y0046469D02*
X0266300Y0046469D01*
X0265513Y0044470D02*
X0258996Y0044470D01*
X0260125Y0042472D02*
X0263875Y0042472D01*
X0263166Y0040473D02*
X0260834Y0040473D01*
X0260834Y0038475D02*
X0263166Y0038475D01*
X0263897Y0036476D02*
X0260103Y0036476D01*
X0258435Y0034478D02*
X0265565Y0034478D01*
X0273487Y0044470D02*
X0280513Y0044470D01*
X0281300Y0046469D02*
X0272700Y0046469D01*
X0272993Y0048467D02*
X0281300Y0048467D01*
X0281300Y0050466D02*
X0274991Y0050466D01*
X0276990Y0052464D02*
X0281300Y0052464D01*
X0281300Y0054463D02*
X0278988Y0054463D01*
X0280987Y0056461D02*
X0281300Y0056461D01*
X0287700Y0054463D02*
X0295012Y0054463D01*
X0296300Y0052464D02*
X0287700Y0052464D01*
X0287700Y0050466D02*
X0296300Y0050466D01*
X0296300Y0048467D02*
X0287700Y0048467D01*
X0287700Y0046469D02*
X0296300Y0046469D01*
X0295513Y0044470D02*
X0288487Y0044470D01*
X0290125Y0042472D02*
X0293875Y0042472D01*
X0293166Y0040473D02*
X0290834Y0040473D01*
X0290834Y0038475D02*
X0293166Y0038475D01*
X0293897Y0036476D02*
X0290103Y0036476D01*
X0288435Y0034478D02*
X0295565Y0034478D01*
X0293013Y0056461D02*
X0288487Y0056461D01*
X0290033Y0058460D02*
X0291015Y0058460D01*
X0315300Y0108423D02*
X0390701Y0108423D01*
X0390701Y0110421D02*
X0315300Y0110421D01*
X0214500Y0116417D02*
X0214500Y0116417D01*
X0214500Y0118415D02*
X0214500Y0118415D01*
X0177635Y0154388D02*
X0107887Y0154388D01*
X0108250Y0149500D02*
X0099500Y0158250D01*
X0099500Y0175750D01*
X0102000Y0178250D01*
X0104500Y0178250D01*
X0107010Y0178240D01*
X0099594Y0180369D02*
X0086829Y0180369D01*
X0086050Y0178370D02*
X0097595Y0178370D01*
X0096300Y0176372D02*
X0086050Y0176372D01*
X0086050Y0174373D02*
X0096300Y0174373D01*
X0096300Y0172375D02*
X0086050Y0172375D01*
X0058200Y0185260D02*
X0075840Y0203550D01*
X0092400Y0224336D02*
X0092400Y0224336D01*
X0092400Y0226335D02*
X0092400Y0226335D01*
X0096315Y0224336D02*
X0104200Y0224336D01*
X0104200Y0226335D02*
X0096900Y0226335D01*
X0096900Y0228333D02*
X0104200Y0228333D01*
X0109721Y0240324D02*
X0111900Y0240324D01*
X0109721Y0256312D02*
X0142047Y0256312D01*
X0142481Y0258311D02*
X0111446Y0258311D01*
X0092837Y0258311D02*
X0007000Y0258311D01*
X0007000Y0260309D02*
X0092209Y0260309D01*
X0092209Y0262308D02*
X0007000Y0262308D01*
X0007000Y0264306D02*
X0093541Y0264306D01*
X0092717Y0266305D02*
X0007000Y0266305D01*
X0007000Y0268303D02*
X0092209Y0268303D01*
X0092209Y0270302D02*
X0007000Y0270302D01*
X0007000Y0272301D02*
X0073714Y0272301D01*
X0071541Y0274299D02*
X0007000Y0274299D01*
X0007000Y0276298D02*
X0070396Y0276298D01*
X0069857Y0278296D02*
X0007000Y0278296D01*
X0007000Y0312271D02*
X0249944Y0312271D01*
X0250958Y0314269D02*
X0007000Y0314269D01*
X0077299Y0284292D02*
X0079299Y0284292D01*
X0079299Y0278296D02*
X0077299Y0278296D01*
X0077299Y0276298D02*
X0079299Y0276298D01*
X0079299Y0274299D02*
X0077299Y0274299D01*
X0077299Y0272301D02*
X0079299Y0272301D01*
X0124701Y0284292D02*
X0126701Y0284292D01*
X0126701Y0286290D02*
X0124701Y0286290D01*
X0151519Y0258311D02*
X0154981Y0258311D01*
X0154547Y0256312D02*
X0151953Y0256312D01*
X0151953Y0252315D02*
X0154547Y0252315D01*
X0154347Y0250317D02*
X0152153Y0250317D01*
X0164453Y0252315D02*
X0208828Y0252315D01*
X0208818Y0250317D02*
X0164653Y0250317D01*
X0192849Y0274299D02*
X0193868Y0274299D01*
X0196128Y0276298D02*
X0190588Y0276298D01*
X0186286Y0276298D02*
X0182714Y0276298D01*
X0215286Y0248318D02*
X0248748Y0248318D01*
X0250252Y0248318D02*
X0270050Y0248318D01*
X0270050Y0246320D02*
X0215286Y0246320D01*
X0215286Y0244321D02*
X0270050Y0244321D01*
X0270050Y0242323D02*
X0215286Y0242323D01*
X0215286Y0240324D02*
X0270050Y0240324D01*
X0270273Y0238326D02*
X0215286Y0238326D01*
X0215286Y0236327D02*
X0271897Y0236327D01*
X0273896Y0234329D02*
X0215286Y0234329D01*
X0129614Y0212345D02*
X0007000Y0212345D01*
X0007000Y0210347D02*
X0129609Y0210347D01*
X0129604Y0208348D02*
X0007000Y0208348D01*
X0007000Y0146394D02*
X0056139Y0146394D01*
X0053000Y0108423D02*
X0053000Y0108423D01*
X0053000Y0106424D02*
X0053000Y0106424D01*
X0044500Y0105740D02*
X0037394Y0105740D01*
X0037000Y0105346D01*
X0037000Y0106424D02*
X0037000Y0106424D01*
X0037000Y0108423D02*
X0037000Y0108423D01*
X0033165Y0108423D02*
X0026450Y0108423D01*
X0026450Y0106424D02*
X0032835Y0106424D01*
X0032835Y0104426D02*
X0026450Y0104426D01*
X0026450Y0102427D02*
X0033074Y0102427D01*
X0032635Y0100429D02*
X0026450Y0100429D01*
X0026450Y0098430D02*
X0032635Y0098430D01*
X0032635Y0096432D02*
X0026450Y0096432D01*
X0027842Y0094433D02*
X0039704Y0094433D01*
X0038591Y0092434D02*
X0041700Y0092434D01*
X0030500Y0084440D02*
X0030500Y0084440D01*
X0022280Y0084440D02*
X0021720Y0084440D01*
X0021720Y0086439D02*
X0022280Y0086439D01*
X0019611Y0070451D02*
X0007000Y0070451D01*
X0007000Y0072449D02*
X0010959Y0072449D01*
X0007000Y0068452D02*
X0021588Y0068452D01*
X0023586Y0066454D02*
X0007000Y0066454D01*
X0007000Y0064455D02*
X0025585Y0064455D01*
X0027583Y0062457D02*
X0007000Y0062457D01*
X0007000Y0060458D02*
X0029582Y0060458D01*
X0031580Y0058460D02*
X0007000Y0058460D01*
X0007000Y0056461D02*
X0033579Y0056461D01*
X0032914Y0057126D02*
X0032914Y0057126D01*
X0035577Y0054463D02*
X0007000Y0054463D01*
X0007000Y0052464D02*
X0037576Y0052464D01*
X0039574Y0050466D02*
X0007000Y0050466D01*
X0007000Y0048467D02*
X0051573Y0048467D01*
X0051700Y0046469D02*
X0007000Y0046469D01*
X0007000Y0044470D02*
X0050513Y0044470D01*
X0048875Y0042472D02*
X0007000Y0042472D01*
X0007000Y0040473D02*
X0048166Y0040473D01*
X0048166Y0038475D02*
X0007000Y0038475D01*
X0007000Y0036476D02*
X0048897Y0036476D01*
X0050565Y0034478D02*
X0017534Y0034478D01*
X0010088Y0034478D02*
X0007000Y0034478D01*
X0007000Y0014493D02*
X0008788Y0014493D01*
X0041498Y0056461D02*
X0063579Y0056461D01*
X0134462Y0070451D02*
X0134538Y0070451D01*
X0139462Y0070451D02*
X0139538Y0070451D01*
X0144462Y0070451D02*
X0144538Y0070451D01*
X0324056Y0312271D02*
X0390701Y0312271D01*
X0390701Y0314269D02*
X0323042Y0314269D01*
D27*
X0249500Y0219500D02*
X0220819Y0219500D01*
X0220819Y0214500D02*
X0219500Y0214500D01*
X0220819Y0214500D01*
X0249500Y0214500D01*
X0257000Y0207000D01*
X0257000Y0102000D01*
X0259500Y0099500D01*
X0274500Y0099500D01*
X0277000Y0102000D01*
X0277000Y0112900D01*
X0272000Y0112900D02*
X0263600Y0112900D01*
X0259500Y0117000D01*
X0259500Y0209500D01*
X0249500Y0219500D01*
X0247000Y0209500D02*
X0220819Y0209500D01*
X0220819Y0204500D02*
X0244500Y0204500D01*
X0252000Y0197000D01*
X0252000Y0097000D01*
X0254500Y0094500D01*
X0284500Y0094500D01*
X0287000Y0097000D01*
X0287000Y0112900D01*
X0292000Y0112900D02*
X0292000Y0094500D01*
X0289500Y0092000D01*
X0252000Y0092000D01*
X0249500Y0094500D01*
X0249500Y0194500D01*
X0244500Y0199500D01*
X0220819Y0199500D01*
X0220819Y0194500D02*
X0242000Y0194500D01*
X0247000Y0189500D01*
X0247000Y0092000D01*
X0249500Y0089500D01*
X0294500Y0089500D01*
X0297000Y0092000D01*
X0297000Y0112900D01*
X0302000Y0112900D02*
X0302000Y0089500D01*
X0299500Y0087000D01*
X0247000Y0087000D01*
X0244400Y0089600D01*
X0244400Y0116400D01*
X0244400Y0117100D01*
X0244400Y0184600D01*
X0239500Y0189500D01*
X0220819Y0189500D01*
X0220819Y0184500D02*
X0239500Y0184500D01*
X0242000Y0182000D01*
X0242000Y0087000D01*
X0244500Y0084500D01*
X0304500Y0084500D01*
X0307000Y0087000D01*
X0307000Y0112900D01*
X0282000Y0112900D02*
X0282000Y0099500D01*
X0279500Y0097000D01*
X0257000Y0097000D01*
X0254500Y0099500D01*
X0254500Y0202000D01*
X0247000Y0209500D01*
X0227000Y0169500D02*
X0220819Y0169500D01*
X0220819Y0164500D02*
X0207000Y0164500D01*
X0202000Y0159500D01*
X0202000Y0137000D01*
X0197000Y0132000D01*
X0189500Y0132000D01*
X0187000Y0129500D01*
X0187000Y0125000D01*
X0186654Y0125346D02*
X0179500Y0125346D01*
X0187000Y0119000D02*
X0187000Y0109500D01*
X0189500Y0107000D01*
X0204752Y0107000D01*
X0204500Y0107252D01*
X0204500Y0119000D01*
X0204500Y0125000D02*
X0204500Y0134500D01*
X0204500Y0137000D01*
X0204500Y0157000D01*
X0207000Y0159500D01*
X0220819Y0159500D01*
X0222000Y0154956D02*
X0220387Y0154068D01*
X0220819Y0154500D01*
X0222000Y0154956D02*
X0222000Y0125000D01*
X0221654Y0125346D01*
X0214500Y0125346D01*
X0222000Y0119000D02*
X0229255Y0119000D01*
X0229500Y0118755D01*
X0229500Y0167000D01*
X0227000Y0169500D01*
X0197000Y0142000D02*
X0192000Y0137000D01*
X0167000Y0137000D01*
X0162000Y0132000D01*
X0162000Y0112900D01*
X0157000Y0112900D02*
X0157000Y0132000D01*
X0164500Y0139500D01*
X0189500Y0139500D01*
X0194500Y0144500D01*
X0194500Y0207000D01*
X0192000Y0209500D01*
X0183181Y0209500D01*
X0183181Y0204500D02*
X0189500Y0204500D01*
X0192000Y0202000D01*
X0192000Y0145394D01*
X0189053Y0142447D01*
X0162447Y0142447D01*
X0152000Y0132000D01*
X0152000Y0112900D01*
X0167000Y0112900D02*
X0167000Y0132000D01*
X0169500Y0134500D01*
X0194500Y0134500D01*
X0199500Y0139500D01*
X0199500Y0217000D01*
X0197000Y0219500D01*
X0183181Y0219500D01*
X0183181Y0214500D02*
X0194500Y0214500D01*
X0197000Y0212000D01*
X0197000Y0142000D01*
X0197000Y0125346D02*
X0204154Y0125346D01*
X0204500Y0125000D01*
X0204752Y0107000D02*
X0227000Y0107000D01*
X0229500Y0109500D01*
X0229500Y0118755D01*
X0183181Y0159500D02*
X0109707Y0159500D01*
X0106961Y0162246D01*
X0106961Y0172039D01*
X0105750Y0173250D01*
X0109500Y0172000D02*
X0109500Y0164745D01*
X0112245Y0162000D01*
X0175750Y0162000D01*
X0178250Y0164500D01*
X0183181Y0164500D01*
X0183181Y0184500D02*
X0087000Y0184500D01*
X0083250Y0180750D01*
X0083250Y0124500D01*
X0080750Y0122000D01*
X0080750Y0100750D01*
X0084096Y0098654D01*
X0084894Y0098260D02*
X0091944Y0098260D01*
X0092000Y0098203D01*
X0092000Y0097000D01*
X0099500Y0089500D01*
X0099500Y0039500D01*
X0084500Y0039500D02*
X0084500Y0064500D01*
X0082000Y0067000D01*
X0064500Y0067000D01*
X0062000Y0069500D01*
X0062000Y0075760D01*
X0061751Y0076009D01*
X0062000Y0075760D01*
X0062860Y0075760D01*
X0066600Y0079500D01*
X0078500Y0079500D01*
X0082150Y0075900D02*
X0087000Y0080750D01*
X0082150Y0075900D02*
X0070500Y0075900D01*
X0061751Y0076009D02*
X0061606Y0076154D01*
X0054500Y0076154D01*
X0050346Y0076154D01*
X0049500Y0077000D01*
X0049500Y0088250D01*
X0052000Y0090750D01*
X0068250Y0090750D01*
X0072000Y0094500D01*
X0072000Y0179500D01*
X0082000Y0189500D01*
X0183181Y0189500D01*
X0183181Y0194500D02*
X0079500Y0194500D01*
X0069500Y0184500D01*
X0069500Y0097000D01*
X0067000Y0094500D01*
X0044500Y0094500D01*
X0044500Y0097887D01*
X0046113Y0099500D01*
X0047000Y0099500D01*
X0049500Y0102000D01*
X0061000Y0102000D01*
X0065900Y0098400D02*
X0067000Y0099500D01*
X0067000Y0109500D01*
X0064500Y0112000D01*
X0059500Y0112000D01*
X0058250Y0113250D01*
X0063250Y0117000D02*
X0067000Y0120750D01*
X0067000Y0189500D01*
X0077000Y0199500D01*
X0183181Y0199500D01*
X0126154Y0218982D02*
X0126154Y0224500D01*
X0122000Y0223579D02*
X0122000Y0230750D01*
X0120865Y0231885D01*
X0116600Y0232000D02*
X0126154Y0232000D01*
X0116600Y0237000D02*
X0108250Y0237000D01*
X0108023Y0237227D02*
X0106921Y0238329D01*
X0106921Y0260957D01*
X0107255Y0261291D01*
X0182497Y0261291D01*
X0188437Y0267230D01*
X0188437Y0268831D01*
X0180563Y0268831D02*
X0180563Y0273437D01*
X0177000Y0277000D01*
X0167911Y0277000D01*
X0162083Y0271172D01*
X0109263Y0271172D01*
X0106921Y0268831D01*
X0101749Y0263658D01*
X0101749Y0259022D01*
X0100750Y0258023D01*
X0100750Y0238788D01*
X0098962Y0237000D01*
X0092400Y0237000D01*
X0092605Y0232000D02*
X0105303Y0232000D01*
X0107000Y0230303D01*
X0107000Y0222000D01*
X0109500Y0219500D01*
X0114518Y0219500D01*
X0115752Y0219500D01*
X0117002Y0218250D01*
X0125422Y0218250D01*
X0126154Y0218982D01*
X0122000Y0223579D02*
X0120421Y0222000D01*
X0119500Y0222000D01*
X0110750Y0173250D02*
X0109500Y0172000D01*
X0108250Y0116350D02*
X0112000Y0112600D01*
X0112000Y0109500D01*
X0114500Y0107000D01*
X0114500Y0099500D01*
X0113400Y0098400D01*
X0100500Y0098400D01*
X0097000Y0102000D02*
X0094500Y0099500D01*
X0093240Y0099500D01*
X0092000Y0098260D01*
X0091944Y0098260D01*
X0097000Y0102000D02*
X0108500Y0102000D01*
X0100500Y0105600D02*
X0092140Y0105600D01*
X0092000Y0105740D01*
X0084894Y0105740D01*
X0084500Y0105346D01*
X0065900Y0098400D02*
X0053000Y0098400D01*
X0044500Y0098260D02*
X0044304Y0098260D01*
X0044500Y0098064D01*
X0044500Y0097887D01*
X0044304Y0098260D02*
X0037394Y0098260D01*
X0037000Y0098654D01*
X0044500Y0094500D02*
X0044500Y0092000D01*
X0047000Y0089500D01*
X0047000Y0067000D01*
X0054500Y0059500D01*
X0064500Y0059500D01*
X0069500Y0054500D01*
X0069500Y0039500D01*
X0054500Y0039500D02*
X0054500Y0049500D01*
X0052000Y0052000D01*
X0042000Y0052000D01*
X0034500Y0059500D01*
X0029500Y0064500D01*
X0027000Y0067000D01*
X0024500Y0069500D01*
X0022000Y0072000D01*
X0022000Y0075701D01*
X0021941Y0075760D01*
X0014894Y0075760D01*
X0014500Y0076154D01*
X0007846Y0076154D01*
X0007000Y0077000D01*
X0007000Y0108250D01*
X0015750Y0117000D01*
X0063250Y0117000D01*
X0038500Y0088000D02*
X0044500Y0082000D01*
X0044500Y0077000D01*
X0043400Y0075900D01*
X0030500Y0075900D01*
X0026100Y0076100D02*
X0026100Y0077746D01*
X0027854Y0079500D01*
X0038500Y0079500D01*
X0026100Y0076100D02*
X0024500Y0074500D01*
X0023540Y0074500D01*
X0022140Y0075900D01*
X0022000Y0075760D01*
X0021941Y0075760D01*
D28*
X0186654Y0125346D02*
X0187000Y0125000D01*
X0114518Y0219500D02*
X0114500Y0219500D01*
X0116600Y0232000D02*
X0120750Y0232000D01*
X0126154Y0232000D01*
X0120865Y0231885D02*
X0120750Y0232000D01*
X0132846Y0232000D02*
X0132846Y0232393D01*
X0108250Y0237000D02*
X0108023Y0237227D01*
X0092605Y0232000D02*
X0092400Y0232000D01*
D29*
X0130750Y0242000D02*
X0132846Y0239904D01*
X0132846Y0232000D01*
X0132846Y0224500D01*
M02*
