999
dxfrw 0.6.3
  0
SECTION
  2
HEADER
  9
$ACADVER
  1
AC1021
  9
$DWGCODEPAGE
  3
ANSI_1252
  9
$INSBASE
 10
0
 20
0
 30
0
  9
$EXTMIN
 10
-30.83333333333334
 20
-21.11111111111111
 30
0
  9
$EXTMAX
 10
495.8333333333335
 20
105
 30
0
  9
$LIMMIN
 10
0
 20
0
  9
$LIMMAX
 10
420
 20
297
  9
$ORTHOMODE
 70
    0
  9
$REGENMODE
 70
    1
  9
$FILLMODE
 70
    1
  9
$QTEXTMODE
 70
    0
  9
$MIRRTEXT
 70
    0
  9
$LTSCALE
 40
1
  9
$ATTMODE
 70
    0
  9
$TEXTSIZE
 40
2.5
  9
$TRACEWID
 40
15.68
  9
$TEXTSTYLE
  7
STANDARD
  9
$CLAYER
  8
Abmessungen
  9
$CELTYPE
  6
BYLAYER
  9
$CECOLOR
 62
  256
  9
$CELTSCALE
 40
1
  9
$DISPSILH
 70
    0
  9
$DIMSCALE
 40
1
  9
$DIMASZ
 40
2.5
  9
$DIMEXO
 40
0.625
  9
$DIMDLI
 40
3.75
  9
$DIMRND
 40
0
  9
$DIMDLE
 40
0
  9
$DIMEXE
 40
1.25
  9
$DIMTP
 40
0
  9
$DIMTM
 40
0
  9
$DIMTXT
 40
5
  9
$DIMCEN
 40
2.5
  9
$DIMTSZ
 40
0
  9
$DIMTOL
 70
    0
  9
$DIMLIM
 70
    0
  9
$DIMTIH
 70
    1
  9
$DIMTOH
 70
    0
  9
$DIMSE1
 70
    0
  9
$DIMSE2
 70
    0
  9
$DIMTAD
 70
    1
  9
$DIMZIN
 70
    1
  9
$DIMBLK
  1

  9
$DIMASO
 70
    1
  9
$DIMSHO
 70
    1
  9
$DIMPOST
  1

  9
$DIMAPOST
  1

  9
$DIMALT
 70
    0
  9
$DIMALTD
 70
    3
  9
$DIMALTF
 40
0.03937
  9
$DIMLFAC
 40
1
  9
$DIMTOFL
 70
    1
  9
$DIMTVP
 40
0
  9
$DIMTIX
 70
    0
  9
$DIMSOXD
 70
    0
  9
$DIMSAH
 70
    0
  9
$DIMBLK1
  1

  9
$DIMBLK2
  1

  9
$DIMSTYLE
  2
STANDARD
  9
$DIMCLRD
 70
    0
  9
$DIMCLRE
 70
    0
  9
$DIMCLRT
 70
    0
  9
$DIMTFAC
 40
1
  9
$DIMGAP
 40
0.625
  9
$DIMJUST
 70
    0
  9
$DIMSD1
 70
    0
  9
$DIMSD2
 70
    0
  9
$DIMTOLJ
 70
    0
  9
$DIMTZIN
 70
    8
  9
$DIMALTZ
 70
    0
  9
$DIMALTTZ
 70
    0
  9
$DIMUPT
 70
    0
  9
$DIMDEC
 70
    1
  9
$DIMTDEC
 70
    2
  9
$DIMALTU
 70
    2
  9
$DIMALTTD
 70
    3
  9
$DIMTXSTY
  7
standard
  9
$DIMAUNIT
 70
    0
  9
$DIMADEC
 70
    2
  9
$DIMALTRND
 40
0
  9
$DIMAZIN
 70
    0
  9
$DIMDSEP
 70
    0
  9
$DIMATFIT
 70
    3
  9
$DIMFRAC
 70
    0
  9
$DIMLDRBLK
  1
STANDARD
  9
$DIMLUNIT
 70
    2
  9
$DIMLWD
 70
   -2
  9
$DIMLWE
 70
   -2
  9
$DIMTMOVE
 70
    0
  9
$DIMFXL
 40
1
  9
$DIMFXLON
 70
    0
  9
$DIMJOGANG
 40
0.7854
  9
$DIMTFILL
 70
    0
  9
$DIMTFILLCLR
 70
    0
  9
$DIMARCSYM
 70
    0
  9
$DIMLTYPE
  6

  9
$DIMLTEX1
  6

  9
$DIMLTEX2
  6

  9
$LUNITS
 70
    2
  9
$LUPREC
 70
    4
  9
$SKETCHINC
 40
1
  9
$FILLETRAD
 40
0
  9
$AUNITS
 70
    0
  9
$AUPREC
 70
    2
  9
$MENU
  1
.
  9
$ELEVATION
 40
0
  9
$PELEVATION
 40
0
  9
$THICKNESS
 40
0
  9
$LIMCHECK
 70
    0
  9
$CHAMFERA
 40
0
  9
$CHAMFERB
 40
0
  9
$CHAMFERC
 40
0
  9
$CHAMFERD
 40
0
  9
$SKPOLY
 70
    0
  9
$USRTIMER
 70
    1
  9
$ANGBASE
 50
0
  9
$ANGDIR
 70
    0
  9
$PDMODE
 70
   34
  9
$PDSIZE
 40
0
  9
$PLINEWID
 40
0
  9
$SPLFRAME
 70
    0
  9
$SPLINETYPE
 70
    2
  9
$SPLINESEGS
 70
    8
  9
$HANDSEED
  5
20000
  9
$SURFTAB1
 70
    6
  9
$SURFTAB2
 70
    6
  9
$SURFTYPE
 70
    6
  9
$SURFU
 70
    6
  9
$SURFV
 70
    6
  9
$UCSBASE
  2

  9
$UCSNAME
  2

  9
$UCSORG
 10
0
 20
0
 30
0
  9
$UCSXDIR
 10
1
 20
0
 30
0
  9
$UCSYDIR
 10
0
 20
1
 30
0
  9
$UCSORTHOREF
  2

  9
$UCSORTHOVIEW
 70
    0
  9
$UCSORGTOP
 10
0
 20
0
 30
0
  9
$UCSORGBOTTOM
 10
0
 20
0
 30
0
  9
$UCSORGLEFT
 10
0
 20
0
 30
0
  9
$UCSORGRIGHT
 10
0
 20
0
 30
0
  9
$UCSORGFRONT
 10
0
 20
0
 30
0
  9
$UCSORGBACK
 10
0
 20
0
 30
0
  9
$PUCSBASE
  2

  9
$PUCSNAME
  2

  9
$PUCSORG
 10
0
 20
0
 30
0
  9
$PUCSXDIR
 10
1
 20
0
 30
0
  9
$PUCSYDIR
 10
0
 20
1
 30
0
  9
$PUCSORTHOREF
  2

  9
$PUCSORTHOVIEW
 70
    0
  9
$PUCSORGTOP
 10
0
 20
0
 30
0
  9
$PUCSORGBOTTOM
 10
0
 20
0
 30
0
  9
$PUCSORGLEFT
 10
0
 20
0
 30
0
  9
$PUCSORGRIGHT
 10
0
 20
0
 30
0
  9
$PUCSORGFRONT
 10
0
 20
0
 30
0
  9
$PUCSORGBACK
 10
0
 20
0
 30
0
  9
$USERI1
 70
    0
  9
$USERI2
 70
    0
  9
$USERI3
 70
    0
  9
$USERI4
 70
    0
  9
$USERI5
 70
    0
  9
$USERR1
 40
0
  9
$USERR2
 40
0
  9
$USERR3
 40
0
  9
$USERR4
 40
0
  9
$USERR5
 40
0
  9
$WORLDVIEW
 70
    1
  9
$SHADEDGE
 70
    3
  9
$SHADEDIF
 70
   70
  9
$TILEMODE
 70
    1
  9
$MAXACTVP
 70
   64
  9
$PINSBASE
 10
28.4240506329114
 20
83.33755274261604
 30
0
  9
$PLIMCHECK
 70
    0
  9
$PEXTMIN
 10
0
 20
0
 30
0
  9
$PEXTMAX
 10
0
 20
0
 30
0
  9
$GRIDMODE
 70
    1
  9
$SNAPSTYLE
 70
    0
  9
$GRIDUNIT
 10
0
 20
0
  9
$PLIMMIN
 10
0
 20
0
  9
$PLIMMAX
 10
297
 20
210
  9
$UNITMODE
 70
    0
  9
$VISRETAIN
 70
    1
  9
$PLINEGEN
 70
    0
  9
$PSLTSCALE
 70
    1
  9
$TREEDEPTH
 70
 3020
  9
$CMLSTYLE
  2
Standard
  9
$CMLJUST
 70
    0
  9
$CMLSCALE
 40
20
  9
$PROXYGRAPHICS
 70
    1
  9
$MEASUREMENT
 70
    1
  9
$CELWEIGHT
370
   -1
  9
$ENDCAPS
280
    0
  9
$JOINSTYLE
280
    0
  9
$LWDISPLAY
290
    0
  9
$INSUNITS
 70
    4
  9
$HYPERLINKBASE
  1

  9
$STYLESHEET
  1

  9
$XEDIT
290
    1
  9
$CEPSNTYPE
380
    0
  9
$PSTYLEMODE
290
    1
  9
$EXTNAMES
290
    1
  9
$PSVPSCALE
 40
0.5164568990894866
  9
$OLESTARTUP
290
    0
  9
$SORTENTS
280
  127
  9
$INDEXCTL
280
    0
  9
$HIDETEXT
280
    1
  9
$XCLIPFRAME
290
    0
  9
$HALOGAP
280
    0
  9
$OBSCOLOR
 70
  257
  9
$OBSLTYPE
280
    0
  9
$INTERSECTIONDISPLAY
280
    0
  9
$INTERSECTIONCOLOR
 70
  257
  9
$DIMASSOC
280
    1
  9
$PROJECTNAME
  1

  9
$CAMERADISPLAY
290
    0
  9
$LENSLENGTH
 40
50
  9
$CAMERAHEIGHT
 40
0
  9
$STEPSPERSEC
 40
2
  9
$STEPSIZE
 40
50
  9
$3DDWFPREC
 40
2
  9
$PSOLWIDTH
 40
5
  9
$PSOLHEIGHT
 40
80
  9
$LOFTANG1
 40
1.570796326794897
  9
$LOFTANG2
 40
1.570796326794897
  9
$LOFTMAG1
 40
0
  9
$LOFTMAG2
 40
0
  9
$LOFTPARAM
 70
    7
  9
$LOFTNORMALS
280
    1
  9
$LATITUDE
 40
1
  9
$LONGITUDE
 40
1
  9
$NORTHDIRECTION
 40
0
  9
$TIMEZONE
 70
-8000
  9
$LIGHTGLYPHDISPLAY
280
    1
  9
$TILEMODELIGHTSYNCH
280
    1
  9
$SOLIDHIST
280
    1
  9
$SHOWHIST
280
    1
  9
$DWFFRAME
280
    2
  9
$DGNFRAME
280
    0
  9
$REALWORLDSCALE
290
    1
  9
$INTERFERECOLOR
 62
    1
  9
$CSHADOW
280
    0
  9
$SHADOWPLANELOCATION
 40
0
  0
ENDSEC
  0
SECTION
  2
CLASSES
  0
ENDSEC
  0
SECTION
  2
TABLES
  0
TABLE
  2
VPORT
  5
8
330
0
100
AcDbSymbolTable
 70
    1
  0
VPORT
  5
31
330
2
100
AcDbSymbolTableRecord
100
AcDbViewportTableRecord
  2
*ACTIVE
 70
    0
 10
0
 20
0
 11
1
 21
1
 12
266.3078626799938
 22
95.88482834995837
 13
0
 23
0
 14
10
 24
10
 15
10
 25
10
 16
0
 26
0
 36
1
 17
0
 27
0
 37
0
 40
274.7065337763406
 41
1.993630573248408
 42
50
 43
0
 44
0
 50
0
 51
0
 71
    0
 72
  100
 73
    1
 74
    3
 75
    0
 76
    1
 77
    0
 78
    0
281
    0
 65
    1
110
0
120
0
130
0
111
1
121
0
131
0
112
0
122
1
132
0
 79
    0
146
0
348
10020
 60
    7
 61
    5
292
1
282
    1
141
0
142
0
 63
  250
421
3358443
  0
ENDTAB
  0
TABLE
  2
LTYPE
  5
5
330
0
100
AcDbSymbolTable
 70
    4
  0
LTYPE
  5
14
330
5
100
AcDbSymbolTableRecord
100
AcDbLinetypeTableRecord
  2
ByBlock
 70
    0
  3

 72
   65
 73
    0
 40
0
  0
LTYPE
  5
15
330
5
100
AcDbSymbolTableRecord
100
AcDbLinetypeTableRecord
  2
ByLayer
 70
    0
  3

 72
   65
 73
    0
 40
0
  0
LTYPE
  5
16
330
5
100
AcDbSymbolTableRecord
100
AcDbLinetypeTableRecord
  2
Continuous
 70
    0
  3
Solid line
 72
   65
 73
    0
 40
0
  0
LTYPE
  5
32
330
5
100
AcDbSymbolTableRecord
100
AcDbLinetypeTableRecord
  2
DOT
 70
    0
  3
Dot . . . . . . . . . . . . . . . . . . . . . .
 72
   65
 73
    2
 40
6.35
 49
0
 74
    0
 49
-6.35
 74
    0
  0
LTYPE
  5
33
330
5
100
AcDbSymbolTableRecord
100
AcDbLinetypeTableRecord
  2
DOTTINY
 70
    0
  3
Dot (.15x) .....................................
 72
   65
 73
    2
 40
0.9525
 49
0
 74
    0
 49
-0.9525
 74
    0
  0
LTYPE
  5
34
330
5
100
AcDbSymbolTableRecord
100
AcDbLinetypeTableRecord
  2
DOT2
 70
    0
  3
Dot (.5x) .....................................
 72
   65
 73
    2
 40
3.175
 49
0
 74
    0
 49
-3.175
 74
    0
  0
LTYPE
  5
35
330
5
100
AcDbSymbolTableRecord
100
AcDbLinetypeTableRecord
  2
DOTX2
 70
    0
  3
Dot (2x) .  .  .  .  .  .  .  .  .  .  .  .  .
 72
   65
 73
    2
 40
12.7
 49
0
 74
    0
 49
-12.7
 74
    0
  0
LTYPE
  5
36
330
5
100
AcDbSymbolTableRecord
100
AcDbLinetypeTableRecord
  2
DASHED
 70
    0
  3
Dashed _ _ _ _ _ _ _ _ _ _ _ _ _ _ _ _ _
 72
   65
 73
    2
 40
19.05
 49
12.7
 74
    0
 49
-6.35
 74
    0
  0
LTYPE
  5
37
330
5
100
AcDbSymbolTableRecord
100
AcDbLinetypeTableRecord
  2
DASHEDTINY
 70
    0
  3
Dashed (.15x) _ _ _ _ _ _ _ _ _ _ _ _ _ _ _ _ _
 72
   65
 73
    2
 40
2.8575
 49
1.905
 74
    0
 49
-0.9525
 74
    0
  0
LTYPE
  5
38
330
5
100
AcDbSymbolTableRecord
100
AcDbLinetypeTableRecord
  2
DASHED2
 70
    0
  3
Dashed (.5x) _ _ _ _ _ _ _ _ _ _ _ _ _ _ _ _ _
 72
   65
 73
    2
 40
9.524999999999999
 49
6.35
 74
    0
 49
-3.175
 74
    0
  0
LTYPE
  5
39
330
5
100
AcDbSymbolTableRecord
100
AcDbLinetypeTableRecord
  2
DASHEDX2
 70
    0
  3
Dashed (2x) ____  ____  ____  ____  ____  ___
 72
   65
 73
    2
 40
38.09999999999999
 49
25.4
 74
    0
 49
-12.7
 74
    0
  0
LTYPE
  5
3A
330
5
100
AcDbSymbolTableRecord
100
AcDbLinetypeTableRecord
  2
DASHDOT
 70
    0
  3
Dash dot __ . __ . __ . __ . __ . __ . __ . __
 72
   65
 73
    4
 40
25.4
 49
12.7
 74
    0
 49
-6.35
 74
    0
 49
0
 74
    0
 49
-6.35
 74
    0
  0
LTYPE
  5
3B
330
5
100
AcDbSymbolTableRecord
100
AcDbLinetypeTableRecord
  2
DASHDOTTINY
 70
    0
  3
Dash dot (.15x) _._._._._._._._._._._._._._._.
 72
   65
 73
    4
 40
3.81
 49
1.905
 74
    0
 49
-0.9525
 74
    0
 49
0
 74
    0
 49
-0.9525
 74
    0
  0
LTYPE
  5
3C
330
5
100
AcDbSymbolTableRecord
100
AcDbLinetypeTableRecord
  2
DASHDOT2
 70
    0
  3
Dash dot (.5x) _._._._._._._._._._._._._._._.
 72
   65
 73
    4
 40
12.7
 49
6.35
 74
    0
 49
-3.175
 74
    0
 49
0
 74
    0
 49
-3.175
 74
    0
  0
LTYPE
  5
3D
330
5
100
AcDbSymbolTableRecord
100
AcDbLinetypeTableRecord
  2
DASHDOTX2
 70
    0
  3
Dash dot (2x) ____  .  ____  .  ____  .  ___
 72
   65
 73
    4
 40
50.8
 49
25.4
 74
    0
 49
-12.7
 74
    0
 49
0
 74
    0
 49
-12.7
 74
    0
  0
LTYPE
  5
3E
330
5
100
AcDbSymbolTableRecord
100
AcDbLinetypeTableRecord
  2
DIVIDE
 70
    0
  3
Divide ____ . . ____ . . ____ . . ____ . . ____
 72
   65
 73
    6
 40
31.75
 49
12.7
 74
    0
 49
-6.35
 74
    0
 49
0
 74
    0
 49
-6.35
 74
    0
 49
0
 74
    0
 49
-6.35
 74
    0
  0
LTYPE
  5
3F
330
5
100
AcDbSymbolTableRecord
100
AcDbLinetypeTableRecord
  2
DIVIDETINY
 70
    0
  3
Divide (.15x) __..__..__..__..__..__..__..__.._
 72
   65
 73
    6
 40
4.7625
 49
1.905
 74
    0
 49
-0.9525
 74
    0
 49
0
 74
    0
 49
-0.9525
 74
    0
 49
0
 74
    0
 49
-0.9525
 74
    0
  0
LTYPE
  5
40
330
5
100
AcDbSymbolTableRecord
100
AcDbLinetypeTableRecord
  2
DIVIDE2
 70
    0
  3
Divide (.5x) __..__..__..__..__..__..__..__.._
 72
   65
 73
    6
 40
15.875
 49
6.35
 74
    0
 49
-3.175
 74
    0
 49
0
 74
    0
 49
-3.175
 74
    0
 49
0
 74
    0
 49
-3.175
 74
    0
  0
LTYPE
  5
41
330
5
100
AcDbSymbolTableRecord
100
AcDbLinetypeTableRecord
  2
DIVIDEX2
 70
    0
  3
Divide (2x) ________  .  .  ________  .  .  _
 72
   65
 73
    6
 40
63.5
 49
25.4
 74
    0
 49
-12.7
 74
    0
 49
0
 74
    0
 49
-12.7
 74
    0
 49
0
 74
    0
 49
-12.7
 74
    0
  0
LTYPE
  5
42
330
5
100
AcDbSymbolTableRecord
100
AcDbLinetypeTableRecord
  2
BORDER
 70
    0
  3
Border __ __ . __ __ . __ __ . __ __ . __ __ .
 72
   65
 73
    6
 40
44.45
 49
12.7
 74
    0
 49
-6.35
 74
    0
 49
12.7
 74
    0
 49
-6.35
 74
    0
 49
0
 74
    0
 49
-6.35
 74
    0
  0
LTYPE
  5
43
330
5
100
AcDbSymbolTableRecord
100
AcDbLinetypeTableRecord
  2
BORDERTINY
 70
    0
  3
Border (.15x) __.__.__.__.__.__.__.__.__.__.__.
 72
   65
 73
    6
 40
6.6675
 49
1.905
 74
    0
 49
-0.9525
 74
    0
 49
1.905
 74
    0
 49
-0.9525
 74
    0
 49
0
 74
    0
 49
-0.9525
 74
    0
  0
LTYPE
  5
44
330
5
100
AcDbSymbolTableRecord
100
AcDbLinetypeTableRecord
  2
BORDER2
 70
    0
  3
Border (.5x) __.__.__.__.__.__.__.__.__.__.__.
 72
   65
 73
    6
 40
22.225
 49
6.35
 74
    0
 49
-3.175
 74
    0
 49
6.35
 74
    0
 49
-3.175
 74
    0
 49
0
 74
    0
 49
-3.175
 74
    0
  0
LTYPE
  5
45
330
5
100
AcDbSymbolTableRecord
100
AcDbLinetypeTableRecord
  2
BORDERX2
 70
    0
  3
Border (2x) ____  ____  .  ____  ____  .  ___
 72
   65
 73
    6
 40
88.89999999999999
 49
25.4
 74
    0
 49
-12.7
 74
    0
 49
25.4
 74
    0
 49
-12.7
 74
    0
 49
0
 74
    0
 49
-12.7
 74
    0
  0
LTYPE
  5
46
330
5
100
AcDbSymbolTableRecord
100
AcDbLinetypeTableRecord
  2
CENTER
 70
    0
  3
Center ____ _ ____ _ ____ _ ____ _ ____ _ ____
 72
   65
 73
    4
 40
50.8
 49
31.75
 74
    0
 49
-6.35
 74
    0
 49
6.35
 74
    0
 49
-6.35
 74
    0
  0
LTYPE
  5
47
330
5
100
AcDbSymbolTableRecord
100
AcDbLinetypeTableRecord
  2
CENTERTINY
 70
    0
  3
Center (.15x) ___ _ ___ _ ___ _ ___ _ ___ _ ___
 72
   65
 73
    4
 40
7.619999999999999
 49
4.7625
 74
    0
 49
-0.9525
 74
    0
 49
0.9525
 74
    0
 49
-0.9525
 74
    0
  0
LTYPE
  5
48
330
5
100
AcDbSymbolTableRecord
100
AcDbLinetypeTableRecord
  2
CENTER2
 70
    0
  3
Center (.5x) ___ _ ___ _ ___ _ ___ _ ___ _ ___
 72
   65
 73
    4
 40
28.575
 49
19.05
 74
    0
 49
-3.175
 74
    0
 49
3.175
 74
    0
 49
-3.175
 74
    0
  0
LTYPE
  5
49
330
5
100
AcDbSymbolTableRecord
100
AcDbLinetypeTableRecord
  2
CENTERX2
 70
    0
  3
Center (2x) ________  __  ________  __  _____
 72
   65
 73
    4
 40
101.6
 49
63.5
 74
    0
 49
-12.7
 74
    0
 49
12.7
 74
    0
 49
-12.7
 74
    0
  0
ENDTAB
  0
TABLE
  2
LAYER
  5
2
330
0
100
AcDbSymbolTable
 70
    1
  0
LAYER
  5
10
330
2
100
AcDbSymbolTableRecord
100
AcDbLayerTableRecord
  2
0
 70
    0
 62
    7
  6
CONTINUOUS
370
    0
390
F
  0
LAYER
  5
4A
330
2
100
AcDbSymbolTableRecord
100
AcDbLayerTableRecord
  2
Abmessungen
 70
    0
 62
    4
  6
CONTINUOUS
370
    0
390
F
  0
LAYER
  5
4B
330
2
100
AcDbSymbolTableRecord
100
AcDbLayerTableRecord
  2
Platinen
 70
    1
 62
   96
420
32768
  6
CONTINUOUS
290
0
370
    0
390
F
  0
LAYER
  5
4C
330
2
100
AcDbSymbolTableRecord
100
AcDbLayerTableRecord
  2
Platinen_Dim
 70
    1
 62
    9
  6
CONTINUOUS
290
0
370
    0
390
F
  0
ENDTAB
  0
TABLE
  2
STYLE
  5
3
330
0
100
AcDbSymbolTable
 70
    3
  0
STYLE
  5
4D
330
2
100
AcDbSymbolTableRecord
100
AcDbTextStyleTableRecord
  2
standard
 70
    0
 40
0
 41
1
 50
0
 71
    0
 42
1
  3
standard
  4

  0
ENDTAB
  0
TABLE
  2
VIEW
  5
6
330
0
100
AcDbSymbolTable
 70
    0
  0
ENDTAB
  0
TABLE
  2
UCS
  5
7
330
0
100
AcDbSymbolTable
 70
    0
  0
ENDTAB
  0
TABLE
  2
APPID
  5
9
330
0
100
AcDbSymbolTable
 70
    1
  0
APPID
  5
12
330
9
100
AcDbSymbolTableRecord
100
AcDbRegAppTableRecord
  2
ACAD
 70
    0
  0
APPID
  5
4E
330
9
100
AcDbSymbolTableRecord
100
AcDbRegAppTableRecord
  2
LibreCad
 70
    0
  0
ENDTAB
  0
TABLE
  2
DIMSTYLE
  5
A
330
0
100
AcDbSymbolTable
 70
    1
100
AcDbDimStyleTable
 71
    1
  0
DIMSTYLE
105
4F
330
A
100
AcDbSymbolTableRecord
100
AcDbDimStyleTableRecord
  2
Standard
 70
    0
 40
1
 41
2.5
 42
0.625
 43
0.38
 44
1.25
 45
0
 46
0
 47
0
 48
0
 49
1
140
5
141
0.09
142
0
143
25.4
144
1
145
0
146
1
147
0.625
148
0
 71
    0
 72
    0
 73
    1
 74
    1
 75
    0
 76
    0
 77
    0
 78
    1
 79
    0
170
    0
171
    2
172
    0
173
    0
174
    0
175
    0
176
    0
177
    0
178
    0
179
    2
271
    1
272
    4
273
    2
274
    2
275
    0
276
    0
277
    2
278
    0
279
    0
280
    0
281
    0
282
    0
283
    1
284
    0
285
    0
286
    0
288
    0
289
    3
340
standard
341

371
   -2
372
   -2
  0
ENDTAB
  0
TABLE
  2
BLOCK_RECORD
  5
1
330
0
100
AcDbSymbolTable
 70
    2
  0
BLOCK_RECORD
  5
1F
330
1
100
AcDbSymbolTableRecord
100
AcDbBlockTableRecord
  2
*Model_Space
 70
    0
280
    1
281
    0
  0
BLOCK_RECORD
  5
1E
330
1
100
AcDbSymbolTableRecord
100
AcDbBlockTableRecord
  2
*Paper_Space
 70
    0
280
    1
281
    0
  0
BLOCK_RECORD
  5
50
330
1
100
AcDbSymbolTableRecord
100
AcDbBlockTableRecord
  2
*D30
 70
    0
280
    1
281
    0
  0
BLOCK_RECORD
  5
53
330
1
100
AcDbSymbolTableRecord
100
AcDbBlockTableRecord
  2
*D7
 70
    0
280
    1
281
    0
  0
BLOCK_RECORD
  5
56
330
1
100
AcDbSymbolTableRecord
100
AcDbBlockTableRecord
  2
*D11
 70
    0
280
    1
281
    0
  0
BLOCK_RECORD
  5
59
330
1
100
AcDbSymbolTableRecord
100
AcDbBlockTableRecord
  2
*D26
 70
    0
280
    1
281
    0
  0
BLOCK_RECORD
  5
5C
330
1
100
AcDbSymbolTableRecord
100
AcDbBlockTableRecord
  2
*D29
 70
    0
280
    1
281
    0
  0
BLOCK_RECORD
  5
5F
330
1
100
AcDbSymbolTableRecord
100
AcDbBlockTableRecord
  2
*D31
 70
    0
280
    1
281
    0
  0
BLOCK_RECORD
  5
62
330
1
100
AcDbSymbolTableRecord
100
AcDbBlockTableRecord
  2
*D13
 70
    0
280
    1
281
    0
  0
BLOCK_RECORD
  5
65
330
1
100
AcDbSymbolTableRecord
100
AcDbBlockTableRecord
  2
*D15
 70
    0
280
    1
281
    0
  0
BLOCK_RECORD
  5
68
330
1
100
AcDbSymbolTableRecord
100
AcDbBlockTableRecord
  2
*D12
 70
    0
280
    1
281
    0
  0
BLOCK_RECORD
  5
6B
330
1
100
AcDbSymbolTableRecord
100
AcDbBlockTableRecord
  2
*D36
 70
    0
280
    1
281
    0
  0
BLOCK_RECORD
  5
6E
330
1
100
AcDbSymbolTableRecord
100
AcDbBlockTableRecord
  2
*D6
 70
    0
280
    1
281
    0
  0
BLOCK_RECORD
  5
71
330
1
100
AcDbSymbolTableRecord
100
AcDbBlockTableRecord
  2
*D4
 70
    0
280
    1
281
    0
  0
BLOCK_RECORD
  5
74
330
1
100
AcDbSymbolTableRecord
100
AcDbBlockTableRecord
  2
*D23
 70
    0
280
    1
281
    0
  0
BLOCK_RECORD
  5
77
330
1
100
AcDbSymbolTableRecord
100
AcDbBlockTableRecord
  2
*D25
 70
    0
280
    1
281
    0
  0
BLOCK_RECORD
  5
7A
330
1
100
AcDbSymbolTableRecord
100
AcDbBlockTableRecord
  2
*D18
 70
    0
280
    1
281
    0
  0
BLOCK_RECORD
  5
7D
330
1
100
AcDbSymbolTableRecord
100
AcDbBlockTableRecord
  2
*D16
 70
    0
280
    1
281
    0
  0
BLOCK_RECORD
  5
80
330
1
100
AcDbSymbolTableRecord
100
AcDbBlockTableRecord
  2
*D5
 70
    0
280
    1
281
    0
  0
BLOCK_RECORD
  5
83
330
1
100
AcDbSymbolTableRecord
100
AcDbBlockTableRecord
  2
*D34
 70
    0
280
    1
281
    0
  0
BLOCK_RECORD
  5
86
330
1
100
AcDbSymbolTableRecord
100
AcDbBlockTableRecord
  2
*D28
 70
    0
280
    1
281
    0
  0
BLOCK_RECORD
  5
89
330
1
100
AcDbSymbolTableRecord
100
AcDbBlockTableRecord
  2
*D1
 70
    0
280
    1
281
    0
  0
BLOCK_RECORD
  5
8C
330
1
100
AcDbSymbolTableRecord
100
AcDbBlockTableRecord
  2
*D14
 70
    0
280
    1
281
    0
  0
BLOCK_RECORD
  5
8F
330
1
100
AcDbSymbolTableRecord
100
AcDbBlockTableRecord
  2
*D19
 70
    0
280
    1
281
    0
  0
BLOCK_RECORD
  5
92
330
1
100
AcDbSymbolTableRecord
100
AcDbBlockTableRecord
  2
*D20
 70
    0
280
    1
281
    0
  0
BLOCK_RECORD
  5
95
330
1
100
AcDbSymbolTableRecord
100
AcDbBlockTableRecord
  2
*D33
 70
    0
280
    1
281
    0
  0
BLOCK_RECORD
  5
98
330
1
100
AcDbSymbolTableRecord
100
AcDbBlockTableRecord
  2
*D17
 70
    0
280
    1
281
    0
  0
BLOCK_RECORD
  5
9B
330
1
100
AcDbSymbolTableRecord
100
AcDbBlockTableRecord
  2
*D8
 70
    0
280
    1
281
    0
  0
BLOCK_RECORD
  5
9E
330
1
100
AcDbSymbolTableRecord
100
AcDbBlockTableRecord
  2
*D2
 70
    0
280
    1
281
    0
  0
BLOCK_RECORD
  5
A1
330
1
100
AcDbSymbolTableRecord
100
AcDbBlockTableRecord
  2
*D24
 70
    0
280
    1
281
    0
  0
BLOCK_RECORD
  5
A4
330
1
100
AcDbSymbolTableRecord
100
AcDbBlockTableRecord
  2
*D27
 70
    0
280
    1
281
    0
  0
BLOCK_RECORD
  5
A7
330
1
100
AcDbSymbolTableRecord
100
AcDbBlockTableRecord
  2
*D32
 70
    0
280
    1
281
    0
  0
BLOCK_RECORD
  5
AA
330
1
100
AcDbSymbolTableRecord
100
AcDbBlockTableRecord
  2
*D10
 70
    0
280
    1
281
    0
  0
BLOCK_RECORD
  5
AD
330
1
100
AcDbSymbolTableRecord
100
AcDbBlockTableRecord
  2
*D22
 70
    0
280
    1
281
    0
  0
BLOCK_RECORD
  5
B0
330
1
100
AcDbSymbolTableRecord
100
AcDbBlockTableRecord
  2
*D3
 70
    0
280
    1
281
    0
  0
BLOCK_RECORD
  5
B3
330
1
100
AcDbSymbolTableRecord
100
AcDbBlockTableRecord
  2
*D21
 70
    0
280
    1
281
    0
  0
BLOCK_RECORD
  5
B6
330
1
100
AcDbSymbolTableRecord
100
AcDbBlockTableRecord
  2
*D9
 70
    0
280
    1
281
    0
  0
BLOCK_RECORD
  5
B9
330
1
100
AcDbSymbolTableRecord
100
AcDbBlockTableRecord
  2
*D35
 70
    0
280
    1
281
    0
  0
ENDTAB
  0
ENDSEC
  0
SECTION
  2
BLOCKS
  0
BLOCK
  5
20
330
1F
100
AcDbEntity
  8
0
100
AcDbBlockBegin
  2
*Model_Space
 70
    0
 10
0
 20
0
 30
0
  3
*Model_Space
  1

  0
ENDBLK
  5
21
330
1F
100
AcDbEntity
  8
0
100
AcDbBlockEnd
  0
BLOCK
  5
1C
330
1B
100
AcDbEntity
  8
0
100
AcDbBlockBegin
  2
*Paper_Space
 70
    0
 10
0
 20
0
 30
0
  3
*Paper_Space
  1

  0
ENDBLK
  5
1D
330
1F
100
AcDbEntity
  8
0
100
AcDbBlockEnd
  0
BLOCK
  5
51
330
50
100
AcDbEntity
  8
0
100
AcDbBlockBegin
  2
*D30
 70
    1
 10
0
 20
0
  3
*D30
  1

  0
LINE
  5
BC
100
AcDbEntity
  8
Abmessungen
  6
ByBlock
 62
    0
370
   -2
100
AcDbLine
 10
225
 20
40
 11
120.9027777777779
 21
40
  0
SOLID
  5
BD
100
AcDbEntity
  8
Abmessungen
  6
ByBlock
 62
    0
370
   -2
100
AcDbTrace
 10
225
 20
40
 30
0
 11
222.5
 21
39.58371534222716
 31
0
 12
222.5
 22
40.41628465777284
 32
0
 13
222.5
 23
40.41628465777284
 33
0
  0
SOLID
  5
BE
100
AcDbEntity
  8
Abmessungen
  6
ByBlock
 62
    0
370
   -2
100
AcDbTrace
 10
0
 20
40
 30
0
 11
2.5
 21
40.41628465777284
 31
0
 12
2.5
 22
39.58371534222716
 32
0
 13
2.5
 23
39.58371534222716
 33
0
  0
LINE
  5
BF
100
AcDbEntity
  8
Abmessungen
  6
ByBlock
 62
    0
370
   -2
100
AcDbLine
 10
104.0972222222221
 20
40
 11
0
 21
40
  0
MTEXT
  5
C0
100
AcDbEntity
  8
Abmessungen
  6
CONTINUOUS
 62
    0
370
   -2
100
AcDbMText
 10
112.5
 20
40
 30
0
 40
5
 41
15.55555555555587
 71
    5
 72
    1
  1
225.0
  7
standard
210
0
220
0
230
1
 50
0
 73
    2
 44
1
  0
LINE
  5
C1
100
AcDbEntity
  8
Abmessungen
  6
ByBlock
 62
    0
370
   -2
100
AcDbLine
 10
225
 20
35.625
 11
225
 21
41.25
  0
LINE
  5
C2
100
AcDbEntity
  8
Abmessungen
  6
ByBlock
 62
    0
370
   -2
100
AcDbLine
 10
3.827021247335479e-17
 20
35.625
 11
7.654042494670958e-17
 21
41.25
  0
ENDBLK
  5
52
330
50
100
AcDbEntity
  8
0
100
AcDbBlockEnd
  0
BLOCK
  5
54
330
53
100
AcDbEntity
  8
0
100
AcDbBlockBegin
  2
*D7
 70
    1
 10
0
 20
0
  3
*D7
  1

  0
LINE
  5
C3
100
AcDbEntity
  8
Platinen_Dim
  6
ByBlock
 62
    0
370
   -2
100
AcDbLine
 10
107
 20
57
 11
115
 21
57
  0
SOLID
  5
C4
100
AcDbEntity
  8
Platinen_Dim
  6
ByBlock
 62
    0
370
   -2
100
AcDbTrace
 10
107
 20
57
 30
0
 11
109.5
 21
57.41628465777284
 31
0
 12
109.5
 22
56.58371534222716
 32
0
 13
109.5
 23
56.58371534222716
 33
0
  0
SOLID
  5
C5
100
AcDbEntity
  8
Platinen_Dim
  6
ByBlock
 62
    0
370
   -2
100
AcDbTrace
 10
115
 20
57
 30
0
 11
112.5
 21
56.58371534222716
 31
0
 12
112.5
 22
57.41628465777284
 32
0
 13
112.5
 23
57.41628465777284
 33
0
  0
MTEXT
  5
C6
100
AcDbEntity
  8
Platinen_Dim
  6
CONTINUOUS
 62
    0
370
   -2
100
AcDbMText
 10
111
 20
57
 30
0
 40
5
 41
7.777777777777779
 71
    5
 72
    1
  1
8.0
  7
standard
210
0
220
0
230
1
 50
0
 73
    2
 44
1
  0
LINE
  5
C7
100
AcDbEntity
  8
Platinen_Dim
  6
ByBlock
 62
    0
370
   -2
100
AcDbLine
 10
107
 20
61.375
 11
107
 21
55.75
  0
LINE
  5
C8
100
AcDbEntity
  8
Platinen_Dim
  6
ByBlock
 62
    0
370
   -2
100
AcDbLine
 10
115
 20
61.375
 11
115
 21
55.75
  0
ENDBLK
  5
55
330
53
100
AcDbEntity
  8
0
100
AcDbBlockEnd
  0
BLOCK
  5
57
330
56
100
AcDbEntity
  8
0
100
AcDbBlockBegin
  2
*D11
 70
    1
 10
0
 20
0
  3
*D11
  1

  0
LINE
  5
C9
100
AcDbEntity
  8
Platinen_Dim
  6
ByBlock
 62
    0
370
   -2
100
AcDbLine
 10
20
 20
-30
 11
20
 21
-11.625
  0
SOLID
  5
CA
100
AcDbEntity
  8
Platinen_Dim
  6
ByBlock
 62
    0
370
   -2
100
AcDbTrace
 10
20
 20
-30
 30
0
 11
19.58371534222715
 21
-27.5
 31
0
 12
20.41628465777284
 22
-27.5
 32
0
 13
20.41628465777284
 23
-27.5
 33
0
  0
SOLID
  5
CB
100
AcDbEntity
  8
Platinen_Dim
  6
ByBlock
 62
    0
370
   -2
100
AcDbTrace
 10
20
 20
13
 30
0
 11
20.41628465777284
 21
10.5
 31
0
 12
19.58371534222716
 22
10.5
 32
0
 13
19.58371534222716
 23
10.5
 33
0
  0
LINE
  5
CC
100
AcDbEntity
  8
Platinen_Dim
  6
ByBlock
 62
    0
370
   -2
100
AcDbLine
 10
20
 20
-5.375
 11
20
 21
13
  0
MTEXT
  5
CD
100
AcDbEntity
  8
Platinen_Dim
  6
CONTINUOUS
 62
    0
370
   -2
100
AcDbMText
 10
20
 20
-8.5
 30
0
 40
5
 41
12.22222222222253
 71
    5
 72
    1
  1
43.0
  7
standard
210
0
220
0
230
1
 50
0
 73
    2
 44
1
  0
LINE
  5
CE
100
AcDbEntity
  8
Platinen_Dim
  6
ByBlock
 62
    0
370
   -2
100
AcDbLine
 10
34.375
 20
-30
 11
18.75
 21
-30
  0
LINE
  5
CF
100
AcDbEntity
  8
Platinen_Dim
  6
ByBlock
 62
    0
370
   -2
100
AcDbLine
 10
34.375
 20
13
 11
18.75
 21
13
  0
ENDBLK
  5
58
330
56
100
AcDbEntity
  8
0
100
AcDbBlockEnd
  0
BLOCK
  5
5A
330
59
100
AcDbEntity
  8
0
100
AcDbBlockBegin
  2
*D26
 70
    1
 10
0
 20
0
  3
*D26
  1

  0
LINE
  5
D0
100
AcDbEntity
  8
Abmessungen
  6
ByBlock
 62
    0
370
   -2
100
AcDbLine
 10
75
 20
13
 11
117.1527777777778
 21
13
  0
SOLID
  5
D1
100
AcDbEntity
  8
Abmessungen
  6
ByBlock
 62
    0
370
   -2
100
AcDbTrace
 10
75
 20
13
 30
0
 11
77.5
 21
13.41628465777284
 31
0
 12
77.5
 22
12.58371534222716
 32
0
 13
77.5
 23
12.58371534222716
 33
0
  0
SOLID
  5
D2
100
AcDbEntity
  8
Abmessungen
  6
ByBlock
 62
    0
370
   -2
100
AcDbTrace
 10
175
 20
13
 30
0
 11
172.5
 21
12.58371534222716
 31
0
 12
172.5
 22
13.41628465777284
 32
0
 13
172.5
 23
13.41628465777284
 33
0
  0
LINE
  5
D3
100
AcDbEntity
  8
Abmessungen
  6
ByBlock
 62
    0
370
   -2
100
AcDbLine
 10
132.8472222222222
 20
13
 11
175
 21
13
  0
MTEXT
  5
D4
100
AcDbEntity
  8
Abmessungen
  6
CONTINUOUS
 62
    0
370
   -2
100
AcDbMText
 10
125
 20
13
 30
0
 40
5
 41
14.44444444444444
 71
    5
 72
    1
  1
100.0
  7
standard
210
0
220
0
230
1
 50
0
 73
    2
 44
1
  0
LINE
  5
D5
100
AcDbEntity
  8
Abmessungen
  6
ByBlock
 62
    0
370
   -2
100
AcDbLine
 10
75
 20
8.625
 11
75
 21
14.25
  0
LINE
  5
D6
100
AcDbEntity
  8
Abmessungen
  6
ByBlock
 62
    0
370
   -2
100
AcDbLine
 10
175
 20
8.625
 11
175
 21
14.25
  0
ENDBLK
  5
5B
330
59
100
AcDbEntity
  8
0
100
AcDbBlockEnd
  0
BLOCK
  5
5D
330
5C
100
AcDbEntity
  8
0
100
AcDbBlockBegin
  2
*D29
 70
    1
 10
0
 20
0
  3
*D29
  1

  0
LINE
  5
D7
100
AcDbEntity
  8
Abmessungen
  6
ByBlock
 62
    0
370
   -2
100
AcDbLine
 10
375
 20
13
 11
406.0416666666665
 21
13
  0
SOLID
  5
D8
100
AcDbEntity
  8
Abmessungen
  6
ByBlock
 62
    0
370
   -2
100
AcDbTrace
 10
375
 20
13
 30
0
 11
377.5
 21
13.41628465777284
 31
0
 12
377.5
 22
12.58371534222716
 32
0
 13
377.5
 23
12.58371534222716
 33
0
  0
SOLID
  5
D9
100
AcDbEntity
  8
Abmessungen
  6
ByBlock
 62
    0
370
   -2
100
AcDbTrace
 10
450
 20
13
 30
0
 11
447.5
 21
12.58371534222716
 31
0
 12
447.5
 22
13.41628465777284
 32
0
 13
447.5
 23
13.41628465777284
 33
0
  0
LINE
  5
DA
100
AcDbEntity
  8
Abmessungen
  6
ByBlock
 62
    0
370
   -2
100
AcDbLine
 10
418.9583333333335
 20
13
 11
450
 21
13
  0
MTEXT
  5
DB
100
AcDbEntity
  8
Abmessungen
  6
CONTINUOUS
 62
    0
370
   -2
100
AcDbMText
 10
412.5
 20
13
 30
0
 40
5
 41
11.66666666666698
 71
    5
 72
    1
  1
75.0
  7
standard
210
0
220
0
230
1
 50
0
 73
    2
 44
1
  0
LINE
  5
DC
100
AcDbEntity
  8
Abmessungen
  6
ByBlock
 62
    0
370
   -2
100
AcDbLine
 10
375
 20
8.625
 11
375
 21
14.25
  0
LINE
  5
DD
100
AcDbEntity
  8
Abmessungen
  6
ByBlock
 62
    0
370
   -2
100
AcDbLine
 10
450
 20
8.625
 11
450
 21
14.25
  0
ENDBLK
  5
5E
330
5C
100
AcDbEntity
  8
0
100
AcDbBlockEnd
  0
BLOCK
  5
60
330
5F
100
AcDbEntity
  8
0
100
AcDbBlockBegin
  2
*D31
 70
    1
 10
0
 20
0
  3
*D31
  1

  0
LINE
  5
DE
100
AcDbEntity
  8
Abmessungen
  6
ByBlock
 62
    0
370
   -2
100
AcDbLine
 10
225
 20
40
 11
329.0972222222221
 21
40
  0
SOLID
  5
DF
100
AcDbEntity
  8
Abmessungen
  6
ByBlock
 62
    0
370
   -2
100
AcDbTrace
 10
225
 20
40
 30
0
 11
227.5
 21
40.41628465777284
 31
0
 12
227.5
 22
39.58371534222716
 32
0
 13
227.5
 23
39.58371534222716
 33
0
  0
SOLID
  5
E0
100
AcDbEntity
  8
Abmessungen
  6
ByBlock
 62
    0
370
   -2
100
AcDbTrace
 10
450
 20
40
 30
0
 11
447.5
 21
39.58371534222716
 31
0
 12
447.5
 22
40.41628465777284
 32
0
 13
447.5
 23
40.41628465777284
 33
0
  0
LINE
  5
E1
100
AcDbEntity
  8
Abmessungen
  6
ByBlock
 62
    0
370
   -2
100
AcDbLine
 10
345.9027777777779
 20
40
 11
450
 21
40
  0
MTEXT
  5
E2
100
AcDbEntity
  8
Abmessungen
  6
CONTINUOUS
 62
    0
370
   -2
100
AcDbMText
 10
337.5
 20
40
 30
0
 40
5
 41
15.55555555555587
 71
    5
 72
    1
  1
225.0
  7
standard
210
0
220
0
230
1
 50
0
 73
    2
 44
1
  0
LINE
  5
E3
100
AcDbEntity
  8
Abmessungen
  6
ByBlock
 62
    0
370
   -2
100
AcDbLine
 10
225
 20
35.625
 11
225
 21
41.25
  0
LINE
  5
E4
100
AcDbEntity
  8
Abmessungen
  6
ByBlock
 62
    0
370
   -2
100
AcDbLine
 10
450
 20
35.625
 11
450
 21
41.25
  0
ENDBLK
  5
61
330
5F
100
AcDbEntity
  8
0
100
AcDbBlockEnd
  0
BLOCK
  5
63
330
62
100
AcDbEntity
  8
0
100
AcDbBlockBegin
  2
*D13
 70
    1
 10
0
 20
0
  3
*D13
  1

  0
LINE
  5
E5
100
AcDbEntity
  8
Platinen_Dim
  6
ByBlock
 62
    0
370
   -2
100
AcDbLine
 10
130
 20
70
 11
130
 21
23.125
  0
SOLID
  5
E6
100
AcDbEntity
  8
Platinen_Dim
  6
ByBlock
 62
    0
370
   -2
100
AcDbTrace
 10
130
 20
70
 30
0
 11
130.4162846577728
 21
67.5
 31
0
 12
129.5837153422272
 22
67.5
 32
0
 13
129.5837153422272
 23
67.5
 33
0
  0
SOLID
  5
E7
100
AcDbEntity
  8
Platinen_Dim
  6
ByBlock
 62
    0
370
   -2
100
AcDbTrace
 10
130
 20
-30
 30
0
 11
129.5837153422272
 21
-27.5
 31
0
 12
130.4162846577728
 22
-27.5
 32
0
 13
130.4162846577728
 23
-27.5
 33
0
  0
LINE
  5
E8
100
AcDbEntity
  8
Platinen_Dim
  6
ByBlock
 62
    0
370
   -2
100
AcDbLine
 10
130
 20
16.875
 11
130
 21
-30
  0
MTEXT
  5
E9
100
AcDbEntity
  8
Platinen_Dim
  6
CONTINUOUS
 62
    0
370
   -2
100
AcDbMText
 10
130
 20
20
 30
0
 40
5
 41
14.44444444444444
 71
    5
 72
    1
  1
100.0
  7
standard
210
0
220
0
230
1
 50
0
 73
    2
 44
1
  0
LINE
  5
EA
100
AcDbEntity
  8
Platinen_Dim
  6
ByBlock
 62
    0
370
   -2
100
AcDbLine
 10
115.625
 20
70
 11
131.25
 21
70
  0
LINE
  5
EB
100
AcDbEntity
  8
Platinen_Dim
  6
ByBlock
 62
    0
370
   -2
100
AcDbLine
 10
115.625
 20
-30
 11
131.25
 21
-30
  0
ENDBLK
  5
64
330
62
100
AcDbEntity
  8
0
100
AcDbBlockEnd
  0
BLOCK
  5
66
330
65
100
AcDbEntity
  8
0
100
AcDbBlockBegin
  2
*D15
 70
    1
 10
0
 20
0
  3
*D15
  1

  0
LINE
  5
EC
100
AcDbEntity
  8
Abmessungen
  6
ByBlock
 62
    0
370
   -2
100
AcDbLine
 10
490
 20
70
 11
490
 21
69.125
  0
SOLID
  5
ED
100
AcDbEntity
  8
Abmessungen
  6
ByBlock
 62
    0
370
   -2
100
AcDbTrace
 10
490
 20
70
 30
0
 11
490.4162846577728
 21
67.5
 31
0
 12
489.5837153422272
 22
67.5
 32
0
 13
489.5837153422272
 23
67.5
 33
0
  0
SOLID
  5
EE
100
AcDbEntity
  8
Abmessungen
  6
ByBlock
 62
    0
370
   -2
100
AcDbTrace
 10
490
 20
62
 30
0
 11
489.5837153422272
 21
64.5
 31
0
 12
490.4162846577728
 22
64.5
 32
0
 13
490.4162846577728
 23
64.5
 33
0
  0
LINE
  5
EF
100
AcDbEntity
  8
Abmessungen
  6
ByBlock
 62
    0
370
   -2
100
AcDbLine
 10
490
 20
62.87500000000001
 11
490
 21
62
  0
MTEXT
  5
F0
100
AcDbEntity
  8
Abmessungen
  6
CONTINUOUS
 62
    0
370
   -2
100
AcDbMText
 10
490
 20
66
 30
0
 40
5
 41
7.777777777777779
 71
    5
 72
    1
  1
8.0
  7
standard
210
0
220
0
230
1
 50
0
 73
    2
 44
1
  0
LINE
  5
F1
100
AcDbEntity
  8
Abmessungen
  6
ByBlock
 62
    0
370
   -2
100
AcDbLine
 10
450.625
 20
70
 11
491.25
 21
70
  0
LINE
  5
F2
100
AcDbEntity
  8
Abmessungen
  6
ByBlock
 62
    0
370
   -2
100
AcDbLine
 10
450.625
 20
62
 11
491.25
 21
62
  0
ENDBLK
  5
67
330
65
100
AcDbEntity
  8
0
100
AcDbBlockEnd
  0
BLOCK
  5
69
330
68
100
AcDbEntity
  8
0
100
AcDbBlockBegin
  2
*D12
 70
    1
 10
0
 20
0
  3
*D12
  1

  0
LINE
  5
F3
100
AcDbEntity
  8
Platinen_Dim
  6
ByBlock
 62
    0
370
   -2
100
AcDbLine
 10
122
 20
62
 11
122
 21
38.125
  0
SOLID
  5
F4
100
AcDbEntity
  8
Platinen_Dim
  6
ByBlock
 62
    0
370
   -2
100
AcDbTrace
 10
122
 20
62
 30
0
 11
122.4162846577728
 21
59.5
 31
0
 12
121.5837153422272
 22
59.5
 32
0
 13
121.5837153422272
 23
59.5
 33
0
  0
SOLID
  5
F5
100
AcDbEntity
  8
Platinen_Dim
  6
ByBlock
 62
    0
370
   -2
100
AcDbTrace
 10
122
 20
8
 30
0
 11
121.5837153422272
 21
10.5
 31
0
 12
122.4162846577728
 22
10.5
 32
0
 13
122.4162846577728
 23
10.5
 33
0
  0
LINE
  5
F6
100
AcDbEntity
  8
Platinen_Dim
  6
ByBlock
 62
    0
370
   -2
100
AcDbLine
 10
122
 20
31.875
 11
122
 21
8
  0
MTEXT
  5
F7
100
AcDbEntity
  8
Platinen_Dim
  6
CONTINUOUS
 62
    0
370
   -2
100
AcDbMText
 10
122
 20
35
 30
0
 40
5
 41
12.22222222222253
 71
    5
 72
    1
  1
54.0
  7
standard
210
0
220
0
230
1
 50
0
 73
    2
 44
1
  0
LINE
  5
F8
100
AcDbEntity
  8
Platinen_Dim
  6
ByBlock
 62
    0
370
   -2
100
AcDbLine
 10
115.625
 20
62
 11
123.25
 21
62
  0
LINE
  5
F9
100
AcDbEntity
  8
Platinen_Dim
  6
ByBlock
 62
    0
370
   -2
100
AcDbLine
 10
115.625
 20
8
 11
123.25
 21
8
  0
ENDBLK
  5
6A
330
68
100
AcDbEntity
  8
0
100
AcDbBlockEnd
  0
BLOCK
  5
6C
330
6B
100
AcDbEntity
  8
0
100
AcDbBlockBegin
  2
*D36
 70
    1
 10
0
 20
0
  3
*D36
  1

  0
LINE
  5
FA
100
AcDbEntity
  8
Abmessungen
  6
ByBlock
 62
    0
370
   -2
100
AcDbLine
 10
6.51992244580426
 20
29.51992244580425
 11
17.48007755419574
 21
40.48007755419574
  0
SOLID
  5
FB
100
AcDbEntity
  8
Abmessungen
  6
ByBlock
 62
    0
370
   -2
100
AcDbTrace
 10
10.05545635173699
 20
33.05545635173699
 30
0
 11
8.582047103185722
 21
30.99333169435553
 31
0
 12
7.993331694355529
 22
31.58204710318572
 32
0
 13
7.993331694355529
 23
31.58204710318572
 33
0
  0
SOLID
  5
FC
100
AcDbEntity
  8
Abmessungen
  6
ByBlock
 62
    0
370
   -2
100
AcDbTrace
 10
13.94454364826301
 20
36.94454364826301
 30
0
 11
15.41795289681428
 21
39.00666830564447
 31
0
 12
16.00666830564447
 22
38.41795289681428
 32
0
 13
16.00666830564447
 23
38.41795289681428
 33
0
  0
MTEXT
  5
FD
100
AcDbEntity
  8
Abmessungen
  6
CONTINUOUS
 62
    0
370
   -2
100
AcDbMText
 10
21.7638888888892
 20
32
 30
0
 40
5
 41
12.7777777777784
 71
    5
 72
    1
  1
%%C5.5
  7
standard
210
0
220
0
230
1
 50
0
 73
    2
 44
1
  0
ENDBLK
  5
6D
330
6B
100
AcDbEntity
  8
0
100
AcDbBlockEnd
  0
BLOCK
  5
6F
330
6E
100
AcDbEntity
  8
0
100
AcDbBlockBegin
  2
*D6
 70
    1
 10
0
 20
0
  3
*D6
  1

  0
LINE
  5
FE
100
AcDbEntity
  8
Platinen_Dim
  6
ByBlock
 62
    0
370
   -2
100
AcDbLine
 10
43
 20
57
 11
68.26388888888873
 21
57
  0
SOLID
  5
FF
100
AcDbEntity
  8
Platinen_Dim
  6
ByBlock
 62
    0
370
   -2
100
AcDbTrace
 10
43
 20
57
 30
0
 11
45.5
 21
57.41628465777284
 31
0
 12
45.5
 22
56.58371534222716
 32
0
 13
45.5
 23
56.58371534222716
 33
0
  0
SOLID
  5
100
100
AcDbEntity
  8
Platinen_Dim
  6
ByBlock
 62
    0
370
   -2
100
AcDbTrace
 10
107
 20
57
 30
0
 11
104.5
 21
56.58371534222716
 31
0
 12
104.5
 22
57.41628465777284
 32
0
 13
104.5
 23
57.41628465777284
 33
0
  0
LINE
  5
101
100
AcDbEntity
  8
Platinen_Dim
  6
ByBlock
 62
    0
370
   -2
100
AcDbLine
 10
81.73611111111127
 20
57
 11
107
 21
57
  0
MTEXT
  5
102
100
AcDbEntity
  8
Platinen_Dim
  6
CONTINUOUS
 62
    0
370
   -2
100
AcDbMText
 10
75
 20
57
 30
0
 40
5
 41
12.22222222222253
 71
    5
 72
    1
  1
64.0
  7
standard
210
0
220
0
230
1
 50
0
 73
    2
 44
1
  0
LINE
  5
103
100
AcDbEntity
  8
Platinen_Dim
  6
ByBlock
 62
    0
370
   -2
100
AcDbLine
 10
43
 20
61.375
 11
43
 21
55.75
  0
LINE
  5
104
100
AcDbEntity
  8
Platinen_Dim
  6
ByBlock
 62
    0
370
   -2
100
AcDbLine
 10
107
 20
61.375
 11
107
 21
55.75
  0
ENDBLK
  5
70
330
6E
100
AcDbEntity
  8
0
100
AcDbBlockEnd
  0
BLOCK
  5
72
330
71
100
AcDbEntity
  8
0
100
AcDbBlockBegin
  2
*D4
 70
    1
 10
0
 20
0
  3
*D4
  1

  0
LINE
  5
105
100
AcDbEntity
  8
Abmessungen
  6
ByBlock
 62
    0
370
   -2
100
AcDbLine
 10
490
 20
7.105427357601002e-15
 11
490
 21
27.875
  0
SOLID
  5
106
100
AcDbEntity
  8
Abmessungen
  6
ByBlock
 62
    0
370
   -2
100
AcDbTrace
 10
490
 20
7.105427357601002e-15
 30
0
 11
489.5837153422272
 21
2.500000000000007
 31
0
 12
490.4162846577728
 22
2.500000000000007
 32
0
 13
490.4162846577728
 23
2.500000000000007
 33
0
  0
SOLID
  5
107
100
AcDbEntity
  8
Abmessungen
  6
ByBlock
 62
    0
370
   -2
100
AcDbTrace
 10
490
 20
62
 30
0
 11
490.4162846577728
 21
59.5
 31
0
 12
489.5837153422272
 22
59.5
 32
0
 13
489.5837153422272
 23
59.5
 33
0
  0
LINE
  5
108
100
AcDbEntity
  8
Abmessungen
  6
ByBlock
 62
    0
370
   -2
100
AcDbLine
 10
490
 20
34.125
 11
490
 21
62
  0
MTEXT
  5
109
100
AcDbEntity
  8
Abmessungen
  6
CONTINUOUS
 62
    0
370
   -2
100
AcDbMText
 10
490
 20
31
 30
0
 40
5
 41
11.66666666666698
 71
    5
 72
    1
  1
62.0
  7
standard
210
0
220
0
230
1
 50
0
 73
    2
 44
1
  0
LINE
  5
10A
100
AcDbEntity
  8
Abmessungen
  6
ByBlock
 62
    0
370
   -2
100
AcDbLine
 10
450.625
 20
0
 11
491.25
 21
7.105427357601002e-15
  0
LINE
  5
10B
100
AcDbEntity
  8
Abmessungen
  6
ByBlock
 62
    0
370
   -2
100
AcDbLine
 10
450.625
 20
62
 11
491.25
 21
62
  0
ENDBLK
  5
73
330
71
100
AcDbEntity
  8
0
100
AcDbBlockEnd
  0
BLOCK
  5
75
330
74
100
AcDbEntity
  8
0
100
AcDbBlockBegin
  2
*D23
 70
    1
 10
0
 20
0
  3
*D23
  1

  0
LINE
  5
10C
100
AcDbEntity
  8
Abmessungen
  6
ByBlock
 62
    0
370
   -2
100
AcDbLine
 10
343
 20
57
 11
368.2638888888887
 21
57
  0
SOLID
  5
10D
100
AcDbEntity
  8
Abmessungen
  6
ByBlock
 62
    0
370
   -2
100
AcDbTrace
 10
343
 20
57
 30
0
 11
345.5
 21
57.41628465777284
 31
0
 12
345.5
 22
56.58371534222716
 32
0
 13
345.5
 23
56.58371534222716
 33
0
  0
SOLID
  5
10E
100
AcDbEntity
  8
Abmessungen
  6
ByBlock
 62
    0
370
   -2
100
AcDbTrace
 10
407
 20
57
 30
0
 11
404.5
 21
56.58371534222716
 31
0
 12
404.5
 22
57.41628465777284
 32
0
 13
404.5
 23
57.41628465777284
 33
0
  0
LINE
  5
10F
100
AcDbEntity
  8
Abmessungen
  6
ByBlock
 62
    0
370
   -2
100
AcDbLine
 10
381.7361111111113
 20
57
 11
407
 21
57
  0
MTEXT
  5
110
100
AcDbEntity
  8
Abmessungen
  6
CONTINUOUS
 62
    0
370
   -2
100
AcDbMText
 10
375
 20
57
 30
0
 40
5
 41
12.22222222222253
 71
    5
 72
    1
  1
64.0
  7
standard
210
0
220
0
230
1
 50
0
 73
    2
 44
1
  0
LINE
  5
111
100
AcDbEntity
  8
Abmessungen
  6
ByBlock
 62
    0
370
   -2
100
AcDbLine
 10
343
 20
61.375
 11
343
 21
55.75
  0
LINE
  5
112
100
AcDbEntity
  8
Abmessungen
  6
ByBlock
 62
    0
370
   -2
100
AcDbLine
 10
407
 20
61.375
 11
407
 21
55.75
  0
ENDBLK
  5
76
330
74
100
AcDbEntity
  8
0
100
AcDbBlockEnd
  0
BLOCK
  5
78
330
77
100
AcDbEntity
  8
0
100
AcDbBlockBegin
  2
*D25
 70
    1
 10
0
 20
0
  3
*D25
  1

  0
LINE
  5
113
100
AcDbEntity
  8
Abmessungen
  6
ByBlock
 62
    0
370
   -2
100
AcDbLine
 10
0
 20
13
 11
31.04166666666651
 21
13
  0
SOLID
  5
114
100
AcDbEntity
  8
Abmessungen
  6
ByBlock
 62
    0
370
   -2
100
AcDbTrace
 10
0
 20
13
 30
0
 11
2.5
 21
13.41628465777284
 31
0
 12
2.5
 22
12.58371534222716
 32
0
 13
2.5
 23
12.58371534222716
 33
0
  0
SOLID
  5
115
100
AcDbEntity
  8
Abmessungen
  6
ByBlock
 62
    0
370
   -2
100
AcDbTrace
 10
75
 20
13
 30
0
 11
72.5
 21
12.58371534222716
 31
0
 12
72.5
 22
13.41628465777284
 32
0
 13
72.5
 23
13.41628465777284
 33
0
  0
LINE
  5
116
100
AcDbEntity
  8
Abmessungen
  6
ByBlock
 62
    0
370
   -2
100
AcDbLine
 10
43.95833333333349
 20
13
 11
75
 21
13
  0
MTEXT
  5
117
100
AcDbEntity
  8
Abmessungen
  6
CONTINUOUS
 62
    0
370
   -2
100
AcDbMText
 10
37.5
 20
13
 30
0
 40
5
 41
11.66666666666698
 71
    5
 72
    1
  1
75.0
  7
standard
210
0
220
0
230
1
 50
0
 73
    2
 44
1
  0
LINE
  5
118
100
AcDbEntity
  8
Abmessungen
  6
ByBlock
 62
    0
370
   -2
100
AcDbLine
 10
3.827021247335479e-17
 20
8.625
 11
7.654042494670958e-17
 21
14.25
  0
LINE
  5
119
100
AcDbEntity
  8
Abmessungen
  6
ByBlock
 62
    0
370
   -2
100
AcDbLine
 10
75
 20
8.625
 11
75
 21
14.25
  0
ENDBLK
  5
79
330
77
100
AcDbEntity
  8
0
100
AcDbBlockEnd
  0
BLOCK
  5
7B
330
7A
100
AcDbEntity
  8
0
100
AcDbBlockBegin
  2
*D18
 70
    1
 10
0
 20
0
  3
*D18
  1

  0
LINE
  5
11A
100
AcDbEntity
  8
Abmessungen
  6
ByBlock
 62
    0
370
   -2
100
AcDbLine
 10
107
 20
57
 11
118.5416666666663
 21
57
  0
SOLID
  5
11B
100
AcDbEntity
  8
Abmessungen
  6
ByBlock
 62
    0
370
   -2
100
AcDbTrace
 10
107
 20
57
 30
0
 11
109.5
 21
57.41628465777284
 31
0
 12
109.5
 22
56.58371534222716
 32
0
 13
109.5
 23
56.58371534222716
 33
0
  0
SOLID
  5
11C
100
AcDbEntity
  8
Abmessungen
  6
ByBlock
 62
    0
370
   -2
100
AcDbTrace
 10
143
 20
57
 30
0
 11
140.5
 21
56.58371534222716
 31
0
 12
140.5
 22
57.41628465777284
 32
0
 13
140.5
 23
57.41628465777284
 33
0
  0
LINE
  5
11D
100
AcDbEntity
  8
Abmessungen
  6
ByBlock
 62
    0
370
   -2
100
AcDbLine
 10
131.4583333333337
 20
57
 11
143
 21
57
  0
MTEXT
  5
11E
100
AcDbEntity
  8
Abmessungen
  6
CONTINUOUS
 62
    0
370
   -2
100
AcDbMText
 10
125
 20
57
 30
0
 40
5
 41
11.66666666666729
 71
    5
 72
    1
  1
36.0
  7
standard
210
0
220
0
230
1
 50
0
 73
    2
 44
1
  0
LINE
  5
11F
100
AcDbEntity
  8
Abmessungen
  6
ByBlock
 62
    0
370
   -2
100
AcDbLine
 10
107
 20
61.375
 11
107
 21
55.75
  0
LINE
  5
120
100
AcDbEntity
  8
Abmessungen
  6
ByBlock
 62
    0
370
   -2
100
AcDbLine
 10
143
 20
61.375
 11
143
 21
55.75
  0
ENDBLK
  5
7C
330
7A
100
AcDbEntity
  8
0
100
AcDbBlockEnd
  0
BLOCK
  5
7E
330
7D
100
AcDbEntity
  8
0
100
AcDbBlockBegin
  2
*D16
 70
    1
 10
0
 20
0
  3
*D16
  1

  0
LINE
  5
121
100
AcDbEntity
  8
Abmessungen
  6
ByBlock
 62
    0
370
   -2
100
AcDbLine
 10
0
 20
57
 11
14.76388888888873
 21
57
  0
SOLID
  5
122
100
AcDbEntity
  8
Abmessungen
  6
ByBlock
 62
    0
370
   -2
100
AcDbTrace
 10
0
 20
57
 30
0
 11
2.5
 21
57.41628465777284
 31
0
 12
2.5
 22
56.58371534222716
 32
0
 13
2.5
 23
56.58371534222716
 33
0
  0
SOLID
  5
123
100
AcDbEntity
  8
Abmessungen
  6
ByBlock
 62
    0
370
   -2
100
AcDbTrace
 10
43
 20
57
 30
0
 11
40.5
 21
56.58371534222716
 31
0
 12
40.5
 22
57.41628465777284
 32
0
 13
40.5
 23
57.41628465777284
 33
0
  0
LINE
  5
124
100
AcDbEntity
  8
Abmessungen
  6
ByBlock
 62
    0
370
   -2
100
AcDbLine
 10
28.23611111111127
 20
57
 11
43
 21
57
  0
MTEXT
  5
125
100
AcDbEntity
  8
Abmessungen
  6
CONTINUOUS
 62
    0
370
   -2
100
AcDbMText
 10
21.5
 20
57
 30
0
 40
5
 41
12.22222222222253
 71
    5
 72
    1
  1
43.0
  7
standard
210
0
220
0
230
1
 50
0
 73
    2
 44
1
  0
LINE
  5
126
100
AcDbEntity
  8
Abmessungen
  6
ByBlock
 62
    0
370
   -2
100
AcDbLine
 10
-1.148106374200643e-16
 20
61.375
 11
-2.296212748401287e-16
 21
55.75
  0
LINE
  5
127
100
AcDbEntity
  8
Abmessungen
  6
ByBlock
 62
    0
370
   -2
100
AcDbLine
 10
43
 20
61.375
 11
43
 21
55.75
  0
ENDBLK
  5
7F
330
7D
100
AcDbEntity
  8
0
100
AcDbBlockEnd
  0
BLOCK
  5
81
330
80
100
AcDbEntity
  8
0
100
AcDbBlockBegin
  2
*D5
 70
    1
 10
0
 20
0
  3
*D5
  1

  0
LINE
  5
128
100
AcDbEntity
  8
Platinen_Dim
  6
ByBlock
 62
    0
370
   -2
100
AcDbLine
 10
35
 20
57
 11
43
 21
57
  0
SOLID
  5
129
100
AcDbEntity
  8
Platinen_Dim
  6
ByBlock
 62
    0
370
   -2
100
AcDbTrace
 10
35
 20
57
 30
0
 11
37.5
 21
57.41628465777284
 31
0
 12
37.5
 22
56.58371534222716
 32
0
 13
37.5
 23
56.58371534222716
 33
0
  0
SOLID
  5
12A
100
AcDbEntity
  8
Platinen_Dim
  6
ByBlock
 62
    0
370
   -2
100
AcDbTrace
 10
43
 20
57
 30
0
 11
40.5
 21
56.58371534222716
 31
0
 12
40.5
 22
57.41628465777284
 32
0
 13
40.5
 23
57.41628465777284
 33
0
  0
MTEXT
  5
12B
100
AcDbEntity
  8
Platinen_Dim
  6
CONTINUOUS
 62
    0
370
   -2
100
AcDbMText
 10
39
 20
57
 30
0
 40
5
 41
7.777777777777779
 71
    5
 72
    1
  1
8.0
  7
standard
210
0
220
0
230
1
 50
0
 73
    2
 44
1
  0
LINE
  5
12C
100
AcDbEntity
  8
Platinen_Dim
  6
ByBlock
 62
    0
370
   -2
100
AcDbLine
 10
35
 20
61.375
 11
35
 21
55.75
  0
LINE
  5
12D
100
AcDbEntity
  8
Platinen_Dim
  6
ByBlock
 62
    0
370
   -2
100
AcDbLine
 10
43
 20
61.375
 11
43
 21
55.75
  0
ENDBLK
  5
82
330
80
100
AcDbEntity
  8
0
100
AcDbBlockEnd
  0
BLOCK
  5
84
330
83
100
AcDbEntity
  8
0
100
AcDbBlockBegin
  2
*D34
 70
    1
 10
0
 20
0
  3
*D34
  1

  0
LINE
  5
12E
100
AcDbEntity
  8
Abmessungen
  6
ByBlock
 62
    0
370
   -2
100
AcDbLine
 10
432.5199224458043
 20
29.51992244580424
 11
443.4800775541957
 21
40.48007755419576
  0
SOLID
  5
12F
100
AcDbEntity
  8
Abmessungen
  6
ByBlock
 62
    0
370
   -2
100
AcDbTrace
 10
436.055456351737
 20
33.05545635173699
 30
0
 11
434.5820471031857
 21
30.99333169435552
 31
0
 12
433.9933316943556
 22
31.58204710318571
 32
0
 13
433.9933316943556
 23
31.58204710318571
 33
0
  0
SOLID
  5
130
100
AcDbEntity
  8
Abmessungen
  6
ByBlock
 62
    0
370
   -2
100
AcDbTrace
 10
439.944543648263
 20
36.94454364826301
 30
0
 11
441.4179528968143
 21
39.00666830564447
 31
0
 12
442.0066683056444
 22
38.41795289681428
 32
0
 13
442.0066683056444
 23
38.41795289681428
 33
0
  0
MTEXT
  5
131
100
AcDbEntity
  8
Abmessungen
  6
CONTINUOUS
 62
    0
370
   -2
100
AcDbMText
 10
424.7638888888892
 20
32
 30
0
 40
5
 41
12.7777777777784
 71
    5
 72
    1
  1
%%C5.5
  7
standard
210
0
220
0
230
1
 50
0
 73
    2
 44
1
  0
ENDBLK
  5
85
330
83
100
AcDbEntity
  8
0
100
AcDbBlockEnd
  0
BLOCK
  5
87
330
86
100
AcDbEntity
  8
0
100
AcDbBlockBegin
  2
*D28
 70
    1
 10
0
 20
0
  3
*D28
  1

  0
LINE
  5
132
100
AcDbEntity
  8
Abmessungen
  6
ByBlock
 62
    0
370
   -2
100
AcDbLine
 10
275
 20
13
 11
317.1527777777778
 21
13
  0
SOLID
  5
133
100
AcDbEntity
  8
Abmessungen
  6
ByBlock
 62
    0
370
   -2
100
AcDbTrace
 10
275
 20
13
 30
0
 11
277.5
 21
13.41628465777284
 31
0
 12
277.5
 22
12.58371534222716
 32
0
 13
277.5
 23
12.58371534222716
 33
0
  0
SOLID
  5
134
100
AcDbEntity
  8
Abmessungen
  6
ByBlock
 62
    0
370
   -2
100
AcDbTrace
 10
375
 20
13
 30
0
 11
372.5
 21
12.58371534222716
 31
0
 12
372.5
 22
13.41628465777284
 32
0
 13
372.5
 23
13.41628465777284
 33
0
  0
LINE
  5
135
100
AcDbEntity
  8
Abmessungen
  6
ByBlock
 62
    0
370
   -2
100
AcDbLine
 10
332.8472222222223
 20
13
 11
375
 21
13
  0
MTEXT
  5
136
100
AcDbEntity
  8
Abmessungen
  6
CONTINUOUS
 62
    0
370
   -2
100
AcDbMText
 10
325
 20
13
 30
0
 40
5
 41
14.44444444444444
 71
    5
 72
    1
  1
100.0
  7
standard
210
0
220
0
230
1
 50
0
 73
    2
 44
1
  0
LINE
  5
137
100
AcDbEntity
  8
Abmessungen
  6
ByBlock
 62
    0
370
   -2
100
AcDbLine
 10
275
 20
8.625
 11
275
 21
14.25
  0
LINE
  5
138
100
AcDbEntity
  8
Abmessungen
  6
ByBlock
 62
    0
370
   -2
100
AcDbLine
 10
375
 20
8.625
 11
375
 21
14.25
  0
ENDBLK
  5
88
330
86
100
AcDbEntity
  8
0
100
AcDbBlockEnd
  0
BLOCK
  5
8A
330
89
100
AcDbEntity
  8
0
100
AcDbBlockBegin
  2
*D1
 70
    1
 10
0
 20
0
  3
*D1
  1

  0
LINE
  5
139
100
AcDbEntity
  8
Abmessungen
  6
ByBlock
 62
    0
370
   -2
100
AcDbLine
 10
3.827021247335479e-17
 20
65.625
 11
1.607348923880901e-15
 21
91.25
  0
LINE
  5
13A
100
AcDbEntity
  8
Abmessungen
  6
ByBlock
 62
    0
370
   -2
100
AcDbLine
 10
450
 20
65.625
 11
450
 21
91.25
  0
LINE
  5
13B
100
AcDbEntity
  8
Abmessungen
  6
ByBlock
 62
    0
370
   -2
100
AcDbLine
 10
1.530808498934192e-15
 20
90
 11
216.3194444444443
 21
90
  0
SOLID
  5
13C
100
AcDbEntity
  8
Abmessungen
  6
ByBlock
 62
    0
370
   -2
100
AcDbTrace
 10
1.530808498934192e-15
 20
90
 30
0
 11
2.500000000000001
 21
90.41628465777283
 31
0
 12
2.500000000000001
 22
89.58371534222717
 32
0
 13
2.500000000000001
 23
89.58371534222717
 33
0
  0
SOLID
  5
13D
100
AcDbEntity
  8
Abmessungen
  6
ByBlock
 62
    0
370
   -2
100
AcDbTrace
 10
450
 20
90
 30
0
 11
447.5
 21
89.58371534222717
 31
0
 12
447.5
 22
90.41628465777283
 32
0
 13
447.5
 23
90.41628465777283
 33
0
  0
LINE
  5
13E
100
AcDbEntity
  8
Abmessungen
  6
ByBlock
 62
    0
370
   -2
100
AcDbLine
 10
233.6805555555557
 20
90
 11
450
 21
90
  0
MTEXT
  5
13F
100
AcDbEntity
  8
Abmessungen
  6
CONTINUOUS
 62
    0
370
   -2
100
AcDbMText
 10
225
 20
90
 30
0
 40
5
 41
16.11111111111142
 71
    5
 72
    1
  1
450.0
  7
standard
210
0
220
0
230
1
 50
0
 73
    2
 44
1
  0
ENDBLK
  5
8B
330
89
100
AcDbEntity
  8
0
100
AcDbBlockEnd
  0
BLOCK
  5
8D
330
8C
100
AcDbEntity
  8
0
100
AcDbBlockBegin
  2
*D14
 70
    1
 10
0
 20
0
  3
*D14
  1

  0
LINE
  5
140
100
AcDbEntity
  8
Abmessungen
  6
ByBlock
 62
    0
370
   -2
100
AcDbLine
 10
470
 20
8.000000000000002
 11
470
 21
7.125000000000002
  0
SOLID
  5
141
100
AcDbEntity
  8
Abmessungen
  6
ByBlock
 62
    0
370
   -2
100
AcDbTrace
 10
470
 20
8.000000000000002
 30
0
 11
470.4162846577728
 21
5.500000000000002
 31
0
 12
469.5837153422272
 22
5.500000000000002
 32
0
 13
469.5837153422272
 23
5.500000000000002
 33
0
  0
SOLID
  5
142
100
AcDbEntity
  8
Abmessungen
  6
ByBlock
 62
    0
370
   -2
100
AcDbTrace
 10
470
 20
0
 30
0
 11
469.5837153422272
 21
2.5
 31
0
 12
470.4162846577728
 22
2.5
 32
0
 13
470.4162846577728
 23
2.5
 33
0
  0
LINE
  5
143
100
AcDbEntity
  8
Abmessungen
  6
ByBlock
 62
    0
370
   -2
100
AcDbLine
 10
470
 20
0.8750000000000009
 11
470
 21
0
  0
MTEXT
  5
144
100
AcDbEntity
  8
Abmessungen
  6
CONTINUOUS
 62
    0
370
   -2
100
AcDbMText
 10
470
 20
4.000000000000001
 30
0
 40
5
 41
7.777777777777779
 71
    5
 72
    1
  1
8.0
  7
standard
210
0
220
0
230
1
 50
0
 73
    2
 44
1
  0
LINE
  5
145
100
AcDbEntity
  8
Abmessungen
  6
ByBlock
 62
    0
370
   -2
100
AcDbLine
 10
450.625
 20
8
 11
471.25
 21
8.000000000000002
  0
LINE
  5
146
100
AcDbEntity
  8
Abmessungen
  6
ByBlock
 62
    0
370
   -2
100
AcDbLine
 10
450.625
 20
0
 11
471.25
 21
0
  0
ENDBLK
  5
8E
330
8C
100
AcDbEntity
  8
0
100
AcDbBlockEnd
  0
BLOCK
  5
90
330
8F
100
AcDbEntity
  8
0
100
AcDbBlockBegin
  2
*D19
 70
    1
 10
0
 20
0
  3
*D19
  1

  0
LINE
  5
147
100
AcDbEntity
  8
Abmessungen
  6
ByBlock
 62
    0
370
   -2
100
AcDbLine
 10
143
 20
57
 11
168.2638888888888
 21
57
  0
SOLID
  5
148
100
AcDbEntity
  8
Abmessungen
  6
ByBlock
 62
    0
370
   -2
100
AcDbTrace
 10
143
 20
57
 30
0
 11
145.5
 21
57.41628465777284
 31
0
 12
145.5
 22
56.58371534222716
 32
0
 13
145.5
 23
56.58371534222716
 33
0
  0
SOLID
  5
149
100
AcDbEntity
  8
Abmessungen
  6
ByBlock
 62
    0
370
   -2
100
AcDbTrace
 10
207
 20
57
 30
0
 11
204.5
 21
56.58371534222716
 31
0
 12
204.5
 22
57.41628465777284
 32
0
 13
204.5
 23
57.41628465777284
 33
0
  0
LINE
  5
14A
100
AcDbEntity
  8
Abmessungen
  6
ByBlock
 62
    0
370
   -2
100
AcDbLine
 10
181.7361111111112
 20
57
 11
207
 21
57
  0
MTEXT
  5
14B
100
AcDbEntity
  8
Abmessungen
  6
CONTINUOUS
 62
    0
370
   -2
100
AcDbMText
 10
175
 20
57
 30
0
 40
5
 41
12.22222222222253
 71
    5
 72
    1
  1
64.0
  7
standard
210
0
220
0
230
1
 50
0
 73
    2
 44
1
  0
LINE
  5
14C
100
AcDbEntity
  8
Abmessungen
  6
ByBlock
 62
    0
370
   -2
100
AcDbLine
 10
143
 20
61.375
 11
143
 21
55.75
  0
LINE
  5
14D
100
AcDbEntity
  8
Abmessungen
  6
ByBlock
 62
    0
370
   -2
100
AcDbLine
 10
207
 20
61.375
 11
207
 21
55.75
  0
ENDBLK
  5
91
330
8F
100
AcDbEntity
  8
0
100
AcDbBlockEnd
  0
BLOCK
  5
93
330
92
100
AcDbEntity
  8
0
100
AcDbBlockBegin
  2
*D20
 70
    1
 10
0
 20
0
  3
*D20
  1

  0
LINE
  5
14E
100
AcDbEntity
  8
Abmessungen
  6
ByBlock
 62
    0
370
   -2
100
AcDbLine
 10
207
 20
57
 11
218.5416666666663
 21
57
  0
SOLID
  5
14F
100
AcDbEntity
  8
Abmessungen
  6
ByBlock
 62
    0
370
   -2
100
AcDbTrace
 10
207
 20
57
 30
0
 11
209.5
 21
57.41628465777284
 31
0
 12
209.5
 22
56.58371534222716
 32
0
 13
209.5
 23
56.58371534222716
 33
0
  0
SOLID
  5
150
100
AcDbEntity
  8
Abmessungen
  6
ByBlock
 62
    0
370
   -2
100
AcDbTrace
 10
243
 20
57
 30
0
 11
240.5
 21
56.58371534222716
 31
0
 12
240.5
 22
57.41628465777284
 32
0
 13
240.5
 23
57.41628465777284
 33
0
  0
LINE
  5
151
100
AcDbEntity
  8
Abmessungen
  6
ByBlock
 62
    0
370
   -2
100
AcDbLine
 10
231.4583333333337
 20
57
 11
243
 21
57
  0
MTEXT
  5
152
100
AcDbEntity
  8
Abmessungen
  6
CONTINUOUS
 62
    0
370
   -2
100
AcDbMText
 10
225
 20
57
 30
0
 40
5
 41
11.66666666666729
 71
    5
 72
    1
  1
36.0
  7
standard
210
0
220
0
230
1
 50
0
 73
    2
 44
1
  0
LINE
  5
153
100
AcDbEntity
  8
Abmessungen
  6
ByBlock
 62
    0
370
   -2
100
AcDbLine
 10
207
 20
61.375
 11
207
 21
55.75
  0
LINE
  5
154
100
AcDbEntity
  8
Abmessungen
  6
ByBlock
 62
    0
370
   -2
100
AcDbLine
 10
243
 20
61.375
 11
243
 21
55.75
  0
ENDBLK
  5
94
330
92
100
AcDbEntity
  8
0
100
AcDbBlockEnd
  0
BLOCK
  5
96
330
95
100
AcDbEntity
  8
0
100
AcDbBlockBegin
  2
*D33
 70
    1
 10
0
 20
0
  3
*D33
  1

  0
LINE
  5
155
100
AcDbEntity
  8
Abmessungen
  6
ByBlock
 62
    0
370
   -2
100
AcDbLine
 10
0
 20
30
 11
12
 21
30
  0
SOLID
  5
156
100
AcDbEntity
  8
Abmessungen
  6
ByBlock
 62
    0
370
   -2
100
AcDbTrace
 10
0
 20
30
 30
0
 11
2.5
 21
30.41628465777284
 31
0
 12
2.5
 22
29.58371534222716
 32
0
 13
2.5
 23
29.58371534222716
 33
0
  0
SOLID
  5
157
100
AcDbEntity
  8
Abmessungen
  6
ByBlock
 62
    0
370
   -2
100
AcDbTrace
 10
12
 20
30
 30
0
 11
9.5
 21
29.58371534222716
 31
0
 12
9.5
 22
30.41628465777284
 32
0
 13
9.5
 23
30.41628465777284
 33
0
  0
MTEXT
  5
158
100
AcDbEntity
  8
Abmessungen
  6
CONTINUOUS
 62
    0
370
   -2
100
AcDbMText
 10
6
 20
26
 30
0
 40
5
 41
10.55555555555556
 71
    5
 72
    1
  1
12.0
  7
standard
210
0
220
0
230
1
 50
0
 73
    2
 44
1
  0
LINE
  5
159
100
AcDbEntity
  8
Abmessungen
  6
ByBlock
 62
    0
370
   -2
100
AcDbLine
 10
-1.148106374200643e-16
 20
34.375
 11
-2.296212748401287e-16
 21
28.75
  0
LINE
  5
15A
100
AcDbEntity
  8
Abmessungen
  6
ByBlock
 62
    0
370
   -2
100
AcDbLine
 10
12
 20
34.375
 11
12
 21
28.75
  0
ENDBLK
  5
97
330
95
100
AcDbEntity
  8
0
100
AcDbBlockEnd
  0
BLOCK
  5
99
330
98
100
AcDbEntity
  8
0
100
AcDbBlockBegin
  2
*D17
 70
    1
 10
0
 20
0
  3
*D17
  1

  0
LINE
  5
15B
100
AcDbEntity
  8
Abmessungen
  6
ByBlock
 62
    0
370
   -2
100
AcDbLine
 10
43
 20
57
 11
68.26388888888873
 21
57
  0
SOLID
  5
15C
100
AcDbEntity
  8
Abmessungen
  6
ByBlock
 62
    0
370
   -2
100
AcDbTrace
 10
43
 20
57
 30
0
 11
45.5
 21
57.41628465777284
 31
0
 12
45.5
 22
56.58371534222716
 32
0
 13
45.5
 23
56.58371534222716
 33
0
  0
SOLID
  5
15D
100
AcDbEntity
  8
Abmessungen
  6
ByBlock
 62
    0
370
   -2
100
AcDbTrace
 10
107
 20
57
 30
0
 11
104.5
 21
56.58371534222716
 31
0
 12
104.5
 22
57.41628465777284
 32
0
 13
104.5
 23
57.41628465777284
 33
0
  0
LINE
  5
15E
100
AcDbEntity
  8
Abmessungen
  6
ByBlock
 62
    0
370
   -2
100
AcDbLine
 10
81.73611111111127
 20
57
 11
107
 21
57
  0
MTEXT
  5
15F
100
AcDbEntity
  8
Abmessungen
  6
CONTINUOUS
 62
    0
370
   -2
100
AcDbMText
 10
75
 20
57
 30
0
 40
5
 41
12.22222222222253
 71
    5
 72
    1
  1
64.0
  7
standard
210
0
220
0
230
1
 50
0
 73
    2
 44
1
  0
LINE
  5
160
100
AcDbEntity
  8
Abmessungen
  6
ByBlock
 62
    0
370
   -2
100
AcDbLine
 10
43
 20
61.375
 11
43
 21
55.75
  0
LINE
  5
161
100
AcDbEntity
  8
Abmessungen
  6
ByBlock
 62
    0
370
   -2
100
AcDbLine
 10
107
 20
61.375
 11
107
 21
55.75
  0
ENDBLK
  5
9A
330
98
100
AcDbEntity
  8
0
100
AcDbBlockEnd
  0
BLOCK
  5
9C
330
9B
100
AcDbEntity
  8
0
100
AcDbBlockBegin
  2
*D8
 70
    1
 10
0
 20
0
  3
*D8
  1

  0
LINE
  5
162
100
AcDbEntity
  8
Platinen_Dim
  6
ByBlock
 62
    0
370
   -2
100
AcDbLine
 10
35
 20
13
 11
48.26388888888889
 21
13
  0
SOLID
  5
163
100
AcDbEntity
  8
Platinen_Dim
  6
ByBlock
 62
    0
370
   -2
100
AcDbTrace
 10
35
 20
13
 30
0
 11
37.5
 21
13.41628465777284
 31
0
 12
37.5
 22
12.58371534222716
 32
0
 13
37.5
 23
12.58371534222716
 33
0
  0
SOLID
  5
164
100
AcDbEntity
  8
Platinen_Dim
  6
ByBlock
 62
    0
370
   -2
100
AcDbTrace
 10
75
 20
13
 30
0
 11
72.5
 21
12.58371534222716
 31
0
 12
72.5
 22
13.41628465777284
 32
0
 13
72.5
 23
13.41628465777284
 33
0
  0
LINE
  5
165
100
AcDbEntity
  8
Platinen_Dim
  6
ByBlock
 62
    0
370
   -2
100
AcDbLine
 10
61.73611111111111
 20
13
 11
75
 21
13
  0
MTEXT
  5
166
100
AcDbEntity
  8
Platinen_Dim
  6
CONTINUOUS
 62
    0
370
   -2
100
AcDbMText
 10
55
 20
13
 30
0
 40
5
 41
12.22222222222222
 71
    5
 72
    1
  1
40.0
  7
standard
210
0
220
0
230
1
 50
0
 73
    2
 44
1
  0
LINE
  5
167
100
AcDbEntity
  8
Platinen_Dim
  6
ByBlock
 62
    0
370
   -2
100
AcDbLine
 10
35
 20
8.625
 11
35
 21
14.25
  0
LINE
  5
168
100
AcDbEntity
  8
Platinen_Dim
  6
ByBlock
 62
    0
370
   -2
100
AcDbLine
 10
75
 20
8.625
 11
75
 21
14.25
  0
ENDBLK
  5
9D
330
9B
100
AcDbEntity
  8
0
100
AcDbBlockEnd
  0
BLOCK
  5
9F
330
9E
100
AcDbEntity
  8
0
100
AcDbBlockBegin
  2
*D2
 70
    1
 10
0
 20
0
  3
*D2
  1

  0
LINE
  5
169
100
AcDbEntity
  8
Abmessungen
  6
ByBlock
 62
    0
370
   -2
100
AcDbLine
 10
4.374999999999988
 20
70.00000000000001
 11
-26.25000000000001
 21
70.00000000000001
  0
LINE
  5
16A
100
AcDbEntity
  8
Abmessungen
  6
ByBlock
 62
    0
370
   -2
100
AcDbLine
 10
4.375000000000004
 20
7.654042494670958e-17
 11
-26.25
 21
3.827021247335479e-15
  0
LINE
  5
16B
100
AcDbEntity
  8
Abmessungen
  6
ByBlock
 62
    0
370
   -2
100
AcDbLine
 10
-25.00000000000001
 20
70.00000000000001
 11
-25.00000000000001
 21
38.12500000000001
  0
SOLID
  5
16C
100
AcDbEntity
  8
Abmessungen
  6
ByBlock
 62
    0
370
   -2
100
AcDbTrace
 10
-25.00000000000001
 20
70.00000000000001
 30
0
 11
-24.58371534222717
 21
67.50000000000001
 31
0
 12
-25.41628465777286
 22
67.50000000000001
 32
0
 13
-25.41628465777286
 23
67.50000000000001
 33
0
  0
SOLID
  5
16D
100
AcDbEntity
  8
Abmessungen
  6
ByBlock
 62
    0
370
   -2
100
AcDbTrace
 10
-25
 20
3.67394039744206e-15
 30
0
 11
-25.41628465777284
 21
2.500000000000004
 31
0
 12
-24.58371534222716
 22
2.500000000000004
 32
0
 13
-24.58371534222716
 23
2.500000000000004
 33
0
  0
LINE
  5
16E
100
AcDbEntity
  8
Abmessungen
  6
ByBlock
 62
    0
370
   -2
100
AcDbLine
 10
-25.00000000000001
 20
31.87500000000001
 11
-25
 21
3.67394039744206e-15
  0
MTEXT
  5
16F
100
AcDbEntity
  8
Abmessungen
  6
CONTINUOUS
 62
    0
370
   -2
100
AcDbMText
 10
-25.00000000000001
 20
35.00000000000001
 30
0
 40
5
 41
11.66666666666667
 71
    5
 72
    1
  1
70.0
  7
standard
210
0
220
0
230
1
 50
0
 73
    2
 44
1
  0
ENDBLK
  5
A0
330
9E
100
AcDbEntity
  8
0
100
AcDbBlockEnd
  0
BLOCK
  5
A2
330
A1
100
AcDbEntity
  8
0
100
AcDbBlockBegin
  2
*D24
 70
    1
 10
0
 20
0
  3
*D24
  1

  0
LINE
  5
170
100
AcDbEntity
  8
Abmessungen
  6
ByBlock
 62
    0
370
   -2
100
AcDbLine
 10
407
 20
57
 11
421.7638888888887
 21
57
  0
SOLID
  5
171
100
AcDbEntity
  8
Abmessungen
  6
ByBlock
 62
    0
370
   -2
100
AcDbTrace
 10
407
 20
57
 30
0
 11
409.5
 21
57.41628465777284
 31
0
 12
409.5
 22
56.58371534222716
 32
0
 13
409.5
 23
56.58371534222716
 33
0
  0
SOLID
  5
172
100
AcDbEntity
  8
Abmessungen
  6
ByBlock
 62
    0
370
   -2
100
AcDbTrace
 10
450
 20
57
 30
0
 11
447.5
 21
56.58371534222716
 31
0
 12
447.5
 22
57.41628465777284
 32
0
 13
447.5
 23
57.41628465777284
 33
0
  0
LINE
  5
173
100
AcDbEntity
  8
Abmessungen
  6
ByBlock
 62
    0
370
   -2
100
AcDbLine
 10
435.2361111111113
 20
57
 11
450
 21
57
  0
MTEXT
  5
174
100
AcDbEntity
  8
Abmessungen
  6
CONTINUOUS
 62
    0
370
   -2
100
AcDbMText
 10
428.5
 20
57
 30
0
 40
5
 41
12.22222222222253
 71
    5
 72
    1
  1
43.0
  7
standard
210
0
220
0
230
1
 50
0
 73
    2
 44
1
  0
LINE
  5
175
100
AcDbEntity
  8
Abmessungen
  6
ByBlock
 62
    0
370
   -2
100
AcDbLine
 10
407
 20
61.375
 11
407
 21
55.75
  0
LINE
  5
176
100
AcDbEntity
  8
Abmessungen
  6
ByBlock
 62
    0
370
   -2
100
AcDbLine
 10
450
 20
61.375
 11
450
 21
55.75
  0
ENDBLK
  5
A3
330
A1
100
AcDbEntity
  8
0
100
AcDbBlockEnd
  0
BLOCK
  5
A5
330
A4
100
AcDbEntity
  8
0
100
AcDbBlockBegin
  2
*D27
 70
    1
 10
0
 20
0
  3
*D27
  1

  0
LINE
  5
177
100
AcDbEntity
  8
Abmessungen
  6
ByBlock
 62
    0
370
   -2
100
AcDbLine
 10
175
 20
13
 11
217.1527777777778
 21
13
  0
SOLID
  5
178
100
AcDbEntity
  8
Abmessungen
  6
ByBlock
 62
    0
370
   -2
100
AcDbTrace
 10
175
 20
13
 30
0
 11
177.5
 21
13.41628465777284
 31
0
 12
177.5
 22
12.58371534222716
 32
0
 13
177.5
 23
12.58371534222716
 33
0
  0
SOLID
  5
179
100
AcDbEntity
  8
Abmessungen
  6
ByBlock
 62
    0
370
   -2
100
AcDbTrace
 10
275
 20
13
 30
0
 11
272.5
 21
12.58371534222716
 31
0
 12
272.5
 22
13.41628465777284
 32
0
 13
272.5
 23
13.41628465777284
 33
0
  0
LINE
  5
17A
100
AcDbEntity
  8
Abmessungen
  6
ByBlock
 62
    0
370
   -2
100
AcDbLine
 10
232.8472222222222
 20
13
 11
275
 21
13
  0
MTEXT
  5
17B
100
AcDbEntity
  8
Abmessungen
  6
CONTINUOUS
 62
    0
370
   -2
100
AcDbMText
 10
225
 20
13
 30
0
 40
5
 41
14.44444444444444
 71
    5
 72
    1
  1
100.0
  7
standard
210
0
220
0
230
1
 50
0
 73
    2
 44
1
  0
LINE
  5
17C
100
AcDbEntity
  8
Abmessungen
  6
ByBlock
 62
    0
370
   -2
100
AcDbLine
 10
175
 20
8.625
 11
175
 21
14.25
  0
LINE
  5
17D
100
AcDbEntity
  8
Abmessungen
  6
ByBlock
 62
    0
370
   -2
100
AcDbLine
 10
275
 20
8.625
 11
275
 21
14.25
  0
ENDBLK
  5
A6
330
A4
100
AcDbEntity
  8
0
100
AcDbBlockEnd
  0
BLOCK
  5
A8
330
A7
100
AcDbEntity
  8
0
100
AcDbBlockBegin
  2
*D32
 70
    1
 10
0
 20
0
  3
*D32
  1

  0
LINE
  5
17E
100
AcDbEntity
  8
Abmessungen
  6
ByBlock
 62
    0
370
   -2
100
AcDbLine
 10
438
 20
30
 11
450
 21
30
  0
SOLID
  5
17F
100
AcDbEntity
  8
Abmessungen
  6
ByBlock
 62
    0
370
   -2
100
AcDbTrace
 10
438
 20
30
 30
0
 11
440.5
 21
30.41628465777284
 31
0
 12
440.5
 22
29.58371534222716
 32
0
 13
440.5
 23
29.58371534222716
 33
0
  0
SOLID
  5
180
100
AcDbEntity
  8
Abmessungen
  6
ByBlock
 62
    0
370
   -2
100
AcDbTrace
 10
450
 20
30
 30
0
 11
447.5
 21
29.58371534222716
 31
0
 12
447.5
 22
30.41628465777284
 32
0
 13
447.5
 23
30.41628465777284
 33
0
  0
MTEXT
  5
181
100
AcDbEntity
  8
Abmessungen
  6
CONTINUOUS
 62
    0
370
   -2
100
AcDbMText
 10
444
 20
26
 30
0
 40
5
 41
10.55555555555556
 71
    5
 72
    1
  1
12.0
  7
standard
210
0
220
0
230
1
 50
0
 73
    2
 44
1
  0
LINE
  5
182
100
AcDbEntity
  8
Abmessungen
  6
ByBlock
 62
    0
370
   -2
100
AcDbLine
 10
438
 20
34.375
 11
438
 21
28.75
  0
LINE
  5
183
100
AcDbEntity
  8
Abmessungen
  6
ByBlock
 62
    0
370
   -2
100
AcDbLine
 10
450
 20
34.375
 11
450
 21
28.75
  0
ENDBLK
  5
A9
330
A7
100
AcDbEntity
  8
0
100
AcDbBlockEnd
  0
BLOCK
  5
AB
330
AA
100
AcDbEntity
  8
0
100
AcDbBlockBegin
  2
*D10
 70
    1
 10
0
 20
0
  3
*D10
  1

  0
LINE
  5
184
100
AcDbEntity
  8
Platinen_Dim
  6
ByBlock
 62
    0
370
   -2
100
AcDbLine
 10
29.99999999999999
 20
-30
 11
30
 21
12.875
  0
SOLID
  5
185
100
AcDbEntity
  8
Platinen_Dim
  6
ByBlock
 62
    0
370
   -2
100
AcDbTrace
 10
29.99999999999999
 20
-30
 30
0
 11
29.58371534222715
 21
-27.5
 31
0
 12
30.41628465777283
 22
-27.5
 32
0
 13
30.41628465777283
 23
-27.5
 33
0
  0
SOLID
  5
186
100
AcDbEntity
  8
Platinen_Dim
  6
ByBlock
 62
    0
370
   -2
100
AcDbTrace
 10
30
 20
62
 30
0
 11
30.41628465777284
 21
59.5
 31
0
 12
29.58371534222716
 22
59.5
 32
0
 13
29.58371534222716
 23
59.5
 33
0
  0
LINE
  5
187
100
AcDbEntity
  8
Platinen_Dim
  6
ByBlock
 62
    0
370
   -2
100
AcDbLine
 10
30
 20
19.125
 11
30
 21
62
  0
MTEXT
  5
188
100
AcDbEntity
  8
Platinen_Dim
  6
CONTINUOUS
 62
    0
370
   -2
100
AcDbMText
 10
30
 20
16
 30
0
 40
5
 41
11.66666666666698
 71
    5
 72
    1
  1
92.0
  7
standard
210
0
220
0
230
1
 50
0
 73
    2
 44
1
  0
LINE
  5
189
100
AcDbEntity
  8
Platinen_Dim
  6
ByBlock
 62
    0
370
   -2
100
AcDbLine
 10
34.375
 20
-30
 11
28.74999999999999
 21
-30
  0
LINE
  5
18A
100
AcDbEntity
  8
Platinen_Dim
  6
ByBlock
 62
    0
370
   -2
100
AcDbLine
 10
34.375
 20
62
 11
28.75
 21
62
  0
ENDBLK
  5
AC
330
AA
100
AcDbEntity
  8
0
100
AcDbBlockEnd
  0
BLOCK
  5
AE
330
AD
100
AcDbEntity
  8
0
100
AcDbBlockBegin
  2
*D22
 70
    1
 10
0
 20
0
  3
*D22
  1

  0
LINE
  5
18B
100
AcDbEntity
  8
Abmessungen
  6
ByBlock
 62
    0
370
   -2
100
AcDbLine
 10
307
 20
57
 11
318.5416666666663
 21
57
  0
SOLID
  5
18C
100
AcDbEntity
  8
Abmessungen
  6
ByBlock
 62
    0
370
   -2
100
AcDbTrace
 10
307
 20
57
 30
0
 11
309.5
 21
57.41628465777284
 31
0
 12
309.5
 22
56.58371534222716
 32
0
 13
309.5
 23
56.58371534222716
 33
0
  0
SOLID
  5
18D
100
AcDbEntity
  8
Abmessungen
  6
ByBlock
 62
    0
370
   -2
100
AcDbTrace
 10
343
 20
57
 30
0
 11
340.5
 21
56.58371534222716
 31
0
 12
340.5
 22
57.41628465777284
 32
0
 13
340.5
 23
57.41628465777284
 33
0
  0
LINE
  5
18E
100
AcDbEntity
  8
Abmessungen
  6
ByBlock
 62
    0
370
   -2
100
AcDbLine
 10
331.4583333333337
 20
57
 11
343
 21
57
  0
MTEXT
  5
18F
100
AcDbEntity
  8
Abmessungen
  6
CONTINUOUS
 62
    0
370
   -2
100
AcDbMText
 10
325
 20
57
 30
0
 40
5
 41
11.66666666666729
 71
    5
 72
    1
  1
36.0
  7
standard
210
0
220
0
230
1
 50
0
 73
    2
 44
1
  0
LINE
  5
190
100
AcDbEntity
  8
Abmessungen
  6
ByBlock
 62
    0
370
   -2
100
AcDbLine
 10
307
 20
61.375
 11
307
 21
55.75
  0
LINE
  5
191
100
AcDbEntity
  8
Abmessungen
  6
ByBlock
 62
    0
370
   -2
100
AcDbLine
 10
343
 20
61.375
 11
343
 21
55.75
  0
ENDBLK
  5
AF
330
AD
100
AcDbEntity
  8
0
100
AcDbBlockEnd
  0
BLOCK
  5
B1
330
B0
100
AcDbEntity
  8
0
100
AcDbBlockBegin
  2
*D3
 70
    1
 10
0
 20
0
  3
*D3
  1

  0
LINE
  5
192
100
AcDbEntity
  8
Abmessungen
  6
ByBlock
 62
    0
370
   -2
100
AcDbLine
 10
480
 20
7.105427357601002e-15
 11
480
 21
14.375
  0
SOLID
  5
193
100
AcDbEntity
  8
Abmessungen
  6
ByBlock
 62
    0
370
   -2
100
AcDbTrace
 10
480
 20
7.105427357601002e-15
 30
0
 11
479.5837153422272
 21
2.500000000000007
 31
0
 12
480.4162846577728
 22
2.500000000000007
 32
0
 13
480.4162846577728
 23
2.500000000000007
 33
0
  0
SOLID
  5
194
100
AcDbEntity
  8
Abmessungen
  6
ByBlock
 62
    0
370
   -2
100
AcDbTrace
 10
480
 20
35
 30
0
 11
480.4162846577728
 21
32.5
 31
0
 12
479.5837153422272
 22
32.5
 32
0
 13
479.5837153422272
 23
32.5
 33
0
  0
LINE
  5
195
100
AcDbEntity
  8
Abmessungen
  6
ByBlock
 62
    0
370
   -2
100
AcDbLine
 10
480
 20
20.625
 11
480
 21
35
  0
MTEXT
  5
196
100
AcDbEntity
  8
Abmessungen
  6
CONTINUOUS
 62
    0
370
   -2
100
AcDbMText
 10
480
 20
17.5
 30
0
 40
5
 41
11.66666666666729
 71
    5
 72
    1
  1
35.0
  7
standard
210
0
220
0
230
1
 50
0
 73
    2
 44
1
  0
LINE
  5
197
100
AcDbEntity
  8
Abmessungen
  6
ByBlock
 62
    0
370
   -2
100
AcDbLine
 10
450.625
 20
2.775557561562891e-16
 11
481.25
 21
7.66053886991358e-15
  0
LINE
  5
198
100
AcDbEntity
  8
Abmessungen
  6
ByBlock
 62
    0
370
   -2
100
AcDbLine
 10
450.625
 20
35
 11
481.25
 21
35
  0
ENDBLK
  5
B2
330
B0
100
AcDbEntity
  8
0
100
AcDbBlockEnd
  0
BLOCK
  5
B4
330
B3
100
AcDbEntity
  8
0
100
AcDbBlockBegin
  2
*D21
 70
    1
 10
0
 20
0
  3
*D21
  1

  0
LINE
  5
199
100
AcDbEntity
  8
Abmessungen
  6
ByBlock
 62
    0
370
   -2
100
AcDbLine
 10
243
 20
57
 11
268.2638888888887
 21
57
  0
SOLID
  5
19A
100
AcDbEntity
  8
Abmessungen
  6
ByBlock
 62
    0
370
   -2
100
AcDbTrace
 10
243
 20
57
 30
0
 11
245.5
 21
57.41628465777284
 31
0
 12
245.5
 22
56.58371534222716
 32
0
 13
245.5
 23
56.58371534222716
 33
0
  0
SOLID
  5
19B
100
AcDbEntity
  8
Abmessungen
  6
ByBlock
 62
    0
370
   -2
100
AcDbTrace
 10
307
 20
57
 30
0
 11
304.5
 21
56.58371534222716
 31
0
 12
304.5
 22
57.41628465777284
 32
0
 13
304.5
 23
57.41628465777284
 33
0
  0
LINE
  5
19C
100
AcDbEntity
  8
Abmessungen
  6
ByBlock
 62
    0
370
   -2
100
AcDbLine
 10
281.7361111111113
 20
57
 11
307
 21
57
  0
MTEXT
  5
19D
100
AcDbEntity
  8
Abmessungen
  6
CONTINUOUS
 62
    0
370
   -2
100
AcDbMText
 10
275
 20
57
 30
0
 40
5
 41
12.22222222222253
 71
    5
 72
    1
  1
64.0
  7
standard
210
0
220
0
230
1
 50
0
 73
    2
 44
1
  0
LINE
  5
19E
100
AcDbEntity
  8
Abmessungen
  6
ByBlock
 62
    0
370
   -2
100
AcDbLine
 10
243
 20
61.375
 11
243
 21
55.75
  0
LINE
  5
19F
100
AcDbEntity
  8
Abmessungen
  6
ByBlock
 62
    0
370
   -2
100
AcDbLine
 10
307
 20
61.375
 11
307
 21
55.75
  0
ENDBLK
  5
B5
330
B3
100
AcDbEntity
  8
0
100
AcDbBlockEnd
  0
BLOCK
  5
B7
330
B6
100
AcDbEntity
  8
0
100
AcDbBlockBegin
  2
*D9
 70
    1
 10
0
 20
0
  3
*D9
  1

  0
LINE
  5
1A0
100
AcDbEntity
  8
Platinen_Dim
  6
ByBlock
 62
    0
370
   -2
100
AcDbLine
 10
35
 20
80
 11
68.54166666666667
 21
80
  0
SOLID
  5
1A1
100
AcDbEntity
  8
Platinen_Dim
  6
ByBlock
 62
    0
370
   -2
100
AcDbTrace
 10
35
 20
80
 30
0
 11
37.5
 21
80.41628465777283
 31
0
 12
37.5
 22
79.58371534222717
 32
0
 13
37.5
 23
79.58371534222717
 33
0
  0
SOLID
  5
1A2
100
AcDbEntity
  8
Platinen_Dim
  6
ByBlock
 62
    0
370
   -2
100
AcDbTrace
 10
115
 20
80
 30
0
 11
112.5
 21
79.58371534222717
 31
0
 12
112.5
 22
80.41628465777283
 32
0
 13
112.5
 23
80.41628465777283
 33
0
  0
LINE
  5
1A3
100
AcDbEntity
  8
Platinen_Dim
  6
ByBlock
 62
    0
370
   -2
100
AcDbLine
 10
81.45833333333333
 20
80
 11
115
 21
80
  0
MTEXT
  5
1A4
100
AcDbEntity
  8
Platinen_Dim
  6
CONTINUOUS
 62
    0
370
   -2
100
AcDbMText
 10
75
 20
80
 30
0
 40
5
 41
11.66666666666667
 71
    5
 72
    1
  1
80.0
  7
standard
210
0
220
0
230
1
 50
0
 73
    2
 44
1
  0
LINE
  5
1A5
100
AcDbEntity
  8
Platinen_Dim
  6
ByBlock
 62
    0
370
   -2
100
AcDbLine
 10
35
 20
70.625
 11
35
 21
81.25
  0
LINE
  5
1A6
100
AcDbEntity
  8
Platinen_Dim
  6
ByBlock
 62
    0
370
   -2
100
AcDbLine
 10
115
 20
70.625
 11
115
 21
81.25
  0
ENDBLK
  5
B8
330
B6
100
AcDbEntity
  8
0
100
AcDbBlockEnd
  0
BLOCK
  5
BA
330
B9
100
AcDbEntity
  8
0
100
AcDbBlockBegin
  2
*D35
 70
    1
 10
0
 20
0
  3
*D35
  1

  0
LINE
  5
1A7
100
AcDbEntity
  8
Abmessungen
  6
ByBlock
 62
    0
370
   -2
100
AcDbLine
 10
219.5199224458043
 20
29.51992244580424
 11
230.4800775541957
 21
40.48007755419576
  0
SOLID
  5
1A8
100
AcDbEntity
  8
Abmessungen
  6
ByBlock
 62
    0
370
   -2
100
AcDbTrace
 10
223.055456351737
 20
33.05545635173699
 30
0
 11
221.5820471031857
 21
30.99333169435552
 31
0
 12
220.9933316943556
 22
31.58204710318571
 32
0
 13
220.9933316943556
 23
31.58204710318571
 33
0
  0
SOLID
  5
1A9
100
AcDbEntity
  8
Abmessungen
  6
ByBlock
 62
    0
370
   -2
100
AcDbTrace
 10
226.944543648263
 20
36.94454364826301
 30
0
 11
228.4179528968143
 21
39.00666830564447
 31
0
 12
229.0066683056445
 22
38.41795289681428
 32
0
 13
229.0066683056445
 23
38.41795289681428
 33
0
  0
MTEXT
  5
1AA
100
AcDbEntity
  8
Abmessungen
  6
CONTINUOUS
 62
    0
370
   -2
100
AcDbMText
 10
234.7638888888892
 20
32
 30
0
 40
5
 41
12.7777777777784
 71
    5
 72
    1
  1
%%C5.5
  7
standard
210
0
220
0
230
1
 50
0
 73
    2
 44
1
  0
ENDBLK
  5
BB
330
B9
100
AcDbEntity
  8
0
100
AcDbBlockEnd
  0
ENDSEC
  0
SECTION
  2
ENTITIES
  0
DIMENSION
  5
1AB
100
AcDbEntity
  8
Abmessungen
  6
ByLayer
 62
  256
370
   -1
100
AcDbDimension
  2
*D1
 10
450
 20
90
 30
0
 11
225
 21
90
 31
0
 70
   33
 71
    5
 72
    0
  3
Standard
 53
0
210
0
220
0
230
1
100
AcDbAlignedDimension
 13
0
 23
65
 33
0
 14
450
 24
65
 34
0
  0
DIMENSION
  5
1AC
100
AcDbEntity
  8
Abmessungen
  6
ByLayer
 62
  256
370
   -1
100
AcDbDimension
  2
*D2
 10
-25
 20
-1.4210854715202e-14
 30
0
 11
-25.00000000000001
 21
35.00000000000001
 31
0
 70
   33
 71
    5
 72
    0
  3
Standard
 53
0
210
0
220
0
230
1
100
AcDbAlignedDimension
 13
4.999999999999988
 23
70.00000000000001
 33
0
 14
5.000000000000004
 24
0
 34
0
  0
LINE
  5
1AD
100
AcDbEntity
  8
Abmessungen
  6
DIVIDE2
 62
  256
370
   -1
100
AcDbLine
 10
0
 20
62
 11
450
 21
62
  0
LINE
  5
1AE
100
AcDbEntity
  8
Abmessungen
  6
DIVIDE2
 62
  256
370
   -1
100
AcDbLine
 10
0
 20
35
 11
450
 21
35
  0
DIMENSION
  5
1AF
100
AcDbEntity
  8
Abmessungen
  6
CONTINUOUS
 62
  256
370
   -1
100
AcDbDimension
  2
*D3
 10
480
 20
34.99999999999999
 30
0
 11
480
 21
17.5
 31
0
 70
   32
 71
    5
 72
    0
  3
Standard
 53
0
210
0
220
0
230
1
100
AcDbAlignedDimension
 13
450
 23
0
 33
0
 14
450
 24
35
 34
0
 50
90
100
AcDbRotatedDimension
  0
DIMENSION
  5
1B0
100
AcDbEntity
  8
Abmessungen
  6
CONTINUOUS
 62
  256
370
   -1
100
AcDbDimension
  2
*D4
 10
490
 20
61.99999999999999
 30
0
 11
490
 21
31
 31
0
 70
   32
 71
    5
 72
    0
  3
Standard
 53
0
210
0
220
0
230
1
100
AcDbAlignedDimension
 13
450
 23
0
 33
0
 14
450
 24
62
 34
0
 50
90
100
AcDbRotatedDimension
  0
LWPOLYLINE
  5
1B1
100
AcDbEntity
  8
0
  6
ByLayer
 62
  256
370
   -1
100
AcDbPolyline
 90
    8
 70
    1
 43
0
 10
4.999999999999999
 20
0
 10
445
 20
0
 10
450
 20
5
 10
450
 20
65
 10
445
 20
70
 10
4.999999999999999
 20
70
 10
-1.77635683940025e-15
 20
65
 10
0
 20
5
  0
MTEXT
  5
1B2
100
AcDbEntity
  8
Abmessungen
  6
CONTINUOUS
 62
  256
370
   -1
100
AcDbMText
 10
0
 20
-15
 30
0
 40
5
 41
109.72222479366
 71
    1
 72
    1
  1
All holes %%C2.50mm, M3 threaded
  7
standard
210
0
220
0
230
1
 50
0
 73
    2
 44
1
  0
MTEXT
  5
1B3
100
AcDbEntity
  8
Abmessungen
  6
ByLayer
 62
  256
370
   -1
100
AcDbMText
 10
0.1388863174521973
 20
105
 30
0
 40
5
 41
30.41666923810358
 71
    1
 72
    1
  1
units: mm
  7
standard
210
0
220
0
230
1
 50
0
 73
    2
 44
1
  0
LINE
  5
1B4
100
AcDbEntity
  8
Platinen_Dim
  6
DIVIDE2
 62
  256
370
   -1
100
AcDbLine
 10
10
 20
62
 11
90
 21
62
  0
LWPOLYLINE
  5
1B5
100
AcDbEntity
  8
Platinen
  6
ByLayer
 62
  256
370
   -1
100
AcDbPolyline
 90
    4
 70
    1
 43
0
 10
135
 20
-30
 10
215
 20
-30
 10
215
 20
70
 10
135
 20
70
  0
CIRCLE
  5
1B6
100
AcDbEntity
  8
Platinen
  6
ByLayer
 62
  256
370
   -1
100
AcDbCircle
 10
143
 20
62
 40
1.6
  0
CIRCLE
  5
1B7
100
AcDbEntity
  8
Platinen
  6
ByLayer
 62
  256
370
   -1
100
AcDbCircle
 10
207
 20
62
 40
1.6
  0
LWPOLYLINE
  5
1B8
100
AcDbEntity
  8
Platinen
  6
ByLayer
 62
  256
370
   -1
100
AcDbPolyline
 90
    4
 70
    1
 43
0
 10
235
 20
-30
 10
315
 20
-30
 10
315
 20
70
 10
235
 20
70
  0
CIRCLE
  5
1B9
100
AcDbEntity
  8
Platinen
  6
ByLayer
 62
  256
370
   -1
100
AcDbCircle
 10
243
 20
62
 40
1.6
  0
CIRCLE
  5
1BA
100
AcDbEntity
  8
Platinen
  6
ByLayer
 62
  256
370
   -1
100
AcDbCircle
 10
307
 20
62
 40
1.6
  0
LWPOLYLINE
  5
1BB
100
AcDbEntity
  8
Platinen
  6
ByLayer
 62
  256
370
   -1
100
AcDbPolyline
 90
    4
 70
    1
 43
0
 10
335
 20
-30
 10
415
 20
-30
 10
415
 20
70
 10
335
 20
70
  0
CIRCLE
  5
1BC
100
AcDbEntity
  8
Platinen
  6
ByLayer
 62
  256
370
   -1
100
AcDbCircle
 10
343
 20
62
 40
1.6
  0
CIRCLE
  5
1BD
100
AcDbEntity
  8
Platinen
  6
ByLayer
 62
  256
370
   -1
100
AcDbCircle
 10
407
 20
62
 40
1.6
  0
LWPOLYLINE
  5
1BE
100
AcDbEntity
  8
Platinen
  6
ByLayer
 62
  256
370
   -1
100
AcDbPolyline
 90
    4
 70
    1
 43
0
 10
35
 20
-30
 10
115
 20
-30
 10
115
 20
70
 10
35
 20
70
  0
CIRCLE
  5
1BF
100
AcDbEntity
  8
Platinen
  6
ByLayer
 62
  256
370
   -1
100
AcDbCircle
 10
43
 20
62
 40
1.6
  0
CIRCLE
  5
1C0
100
AcDbEntity
  8
Platinen
  6
ByLayer
 62
  256
370
   -1
100
AcDbCircle
 10
107
 20
62
 40
1.6
  0
CIRCLE
  5
1C1
100
AcDbEntity
  8
Platinen
  6
ByLayer
 62
  256
370
   -1
100
AcDbCircle
 10
375
 20
8
 40
1.6
  0
CIRCLE
  5
1C2
100
AcDbEntity
  8
Platinen
  6
ByLayer
 62
  256
370
   -1
100
AcDbCircle
 10
275
 20
8
 40
1.6
  0
CIRCLE
  5
1C3
100
AcDbEntity
  8
Platinen
  6
ByLayer
 62
  256
370
   -1
100
AcDbCircle
 10
175
 20
8
 40
1.6
  0
CIRCLE
  5
1C4
100
AcDbEntity
  8
Platinen
  6
ByLayer
 62
  256
370
   -1
100
AcDbCircle
 10
75
 20
8
 40
1.6
  0
LINE
  5
1C5
100
AcDbEntity
  8
Platinen_Dim
  6
DIVIDE2
 62
  256
370
   -1
100
AcDbLine
 10
-16
 20
8
 11
64
 21
8
  0
DIMENSION
  5
1C6
100
AcDbEntity
  8
Platinen_Dim
  6
ByLayer
 62
  256
370
   -1
100
AcDbDimension
  2
*D5
 10
43
 20
57
 30
0
 11
39
 21
57
 31
0
 70
   32
 71
    5
  3
Standard
 53
0
210
0
220
0
230
1
100
AcDbAlignedDimension
 13
35
 23
62
 33
0
 14
43
 24
62
 34
0
100
AcDbRotatedDimension
  0
DIMENSION
  5
1C7
100
AcDbEntity
  8
Platinen_Dim
  6
ByLayer
 62
  256
370
   -1
100
AcDbDimension
  2
*D6
 10
107
 20
57
 30
0
 11
75
 21
57
 31
0
 70
   32
 71
    5
  3
Standard
 53
0
210
0
220
0
230
1
100
AcDbAlignedDimension
 13
43
 23
62
 33
0
 14
107
 24
62
 34
0
100
AcDbRotatedDimension
  0
DIMENSION
  5
1C8
100
AcDbEntity
  8
Platinen_Dim
  6
ByLayer
 62
  256
370
   -1
100
AcDbDimension
  2
*D7
 10
115
 20
57
 30
0
 11
111
 21
57
 31
0
 70
   32
 71
    5
  3
Standard
 53
0
210
0
220
0
230
1
100
AcDbAlignedDimension
 13
107
 23
62
 33
0
 14
115
 24
62
 34
0
100
AcDbRotatedDimension
  0
DIMENSION
  5
1C9
100
AcDbEntity
  8
Platinen_Dim
  6
ByLayer
 62
  256
370
   -1
100
AcDbDimension
  2
*D8
 10
75
 20
13
 30
0
 11
55
 21
13
 31
0
 70
   32
 71
    5
  3
Standard
 53
0
210
0
220
0
230
1
100
AcDbAlignedDimension
 13
35
 23
8
 33
0
 14
75
 24
8
 34
0
100
AcDbRotatedDimension
  0
DIMENSION
  5
1CA
100
AcDbEntity
  8
Platinen_Dim
  6
ByLayer
 62
  256
370
   -1
100
AcDbDimension
  2
*D9
 10
115
 20
80
 30
0
 11
75
 21
80
 31
0
 70
   32
 71
    5
  3
Standard
 53
0
210
0
220
0
230
1
100
AcDbAlignedDimension
 13
35
 23
70
 33
0
 14
115
 24
70
 34
0
100
AcDbRotatedDimension
  0
DIMENSION
  5
1CB
100
AcDbEntity
  8
Platinen_Dim
  6
ByLayer
 62
  256
370
   -1
100
AcDbDimension
  2
*D10
 10
30
 20
62
 30
0
 11
30
 21
16
 31
0
 70
   32
 71
    5
  3
Standard
 53
0
210
0
220
0
230
1
100
AcDbAlignedDimension
 13
35
 23
-30
 33
0
 14
35
 24
62
 34
0
 50
90
100
AcDbRotatedDimension
  0
DIMENSION
  5
1CC
100
AcDbEntity
  8
Platinen_Dim
  6
ByLayer
 62
  256
370
   -1
100
AcDbDimension
  2
*D11
 10
20
 20
13
 30
0
 11
20
 21
-8.5
 31
0
 70
   32
 71
    5
  3
Standard
 53
0
210
0
220
0
230
1
100
AcDbAlignedDimension
 13
35
 23
-30
 33
0
 14
35
 24
13
 34
0
 50
90
100
AcDbRotatedDimension
  0
DIMENSION
  5
1CD
100
AcDbEntity
  8
Platinen_Dim
  6
ByLayer
 62
  256
370
   -1
100
AcDbDimension
  2
*D12
 10
122
 20
7.999999999999999
 30
0
 11
122
 21
35
 31
0
 70
   32
 71
    5
  3
Standard
 53
0
210
0
220
0
230
1
100
AcDbAlignedDimension
 13
115
 23
62
 33
0
 14
115
 24
8
 34
0
 50
90
100
AcDbRotatedDimension
  0
DIMENSION
  5
1CE
100
AcDbEntity
  8
Platinen_Dim
  6
ByLayer
 62
  256
370
   -1
100
AcDbDimension
  2
*D13
 10
130
 20
-30
 30
0
 11
130
 21
20
 31
0
 70
   32
 71
    5
  3
Standard
 53
0
210
0
220
0
230
1
100
AcDbAlignedDimension
 13
115
 23
70
 33
0
 14
115
 24
-30
 34
0
 50
90
100
AcDbRotatedDimension
  0
CIRCLE
  5
1CF
100
AcDbEntity
  8
0
  6
ByLayer
 62
  256
370
   -1
100
AcDbCircle
 10
43
 20
62
 40
1.25
  0
CIRCLE
  5
1D0
100
AcDbEntity
  8
0
  6
ByLayer
 62
  256
370
   -1
100
AcDbCircle
 10
107
 20
62
 40
1.25
  0
CIRCLE
  5
1D1
100
AcDbEntity
  8
0
  6
ByLayer
 62
  256
370
   -1
100
AcDbCircle
 10
143
 20
62
 40
1.25
  0
CIRCLE
  5
1D2
100
AcDbEntity
  8
0
  6
ByLayer
 62
  256
370
   -1
100
AcDbCircle
 10
207
 20
62
 40
1.25
  0
CIRCLE
  5
1D3
100
AcDbEntity
  8
0
  6
ByLayer
 62
  256
370
   -1
100
AcDbCircle
 10
243
 20
62
 40
1.25
  0
CIRCLE
  5
1D4
100
AcDbEntity
  8
0
  6
ByLayer
 62
  256
370
   -1
100
AcDbCircle
 10
307
 20
62
 40
1.25
  0
CIRCLE
  5
1D5
100
AcDbEntity
  8
0
  6
ByLayer
 62
  256
370
   -1
100
AcDbCircle
 10
343
 20
62
 40
1.25
  0
CIRCLE
  5
1D6
100
AcDbEntity
  8
0
  6
ByLayer
 62
  256
370
   -1
100
AcDbCircle
 10
407
 20
62
 40
1.25
  0
CIRCLE
  5
1D7
100
AcDbEntity
  8
0
  6
ByLayer
 62
  256
370
   -1
100
AcDbCircle
 10
375
 20
8
 40
1.25
  0
CIRCLE
  5
1D8
100
AcDbEntity
  8
0
  6
ByLayer
 62
  256
370
   -1
100
AcDbCircle
 10
275
 20
8
 40
1.25
  0
CIRCLE
  5
1D9
100
AcDbEntity
  8
0
  6
ByLayer
 62
  256
370
   -1
100
AcDbCircle
 10
175
 20
8
 40
1.25
  0
CIRCLE
  5
1DA
100
AcDbEntity
  8
0
  6
ByLayer
 62
  256
370
   -1
100
AcDbCircle
 10
75
 20
8
 40
1.25
  0
LINE
  5
1DB
100
AcDbEntity
  8
Abmessungen
  6
DIVIDE2
 62
  256
370
   -1
100
AcDbLine
 10
0
 20
8
 11
450
 21
8
  0
DIMENSION
  5
1DC
100
AcDbEntity
  8
Abmessungen
  6
ByLayer
 62
  256
370
   -1
100
AcDbDimension
  2
*D14
 10
470
 20
-2.449293598294707e-15
 30
0
 11
470
 21
4.000000000000001
 31
0
 70
   32
 71
    5
  3
Standard
 53
0
210
0
220
0
230
1
100
AcDbAlignedDimension
 13
450
 23
8
 33
0
 14
450
 24
0
 34
0
 50
90
100
AcDbRotatedDimension
  0
DIMENSION
  5
1DD
100
AcDbEntity
  8
Abmessungen
  6
ByLayer
 62
  256
370
   -1
100
AcDbDimension
  2
*D15
 10
490
 20
61.99999999999999
 30
0
 11
490
 21
66
 31
0
 70
   32
 71
    5
  3
Standard
 53
0
210
0
220
0
230
1
100
AcDbAlignedDimension
 13
450
 23
70
 33
0
 14
450
 24
62
 34
0
 50
90
100
AcDbRotatedDimension
  0
DIMENSION
  5
1DE
100
AcDbEntity
  8
Abmessungen
  6
ByLayer
 62
  256
370
   -1
100
AcDbDimension
  2
*D16
 10
43
 20
57
 30
0
 11
21.5
 21
57
 31
0
 70
   32
 71
    5
  3
Standard
 53
0
210
0
220
0
230
1
100
AcDbAlignedDimension
 13
0
 23
62
 33
0
 14
43
 24
62
 34
0
100
AcDbRotatedDimension
  0
DIMENSION
  5
1DF
100
AcDbEntity
  8
Abmessungen
  6
ByLayer
 62
  256
370
   -1
100
AcDbDimension
  2
*D17
 10
107
 20
57
 30
0
 11
75
 21
57
 31
0
 70
   32
 71
    5
  3
Standard
 53
0
210
0
220
0
230
1
100
AcDbAlignedDimension
 13
43
 23
62
 33
0
 14
107
 24
62
 34
0
100
AcDbRotatedDimension
  0
DIMENSION
  5
1E0
100
AcDbEntity
  8
Abmessungen
  6
ByLayer
 62
  256
370
   -1
100
AcDbDimension
  2
*D18
 10
143
 20
57
 30
0
 11
125
 21
57
 31
0
 70
   32
 71
    5
  3
Standard
 53
0
210
0
220
0
230
1
100
AcDbAlignedDimension
 13
107
 23
62
 33
0
 14
143
 24
62
 34
0
100
AcDbRotatedDimension
  0
DIMENSION
  5
1E1
100
AcDbEntity
  8
Abmessungen
  6
ByLayer
 62
  256
370
   -1
100
AcDbDimension
  2
*D19
 10
207
 20
57
 30
0
 11
175
 21
57
 31
0
 70
   32
 71
    5
  3
Standard
 53
0
210
0
220
0
230
1
100
AcDbAlignedDimension
 13
143
 23
62
 33
0
 14
207
 24
62
 34
0
100
AcDbRotatedDimension
  0
DIMENSION
  5
1E2
100
AcDbEntity
  8
Abmessungen
  6
ByLayer
 62
  256
370
   -1
100
AcDbDimension
  2
*D20
 10
243
 20
57
 30
0
 11
225
 21
57
 31
0
 70
   32
 71
    5
  3
Standard
 53
0
210
0
220
0
230
1
100
AcDbAlignedDimension
 13
207
 23
62
 33
0
 14
243
 24
62
 34
0
100
AcDbRotatedDimension
  0
DIMENSION
  5
1E3
100
AcDbEntity
  8
Abmessungen
  6
ByLayer
 62
  256
370
   -1
100
AcDbDimension
  2
*D21
 10
307
 20
57
 30
0
 11
275
 21
57
 31
0
 70
   32
 71
    5
  3
Standard
 53
0
210
0
220
0
230
1
100
AcDbAlignedDimension
 13
243
 23
62
 33
0
 14
307
 24
62
 34
0
100
AcDbRotatedDimension
  0
DIMENSION
  5
1E4
100
AcDbEntity
  8
Abmessungen
  6
ByLayer
 62
  256
370
   -1
100
AcDbDimension
  2
*D22
 10
343
 20
57
 30
0
 11
325
 21
57
 31
0
 70
   32
 71
    5
  3
Standard
 53
0
210
0
220
0
230
1
100
AcDbAlignedDimension
 13
307
 23
62
 33
0
 14
343
 24
62
 34
0
100
AcDbRotatedDimension
  0
DIMENSION
  5
1E5
100
AcDbEntity
  8
Abmessungen
  6
ByLayer
 62
  256
370
   -1
100
AcDbDimension
  2
*D23
 10
407
 20
57
 30
0
 11
375
 21
57
 31
0
 70
   32
 71
    5
  3
Standard
 53
0
210
0
220
0
230
1
100
AcDbAlignedDimension
 13
343
 23
62
 33
0
 14
407
 24
62
 34
0
100
AcDbRotatedDimension
  0
DIMENSION
  5
1E6
100
AcDbEntity
  8
Abmessungen
  6
ByLayer
 62
  256
370
   -1
100
AcDbDimension
  2
*D24
 10
450
 20
57
 30
0
 11
428.5
 21
57
 31
0
 70
   32
 71
    5
  3
Standard
 53
0
210
0
220
0
230
1
100
AcDbAlignedDimension
 13
407
 23
62
 33
0
 14
450
 24
62
 34
0
100
AcDbRotatedDimension
  0
DIMENSION
  5
1E7
100
AcDbEntity
  8
Abmessungen
  6
ByLayer
 62
  256
370
   -1
100
AcDbDimension
  2
*D25
 10
75
 20
13
 30
0
 11
37.5
 21
13
 31
0
 70
   32
 71
    5
  3
Standard
 53
0
210
0
220
0
230
1
100
AcDbAlignedDimension
 13
0
 23
8
 33
0
 14
75
 24
8
 34
0
100
AcDbRotatedDimension
  0
DIMENSION
  5
1E8
100
AcDbEntity
  8
Abmessungen
  6
ByLayer
 62
  256
370
   -1
100
AcDbDimension
  2
*D26
 10
175
 20
13
 30
0
 11
125
 21
13
 31
0
 70
   32
 71
    5
  3
Standard
 53
0
210
0
220
0
230
1
100
AcDbAlignedDimension
 13
75
 23
8
 33
0
 14
175
 24
8
 34
0
100
AcDbRotatedDimension
  0
DIMENSION
  5
1E9
100
AcDbEntity
  8
Abmessungen
  6
ByLayer
 62
  256
370
   -1
100
AcDbDimension
  2
*D27
 10
275
 20
13
 30
0
 11
225
 21
13
 31
0
 70
   32
 71
    5
  3
Standard
 53
0
210
0
220
0
230
1
100
AcDbAlignedDimension
 13
175
 23
8
 33
0
 14
275
 24
8
 34
0
100
AcDbRotatedDimension
  0
DIMENSION
  5
1EA
100
AcDbEntity
  8
Abmessungen
  6
ByLayer
 62
  256
370
   -1
100
AcDbDimension
  2
*D28
 10
375
 20
13
 30
0
 11
325
 21
13
 31
0
 70
   32
 71
    5
  3
Standard
 53
0
210
0
220
0
230
1
100
AcDbAlignedDimension
 13
275
 23
8
 33
0
 14
375
 24
8
 34
0
100
AcDbRotatedDimension
  0
DIMENSION
  5
1EB
100
AcDbEntity
  8
Abmessungen
  6
ByLayer
 62
  256
370
   -1
100
AcDbDimension
  2
*D29
 10
450
 20
13
 30
0
 11
412.5
 21
13
 31
0
 70
   32
 71
    5
  3
Standard
 53
0
210
0
220
0
230
1
100
AcDbAlignedDimension
 13
375
 23
8
 33
0
 14
450
 24
8
 34
0
100
AcDbRotatedDimension
  0
DIMENSION
  5
1EC
100
AcDbEntity
  8
Abmessungen
  6
ByLayer
 62
  256
370
   -1
100
AcDbDimension
  2
*D30
 10
3.061616997868383e-16
 20
40
 30
0
 11
112.5
 21
40
 31
0
 70
   32
 71
    5
  3
Standard
 53
0
210
0
220
0
230
1
100
AcDbAlignedDimension
 13
225
 23
35
 33
0
 14
0
 24
35
 34
0
100
AcDbRotatedDimension
  0
DIMENSION
  5
1ED
100
AcDbEntity
  8
Abmessungen
  6
ByLayer
 62
  256
370
   -1
100
AcDbDimension
  2
*D31
 10
450
 20
40
 30
0
 11
337.5
 21
40
 31
0
 70
   32
 71
    5
  3
Standard
 53
0
210
0
220
0
230
1
100
AcDbAlignedDimension
 13
225
 23
35
 33
0
 14
450
 24
35
 34
0
100
AcDbRotatedDimension
  0
DIMENSION
  5
1EE
100
AcDbEntity
  8
Abmessungen
  6
ByLayer
 62
  256
370
   -1
100
AcDbDimension
  2
*D32
 10
450
 20
30
 30
0
 11
444
 21
26
 31
0
 70
   32
 71
    5
  3
Standard
 53
0
210
0
220
0
230
1
100
AcDbAlignedDimension
 13
438
 23
35
 33
0
 14
450
 24
35
 34
0
100
AcDbRotatedDimension
  0
DIMENSION
  5
1EF
100
AcDbEntity
  8
Abmessungen
  6
ByLayer
 62
  256
370
   -1
100
AcDbDimension
  2
*D33
 10
12
 20
30
 30
0
 11
6
 21
26
 31
0
 70
   32
 71
    5
  3
Standard
 53
0
210
0
220
0
230
1
100
AcDbAlignedDimension
 13
0
 23
35
 33
0
 14
12
 24
35
 34
0
100
AcDbRotatedDimension
  0
CIRCLE
  5
1F0
100
AcDbEntity
  8
0
  6
ByLayer
 62
  256
370
   -1
100
AcDbCircle
 10
438
 20
35
 40
2.75
  0
CIRCLE
  5
1F1
100
AcDbEntity
  8
0
  6
ByLayer
 62
  256
370
   -1
100
AcDbCircle
 10
225
 20
35
 40
2.75
  0
CIRCLE
  5
1F2
100
AcDbEntity
  8
0
  6
ByLayer
 62
  256
370
   -1
100
AcDbCircle
 10
12
 20
35
 40
2.75
  0
DIMENSION
  5
1F3
100
AcDbEntity
  8
Abmessungen
  6
ByLayer
 62
  256
370
   -1
100
AcDbDimension
  2
*D34
 10
436.055456351737
 20
33.05545635173699
 30
0
 11
415
 21
32
 31
0
 70
   35
  1
%%C<>
 71
    5
  3
Standard
 53
0
210
0
220
0
230
1
100
AcDbDiametricDimension
 15
439.944543648263
 25
36.94454364826301
 35
0
 40
0
  0
DIMENSION
  5
1F4
100
AcDbEntity
  8
Abmessungen
  6
ByLayer
 62
  256
370
   -1
100
AcDbDimension
  2
*D35
 10
223.055456351737
 20
33.05545635173699
 30
0
 11
225
 21
32
 31
0
 70
   35
  1
%%C<>
 71
    5
  3
Standard
 53
0
210
0
220
0
230
1
100
AcDbDiametricDimension
 15
226.944543648263
 25
36.94454364826301
 35
0
 40
0
  0
DIMENSION
  5
1F5
100
AcDbEntity
  8
Abmessungen
  6
ByLayer
 62
  256
370
   -1
100
AcDbDimension
  2
*D36
 10
10.05545635173699
 20
33.05545635173699
 30
0
 11
12
 21
32
 31
0
 70
   35
  1
%%C<>
 71
    5
  3
Standard
 53
0
210
0
220
0
230
1
100
AcDbDiametricDimension
 15
13.94454364826301
 25
36.94454364826301
 35
0
 40
0
  0
ENDSEC
  0
SECTION
  2
OBJECTS
  0
DICTIONARY
  5
C
330
0
100
AcDbDictionary
281
    1
  3
ACAD_GROUP
350
D
  0
DICTIONARY
  5
D
330
C
100
AcDbDictionary
281
    1
  0
ENDSEC
  0
EOF
