G75*
%MOIN*%
%OFA0B0*%
%FSLAX25Y25*%
%IPPOS*%
%LPD*%
%AMOC8*
5,1,8,0,0,1.08239X$1,22.5*
%
%ADD10C,0.00000*%
%ADD11C,0.00400*%
%ADD12C,0.00800*%
%ADD13C,0.00063*%
D10*
X0032595Y0025183D02*
X0032595Y0338175D01*
X0424327Y0338175D01*
X0424327Y0025183D01*
X0032595Y0025183D01*
X0057792Y0056679D02*
X0057794Y0056837D01*
X0057800Y0056995D01*
X0057810Y0057153D01*
X0057824Y0057311D01*
X0057842Y0057468D01*
X0057863Y0057625D01*
X0057889Y0057781D01*
X0057919Y0057937D01*
X0057952Y0058092D01*
X0057990Y0058245D01*
X0058031Y0058398D01*
X0058076Y0058550D01*
X0058125Y0058701D01*
X0058178Y0058850D01*
X0058234Y0058998D01*
X0058294Y0059144D01*
X0058358Y0059289D01*
X0058426Y0059432D01*
X0058497Y0059574D01*
X0058571Y0059714D01*
X0058649Y0059851D01*
X0058731Y0059987D01*
X0058815Y0060121D01*
X0058904Y0060252D01*
X0058995Y0060381D01*
X0059090Y0060508D01*
X0059187Y0060633D01*
X0059288Y0060755D01*
X0059392Y0060874D01*
X0059499Y0060991D01*
X0059609Y0061105D01*
X0059722Y0061216D01*
X0059837Y0061325D01*
X0059955Y0061430D01*
X0060076Y0061532D01*
X0060199Y0061632D01*
X0060325Y0061728D01*
X0060453Y0061821D01*
X0060583Y0061911D01*
X0060716Y0061997D01*
X0060851Y0062081D01*
X0060987Y0062160D01*
X0061126Y0062237D01*
X0061267Y0062309D01*
X0061409Y0062379D01*
X0061553Y0062444D01*
X0061699Y0062506D01*
X0061846Y0062564D01*
X0061995Y0062619D01*
X0062145Y0062670D01*
X0062296Y0062717D01*
X0062448Y0062760D01*
X0062601Y0062799D01*
X0062756Y0062835D01*
X0062911Y0062866D01*
X0063067Y0062894D01*
X0063223Y0062918D01*
X0063380Y0062938D01*
X0063538Y0062954D01*
X0063695Y0062966D01*
X0063854Y0062974D01*
X0064012Y0062978D01*
X0064170Y0062978D01*
X0064328Y0062974D01*
X0064487Y0062966D01*
X0064644Y0062954D01*
X0064802Y0062938D01*
X0064959Y0062918D01*
X0065115Y0062894D01*
X0065271Y0062866D01*
X0065426Y0062835D01*
X0065581Y0062799D01*
X0065734Y0062760D01*
X0065886Y0062717D01*
X0066037Y0062670D01*
X0066187Y0062619D01*
X0066336Y0062564D01*
X0066483Y0062506D01*
X0066629Y0062444D01*
X0066773Y0062379D01*
X0066915Y0062309D01*
X0067056Y0062237D01*
X0067195Y0062160D01*
X0067331Y0062081D01*
X0067466Y0061997D01*
X0067599Y0061911D01*
X0067729Y0061821D01*
X0067857Y0061728D01*
X0067983Y0061632D01*
X0068106Y0061532D01*
X0068227Y0061430D01*
X0068345Y0061325D01*
X0068460Y0061216D01*
X0068573Y0061105D01*
X0068683Y0060991D01*
X0068790Y0060874D01*
X0068894Y0060755D01*
X0068995Y0060633D01*
X0069092Y0060508D01*
X0069187Y0060381D01*
X0069278Y0060252D01*
X0069367Y0060121D01*
X0069451Y0059987D01*
X0069533Y0059851D01*
X0069611Y0059714D01*
X0069685Y0059574D01*
X0069756Y0059432D01*
X0069824Y0059289D01*
X0069888Y0059144D01*
X0069948Y0058998D01*
X0070004Y0058850D01*
X0070057Y0058701D01*
X0070106Y0058550D01*
X0070151Y0058398D01*
X0070192Y0058245D01*
X0070230Y0058092D01*
X0070263Y0057937D01*
X0070293Y0057781D01*
X0070319Y0057625D01*
X0070340Y0057468D01*
X0070358Y0057311D01*
X0070372Y0057153D01*
X0070382Y0056995D01*
X0070388Y0056837D01*
X0070390Y0056679D01*
X0070388Y0056521D01*
X0070382Y0056363D01*
X0070372Y0056205D01*
X0070358Y0056047D01*
X0070340Y0055890D01*
X0070319Y0055733D01*
X0070293Y0055577D01*
X0070263Y0055421D01*
X0070230Y0055266D01*
X0070192Y0055113D01*
X0070151Y0054960D01*
X0070106Y0054808D01*
X0070057Y0054657D01*
X0070004Y0054508D01*
X0069948Y0054360D01*
X0069888Y0054214D01*
X0069824Y0054069D01*
X0069756Y0053926D01*
X0069685Y0053784D01*
X0069611Y0053644D01*
X0069533Y0053507D01*
X0069451Y0053371D01*
X0069367Y0053237D01*
X0069278Y0053106D01*
X0069187Y0052977D01*
X0069092Y0052850D01*
X0068995Y0052725D01*
X0068894Y0052603D01*
X0068790Y0052484D01*
X0068683Y0052367D01*
X0068573Y0052253D01*
X0068460Y0052142D01*
X0068345Y0052033D01*
X0068227Y0051928D01*
X0068106Y0051826D01*
X0067983Y0051726D01*
X0067857Y0051630D01*
X0067729Y0051537D01*
X0067599Y0051447D01*
X0067466Y0051361D01*
X0067331Y0051277D01*
X0067195Y0051198D01*
X0067056Y0051121D01*
X0066915Y0051049D01*
X0066773Y0050979D01*
X0066629Y0050914D01*
X0066483Y0050852D01*
X0066336Y0050794D01*
X0066187Y0050739D01*
X0066037Y0050688D01*
X0065886Y0050641D01*
X0065734Y0050598D01*
X0065581Y0050559D01*
X0065426Y0050523D01*
X0065271Y0050492D01*
X0065115Y0050464D01*
X0064959Y0050440D01*
X0064802Y0050420D01*
X0064644Y0050404D01*
X0064487Y0050392D01*
X0064328Y0050384D01*
X0064170Y0050380D01*
X0064012Y0050380D01*
X0063854Y0050384D01*
X0063695Y0050392D01*
X0063538Y0050404D01*
X0063380Y0050420D01*
X0063223Y0050440D01*
X0063067Y0050464D01*
X0062911Y0050492D01*
X0062756Y0050523D01*
X0062601Y0050559D01*
X0062448Y0050598D01*
X0062296Y0050641D01*
X0062145Y0050688D01*
X0061995Y0050739D01*
X0061846Y0050794D01*
X0061699Y0050852D01*
X0061553Y0050914D01*
X0061409Y0050979D01*
X0061267Y0051049D01*
X0061126Y0051121D01*
X0060987Y0051198D01*
X0060851Y0051277D01*
X0060716Y0051361D01*
X0060583Y0051447D01*
X0060453Y0051537D01*
X0060325Y0051630D01*
X0060199Y0051726D01*
X0060076Y0051826D01*
X0059955Y0051928D01*
X0059837Y0052033D01*
X0059722Y0052142D01*
X0059609Y0052253D01*
X0059499Y0052367D01*
X0059392Y0052484D01*
X0059288Y0052603D01*
X0059187Y0052725D01*
X0059090Y0052850D01*
X0058995Y0052977D01*
X0058904Y0053106D01*
X0058815Y0053237D01*
X0058731Y0053371D01*
X0058649Y0053507D01*
X0058571Y0053644D01*
X0058497Y0053784D01*
X0058426Y0053926D01*
X0058358Y0054069D01*
X0058294Y0054214D01*
X0058234Y0054360D01*
X0058178Y0054508D01*
X0058125Y0054657D01*
X0058076Y0054808D01*
X0058031Y0054960D01*
X0057990Y0055113D01*
X0057952Y0055266D01*
X0057919Y0055421D01*
X0057889Y0055577D01*
X0057863Y0055733D01*
X0057842Y0055890D01*
X0057824Y0056047D01*
X0057810Y0056205D01*
X0057800Y0056363D01*
X0057794Y0056521D01*
X0057792Y0056679D01*
X0278265Y0182663D02*
X0278267Y0182821D01*
X0278273Y0182979D01*
X0278283Y0183137D01*
X0278297Y0183295D01*
X0278315Y0183452D01*
X0278336Y0183609D01*
X0278362Y0183765D01*
X0278392Y0183921D01*
X0278425Y0184076D01*
X0278463Y0184229D01*
X0278504Y0184382D01*
X0278549Y0184534D01*
X0278598Y0184685D01*
X0278651Y0184834D01*
X0278707Y0184982D01*
X0278767Y0185128D01*
X0278831Y0185273D01*
X0278899Y0185416D01*
X0278970Y0185558D01*
X0279044Y0185698D01*
X0279122Y0185835D01*
X0279204Y0185971D01*
X0279288Y0186105D01*
X0279377Y0186236D01*
X0279468Y0186365D01*
X0279563Y0186492D01*
X0279660Y0186617D01*
X0279761Y0186739D01*
X0279865Y0186858D01*
X0279972Y0186975D01*
X0280082Y0187089D01*
X0280195Y0187200D01*
X0280310Y0187309D01*
X0280428Y0187414D01*
X0280549Y0187516D01*
X0280672Y0187616D01*
X0280798Y0187712D01*
X0280926Y0187805D01*
X0281056Y0187895D01*
X0281189Y0187981D01*
X0281324Y0188065D01*
X0281460Y0188144D01*
X0281599Y0188221D01*
X0281740Y0188293D01*
X0281882Y0188363D01*
X0282026Y0188428D01*
X0282172Y0188490D01*
X0282319Y0188548D01*
X0282468Y0188603D01*
X0282618Y0188654D01*
X0282769Y0188701D01*
X0282921Y0188744D01*
X0283074Y0188783D01*
X0283229Y0188819D01*
X0283384Y0188850D01*
X0283540Y0188878D01*
X0283696Y0188902D01*
X0283853Y0188922D01*
X0284011Y0188938D01*
X0284168Y0188950D01*
X0284327Y0188958D01*
X0284485Y0188962D01*
X0284643Y0188962D01*
X0284801Y0188958D01*
X0284960Y0188950D01*
X0285117Y0188938D01*
X0285275Y0188922D01*
X0285432Y0188902D01*
X0285588Y0188878D01*
X0285744Y0188850D01*
X0285899Y0188819D01*
X0286054Y0188783D01*
X0286207Y0188744D01*
X0286359Y0188701D01*
X0286510Y0188654D01*
X0286660Y0188603D01*
X0286809Y0188548D01*
X0286956Y0188490D01*
X0287102Y0188428D01*
X0287246Y0188363D01*
X0287388Y0188293D01*
X0287529Y0188221D01*
X0287668Y0188144D01*
X0287804Y0188065D01*
X0287939Y0187981D01*
X0288072Y0187895D01*
X0288202Y0187805D01*
X0288330Y0187712D01*
X0288456Y0187616D01*
X0288579Y0187516D01*
X0288700Y0187414D01*
X0288818Y0187309D01*
X0288933Y0187200D01*
X0289046Y0187089D01*
X0289156Y0186975D01*
X0289263Y0186858D01*
X0289367Y0186739D01*
X0289468Y0186617D01*
X0289565Y0186492D01*
X0289660Y0186365D01*
X0289751Y0186236D01*
X0289840Y0186105D01*
X0289924Y0185971D01*
X0290006Y0185835D01*
X0290084Y0185698D01*
X0290158Y0185558D01*
X0290229Y0185416D01*
X0290297Y0185273D01*
X0290361Y0185128D01*
X0290421Y0184982D01*
X0290477Y0184834D01*
X0290530Y0184685D01*
X0290579Y0184534D01*
X0290624Y0184382D01*
X0290665Y0184229D01*
X0290703Y0184076D01*
X0290736Y0183921D01*
X0290766Y0183765D01*
X0290792Y0183609D01*
X0290813Y0183452D01*
X0290831Y0183295D01*
X0290845Y0183137D01*
X0290855Y0182979D01*
X0290861Y0182821D01*
X0290863Y0182663D01*
X0290861Y0182505D01*
X0290855Y0182347D01*
X0290845Y0182189D01*
X0290831Y0182031D01*
X0290813Y0181874D01*
X0290792Y0181717D01*
X0290766Y0181561D01*
X0290736Y0181405D01*
X0290703Y0181250D01*
X0290665Y0181097D01*
X0290624Y0180944D01*
X0290579Y0180792D01*
X0290530Y0180641D01*
X0290477Y0180492D01*
X0290421Y0180344D01*
X0290361Y0180198D01*
X0290297Y0180053D01*
X0290229Y0179910D01*
X0290158Y0179768D01*
X0290084Y0179628D01*
X0290006Y0179491D01*
X0289924Y0179355D01*
X0289840Y0179221D01*
X0289751Y0179090D01*
X0289660Y0178961D01*
X0289565Y0178834D01*
X0289468Y0178709D01*
X0289367Y0178587D01*
X0289263Y0178468D01*
X0289156Y0178351D01*
X0289046Y0178237D01*
X0288933Y0178126D01*
X0288818Y0178017D01*
X0288700Y0177912D01*
X0288579Y0177810D01*
X0288456Y0177710D01*
X0288330Y0177614D01*
X0288202Y0177521D01*
X0288072Y0177431D01*
X0287939Y0177345D01*
X0287804Y0177261D01*
X0287668Y0177182D01*
X0287529Y0177105D01*
X0287388Y0177033D01*
X0287246Y0176963D01*
X0287102Y0176898D01*
X0286956Y0176836D01*
X0286809Y0176778D01*
X0286660Y0176723D01*
X0286510Y0176672D01*
X0286359Y0176625D01*
X0286207Y0176582D01*
X0286054Y0176543D01*
X0285899Y0176507D01*
X0285744Y0176476D01*
X0285588Y0176448D01*
X0285432Y0176424D01*
X0285275Y0176404D01*
X0285117Y0176388D01*
X0284960Y0176376D01*
X0284801Y0176368D01*
X0284643Y0176364D01*
X0284485Y0176364D01*
X0284327Y0176368D01*
X0284168Y0176376D01*
X0284011Y0176388D01*
X0283853Y0176404D01*
X0283696Y0176424D01*
X0283540Y0176448D01*
X0283384Y0176476D01*
X0283229Y0176507D01*
X0283074Y0176543D01*
X0282921Y0176582D01*
X0282769Y0176625D01*
X0282618Y0176672D01*
X0282468Y0176723D01*
X0282319Y0176778D01*
X0282172Y0176836D01*
X0282026Y0176898D01*
X0281882Y0176963D01*
X0281740Y0177033D01*
X0281599Y0177105D01*
X0281460Y0177182D01*
X0281324Y0177261D01*
X0281189Y0177345D01*
X0281056Y0177431D01*
X0280926Y0177521D01*
X0280798Y0177614D01*
X0280672Y0177710D01*
X0280549Y0177810D01*
X0280428Y0177912D01*
X0280310Y0178017D01*
X0280195Y0178126D01*
X0280082Y0178237D01*
X0279972Y0178351D01*
X0279865Y0178468D01*
X0279761Y0178587D01*
X0279660Y0178709D01*
X0279563Y0178834D01*
X0279468Y0178961D01*
X0279377Y0179090D01*
X0279288Y0179221D01*
X0279204Y0179355D01*
X0279122Y0179491D01*
X0279044Y0179628D01*
X0278970Y0179768D01*
X0278899Y0179910D01*
X0278831Y0180053D01*
X0278767Y0180198D01*
X0278707Y0180344D01*
X0278651Y0180492D01*
X0278598Y0180641D01*
X0278549Y0180792D01*
X0278504Y0180944D01*
X0278463Y0181097D01*
X0278425Y0181250D01*
X0278392Y0181405D01*
X0278362Y0181561D01*
X0278336Y0181717D01*
X0278315Y0181874D01*
X0278297Y0182031D01*
X0278283Y0182189D01*
X0278273Y0182347D01*
X0278267Y0182505D01*
X0278265Y0182663D01*
X0387752Y0131089D02*
X0387754Y0131242D01*
X0387760Y0131396D01*
X0387770Y0131549D01*
X0387784Y0131701D01*
X0387802Y0131854D01*
X0387824Y0132005D01*
X0387849Y0132156D01*
X0387879Y0132307D01*
X0387913Y0132457D01*
X0387950Y0132605D01*
X0387991Y0132753D01*
X0388036Y0132899D01*
X0388085Y0133045D01*
X0388138Y0133189D01*
X0388194Y0133331D01*
X0388254Y0133472D01*
X0388318Y0133612D01*
X0388385Y0133750D01*
X0388456Y0133886D01*
X0388531Y0134020D01*
X0388608Y0134152D01*
X0388690Y0134282D01*
X0388774Y0134410D01*
X0388862Y0134536D01*
X0388953Y0134659D01*
X0389047Y0134780D01*
X0389145Y0134898D01*
X0389245Y0135014D01*
X0389349Y0135127D01*
X0389455Y0135238D01*
X0389564Y0135346D01*
X0389676Y0135451D01*
X0389790Y0135552D01*
X0389908Y0135651D01*
X0390027Y0135747D01*
X0390149Y0135840D01*
X0390274Y0135929D01*
X0390401Y0136016D01*
X0390530Y0136098D01*
X0390661Y0136178D01*
X0390794Y0136254D01*
X0390929Y0136327D01*
X0391066Y0136396D01*
X0391205Y0136461D01*
X0391345Y0136523D01*
X0391487Y0136581D01*
X0391630Y0136636D01*
X0391775Y0136687D01*
X0391921Y0136734D01*
X0392068Y0136777D01*
X0392216Y0136816D01*
X0392365Y0136852D01*
X0392515Y0136883D01*
X0392666Y0136911D01*
X0392817Y0136935D01*
X0392970Y0136955D01*
X0393122Y0136971D01*
X0393275Y0136983D01*
X0393428Y0136991D01*
X0393581Y0136995D01*
X0393735Y0136995D01*
X0393888Y0136991D01*
X0394041Y0136983D01*
X0394194Y0136971D01*
X0394346Y0136955D01*
X0394499Y0136935D01*
X0394650Y0136911D01*
X0394801Y0136883D01*
X0394951Y0136852D01*
X0395100Y0136816D01*
X0395248Y0136777D01*
X0395395Y0136734D01*
X0395541Y0136687D01*
X0395686Y0136636D01*
X0395829Y0136581D01*
X0395971Y0136523D01*
X0396111Y0136461D01*
X0396250Y0136396D01*
X0396387Y0136327D01*
X0396522Y0136254D01*
X0396655Y0136178D01*
X0396786Y0136098D01*
X0396915Y0136016D01*
X0397042Y0135929D01*
X0397167Y0135840D01*
X0397289Y0135747D01*
X0397408Y0135651D01*
X0397526Y0135552D01*
X0397640Y0135451D01*
X0397752Y0135346D01*
X0397861Y0135238D01*
X0397967Y0135127D01*
X0398071Y0135014D01*
X0398171Y0134898D01*
X0398269Y0134780D01*
X0398363Y0134659D01*
X0398454Y0134536D01*
X0398542Y0134410D01*
X0398626Y0134282D01*
X0398708Y0134152D01*
X0398785Y0134020D01*
X0398860Y0133886D01*
X0398931Y0133750D01*
X0398998Y0133612D01*
X0399062Y0133472D01*
X0399122Y0133331D01*
X0399178Y0133189D01*
X0399231Y0133045D01*
X0399280Y0132899D01*
X0399325Y0132753D01*
X0399366Y0132605D01*
X0399403Y0132457D01*
X0399437Y0132307D01*
X0399467Y0132156D01*
X0399492Y0132005D01*
X0399514Y0131854D01*
X0399532Y0131701D01*
X0399546Y0131549D01*
X0399556Y0131396D01*
X0399562Y0131242D01*
X0399564Y0131089D01*
X0399562Y0130936D01*
X0399556Y0130782D01*
X0399546Y0130629D01*
X0399532Y0130477D01*
X0399514Y0130324D01*
X0399492Y0130173D01*
X0399467Y0130022D01*
X0399437Y0129871D01*
X0399403Y0129721D01*
X0399366Y0129573D01*
X0399325Y0129425D01*
X0399280Y0129279D01*
X0399231Y0129133D01*
X0399178Y0128989D01*
X0399122Y0128847D01*
X0399062Y0128706D01*
X0398998Y0128566D01*
X0398931Y0128428D01*
X0398860Y0128292D01*
X0398785Y0128158D01*
X0398708Y0128026D01*
X0398626Y0127896D01*
X0398542Y0127768D01*
X0398454Y0127642D01*
X0398363Y0127519D01*
X0398269Y0127398D01*
X0398171Y0127280D01*
X0398071Y0127164D01*
X0397967Y0127051D01*
X0397861Y0126940D01*
X0397752Y0126832D01*
X0397640Y0126727D01*
X0397526Y0126626D01*
X0397408Y0126527D01*
X0397289Y0126431D01*
X0397167Y0126338D01*
X0397042Y0126249D01*
X0396915Y0126162D01*
X0396786Y0126080D01*
X0396655Y0126000D01*
X0396522Y0125924D01*
X0396387Y0125851D01*
X0396250Y0125782D01*
X0396111Y0125717D01*
X0395971Y0125655D01*
X0395829Y0125597D01*
X0395686Y0125542D01*
X0395541Y0125491D01*
X0395395Y0125444D01*
X0395248Y0125401D01*
X0395100Y0125362D01*
X0394951Y0125326D01*
X0394801Y0125295D01*
X0394650Y0125267D01*
X0394499Y0125243D01*
X0394346Y0125223D01*
X0394194Y0125207D01*
X0394041Y0125195D01*
X0393888Y0125187D01*
X0393735Y0125183D01*
X0393581Y0125183D01*
X0393428Y0125187D01*
X0393275Y0125195D01*
X0393122Y0125207D01*
X0392970Y0125223D01*
X0392817Y0125243D01*
X0392666Y0125267D01*
X0392515Y0125295D01*
X0392365Y0125326D01*
X0392216Y0125362D01*
X0392068Y0125401D01*
X0391921Y0125444D01*
X0391775Y0125491D01*
X0391630Y0125542D01*
X0391487Y0125597D01*
X0391345Y0125655D01*
X0391205Y0125717D01*
X0391066Y0125782D01*
X0390929Y0125851D01*
X0390794Y0125924D01*
X0390661Y0126000D01*
X0390530Y0126080D01*
X0390401Y0126162D01*
X0390274Y0126249D01*
X0390149Y0126338D01*
X0390027Y0126431D01*
X0389908Y0126527D01*
X0389790Y0126626D01*
X0389676Y0126727D01*
X0389564Y0126832D01*
X0389455Y0126940D01*
X0389349Y0127051D01*
X0389245Y0127164D01*
X0389145Y0127280D01*
X0389047Y0127398D01*
X0388953Y0127519D01*
X0388862Y0127642D01*
X0388774Y0127768D01*
X0388690Y0127896D01*
X0388608Y0128026D01*
X0388531Y0128158D01*
X0388456Y0128292D01*
X0388385Y0128428D01*
X0388318Y0128566D01*
X0388254Y0128706D01*
X0388194Y0128847D01*
X0388138Y0128989D01*
X0388085Y0129133D01*
X0388036Y0129279D01*
X0387991Y0129425D01*
X0387950Y0129573D01*
X0387913Y0129721D01*
X0387879Y0129871D01*
X0387849Y0130022D01*
X0387824Y0130173D01*
X0387802Y0130324D01*
X0387784Y0130477D01*
X0387770Y0130629D01*
X0387760Y0130782D01*
X0387754Y0130936D01*
X0387752Y0131089D01*
X0387752Y0234238D02*
X0387754Y0234391D01*
X0387760Y0234545D01*
X0387770Y0234698D01*
X0387784Y0234850D01*
X0387802Y0235003D01*
X0387824Y0235154D01*
X0387849Y0235305D01*
X0387879Y0235456D01*
X0387913Y0235606D01*
X0387950Y0235754D01*
X0387991Y0235902D01*
X0388036Y0236048D01*
X0388085Y0236194D01*
X0388138Y0236338D01*
X0388194Y0236480D01*
X0388254Y0236621D01*
X0388318Y0236761D01*
X0388385Y0236899D01*
X0388456Y0237035D01*
X0388531Y0237169D01*
X0388608Y0237301D01*
X0388690Y0237431D01*
X0388774Y0237559D01*
X0388862Y0237685D01*
X0388953Y0237808D01*
X0389047Y0237929D01*
X0389145Y0238047D01*
X0389245Y0238163D01*
X0389349Y0238276D01*
X0389455Y0238387D01*
X0389564Y0238495D01*
X0389676Y0238600D01*
X0389790Y0238701D01*
X0389908Y0238800D01*
X0390027Y0238896D01*
X0390149Y0238989D01*
X0390274Y0239078D01*
X0390401Y0239165D01*
X0390530Y0239247D01*
X0390661Y0239327D01*
X0390794Y0239403D01*
X0390929Y0239476D01*
X0391066Y0239545D01*
X0391205Y0239610D01*
X0391345Y0239672D01*
X0391487Y0239730D01*
X0391630Y0239785D01*
X0391775Y0239836D01*
X0391921Y0239883D01*
X0392068Y0239926D01*
X0392216Y0239965D01*
X0392365Y0240001D01*
X0392515Y0240032D01*
X0392666Y0240060D01*
X0392817Y0240084D01*
X0392970Y0240104D01*
X0393122Y0240120D01*
X0393275Y0240132D01*
X0393428Y0240140D01*
X0393581Y0240144D01*
X0393735Y0240144D01*
X0393888Y0240140D01*
X0394041Y0240132D01*
X0394194Y0240120D01*
X0394346Y0240104D01*
X0394499Y0240084D01*
X0394650Y0240060D01*
X0394801Y0240032D01*
X0394951Y0240001D01*
X0395100Y0239965D01*
X0395248Y0239926D01*
X0395395Y0239883D01*
X0395541Y0239836D01*
X0395686Y0239785D01*
X0395829Y0239730D01*
X0395971Y0239672D01*
X0396111Y0239610D01*
X0396250Y0239545D01*
X0396387Y0239476D01*
X0396522Y0239403D01*
X0396655Y0239327D01*
X0396786Y0239247D01*
X0396915Y0239165D01*
X0397042Y0239078D01*
X0397167Y0238989D01*
X0397289Y0238896D01*
X0397408Y0238800D01*
X0397526Y0238701D01*
X0397640Y0238600D01*
X0397752Y0238495D01*
X0397861Y0238387D01*
X0397967Y0238276D01*
X0398071Y0238163D01*
X0398171Y0238047D01*
X0398269Y0237929D01*
X0398363Y0237808D01*
X0398454Y0237685D01*
X0398542Y0237559D01*
X0398626Y0237431D01*
X0398708Y0237301D01*
X0398785Y0237169D01*
X0398860Y0237035D01*
X0398931Y0236899D01*
X0398998Y0236761D01*
X0399062Y0236621D01*
X0399122Y0236480D01*
X0399178Y0236338D01*
X0399231Y0236194D01*
X0399280Y0236048D01*
X0399325Y0235902D01*
X0399366Y0235754D01*
X0399403Y0235606D01*
X0399437Y0235456D01*
X0399467Y0235305D01*
X0399492Y0235154D01*
X0399514Y0235003D01*
X0399532Y0234850D01*
X0399546Y0234698D01*
X0399556Y0234545D01*
X0399562Y0234391D01*
X0399564Y0234238D01*
X0399562Y0234085D01*
X0399556Y0233931D01*
X0399546Y0233778D01*
X0399532Y0233626D01*
X0399514Y0233473D01*
X0399492Y0233322D01*
X0399467Y0233171D01*
X0399437Y0233020D01*
X0399403Y0232870D01*
X0399366Y0232722D01*
X0399325Y0232574D01*
X0399280Y0232428D01*
X0399231Y0232282D01*
X0399178Y0232138D01*
X0399122Y0231996D01*
X0399062Y0231855D01*
X0398998Y0231715D01*
X0398931Y0231577D01*
X0398860Y0231441D01*
X0398785Y0231307D01*
X0398708Y0231175D01*
X0398626Y0231045D01*
X0398542Y0230917D01*
X0398454Y0230791D01*
X0398363Y0230668D01*
X0398269Y0230547D01*
X0398171Y0230429D01*
X0398071Y0230313D01*
X0397967Y0230200D01*
X0397861Y0230089D01*
X0397752Y0229981D01*
X0397640Y0229876D01*
X0397526Y0229775D01*
X0397408Y0229676D01*
X0397289Y0229580D01*
X0397167Y0229487D01*
X0397042Y0229398D01*
X0396915Y0229311D01*
X0396786Y0229229D01*
X0396655Y0229149D01*
X0396522Y0229073D01*
X0396387Y0229000D01*
X0396250Y0228931D01*
X0396111Y0228866D01*
X0395971Y0228804D01*
X0395829Y0228746D01*
X0395686Y0228691D01*
X0395541Y0228640D01*
X0395395Y0228593D01*
X0395248Y0228550D01*
X0395100Y0228511D01*
X0394951Y0228475D01*
X0394801Y0228444D01*
X0394650Y0228416D01*
X0394499Y0228392D01*
X0394346Y0228372D01*
X0394194Y0228356D01*
X0394041Y0228344D01*
X0393888Y0228336D01*
X0393735Y0228332D01*
X0393581Y0228332D01*
X0393428Y0228336D01*
X0393275Y0228344D01*
X0393122Y0228356D01*
X0392970Y0228372D01*
X0392817Y0228392D01*
X0392666Y0228416D01*
X0392515Y0228444D01*
X0392365Y0228475D01*
X0392216Y0228511D01*
X0392068Y0228550D01*
X0391921Y0228593D01*
X0391775Y0228640D01*
X0391630Y0228691D01*
X0391487Y0228746D01*
X0391345Y0228804D01*
X0391205Y0228866D01*
X0391066Y0228931D01*
X0390929Y0229000D01*
X0390794Y0229073D01*
X0390661Y0229149D01*
X0390530Y0229229D01*
X0390401Y0229311D01*
X0390274Y0229398D01*
X0390149Y0229487D01*
X0390027Y0229580D01*
X0389908Y0229676D01*
X0389790Y0229775D01*
X0389676Y0229876D01*
X0389564Y0229981D01*
X0389455Y0230089D01*
X0389349Y0230200D01*
X0389245Y0230313D01*
X0389145Y0230429D01*
X0389047Y0230547D01*
X0388953Y0230668D01*
X0388862Y0230791D01*
X0388774Y0230917D01*
X0388690Y0231045D01*
X0388608Y0231175D01*
X0388531Y0231307D01*
X0388456Y0231441D01*
X0388385Y0231577D01*
X0388318Y0231715D01*
X0388254Y0231855D01*
X0388194Y0231996D01*
X0388138Y0232138D01*
X0388085Y0232282D01*
X0388036Y0232428D01*
X0387991Y0232574D01*
X0387950Y0232722D01*
X0387913Y0232870D01*
X0387879Y0233020D01*
X0387849Y0233171D01*
X0387824Y0233322D01*
X0387802Y0233473D01*
X0387784Y0233626D01*
X0387770Y0233778D01*
X0387760Y0233931D01*
X0387754Y0234085D01*
X0387752Y0234238D01*
X0057792Y0308648D02*
X0057794Y0308806D01*
X0057800Y0308964D01*
X0057810Y0309122D01*
X0057824Y0309280D01*
X0057842Y0309437D01*
X0057863Y0309594D01*
X0057889Y0309750D01*
X0057919Y0309906D01*
X0057952Y0310061D01*
X0057990Y0310214D01*
X0058031Y0310367D01*
X0058076Y0310519D01*
X0058125Y0310670D01*
X0058178Y0310819D01*
X0058234Y0310967D01*
X0058294Y0311113D01*
X0058358Y0311258D01*
X0058426Y0311401D01*
X0058497Y0311543D01*
X0058571Y0311683D01*
X0058649Y0311820D01*
X0058731Y0311956D01*
X0058815Y0312090D01*
X0058904Y0312221D01*
X0058995Y0312350D01*
X0059090Y0312477D01*
X0059187Y0312602D01*
X0059288Y0312724D01*
X0059392Y0312843D01*
X0059499Y0312960D01*
X0059609Y0313074D01*
X0059722Y0313185D01*
X0059837Y0313294D01*
X0059955Y0313399D01*
X0060076Y0313501D01*
X0060199Y0313601D01*
X0060325Y0313697D01*
X0060453Y0313790D01*
X0060583Y0313880D01*
X0060716Y0313966D01*
X0060851Y0314050D01*
X0060987Y0314129D01*
X0061126Y0314206D01*
X0061267Y0314278D01*
X0061409Y0314348D01*
X0061553Y0314413D01*
X0061699Y0314475D01*
X0061846Y0314533D01*
X0061995Y0314588D01*
X0062145Y0314639D01*
X0062296Y0314686D01*
X0062448Y0314729D01*
X0062601Y0314768D01*
X0062756Y0314804D01*
X0062911Y0314835D01*
X0063067Y0314863D01*
X0063223Y0314887D01*
X0063380Y0314907D01*
X0063538Y0314923D01*
X0063695Y0314935D01*
X0063854Y0314943D01*
X0064012Y0314947D01*
X0064170Y0314947D01*
X0064328Y0314943D01*
X0064487Y0314935D01*
X0064644Y0314923D01*
X0064802Y0314907D01*
X0064959Y0314887D01*
X0065115Y0314863D01*
X0065271Y0314835D01*
X0065426Y0314804D01*
X0065581Y0314768D01*
X0065734Y0314729D01*
X0065886Y0314686D01*
X0066037Y0314639D01*
X0066187Y0314588D01*
X0066336Y0314533D01*
X0066483Y0314475D01*
X0066629Y0314413D01*
X0066773Y0314348D01*
X0066915Y0314278D01*
X0067056Y0314206D01*
X0067195Y0314129D01*
X0067331Y0314050D01*
X0067466Y0313966D01*
X0067599Y0313880D01*
X0067729Y0313790D01*
X0067857Y0313697D01*
X0067983Y0313601D01*
X0068106Y0313501D01*
X0068227Y0313399D01*
X0068345Y0313294D01*
X0068460Y0313185D01*
X0068573Y0313074D01*
X0068683Y0312960D01*
X0068790Y0312843D01*
X0068894Y0312724D01*
X0068995Y0312602D01*
X0069092Y0312477D01*
X0069187Y0312350D01*
X0069278Y0312221D01*
X0069367Y0312090D01*
X0069451Y0311956D01*
X0069533Y0311820D01*
X0069611Y0311683D01*
X0069685Y0311543D01*
X0069756Y0311401D01*
X0069824Y0311258D01*
X0069888Y0311113D01*
X0069948Y0310967D01*
X0070004Y0310819D01*
X0070057Y0310670D01*
X0070106Y0310519D01*
X0070151Y0310367D01*
X0070192Y0310214D01*
X0070230Y0310061D01*
X0070263Y0309906D01*
X0070293Y0309750D01*
X0070319Y0309594D01*
X0070340Y0309437D01*
X0070358Y0309280D01*
X0070372Y0309122D01*
X0070382Y0308964D01*
X0070388Y0308806D01*
X0070390Y0308648D01*
X0070388Y0308490D01*
X0070382Y0308332D01*
X0070372Y0308174D01*
X0070358Y0308016D01*
X0070340Y0307859D01*
X0070319Y0307702D01*
X0070293Y0307546D01*
X0070263Y0307390D01*
X0070230Y0307235D01*
X0070192Y0307082D01*
X0070151Y0306929D01*
X0070106Y0306777D01*
X0070057Y0306626D01*
X0070004Y0306477D01*
X0069948Y0306329D01*
X0069888Y0306183D01*
X0069824Y0306038D01*
X0069756Y0305895D01*
X0069685Y0305753D01*
X0069611Y0305613D01*
X0069533Y0305476D01*
X0069451Y0305340D01*
X0069367Y0305206D01*
X0069278Y0305075D01*
X0069187Y0304946D01*
X0069092Y0304819D01*
X0068995Y0304694D01*
X0068894Y0304572D01*
X0068790Y0304453D01*
X0068683Y0304336D01*
X0068573Y0304222D01*
X0068460Y0304111D01*
X0068345Y0304002D01*
X0068227Y0303897D01*
X0068106Y0303795D01*
X0067983Y0303695D01*
X0067857Y0303599D01*
X0067729Y0303506D01*
X0067599Y0303416D01*
X0067466Y0303330D01*
X0067331Y0303246D01*
X0067195Y0303167D01*
X0067056Y0303090D01*
X0066915Y0303018D01*
X0066773Y0302948D01*
X0066629Y0302883D01*
X0066483Y0302821D01*
X0066336Y0302763D01*
X0066187Y0302708D01*
X0066037Y0302657D01*
X0065886Y0302610D01*
X0065734Y0302567D01*
X0065581Y0302528D01*
X0065426Y0302492D01*
X0065271Y0302461D01*
X0065115Y0302433D01*
X0064959Y0302409D01*
X0064802Y0302389D01*
X0064644Y0302373D01*
X0064487Y0302361D01*
X0064328Y0302353D01*
X0064170Y0302349D01*
X0064012Y0302349D01*
X0063854Y0302353D01*
X0063695Y0302361D01*
X0063538Y0302373D01*
X0063380Y0302389D01*
X0063223Y0302409D01*
X0063067Y0302433D01*
X0062911Y0302461D01*
X0062756Y0302492D01*
X0062601Y0302528D01*
X0062448Y0302567D01*
X0062296Y0302610D01*
X0062145Y0302657D01*
X0061995Y0302708D01*
X0061846Y0302763D01*
X0061699Y0302821D01*
X0061553Y0302883D01*
X0061409Y0302948D01*
X0061267Y0303018D01*
X0061126Y0303090D01*
X0060987Y0303167D01*
X0060851Y0303246D01*
X0060716Y0303330D01*
X0060583Y0303416D01*
X0060453Y0303506D01*
X0060325Y0303599D01*
X0060199Y0303695D01*
X0060076Y0303795D01*
X0059955Y0303897D01*
X0059837Y0304002D01*
X0059722Y0304111D01*
X0059609Y0304222D01*
X0059499Y0304336D01*
X0059392Y0304453D01*
X0059288Y0304572D01*
X0059187Y0304694D01*
X0059090Y0304819D01*
X0058995Y0304946D01*
X0058904Y0305075D01*
X0058815Y0305206D01*
X0058731Y0305340D01*
X0058649Y0305476D01*
X0058571Y0305613D01*
X0058497Y0305753D01*
X0058426Y0305895D01*
X0058358Y0306038D01*
X0058294Y0306183D01*
X0058234Y0306329D01*
X0058178Y0306477D01*
X0058125Y0306626D01*
X0058076Y0306777D01*
X0058031Y0306929D01*
X0057990Y0307082D01*
X0057952Y0307235D01*
X0057919Y0307390D01*
X0057889Y0307546D01*
X0057863Y0307702D01*
X0057842Y0307859D01*
X0057824Y0308016D01*
X0057810Y0308174D01*
X0057800Y0308332D01*
X0057794Y0308490D01*
X0057792Y0308648D01*
D11*
X0058562Y0277598D02*
X0057795Y0276831D01*
X0057795Y0275296D01*
X0058562Y0274529D01*
X0058562Y0272994D02*
X0057795Y0272227D01*
X0057795Y0270693D01*
X0058562Y0269925D01*
X0061632Y0269925D01*
X0062399Y0270693D01*
X0062399Y0272227D01*
X0061632Y0272994D01*
X0061632Y0274529D02*
X0062399Y0275296D01*
X0062399Y0276831D01*
X0061632Y0277598D01*
X0060864Y0277598D01*
X0060097Y0276831D01*
X0059330Y0277598D01*
X0058562Y0277598D01*
X0060097Y0276831D02*
X0060097Y0276064D01*
X0067795Y0276831D02*
X0072399Y0276831D01*
X0070097Y0274529D01*
X0070097Y0277598D01*
X0068562Y0272994D02*
X0067795Y0272227D01*
X0067795Y0270693D01*
X0068562Y0269925D01*
X0071632Y0269925D01*
X0072399Y0270693D01*
X0072399Y0272227D01*
X0071632Y0272994D01*
X0101732Y0253726D02*
X0101732Y0250656D01*
X0104801Y0253726D01*
X0105569Y0253726D01*
X0106336Y0252958D01*
X0106336Y0251424D01*
X0105569Y0250656D01*
X0105569Y0249122D02*
X0102499Y0249122D01*
X0101732Y0248354D01*
X0101732Y0246052D01*
X0106336Y0246052D01*
X0106336Y0248354D01*
X0105569Y0249122D01*
X0094128Y0237487D02*
X0092593Y0237487D01*
X0091826Y0236720D01*
X0091826Y0233650D01*
X0092593Y0232883D01*
X0094128Y0232883D01*
X0094895Y0233650D01*
X0094895Y0236720D01*
X0094128Y0237487D01*
X0093361Y0234418D02*
X0091826Y0232883D01*
X0090291Y0232883D02*
X0087222Y0235952D01*
X0087222Y0236720D01*
X0087989Y0237487D01*
X0089524Y0237487D01*
X0090291Y0236720D01*
X0090291Y0232883D02*
X0087222Y0232883D01*
X0121553Y0225657D02*
X0121553Y0224889D01*
X0122320Y0224122D01*
X0121553Y0223355D01*
X0121553Y0222587D01*
X0122320Y0221820D01*
X0123855Y0221820D01*
X0124622Y0222587D01*
X0126157Y0222587D02*
X0126924Y0221820D01*
X0129226Y0221820D01*
X0129226Y0226424D01*
X0126924Y0226424D01*
X0126157Y0225657D01*
X0126157Y0222587D01*
X0124622Y0225657D02*
X0123855Y0226424D01*
X0122320Y0226424D01*
X0121553Y0225657D01*
X0122320Y0224122D02*
X0123087Y0224122D01*
X0125489Y0255383D02*
X0127024Y0255383D01*
X0127791Y0256150D01*
X0127791Y0257685D02*
X0126257Y0258452D01*
X0125489Y0258452D01*
X0124722Y0257685D01*
X0124722Y0256150D01*
X0125489Y0255383D01*
X0127791Y0257685D02*
X0127791Y0259987D01*
X0124722Y0259987D01*
X0129326Y0259220D02*
X0129326Y0257685D01*
X0130093Y0256918D01*
X0132395Y0256918D01*
X0130861Y0256918D02*
X0129326Y0255383D01*
X0132395Y0255383D02*
X0132395Y0259987D01*
X0130093Y0259987D01*
X0129326Y0259220D01*
X0112399Y0271175D02*
X0112399Y0273477D01*
X0111632Y0274244D01*
X0110097Y0274244D01*
X0109330Y0273477D01*
X0109330Y0271175D01*
X0109330Y0272710D02*
X0107795Y0274244D01*
X0110097Y0275779D02*
X0110097Y0278848D01*
X0107795Y0278081D02*
X0112399Y0278081D01*
X0110097Y0275779D01*
X0107795Y0271175D02*
X0112399Y0271175D01*
X0180095Y0271546D02*
X0180862Y0270779D01*
X0180095Y0271546D02*
X0180095Y0273081D01*
X0180862Y0273848D01*
X0181630Y0273848D01*
X0182397Y0273081D01*
X0182397Y0272314D01*
X0182397Y0273081D02*
X0183164Y0273848D01*
X0183932Y0273848D01*
X0184699Y0273081D01*
X0184699Y0271546D01*
X0183932Y0270779D01*
X0183932Y0269244D02*
X0180862Y0269244D01*
X0180095Y0268477D01*
X0180095Y0266943D01*
X0180862Y0266175D01*
X0183932Y0266175D01*
X0184699Y0266943D01*
X0184699Y0268477D01*
X0183932Y0269244D01*
X0181630Y0267710D02*
X0180095Y0269244D01*
X0208562Y0233848D02*
X0207795Y0233081D01*
X0207795Y0231546D01*
X0208562Y0230779D01*
X0210097Y0230779D01*
X0210097Y0233081D01*
X0209330Y0233848D01*
X0208562Y0233848D01*
X0211632Y0232314D02*
X0210097Y0230779D01*
X0210097Y0229244D02*
X0209330Y0228477D01*
X0209330Y0226175D01*
X0209330Y0227710D02*
X0207795Y0229244D01*
X0210097Y0229244D02*
X0211632Y0229244D01*
X0212399Y0228477D01*
X0212399Y0226175D01*
X0207795Y0226175D01*
X0211632Y0232314D02*
X0212399Y0233848D01*
X0232795Y0238650D02*
X0233562Y0237883D01*
X0236632Y0237883D01*
X0237399Y0238650D01*
X0237399Y0240185D01*
X0236632Y0240952D01*
X0233562Y0240952D01*
X0232795Y0240185D01*
X0232795Y0238650D01*
X0234330Y0239418D02*
X0232795Y0240952D01*
X0235097Y0242487D02*
X0235097Y0245556D01*
X0232795Y0244789D02*
X0237399Y0244789D01*
X0235097Y0242487D01*
X0234920Y0255383D02*
X0233385Y0255383D01*
X0232618Y0256150D01*
X0232618Y0256918D01*
X0233385Y0257685D01*
X0234153Y0257685D01*
X0233385Y0257685D02*
X0232618Y0258452D01*
X0232618Y0259220D01*
X0233385Y0259987D01*
X0234920Y0259987D01*
X0235687Y0259220D01*
X0235687Y0256150D02*
X0234920Y0255383D01*
X0237222Y0255383D02*
X0240291Y0255383D01*
X0238757Y0255383D02*
X0238757Y0259987D01*
X0240291Y0258452D01*
X0241826Y0259220D02*
X0242593Y0259987D01*
X0244128Y0259987D01*
X0244895Y0259220D01*
X0244895Y0256150D01*
X0244128Y0255383D01*
X0242593Y0255383D01*
X0241826Y0256150D01*
X0258472Y0259220D02*
X0261541Y0256150D01*
X0261541Y0255383D01*
X0263076Y0255383D02*
X0264611Y0256918D01*
X0263843Y0256918D02*
X0266145Y0256918D01*
X0266145Y0255383D02*
X0266145Y0259987D01*
X0263843Y0259987D01*
X0263076Y0259220D01*
X0263076Y0257685D01*
X0263843Y0256918D01*
X0261541Y0259987D02*
X0258472Y0259987D01*
X0258472Y0259220D01*
X0268858Y0232412D02*
X0273462Y0232412D01*
X0271160Y0230110D01*
X0271160Y0233179D01*
X0269625Y0228575D02*
X0272695Y0228575D01*
X0273462Y0227808D01*
X0273462Y0225506D01*
X0268858Y0225506D01*
X0268858Y0227808D01*
X0269625Y0228575D01*
X0314722Y0224220D02*
X0314722Y0223452D01*
X0315489Y0222685D01*
X0317024Y0222685D01*
X0317791Y0223452D01*
X0317791Y0224220D01*
X0317024Y0224987D01*
X0315489Y0224987D01*
X0314722Y0224220D01*
X0315489Y0222685D02*
X0314722Y0221918D01*
X0314722Y0221150D01*
X0315489Y0220383D01*
X0317024Y0220383D01*
X0317791Y0221150D01*
X0317791Y0221918D01*
X0317024Y0222685D01*
X0319326Y0221150D02*
X0320093Y0220383D01*
X0321628Y0220383D01*
X0322395Y0221150D01*
X0322395Y0224220D01*
X0321628Y0224987D01*
X0320093Y0224987D01*
X0319326Y0224220D01*
X0320093Y0235383D02*
X0319326Y0236150D01*
X0320093Y0235383D02*
X0321628Y0235383D01*
X0322395Y0236150D01*
X0322395Y0239220D01*
X0321628Y0239987D01*
X0320093Y0239987D01*
X0319326Y0239220D01*
X0317791Y0239987D02*
X0314722Y0239987D01*
X0314722Y0239220D01*
X0317791Y0236150D01*
X0317791Y0235383D01*
X0349842Y0235716D02*
X0349842Y0236483D01*
X0350610Y0237251D01*
X0352144Y0237251D01*
X0352912Y0236483D01*
X0355981Y0237251D02*
X0355981Y0232647D01*
X0357516Y0232647D02*
X0354446Y0232647D01*
X0352912Y0232647D02*
X0349842Y0235716D01*
X0349842Y0232647D02*
X0352912Y0232647D01*
X0357516Y0235716D02*
X0355981Y0237251D01*
X0359050Y0236483D02*
X0359818Y0237251D01*
X0361352Y0237251D01*
X0362120Y0236483D01*
X0362120Y0233414D01*
X0361352Y0232647D01*
X0359818Y0232647D01*
X0359050Y0233414D01*
X0358877Y0250580D02*
X0358877Y0255184D01*
X0360412Y0253649D01*
X0360412Y0250580D02*
X0357342Y0250580D01*
X0361946Y0250580D02*
X0365016Y0250580D01*
X0363481Y0250580D02*
X0363481Y0255184D01*
X0365016Y0253649D01*
X0366550Y0254417D02*
X0367318Y0255184D01*
X0368852Y0255184D01*
X0369620Y0254417D01*
X0369620Y0251347D01*
X0368852Y0250580D01*
X0367318Y0250580D01*
X0366550Y0251347D01*
X0366929Y0285304D02*
X0366161Y0286072D01*
X0366161Y0287606D01*
X0366929Y0288374D01*
X0366929Y0289908D02*
X0366161Y0290676D01*
X0366161Y0292210D01*
X0366929Y0292978D01*
X0369998Y0292978D01*
X0370765Y0292210D01*
X0370765Y0290676D01*
X0369998Y0289908D01*
X0369231Y0289908D01*
X0368463Y0290676D01*
X0368463Y0292978D01*
X0369998Y0288374D02*
X0370765Y0287606D01*
X0370765Y0286072D01*
X0369998Y0285304D01*
X0366929Y0285304D01*
X0361946Y0285993D02*
X0361946Y0287528D01*
X0361179Y0288295D01*
X0360412Y0289830D02*
X0361946Y0291364D01*
X0357342Y0291364D01*
X0357342Y0289830D02*
X0357342Y0292899D01*
X0358110Y0294433D02*
X0361179Y0297503D01*
X0358110Y0297503D01*
X0357342Y0296735D01*
X0357342Y0295201D01*
X0358110Y0294433D01*
X0361179Y0294433D01*
X0361946Y0295201D01*
X0361946Y0296735D01*
X0361179Y0297503D01*
X0358110Y0288295D02*
X0357342Y0287528D01*
X0357342Y0285993D01*
X0358110Y0285226D01*
X0361179Y0285226D01*
X0361946Y0285993D01*
X0321903Y0159357D02*
X0320369Y0159357D01*
X0319601Y0158590D01*
X0318067Y0158590D02*
X0317299Y0159357D01*
X0315765Y0159357D01*
X0314998Y0158590D01*
X0314998Y0157822D01*
X0318067Y0154753D01*
X0314998Y0154753D01*
X0313463Y0154753D02*
X0310394Y0154753D01*
X0311928Y0154753D02*
X0311928Y0159357D01*
X0313463Y0157822D01*
X0319601Y0155520D02*
X0320369Y0154753D01*
X0321903Y0154753D01*
X0322671Y0155520D01*
X0322671Y0158590D01*
X0321903Y0159357D01*
X0322297Y0144357D02*
X0323064Y0143590D01*
X0323064Y0140520D01*
X0322297Y0139753D01*
X0320762Y0139753D01*
X0319995Y0140520D01*
X0318461Y0139753D02*
X0315391Y0139753D01*
X0313857Y0140520D02*
X0313089Y0139753D01*
X0311555Y0139753D01*
X0310787Y0140520D01*
X0310787Y0143590D01*
X0313857Y0140520D01*
X0313857Y0143590D01*
X0313089Y0144357D01*
X0311555Y0144357D01*
X0310787Y0143590D01*
X0315391Y0143590D02*
X0315391Y0142822D01*
X0318461Y0139753D01*
X0318461Y0143590D02*
X0317693Y0144357D01*
X0316159Y0144357D01*
X0315391Y0143590D01*
X0319995Y0143590D02*
X0320762Y0144357D01*
X0322297Y0144357D01*
X0358385Y0107487D02*
X0360687Y0105185D01*
X0357618Y0105185D01*
X0358385Y0102883D02*
X0358385Y0107487D01*
X0362222Y0106720D02*
X0362989Y0107487D01*
X0364524Y0107487D01*
X0365291Y0106720D01*
X0366826Y0106720D02*
X0367593Y0107487D01*
X0369128Y0107487D01*
X0369895Y0106720D01*
X0369895Y0103650D01*
X0369128Y0102883D01*
X0367593Y0102883D01*
X0366826Y0103650D01*
X0365291Y0102883D02*
X0362222Y0105952D01*
X0362222Y0106720D01*
X0362222Y0102883D02*
X0365291Y0102883D01*
X0364524Y0097487D02*
X0362989Y0097487D01*
X0362222Y0096720D01*
X0362222Y0095952D01*
X0365291Y0092883D01*
X0362222Y0092883D01*
X0360687Y0093650D02*
X0359920Y0092883D01*
X0358385Y0092883D01*
X0357618Y0093650D01*
X0357618Y0095185D01*
X0358385Y0095952D01*
X0359153Y0095952D01*
X0360687Y0095185D01*
X0360687Y0097487D01*
X0357618Y0097487D01*
X0364524Y0097487D02*
X0365291Y0096720D01*
X0366826Y0096720D02*
X0367593Y0097487D01*
X0369128Y0097487D01*
X0369895Y0096720D01*
X0369895Y0093650D01*
X0369128Y0092883D01*
X0367593Y0092883D01*
X0366826Y0093650D01*
X0370295Y0062660D02*
X0370295Y0059591D01*
X0373364Y0062660D01*
X0374132Y0062660D01*
X0374899Y0061893D01*
X0374899Y0060358D01*
X0374132Y0059591D01*
X0374132Y0058056D02*
X0374899Y0057289D01*
X0374899Y0055754D01*
X0374132Y0054987D01*
X0374132Y0053452D02*
X0374899Y0052685D01*
X0374899Y0051150D01*
X0374132Y0050383D01*
X0371062Y0050383D01*
X0370295Y0051150D01*
X0370295Y0052685D01*
X0371062Y0053452D01*
X0370295Y0054987D02*
X0373364Y0058056D01*
X0374132Y0058056D01*
X0370295Y0058056D02*
X0370295Y0054987D01*
X0380295Y0054987D02*
X0383364Y0058056D01*
X0384132Y0058056D01*
X0384899Y0057289D01*
X0384899Y0055754D01*
X0384132Y0054987D01*
X0384132Y0053452D02*
X0384899Y0052685D01*
X0384899Y0051150D01*
X0384132Y0050383D01*
X0381062Y0050383D01*
X0380295Y0051150D01*
X0380295Y0052685D01*
X0381062Y0053452D01*
X0380295Y0054987D02*
X0380295Y0058056D01*
X0381062Y0059591D02*
X0380295Y0060358D01*
X0380295Y0061893D01*
X0381062Y0062660D01*
X0381830Y0062660D01*
X0382597Y0061893D01*
X0382597Y0061126D01*
X0382597Y0061893D02*
X0383364Y0062660D01*
X0384132Y0062660D01*
X0384899Y0061893D01*
X0384899Y0060358D01*
X0384132Y0059591D01*
X0273462Y0105506D02*
X0273462Y0107808D01*
X0272695Y0108575D01*
X0269625Y0108575D01*
X0268858Y0107808D01*
X0268858Y0105506D01*
X0273462Y0105506D01*
X0272695Y0110110D02*
X0271927Y0110110D01*
X0271160Y0110877D01*
X0271160Y0112412D01*
X0270393Y0113179D01*
X0269625Y0113179D01*
X0268858Y0112412D01*
X0268858Y0110877D01*
X0269625Y0110110D01*
X0270393Y0110110D01*
X0271160Y0110877D01*
X0271160Y0112412D02*
X0271927Y0113179D01*
X0272695Y0113179D01*
X0273462Y0112412D01*
X0273462Y0110877D01*
X0272695Y0110110D01*
X0267395Y0130383D02*
X0267395Y0134987D01*
X0265093Y0134987D01*
X0264326Y0134220D01*
X0264326Y0132685D01*
X0265093Y0131918D01*
X0267395Y0131918D01*
X0265861Y0131918D02*
X0264326Y0130383D01*
X0262791Y0130383D02*
X0259722Y0130383D01*
X0261257Y0130383D02*
X0261257Y0134987D01*
X0262791Y0133452D01*
X0258187Y0132685D02*
X0255118Y0132685D01*
X0255885Y0130383D02*
X0255885Y0134987D01*
X0258187Y0132685D01*
X0244895Y0131150D02*
X0244128Y0130383D01*
X0242593Y0130383D01*
X0241826Y0131150D01*
X0240291Y0130383D02*
X0237222Y0133452D01*
X0237222Y0134220D01*
X0237989Y0134987D01*
X0239524Y0134987D01*
X0240291Y0134220D01*
X0241826Y0134220D02*
X0242593Y0134987D01*
X0244128Y0134987D01*
X0244895Y0134220D01*
X0244895Y0131150D01*
X0240291Y0130383D02*
X0237222Y0130383D01*
X0235687Y0131150D02*
X0234920Y0130383D01*
X0233385Y0130383D01*
X0232618Y0131150D01*
X0232618Y0131918D01*
X0233385Y0132685D01*
X0235687Y0132685D01*
X0235687Y0131150D01*
X0235687Y0132685D02*
X0234153Y0134220D01*
X0232618Y0134987D01*
X0233562Y0123056D02*
X0232795Y0122289D01*
X0232795Y0120754D01*
X0233562Y0119987D01*
X0234330Y0119987D01*
X0235097Y0120754D01*
X0235097Y0122289D01*
X0234330Y0123056D01*
X0233562Y0123056D01*
X0235097Y0122289D02*
X0235864Y0123056D01*
X0236632Y0123056D01*
X0237399Y0122289D01*
X0237399Y0120754D01*
X0236632Y0119987D01*
X0235864Y0119987D01*
X0235097Y0120754D01*
X0233562Y0118452D02*
X0232795Y0117685D01*
X0232795Y0116150D01*
X0233562Y0115383D01*
X0236632Y0115383D01*
X0237399Y0116150D01*
X0237399Y0117685D01*
X0236632Y0118452D01*
X0233562Y0118452D01*
X0232795Y0118452D02*
X0234330Y0116918D01*
X0217399Y0105581D02*
X0216632Y0106348D01*
X0215864Y0106348D01*
X0215097Y0105581D01*
X0214330Y0106348D01*
X0213562Y0106348D01*
X0212795Y0105581D01*
X0212795Y0104046D01*
X0213562Y0103279D01*
X0212795Y0101744D02*
X0212795Y0098675D01*
X0212795Y0097141D02*
X0214330Y0095606D01*
X0214330Y0096373D02*
X0214330Y0094071D01*
X0212795Y0094071D02*
X0217399Y0094071D01*
X0217399Y0096373D01*
X0216632Y0097141D01*
X0215097Y0097141D01*
X0214330Y0096373D01*
X0215864Y0098675D02*
X0217399Y0100210D01*
X0212795Y0100210D01*
X0216632Y0103279D02*
X0217399Y0104046D01*
X0217399Y0105581D01*
X0215097Y0105581D02*
X0215097Y0104814D01*
X0186832Y0132883D02*
X0183762Y0132883D01*
X0182995Y0133650D01*
X0182995Y0135185D01*
X0183762Y0135952D01*
X0186832Y0135952D01*
X0187599Y0135185D01*
X0187599Y0133650D01*
X0186832Y0132883D01*
X0184530Y0134418D02*
X0182995Y0135952D01*
X0182995Y0137487D02*
X0183762Y0137487D01*
X0186832Y0140556D01*
X0187599Y0140556D01*
X0187599Y0137487D01*
X0134895Y0136918D02*
X0132593Y0136918D01*
X0131826Y0137685D01*
X0131826Y0139220D01*
X0132593Y0139987D01*
X0134895Y0139987D01*
X0134895Y0135383D01*
X0133361Y0136918D02*
X0131826Y0135383D01*
X0130291Y0135383D02*
X0127222Y0135383D01*
X0128757Y0135383D02*
X0128757Y0139987D01*
X0130291Y0138452D01*
X0125687Y0139220D02*
X0124920Y0139987D01*
X0123385Y0139987D01*
X0122618Y0139220D01*
X0122618Y0138452D01*
X0125687Y0135383D01*
X0122618Y0135383D01*
X0122024Y0145383D02*
X0120489Y0145383D01*
X0119722Y0146150D01*
X0119722Y0146918D01*
X0120489Y0147685D01*
X0122791Y0147685D01*
X0122791Y0146150D01*
X0122024Y0145383D01*
X0124326Y0145383D02*
X0125861Y0146918D01*
X0127395Y0146150D02*
X0127395Y0149220D01*
X0126628Y0149987D01*
X0125093Y0149987D01*
X0124326Y0149220D01*
X0124326Y0146150D01*
X0125093Y0145383D01*
X0126628Y0145383D01*
X0127395Y0146150D01*
X0122791Y0147685D02*
X0121257Y0149220D01*
X0119722Y0149987D01*
X0124053Y0123924D02*
X0124053Y0123157D01*
X0127122Y0120087D01*
X0127122Y0119320D01*
X0128657Y0120087D02*
X0129424Y0119320D01*
X0131726Y0119320D01*
X0131726Y0123924D01*
X0129424Y0123924D01*
X0128657Y0123157D01*
X0128657Y0120087D01*
X0127122Y0123924D02*
X0124053Y0123924D01*
X0122795Y0096348D02*
X0122795Y0093279D01*
X0122795Y0091744D02*
X0122795Y0088675D01*
X0122795Y0087141D02*
X0124330Y0085606D01*
X0124330Y0086373D02*
X0124330Y0084071D01*
X0122795Y0084071D02*
X0127399Y0084071D01*
X0127399Y0086373D01*
X0126632Y0087141D01*
X0125097Y0087141D01*
X0124330Y0086373D01*
X0125864Y0088675D02*
X0127399Y0090210D01*
X0122795Y0090210D01*
X0125864Y0093279D02*
X0127399Y0094814D01*
X0122795Y0094814D01*
X0102272Y0091050D02*
X0102272Y0086446D01*
X0099970Y0086446D01*
X0099203Y0087213D01*
X0099203Y0090283D01*
X0099970Y0091050D01*
X0102272Y0091050D01*
X0097668Y0088748D02*
X0095366Y0088748D01*
X0094599Y0087981D01*
X0094599Y0087213D01*
X0095366Y0086446D01*
X0096901Y0086446D01*
X0097668Y0087213D01*
X0097668Y0088748D01*
X0096134Y0090283D01*
X0094599Y0091050D01*
X0074899Y0111150D02*
X0074132Y0110383D01*
X0071062Y0110383D01*
X0070295Y0111150D01*
X0070295Y0112685D01*
X0071062Y0113452D01*
X0070295Y0114987D02*
X0070295Y0118056D01*
X0070295Y0116522D02*
X0074899Y0116522D01*
X0073364Y0114987D01*
X0074132Y0113452D02*
X0074899Y0112685D01*
X0074899Y0111150D01*
X0067399Y0111150D02*
X0066632Y0110383D01*
X0063562Y0110383D01*
X0062795Y0111150D01*
X0062795Y0112685D01*
X0063562Y0113452D01*
X0062795Y0114987D02*
X0062795Y0118056D01*
X0062795Y0116522D02*
X0067399Y0116522D01*
X0065864Y0114987D01*
X0066632Y0113452D02*
X0067399Y0112685D01*
X0067399Y0111150D01*
X0065097Y0119591D02*
X0063562Y0119591D01*
X0062795Y0120358D01*
X0062795Y0121893D01*
X0063562Y0122660D01*
X0064330Y0122660D01*
X0065097Y0121893D01*
X0065097Y0119591D01*
X0066632Y0121126D01*
X0067399Y0122660D01*
X0070295Y0119591D02*
X0071062Y0119591D01*
X0074132Y0122660D01*
X0074899Y0122660D01*
X0074899Y0119591D01*
D12*
X0175595Y0128085D02*
X0175595Y0102281D01*
X0189595Y0102281D01*
X0189595Y0128085D01*
X0175595Y0128085D01*
X0175595Y0237281D02*
X0175595Y0263085D01*
X0189595Y0263085D01*
X0189595Y0237281D01*
X0175595Y0237281D01*
D13*
X0093204Y0072925D02*
X0093186Y0072929D01*
X0093169Y0072925D01*
X0093155Y0072914D01*
X0093115Y0072855D01*
X0093092Y0072788D01*
X0093067Y0072567D01*
X0093092Y0072346D01*
X0093470Y0070957D01*
X0093912Y0069379D01*
X0093925Y0069351D01*
X0093947Y0069329D01*
X0093975Y0069316D01*
X0094007Y0069312D01*
X0094038Y0069316D01*
X0094110Y0069320D01*
X0094178Y0069300D01*
X0094236Y0069257D01*
X0094275Y0069197D01*
X0094291Y0069127D01*
X0094278Y0068996D01*
X0094228Y0068874D01*
X0094177Y0068753D01*
X0094164Y0068622D01*
X0094228Y0068180D01*
X0094354Y0067423D01*
X0094354Y0066729D01*
X0094291Y0066729D01*
X0094164Y0066792D01*
X0093760Y0067041D01*
X0093407Y0067360D01*
X0092523Y0068243D01*
X0092223Y0068486D01*
X0091892Y0068685D01*
X0091660Y0068827D01*
X0091451Y0069001D01*
X0090377Y0069885D01*
X0089557Y0070579D01*
X0089012Y0071080D01*
X0088421Y0071526D01*
X0087537Y0072220D01*
X0087240Y0072440D01*
X0086906Y0072598D01*
X0086654Y0072661D01*
X0086527Y0072661D01*
X0086498Y0072651D01*
X0086475Y0072628D01*
X0086464Y0072598D01*
X0086467Y0072549D01*
X0086490Y0072504D01*
X0086527Y0072472D01*
X0086969Y0071967D01*
X0087108Y0071786D01*
X0087222Y0071589D01*
X0087349Y0071398D01*
X0087521Y0071247D01*
X0087727Y0071147D01*
X0087868Y0071072D01*
X0087979Y0070957D01*
X0088243Y0070623D01*
X0088547Y0070326D01*
X0088786Y0070089D01*
X0088989Y0069821D01*
X0089129Y0069644D01*
X0089299Y0069495D01*
X0089494Y0069379D01*
X0089755Y0069228D01*
X0089988Y0069037D01*
X0090188Y0068811D01*
X0090283Y0068656D01*
X0090347Y0068486D01*
X0090377Y0068307D01*
X0090387Y0068276D01*
X0090410Y0068253D01*
X0090441Y0068243D01*
X0090820Y0068180D01*
X0090834Y0068172D01*
X0090843Y0068157D01*
X0090843Y0068140D01*
X0090834Y0068125D01*
X0090820Y0068117D01*
X0090720Y0068077D01*
X0090633Y0068012D01*
X0090567Y0067928D01*
X0092839Y0067928D01*
X0092900Y0067866D02*
X0090544Y0067866D01*
X0090537Y0067845D02*
X0090538Y0067758D01*
X0090570Y0067676D01*
X0090630Y0067612D01*
X0090833Y0067437D01*
X0091009Y0067233D01*
X0091451Y0066665D01*
X0091476Y0066621D01*
X0091484Y0066571D01*
X0091476Y0066520D01*
X0091451Y0066476D01*
X0091407Y0066439D01*
X0091353Y0066419D01*
X0091296Y0066419D01*
X0091242Y0066439D01*
X0091198Y0066476D01*
X0091009Y0066665D01*
X0089936Y0067486D01*
X0088989Y0068180D01*
X0087727Y0069127D01*
X0087606Y0069201D01*
X0087474Y0069253D01*
X0087380Y0069267D01*
X0087285Y0069253D01*
X0087257Y0069240D01*
X0087235Y0069218D01*
X0087222Y0069190D01*
X0087203Y0069155D01*
X0087172Y0069131D01*
X0087134Y0069121D01*
X0087095Y0069127D01*
X0086969Y0069190D01*
X0086717Y0069379D01*
X0086149Y0069821D01*
X0085689Y0070100D01*
X0085202Y0070326D01*
X0084697Y0070516D01*
X0084669Y0070517D01*
X0084645Y0070504D01*
X0084632Y0070480D01*
X0084634Y0070452D01*
X0084697Y0070263D01*
X0084769Y0070094D01*
X0084876Y0069945D01*
X0085012Y0069821D01*
X0085581Y0069316D01*
X0085884Y0068952D01*
X0086149Y0068559D01*
X0086287Y0068381D01*
X0086464Y0068243D01*
X0086501Y0068210D01*
X0086523Y0068166D01*
X0086527Y0068117D01*
X0086531Y0068092D01*
X0086544Y0068071D01*
X0086565Y0068057D01*
X0086590Y0068054D01*
X0086659Y0068051D01*
X0089165Y0068051D01*
X0089081Y0068112D02*
X0086528Y0068112D01*
X0086519Y0068174D02*
X0088997Y0068174D01*
X0088915Y0068235D02*
X0086473Y0068235D01*
X0086395Y0068297D02*
X0088833Y0068297D01*
X0088751Y0068358D02*
X0086316Y0068358D01*
X0086257Y0068420D02*
X0088669Y0068420D01*
X0088587Y0068481D02*
X0086209Y0068481D01*
X0086161Y0068543D02*
X0088505Y0068543D01*
X0088423Y0068605D02*
X0086118Y0068605D01*
X0086077Y0068666D02*
X0088341Y0068666D01*
X0088259Y0068728D02*
X0086035Y0068728D01*
X0085994Y0068789D02*
X0088177Y0068789D01*
X0088095Y0068851D02*
X0085953Y0068851D01*
X0085911Y0068912D02*
X0088013Y0068912D01*
X0087931Y0068974D02*
X0085866Y0068974D01*
X0085815Y0069035D02*
X0087849Y0069035D01*
X0087767Y0069097D02*
X0085764Y0069097D01*
X0085713Y0069158D02*
X0087033Y0069158D01*
X0086930Y0069220D02*
X0085661Y0069220D01*
X0085610Y0069281D02*
X0086848Y0069281D01*
X0086766Y0069343D02*
X0085551Y0069343D01*
X0085482Y0069404D02*
X0086685Y0069404D01*
X0086606Y0069466D02*
X0085413Y0069466D01*
X0085343Y0069527D02*
X0086527Y0069527D01*
X0086448Y0069589D02*
X0085274Y0069589D01*
X0085205Y0069650D02*
X0086369Y0069650D01*
X0086290Y0069712D02*
X0085136Y0069712D01*
X0085067Y0069773D02*
X0086211Y0069773D01*
X0086127Y0069835D02*
X0084998Y0069835D01*
X0084930Y0069896D02*
X0086025Y0069896D01*
X0085924Y0069958D02*
X0084867Y0069958D01*
X0084823Y0070019D02*
X0085823Y0070019D01*
X0085721Y0070081D02*
X0084779Y0070081D01*
X0084749Y0070142D02*
X0085598Y0070142D01*
X0085466Y0070204D02*
X0084722Y0070204D01*
X0084696Y0070265D02*
X0085333Y0070265D01*
X0085200Y0070327D02*
X0084676Y0070327D01*
X0084655Y0070388D02*
X0085036Y0070388D01*
X0084873Y0070450D02*
X0084635Y0070450D01*
X0084658Y0070511D02*
X0084709Y0070511D01*
X0086736Y0072233D02*
X0087519Y0072233D01*
X0087598Y0072172D02*
X0086790Y0072172D01*
X0086844Y0072110D02*
X0087677Y0072110D01*
X0087755Y0072049D02*
X0086898Y0072049D01*
X0086952Y0071987D02*
X0087833Y0071987D01*
X0087912Y0071926D02*
X0087001Y0071926D01*
X0087048Y0071864D02*
X0087990Y0071864D01*
X0088068Y0071803D02*
X0087095Y0071803D01*
X0087134Y0071741D02*
X0088147Y0071741D01*
X0088225Y0071680D02*
X0087169Y0071680D01*
X0087204Y0071618D02*
X0088303Y0071618D01*
X0088382Y0071557D02*
X0087243Y0071557D01*
X0087284Y0071495D02*
X0088461Y0071495D01*
X0088543Y0071434D02*
X0087325Y0071434D01*
X0087378Y0071372D02*
X0088624Y0071372D01*
X0088706Y0071311D02*
X0087448Y0071311D01*
X0087519Y0071249D02*
X0088787Y0071249D01*
X0088869Y0071188D02*
X0087643Y0071188D01*
X0087766Y0071126D02*
X0088950Y0071126D01*
X0089028Y0071065D02*
X0087876Y0071065D01*
X0087935Y0071003D02*
X0089095Y0071003D01*
X0089162Y0070942D02*
X0087991Y0070942D01*
X0088040Y0070880D02*
X0089229Y0070880D01*
X0089296Y0070819D02*
X0088089Y0070819D01*
X0088137Y0070757D02*
X0089363Y0070757D01*
X0089430Y0070696D02*
X0088186Y0070696D01*
X0088234Y0070634D02*
X0089497Y0070634D01*
X0089564Y0070573D02*
X0088295Y0070573D01*
X0088358Y0070511D02*
X0089637Y0070511D01*
X0089710Y0070450D02*
X0088421Y0070450D01*
X0088484Y0070388D02*
X0089782Y0070388D01*
X0089855Y0070327D02*
X0088546Y0070327D01*
X0088609Y0070265D02*
X0089928Y0070265D01*
X0090000Y0070204D02*
X0088671Y0070204D01*
X0088733Y0070142D02*
X0090073Y0070142D01*
X0090146Y0070081D02*
X0088792Y0070081D01*
X0088839Y0070019D02*
X0090219Y0070019D01*
X0090291Y0069958D02*
X0088886Y0069958D01*
X0088932Y0069896D02*
X0090364Y0069896D01*
X0090438Y0069835D02*
X0088979Y0069835D01*
X0089027Y0069773D02*
X0090513Y0069773D01*
X0090588Y0069712D02*
X0089075Y0069712D01*
X0089124Y0069650D02*
X0090662Y0069650D01*
X0090737Y0069589D02*
X0089192Y0069589D01*
X0089262Y0069527D02*
X0090812Y0069527D01*
X0090886Y0069466D02*
X0089348Y0069466D01*
X0089452Y0069404D02*
X0090961Y0069404D01*
X0091036Y0069343D02*
X0089557Y0069343D01*
X0089664Y0069281D02*
X0091110Y0069281D01*
X0091185Y0069220D02*
X0089766Y0069220D01*
X0089841Y0069158D02*
X0091260Y0069158D01*
X0091334Y0069097D02*
X0089916Y0069097D01*
X0089990Y0069035D02*
X0091409Y0069035D01*
X0091483Y0068974D02*
X0090045Y0068974D01*
X0090099Y0068912D02*
X0091558Y0068912D01*
X0091632Y0068851D02*
X0090153Y0068851D01*
X0090202Y0068789D02*
X0091722Y0068789D01*
X0091823Y0068728D02*
X0090239Y0068728D01*
X0090277Y0068666D02*
X0091924Y0068666D01*
X0092026Y0068605D02*
X0090302Y0068605D01*
X0090325Y0068543D02*
X0092128Y0068543D01*
X0092228Y0068481D02*
X0090348Y0068481D01*
X0090358Y0068420D02*
X0092304Y0068420D01*
X0092381Y0068358D02*
X0090369Y0068358D01*
X0090381Y0068297D02*
X0092457Y0068297D01*
X0092531Y0068235D02*
X0090488Y0068235D01*
X0090685Y0068051D02*
X0092716Y0068051D01*
X0092777Y0067989D02*
X0090616Y0067989D01*
X0090567Y0067928D02*
X0090537Y0067845D01*
X0090537Y0067805D02*
X0092962Y0067805D01*
X0093023Y0067743D02*
X0090544Y0067743D01*
X0090568Y0067682D02*
X0093085Y0067682D01*
X0093146Y0067620D02*
X0090623Y0067620D01*
X0090692Y0067559D02*
X0093208Y0067559D01*
X0093269Y0067497D02*
X0090763Y0067497D01*
X0090834Y0067436D02*
X0093331Y0067436D01*
X0093392Y0067374D02*
X0090887Y0067374D01*
X0090940Y0067313D02*
X0093459Y0067313D01*
X0093527Y0067251D02*
X0090993Y0067251D01*
X0091042Y0067190D02*
X0093595Y0067190D01*
X0093663Y0067128D02*
X0091090Y0067128D01*
X0091138Y0067067D02*
X0093732Y0067067D01*
X0093818Y0067005D02*
X0091186Y0067005D01*
X0091234Y0066944D02*
X0093918Y0066944D01*
X0094018Y0066882D02*
X0091282Y0066882D01*
X0091330Y0066821D02*
X0094117Y0066821D01*
X0094229Y0066759D02*
X0091377Y0066759D01*
X0091425Y0066698D02*
X0096411Y0066698D01*
X0096389Y0066759D02*
X0094354Y0066759D01*
X0094354Y0066821D02*
X0096367Y0066821D01*
X0096346Y0066882D02*
X0094354Y0066882D01*
X0094354Y0066944D02*
X0096324Y0066944D01*
X0096311Y0066981D02*
X0096174Y0067399D01*
X0095995Y0067801D01*
X0094922Y0070137D01*
X0094454Y0071121D01*
X0093884Y0072051D01*
X0093218Y0072914D01*
X0093204Y0072925D01*
X0093221Y0072910D02*
X0093152Y0072910D01*
X0093113Y0072848D02*
X0093269Y0072848D01*
X0093316Y0072787D02*
X0093091Y0072787D01*
X0093085Y0072725D02*
X0093364Y0072725D01*
X0093411Y0072664D02*
X0093078Y0072664D01*
X0093071Y0072602D02*
X0093458Y0072602D01*
X0093506Y0072541D02*
X0093070Y0072541D01*
X0093077Y0072479D02*
X0093553Y0072479D01*
X0093601Y0072418D02*
X0093084Y0072418D01*
X0093090Y0072356D02*
X0093648Y0072356D01*
X0093696Y0072295D02*
X0093106Y0072295D01*
X0093122Y0072233D02*
X0093743Y0072233D01*
X0093790Y0072172D02*
X0093139Y0072172D01*
X0093156Y0072110D02*
X0093838Y0072110D01*
X0093885Y0072049D02*
X0093173Y0072049D01*
X0093189Y0071987D02*
X0093923Y0071987D01*
X0093960Y0071926D02*
X0093206Y0071926D01*
X0093223Y0071864D02*
X0093998Y0071864D01*
X0094036Y0071803D02*
X0093240Y0071803D01*
X0093257Y0071741D02*
X0094074Y0071741D01*
X0094111Y0071680D02*
X0093273Y0071680D01*
X0093290Y0071618D02*
X0094149Y0071618D01*
X0094187Y0071557D02*
X0093307Y0071557D01*
X0093324Y0071495D02*
X0094224Y0071495D01*
X0094262Y0071434D02*
X0093340Y0071434D01*
X0093357Y0071372D02*
X0094300Y0071372D01*
X0094338Y0071311D02*
X0093374Y0071311D01*
X0093391Y0071249D02*
X0094375Y0071249D01*
X0094413Y0071188D02*
X0093407Y0071188D01*
X0093424Y0071126D02*
X0094451Y0071126D01*
X0094481Y0071065D02*
X0093441Y0071065D01*
X0093458Y0071003D02*
X0094510Y0071003D01*
X0094539Y0070942D02*
X0093475Y0070942D01*
X0093492Y0070880D02*
X0094568Y0070880D01*
X0094598Y0070819D02*
X0093509Y0070819D01*
X0093526Y0070757D02*
X0094627Y0070757D01*
X0094656Y0070696D02*
X0093544Y0070696D01*
X0093561Y0070634D02*
X0094685Y0070634D01*
X0094715Y0070573D02*
X0093578Y0070573D01*
X0093595Y0070511D02*
X0094744Y0070511D01*
X0094773Y0070450D02*
X0093613Y0070450D01*
X0093630Y0070388D02*
X0094802Y0070388D01*
X0094832Y0070327D02*
X0093647Y0070327D01*
X0093664Y0070265D02*
X0094861Y0070265D01*
X0094890Y0070204D02*
X0093681Y0070204D01*
X0093699Y0070142D02*
X0094919Y0070142D01*
X0094948Y0070081D02*
X0093716Y0070081D01*
X0093733Y0070019D02*
X0094976Y0070019D01*
X0095004Y0069958D02*
X0093750Y0069958D01*
X0093768Y0069896D02*
X0095032Y0069896D01*
X0095061Y0069835D02*
X0093785Y0069835D01*
X0093802Y0069773D02*
X0095089Y0069773D01*
X0095117Y0069712D02*
X0093819Y0069712D01*
X0093837Y0069650D02*
X0095146Y0069650D01*
X0095174Y0069589D02*
X0093854Y0069589D01*
X0093871Y0069527D02*
X0095202Y0069527D01*
X0095230Y0069466D02*
X0093888Y0069466D01*
X0093905Y0069404D02*
X0095259Y0069404D01*
X0095287Y0069343D02*
X0093933Y0069343D01*
X0094203Y0069281D02*
X0095315Y0069281D01*
X0095343Y0069220D02*
X0094260Y0069220D01*
X0094284Y0069158D02*
X0095372Y0069158D01*
X0095400Y0069097D02*
X0094288Y0069097D01*
X0094282Y0069035D02*
X0095428Y0069035D01*
X0095456Y0068974D02*
X0094269Y0068974D01*
X0094243Y0068912D02*
X0095485Y0068912D01*
X0095513Y0068851D02*
X0094218Y0068851D01*
X0094192Y0068789D02*
X0095541Y0068789D01*
X0095569Y0068728D02*
X0094175Y0068728D01*
X0094169Y0068666D02*
X0095598Y0068666D01*
X0095626Y0068605D02*
X0094167Y0068605D01*
X0094176Y0068543D02*
X0095654Y0068543D01*
X0095683Y0068481D02*
X0094185Y0068481D01*
X0094193Y0068420D02*
X0095711Y0068420D01*
X0095739Y0068358D02*
X0094202Y0068358D01*
X0094211Y0068297D02*
X0095767Y0068297D01*
X0095796Y0068235D02*
X0094220Y0068235D01*
X0094229Y0068174D02*
X0095824Y0068174D01*
X0095852Y0068112D02*
X0094239Y0068112D01*
X0094249Y0068051D02*
X0095880Y0068051D01*
X0095909Y0067989D02*
X0094260Y0067989D01*
X0094270Y0067928D02*
X0095937Y0067928D01*
X0095965Y0067866D02*
X0094280Y0067866D01*
X0094290Y0067805D02*
X0095993Y0067805D01*
X0096021Y0067743D02*
X0094300Y0067743D01*
X0094311Y0067682D02*
X0096048Y0067682D01*
X0096076Y0067620D02*
X0094321Y0067620D01*
X0094331Y0067559D02*
X0096103Y0067559D01*
X0096130Y0067497D02*
X0094341Y0067497D01*
X0094352Y0067436D02*
X0096158Y0067436D01*
X0096182Y0067374D02*
X0094354Y0067374D01*
X0094354Y0067313D02*
X0096202Y0067313D01*
X0096223Y0067251D02*
X0094354Y0067251D01*
X0094354Y0067190D02*
X0096243Y0067190D01*
X0096263Y0067128D02*
X0094354Y0067128D01*
X0094354Y0067067D02*
X0096283Y0067067D01*
X0096303Y0067005D02*
X0094354Y0067005D01*
X0096311Y0066981D02*
X0096702Y0065872D01*
X0097257Y0064835D01*
X0097510Y0064519D01*
X0098141Y0063762D01*
X0099340Y0062058D01*
X0100476Y0060417D01*
X0100981Y0059722D01*
X0101802Y0058586D01*
X0102001Y0058343D01*
X0102244Y0058144D01*
X0102433Y0058018D01*
X0101549Y0059596D01*
X0100540Y0061363D01*
X0100413Y0061616D01*
X0100413Y0061679D01*
X0101018Y0060961D01*
X0101676Y0060291D01*
X0102225Y0059695D01*
X0102686Y0059028D01*
X0103380Y0057702D01*
X0103699Y0057087D01*
X0104074Y0056504D01*
X0104768Y0055683D01*
X0104895Y0055557D01*
X0103885Y0043627D01*
X0095048Y0043691D01*
X0094813Y0043850D01*
X0094544Y0043943D01*
X0094228Y0044006D01*
X0094306Y0044048D01*
X0094392Y0044069D01*
X0094480Y0044069D01*
X0094506Y0044072D01*
X0094527Y0044085D01*
X0094541Y0044107D01*
X0094544Y0044132D01*
X0094533Y0044162D01*
X0094510Y0044185D01*
X0094480Y0044195D01*
X0093975Y0044258D01*
X0093912Y0044258D01*
X0093895Y0044261D01*
X0093881Y0044273D01*
X0093876Y0044290D01*
X0093881Y0044307D01*
X0093895Y0044319D01*
X0093912Y0044322D01*
X0093938Y0044324D01*
X0093960Y0044337D01*
X0093973Y0044359D01*
X0093975Y0044385D01*
X0093964Y0044414D01*
X0093942Y0044437D01*
X0093912Y0044448D01*
X0093344Y0044574D01*
X0093330Y0044583D01*
X0093322Y0044597D01*
X0093322Y0044614D01*
X0093330Y0044629D01*
X0093344Y0044637D01*
X0093688Y0044705D01*
X0094038Y0044700D01*
X0094064Y0044703D01*
X0094085Y0044717D01*
X0094099Y0044738D01*
X0094101Y0044763D01*
X0094068Y0044889D01*
X0094000Y0045000D01*
X0093904Y0045087D01*
X0093786Y0045142D01*
X0093379Y0045219D01*
X0092966Y0045205D01*
X0092523Y0045142D01*
X0092902Y0045394D01*
X0091829Y0045458D01*
X0090125Y0045458D01*
X0089115Y0045521D01*
X0088673Y0045584D01*
X0089212Y0045578D01*
X0089746Y0045647D01*
X0090062Y0045710D01*
X0089703Y0045803D01*
X0089368Y0045963D01*
X0089052Y0046152D01*
X0089421Y0046018D01*
X0089810Y0045963D01*
X0089910Y0045977D01*
X0089999Y0046026D01*
X0090071Y0046103D01*
X0090118Y0046196D01*
X0090136Y0046300D01*
X0090125Y0046404D01*
X0090029Y0046643D01*
X0089873Y0046846D01*
X0089607Y0047063D01*
X0089305Y0047225D01*
X0088547Y0047541D01*
X0088989Y0047604D01*
X0088610Y0047793D01*
X0088926Y0047793D01*
X0088962Y0047798D01*
X0088991Y0047819D01*
X0089007Y0047852D01*
X0089007Y0047888D01*
X0088989Y0047919D01*
X0088766Y0048114D01*
X0088511Y0048263D01*
X0088232Y0048361D01*
X0087727Y0048487D01*
X0087869Y0048618D01*
X0088042Y0048704D01*
X0088232Y0048740D01*
X0088301Y0048758D01*
X0088358Y0048803D01*
X0088378Y0048843D01*
X0088378Y0048889D01*
X0088358Y0048929D01*
X0088232Y0049056D01*
X0088098Y0049147D01*
X0087948Y0049211D01*
X0087790Y0049245D01*
X0087652Y0049286D01*
X0087537Y0049371D01*
X0087519Y0049400D01*
X0087512Y0049434D01*
X0087519Y0049468D01*
X0087537Y0049497D01*
X0087595Y0049540D01*
X0087664Y0049560D01*
X0087830Y0049602D01*
X0087979Y0049687D01*
X0088038Y0049751D01*
X0088071Y0049832D01*
X0088072Y0049920D01*
X0088042Y0050002D01*
X0087972Y0050089D01*
X0087881Y0050153D01*
X0087775Y0050188D01*
X0087664Y0050192D01*
X0087285Y0050192D01*
X0086717Y0050255D01*
X0086690Y0050253D01*
X0086666Y0050267D01*
X0086652Y0050290D01*
X0086654Y0050318D01*
X0086682Y0050372D01*
X0086726Y0050415D01*
X0086780Y0050444D01*
X0087032Y0050570D01*
X0087101Y0050627D01*
X0087159Y0050696D01*
X0087195Y0050773D01*
X0087206Y0050856D01*
X0087192Y0050940D01*
X0087154Y0051015D01*
X0087095Y0051075D01*
X0086717Y0051328D01*
X0086610Y0051410D01*
X0086527Y0051517D01*
X0086512Y0051558D01*
X0086512Y0051602D01*
X0086527Y0051643D01*
X0086577Y0051704D01*
X0086642Y0051748D01*
X0086717Y0051770D01*
X0086969Y0051787D01*
X0087222Y0051770D01*
X0087290Y0051771D01*
X0087355Y0051792D01*
X0087411Y0051833D01*
X0087472Y0051915D01*
X0087504Y0052012D01*
X0087505Y0052114D01*
X0087474Y0052211D01*
X0087365Y0052383D01*
X0087222Y0052527D01*
X0087078Y0052671D01*
X0086969Y0052843D01*
X0086949Y0052910D01*
X0086954Y0052980D01*
X0086983Y0053045D01*
X0087032Y0053095D01*
X0087067Y0053129D01*
X0087088Y0053173D01*
X0087095Y0053221D01*
X0087107Y0053356D01*
X0087150Y0053485D01*
X0087222Y0053600D01*
X0087329Y0053710D01*
X0087458Y0053795D01*
X0087601Y0053852D01*
X0087642Y0053873D01*
X0087673Y0053909D01*
X0087688Y0053953D01*
X0087684Y0054000D01*
X0087664Y0054042D01*
X0087616Y0054131D01*
X0087600Y0054231D01*
X0087616Y0054331D01*
X0087664Y0054420D01*
X0087683Y0054461D01*
X0087683Y0054506D01*
X0087664Y0054546D01*
X0087538Y0054680D01*
X0087389Y0054787D01*
X0087222Y0054862D01*
X0086717Y0055052D01*
X0086469Y0055118D01*
X0086212Y0055115D01*
X0086186Y0055117D01*
X0086164Y0055130D01*
X0086151Y0055152D01*
X0086149Y0055178D01*
X0086191Y0055314D01*
X0086275Y0055430D01*
X0086315Y0055486D01*
X0086337Y0055551D01*
X0086338Y0055620D01*
X0086316Y0055679D01*
X0086271Y0055724D01*
X0086212Y0055746D01*
X0086114Y0055769D01*
X0086023Y0055809D01*
X0085939Y0055879D01*
X0085886Y0055974D01*
X0085871Y0056082D01*
X0085896Y0056188D01*
X0085993Y0056359D01*
X0086121Y0056508D01*
X0086275Y0056630D01*
X0086780Y0056945D01*
X0087285Y0057324D01*
X0087550Y0057515D01*
X0087853Y0057639D01*
X0089115Y0058018D01*
X0089198Y0058060D01*
X0089263Y0058125D01*
X0089305Y0058207D01*
X0089310Y0058272D01*
X0102088Y0058272D01*
X0102013Y0058333D02*
X0089286Y0058333D01*
X0089287Y0058332D02*
X0089310Y0058272D01*
X0089305Y0058210D02*
X0102163Y0058210D01*
X0102238Y0058149D02*
X0089275Y0058149D01*
X0089225Y0058087D02*
X0102329Y0058087D01*
X0102395Y0058087D02*
X0103178Y0058087D01*
X0103211Y0058026D02*
X0102429Y0058026D01*
X0102422Y0058026D02*
X0089131Y0058026D01*
X0088936Y0057964D02*
X0103243Y0057964D01*
X0103275Y0057903D02*
X0088731Y0057903D01*
X0088526Y0057841D02*
X0103307Y0057841D01*
X0103340Y0057780D02*
X0088321Y0057780D01*
X0088116Y0057718D02*
X0103372Y0057718D01*
X0103404Y0057657D02*
X0087911Y0057657D01*
X0087746Y0057595D02*
X0103436Y0057595D01*
X0103467Y0057534D02*
X0087596Y0057534D01*
X0087491Y0057472D02*
X0103499Y0057472D01*
X0103531Y0057411D02*
X0087406Y0057411D01*
X0087320Y0057349D02*
X0103563Y0057349D01*
X0103595Y0057288D02*
X0087237Y0057288D01*
X0087155Y0057226D02*
X0103627Y0057226D01*
X0103658Y0057165D02*
X0087073Y0057165D01*
X0086991Y0057103D02*
X0103690Y0057103D01*
X0103728Y0057042D02*
X0086909Y0057042D01*
X0086827Y0056980D02*
X0103767Y0056980D01*
X0103807Y0056919D02*
X0086738Y0056919D01*
X0086639Y0056857D02*
X0103847Y0056857D01*
X0103886Y0056796D02*
X0086541Y0056796D01*
X0086442Y0056734D02*
X0103926Y0056734D01*
X0103965Y0056673D02*
X0086344Y0056673D01*
X0086252Y0056611D02*
X0104005Y0056611D01*
X0104044Y0056550D02*
X0086174Y0056550D01*
X0086104Y0056488D02*
X0104087Y0056488D01*
X0104139Y0056427D02*
X0086051Y0056427D01*
X0085999Y0056365D02*
X0104191Y0056365D01*
X0104243Y0056304D02*
X0085962Y0056304D01*
X0085927Y0056242D02*
X0104295Y0056242D01*
X0104347Y0056181D02*
X0085895Y0056181D01*
X0085880Y0056119D02*
X0104399Y0056119D01*
X0104451Y0056058D02*
X0085875Y0056058D01*
X0085883Y0055996D02*
X0104503Y0055996D01*
X0104555Y0055935D02*
X0085908Y0055935D01*
X0085946Y0055873D02*
X0104607Y0055873D01*
X0104659Y0055812D02*
X0086019Y0055812D01*
X0086193Y0055750D02*
X0104712Y0055750D01*
X0104764Y0055689D02*
X0086307Y0055689D01*
X0086335Y0055627D02*
X0104824Y0055627D01*
X0104886Y0055566D02*
X0086337Y0055566D01*
X0086321Y0055504D02*
X0104890Y0055504D01*
X0104885Y0055443D02*
X0086284Y0055443D01*
X0086240Y0055381D02*
X0104880Y0055381D01*
X0104941Y0055381D02*
X0106158Y0055381D01*
X0106192Y0055320D02*
X0104935Y0055320D01*
X0104875Y0055320D02*
X0086195Y0055320D01*
X0086174Y0055258D02*
X0104869Y0055258D01*
X0104929Y0055258D02*
X0106227Y0055258D01*
X0106262Y0055197D02*
X0104923Y0055197D01*
X0104864Y0055197D02*
X0086155Y0055197D01*
X0086161Y0055135D02*
X0104859Y0055135D01*
X0104917Y0055135D02*
X0106292Y0055135D01*
X0106283Y0055160D02*
X0106094Y0055493D01*
X0105698Y0056163D01*
X0105399Y0056882D01*
X0104984Y0057919D01*
X0104453Y0058902D01*
X0103971Y0059766D01*
X0103569Y0060669D01*
X0103557Y0060685D01*
X0103538Y0060690D01*
X0103519Y0060685D01*
X0103506Y0060669D01*
X0103443Y0060480D01*
X0103400Y0060204D01*
X0103421Y0059926D01*
X0103506Y0059659D01*
X0103553Y0059582D01*
X0103618Y0059517D01*
X0103696Y0059470D01*
X0103710Y0059457D01*
X0103716Y0059438D01*
X0103710Y0059420D01*
X0103696Y0059407D01*
X0103569Y0059470D01*
X0103443Y0059470D01*
X0103443Y0059407D01*
X0103491Y0058955D01*
X0103632Y0058523D01*
X0103814Y0058058D01*
X0103948Y0057576D01*
X0104025Y0057317D01*
X0104137Y0057071D01*
X0104579Y0056251D01*
X0104958Y0055557D01*
X0103569Y0041166D01*
X0111711Y0040976D01*
X0111964Y0040598D01*
X0111838Y0040408D01*
X0111844Y0040471D01*
X0111840Y0040513D01*
X0111822Y0040551D01*
X0111792Y0040580D01*
X0111753Y0040596D01*
X0111711Y0040598D01*
X0111643Y0040576D01*
X0111585Y0040535D01*
X0111556Y0040491D01*
X0111546Y0040440D01*
X0111556Y0040388D01*
X0111585Y0040345D01*
X0111629Y0040316D01*
X0111680Y0040305D01*
X0111731Y0040316D01*
X0111775Y0040345D01*
X0111809Y0040376D01*
X0111833Y0040416D01*
X0111901Y0040282D01*
X0111885Y0040310D01*
X0111858Y0040327D01*
X0111827Y0040332D01*
X0111796Y0040322D01*
X0111773Y0040300D01*
X0111727Y0040265D01*
X0111671Y0040251D01*
X0111614Y0040259D01*
X0111564Y0040288D01*
X0111496Y0040346D01*
X0111455Y0040425D01*
X0111446Y0040514D01*
X0111471Y0040599D01*
X0111506Y0040642D01*
X0111555Y0040665D01*
X0111610Y0040665D01*
X0111654Y0040664D01*
X0111697Y0040672D01*
X0111740Y0040695D01*
X0111772Y0040734D01*
X0111786Y0040781D01*
X0111782Y0040835D01*
X0111756Y0040882D01*
X0111711Y0040913D01*
X0111587Y0040950D01*
X0111457Y0040950D01*
X0111333Y0040913D01*
X0111243Y0040851D01*
X0111178Y0040764D01*
X0111144Y0040661D01*
X0111140Y0040551D01*
X0111161Y0040444D01*
X0111207Y0040345D01*
X0111291Y0040237D01*
X0111398Y0040151D01*
X0111522Y0040093D01*
X0111680Y0040067D01*
X0111838Y0040093D01*
X0111877Y0040117D01*
X0111901Y0040156D01*
X0111917Y0040250D01*
X0111901Y0040345D01*
X0111890Y0040408D01*
X0111901Y0040471D01*
X0111919Y0040499D01*
X0111948Y0040514D01*
X0111980Y0040514D01*
X0112009Y0040499D01*
X0112027Y0040471D01*
X0112051Y0040367D01*
X0112051Y0040260D01*
X0112027Y0040156D01*
X0111998Y0040101D01*
X0111955Y0040058D01*
X0111901Y0040030D01*
X0111734Y0039991D01*
X0111563Y0039991D01*
X0111396Y0040030D01*
X0111260Y0040101D01*
X0111152Y0040209D01*
X0111080Y0040345D01*
X0111048Y0040517D01*
X0111070Y0040691D01*
X0111144Y0040850D01*
X0111228Y0040944D01*
X0111336Y0041009D01*
X0111459Y0041039D01*
X0111576Y0041032D01*
X0111685Y0040988D01*
X0111775Y0040913D01*
X0111901Y0040724D01*
X0111964Y0040598D01*
X0111964Y0040282D01*
X0111901Y0040093D01*
X0111775Y0040030D01*
X0111692Y0040003D01*
X0111605Y0040003D01*
X0111522Y0040030D01*
X0111351Y0040139D01*
X0111207Y0040282D01*
X0111143Y0040387D01*
X0111109Y0040505D01*
X0111109Y0040627D01*
X0111143Y0040745D01*
X0111207Y0040850D01*
X0111333Y0040976D01*
X0110386Y0040976D01*
X0103569Y0041165D01*
X0102875Y0032960D01*
X0103380Y0032455D01*
X0103468Y0032383D01*
X0103569Y0032329D01*
X0103506Y0032140D01*
X0103464Y0031926D01*
X0103477Y0031709D01*
X0103544Y0031502D01*
X0103661Y0031319D01*
X0103820Y0031170D01*
X0104011Y0031067D01*
X0103822Y0031256D01*
X0103731Y0031380D01*
X0103684Y0031527D01*
X0103684Y0031680D01*
X0103731Y0031826D01*
X0103822Y0031950D01*
X0104453Y0031950D01*
X0104516Y0032014D01*
X0104832Y0032392D01*
X0104895Y0032454D01*
X0104977Y0032488D01*
X0105065Y0032488D01*
X0105147Y0032455D01*
X0105399Y0032266D01*
X0105021Y0032014D01*
X0104813Y0031843D01*
X0104642Y0031635D01*
X0104530Y0031419D01*
X0104466Y0031184D01*
X0104453Y0030941D01*
X0104480Y0030798D01*
X0104545Y0030669D01*
X0104642Y0030562D01*
X0104852Y0030416D01*
X0105084Y0030309D01*
X0104832Y0030562D01*
X0104758Y0030663D01*
X0104719Y0030783D01*
X0104719Y0030909D01*
X0104758Y0031028D01*
X0104832Y0031130D01*
X0105273Y0031130D01*
X0105463Y0031319D01*
X0105697Y0031506D01*
X0105968Y0031635D01*
X0106156Y0031677D01*
X0106348Y0031677D01*
X0106536Y0031635D01*
X0106639Y0031584D01*
X0106725Y0031508D01*
X0106914Y0031256D01*
X0107167Y0031256D01*
X0107735Y0030877D01*
X0107924Y0030751D01*
X0107975Y0030702D01*
X0108005Y0030637D01*
X0108009Y0030566D01*
X0107988Y0030499D01*
X0107902Y0030365D01*
X0107798Y0030246D01*
X0107924Y0030309D01*
X0108026Y0030375D01*
X0108111Y0030460D01*
X0108177Y0030562D01*
X0108224Y0030707D01*
X0108224Y0030859D01*
X0108177Y0031004D01*
X0108010Y0031273D01*
X0107798Y0031508D01*
X0108051Y0031382D01*
X0108745Y0031067D01*
X0108808Y0031067D01*
X0108998Y0031256D01*
X0109041Y0031285D01*
X0109092Y0031295D01*
X0109143Y0031285D01*
X0109186Y0031256D01*
X0109301Y0031110D01*
X0109376Y0030941D01*
X0109405Y0030751D01*
X0109376Y0030562D01*
X0109502Y0030625D01*
X0109566Y0030672D01*
X0109610Y0030738D01*
X0109629Y0030814D01*
X0109623Y0030990D01*
X0109580Y0031161D01*
X0109502Y0031319D01*
X0109390Y0031460D01*
X0109250Y0031572D01*
X0108977Y0031701D01*
X0108682Y0031761D01*
X0108485Y0031801D01*
X0108303Y0031887D01*
X0108051Y0032014D01*
X0107970Y0032058D01*
X0107906Y0032123D01*
X0107861Y0032203D01*
X0107843Y0032285D01*
X0107847Y0032370D01*
X0107875Y0032450D01*
X0107924Y0032519D01*
X0107998Y0032572D01*
X0108087Y0032594D01*
X0108177Y0032581D01*
X0108280Y0032531D01*
X0108366Y0032455D01*
X0108410Y0032382D01*
X0108425Y0032297D01*
X0108410Y0032213D01*
X0108366Y0032140D01*
X0108492Y0032266D01*
X0108544Y0032340D01*
X0108566Y0032428D01*
X0108555Y0032519D01*
X0108506Y0032622D01*
X0108429Y0032708D01*
X0108311Y0032786D01*
X0108177Y0032834D01*
X0108043Y0032883D01*
X0107924Y0032960D01*
X0107798Y0033086D01*
X0107609Y0033276D01*
X0107549Y0033315D01*
X0107483Y0033339D01*
X0106725Y0033465D01*
X0106498Y0033508D01*
X0106283Y0033592D01*
X0105842Y0033781D01*
X0105686Y0033824D01*
X0105526Y0033844D01*
X0105366Y0033863D01*
X0105210Y0033907D01*
X0104951Y0034019D01*
X0104705Y0034159D01*
X0104671Y0034188D01*
X0104642Y0034223D01*
X0104642Y0035170D01*
X0104611Y0035835D01*
X0104516Y0036495D01*
X0104516Y0038262D01*
X0104642Y0038326D01*
X0104876Y0038466D01*
X0105084Y0038641D01*
X0105526Y0039083D01*
X0103393Y0039083D01*
X0103416Y0039083D02*
X0092564Y0039083D01*
X0092461Y0039021D02*
X0103410Y0039021D01*
X0103388Y0039021D02*
X0105465Y0039021D01*
X0105526Y0039083D02*
X0105968Y0039524D01*
X0106346Y0039840D01*
X0106788Y0040156D01*
X0106909Y0040229D01*
X0107041Y0040282D01*
X0107477Y0040377D01*
X0107923Y0040399D01*
X0108366Y0040345D01*
X0109265Y0040108D01*
X0110133Y0039777D01*
X0110398Y0039630D01*
X0110632Y0039439D01*
X0110828Y0039209D01*
X0111396Y0038452D01*
X0111522Y0038262D01*
X0111571Y0038140D01*
X0111587Y0038010D01*
X0111571Y0037879D01*
X0111522Y0037757D01*
X0111436Y0037624D01*
X0111333Y0037505D01*
X0111585Y0037505D01*
X0111846Y0037537D01*
X0112090Y0037631D01*
X0112252Y0037745D01*
X0112381Y0037895D01*
X0112469Y0038073D01*
X0112547Y0038383D01*
X0112568Y0038702D01*
X0112532Y0039020D01*
X0112408Y0039443D01*
X0112216Y0039840D01*
X0112216Y0039904D01*
X0112279Y0040093D01*
X0112341Y0040410D01*
X0112320Y0040733D01*
X0112216Y0041039D01*
X0111964Y0041544D01*
X0111670Y0042063D01*
X0111333Y0042554D01*
X0110386Y0043691D01*
X0109060Y0044953D01*
X0109123Y0044763D01*
X0109060Y0044763D01*
X0108555Y0045079D01*
X0107798Y0045458D01*
X0107146Y0045661D01*
X0106473Y0045773D01*
X0106443Y0045784D01*
X0106420Y0045806D01*
X0106410Y0045836D01*
X0106390Y0046501D01*
X0106473Y0047162D01*
X0106498Y0047235D01*
X0106541Y0047300D01*
X0106599Y0047351D01*
X0107420Y0047856D01*
X0107889Y0048168D01*
X0108303Y0048550D01*
X0108748Y0049093D01*
X0109123Y0049687D01*
X0109343Y0050207D01*
X0109450Y0050762D01*
X0109439Y0051328D01*
X0109259Y0052170D01*
X0108935Y0052969D01*
X0108303Y0054357D01*
X0107735Y0055809D01*
X0107331Y0056743D01*
X0106851Y0057639D01*
X0106473Y0058397D01*
X0106232Y0058837D01*
X0105905Y0059217D01*
X0106031Y0058965D01*
X0106094Y0058776D01*
X0106346Y0057135D01*
X0106467Y0056463D01*
X0106662Y0055809D01*
X0107167Y0054357D01*
X0107483Y0053474D01*
X0107420Y0053474D01*
X0107167Y0053663D01*
X0106830Y0053981D01*
X0106574Y0054366D01*
X0106410Y0054799D01*
X0106283Y0055160D01*
X0106313Y0055074D02*
X0104912Y0055074D01*
X0104854Y0055074D02*
X0086633Y0055074D01*
X0086822Y0055012D02*
X0104849Y0055012D01*
X0104906Y0055012D02*
X0106335Y0055012D01*
X0106356Y0054951D02*
X0104900Y0054951D01*
X0104843Y0054951D02*
X0086986Y0054951D01*
X0087149Y0054889D02*
X0104838Y0054889D01*
X0104894Y0054889D02*
X0106378Y0054889D01*
X0106400Y0054828D02*
X0104888Y0054828D01*
X0104833Y0054828D02*
X0087298Y0054828D01*
X0087418Y0054766D02*
X0104828Y0054766D01*
X0104882Y0054766D02*
X0106422Y0054766D01*
X0106445Y0054705D02*
X0104876Y0054705D01*
X0104823Y0054705D02*
X0087504Y0054705D01*
X0087573Y0054643D02*
X0104817Y0054643D01*
X0104870Y0054643D02*
X0106469Y0054643D01*
X0106492Y0054582D02*
X0104864Y0054582D01*
X0104812Y0054582D02*
X0087631Y0054582D01*
X0087676Y0054520D02*
X0104807Y0054520D01*
X0104858Y0054520D02*
X0106515Y0054520D01*
X0106539Y0054459D02*
X0104852Y0054459D01*
X0104802Y0054459D02*
X0087681Y0054459D01*
X0087651Y0054397D02*
X0104797Y0054397D01*
X0104846Y0054397D02*
X0106562Y0054397D01*
X0106594Y0054336D02*
X0104840Y0054336D01*
X0104791Y0054336D02*
X0087618Y0054336D01*
X0087607Y0054274D02*
X0104786Y0054274D01*
X0104834Y0054274D02*
X0106635Y0054274D01*
X0106676Y0054213D02*
X0104828Y0054213D01*
X0104781Y0054213D02*
X0087603Y0054213D01*
X0087613Y0054151D02*
X0104776Y0054151D01*
X0104822Y0054151D02*
X0106717Y0054151D01*
X0106758Y0054090D02*
X0104817Y0054090D01*
X0104771Y0054090D02*
X0087638Y0054090D01*
X0087670Y0054028D02*
X0104765Y0054028D01*
X0104811Y0054028D02*
X0106799Y0054028D01*
X0106846Y0053967D02*
X0104805Y0053967D01*
X0104760Y0053967D02*
X0087687Y0053967D01*
X0087670Y0053905D02*
X0104755Y0053905D01*
X0104799Y0053905D02*
X0106911Y0053905D01*
X0106976Y0053844D02*
X0104793Y0053844D01*
X0104750Y0053844D02*
X0087579Y0053844D01*
X0087438Y0053782D02*
X0104745Y0053782D01*
X0104787Y0053782D02*
X0107041Y0053782D01*
X0107106Y0053721D02*
X0104781Y0053721D01*
X0104739Y0053721D02*
X0087346Y0053721D01*
X0087280Y0053659D02*
X0104734Y0053659D01*
X0104775Y0053659D02*
X0107172Y0053659D01*
X0107254Y0053598D02*
X0104769Y0053598D01*
X0104729Y0053598D02*
X0087220Y0053598D01*
X0087182Y0053536D02*
X0104724Y0053536D01*
X0104763Y0053536D02*
X0107336Y0053536D01*
X0107418Y0053475D02*
X0104757Y0053475D01*
X0104718Y0053475D02*
X0087147Y0053475D01*
X0087126Y0053413D02*
X0104713Y0053413D01*
X0104751Y0053413D02*
X0108732Y0053413D01*
X0108760Y0053352D02*
X0104745Y0053352D01*
X0104708Y0053352D02*
X0087107Y0053352D01*
X0087101Y0053290D02*
X0104703Y0053290D01*
X0104739Y0053290D02*
X0108788Y0053290D01*
X0108816Y0053229D02*
X0104733Y0053229D01*
X0104698Y0053229D02*
X0087096Y0053229D01*
X0087086Y0053167D02*
X0104692Y0053167D01*
X0104728Y0053167D02*
X0108844Y0053167D01*
X0108872Y0053106D02*
X0104722Y0053106D01*
X0104687Y0053106D02*
X0087043Y0053106D01*
X0086983Y0053044D02*
X0104682Y0053044D01*
X0104716Y0053044D02*
X0108900Y0053044D01*
X0108928Y0052983D02*
X0104710Y0052983D01*
X0104677Y0052983D02*
X0086955Y0052983D01*
X0086950Y0052921D02*
X0104672Y0052921D01*
X0104704Y0052921D02*
X0108954Y0052921D01*
X0108979Y0052860D02*
X0104698Y0052860D01*
X0104666Y0052860D02*
X0086964Y0052860D01*
X0086997Y0052798D02*
X0104661Y0052798D01*
X0104692Y0052798D02*
X0109004Y0052798D01*
X0109029Y0052737D02*
X0104686Y0052737D01*
X0104656Y0052737D02*
X0087037Y0052737D01*
X0087076Y0052675D02*
X0104651Y0052675D01*
X0104680Y0052675D02*
X0109054Y0052675D01*
X0109079Y0052614D02*
X0104674Y0052614D01*
X0104646Y0052614D02*
X0087136Y0052614D01*
X0087197Y0052552D02*
X0104640Y0052552D01*
X0104668Y0052552D02*
X0109104Y0052552D01*
X0109129Y0052491D02*
X0104662Y0052491D01*
X0104635Y0052491D02*
X0087258Y0052491D01*
X0087319Y0052429D02*
X0104630Y0052429D01*
X0104656Y0052429D02*
X0109154Y0052429D01*
X0109179Y0052368D02*
X0104650Y0052368D01*
X0104625Y0052368D02*
X0087375Y0052368D01*
X0087414Y0052306D02*
X0104620Y0052306D01*
X0104644Y0052306D02*
X0109204Y0052306D01*
X0109229Y0052245D02*
X0104638Y0052245D01*
X0104614Y0052245D02*
X0087453Y0052245D01*
X0087483Y0052183D02*
X0104609Y0052183D01*
X0104633Y0052183D02*
X0109254Y0052183D01*
X0109269Y0052122D02*
X0104627Y0052122D01*
X0104604Y0052122D02*
X0087502Y0052122D01*
X0087504Y0052060D02*
X0104599Y0052060D01*
X0104621Y0052060D02*
X0109282Y0052060D01*
X0109296Y0051999D02*
X0104615Y0051999D01*
X0104594Y0051999D02*
X0087500Y0051999D01*
X0087479Y0051937D02*
X0104588Y0051937D01*
X0104609Y0051937D02*
X0109309Y0051937D01*
X0109322Y0051876D02*
X0104603Y0051876D01*
X0104583Y0051876D02*
X0087443Y0051876D01*
X0087385Y0051814D02*
X0104578Y0051814D01*
X0104597Y0051814D02*
X0109335Y0051814D01*
X0109348Y0051753D02*
X0104591Y0051753D01*
X0104573Y0051753D02*
X0086659Y0051753D01*
X0086566Y0051691D02*
X0104568Y0051691D01*
X0104585Y0051691D02*
X0109361Y0051691D01*
X0109375Y0051630D02*
X0104579Y0051630D01*
X0104562Y0051630D02*
X0086522Y0051630D01*
X0086512Y0051568D02*
X0104557Y0051568D01*
X0104573Y0051568D02*
X0109388Y0051568D01*
X0109401Y0051507D02*
X0104567Y0051507D01*
X0104552Y0051507D02*
X0086535Y0051507D01*
X0086583Y0051445D02*
X0104547Y0051445D01*
X0104561Y0051445D02*
X0109414Y0051445D01*
X0109427Y0051384D02*
X0104555Y0051384D01*
X0104541Y0051384D02*
X0086644Y0051384D01*
X0086725Y0051322D02*
X0104536Y0051322D01*
X0104549Y0051322D02*
X0109439Y0051322D01*
X0109441Y0051261D02*
X0104543Y0051261D01*
X0104531Y0051261D02*
X0086817Y0051261D01*
X0086909Y0051199D02*
X0104526Y0051199D01*
X0104538Y0051199D02*
X0109442Y0051199D01*
X0109443Y0051138D02*
X0104532Y0051138D01*
X0104521Y0051138D02*
X0087002Y0051138D01*
X0087094Y0051076D02*
X0104515Y0051076D01*
X0104526Y0051076D02*
X0109444Y0051076D01*
X0109445Y0051015D02*
X0104520Y0051015D01*
X0104510Y0051015D02*
X0087154Y0051015D01*
X0087185Y0050953D02*
X0104505Y0050953D01*
X0104514Y0050953D02*
X0109446Y0050953D01*
X0109447Y0050892D02*
X0104508Y0050892D01*
X0104500Y0050892D02*
X0087200Y0050892D01*
X0087202Y0050830D02*
X0104495Y0050830D01*
X0104502Y0050830D02*
X0109449Y0050830D01*
X0109450Y0050769D02*
X0104496Y0050769D01*
X0104489Y0050769D02*
X0087193Y0050769D01*
X0087164Y0050707D02*
X0104484Y0050707D01*
X0104490Y0050707D02*
X0109439Y0050707D01*
X0109427Y0050645D02*
X0104484Y0050645D01*
X0104479Y0050645D02*
X0087117Y0050645D01*
X0087049Y0050584D02*
X0104474Y0050584D01*
X0104478Y0050584D02*
X0109416Y0050584D01*
X0109404Y0050522D02*
X0104472Y0050522D01*
X0104469Y0050522D02*
X0086937Y0050522D01*
X0086814Y0050461D02*
X0104463Y0050461D01*
X0104466Y0050461D02*
X0109392Y0050461D01*
X0109380Y0050399D02*
X0104460Y0050399D01*
X0104458Y0050399D02*
X0086710Y0050399D01*
X0086664Y0050338D02*
X0104453Y0050338D01*
X0104454Y0050338D02*
X0109368Y0050338D01*
X0109356Y0050276D02*
X0104449Y0050276D01*
X0104448Y0050276D02*
X0086660Y0050276D01*
X0087075Y0050215D02*
X0104443Y0050215D01*
X0109345Y0050215D01*
X0109320Y0050153D02*
X0104437Y0050153D01*
X0087880Y0050153D01*
X0087969Y0050092D02*
X0104432Y0050092D01*
X0104431Y0050092D02*
X0109294Y0050092D01*
X0109268Y0050030D02*
X0104425Y0050030D01*
X0104427Y0050030D02*
X0088019Y0050030D01*
X0088054Y0049969D02*
X0104422Y0049969D01*
X0104419Y0049969D02*
X0109243Y0049969D01*
X0109217Y0049907D02*
X0104413Y0049907D01*
X0104417Y0049907D02*
X0088072Y0049907D01*
X0088071Y0049846D02*
X0104411Y0049846D01*
X0104407Y0049846D02*
X0109191Y0049846D01*
X0109165Y0049784D02*
X0104401Y0049784D01*
X0104406Y0049784D02*
X0088052Y0049784D01*
X0088012Y0049723D02*
X0104401Y0049723D01*
X0104395Y0049723D02*
X0109139Y0049723D01*
X0109108Y0049661D02*
X0104389Y0049661D01*
X0104396Y0049661D02*
X0087934Y0049661D01*
X0087820Y0049600D02*
X0104391Y0049600D01*
X0104383Y0049600D02*
X0109069Y0049600D01*
X0109030Y0049538D02*
X0104377Y0049538D01*
X0104385Y0049538D02*
X0087593Y0049538D01*
X0087524Y0049477D02*
X0104380Y0049477D01*
X0104371Y0049477D02*
X0108991Y0049477D01*
X0108952Y0049415D02*
X0104365Y0049415D01*
X0104375Y0049415D02*
X0087516Y0049415D01*
X0087561Y0049354D02*
X0104370Y0049354D01*
X0104359Y0049354D02*
X0108913Y0049354D01*
X0108874Y0049292D02*
X0104354Y0049292D01*
X0104364Y0049292D02*
X0087643Y0049292D01*
X0087855Y0049231D02*
X0104359Y0049231D01*
X0104348Y0049231D02*
X0108835Y0049231D01*
X0108796Y0049169D02*
X0104342Y0049169D01*
X0104354Y0049169D02*
X0088045Y0049169D01*
X0088155Y0049108D02*
X0104349Y0049108D01*
X0104336Y0049108D02*
X0108757Y0049108D01*
X0108709Y0049046D02*
X0104330Y0049046D01*
X0104344Y0049046D02*
X0088241Y0049046D01*
X0088302Y0048985D02*
X0104338Y0048985D01*
X0104324Y0048985D02*
X0108659Y0048985D01*
X0108609Y0048923D02*
X0104318Y0048923D01*
X0104333Y0048923D02*
X0088361Y0048923D01*
X0088378Y0048862D02*
X0104328Y0048862D01*
X0104312Y0048862D02*
X0108558Y0048862D01*
X0108508Y0048800D02*
X0104306Y0048800D01*
X0104323Y0048800D02*
X0088355Y0048800D01*
X0088227Y0048739D02*
X0104318Y0048739D01*
X0104300Y0048739D02*
X0108457Y0048739D01*
X0108407Y0048677D02*
X0104294Y0048677D01*
X0104312Y0048677D02*
X0087988Y0048677D01*
X0087867Y0048616D02*
X0104307Y0048616D01*
X0104288Y0048616D02*
X0108357Y0048616D01*
X0108306Y0048554D02*
X0104282Y0048554D01*
X0104302Y0048554D02*
X0087800Y0048554D01*
X0087733Y0048493D02*
X0104297Y0048493D01*
X0104276Y0048493D02*
X0108241Y0048493D01*
X0108174Y0048431D02*
X0104270Y0048431D01*
X0104292Y0048431D02*
X0087951Y0048431D01*
X0088196Y0048370D02*
X0104286Y0048370D01*
X0104264Y0048370D02*
X0108107Y0048370D01*
X0108041Y0048308D02*
X0104259Y0048308D01*
X0104281Y0048308D02*
X0088381Y0048308D01*
X0088538Y0048247D02*
X0104276Y0048247D01*
X0104253Y0048247D02*
X0107974Y0048247D01*
X0107907Y0048185D02*
X0104247Y0048185D01*
X0104271Y0048185D02*
X0088643Y0048185D01*
X0088748Y0048124D02*
X0104266Y0048124D01*
X0104241Y0048124D02*
X0107822Y0048124D01*
X0107729Y0048062D02*
X0104235Y0048062D01*
X0104260Y0048062D02*
X0088825Y0048062D01*
X0088895Y0048001D02*
X0104255Y0048001D01*
X0104229Y0048001D02*
X0107637Y0048001D01*
X0107544Y0047939D02*
X0104223Y0047939D01*
X0104250Y0047939D02*
X0088966Y0047939D01*
X0089007Y0047878D02*
X0104245Y0047878D01*
X0104217Y0047878D02*
X0107452Y0047878D01*
X0107355Y0047816D02*
X0104211Y0047816D01*
X0104240Y0047816D02*
X0088987Y0047816D01*
X0088932Y0047632D02*
X0104224Y0047632D01*
X0104193Y0047632D02*
X0107055Y0047632D01*
X0107155Y0047693D02*
X0104199Y0047693D01*
X0104229Y0047693D02*
X0088810Y0047693D01*
X0088756Y0047570D02*
X0104219Y0047570D01*
X0104187Y0047570D02*
X0106955Y0047570D01*
X0106855Y0047509D02*
X0104181Y0047509D01*
X0104213Y0047509D02*
X0088623Y0047509D01*
X0088771Y0047447D02*
X0104208Y0047447D01*
X0104175Y0047447D02*
X0106755Y0047447D01*
X0106655Y0047386D02*
X0104170Y0047386D01*
X0104203Y0047386D02*
X0088918Y0047386D01*
X0089066Y0047324D02*
X0104198Y0047324D01*
X0104164Y0047324D02*
X0106569Y0047324D01*
X0106516Y0047263D02*
X0104158Y0047263D01*
X0104193Y0047263D02*
X0089213Y0047263D01*
X0089349Y0047201D02*
X0104187Y0047201D01*
X0104152Y0047201D02*
X0106486Y0047201D01*
X0106470Y0047140D02*
X0104146Y0047140D01*
X0104182Y0047140D02*
X0089464Y0047140D01*
X0089579Y0047078D02*
X0104177Y0047078D01*
X0104140Y0047078D02*
X0106462Y0047078D01*
X0106455Y0047017D02*
X0104134Y0047017D01*
X0104172Y0047017D02*
X0089664Y0047017D01*
X0089739Y0046955D02*
X0104167Y0046955D01*
X0104128Y0046955D02*
X0106447Y0046955D01*
X0106439Y0046894D02*
X0104122Y0046894D01*
X0104161Y0046894D02*
X0089815Y0046894D01*
X0089884Y0046832D02*
X0104156Y0046832D01*
X0104116Y0046832D02*
X0106431Y0046832D01*
X0106424Y0046771D02*
X0104110Y0046771D01*
X0104151Y0046771D02*
X0089931Y0046771D01*
X0089978Y0046709D02*
X0104146Y0046709D01*
X0104104Y0046709D02*
X0106416Y0046709D01*
X0106408Y0046648D02*
X0104098Y0046648D01*
X0104141Y0046648D02*
X0090025Y0046648D01*
X0090052Y0046586D02*
X0104135Y0046586D01*
X0104092Y0046586D02*
X0106401Y0046586D01*
X0106393Y0046525D02*
X0104086Y0046525D01*
X0104130Y0046525D02*
X0090077Y0046525D01*
X0090101Y0046463D02*
X0104125Y0046463D01*
X0104080Y0046463D02*
X0106391Y0046463D01*
X0106393Y0046402D02*
X0104075Y0046402D01*
X0104120Y0046402D02*
X0090125Y0046402D01*
X0090132Y0046340D02*
X0104115Y0046340D01*
X0104069Y0046340D02*
X0106395Y0046340D01*
X0106397Y0046279D02*
X0104063Y0046279D01*
X0104109Y0046279D02*
X0090132Y0046279D01*
X0090121Y0046217D02*
X0104104Y0046217D01*
X0104057Y0046217D02*
X0106398Y0046217D01*
X0106400Y0046156D02*
X0104051Y0046156D01*
X0104099Y0046156D02*
X0090097Y0046156D01*
X0090063Y0046094D02*
X0104094Y0046094D01*
X0104045Y0046094D02*
X0106402Y0046094D01*
X0106404Y0046033D02*
X0104039Y0046033D01*
X0104089Y0046033D02*
X0090006Y0046033D01*
X0089870Y0045971D02*
X0104083Y0045971D01*
X0104033Y0045971D02*
X0106406Y0045971D01*
X0106408Y0045910D02*
X0104027Y0045910D01*
X0104078Y0045910D02*
X0089479Y0045910D01*
X0089353Y0045971D02*
X0089749Y0045971D01*
X0089765Y0045787D02*
X0104068Y0045787D01*
X0104015Y0045787D02*
X0106439Y0045787D01*
X0106409Y0045848D02*
X0104021Y0045848D01*
X0104073Y0045848D02*
X0089608Y0045848D01*
X0089831Y0045664D02*
X0104057Y0045664D01*
X0104003Y0045664D02*
X0107128Y0045664D01*
X0107334Y0045602D02*
X0103997Y0045602D01*
X0104052Y0045602D02*
X0089399Y0045602D01*
X0089783Y0045479D02*
X0104042Y0045479D01*
X0103985Y0045479D02*
X0107730Y0045479D01*
X0107879Y0045418D02*
X0103980Y0045418D01*
X0104036Y0045418D02*
X0092509Y0045418D01*
X0092660Y0045233D02*
X0104021Y0045233D01*
X0103962Y0045233D02*
X0108247Y0045233D01*
X0108370Y0045172D02*
X0103956Y0045172D01*
X0104016Y0045172D02*
X0093629Y0045172D01*
X0093854Y0045110D02*
X0104010Y0045110D01*
X0103950Y0045110D02*
X0108493Y0045110D01*
X0108604Y0045049D02*
X0103944Y0045049D01*
X0104005Y0045049D02*
X0093946Y0045049D01*
X0094008Y0044987D02*
X0104000Y0044987D01*
X0103995Y0044926D02*
X0094046Y0044926D01*
X0094075Y0044864D02*
X0103990Y0044864D01*
X0103984Y0044803D02*
X0094091Y0044803D01*
X0094099Y0044741D02*
X0103979Y0044741D01*
X0103974Y0044680D02*
X0093559Y0044680D01*
X0093422Y0044557D02*
X0103964Y0044557D01*
X0103969Y0044618D02*
X0093324Y0044618D01*
X0093699Y0044495D02*
X0103958Y0044495D01*
X0103953Y0044434D02*
X0093945Y0044434D01*
X0093974Y0044372D02*
X0103948Y0044372D01*
X0103943Y0044311D02*
X0093885Y0044311D01*
X0094049Y0044249D02*
X0103938Y0044249D01*
X0103932Y0044188D02*
X0094502Y0044188D01*
X0094543Y0044126D02*
X0103927Y0044126D01*
X0103922Y0044065D02*
X0094374Y0044065D01*
X0094242Y0044003D02*
X0103917Y0044003D01*
X0103912Y0043942D02*
X0094547Y0043942D01*
X0094726Y0043880D02*
X0103906Y0043880D01*
X0103901Y0043819D02*
X0094860Y0043819D01*
X0094950Y0043757D02*
X0103896Y0043757D01*
X0103891Y0043696D02*
X0095041Y0043696D01*
X0094985Y0043691D02*
X0092650Y0043817D01*
X0091072Y0044069D01*
X0090570Y0044155D01*
X0090062Y0044195D01*
X0089519Y0044252D01*
X0088989Y0044385D01*
X0088232Y0044637D01*
X0086023Y0045458D01*
X0085402Y0045660D01*
X0084760Y0045773D01*
X0086780Y0044511D01*
X0086654Y0044511D01*
X0085833Y0044889D01*
X0084381Y0045647D01*
X0084199Y0045730D01*
X0084003Y0045773D01*
X0083746Y0045772D01*
X0083498Y0045710D01*
X0083396Y0045657D01*
X0083308Y0045584D01*
X0083939Y0044889D01*
X0083624Y0044953D01*
X0083372Y0044953D01*
X0083435Y0044826D01*
X0083647Y0044496D01*
X0083924Y0044218D01*
X0084255Y0044006D01*
X0084269Y0043993D01*
X0084274Y0043974D01*
X0084269Y0043956D01*
X0084255Y0043943D01*
X0084129Y0043943D01*
X0083366Y0043990D01*
X0082614Y0044132D01*
X0082677Y0043880D01*
X0082742Y0043723D01*
X0082851Y0043593D01*
X0082993Y0043501D01*
X0083308Y0043311D01*
X0083347Y0043268D01*
X0083368Y0043214D01*
X0083368Y0043156D01*
X0083347Y0043102D01*
X0083308Y0043059D01*
X0083188Y0042984D01*
X0083056Y0042933D01*
X0082586Y0042852D01*
X0082109Y0042870D01*
X0081604Y0042933D01*
X0081579Y0042930D01*
X0081558Y0042916D01*
X0081544Y0042895D01*
X0081541Y0042870D01*
X0081593Y0042613D01*
X0081698Y0042373D01*
X0081851Y0042161D01*
X0082046Y0041986D01*
X0082058Y0041972D01*
X0082062Y0041955D01*
X0082058Y0041937D01*
X0082046Y0041923D01*
X0081910Y0041807D01*
X0081794Y0041670D01*
X0082109Y0041418D01*
X0082046Y0041418D01*
X0081815Y0041393D01*
X0081594Y0041319D01*
X0081395Y0041199D01*
X0081225Y0041039D01*
X0081983Y0040913D01*
X0082738Y0040835D01*
X0083498Y0040850D01*
X0083182Y0040535D01*
X0084571Y0040598D01*
X0085175Y0040580D01*
X0085770Y0040471D01*
X0086149Y0040408D01*
X0088926Y0040282D01*
X0089810Y0040282D01*
X0089746Y0040093D01*
X0089665Y0039896D01*
X0089557Y0039714D01*
X0089431Y0039524D01*
X0089999Y0039651D01*
X0090820Y0039904D01*
X0091147Y0040003D01*
X0091487Y0040045D01*
X0091829Y0040030D01*
X0092312Y0039914D01*
X0092761Y0039700D01*
X0093155Y0039398D01*
X0092776Y0039209D01*
X0092258Y0038901D01*
X0091792Y0038519D01*
X0091388Y0038073D01*
X0091766Y0038199D01*
X0091451Y0037820D01*
X0091640Y0037820D01*
X0091770Y0037836D01*
X0091892Y0037883D01*
X0092107Y0037970D01*
X0092335Y0038010D01*
X0092271Y0037820D01*
X0092586Y0037883D01*
X0093092Y0038010D01*
X0093622Y0038120D01*
X0094164Y0038136D01*
X0093723Y0037883D01*
X0093412Y0037661D01*
X0093155Y0037379D01*
X0093912Y0037631D01*
X0093660Y0037315D01*
X0093533Y0037126D01*
X0094228Y0037252D01*
X0095427Y0037442D01*
X0095625Y0037445D01*
X0095818Y0037402D01*
X0095995Y0037315D01*
X0096102Y0037219D01*
X0096174Y0037094D01*
X0096202Y0036953D01*
X0096185Y0036811D01*
X0096170Y0036682D01*
X0096200Y0036556D01*
X0096271Y0036447D01*
X0096374Y0036369D01*
X0096741Y0036229D01*
X0097131Y0036179D01*
X0096753Y0035422D01*
X0097510Y0035233D01*
X0097510Y0034854D01*
X0097889Y0034854D01*
X0097699Y0034601D01*
X0098520Y0034728D01*
X0099782Y0034854D01*
X0099807Y0034850D01*
X0099828Y0034836D01*
X0099841Y0034815D01*
X0099845Y0034791D01*
X0099845Y0034475D01*
X0099855Y0034340D01*
X0099898Y0034211D01*
X0099972Y0034096D01*
X0100098Y0033970D01*
X0099719Y0033655D01*
X0100098Y0033528D01*
X0099909Y0033339D01*
X0100413Y0033276D01*
X0100540Y0033213D01*
X0100098Y0033023D01*
X0100413Y0032960D01*
X0100918Y0032897D01*
X0101045Y0032834D01*
X0100918Y0032581D01*
X0101360Y0032645D01*
X0101297Y0032519D01*
X0100918Y0032203D01*
X0101297Y0032266D01*
X0101740Y0032373D01*
X0102164Y0032542D01*
X0102559Y0032771D01*
X0102875Y0033023D01*
X0103822Y0043627D01*
X0094985Y0043691D01*
X0094891Y0043696D02*
X0082765Y0043696D01*
X0082728Y0043757D02*
X0093751Y0043757D01*
X0092637Y0043819D02*
X0082703Y0043819D01*
X0082677Y0043880D02*
X0092252Y0043880D01*
X0091868Y0043942D02*
X0082662Y0043942D01*
X0082646Y0044003D02*
X0083297Y0044003D01*
X0082971Y0044065D02*
X0082631Y0044065D01*
X0082645Y0044126D02*
X0082615Y0044126D01*
X0082817Y0043634D02*
X0102854Y0043634D01*
X0102918Y0043634D02*
X0103885Y0043634D01*
X0103807Y0043634D02*
X0110433Y0043634D01*
X0110484Y0043573D02*
X0103801Y0043573D01*
X0103817Y0043573D02*
X0082882Y0043573D01*
X0082977Y0043511D02*
X0103811Y0043511D01*
X0103796Y0043511D02*
X0110536Y0043511D01*
X0110587Y0043450D02*
X0103790Y0043450D01*
X0103806Y0043450D02*
X0083078Y0043450D01*
X0083180Y0043388D02*
X0103800Y0043388D01*
X0103784Y0043388D02*
X0110638Y0043388D01*
X0110689Y0043327D02*
X0103778Y0043327D01*
X0103795Y0043327D02*
X0083283Y0043327D01*
X0083348Y0043265D02*
X0103789Y0043265D01*
X0103772Y0043265D02*
X0110741Y0043265D01*
X0110792Y0043204D02*
X0103766Y0043204D01*
X0103784Y0043204D02*
X0083368Y0043204D01*
X0083362Y0043142D02*
X0103778Y0043142D01*
X0103760Y0043142D02*
X0110843Y0043142D01*
X0110894Y0043081D02*
X0103754Y0043081D01*
X0103773Y0043081D02*
X0083327Y0043081D01*
X0083244Y0043019D02*
X0103767Y0043019D01*
X0103748Y0043019D02*
X0110945Y0043019D01*
X0110997Y0042958D02*
X0103742Y0042958D01*
X0103762Y0042958D02*
X0083119Y0042958D01*
X0082841Y0042896D02*
X0103756Y0042896D01*
X0103736Y0042896D02*
X0111048Y0042896D01*
X0111099Y0042835D02*
X0103730Y0042835D01*
X0103751Y0042835D02*
X0081548Y0042835D01*
X0081545Y0042896D02*
X0081899Y0042896D01*
X0081560Y0042773D02*
X0103745Y0042773D01*
X0103724Y0042773D02*
X0111150Y0042773D01*
X0111202Y0042712D02*
X0103718Y0042712D01*
X0103740Y0042712D02*
X0081573Y0042712D01*
X0081585Y0042650D02*
X0103734Y0042650D01*
X0103712Y0042650D02*
X0111253Y0042650D01*
X0111304Y0042589D02*
X0103706Y0042589D01*
X0103729Y0042589D02*
X0081603Y0042589D01*
X0081630Y0042527D02*
X0103723Y0042527D01*
X0103701Y0042527D02*
X0111351Y0042527D01*
X0111394Y0042466D02*
X0103695Y0042466D01*
X0103718Y0042466D02*
X0081657Y0042466D01*
X0081684Y0042404D02*
X0103712Y0042404D01*
X0103689Y0042404D02*
X0111436Y0042404D01*
X0111478Y0042343D02*
X0103683Y0042343D01*
X0103707Y0042343D02*
X0081720Y0042343D01*
X0081764Y0042281D02*
X0103701Y0042281D01*
X0103677Y0042281D02*
X0111520Y0042281D01*
X0111562Y0042220D02*
X0103671Y0042220D01*
X0103696Y0042220D02*
X0081809Y0042220D01*
X0081854Y0042158D02*
X0103690Y0042158D01*
X0103665Y0042158D02*
X0111605Y0042158D01*
X0111647Y0042097D02*
X0103659Y0042097D01*
X0103685Y0042097D02*
X0081923Y0042097D01*
X0081992Y0042035D02*
X0103679Y0042035D01*
X0103653Y0042035D02*
X0111686Y0042035D01*
X0111721Y0041974D02*
X0103647Y0041974D01*
X0103674Y0041974D02*
X0082057Y0041974D01*
X0082033Y0041912D02*
X0103668Y0041912D01*
X0103641Y0041912D02*
X0111755Y0041912D01*
X0111790Y0041851D02*
X0103635Y0041851D01*
X0103663Y0041851D02*
X0081961Y0041851D01*
X0081895Y0041789D02*
X0103657Y0041789D01*
X0103629Y0041789D02*
X0111825Y0041789D01*
X0111860Y0041727D02*
X0103623Y0041727D01*
X0103652Y0041727D02*
X0081842Y0041727D01*
X0081799Y0041666D02*
X0103646Y0041666D01*
X0103617Y0041666D02*
X0111895Y0041666D01*
X0111930Y0041604D02*
X0103612Y0041604D01*
X0103641Y0041604D02*
X0081876Y0041604D01*
X0081953Y0041543D02*
X0103635Y0041543D01*
X0103606Y0041543D02*
X0111965Y0041543D01*
X0111996Y0041481D02*
X0103600Y0041481D01*
X0103630Y0041481D02*
X0082030Y0041481D01*
X0082107Y0041420D02*
X0103624Y0041420D01*
X0103594Y0041420D02*
X0112026Y0041420D01*
X0112057Y0041358D02*
X0103588Y0041358D01*
X0103619Y0041358D02*
X0081712Y0041358D01*
X0081558Y0041297D02*
X0103613Y0041297D01*
X0103582Y0041297D02*
X0112088Y0041297D01*
X0112118Y0041235D02*
X0103576Y0041235D01*
X0103608Y0041235D02*
X0081455Y0041235D01*
X0081368Y0041174D02*
X0103602Y0041174D01*
X0103570Y0041174D02*
X0112149Y0041174D01*
X0112180Y0041112D02*
X0105855Y0041112D01*
X0105473Y0041112D02*
X0103565Y0041112D01*
X0103597Y0041112D02*
X0081303Y0041112D01*
X0081238Y0041051D02*
X0103591Y0041051D01*
X0103559Y0041051D02*
X0107687Y0041051D01*
X0107463Y0040374D02*
X0103502Y0040374D01*
X0103531Y0040374D02*
X0086892Y0040374D01*
X0085982Y0040436D02*
X0103537Y0040436D01*
X0103507Y0040436D02*
X0111129Y0040436D01*
X0111165Y0040436D02*
X0111063Y0040436D01*
X0111052Y0040497D02*
X0111150Y0040497D01*
X0111111Y0040497D02*
X0103513Y0040497D01*
X0103542Y0040497D02*
X0085626Y0040497D01*
X0085288Y0040559D02*
X0103548Y0040559D01*
X0103518Y0040559D02*
X0111109Y0040559D01*
X0111140Y0040559D02*
X0111054Y0040559D01*
X0111061Y0040620D02*
X0111142Y0040620D01*
X0111109Y0040620D02*
X0103523Y0040620D01*
X0103553Y0040620D02*
X0083268Y0040620D01*
X0083206Y0040559D02*
X0083718Y0040559D01*
X0083453Y0040805D02*
X0103570Y0040805D01*
X0103539Y0040805D02*
X0111179Y0040805D01*
X0111208Y0040805D02*
X0111123Y0040805D01*
X0111142Y0040743D02*
X0103533Y0040743D01*
X0103564Y0040743D02*
X0083391Y0040743D01*
X0083330Y0040682D02*
X0103559Y0040682D01*
X0103528Y0040682D02*
X0111125Y0040682D01*
X0111151Y0040682D02*
X0111069Y0040682D01*
X0111094Y0040743D02*
X0111171Y0040743D01*
X0111158Y0040866D02*
X0111265Y0040866D01*
X0111223Y0040866D02*
X0103544Y0040866D01*
X0103575Y0040866D02*
X0082432Y0040866D01*
X0081893Y0040928D02*
X0103580Y0040928D01*
X0103549Y0040928D02*
X0111285Y0040928D01*
X0111304Y0040989D02*
X0111682Y0040989D01*
X0111661Y0040928D02*
X0111757Y0040928D01*
X0111743Y0040928D02*
X0112254Y0040928D01*
X0112233Y0040989D02*
X0111133Y0040989D01*
X0111214Y0040928D02*
X0111383Y0040928D01*
X0111488Y0040620D02*
X0111953Y0040620D01*
X0111949Y0040620D02*
X0112327Y0040620D01*
X0112331Y0040559D02*
X0111964Y0040559D01*
X0111938Y0040559D02*
X0111814Y0040559D01*
X0111842Y0040497D02*
X0111897Y0040497D01*
X0111918Y0040497D02*
X0112010Y0040497D01*
X0111964Y0040497D02*
X0112335Y0040497D01*
X0112339Y0040436D02*
X0111964Y0040436D01*
X0111964Y0040374D02*
X0112334Y0040374D01*
X0112322Y0040313D02*
X0111964Y0040313D01*
X0111906Y0040313D02*
X0112051Y0040313D01*
X0112049Y0040374D02*
X0111896Y0040374D01*
X0111854Y0040374D02*
X0111807Y0040374D01*
X0111786Y0040313D02*
X0111717Y0040313D01*
X0111643Y0040313D02*
X0111534Y0040313D01*
X0111566Y0040374D02*
X0111481Y0040374D01*
X0111454Y0040436D02*
X0111547Y0040436D01*
X0111561Y0040497D02*
X0111447Y0040497D01*
X0111459Y0040559D02*
X0111619Y0040559D01*
X0111716Y0040682D02*
X0111922Y0040682D01*
X0111908Y0040682D02*
X0112323Y0040682D01*
X0112316Y0040743D02*
X0111867Y0040743D01*
X0111888Y0040743D02*
X0111775Y0040743D01*
X0111785Y0040805D02*
X0111847Y0040805D01*
X0111826Y0040805D02*
X0112295Y0040805D01*
X0112275Y0040866D02*
X0111784Y0040866D01*
X0111765Y0040866D02*
X0111806Y0040866D01*
X0111840Y0040436D02*
X0111856Y0040436D01*
X0111895Y0040436D02*
X0112035Y0040436D01*
X0112049Y0040251D02*
X0111917Y0040251D01*
X0111954Y0040251D02*
X0112310Y0040251D01*
X0112298Y0040190D02*
X0111933Y0040190D01*
X0111907Y0040190D02*
X0112035Y0040190D01*
X0112013Y0040128D02*
X0111884Y0040128D01*
X0111913Y0040128D02*
X0112286Y0040128D01*
X0112271Y0040067D02*
X0111850Y0040067D01*
X0111795Y0040005D02*
X0111502Y0040005D01*
X0111464Y0040067D02*
X0109373Y0040067D01*
X0109534Y0040005D02*
X0111597Y0040005D01*
X0111678Y0040067D02*
X0111325Y0040067D01*
X0111368Y0040128D02*
X0109187Y0040128D01*
X0108954Y0040190D02*
X0111300Y0040190D01*
X0111350Y0040190D02*
X0111171Y0040190D01*
X0111130Y0040251D02*
X0111280Y0040251D01*
X0111237Y0040251D02*
X0108721Y0040251D01*
X0108487Y0040313D02*
X0111188Y0040313D01*
X0111232Y0040313D02*
X0111097Y0040313D01*
X0111075Y0040374D02*
X0111193Y0040374D01*
X0111150Y0040374D02*
X0108122Y0040374D01*
X0108494Y0041051D02*
X0112211Y0041051D01*
X0111885Y0040313D02*
X0111880Y0040313D01*
X0111674Y0040251D02*
X0111666Y0040251D01*
X0111682Y0040067D02*
X0111964Y0040067D01*
X0111699Y0040005D02*
X0112250Y0040005D01*
X0112230Y0039944D02*
X0109696Y0039944D01*
X0109857Y0039882D02*
X0112216Y0039882D01*
X0112226Y0039821D02*
X0110019Y0039821D01*
X0110165Y0039759D02*
X0112255Y0039759D01*
X0112285Y0039698D02*
X0110276Y0039698D01*
X0110387Y0039636D02*
X0112315Y0039636D01*
X0112344Y0039575D02*
X0110466Y0039575D01*
X0110541Y0039513D02*
X0112374Y0039513D01*
X0112404Y0039452D02*
X0110616Y0039452D01*
X0110673Y0039390D02*
X0112424Y0039390D01*
X0112442Y0039329D02*
X0110726Y0039329D01*
X0110778Y0039267D02*
X0112460Y0039267D01*
X0112478Y0039206D02*
X0110830Y0039206D01*
X0110876Y0039144D02*
X0112496Y0039144D01*
X0112514Y0039083D02*
X0110922Y0039083D01*
X0110969Y0039021D02*
X0112532Y0039021D01*
X0112539Y0038960D02*
X0111015Y0038960D01*
X0111061Y0038898D02*
X0112546Y0038898D01*
X0112553Y0038837D02*
X0111107Y0038837D01*
X0111153Y0038775D02*
X0112560Y0038775D01*
X0112567Y0038714D02*
X0111199Y0038714D01*
X0111245Y0038652D02*
X0112565Y0038652D01*
X0112561Y0038591D02*
X0111291Y0038591D01*
X0111338Y0038529D02*
X0112557Y0038529D01*
X0112552Y0038468D02*
X0111384Y0038468D01*
X0111426Y0038406D02*
X0112548Y0038406D01*
X0112537Y0038345D02*
X0111467Y0038345D01*
X0111508Y0038283D02*
X0112522Y0038283D01*
X0112506Y0038222D02*
X0111538Y0038222D01*
X0111563Y0038160D02*
X0112491Y0038160D01*
X0112475Y0038099D02*
X0111576Y0038099D01*
X0111584Y0038037D02*
X0112451Y0038037D01*
X0112421Y0037976D02*
X0111583Y0037976D01*
X0111575Y0037914D02*
X0112390Y0037914D01*
X0112344Y0037853D02*
X0111560Y0037853D01*
X0111536Y0037791D02*
X0112292Y0037791D01*
X0112230Y0037730D02*
X0111504Y0037730D01*
X0111464Y0037668D02*
X0112143Y0037668D01*
X0112027Y0037607D02*
X0111421Y0037607D01*
X0111368Y0037545D02*
X0111868Y0037545D01*
X0111446Y0040128D02*
X0111233Y0040128D01*
X0109901Y0040989D02*
X0103554Y0040989D01*
X0103586Y0040989D02*
X0081525Y0040989D01*
X0083972Y0044188D02*
X0090159Y0044188D01*
X0090740Y0044126D02*
X0084068Y0044126D01*
X0084163Y0044065D02*
X0091099Y0044065D01*
X0091483Y0044003D02*
X0084258Y0044003D01*
X0083893Y0044249D02*
X0089542Y0044249D01*
X0089284Y0044311D02*
X0083832Y0044311D01*
X0083770Y0044372D02*
X0089039Y0044372D01*
X0088842Y0044434D02*
X0083709Y0044434D01*
X0083647Y0044495D02*
X0088658Y0044495D01*
X0088474Y0044557D02*
X0086707Y0044557D01*
X0086608Y0044618D02*
X0088289Y0044618D01*
X0088118Y0044680D02*
X0086510Y0044680D01*
X0086421Y0044618D02*
X0083568Y0044618D01*
X0083607Y0044557D02*
X0086555Y0044557D01*
X0086412Y0044741D02*
X0087952Y0044741D01*
X0087787Y0044803D02*
X0086313Y0044803D01*
X0086215Y0044864D02*
X0087621Y0044864D01*
X0087456Y0044926D02*
X0086116Y0044926D01*
X0086018Y0044987D02*
X0087290Y0044987D01*
X0087124Y0045049D02*
X0085919Y0045049D01*
X0085821Y0045110D02*
X0086959Y0045110D01*
X0086793Y0045172D02*
X0085723Y0045172D01*
X0085624Y0045233D02*
X0086628Y0045233D01*
X0086462Y0045295D02*
X0085526Y0045295D01*
X0085427Y0045356D02*
X0086296Y0045356D01*
X0086131Y0045418D02*
X0085329Y0045418D01*
X0085231Y0045479D02*
X0085957Y0045479D01*
X0085768Y0045541D02*
X0085132Y0045541D01*
X0085034Y0045602D02*
X0085579Y0045602D01*
X0085380Y0045664D02*
X0084935Y0045664D01*
X0085032Y0045725D02*
X0084837Y0045725D01*
X0084703Y0045479D02*
X0083403Y0045479D01*
X0083459Y0045418D02*
X0084820Y0045418D01*
X0084938Y0045356D02*
X0083515Y0045356D01*
X0083571Y0045295D02*
X0085056Y0045295D01*
X0085174Y0045233D02*
X0083627Y0045233D01*
X0083683Y0045172D02*
X0085292Y0045172D01*
X0085410Y0045110D02*
X0083739Y0045110D01*
X0083794Y0045049D02*
X0085528Y0045049D01*
X0085646Y0044987D02*
X0083850Y0044987D01*
X0083906Y0044926D02*
X0085763Y0044926D01*
X0085888Y0044864D02*
X0083416Y0044864D01*
X0083385Y0044926D02*
X0083759Y0044926D01*
X0083489Y0044741D02*
X0086154Y0044741D01*
X0086021Y0044803D02*
X0083450Y0044803D01*
X0083529Y0044680D02*
X0086288Y0044680D01*
X0084585Y0045541D02*
X0083347Y0045541D01*
X0083330Y0045602D02*
X0084467Y0045602D01*
X0084344Y0045664D02*
X0083408Y0045664D01*
X0083560Y0045725D02*
X0084209Y0045725D01*
X0088976Y0045541D02*
X0104047Y0045541D01*
X0103991Y0045541D02*
X0107532Y0045541D01*
X0108001Y0045356D02*
X0103974Y0045356D01*
X0104031Y0045356D02*
X0092845Y0045356D01*
X0092752Y0045295D02*
X0104026Y0045295D01*
X0103968Y0045295D02*
X0108124Y0045295D01*
X0108702Y0044987D02*
X0103938Y0044987D01*
X0103932Y0044926D02*
X0108801Y0044926D01*
X0108899Y0044864D02*
X0103926Y0044864D01*
X0103920Y0044803D02*
X0108998Y0044803D01*
X0109090Y0044864D02*
X0109154Y0044864D01*
X0109110Y0044803D02*
X0109218Y0044803D01*
X0109283Y0044741D02*
X0103914Y0044741D01*
X0103908Y0044680D02*
X0109347Y0044680D01*
X0109412Y0044618D02*
X0103902Y0044618D01*
X0103896Y0044557D02*
X0109476Y0044557D01*
X0109541Y0044495D02*
X0103891Y0044495D01*
X0103885Y0044434D02*
X0109606Y0044434D01*
X0109670Y0044372D02*
X0103879Y0044372D01*
X0103873Y0044311D02*
X0109735Y0044311D01*
X0109799Y0044249D02*
X0103867Y0044249D01*
X0103861Y0044188D02*
X0109864Y0044188D01*
X0109929Y0044126D02*
X0103855Y0044126D01*
X0103849Y0044065D02*
X0109993Y0044065D01*
X0110058Y0044003D02*
X0103843Y0044003D01*
X0103837Y0043942D02*
X0110122Y0043942D01*
X0110187Y0043880D02*
X0103831Y0043880D01*
X0103825Y0043819D02*
X0110252Y0043819D01*
X0110316Y0043757D02*
X0103819Y0043757D01*
X0103813Y0043696D02*
X0110381Y0043696D01*
X0109089Y0044926D02*
X0109070Y0044926D01*
X0106760Y0045725D02*
X0104009Y0045725D01*
X0104062Y0045725D02*
X0090003Y0045725D01*
X0089380Y0046033D02*
X0089251Y0046033D01*
X0089211Y0046094D02*
X0089148Y0046094D01*
X0088687Y0047755D02*
X0104234Y0047755D01*
X0104205Y0047755D02*
X0107255Y0047755D01*
X0107482Y0053475D02*
X0108704Y0053475D01*
X0108676Y0053536D02*
X0107460Y0053536D01*
X0107438Y0053598D02*
X0108648Y0053598D01*
X0108620Y0053659D02*
X0107416Y0053659D01*
X0107394Y0053721D02*
X0108592Y0053721D01*
X0108564Y0053782D02*
X0107372Y0053782D01*
X0107350Y0053844D02*
X0108537Y0053844D01*
X0108509Y0053905D02*
X0107328Y0053905D01*
X0107307Y0053967D02*
X0108481Y0053967D01*
X0108453Y0054028D02*
X0107285Y0054028D01*
X0107263Y0054090D02*
X0108425Y0054090D01*
X0108397Y0054151D02*
X0107241Y0054151D01*
X0107219Y0054213D02*
X0108369Y0054213D01*
X0108341Y0054274D02*
X0107197Y0054274D01*
X0107175Y0054336D02*
X0108313Y0054336D01*
X0108287Y0054397D02*
X0107153Y0054397D01*
X0107132Y0054459D02*
X0108263Y0054459D01*
X0108239Y0054520D02*
X0107110Y0054520D01*
X0107089Y0054582D02*
X0108215Y0054582D01*
X0108191Y0054643D02*
X0107068Y0054643D01*
X0107046Y0054705D02*
X0108167Y0054705D01*
X0108143Y0054766D02*
X0107025Y0054766D01*
X0107003Y0054828D02*
X0108119Y0054828D01*
X0108095Y0054889D02*
X0106982Y0054889D01*
X0106961Y0054951D02*
X0108071Y0054951D01*
X0108047Y0055012D02*
X0106939Y0055012D01*
X0106918Y0055074D02*
X0108023Y0055074D01*
X0107999Y0055135D02*
X0106896Y0055135D01*
X0106875Y0055197D02*
X0107974Y0055197D01*
X0107950Y0055258D02*
X0106854Y0055258D01*
X0106832Y0055320D02*
X0107926Y0055320D01*
X0107902Y0055381D02*
X0106811Y0055381D01*
X0106789Y0055443D02*
X0107878Y0055443D01*
X0107854Y0055504D02*
X0106768Y0055504D01*
X0106747Y0055566D02*
X0107830Y0055566D01*
X0107806Y0055627D02*
X0106725Y0055627D01*
X0106704Y0055689D02*
X0107782Y0055689D01*
X0107758Y0055750D02*
X0106683Y0055750D01*
X0106661Y0055812D02*
X0107734Y0055812D01*
X0107707Y0055873D02*
X0106643Y0055873D01*
X0106625Y0055935D02*
X0107681Y0055935D01*
X0107654Y0055996D02*
X0106606Y0055996D01*
X0106588Y0056058D02*
X0107627Y0056058D01*
X0107601Y0056119D02*
X0106570Y0056119D01*
X0106551Y0056181D02*
X0107574Y0056181D01*
X0107548Y0056242D02*
X0106533Y0056242D01*
X0106515Y0056304D02*
X0107521Y0056304D01*
X0107494Y0056365D02*
X0106496Y0056365D01*
X0106478Y0056427D02*
X0107468Y0056427D01*
X0107441Y0056488D02*
X0106463Y0056488D01*
X0106452Y0056550D02*
X0107415Y0056550D01*
X0107388Y0056611D02*
X0106441Y0056611D01*
X0106429Y0056673D02*
X0107361Y0056673D01*
X0107335Y0056734D02*
X0106418Y0056734D01*
X0106407Y0056796D02*
X0107303Y0056796D01*
X0107270Y0056857D02*
X0106396Y0056857D01*
X0106385Y0056919D02*
X0107237Y0056919D01*
X0107204Y0056980D02*
X0106374Y0056980D01*
X0106363Y0057042D02*
X0107171Y0057042D01*
X0107138Y0057103D02*
X0106352Y0057103D01*
X0106342Y0057165D02*
X0107105Y0057165D01*
X0107072Y0057226D02*
X0106332Y0057226D01*
X0106323Y0057288D02*
X0107040Y0057288D01*
X0107007Y0057349D02*
X0106313Y0057349D01*
X0106304Y0057411D02*
X0106974Y0057411D01*
X0106941Y0057472D02*
X0106294Y0057472D01*
X0106285Y0057534D02*
X0106908Y0057534D01*
X0106875Y0057595D02*
X0106275Y0057595D01*
X0106266Y0057657D02*
X0106843Y0057657D01*
X0106812Y0057718D02*
X0106257Y0057718D01*
X0106247Y0057780D02*
X0106781Y0057780D01*
X0106750Y0057841D02*
X0106238Y0057841D01*
X0106228Y0057903D02*
X0106720Y0057903D01*
X0106689Y0057964D02*
X0106219Y0057964D01*
X0106209Y0058026D02*
X0106658Y0058026D01*
X0106627Y0058087D02*
X0106200Y0058087D01*
X0106190Y0058149D02*
X0106597Y0058149D01*
X0106566Y0058210D02*
X0106181Y0058210D01*
X0106171Y0058272D02*
X0106535Y0058272D01*
X0106504Y0058333D02*
X0106162Y0058333D01*
X0106152Y0058395D02*
X0106474Y0058395D01*
X0106440Y0058456D02*
X0106143Y0058456D01*
X0106134Y0058518D02*
X0106407Y0058518D01*
X0106373Y0058579D02*
X0106124Y0058579D01*
X0106115Y0058641D02*
X0106339Y0058641D01*
X0106306Y0058702D02*
X0106105Y0058702D01*
X0106096Y0058764D02*
X0106272Y0058764D01*
X0106238Y0058825D02*
X0106077Y0058825D01*
X0106057Y0058887D02*
X0106189Y0058887D01*
X0106136Y0058948D02*
X0106036Y0058948D01*
X0106008Y0059010D02*
X0106083Y0059010D01*
X0106030Y0059071D02*
X0105977Y0059071D01*
X0105977Y0059133D02*
X0105947Y0059133D01*
X0105924Y0059194D02*
X0105916Y0059194D01*
X0104660Y0058518D02*
X0103634Y0058518D01*
X0103614Y0058579D02*
X0104627Y0058579D01*
X0104594Y0058641D02*
X0103594Y0058641D01*
X0103573Y0058702D02*
X0104561Y0058702D01*
X0104527Y0058764D02*
X0103553Y0058764D01*
X0103533Y0058825D02*
X0104494Y0058825D01*
X0104461Y0058887D02*
X0103513Y0058887D01*
X0103493Y0058948D02*
X0104427Y0058948D01*
X0104392Y0059010D02*
X0103485Y0059010D01*
X0103479Y0059071D02*
X0104358Y0059071D01*
X0104324Y0059133D02*
X0103472Y0059133D01*
X0103466Y0059194D02*
X0104289Y0059194D01*
X0104255Y0059256D02*
X0103459Y0059256D01*
X0103453Y0059317D02*
X0104221Y0059317D01*
X0104187Y0059379D02*
X0103446Y0059379D01*
X0103443Y0059440D02*
X0103628Y0059440D01*
X0103643Y0059502D02*
X0104118Y0059502D01*
X0104084Y0059563D02*
X0103571Y0059563D01*
X0103527Y0059625D02*
X0104049Y0059625D01*
X0104015Y0059687D02*
X0103498Y0059687D01*
X0103478Y0059748D02*
X0103981Y0059748D01*
X0103951Y0059810D02*
X0103458Y0059810D01*
X0103439Y0059871D02*
X0103924Y0059871D01*
X0103897Y0059933D02*
X0103421Y0059933D01*
X0103416Y0059994D02*
X0103869Y0059994D01*
X0103842Y0060056D02*
X0103411Y0060056D01*
X0103407Y0060117D02*
X0103815Y0060117D01*
X0103787Y0060179D02*
X0103402Y0060179D01*
X0103406Y0060240D02*
X0103760Y0060240D01*
X0103733Y0060302D02*
X0103415Y0060302D01*
X0103425Y0060363D02*
X0103705Y0060363D01*
X0103678Y0060425D02*
X0103435Y0060425D01*
X0103445Y0060486D02*
X0103651Y0060486D01*
X0103623Y0060548D02*
X0103466Y0060548D01*
X0103486Y0060609D02*
X0103596Y0060609D01*
X0103568Y0060671D02*
X0103507Y0060671D01*
X0103715Y0059440D02*
X0104152Y0059440D01*
X0103658Y0058456D02*
X0104694Y0058456D01*
X0104727Y0058395D02*
X0103682Y0058395D01*
X0103706Y0058333D02*
X0104760Y0058333D01*
X0104794Y0058272D02*
X0103730Y0058272D01*
X0103754Y0058210D02*
X0104827Y0058210D01*
X0104860Y0058149D02*
X0103778Y0058149D01*
X0103802Y0058087D02*
X0104893Y0058087D01*
X0104927Y0058026D02*
X0103823Y0058026D01*
X0103840Y0057964D02*
X0104960Y0057964D01*
X0104991Y0057903D02*
X0103857Y0057903D01*
X0103874Y0057841D02*
X0105016Y0057841D01*
X0105040Y0057780D02*
X0103891Y0057780D01*
X0103908Y0057718D02*
X0105065Y0057718D01*
X0105089Y0057657D02*
X0103925Y0057657D01*
X0103943Y0057595D02*
X0105114Y0057595D01*
X0105139Y0057534D02*
X0103961Y0057534D01*
X0103979Y0057472D02*
X0105163Y0057472D01*
X0105188Y0057411D02*
X0103997Y0057411D01*
X0104016Y0057349D02*
X0105212Y0057349D01*
X0105237Y0057288D02*
X0104039Y0057288D01*
X0104067Y0057226D02*
X0105262Y0057226D01*
X0105286Y0057165D02*
X0104095Y0057165D01*
X0104123Y0057103D02*
X0105311Y0057103D01*
X0105335Y0057042D02*
X0104153Y0057042D01*
X0104186Y0056980D02*
X0105360Y0056980D01*
X0105385Y0056919D02*
X0104219Y0056919D01*
X0104252Y0056857D02*
X0105410Y0056857D01*
X0105435Y0056796D02*
X0104286Y0056796D01*
X0104319Y0056734D02*
X0105461Y0056734D01*
X0105486Y0056673D02*
X0104352Y0056673D01*
X0104385Y0056611D02*
X0105512Y0056611D01*
X0105537Y0056550D02*
X0104418Y0056550D01*
X0104451Y0056488D02*
X0105563Y0056488D01*
X0105588Y0056427D02*
X0104484Y0056427D01*
X0104517Y0056365D02*
X0105614Y0056365D01*
X0105639Y0056304D02*
X0104550Y0056304D01*
X0104584Y0056242D02*
X0105665Y0056242D01*
X0105690Y0056181D02*
X0104617Y0056181D01*
X0104651Y0056119D02*
X0105724Y0056119D01*
X0105760Y0056058D02*
X0104684Y0056058D01*
X0104718Y0055996D02*
X0105796Y0055996D01*
X0105833Y0055935D02*
X0104752Y0055935D01*
X0104785Y0055873D02*
X0105869Y0055873D01*
X0105906Y0055812D02*
X0104819Y0055812D01*
X0104852Y0055750D02*
X0105942Y0055750D01*
X0105978Y0055689D02*
X0104886Y0055689D01*
X0104920Y0055627D02*
X0106015Y0055627D01*
X0106051Y0055566D02*
X0104953Y0055566D01*
X0104953Y0055504D02*
X0106087Y0055504D01*
X0106123Y0055443D02*
X0104947Y0055443D01*
X0103146Y0058149D02*
X0102360Y0058149D01*
X0102326Y0058210D02*
X0103114Y0058210D01*
X0103082Y0058272D02*
X0102291Y0058272D01*
X0102257Y0058333D02*
X0103050Y0058333D01*
X0103017Y0058395D02*
X0102222Y0058395D01*
X0102188Y0058456D02*
X0102985Y0058456D01*
X0102953Y0058518D02*
X0102153Y0058518D01*
X0102119Y0058579D02*
X0102921Y0058579D01*
X0102888Y0058641D02*
X0102084Y0058641D01*
X0102050Y0058702D02*
X0102856Y0058702D01*
X0102824Y0058764D02*
X0102016Y0058764D01*
X0101981Y0058825D02*
X0102792Y0058825D01*
X0102760Y0058887D02*
X0101947Y0058887D01*
X0101912Y0058948D02*
X0102727Y0058948D01*
X0102695Y0059010D02*
X0101878Y0059010D01*
X0101843Y0059071D02*
X0102656Y0059071D01*
X0102613Y0059133D02*
X0101809Y0059133D01*
X0101774Y0059194D02*
X0102571Y0059194D01*
X0102528Y0059256D02*
X0101740Y0059256D01*
X0101706Y0059317D02*
X0102486Y0059317D01*
X0102443Y0059379D02*
X0101671Y0059379D01*
X0101637Y0059440D02*
X0102401Y0059440D01*
X0102358Y0059502D02*
X0101602Y0059502D01*
X0101568Y0059563D02*
X0102316Y0059563D01*
X0102273Y0059625D02*
X0101533Y0059625D01*
X0101498Y0059687D02*
X0102231Y0059687D01*
X0102176Y0059748D02*
X0101463Y0059748D01*
X0101427Y0059810D02*
X0102119Y0059810D01*
X0102063Y0059871D02*
X0101392Y0059871D01*
X0101357Y0059933D02*
X0102006Y0059933D01*
X0101949Y0059994D02*
X0101322Y0059994D01*
X0101287Y0060056D02*
X0101892Y0060056D01*
X0101836Y0060117D02*
X0101252Y0060117D01*
X0101217Y0060179D02*
X0101779Y0060179D01*
X0101722Y0060240D02*
X0101181Y0060240D01*
X0101146Y0060302D02*
X0101665Y0060302D01*
X0101605Y0060363D02*
X0101111Y0060363D01*
X0101076Y0060425D02*
X0101544Y0060425D01*
X0101484Y0060486D02*
X0101041Y0060486D01*
X0101006Y0060548D02*
X0101423Y0060548D01*
X0101363Y0060609D02*
X0100971Y0060609D01*
X0100936Y0060671D02*
X0101303Y0060671D01*
X0101242Y0060732D02*
X0100900Y0060732D01*
X0100865Y0060794D02*
X0101182Y0060794D01*
X0101121Y0060855D02*
X0100830Y0060855D01*
X0100795Y0060917D02*
X0101061Y0060917D01*
X0101003Y0060978D02*
X0100760Y0060978D01*
X0100725Y0061040D02*
X0100951Y0061040D01*
X0100900Y0061101D02*
X0100690Y0061101D01*
X0100654Y0061163D02*
X0100848Y0061163D01*
X0100796Y0061224D02*
X0100619Y0061224D01*
X0100584Y0061286D02*
X0100744Y0061286D01*
X0100693Y0061347D02*
X0100549Y0061347D01*
X0100517Y0061409D02*
X0100641Y0061409D01*
X0100589Y0061470D02*
X0100486Y0061470D01*
X0100455Y0061532D02*
X0100537Y0061532D01*
X0100486Y0061593D02*
X0100425Y0061593D01*
X0100434Y0061655D02*
X0100413Y0061655D01*
X0099875Y0061286D02*
X0089668Y0061286D01*
X0089683Y0061300D02*
X0089620Y0061237D01*
X0089530Y0061193D01*
X0089431Y0061174D01*
X0088325Y0061161D01*
X0087222Y0061237D01*
X0086180Y0061295D01*
X0085139Y0061237D01*
X0084276Y0061094D01*
X0083435Y0060858D01*
X0083435Y0060795D01*
X0083451Y0060695D01*
X0083498Y0060606D01*
X0083611Y0060494D01*
X0083750Y0060417D01*
X0084030Y0060333D01*
X0084318Y0060291D01*
X0084638Y0060247D01*
X0084949Y0060164D01*
X0085328Y0060038D01*
X0085640Y0059955D01*
X0085959Y0059911D01*
X0086279Y0059868D01*
X0086590Y0059785D01*
X0086777Y0059739D01*
X0086969Y0059722D01*
X0087664Y0059722D01*
X0087712Y0059713D01*
X0087753Y0059685D01*
X0087780Y0059644D01*
X0087790Y0059596D01*
X0087782Y0059548D01*
X0087761Y0059505D01*
X0087727Y0059470D01*
X0087571Y0059376D01*
X0087401Y0059312D01*
X0087222Y0059280D01*
X0086464Y0059154D01*
X0086149Y0059028D01*
X0086107Y0058993D01*
X0086081Y0058946D01*
X0086073Y0058892D01*
X0086086Y0058839D01*
X0086132Y0058761D01*
X0086197Y0058696D01*
X0086275Y0058649D01*
X0086412Y0058569D01*
X0086527Y0058460D01*
X0086652Y0058351D01*
X0086804Y0058286D01*
X0086969Y0058270D01*
X0087979Y0058333D01*
X0088799Y0058397D01*
X0089179Y0058397D01*
X0089240Y0058377D01*
X0089287Y0058332D01*
X0089185Y0058395D02*
X0101959Y0058395D01*
X0101908Y0058456D02*
X0086531Y0058456D01*
X0086466Y0058518D02*
X0101858Y0058518D01*
X0101808Y0058579D02*
X0086394Y0058579D01*
X0086289Y0058641D02*
X0101763Y0058641D01*
X0101718Y0058702D02*
X0086190Y0058702D01*
X0086130Y0058764D02*
X0101674Y0058764D01*
X0101629Y0058825D02*
X0086094Y0058825D01*
X0086074Y0058887D02*
X0101585Y0058887D01*
X0101541Y0058948D02*
X0086082Y0058948D01*
X0086127Y0059010D02*
X0101496Y0059010D01*
X0101452Y0059071D02*
X0086257Y0059071D01*
X0086411Y0059133D02*
X0101407Y0059133D01*
X0101363Y0059194D02*
X0086705Y0059194D01*
X0087075Y0059256D02*
X0101318Y0059256D01*
X0101274Y0059317D02*
X0087416Y0059317D01*
X0087577Y0059379D02*
X0101230Y0059379D01*
X0101185Y0059440D02*
X0087678Y0059440D01*
X0087758Y0059502D02*
X0101141Y0059502D01*
X0101096Y0059563D02*
X0087785Y0059563D01*
X0087784Y0059625D02*
X0101052Y0059625D01*
X0101007Y0059687D02*
X0087751Y0059687D01*
X0086741Y0059748D02*
X0100963Y0059748D01*
X0100918Y0059810D02*
X0086500Y0059810D01*
X0086260Y0059871D02*
X0100873Y0059871D01*
X0100829Y0059933D02*
X0085803Y0059933D01*
X0085492Y0059994D02*
X0100784Y0059994D01*
X0100739Y0060056D02*
X0085275Y0060056D01*
X0085091Y0060117D02*
X0100694Y0060117D01*
X0100650Y0060179D02*
X0084895Y0060179D01*
X0084663Y0060240D02*
X0100605Y0060240D01*
X0100560Y0060302D02*
X0084244Y0060302D01*
X0083931Y0060363D02*
X0100515Y0060363D01*
X0100471Y0060425D02*
X0083736Y0060425D01*
X0083624Y0060486D02*
X0100428Y0060486D01*
X0100386Y0060548D02*
X0083556Y0060548D01*
X0083496Y0060609D02*
X0100343Y0060609D01*
X0100301Y0060671D02*
X0083464Y0060671D01*
X0083445Y0060732D02*
X0100258Y0060732D01*
X0100216Y0060794D02*
X0083435Y0060794D01*
X0083435Y0060855D02*
X0100173Y0060855D01*
X0100130Y0060917D02*
X0083643Y0060917D01*
X0083862Y0060978D02*
X0100088Y0060978D01*
X0100045Y0061040D02*
X0084082Y0061040D01*
X0084319Y0061101D02*
X0100003Y0061101D01*
X0099960Y0061163D02*
X0088492Y0061163D01*
X0088296Y0061163D02*
X0084689Y0061163D01*
X0085059Y0061224D02*
X0087413Y0061224D01*
X0086349Y0061286D02*
X0086011Y0061286D01*
X0087285Y0062941D02*
X0087601Y0062689D01*
X0087929Y0062465D01*
X0088295Y0062310D01*
X0088863Y0062121D01*
X0089123Y0062010D01*
X0089368Y0061869D01*
X0089542Y0061727D01*
X0089683Y0061553D01*
X0089717Y0061471D01*
X0089716Y0061382D01*
X0089683Y0061300D01*
X0089702Y0061347D02*
X0099832Y0061347D01*
X0099790Y0061409D02*
X0089717Y0061409D01*
X0089717Y0061470D02*
X0099747Y0061470D01*
X0099705Y0061532D02*
X0089692Y0061532D01*
X0089650Y0061593D02*
X0099662Y0061593D01*
X0099620Y0061655D02*
X0089600Y0061655D01*
X0089550Y0061716D02*
X0099577Y0061716D01*
X0099534Y0061778D02*
X0089479Y0061778D01*
X0089404Y0061839D02*
X0099492Y0061839D01*
X0099449Y0061901D02*
X0089312Y0061901D01*
X0089205Y0061962D02*
X0099407Y0061962D01*
X0099364Y0062024D02*
X0089090Y0062024D01*
X0088946Y0062085D02*
X0099321Y0062085D01*
X0099278Y0062147D02*
X0088786Y0062147D01*
X0088601Y0062208D02*
X0099235Y0062208D01*
X0099191Y0062270D02*
X0088417Y0062270D01*
X0088245Y0062331D02*
X0099148Y0062331D01*
X0099105Y0062393D02*
X0088100Y0062393D01*
X0087954Y0062454D02*
X0099061Y0062454D01*
X0099018Y0062516D02*
X0087854Y0062516D01*
X0087764Y0062577D02*
X0098975Y0062577D01*
X0098932Y0062639D02*
X0087674Y0062639D01*
X0087587Y0062700D02*
X0098888Y0062700D01*
X0098845Y0062762D02*
X0087510Y0062762D01*
X0087433Y0062823D02*
X0098802Y0062823D01*
X0098758Y0062885D02*
X0087356Y0062885D01*
X0087285Y0062941D02*
X0086717Y0063383D01*
X0086149Y0063762D01*
X0085786Y0063993D01*
X0085454Y0064267D01*
X0084886Y0064709D01*
X0084571Y0064961D01*
X0084305Y0065178D01*
X0084003Y0065340D01*
X0083871Y0065416D01*
X0083764Y0065524D01*
X0083687Y0065656D01*
X0083498Y0066223D01*
X0083435Y0066476D01*
X0085391Y0065719D01*
X0087032Y0064898D01*
X0087869Y0064484D01*
X0085175Y0064484D01*
X0085096Y0064545D02*
X0087745Y0064545D01*
X0087869Y0064484D02*
X0088736Y0064141D01*
X0090062Y0063573D01*
X0090567Y0063320D01*
X0090757Y0063257D01*
X0090783Y0063258D01*
X0090805Y0063272D01*
X0090818Y0063294D01*
X0090820Y0063320D01*
X0090738Y0063613D01*
X0090611Y0063889D01*
X0090441Y0064141D01*
X0090062Y0064519D01*
X0089368Y0065024D01*
X0088799Y0065466D01*
X0088618Y0065670D01*
X0088484Y0065908D01*
X0088400Y0066072D01*
X0088295Y0066223D01*
X0088181Y0066334D01*
X0088042Y0066413D01*
X0087941Y0066466D01*
X0087853Y0066539D01*
X0087537Y0066855D01*
X0087453Y0066971D01*
X0087411Y0067107D01*
X0087367Y0067273D01*
X0087285Y0067423D01*
X0087047Y0067720D01*
X0086780Y0067991D01*
X0086723Y0068029D01*
X0086659Y0068051D01*
X0086781Y0067989D02*
X0089249Y0067989D01*
X0089333Y0067928D02*
X0086842Y0067928D01*
X0086903Y0067866D02*
X0089417Y0067866D01*
X0089501Y0067805D02*
X0086964Y0067805D01*
X0087025Y0067743D02*
X0089584Y0067743D01*
X0089668Y0067682D02*
X0087078Y0067682D01*
X0087127Y0067620D02*
X0089752Y0067620D01*
X0089836Y0067559D02*
X0087176Y0067559D01*
X0087225Y0067497D02*
X0089920Y0067497D01*
X0090001Y0067436D02*
X0087274Y0067436D01*
X0087311Y0067374D02*
X0090081Y0067374D01*
X0090162Y0067313D02*
X0087345Y0067313D01*
X0087373Y0067251D02*
X0090242Y0067251D01*
X0090323Y0067190D02*
X0087389Y0067190D01*
X0087405Y0067128D02*
X0090403Y0067128D01*
X0090483Y0067067D02*
X0087423Y0067067D01*
X0087443Y0067005D02*
X0090564Y0067005D01*
X0090644Y0066944D02*
X0087473Y0066944D01*
X0087517Y0066882D02*
X0090725Y0066882D01*
X0090805Y0066821D02*
X0087571Y0066821D01*
X0087632Y0066759D02*
X0090886Y0066759D01*
X0090966Y0066698D02*
X0087694Y0066698D01*
X0087755Y0066636D02*
X0091037Y0066636D01*
X0091099Y0066575D02*
X0087817Y0066575D01*
X0087884Y0066513D02*
X0091160Y0066513D01*
X0091226Y0066452D02*
X0087969Y0066452D01*
X0088082Y0066390D02*
X0096519Y0066390D01*
X0096541Y0066329D02*
X0088186Y0066329D01*
X0088249Y0066267D02*
X0096563Y0066267D01*
X0096585Y0066206D02*
X0088307Y0066206D01*
X0088349Y0066144D02*
X0096606Y0066144D01*
X0096628Y0066083D02*
X0088392Y0066083D01*
X0088426Y0066021D02*
X0096650Y0066021D01*
X0096671Y0065960D02*
X0088457Y0065960D01*
X0088489Y0065898D02*
X0096693Y0065898D01*
X0096721Y0065837D02*
X0088524Y0065837D01*
X0088559Y0065775D02*
X0096754Y0065775D01*
X0096787Y0065714D02*
X0088594Y0065714D01*
X0088634Y0065652D02*
X0096820Y0065652D01*
X0096853Y0065591D02*
X0088689Y0065591D01*
X0088743Y0065529D02*
X0096886Y0065529D01*
X0096919Y0065468D02*
X0088798Y0065468D01*
X0088876Y0065406D02*
X0096952Y0065406D01*
X0096985Y0065345D02*
X0088955Y0065345D01*
X0089035Y0065283D02*
X0097017Y0065283D01*
X0097050Y0065222D02*
X0089114Y0065222D01*
X0089193Y0065160D02*
X0097083Y0065160D01*
X0097116Y0065099D02*
X0089272Y0065099D01*
X0089351Y0065037D02*
X0097149Y0065037D01*
X0097182Y0064976D02*
X0089434Y0064976D01*
X0089519Y0064914D02*
X0097215Y0064914D01*
X0097248Y0064853D02*
X0089604Y0064853D01*
X0089688Y0064791D02*
X0097292Y0064791D01*
X0097341Y0064730D02*
X0089773Y0064730D01*
X0089857Y0064668D02*
X0097391Y0064668D01*
X0097440Y0064607D02*
X0089942Y0064607D01*
X0090026Y0064545D02*
X0097489Y0064545D01*
X0097539Y0064484D02*
X0090098Y0064484D01*
X0090159Y0064422D02*
X0097591Y0064422D01*
X0097642Y0064361D02*
X0090221Y0064361D01*
X0090282Y0064299D02*
X0097693Y0064299D01*
X0097744Y0064238D02*
X0090344Y0064238D01*
X0090405Y0064176D02*
X0097796Y0064176D01*
X0097847Y0064115D02*
X0090458Y0064115D01*
X0090500Y0064053D02*
X0097898Y0064053D01*
X0097949Y0063992D02*
X0090541Y0063992D01*
X0090583Y0063930D02*
X0098000Y0063930D01*
X0098052Y0063869D02*
X0090620Y0063869D01*
X0090649Y0063807D02*
X0098103Y0063807D01*
X0098152Y0063746D02*
X0090677Y0063746D01*
X0090706Y0063684D02*
X0098195Y0063684D01*
X0098239Y0063623D02*
X0090734Y0063623D01*
X0090753Y0063561D02*
X0098282Y0063561D01*
X0098325Y0063500D02*
X0090770Y0063500D01*
X0090787Y0063438D02*
X0098369Y0063438D01*
X0098412Y0063377D02*
X0090804Y0063377D01*
X0090819Y0063315D02*
X0098455Y0063315D01*
X0098499Y0063254D02*
X0086883Y0063254D01*
X0086804Y0063315D02*
X0090581Y0063315D01*
X0090454Y0063377D02*
X0086725Y0063377D01*
X0086634Y0063438D02*
X0090331Y0063438D01*
X0090208Y0063500D02*
X0086542Y0063500D01*
X0086450Y0063561D02*
X0090085Y0063561D01*
X0089946Y0063623D02*
X0086357Y0063623D01*
X0086265Y0063684D02*
X0089802Y0063684D01*
X0089658Y0063746D02*
X0086173Y0063746D01*
X0086077Y0063807D02*
X0089515Y0063807D01*
X0089371Y0063869D02*
X0085981Y0063869D01*
X0085884Y0063930D02*
X0089228Y0063930D01*
X0089084Y0063992D02*
X0085788Y0063992D01*
X0085713Y0064053D02*
X0088940Y0064053D01*
X0088797Y0064115D02*
X0085638Y0064115D01*
X0085564Y0064176D02*
X0088646Y0064176D01*
X0088491Y0064238D02*
X0085490Y0064238D01*
X0085413Y0064299D02*
X0088335Y0064299D01*
X0088180Y0064361D02*
X0085334Y0064361D01*
X0085254Y0064422D02*
X0088024Y0064422D01*
X0087620Y0064607D02*
X0085017Y0064607D01*
X0084938Y0064668D02*
X0087496Y0064668D01*
X0087372Y0064730D02*
X0084860Y0064730D01*
X0084783Y0064791D02*
X0087248Y0064791D01*
X0087124Y0064853D02*
X0084706Y0064853D01*
X0084629Y0064914D02*
X0087000Y0064914D01*
X0086877Y0064976D02*
X0084553Y0064976D01*
X0084477Y0065037D02*
X0086754Y0065037D01*
X0086631Y0065099D02*
X0084401Y0065099D01*
X0084326Y0065160D02*
X0086508Y0065160D01*
X0086385Y0065222D02*
X0084222Y0065222D01*
X0084108Y0065283D02*
X0086262Y0065283D01*
X0086139Y0065345D02*
X0083994Y0065345D01*
X0083888Y0065406D02*
X0086016Y0065406D01*
X0085893Y0065468D02*
X0083820Y0065468D01*
X0083761Y0065529D02*
X0085770Y0065529D01*
X0085647Y0065591D02*
X0083725Y0065591D01*
X0083689Y0065652D02*
X0085524Y0065652D01*
X0085401Y0065714D02*
X0083668Y0065714D01*
X0083647Y0065775D02*
X0085244Y0065775D01*
X0085086Y0065837D02*
X0083627Y0065837D01*
X0083606Y0065898D02*
X0084927Y0065898D01*
X0084768Y0065960D02*
X0083586Y0065960D01*
X0083565Y0066021D02*
X0084609Y0066021D01*
X0084450Y0066083D02*
X0083545Y0066083D01*
X0083524Y0066144D02*
X0084291Y0066144D01*
X0084132Y0066206D02*
X0083504Y0066206D01*
X0083487Y0066267D02*
X0083973Y0066267D01*
X0083815Y0066329D02*
X0083471Y0066329D01*
X0083456Y0066390D02*
X0083656Y0066390D01*
X0083497Y0066452D02*
X0083441Y0066452D01*
X0087204Y0069158D02*
X0087677Y0069158D01*
X0087560Y0069220D02*
X0087237Y0069220D01*
X0087436Y0072295D02*
X0086683Y0072295D01*
X0086629Y0072356D02*
X0087353Y0072356D01*
X0087270Y0072418D02*
X0086575Y0072418D01*
X0086519Y0072479D02*
X0087157Y0072479D01*
X0087027Y0072541D02*
X0086471Y0072541D01*
X0086465Y0072602D02*
X0086891Y0072602D01*
X0090831Y0068174D02*
X0092593Y0068174D01*
X0092654Y0068112D02*
X0090808Y0068112D01*
X0091467Y0066636D02*
X0096432Y0066636D01*
X0096454Y0066575D02*
X0091484Y0066575D01*
X0091472Y0066513D02*
X0096476Y0066513D01*
X0096498Y0066452D02*
X0091423Y0066452D01*
X0087279Y0062946D02*
X0098715Y0062946D01*
X0098672Y0063008D02*
X0087200Y0063008D01*
X0087120Y0063069D02*
X0098628Y0063069D01*
X0098585Y0063131D02*
X0087041Y0063131D01*
X0086962Y0063192D02*
X0098542Y0063192D01*
X0099918Y0061224D02*
X0089593Y0061224D01*
X0088775Y0058395D02*
X0086602Y0058395D01*
X0086695Y0058333D02*
X0087978Y0058333D01*
X0086992Y0058272D02*
X0086954Y0058272D01*
X0092568Y0045172D02*
X0092731Y0045172D01*
X0091930Y0040005D02*
X0103498Y0040005D01*
X0103471Y0040005D02*
X0106578Y0040005D01*
X0106492Y0039944D02*
X0103466Y0039944D01*
X0103493Y0039944D02*
X0092186Y0039944D01*
X0092378Y0039882D02*
X0103487Y0039882D01*
X0103461Y0039882D02*
X0106405Y0039882D01*
X0106323Y0039821D02*
X0103455Y0039821D01*
X0103482Y0039821D02*
X0092507Y0039821D01*
X0092636Y0039759D02*
X0103476Y0039759D01*
X0103450Y0039759D02*
X0106249Y0039759D01*
X0106176Y0039698D02*
X0103445Y0039698D01*
X0103471Y0039698D02*
X0092764Y0039698D01*
X0092844Y0039636D02*
X0103465Y0039636D01*
X0103440Y0039636D02*
X0106102Y0039636D01*
X0106028Y0039575D02*
X0103435Y0039575D01*
X0103460Y0039575D02*
X0092924Y0039575D01*
X0093004Y0039513D02*
X0103454Y0039513D01*
X0103429Y0039513D02*
X0105957Y0039513D01*
X0105895Y0039452D02*
X0103424Y0039452D01*
X0103449Y0039452D02*
X0093085Y0039452D01*
X0093140Y0039390D02*
X0103443Y0039390D01*
X0103419Y0039390D02*
X0105834Y0039390D01*
X0105772Y0039329D02*
X0103414Y0039329D01*
X0103438Y0039329D02*
X0093016Y0039329D01*
X0092893Y0039267D02*
X0103432Y0039267D01*
X0103409Y0039267D02*
X0105711Y0039267D01*
X0105649Y0039206D02*
X0103403Y0039206D01*
X0103427Y0039206D02*
X0092770Y0039206D01*
X0092667Y0039144D02*
X0103421Y0039144D01*
X0103398Y0039144D02*
X0105588Y0039144D01*
X0105403Y0038960D02*
X0103382Y0038960D01*
X0103405Y0038960D02*
X0092358Y0038960D01*
X0092256Y0038898D02*
X0103399Y0038898D01*
X0103377Y0038898D02*
X0105342Y0038898D01*
X0105280Y0038837D02*
X0103372Y0038837D01*
X0103394Y0038837D02*
X0092181Y0038837D01*
X0092105Y0038775D02*
X0103388Y0038775D01*
X0103367Y0038775D02*
X0105219Y0038775D01*
X0105157Y0038714D02*
X0103362Y0038714D01*
X0103383Y0038714D02*
X0092030Y0038714D01*
X0091955Y0038652D02*
X0103377Y0038652D01*
X0103356Y0038652D02*
X0105095Y0038652D01*
X0105024Y0038591D02*
X0103351Y0038591D01*
X0103372Y0038591D02*
X0091880Y0038591D01*
X0091805Y0038529D02*
X0103366Y0038529D01*
X0103346Y0038529D02*
X0104951Y0038529D01*
X0104878Y0038468D02*
X0103341Y0038468D01*
X0103361Y0038468D02*
X0091746Y0038468D01*
X0091690Y0038406D02*
X0103355Y0038406D01*
X0103336Y0038406D02*
X0104776Y0038406D01*
X0104674Y0038345D02*
X0103330Y0038345D01*
X0103350Y0038345D02*
X0091634Y0038345D01*
X0091579Y0038283D02*
X0103344Y0038283D01*
X0103325Y0038283D02*
X0104558Y0038283D01*
X0104516Y0038222D02*
X0103320Y0038222D01*
X0103339Y0038222D02*
X0091523Y0038222D01*
X0091467Y0038160D02*
X0091649Y0038160D01*
X0091682Y0038099D02*
X0093520Y0038099D01*
X0093680Y0037853D02*
X0103306Y0037853D01*
X0103289Y0037853D02*
X0104516Y0037853D01*
X0104516Y0037914D02*
X0103294Y0037914D01*
X0103311Y0037914D02*
X0093777Y0037914D01*
X0093884Y0037976D02*
X0103317Y0037976D01*
X0103299Y0037976D02*
X0104516Y0037976D01*
X0104516Y0038037D02*
X0103304Y0038037D01*
X0103322Y0038037D02*
X0093992Y0038037D01*
X0094100Y0038099D02*
X0103328Y0038099D01*
X0103310Y0038099D02*
X0104516Y0038099D01*
X0104516Y0038160D02*
X0103315Y0038160D01*
X0103333Y0038160D02*
X0091734Y0038160D01*
X0091631Y0038037D02*
X0093224Y0038037D01*
X0092955Y0037976D02*
X0092323Y0037976D01*
X0092303Y0037914D02*
X0092710Y0037914D01*
X0092434Y0037853D02*
X0092282Y0037853D01*
X0092139Y0037976D02*
X0091580Y0037976D01*
X0091529Y0037914D02*
X0091968Y0037914D01*
X0091813Y0037853D02*
X0091478Y0037853D01*
X0091465Y0038099D02*
X0091411Y0038099D01*
X0090953Y0039944D02*
X0089685Y0039944D01*
X0089710Y0040005D02*
X0091169Y0040005D01*
X0090751Y0039882D02*
X0089657Y0039882D01*
X0089620Y0039821D02*
X0090551Y0039821D01*
X0090352Y0039759D02*
X0089584Y0039759D01*
X0089546Y0039698D02*
X0090152Y0039698D01*
X0089934Y0039636D02*
X0089505Y0039636D01*
X0089464Y0039575D02*
X0089658Y0039575D01*
X0089736Y0040067D02*
X0103504Y0040067D01*
X0103476Y0040067D02*
X0106664Y0040067D01*
X0106750Y0040128D02*
X0103481Y0040128D01*
X0103509Y0040128D02*
X0089758Y0040128D01*
X0089779Y0040190D02*
X0103515Y0040190D01*
X0103487Y0040190D02*
X0106845Y0040190D01*
X0106965Y0040251D02*
X0103492Y0040251D01*
X0103520Y0040251D02*
X0089800Y0040251D01*
X0088244Y0040313D02*
X0103526Y0040313D01*
X0103497Y0040313D02*
X0107183Y0040313D01*
X0104516Y0037791D02*
X0103284Y0037791D01*
X0103300Y0037791D02*
X0093594Y0037791D01*
X0093509Y0037730D02*
X0103295Y0037730D01*
X0103278Y0037730D02*
X0104516Y0037730D01*
X0104516Y0037668D02*
X0103273Y0037668D01*
X0103289Y0037668D02*
X0093423Y0037668D01*
X0093363Y0037607D02*
X0093839Y0037607D01*
X0093893Y0037607D02*
X0103284Y0037607D01*
X0103268Y0037607D02*
X0104516Y0037607D01*
X0104516Y0037545D02*
X0103263Y0037545D01*
X0103278Y0037545D02*
X0093844Y0037545D01*
X0093795Y0037484D02*
X0103273Y0037484D01*
X0103258Y0037484D02*
X0104516Y0037484D01*
X0104516Y0037422D02*
X0103252Y0037422D01*
X0103267Y0037422D02*
X0095726Y0037422D01*
X0095902Y0037361D02*
X0103262Y0037361D01*
X0103247Y0037361D02*
X0104516Y0037361D01*
X0104516Y0037299D02*
X0103242Y0037299D01*
X0103256Y0037299D02*
X0096013Y0037299D01*
X0096082Y0037238D02*
X0103251Y0037238D01*
X0103237Y0037238D02*
X0104516Y0037238D01*
X0104516Y0037176D02*
X0103232Y0037176D01*
X0103245Y0037176D02*
X0096127Y0037176D01*
X0096162Y0037115D02*
X0103240Y0037115D01*
X0103226Y0037115D02*
X0104516Y0037115D01*
X0104516Y0037053D02*
X0103221Y0037053D01*
X0103235Y0037053D02*
X0096182Y0037053D01*
X0096194Y0036992D02*
X0103229Y0036992D01*
X0103216Y0036992D02*
X0104516Y0036992D01*
X0104516Y0036930D02*
X0103211Y0036930D01*
X0103224Y0036930D02*
X0096199Y0036930D01*
X0096192Y0036869D02*
X0103218Y0036869D01*
X0103205Y0036869D02*
X0104516Y0036869D01*
X0104516Y0036807D02*
X0103200Y0036807D01*
X0103213Y0036807D02*
X0096184Y0036807D01*
X0096177Y0036746D02*
X0103207Y0036746D01*
X0103195Y0036746D02*
X0104516Y0036746D01*
X0104516Y0036684D02*
X0103190Y0036684D01*
X0103202Y0036684D02*
X0096170Y0036684D01*
X0096184Y0036623D02*
X0103196Y0036623D01*
X0103185Y0036623D02*
X0104516Y0036623D01*
X0104516Y0036561D02*
X0103179Y0036561D01*
X0103191Y0036561D02*
X0096199Y0036561D01*
X0096237Y0036500D02*
X0103185Y0036500D01*
X0103174Y0036500D02*
X0104516Y0036500D01*
X0104524Y0036438D02*
X0103169Y0036438D01*
X0103180Y0036438D02*
X0096282Y0036438D01*
X0096363Y0036377D02*
X0103174Y0036377D01*
X0103164Y0036377D02*
X0104533Y0036377D01*
X0104542Y0036315D02*
X0103159Y0036315D01*
X0103169Y0036315D02*
X0096515Y0036315D01*
X0096677Y0036254D02*
X0103163Y0036254D01*
X0103153Y0036254D02*
X0104551Y0036254D01*
X0104559Y0036192D02*
X0103148Y0036192D01*
X0103158Y0036192D02*
X0097030Y0036192D01*
X0097107Y0036131D02*
X0103152Y0036131D01*
X0103143Y0036131D02*
X0104568Y0036131D01*
X0104577Y0036069D02*
X0103138Y0036069D01*
X0103147Y0036069D02*
X0097076Y0036069D01*
X0097046Y0036008D02*
X0103141Y0036008D01*
X0103133Y0036008D02*
X0104586Y0036008D01*
X0104595Y0035946D02*
X0103127Y0035946D01*
X0103136Y0035946D02*
X0097015Y0035946D01*
X0096984Y0035885D02*
X0103130Y0035885D01*
X0103122Y0035885D02*
X0104604Y0035885D01*
X0104611Y0035823D02*
X0103117Y0035823D01*
X0103125Y0035823D02*
X0096953Y0035823D01*
X0096923Y0035762D02*
X0103119Y0035762D01*
X0103112Y0035762D02*
X0104614Y0035762D01*
X0104617Y0035700D02*
X0103107Y0035700D01*
X0103114Y0035700D02*
X0096892Y0035700D01*
X0096861Y0035639D02*
X0103108Y0035639D01*
X0103101Y0035639D02*
X0104620Y0035639D01*
X0104623Y0035577D02*
X0103096Y0035577D01*
X0103103Y0035577D02*
X0096830Y0035577D01*
X0096800Y0035516D02*
X0103097Y0035516D01*
X0103091Y0035516D02*
X0104626Y0035516D01*
X0104629Y0035454D02*
X0103086Y0035454D01*
X0103092Y0035454D02*
X0096769Y0035454D01*
X0096869Y0035393D02*
X0103086Y0035393D01*
X0103081Y0035393D02*
X0104632Y0035393D01*
X0104635Y0035331D02*
X0103075Y0035331D01*
X0103081Y0035331D02*
X0097115Y0035331D01*
X0097362Y0035270D02*
X0103075Y0035270D01*
X0103070Y0035270D02*
X0104638Y0035270D01*
X0104641Y0035208D02*
X0103065Y0035208D01*
X0103070Y0035208D02*
X0097510Y0035208D01*
X0097510Y0035147D02*
X0103064Y0035147D01*
X0103060Y0035147D02*
X0104642Y0035147D01*
X0104642Y0035085D02*
X0103055Y0035085D01*
X0103059Y0035085D02*
X0097510Y0035085D01*
X0097510Y0035024D02*
X0103053Y0035024D01*
X0103049Y0035024D02*
X0104642Y0035024D01*
X0104642Y0034962D02*
X0103044Y0034962D01*
X0103048Y0034962D02*
X0097510Y0034962D01*
X0097510Y0034901D02*
X0103042Y0034901D01*
X0103039Y0034901D02*
X0104642Y0034901D01*
X0104642Y0034839D02*
X0103034Y0034839D01*
X0103037Y0034839D02*
X0099823Y0034839D01*
X0099845Y0034778D02*
X0103031Y0034778D01*
X0103028Y0034778D02*
X0104642Y0034778D01*
X0104642Y0034716D02*
X0103023Y0034716D01*
X0103026Y0034716D02*
X0099845Y0034716D01*
X0099845Y0034655D02*
X0103020Y0034655D01*
X0103018Y0034655D02*
X0104642Y0034655D01*
X0104642Y0034593D02*
X0103013Y0034593D01*
X0103015Y0034593D02*
X0099845Y0034593D01*
X0099845Y0034532D02*
X0103009Y0034532D01*
X0103008Y0034532D02*
X0104642Y0034532D01*
X0104642Y0034470D02*
X0103002Y0034470D01*
X0103004Y0034470D02*
X0099846Y0034470D01*
X0099850Y0034409D02*
X0102998Y0034409D01*
X0102997Y0034409D02*
X0104642Y0034409D01*
X0104642Y0034347D02*
X0102992Y0034347D01*
X0102993Y0034347D02*
X0099854Y0034347D01*
X0099873Y0034286D02*
X0102987Y0034286D01*
X0104642Y0034286D01*
X0104642Y0034224D02*
X0102982Y0034224D01*
X0099894Y0034224D01*
X0099929Y0034163D02*
X0102976Y0034163D01*
X0104702Y0034163D01*
X0104807Y0034101D02*
X0102971Y0034101D01*
X0099969Y0034101D01*
X0100028Y0034040D02*
X0102965Y0034040D01*
X0102966Y0034040D02*
X0104915Y0034040D01*
X0105046Y0033978D02*
X0102961Y0033978D01*
X0102960Y0033978D02*
X0100090Y0033978D01*
X0100034Y0033917D02*
X0102954Y0033917D01*
X0102956Y0033917D02*
X0105188Y0033917D01*
X0105433Y0033855D02*
X0102950Y0033855D01*
X0102949Y0033855D02*
X0099960Y0033855D01*
X0099886Y0033794D02*
X0102943Y0033794D01*
X0102945Y0033794D02*
X0105796Y0033794D01*
X0105955Y0033732D02*
X0102940Y0033732D01*
X0102938Y0033732D02*
X0099812Y0033732D01*
X0099738Y0033671D02*
X0102932Y0033671D01*
X0102935Y0033671D02*
X0106099Y0033671D01*
X0106243Y0033609D02*
X0102930Y0033609D01*
X0102927Y0033609D02*
X0099856Y0033609D01*
X0100040Y0033548D02*
X0102921Y0033548D01*
X0102924Y0033548D02*
X0106397Y0033548D01*
X0106616Y0033486D02*
X0102919Y0033486D01*
X0102916Y0033486D02*
X0100056Y0033486D01*
X0099994Y0033425D02*
X0102910Y0033425D01*
X0102914Y0033425D02*
X0106970Y0033425D01*
X0107338Y0033363D02*
X0102909Y0033363D01*
X0102905Y0033363D02*
X0099933Y0033363D01*
X0100209Y0033302D02*
X0102900Y0033302D01*
X0102904Y0033302D02*
X0107569Y0033302D01*
X0107644Y0033240D02*
X0102898Y0033240D01*
X0102894Y0033240D02*
X0100485Y0033240D01*
X0100460Y0033179D02*
X0102889Y0033179D01*
X0102893Y0033179D02*
X0107706Y0033179D01*
X0107767Y0033117D02*
X0102888Y0033117D01*
X0102883Y0033117D02*
X0100317Y0033117D01*
X0100244Y0032994D02*
X0102838Y0032994D01*
X0102878Y0032994D02*
X0107891Y0032994D01*
X0107829Y0033056D02*
X0102883Y0033056D01*
X0102878Y0033056D02*
X0100173Y0033056D01*
X0100636Y0032933D02*
X0102761Y0032933D01*
X0102684Y0032871D02*
X0100971Y0032871D01*
X0101032Y0032809D02*
X0102608Y0032809D01*
X0102520Y0032748D02*
X0101002Y0032748D01*
X0100971Y0032686D02*
X0102413Y0032686D01*
X0102307Y0032625D02*
X0101350Y0032625D01*
X0101319Y0032563D02*
X0102201Y0032563D01*
X0102063Y0032502D02*
X0101277Y0032502D01*
X0101203Y0032440D02*
X0101909Y0032440D01*
X0101756Y0032379D02*
X0101130Y0032379D01*
X0101056Y0032317D02*
X0101511Y0032317D01*
X0101238Y0032256D02*
X0100982Y0032256D01*
X0100940Y0032625D02*
X0101221Y0032625D01*
X0102902Y0032933D02*
X0107967Y0032933D01*
X0108076Y0032871D02*
X0102964Y0032871D01*
X0103026Y0032809D02*
X0108245Y0032809D01*
X0108368Y0032748D02*
X0103087Y0032748D01*
X0103149Y0032686D02*
X0108449Y0032686D01*
X0108504Y0032625D02*
X0103210Y0032625D01*
X0103272Y0032563D02*
X0107987Y0032563D01*
X0107913Y0032502D02*
X0103333Y0032502D01*
X0103398Y0032440D02*
X0104881Y0032440D01*
X0104821Y0032379D02*
X0103476Y0032379D01*
X0103565Y0032317D02*
X0104769Y0032317D01*
X0104718Y0032256D02*
X0103545Y0032256D01*
X0103524Y0032194D02*
X0104667Y0032194D01*
X0104615Y0032133D02*
X0103505Y0032133D01*
X0103493Y0032071D02*
X0104564Y0032071D01*
X0104512Y0032010D02*
X0103480Y0032010D01*
X0103468Y0031948D02*
X0103820Y0031948D01*
X0103775Y0031887D02*
X0103466Y0031887D01*
X0103470Y0031825D02*
X0103731Y0031825D01*
X0103711Y0031764D02*
X0103473Y0031764D01*
X0103479Y0031702D02*
X0103691Y0031702D01*
X0103684Y0031641D02*
X0103499Y0031641D01*
X0103519Y0031579D02*
X0103684Y0031579D01*
X0103686Y0031518D02*
X0103539Y0031518D01*
X0103573Y0031456D02*
X0103706Y0031456D01*
X0103726Y0031395D02*
X0103612Y0031395D01*
X0103651Y0031333D02*
X0103765Y0031333D01*
X0103810Y0031272D02*
X0103711Y0031272D01*
X0103777Y0031210D02*
X0103868Y0031210D01*
X0103860Y0031149D02*
X0103929Y0031149D01*
X0103973Y0031087D02*
X0103991Y0031087D01*
X0104460Y0031087D02*
X0104801Y0031087D01*
X0104757Y0031026D02*
X0104457Y0031026D01*
X0104454Y0030964D02*
X0104737Y0030964D01*
X0104719Y0030903D02*
X0104460Y0030903D01*
X0104472Y0030841D02*
X0104719Y0030841D01*
X0104720Y0030780D02*
X0104489Y0030780D01*
X0104520Y0030718D02*
X0104740Y0030718D01*
X0104763Y0030657D02*
X0104556Y0030657D01*
X0104612Y0030595D02*
X0104807Y0030595D01*
X0104860Y0030534D02*
X0104683Y0030534D01*
X0104771Y0030472D02*
X0104921Y0030472D01*
X0104863Y0030411D02*
X0104983Y0030411D01*
X0104997Y0030349D02*
X0105044Y0030349D01*
X0105292Y0031149D02*
X0104464Y0031149D01*
X0104473Y0031210D02*
X0105354Y0031210D01*
X0105415Y0031272D02*
X0104490Y0031272D01*
X0104507Y0031333D02*
X0105481Y0031333D01*
X0105558Y0031395D02*
X0104523Y0031395D01*
X0104549Y0031456D02*
X0105635Y0031456D01*
X0105723Y0031518D02*
X0104582Y0031518D01*
X0104614Y0031579D02*
X0105852Y0031579D01*
X0105996Y0031641D02*
X0104648Y0031641D01*
X0104698Y0031702D02*
X0108969Y0031702D01*
X0109104Y0031641D02*
X0106508Y0031641D01*
X0106643Y0031579D02*
X0109233Y0031579D01*
X0109317Y0031518D02*
X0106714Y0031518D01*
X0106764Y0031456D02*
X0107845Y0031456D01*
X0107902Y0031456D02*
X0109393Y0031456D01*
X0109442Y0031395D02*
X0108025Y0031395D01*
X0107955Y0031333D02*
X0106856Y0031333D01*
X0106903Y0031272D02*
X0108010Y0031272D01*
X0108049Y0031210D02*
X0107236Y0031210D01*
X0107328Y0031149D02*
X0108087Y0031149D01*
X0108125Y0031087D02*
X0107420Y0031087D01*
X0107512Y0031026D02*
X0108163Y0031026D01*
X0108190Y0030964D02*
X0107604Y0030964D01*
X0107696Y0030903D02*
X0108209Y0030903D01*
X0108224Y0030841D02*
X0107789Y0030841D01*
X0107881Y0030780D02*
X0108224Y0030780D01*
X0108224Y0030718D02*
X0107958Y0030718D01*
X0107996Y0030657D02*
X0108208Y0030657D01*
X0108188Y0030595D02*
X0108007Y0030595D01*
X0107999Y0030534D02*
X0108159Y0030534D01*
X0108119Y0030472D02*
X0107971Y0030472D01*
X0107932Y0030411D02*
X0108062Y0030411D01*
X0107986Y0030349D02*
X0107888Y0030349D01*
X0107881Y0030288D02*
X0107835Y0030288D01*
X0108294Y0031272D02*
X0109021Y0031272D01*
X0108952Y0031210D02*
X0108429Y0031210D01*
X0108565Y0031149D02*
X0108890Y0031149D01*
X0108829Y0031087D02*
X0108700Y0031087D01*
X0109163Y0031272D02*
X0109525Y0031272D01*
X0109556Y0031210D02*
X0109222Y0031210D01*
X0109270Y0031149D02*
X0109583Y0031149D01*
X0109598Y0031087D02*
X0109311Y0031087D01*
X0109338Y0031026D02*
X0109614Y0031026D01*
X0109623Y0030964D02*
X0109366Y0030964D01*
X0109382Y0030903D02*
X0109626Y0030903D01*
X0109628Y0030841D02*
X0109391Y0030841D01*
X0109400Y0030780D02*
X0109620Y0030780D01*
X0109597Y0030718D02*
X0109400Y0030718D01*
X0109390Y0030657D02*
X0109546Y0030657D01*
X0109443Y0030595D02*
X0109381Y0030595D01*
X0109491Y0031333D02*
X0108158Y0031333D01*
X0107900Y0031395D02*
X0106810Y0031395D01*
X0107900Y0032133D02*
X0105200Y0032133D01*
X0105108Y0032071D02*
X0107957Y0032071D01*
X0108058Y0032010D02*
X0105016Y0032010D01*
X0104941Y0031948D02*
X0108181Y0031948D01*
X0108304Y0031887D02*
X0104866Y0031887D01*
X0104799Y0031825D02*
X0108434Y0031825D01*
X0108667Y0031764D02*
X0104748Y0031764D01*
X0105292Y0032194D02*
X0107866Y0032194D01*
X0107849Y0032256D02*
X0105385Y0032256D01*
X0105331Y0032317D02*
X0107844Y0032317D01*
X0107851Y0032379D02*
X0105249Y0032379D01*
X0105167Y0032440D02*
X0107872Y0032440D01*
X0108214Y0032563D02*
X0108534Y0032563D01*
X0108557Y0032502D02*
X0108313Y0032502D01*
X0108375Y0032440D02*
X0108565Y0032440D01*
X0108554Y0032379D02*
X0108411Y0032379D01*
X0108422Y0032317D02*
X0108528Y0032317D01*
X0108483Y0032256D02*
X0108418Y0032256D01*
X0108421Y0032194D02*
X0108399Y0032194D01*
X0099634Y0034839D02*
X0097878Y0034839D01*
X0097832Y0034778D02*
X0099020Y0034778D01*
X0098446Y0034716D02*
X0097786Y0034716D01*
X0097740Y0034655D02*
X0098046Y0034655D01*
X0095304Y0037422D02*
X0093745Y0037422D01*
X0093696Y0037361D02*
X0094914Y0037361D01*
X0094525Y0037299D02*
X0093649Y0037299D01*
X0093608Y0037238D02*
X0094147Y0037238D01*
X0093810Y0037176D02*
X0093567Y0037176D01*
X0093470Y0037484D02*
X0093251Y0037484D01*
X0093286Y0037422D02*
X0093195Y0037422D01*
X0093307Y0037545D02*
X0093655Y0037545D01*
M02*
