G75*
%MOIN*%
%OFA0B0*%
%FSLAX25Y25*%
%IPPOS*%
%LPD*%
%AMOC8*
5,1,8,0,0,1.08239X$1,22.5*
%
%ADD10C,0.13398*%
%ADD11R,0.09068X0.09068*%
%ADD12C,0.12611*%
%ADD13C,0.05950*%
%ADD14C,0.09658*%
%ADD15C,0.06800*%
%ADD16OC8,0.06000*%
%ADD17C,0.06000*%
%ADD18OC8,0.07100*%
%ADD19C,0.07100*%
%ADD20OC8,0.06800*%
%ADD21R,0.06343X0.06343*%
%ADD22C,0.06343*%
%ADD23OC8,0.03778*%
%ADD24C,0.03778*%
D10*
X0064091Y0056679D03*
X0276690Y0182663D03*
X0064091Y0308648D03*
D11*
X0391847Y0215734D03*
X0391847Y0199199D03*
X0391847Y0182663D03*
X0391847Y0166128D03*
X0391847Y0149593D03*
X0413501Y0149593D03*
X0413501Y0166128D03*
X0413501Y0182663D03*
X0413501Y0199199D03*
X0413501Y0215734D03*
D12*
X0393658Y0234238D03*
X0393658Y0131089D03*
D13*
X0177595Y0055183D03*
X0117595Y0055183D03*
X0117595Y0310183D03*
X0177595Y0310183D03*
D14*
X0217635Y0286600D03*
X0217635Y0204711D03*
X0217635Y0160616D03*
X0217635Y0078726D03*
D15*
X0045595Y0093923D02*
X0039595Y0093923D01*
X0039595Y0103923D02*
X0045595Y0103923D01*
X0045595Y0113923D02*
X0039595Y0113923D01*
X0039595Y0145104D02*
X0045595Y0145104D01*
X0045595Y0165104D02*
X0039595Y0165104D01*
X0039595Y0200222D02*
X0045595Y0200222D01*
X0045595Y0220222D02*
X0039595Y0220222D01*
X0039595Y0251404D02*
X0045595Y0251404D01*
X0045595Y0261404D02*
X0039595Y0261404D01*
X0039595Y0271404D02*
X0045595Y0271404D01*
D16*
X0352595Y0295183D03*
X0352595Y0245183D03*
X0352595Y0120183D03*
X0352595Y0070183D03*
D17*
X0332595Y0070183D03*
X0332595Y0120183D03*
X0332595Y0245183D03*
X0332595Y0295183D03*
D18*
X0094595Y0285183D03*
X0094595Y0245183D03*
X0094595Y0120183D03*
X0094595Y0080183D03*
D19*
X0080595Y0080183D03*
X0080595Y0120183D03*
X0080595Y0245183D03*
X0080595Y0285183D03*
D20*
X0227595Y0310183D03*
X0247595Y0310183D03*
X0262595Y0310183D03*
X0282595Y0310183D03*
X0337595Y0200183D03*
X0357595Y0200183D03*
X0357595Y0165183D03*
X0337595Y0165183D03*
X0282595Y0055183D03*
X0262595Y0055183D03*
X0247595Y0055183D03*
X0227595Y0055183D03*
D21*
X0392595Y0062683D03*
X0392595Y0257683D03*
D22*
X0392595Y0272683D03*
X0392595Y0287683D03*
X0392595Y0302683D03*
X0392595Y0107683D03*
X0392595Y0092683D03*
X0392595Y0077683D03*
D23*
X0182595Y0240183D03*
X0182595Y0245183D03*
X0177595Y0245183D03*
X0172595Y0245183D03*
X0167595Y0245183D03*
X0162595Y0245183D03*
X0157595Y0245183D03*
X0157595Y0240183D03*
X0162595Y0240183D03*
X0167595Y0240183D03*
X0172595Y0240183D03*
X0177595Y0240183D03*
X0177595Y0235183D03*
X0172595Y0235183D03*
X0167595Y0235183D03*
X0162595Y0235183D03*
X0157595Y0235183D03*
X0157595Y0250183D03*
X0157595Y0255183D03*
X0162595Y0255183D03*
X0162595Y0250183D03*
X0167595Y0250183D03*
X0167595Y0255183D03*
X0172595Y0255183D03*
X0172595Y0250183D03*
X0177595Y0250183D03*
X0177595Y0255183D03*
X0177595Y0260183D03*
X0172595Y0260183D03*
X0167595Y0260183D03*
X0162595Y0260183D03*
X0157595Y0260183D03*
X0157595Y0265183D03*
X0162595Y0265183D03*
X0167595Y0265183D03*
X0172595Y0265183D03*
X0177595Y0265183D03*
X0182595Y0260183D03*
X0182595Y0255183D03*
X0182595Y0250183D03*
X0080095Y0232683D03*
D24*
X0090095Y0217683D03*
X0090095Y0210183D03*
X0052595Y0167683D03*
X0052595Y0162683D03*
X0070095Y0145183D03*
X0097595Y0132683D03*
X0157595Y0130183D03*
X0162595Y0130183D03*
X0167595Y0130183D03*
X0172595Y0130183D03*
X0177595Y0130183D03*
X0177595Y0125183D03*
X0172595Y0125183D03*
X0167595Y0125183D03*
X0162595Y0125183D03*
X0157595Y0125183D03*
X0157595Y0120183D03*
X0162595Y0120183D03*
X0167595Y0120183D03*
X0172595Y0120183D03*
X0177595Y0120183D03*
X0177595Y0115183D03*
X0172595Y0115183D03*
X0167595Y0115183D03*
X0162595Y0115183D03*
X0157595Y0115183D03*
X0157595Y0110183D03*
X0162595Y0110183D03*
X0167595Y0110183D03*
X0172595Y0110183D03*
X0177595Y0110183D03*
X0177595Y0105183D03*
X0172595Y0105183D03*
X0167595Y0105183D03*
X0162595Y0105183D03*
X0157595Y0105183D03*
X0157595Y0100183D03*
X0162595Y0100183D03*
X0167595Y0100183D03*
X0172595Y0100183D03*
X0177595Y0100183D03*
X0182595Y0105183D03*
X0182595Y0110183D03*
X0182595Y0115183D03*
X0182595Y0120183D03*
X0182595Y0125183D03*
X0277595Y0140183D03*
X0277595Y0105183D03*
M02*
