G75*
%MOIN*%
%OFA0B0*%
%FSLAX25Y25*%
%IPPOS*%
%LPD*%
%AMOC8*
5,1,8,0,0,1.08239X$1,22.5*
%
%ADD10R,0.08268X0.08268*%
%ADD11R,0.05118X0.05906*%
%ADD12R,0.05906X0.05118*%
%ADD13C,0.05150*%
%ADD14C,0.08858*%
%ADD15C,0.06000*%
%ADD16OC8,0.05200*%
%ADD17C,0.05200*%
%ADD18OC8,0.06300*%
%ADD19C,0.06300*%
%ADD20OC8,0.06000*%
%ADD21R,0.08799X0.04799*%
%ADD22R,0.08661X0.14173*%
%ADD23R,0.05512X0.03937*%
%ADD24R,0.03937X0.05512*%
%ADD25R,0.05512X0.05512*%
%ADD26R,0.05543X0.05543*%
%ADD27C,0.05543*%
%ADD28OC8,0.02978*%
%ADD29C,0.02978*%
%ADD30C,0.02400*%
%ADD31C,0.10000*%
%ADD32C,0.03200*%
%ADD33C,0.15000*%
%ADD34C,0.05000*%
%ADD35C,0.02000*%
D10*
X0391847Y0149593D03*
X0391847Y0166128D03*
X0391847Y0182663D03*
X0391847Y0199199D03*
X0391847Y0215734D03*
X0413501Y0215734D03*
X0413501Y0199199D03*
X0413501Y0182663D03*
X0413501Y0166128D03*
X0413501Y0149593D03*
D11*
X0381335Y0105183D03*
X0373855Y0105183D03*
X0373855Y0095183D03*
X0381335Y0095183D03*
X0322005Y0134553D03*
X0314524Y0134553D03*
X0314131Y0149553D03*
X0321611Y0149553D03*
X0266335Y0140183D03*
X0258855Y0140183D03*
X0241335Y0140183D03*
X0233855Y0140183D03*
X0313855Y0215183D03*
X0321335Y0215183D03*
X0321335Y0230183D03*
X0313855Y0230183D03*
X0266335Y0265183D03*
X0258855Y0265183D03*
X0241335Y0265183D03*
X0233855Y0265183D03*
X0131335Y0250183D03*
X0123855Y0250183D03*
X0123855Y0130183D03*
X0131335Y0130183D03*
X0368579Y0234947D03*
X0376060Y0234947D03*
X0376060Y0245380D03*
X0368579Y0245380D03*
D12*
X0368461Y0271364D03*
X0368461Y0278844D03*
X0358501Y0278844D03*
X0358501Y0271364D03*
X0217595Y0233923D03*
X0217595Y0226443D03*
X0117595Y0271443D03*
X0117595Y0278923D03*
X0070095Y0263923D03*
X0070095Y0256443D03*
X0060095Y0256443D03*
X0060095Y0263923D03*
X0065095Y0136423D03*
X0072595Y0136423D03*
X0072595Y0128943D03*
X0065095Y0128943D03*
X0117595Y0093923D03*
X0117595Y0086443D03*
X0222595Y0101443D03*
X0222595Y0108923D03*
X0372595Y0073923D03*
X0372595Y0066443D03*
X0382595Y0066443D03*
X0382595Y0073923D03*
D13*
X0177595Y0055183D03*
X0117595Y0055183D03*
X0117595Y0310183D03*
X0177595Y0310183D03*
D14*
X0217635Y0286600D03*
X0217635Y0204711D03*
X0217635Y0160616D03*
X0217635Y0078726D03*
D15*
X0217635Y0065144D01*
X0227595Y0055183D01*
X0247595Y0055183D02*
X0262595Y0055183D01*
X0080595Y0120183D02*
X0077595Y0120183D01*
X0046595Y0120183D02*
X0046595Y0117923D01*
X0042595Y0113923D01*
X0045595Y0113923D02*
X0039595Y0113923D01*
X0039595Y0103923D02*
X0045595Y0103923D01*
X0045595Y0093923D02*
X0039595Y0093923D01*
X0039595Y0145104D02*
X0045595Y0145104D01*
X0045595Y0165104D02*
X0039595Y0165104D01*
X0039595Y0200222D02*
X0045595Y0200222D01*
X0044095Y0200222D02*
X0042595Y0200222D01*
X0045595Y0220222D02*
X0039595Y0220222D01*
X0039595Y0251404D02*
X0045595Y0251404D01*
X0045595Y0261404D02*
X0039595Y0261404D01*
X0039595Y0271404D02*
X0045595Y0271404D01*
X0079375Y0271404D02*
X0080595Y0270183D01*
X0217635Y0286600D02*
X0217635Y0300222D01*
X0227595Y0310183D01*
X0247595Y0310183D02*
X0262595Y0310183D01*
D16*
X0352595Y0295183D03*
X0352595Y0245183D03*
X0352595Y0120183D03*
X0352595Y0070183D03*
D17*
X0332595Y0070183D03*
X0332595Y0120183D03*
X0332595Y0245183D03*
X0332595Y0295183D03*
D18*
X0094595Y0285183D03*
X0094595Y0245183D03*
X0094595Y0120183D03*
X0094595Y0080183D03*
D19*
X0080595Y0080183D03*
X0080595Y0120183D03*
X0080595Y0245183D03*
X0080595Y0285183D03*
D20*
X0227595Y0310183D03*
X0247595Y0310183D03*
X0262595Y0310183D03*
X0282595Y0310183D03*
X0337595Y0200183D03*
X0357595Y0200183D03*
X0357595Y0165183D03*
X0337595Y0165183D03*
X0282595Y0055183D03*
X0262595Y0055183D03*
X0247595Y0055183D03*
X0227595Y0055183D03*
D21*
X0194796Y0106085D03*
X0194796Y0115183D03*
X0194796Y0124281D03*
X0194796Y0241085D03*
X0194796Y0250183D03*
X0194796Y0259281D03*
D22*
X0170394Y0250183D03*
X0170394Y0115183D03*
D23*
X0238264Y0110183D03*
X0246926Y0106443D03*
X0246926Y0113923D03*
X0246926Y0226443D03*
X0246926Y0233923D03*
X0238264Y0230183D03*
D24*
X0116335Y0135852D03*
X0108855Y0135852D03*
X0112595Y0144514D03*
X0106335Y0225852D03*
X0098855Y0225852D03*
X0102595Y0234514D03*
D25*
X0112595Y0237703D03*
X0112595Y0252663D03*
X0115115Y0215183D03*
X0130075Y0215183D03*
X0135075Y0115183D03*
X0120115Y0115183D03*
X0105075Y0095183D03*
X0090115Y0095183D03*
X0262595Y0102703D03*
X0262595Y0117663D03*
X0262595Y0222703D03*
X0262595Y0237663D03*
D26*
X0392595Y0257683D03*
X0392595Y0062683D03*
D27*
X0392595Y0077683D03*
X0392595Y0092683D03*
X0392595Y0107683D03*
X0392595Y0272683D03*
X0392595Y0287683D03*
X0392595Y0302683D03*
D28*
X0182595Y0260183D03*
X0177595Y0260183D03*
X0172595Y0260183D03*
X0167595Y0260183D03*
X0162595Y0260183D03*
X0157595Y0260183D03*
X0157595Y0265183D03*
X0162595Y0265183D03*
X0167595Y0265183D03*
X0172595Y0265183D03*
X0177595Y0265183D03*
X0177595Y0255183D03*
X0172595Y0255183D03*
X0167595Y0255183D03*
X0162595Y0255183D03*
X0157595Y0255183D03*
X0157595Y0250183D03*
X0162595Y0250183D03*
X0167595Y0250183D03*
X0172595Y0250183D03*
X0177595Y0250183D03*
X0177595Y0245183D03*
X0172595Y0245183D03*
X0167595Y0245183D03*
X0162595Y0245183D03*
X0157595Y0245183D03*
X0157595Y0240183D03*
X0162595Y0240183D03*
X0167595Y0240183D03*
X0172595Y0240183D03*
X0177595Y0240183D03*
X0177595Y0235183D03*
X0172595Y0235183D03*
X0167595Y0235183D03*
X0162595Y0235183D03*
X0157595Y0235183D03*
X0182595Y0240183D03*
X0182595Y0245183D03*
X0182595Y0250183D03*
X0182595Y0255183D03*
X0080095Y0232683D03*
D29*
X0090095Y0217683D03*
X0090095Y0210183D03*
X0052595Y0167683D03*
X0052595Y0162683D03*
X0070095Y0145183D03*
X0097595Y0132683D03*
X0157595Y0130183D03*
X0162595Y0130183D03*
X0167595Y0130183D03*
X0172595Y0130183D03*
X0177595Y0130183D03*
X0177595Y0125183D03*
X0172595Y0125183D03*
X0167595Y0125183D03*
X0162595Y0125183D03*
X0157595Y0125183D03*
X0157595Y0120183D03*
X0162595Y0120183D03*
X0167595Y0120183D03*
X0172595Y0120183D03*
X0177595Y0120183D03*
X0177595Y0115183D03*
X0172595Y0115183D03*
X0167595Y0115183D03*
X0162595Y0115183D03*
X0157595Y0115183D03*
X0157595Y0110183D03*
X0162595Y0110183D03*
X0167595Y0110183D03*
X0172595Y0110183D03*
X0177595Y0110183D03*
X0177595Y0105183D03*
X0172595Y0105183D03*
X0167595Y0105183D03*
X0162595Y0105183D03*
X0157595Y0105183D03*
X0157595Y0100183D03*
X0162595Y0100183D03*
X0167595Y0100183D03*
X0172595Y0100183D03*
X0177595Y0100183D03*
X0182595Y0105183D03*
X0182595Y0110183D03*
X0182595Y0115183D03*
X0182595Y0120183D03*
X0182595Y0125183D03*
X0277595Y0140183D03*
X0277595Y0105183D03*
D30*
X0283795Y0104334D02*
X0267551Y0104334D01*
X0267551Y0105748D02*
X0267401Y0106308D01*
X0267111Y0106809D01*
X0266702Y0107219D01*
X0266200Y0107509D01*
X0265641Y0107659D01*
X0262773Y0107659D01*
X0262773Y0102881D01*
X0262417Y0102881D01*
X0262417Y0107659D01*
X0259550Y0107659D01*
X0258990Y0107509D01*
X0258488Y0107219D01*
X0258079Y0106809D01*
X0257789Y0106308D01*
X0257639Y0105748D01*
X0257639Y0102881D01*
X0262417Y0102881D01*
X0262417Y0102525D01*
X0257639Y0102525D01*
X0257639Y0099657D01*
X0257789Y0099098D01*
X0258079Y0098596D01*
X0258488Y0098186D01*
X0258990Y0097897D01*
X0259550Y0097747D01*
X0262417Y0097747D01*
X0262417Y0102525D01*
X0262773Y0102525D01*
X0262773Y0102881D01*
X0267551Y0102881D01*
X0267551Y0105748D01*
X0267156Y0106732D02*
X0283795Y0106732D01*
X0283795Y0109131D02*
X0251767Y0109131D01*
X0251732Y0109261D02*
X0251882Y0108701D01*
X0251882Y0106443D01*
X0246926Y0106443D01*
X0246926Y0106443D01*
X0251882Y0106443D01*
X0251882Y0104185D01*
X0251732Y0103625D01*
X0251442Y0103124D01*
X0251033Y0102714D01*
X0250531Y0102424D01*
X0249971Y0102274D01*
X0246926Y0102274D01*
X0246926Y0106443D01*
X0246926Y0106443D01*
X0246926Y0102274D01*
X0243880Y0102274D01*
X0243321Y0102424D01*
X0242819Y0102714D01*
X0242409Y0103124D01*
X0242120Y0103625D01*
X0241970Y0104185D01*
X0241970Y0105794D01*
X0241538Y0105615D01*
X0234991Y0105615D01*
X0234036Y0106010D01*
X0233916Y0106130D01*
X0233488Y0105702D01*
X0232091Y0105123D01*
X0227848Y0105123D01*
X0227752Y0104891D01*
X0227622Y0104761D01*
X0227748Y0104292D01*
X0227748Y0101522D01*
X0222675Y0101522D01*
X0222675Y0101363D01*
X0227748Y0101363D01*
X0227748Y0098594D01*
X0227598Y0098035D01*
X0227308Y0097533D01*
X0226899Y0097123D01*
X0226397Y0096834D01*
X0225838Y0096684D01*
X0222675Y0096684D01*
X0222675Y0101363D01*
X0222516Y0101363D01*
X0222516Y0096684D01*
X0219353Y0096684D01*
X0218793Y0096834D01*
X0218292Y0097123D01*
X0217882Y0097533D01*
X0217592Y0098035D01*
X0217442Y0098594D01*
X0217442Y0101363D01*
X0222516Y0101363D01*
X0222516Y0101522D01*
X0217442Y0101522D01*
X0217442Y0104292D01*
X0217568Y0104761D01*
X0217438Y0104891D01*
X0217342Y0105123D01*
X0212909Y0105123D01*
X0210817Y0103031D01*
X0209748Y0101962D01*
X0208351Y0101383D01*
X0203592Y0101383D01*
X0204748Y0100905D01*
X0205817Y0099836D01*
X0210817Y0094836D01*
X0211268Y0093746D01*
X0211839Y0093983D01*
X0281021Y0093983D01*
X0283795Y0096757D01*
X0283795Y0148609D01*
X0281021Y0151383D01*
X0239169Y0151383D01*
X0237655Y0149869D01*
X0237655Y0145486D01*
X0238259Y0145736D01*
X0244412Y0145736D01*
X0245367Y0145340D01*
X0246099Y0144609D01*
X0246358Y0143983D01*
X0253833Y0143983D01*
X0254092Y0144609D01*
X0254823Y0145340D01*
X0255779Y0145736D01*
X0261931Y0145736D01*
X0262887Y0145340D01*
X0263017Y0145210D01*
X0263487Y0145336D01*
X0266256Y0145336D01*
X0266256Y0140263D01*
X0266415Y0140263D01*
X0266415Y0145336D01*
X0269184Y0145336D01*
X0269744Y0145186D01*
X0270245Y0144896D01*
X0270655Y0144487D01*
X0270944Y0143985D01*
X0271094Y0143425D01*
X0271094Y0140263D01*
X0266415Y0140263D01*
X0266415Y0140104D01*
X0271094Y0140104D01*
X0271094Y0136941D01*
X0270944Y0136381D01*
X0270655Y0135879D01*
X0270245Y0135470D01*
X0269744Y0135180D01*
X0269184Y0135030D01*
X0266415Y0135030D01*
X0266415Y0140103D01*
X0266256Y0140103D01*
X0266256Y0135030D01*
X0263487Y0135030D01*
X0263017Y0135156D01*
X0262887Y0135026D01*
X0262655Y0134930D01*
X0262655Y0130497D01*
X0264748Y0128405D01*
X0265817Y0127336D01*
X0266395Y0125939D01*
X0266395Y0122801D01*
X0266824Y0122623D01*
X0267555Y0121892D01*
X0267951Y0120936D01*
X0267951Y0114390D01*
X0267555Y0113435D01*
X0266824Y0112703D01*
X0265868Y0112307D01*
X0259322Y0112307D01*
X0258366Y0112703D01*
X0257635Y0113435D01*
X0257457Y0113863D01*
X0252282Y0113863D01*
X0252282Y0111438D01*
X0251886Y0110482D01*
X0251304Y0109900D01*
X0251442Y0109762D01*
X0251732Y0109261D01*
X0252282Y0111529D02*
X0283795Y0111529D01*
X0283795Y0113928D02*
X0267760Y0113928D01*
X0267951Y0116327D02*
X0283795Y0116327D01*
X0283795Y0118725D02*
X0267951Y0118725D01*
X0267874Y0121124D02*
X0283795Y0121124D01*
X0283795Y0123522D02*
X0266395Y0123522D01*
X0266395Y0125921D02*
X0283795Y0125921D01*
X0283795Y0128319D02*
X0264833Y0128319D01*
X0262655Y0130718D02*
X0283795Y0130718D01*
X0283795Y0133116D02*
X0262655Y0133116D01*
X0266256Y0135515D02*
X0266415Y0135515D01*
X0266415Y0137913D02*
X0266256Y0137913D01*
X0266256Y0140312D02*
X0266415Y0140312D01*
X0266415Y0142710D02*
X0266256Y0142710D01*
X0266256Y0145109D02*
X0266415Y0145109D01*
X0269877Y0145109D02*
X0283795Y0145109D01*
X0283795Y0147507D02*
X0237655Y0147507D01*
X0237692Y0149906D02*
X0282499Y0149906D01*
X0287595Y0150183D02*
X0282595Y0155183D01*
X0237595Y0155183D01*
X0233855Y0151443D01*
X0233855Y0140183D01*
X0222595Y0140183D01*
X0206694Y0124281D01*
X0194796Y0124281D01*
X0200670Y0128883D02*
X0203351Y0128883D01*
X0204748Y0129462D01*
X0213317Y0138031D01*
X0213895Y0139427D01*
X0213895Y0151162D01*
X0216305Y0150516D01*
X0218964Y0150516D01*
X0221533Y0151204D01*
X0223836Y0152534D01*
X0225717Y0154415D01*
X0227046Y0156718D01*
X0227734Y0159286D01*
X0227734Y0161946D01*
X0227046Y0164515D01*
X0225717Y0166818D01*
X0213650Y0178885D01*
X0211769Y0180765D01*
X0209466Y0182095D01*
X0207290Y0182678D01*
X0209505Y0183271D01*
X0211808Y0184601D01*
X0213689Y0186482D01*
X0225717Y0198509D01*
X0227046Y0200812D01*
X0227734Y0203381D01*
X0227734Y0206040D01*
X0227046Y0208609D01*
X0225717Y0210912D01*
X0223836Y0212793D01*
X0221533Y0214122D01*
X0218964Y0214811D01*
X0216305Y0214811D01*
X0213895Y0214165D01*
X0213895Y0221806D01*
X0214353Y0221684D01*
X0217516Y0221684D01*
X0217516Y0226363D01*
X0217675Y0226363D01*
X0217675Y0226522D01*
X0222748Y0226522D01*
X0222748Y0229292D01*
X0222622Y0229761D01*
X0222752Y0229891D01*
X0222848Y0230123D01*
X0227281Y0230123D01*
X0229374Y0228031D01*
X0230443Y0226962D01*
X0231839Y0226383D01*
X0233663Y0226383D01*
X0234036Y0226010D01*
X0234991Y0225615D01*
X0241538Y0225615D01*
X0241970Y0225794D01*
X0241970Y0224185D01*
X0242120Y0223625D01*
X0242409Y0223124D01*
X0242819Y0222714D01*
X0243321Y0222424D01*
X0243880Y0222274D01*
X0246926Y0222274D01*
X0249971Y0222274D01*
X0250531Y0222424D01*
X0251033Y0222714D01*
X0251442Y0223124D01*
X0251732Y0223625D01*
X0251882Y0224185D01*
X0251882Y0226443D01*
X0251882Y0228701D01*
X0251732Y0229261D01*
X0251442Y0229762D01*
X0251304Y0229900D01*
X0251886Y0230482D01*
X0252282Y0231438D01*
X0252282Y0233863D01*
X0257457Y0233863D01*
X0257635Y0233435D01*
X0258366Y0232703D01*
X0259322Y0232307D01*
X0265868Y0232307D01*
X0266824Y0232703D01*
X0267555Y0233435D01*
X0267951Y0234390D01*
X0267951Y0240936D01*
X0267555Y0241892D01*
X0266824Y0242623D01*
X0266395Y0242801D01*
X0266395Y0250939D01*
X0265817Y0252336D01*
X0264748Y0253405D01*
X0262655Y0255497D01*
X0262655Y0259930D01*
X0262887Y0260026D01*
X0263017Y0260156D01*
X0263487Y0260030D01*
X0266256Y0260030D01*
X0266256Y0265103D01*
X0266415Y0265103D01*
X0266415Y0260030D01*
X0269184Y0260030D01*
X0269744Y0260180D01*
X0270245Y0260470D01*
X0270655Y0260879D01*
X0270944Y0261381D01*
X0271094Y0261941D01*
X0271094Y0265104D01*
X0266415Y0265104D01*
X0266415Y0265263D01*
X0266256Y0265263D01*
X0266256Y0270336D01*
X0263487Y0270336D01*
X0263017Y0270210D01*
X0262887Y0270340D01*
X0261931Y0270736D01*
X0255779Y0270736D01*
X0254823Y0270340D01*
X0254092Y0269609D01*
X0253833Y0268983D01*
X0246358Y0268983D01*
X0246099Y0269609D01*
X0245367Y0270340D01*
X0244412Y0270736D01*
X0238259Y0270736D01*
X0237595Y0270461D01*
X0236931Y0270736D01*
X0230779Y0270736D01*
X0229823Y0270340D01*
X0229092Y0269609D01*
X0228833Y0268983D01*
X0216395Y0268983D01*
X0216395Y0275939D01*
X0215817Y0277336D01*
X0214748Y0278405D01*
X0214748Y0278405D01*
X0211395Y0281757D01*
X0211395Y0282092D01*
X0213329Y0280157D01*
X0216123Y0279000D01*
X0290524Y0279000D01*
X0293318Y0280157D01*
X0300743Y0287583D01*
X0324995Y0287583D01*
X0324995Y0235494D01*
X0324412Y0235736D01*
X0318259Y0235736D01*
X0317303Y0235340D01*
X0317173Y0235210D01*
X0316704Y0235336D01*
X0313935Y0235336D01*
X0313935Y0230263D01*
X0313775Y0230263D01*
X0313775Y0230104D01*
X0309096Y0230104D01*
X0309096Y0226941D01*
X0309246Y0226381D01*
X0309535Y0225879D01*
X0309945Y0225470D01*
X0310447Y0225180D01*
X0311006Y0225030D01*
X0313775Y0225030D01*
X0313775Y0230103D01*
X0313935Y0230103D01*
X0313935Y0225030D01*
X0316704Y0225030D01*
X0317173Y0225156D01*
X0317303Y0225026D01*
X0318259Y0224630D01*
X0324412Y0224630D01*
X0324995Y0224872D01*
X0324995Y0220494D01*
X0324412Y0220736D01*
X0318259Y0220736D01*
X0317303Y0220340D01*
X0317173Y0220210D01*
X0316704Y0220336D01*
X0313935Y0220336D01*
X0313935Y0215263D01*
X0313775Y0215263D01*
X0313775Y0215104D01*
X0309096Y0215104D01*
X0309096Y0211941D01*
X0309246Y0211381D01*
X0309535Y0210879D01*
X0309945Y0210470D01*
X0310447Y0210180D01*
X0311006Y0210030D01*
X0313775Y0210030D01*
X0313775Y0215103D01*
X0313935Y0215103D01*
X0313935Y0210030D01*
X0316704Y0210030D01*
X0317173Y0210156D01*
X0317303Y0210026D01*
X0318259Y0209630D01*
X0324412Y0209630D01*
X0324995Y0209872D01*
X0324995Y0203671D01*
X0326152Y0200878D01*
X0328290Y0198740D01*
X0328290Y0198740D01*
X0333290Y0193740D01*
X0336083Y0192583D01*
X0339107Y0192583D01*
X0341900Y0193740D01*
X0344038Y0195878D01*
X0345195Y0198671D01*
X0345195Y0201695D01*
X0344038Y0204488D01*
X0340195Y0208331D01*
X0340195Y0260983D01*
X0368431Y0260983D01*
X0369974Y0261622D01*
X0372022Y0263670D01*
X0372661Y0265214D01*
X0372661Y0266508D01*
X0372887Y0266601D01*
X0373618Y0267332D01*
X0373797Y0267764D01*
X0374250Y0267764D01*
X0375573Y0268312D01*
X0378995Y0271734D01*
X0378995Y0256674D01*
X0375556Y0253235D01*
X0374543Y0252222D01*
X0374009Y0250933D01*
X0372983Y0250933D01*
X0372028Y0250537D01*
X0371898Y0250407D01*
X0371428Y0250533D01*
X0368659Y0250533D01*
X0368659Y0245460D01*
X0368500Y0245460D01*
X0368500Y0250533D01*
X0365731Y0250533D01*
X0365171Y0250383D01*
X0364670Y0250093D01*
X0364260Y0249684D01*
X0363970Y0249182D01*
X0363820Y0248622D01*
X0363820Y0245459D01*
X0368500Y0245459D01*
X0368500Y0245300D01*
X0368659Y0245300D01*
X0368659Y0240227D01*
X0371428Y0240227D01*
X0371898Y0240353D01*
X0372028Y0240223D01*
X0372172Y0240163D01*
X0372028Y0240104D01*
X0371898Y0239974D01*
X0371428Y0240100D01*
X0368659Y0240100D01*
X0368659Y0235026D01*
X0368500Y0235026D01*
X0368500Y0234867D01*
X0368659Y0234867D01*
X0368659Y0229794D01*
X0371428Y0229794D01*
X0371898Y0229920D01*
X0372028Y0229790D01*
X0372983Y0229394D01*
X0374025Y0229394D01*
X0374543Y0228144D01*
X0384597Y0218090D01*
X0384247Y0217246D01*
X0384247Y0207783D01*
X0356083Y0207783D01*
X0353290Y0206626D01*
X0351152Y0204488D01*
X0349995Y0201695D01*
X0349995Y0198671D01*
X0351152Y0195878D01*
X0353290Y0193740D01*
X0356083Y0192583D01*
X0386911Y0192583D01*
X0387196Y0192465D01*
X0388244Y0192465D01*
X0390335Y0191599D01*
X0393359Y0191599D01*
X0395450Y0192465D01*
X0396498Y0192465D01*
X0397454Y0192861D01*
X0398185Y0193592D01*
X0398581Y0194548D01*
X0398581Y0195596D01*
X0399447Y0197687D01*
X0399447Y0217246D01*
X0398581Y0219337D01*
X0398581Y0220385D01*
X0398185Y0221341D01*
X0397454Y0222072D01*
X0396498Y0222468D01*
X0395450Y0222468D01*
X0393845Y0223133D01*
X0395120Y0223133D01*
X0397945Y0223889D01*
X0400477Y0225352D01*
X0402545Y0227419D01*
X0404007Y0229952D01*
X0404764Y0232776D01*
X0404764Y0235700D01*
X0404007Y0238525D01*
X0402545Y0241057D01*
X0400477Y0243125D01*
X0397945Y0244587D01*
X0395120Y0245344D01*
X0392196Y0245344D01*
X0389372Y0244587D01*
X0386839Y0243125D01*
X0384772Y0241057D01*
X0383309Y0238525D01*
X0382553Y0235700D01*
X0382553Y0232776D01*
X0383309Y0229952D01*
X0383845Y0229025D01*
X0381219Y0231651D01*
X0381219Y0238417D01*
X0381195Y0238474D01*
X0381195Y0241853D01*
X0381219Y0241910D01*
X0381219Y0248716D01*
X0385647Y0253144D01*
X0386195Y0254467D01*
X0386195Y0276192D01*
X0392315Y0282311D01*
X0393664Y0282311D01*
X0395638Y0283129D01*
X0397149Y0284640D01*
X0397967Y0286615D01*
X0397967Y0288752D01*
X0397149Y0290726D01*
X0395638Y0292237D01*
X0393664Y0293055D01*
X0391527Y0293055D01*
X0389552Y0292237D01*
X0388041Y0290726D01*
X0387223Y0288752D01*
X0387223Y0287403D01*
X0380953Y0281132D01*
X0380953Y0285949D01*
X0392315Y0297311D01*
X0393664Y0297311D01*
X0395638Y0298129D01*
X0397149Y0299640D01*
X0397967Y0301615D01*
X0397967Y0303752D01*
X0397149Y0305726D01*
X0395638Y0307237D01*
X0393664Y0308055D01*
X0391527Y0308055D01*
X0389552Y0307237D01*
X0388041Y0305726D01*
X0387223Y0303752D01*
X0387223Y0302403D01*
X0375313Y0290492D01*
X0374301Y0289480D01*
X0373753Y0288157D01*
X0373753Y0276674D01*
X0373614Y0276536D01*
X0373614Y0278765D01*
X0368541Y0278765D01*
X0368541Y0278924D01*
X0373614Y0278924D01*
X0373614Y0281693D01*
X0373464Y0282253D01*
X0373174Y0282754D01*
X0372765Y0283164D01*
X0372263Y0283454D01*
X0371704Y0283604D01*
X0368541Y0283604D01*
X0368541Y0278924D01*
X0368382Y0278924D01*
X0368382Y0283604D01*
X0365219Y0283604D01*
X0364659Y0283454D01*
X0364158Y0283164D01*
X0363748Y0282754D01*
X0363481Y0282292D01*
X0363214Y0282754D01*
X0362804Y0283164D01*
X0362303Y0283454D01*
X0361743Y0283604D01*
X0358580Y0283604D01*
X0358580Y0278924D01*
X0358421Y0278924D01*
X0358421Y0278765D01*
X0353348Y0278765D01*
X0353348Y0275996D01*
X0353474Y0275526D01*
X0353344Y0275396D01*
X0352948Y0274440D01*
X0352948Y0269383D01*
X0340195Y0269383D01*
X0340195Y0296695D01*
X0339038Y0299488D01*
X0336900Y0301626D01*
X0334107Y0302783D01*
X0296083Y0302783D01*
X0293290Y0301626D01*
X0291152Y0299488D01*
X0285864Y0294200D01*
X0223234Y0294200D01*
X0223234Y0297903D01*
X0232343Y0307011D01*
X0233195Y0307863D01*
X0233195Y0312503D01*
X0232343Y0313355D01*
X0232343Y0313355D01*
X0230767Y0314931D01*
X0229915Y0315783D01*
X0225276Y0315783D01*
X0224423Y0314931D01*
X0212887Y0303395D01*
X0212035Y0301336D01*
X0212035Y0291748D01*
X0211395Y0291109D01*
X0211395Y0303609D01*
X0224169Y0316383D01*
X0348351Y0316383D01*
X0348834Y0316583D01*
X0391104Y0316583D01*
X0398995Y0308692D01*
X0398995Y0276674D01*
X0398604Y0276283D01*
X0396592Y0276283D01*
X0395638Y0277237D01*
X0393664Y0278055D01*
X0391527Y0278055D01*
X0389552Y0277237D01*
X0388041Y0275726D01*
X0387223Y0273752D01*
X0387223Y0271615D01*
X0388041Y0269640D01*
X0389552Y0268129D01*
X0391527Y0267311D01*
X0393664Y0267311D01*
X0395638Y0268129D01*
X0396592Y0269083D01*
X0400811Y0269083D01*
X0402134Y0269631D01*
X0404634Y0272131D01*
X0405647Y0273144D01*
X0405901Y0273756D01*
X0405901Y0214223D01*
X0406767Y0212131D01*
X0406767Y0211083D01*
X0407163Y0210128D01*
X0407894Y0209396D01*
X0408850Y0209000D01*
X0409898Y0209000D01*
X0411989Y0208134D01*
X0415012Y0208134D01*
X0417103Y0209000D01*
X0418152Y0209000D01*
X0419107Y0209396D01*
X0419127Y0209416D01*
X0419127Y0204951D01*
X0418985Y0205093D01*
X0418484Y0205383D01*
X0417924Y0205533D01*
X0413679Y0205533D01*
X0413679Y0199377D01*
X0413323Y0199377D01*
X0413323Y0205533D01*
X0409077Y0205533D01*
X0408518Y0205383D01*
X0408016Y0205093D01*
X0407606Y0204684D01*
X0407317Y0204182D01*
X0407167Y0203622D01*
X0407167Y0199377D01*
X0413323Y0199377D01*
X0413323Y0199021D01*
X0413679Y0199021D01*
X0413679Y0192865D01*
X0417924Y0192865D01*
X0418484Y0193015D01*
X0418985Y0193305D01*
X0419127Y0193447D01*
X0419127Y0188416D01*
X0418985Y0188558D01*
X0418484Y0188847D01*
X0417924Y0188997D01*
X0413679Y0188997D01*
X0413679Y0182841D01*
X0413323Y0182841D01*
X0413323Y0182485D01*
X0413679Y0182485D01*
X0413679Y0176330D01*
X0417924Y0176330D01*
X0418484Y0176479D01*
X0418985Y0176769D01*
X0419127Y0176911D01*
X0419127Y0171880D01*
X0418985Y0172022D01*
X0418484Y0172312D01*
X0417924Y0172462D01*
X0413679Y0172462D01*
X0413679Y0166306D01*
X0413323Y0166306D01*
X0413323Y0172462D01*
X0409077Y0172462D01*
X0408518Y0172312D01*
X0408016Y0172022D01*
X0407606Y0171613D01*
X0407317Y0171111D01*
X0407167Y0170551D01*
X0407167Y0166306D01*
X0413323Y0166306D01*
X0413323Y0165950D01*
X0413679Y0165950D01*
X0413679Y0159794D01*
X0417924Y0159794D01*
X0418484Y0159944D01*
X0418985Y0160234D01*
X0419127Y0160376D01*
X0419127Y0155910D01*
X0419107Y0155931D01*
X0418152Y0156326D01*
X0417103Y0156326D01*
X0415012Y0157193D01*
X0411989Y0157193D01*
X0409898Y0156326D01*
X0408850Y0156326D01*
X0407894Y0155931D01*
X0407163Y0155199D01*
X0406767Y0154244D01*
X0406767Y0153195D01*
X0405901Y0151104D01*
X0405901Y0092133D01*
X0405817Y0092336D01*
X0404748Y0093405D01*
X0402248Y0095905D01*
X0400851Y0096483D01*
X0396392Y0096483D01*
X0395638Y0097237D01*
X0393664Y0098055D01*
X0391527Y0098055D01*
X0389552Y0097237D01*
X0388041Y0095726D01*
X0387223Y0093752D01*
X0387223Y0091615D01*
X0388041Y0089640D01*
X0389552Y0088129D01*
X0391527Y0087311D01*
X0393664Y0087311D01*
X0395638Y0088129D01*
X0396392Y0088883D01*
X0398521Y0088883D01*
X0398795Y0088609D01*
X0398795Y0051757D01*
X0396021Y0048983D01*
X0214169Y0048983D01*
X0211395Y0051757D01*
X0211395Y0074218D01*
X0212035Y0073578D01*
X0212035Y0064030D01*
X0212887Y0061972D01*
X0224423Y0050436D01*
X0225276Y0049583D01*
X0229915Y0049583D01*
X0230767Y0050436D01*
X0230767Y0050436D01*
X0232343Y0052011D01*
X0233195Y0052863D01*
X0233195Y0057503D01*
X0232343Y0058355D01*
X0232343Y0058355D01*
X0223234Y0067463D01*
X0223234Y0071126D01*
X0285904Y0071126D01*
X0293290Y0063740D01*
X0296083Y0062583D01*
X0334107Y0062583D01*
X0336900Y0063740D01*
X0339038Y0065878D01*
X0340195Y0068671D01*
X0340195Y0081383D01*
X0351021Y0081383D01*
X0358795Y0073609D01*
X0358795Y0064427D01*
X0359374Y0063031D01*
X0362943Y0059462D01*
X0364339Y0058883D01*
X0387435Y0058883D01*
X0387619Y0058439D01*
X0388351Y0057707D01*
X0389306Y0057311D01*
X0395884Y0057311D01*
X0396840Y0057707D01*
X0397571Y0058439D01*
X0397967Y0059394D01*
X0397967Y0065972D01*
X0397571Y0066927D01*
X0396840Y0067659D01*
X0395884Y0068055D01*
X0389306Y0068055D01*
X0388351Y0067659D01*
X0388148Y0067456D01*
X0388148Y0069519D01*
X0387752Y0070475D01*
X0387622Y0070605D01*
X0387748Y0071075D01*
X0387748Y0073844D01*
X0382675Y0073844D01*
X0382675Y0074003D01*
X0387748Y0074003D01*
X0387748Y0075349D01*
X0388041Y0074640D01*
X0389552Y0073129D01*
X0391527Y0072311D01*
X0393664Y0072311D01*
X0395638Y0073129D01*
X0397149Y0074640D01*
X0397967Y0076615D01*
X0397967Y0078752D01*
X0397149Y0080726D01*
X0395638Y0082237D01*
X0393664Y0083055D01*
X0392597Y0083055D01*
X0386395Y0089257D01*
X0386395Y0091474D01*
X0386494Y0091713D01*
X0386494Y0098653D01*
X0386395Y0098893D01*
X0386395Y0101474D01*
X0386494Y0101713D01*
X0386494Y0108653D01*
X0386395Y0108893D01*
X0386395Y0120939D01*
X0385817Y0122336D01*
X0381395Y0126757D01*
X0381395Y0143609D01*
X0383579Y0145793D01*
X0385113Y0145793D01*
X0385113Y0144941D01*
X0385509Y0143986D01*
X0386240Y0143254D01*
X0387196Y0142859D01*
X0388244Y0142859D01*
X0390335Y0141993D01*
X0391444Y0141993D01*
X0389372Y0141437D01*
X0386839Y0139975D01*
X0384772Y0137908D01*
X0383309Y0135375D01*
X0382553Y0132551D01*
X0382553Y0129627D01*
X0383309Y0126802D01*
X0384772Y0124270D01*
X0386839Y0122202D01*
X0389372Y0120740D01*
X0392196Y0119983D01*
X0395120Y0119983D01*
X0397945Y0120740D01*
X0400477Y0122202D01*
X0402545Y0124270D01*
X0404007Y0126802D01*
X0404764Y0129627D01*
X0404764Y0132551D01*
X0404007Y0135375D01*
X0402545Y0137908D01*
X0400477Y0139975D01*
X0397945Y0141437D01*
X0395120Y0142194D01*
X0393845Y0142194D01*
X0395450Y0142859D01*
X0396498Y0142859D01*
X0397454Y0143254D01*
X0398185Y0143986D01*
X0398581Y0144941D01*
X0398581Y0145990D01*
X0399447Y0148081D01*
X0399447Y0167640D01*
X0398581Y0169731D01*
X0398581Y0170779D01*
X0398185Y0171735D01*
X0397454Y0172466D01*
X0396498Y0172862D01*
X0395450Y0172862D01*
X0393359Y0173728D01*
X0390335Y0173728D01*
X0388244Y0172862D01*
X0387196Y0172862D01*
X0387006Y0172783D01*
X0356083Y0172783D01*
X0353290Y0171626D01*
X0351152Y0169488D01*
X0349995Y0166695D01*
X0349995Y0163671D01*
X0351152Y0160878D01*
X0353290Y0158740D01*
X0356083Y0157583D01*
X0384247Y0157583D01*
X0384247Y0153393D01*
X0381249Y0153393D01*
X0379852Y0152814D01*
X0375443Y0148405D01*
X0374374Y0147336D01*
X0373795Y0145939D01*
X0373795Y0124427D01*
X0374374Y0123031D01*
X0375443Y0121962D01*
X0378795Y0118609D01*
X0378795Y0110736D01*
X0378259Y0110736D01*
X0377303Y0110340D01*
X0377173Y0110210D01*
X0376704Y0110336D01*
X0373935Y0110336D01*
X0373935Y0105263D01*
X0373775Y0105263D01*
X0373775Y0105104D01*
X0369096Y0105104D01*
X0369096Y0101941D01*
X0369246Y0101381D01*
X0369535Y0100879D01*
X0369945Y0100470D01*
X0370442Y0100183D01*
X0369945Y0099896D01*
X0369535Y0099487D01*
X0369246Y0098985D01*
X0369096Y0098425D01*
X0369096Y0095263D01*
X0373775Y0095263D01*
X0373775Y0100336D01*
X0373775Y0105103D01*
X0373935Y0105103D01*
X0373935Y0095263D01*
X0373775Y0095263D01*
X0373775Y0095104D01*
X0369096Y0095104D01*
X0369096Y0091941D01*
X0369246Y0091381D01*
X0369535Y0090879D01*
X0369945Y0090470D01*
X0370447Y0090180D01*
X0371006Y0090030D01*
X0373775Y0090030D01*
X0373775Y0095103D01*
X0373935Y0095103D01*
X0373935Y0090030D01*
X0376704Y0090030D01*
X0377173Y0090156D01*
X0377303Y0090026D01*
X0378259Y0089630D01*
X0378795Y0089630D01*
X0378795Y0086927D01*
X0379374Y0085531D01*
X0380443Y0084462D01*
X0386363Y0078542D01*
X0385838Y0078682D01*
X0382675Y0078682D01*
X0382675Y0074003D01*
X0382516Y0074003D01*
X0382516Y0078682D01*
X0379353Y0078682D01*
X0378793Y0078532D01*
X0378292Y0078243D01*
X0377882Y0077833D01*
X0377595Y0077336D01*
X0377308Y0077833D01*
X0376899Y0078243D01*
X0376397Y0078532D01*
X0375838Y0078682D01*
X0372675Y0078682D01*
X0372675Y0074003D01*
X0382516Y0074003D01*
X0382516Y0073844D01*
X0377442Y0073844D01*
X0372675Y0073844D01*
X0372675Y0074003D01*
X0372516Y0074003D01*
X0372516Y0078682D01*
X0369353Y0078682D01*
X0368793Y0078532D01*
X0368292Y0078243D01*
X0367882Y0077833D01*
X0367592Y0077331D01*
X0367442Y0076772D01*
X0367442Y0074003D01*
X0372516Y0074003D01*
X0372516Y0073844D01*
X0367442Y0073844D01*
X0367442Y0071075D01*
X0367568Y0070605D01*
X0367438Y0070475D01*
X0367042Y0069519D01*
X0367042Y0066483D01*
X0366669Y0066483D01*
X0366395Y0066757D01*
X0366395Y0075939D01*
X0365817Y0077336D01*
X0364748Y0078405D01*
X0354748Y0088405D01*
X0353351Y0088983D01*
X0340195Y0088983D01*
X0340195Y0157035D01*
X0344038Y0160878D01*
X0345195Y0163671D01*
X0345195Y0166695D01*
X0344038Y0169488D01*
X0341900Y0171626D01*
X0339107Y0172783D01*
X0336083Y0172783D01*
X0333290Y0171626D01*
X0328290Y0166626D01*
X0326152Y0164488D01*
X0324995Y0161695D01*
X0324995Y0154978D01*
X0324687Y0155106D01*
X0318535Y0155106D01*
X0317579Y0154710D01*
X0317449Y0154580D01*
X0316979Y0154706D01*
X0314210Y0154706D01*
X0314210Y0149633D01*
X0314051Y0149633D01*
X0314051Y0154706D01*
X0311282Y0154706D01*
X0310722Y0154556D01*
X0310221Y0154266D01*
X0309811Y0153857D01*
X0309521Y0153355D01*
X0309372Y0152796D01*
X0309372Y0149633D01*
X0314051Y0149633D01*
X0314051Y0149474D01*
X0309372Y0149474D01*
X0309372Y0146311D01*
X0309521Y0145751D01*
X0309811Y0145250D01*
X0310221Y0144840D01*
X0310722Y0144550D01*
X0311282Y0144400D01*
X0314051Y0144400D01*
X0314051Y0149474D01*
X0314210Y0149474D01*
X0314210Y0144400D01*
X0316979Y0144400D01*
X0317449Y0144526D01*
X0317579Y0144396D01*
X0318535Y0144000D01*
X0324687Y0144000D01*
X0324995Y0144128D01*
X0324995Y0140106D01*
X0318928Y0140106D01*
X0317973Y0139710D01*
X0317843Y0139580D01*
X0317373Y0139706D01*
X0314604Y0139706D01*
X0314604Y0134633D01*
X0314445Y0134633D01*
X0314445Y0139706D01*
X0311676Y0139706D01*
X0311116Y0139556D01*
X0310614Y0139266D01*
X0310205Y0138857D01*
X0309915Y0138355D01*
X0309765Y0137796D01*
X0309765Y0134633D01*
X0314445Y0134633D01*
X0314445Y0134474D01*
X0309765Y0134474D01*
X0309765Y0131311D01*
X0309915Y0130751D01*
X0310205Y0130250D01*
X0310614Y0129840D01*
X0311116Y0129550D01*
X0311676Y0129400D01*
X0314445Y0129400D01*
X0314445Y0134474D01*
X0314604Y0134474D01*
X0314604Y0129400D01*
X0317373Y0129400D01*
X0317843Y0129526D01*
X0317973Y0129396D01*
X0318928Y0129000D01*
X0324995Y0129000D01*
X0324995Y0077783D01*
X0300743Y0077783D01*
X0293357Y0085169D01*
X0290564Y0086326D01*
X0216123Y0086326D01*
X0213329Y0085169D01*
X0211395Y0083235D01*
X0211395Y0083609D01*
X0214169Y0086383D01*
X0283351Y0086383D01*
X0284748Y0086962D01*
X0289748Y0091962D01*
X0290817Y0093031D01*
X0291395Y0094427D01*
X0291395Y0150939D01*
X0290817Y0152336D01*
X0285817Y0157336D01*
X0284748Y0158405D01*
X0283351Y0158983D01*
X0236839Y0158983D01*
X0235443Y0158405D01*
X0234374Y0157336D01*
X0234374Y0157336D01*
X0231702Y0154664D01*
X0230634Y0153595D01*
X0230055Y0152199D01*
X0230055Y0145436D01*
X0229823Y0145340D01*
X0229092Y0144609D01*
X0228833Y0143983D01*
X0221839Y0143983D01*
X0220443Y0143405D01*
X0205120Y0128081D01*
X0201430Y0128081D01*
X0201400Y0128154D01*
X0200670Y0128883D01*
X0201235Y0128319D02*
X0205357Y0128319D01*
X0206004Y0130718D02*
X0207756Y0130718D01*
X0208402Y0133116D02*
X0210154Y0133116D01*
X0210801Y0135515D02*
X0212553Y0135515D01*
X0213199Y0137913D02*
X0214951Y0137913D01*
X0213895Y0140312D02*
X0217350Y0140312D01*
X0219748Y0142710D02*
X0213895Y0142710D01*
X0213895Y0145109D02*
X0229592Y0145109D01*
X0230055Y0147507D02*
X0213895Y0147507D01*
X0213895Y0149906D02*
X0230055Y0149906D01*
X0230099Y0152304D02*
X0223438Y0152304D01*
X0225883Y0154703D02*
X0231741Y0154703D01*
X0231702Y0154664D02*
X0231702Y0154664D01*
X0234139Y0157101D02*
X0227149Y0157101D01*
X0227734Y0159500D02*
X0324995Y0159500D01*
X0324995Y0157101D02*
X0286051Y0157101D01*
X0288450Y0154703D02*
X0311270Y0154703D01*
X0314051Y0154703D02*
X0314210Y0154703D01*
X0314210Y0152304D02*
X0314051Y0152304D01*
X0314051Y0149906D02*
X0314210Y0149906D01*
X0314210Y0147507D02*
X0314051Y0147507D01*
X0314051Y0145109D02*
X0314210Y0145109D01*
X0309952Y0145109D02*
X0291395Y0145109D01*
X0291395Y0147507D02*
X0309372Y0147507D01*
X0309372Y0149906D02*
X0291395Y0149906D01*
X0290830Y0152304D02*
X0309372Y0152304D01*
X0316991Y0154703D02*
X0317572Y0154703D01*
X0322241Y0150183D02*
X0332595Y0150183D01*
X0340195Y0149906D02*
X0376944Y0149906D01*
X0379342Y0152304D02*
X0340195Y0152304D01*
X0340195Y0154703D02*
X0384247Y0154703D01*
X0384247Y0157101D02*
X0340261Y0157101D01*
X0342660Y0159500D02*
X0352530Y0159500D01*
X0350730Y0161898D02*
X0344461Y0161898D01*
X0345195Y0164297D02*
X0349995Y0164297D01*
X0349995Y0166695D02*
X0345195Y0166695D01*
X0344201Y0169094D02*
X0350989Y0169094D01*
X0353156Y0171492D02*
X0342034Y0171492D01*
X0333156Y0171492D02*
X0287302Y0171492D01*
X0286078Y0171164D02*
X0289002Y0171948D01*
X0291624Y0173462D01*
X0293765Y0175603D01*
X0295279Y0178225D01*
X0296063Y0181149D01*
X0296063Y0184177D01*
X0295279Y0187102D01*
X0293765Y0189724D01*
X0291624Y0191865D01*
X0289002Y0193379D01*
X0286078Y0194163D01*
X0283050Y0194163D01*
X0280125Y0193379D01*
X0277503Y0191865D01*
X0275362Y0189724D01*
X0273848Y0187102D01*
X0273064Y0184177D01*
X0273064Y0181149D01*
X0273848Y0178225D01*
X0275362Y0175603D01*
X0277503Y0173462D01*
X0280125Y0171948D01*
X0283050Y0171164D01*
X0286078Y0171164D01*
X0281825Y0171492D02*
X0221042Y0171492D01*
X0223440Y0169094D02*
X0330758Y0169094D01*
X0328359Y0166695D02*
X0225787Y0166695D01*
X0227105Y0164297D02*
X0326073Y0164297D01*
X0325079Y0161898D02*
X0227734Y0161898D01*
X0218643Y0173891D02*
X0277074Y0173891D01*
X0274966Y0176289D02*
X0216245Y0176289D01*
X0213846Y0178688D02*
X0273724Y0178688D01*
X0273081Y0181086D02*
X0211213Y0181086D01*
X0209875Y0183485D02*
X0273064Y0183485D01*
X0273522Y0185883D02*
X0213091Y0185883D01*
X0213689Y0186482D02*
X0213689Y0186482D01*
X0215489Y0188282D02*
X0274529Y0188282D01*
X0276318Y0190680D02*
X0217888Y0190680D01*
X0220286Y0193079D02*
X0279605Y0193079D01*
X0289522Y0193079D02*
X0334886Y0193079D01*
X0331553Y0195477D02*
X0222685Y0195477D01*
X0225083Y0197876D02*
X0329154Y0197876D01*
X0326756Y0200274D02*
X0226736Y0200274D01*
X0227545Y0202673D02*
X0325409Y0202673D01*
X0324995Y0205071D02*
X0227734Y0205071D01*
X0227351Y0207470D02*
X0324995Y0207470D01*
X0324986Y0209868D02*
X0324995Y0209868D01*
X0321335Y0215183D02*
X0332595Y0215183D01*
X0324995Y0221861D02*
X0267551Y0221861D01*
X0267551Y0222525D02*
X0267551Y0219657D01*
X0267401Y0219098D01*
X0267111Y0218596D01*
X0266702Y0218186D01*
X0266200Y0217897D01*
X0265641Y0217747D01*
X0262773Y0217747D01*
X0262773Y0222525D01*
X0262773Y0222881D01*
X0262417Y0222881D01*
X0262417Y0227659D01*
X0259550Y0227659D01*
X0258990Y0227509D01*
X0258488Y0227219D01*
X0258079Y0226809D01*
X0257789Y0226308D01*
X0257639Y0225748D01*
X0257639Y0222881D01*
X0262417Y0222881D01*
X0262417Y0222525D01*
X0257639Y0222525D01*
X0257639Y0219657D01*
X0257789Y0219098D01*
X0258079Y0218596D01*
X0258488Y0218186D01*
X0258990Y0217897D01*
X0259550Y0217747D01*
X0262417Y0217747D01*
X0262417Y0222525D01*
X0262773Y0222525D01*
X0267551Y0222525D01*
X0267551Y0222881D02*
X0267551Y0225748D01*
X0267401Y0226308D01*
X0267111Y0226809D01*
X0266702Y0227219D01*
X0266200Y0227509D01*
X0265641Y0227659D01*
X0262773Y0227659D01*
X0262773Y0222881D01*
X0267551Y0222881D01*
X0267551Y0224260D02*
X0324995Y0224260D01*
X0321335Y0230183D02*
X0332595Y0230183D01*
X0340195Y0229057D02*
X0374165Y0229057D01*
X0376029Y0226658D02*
X0340195Y0226658D01*
X0340195Y0224260D02*
X0378428Y0224260D01*
X0380826Y0221861D02*
X0340195Y0221861D01*
X0340195Y0219462D02*
X0383225Y0219462D01*
X0384247Y0217064D02*
X0340195Y0217064D01*
X0340195Y0214665D02*
X0384247Y0214665D01*
X0384247Y0212267D02*
X0340195Y0212267D01*
X0340195Y0209868D02*
X0384247Y0209868D01*
X0397665Y0221861D02*
X0405901Y0221861D01*
X0405901Y0219462D02*
X0398581Y0219462D01*
X0399447Y0217064D02*
X0405901Y0217064D01*
X0405901Y0214665D02*
X0399447Y0214665D01*
X0399447Y0212267D02*
X0406711Y0212267D01*
X0407422Y0209868D02*
X0399447Y0209868D01*
X0399447Y0207470D02*
X0419127Y0207470D01*
X0419127Y0205071D02*
X0419007Y0205071D01*
X0413679Y0205071D02*
X0413323Y0205071D01*
X0413323Y0202673D02*
X0413679Y0202673D01*
X0413679Y0200274D02*
X0413323Y0200274D01*
X0413323Y0199021D02*
X0407167Y0199021D01*
X0407167Y0194775D01*
X0407317Y0194216D01*
X0407606Y0193714D01*
X0408016Y0193305D01*
X0408518Y0193015D01*
X0409077Y0192865D01*
X0413323Y0192865D01*
X0413323Y0199021D01*
X0413323Y0197876D02*
X0413679Y0197876D01*
X0413679Y0195477D02*
X0413323Y0195477D01*
X0413323Y0193079D02*
X0413679Y0193079D01*
X0413323Y0188997D02*
X0409077Y0188997D01*
X0408518Y0188847D01*
X0408016Y0188558D01*
X0407606Y0188148D01*
X0407317Y0187646D01*
X0407167Y0187087D01*
X0407167Y0182841D01*
X0413323Y0182841D01*
X0413323Y0188997D01*
X0413323Y0188282D02*
X0413679Y0188282D01*
X0413679Y0185883D02*
X0413323Y0185883D01*
X0413323Y0183485D02*
X0413679Y0183485D01*
X0413323Y0182485D02*
X0407167Y0182485D01*
X0407167Y0178240D01*
X0407317Y0177680D01*
X0407606Y0177179D01*
X0408016Y0176769D01*
X0408518Y0176479D01*
X0409077Y0176330D01*
X0413323Y0176330D01*
X0413323Y0182485D01*
X0413323Y0181086D02*
X0413679Y0181086D01*
X0413679Y0178688D02*
X0413323Y0178688D01*
X0419127Y0176289D02*
X0294162Y0176289D01*
X0295403Y0178688D02*
X0385513Y0178688D01*
X0385513Y0178240D02*
X0385663Y0177680D01*
X0385953Y0177179D01*
X0386362Y0176769D01*
X0386864Y0176479D01*
X0387424Y0176330D01*
X0391669Y0176330D01*
X0391669Y0182485D01*
X0392025Y0182485D01*
X0392025Y0176330D01*
X0396271Y0176330D01*
X0396830Y0176479D01*
X0397332Y0176769D01*
X0397741Y0177179D01*
X0398031Y0177680D01*
X0398181Y0178240D01*
X0398181Y0182485D01*
X0392025Y0182485D01*
X0392025Y0182841D01*
X0398181Y0182841D01*
X0398181Y0187087D01*
X0398031Y0187646D01*
X0397741Y0188148D01*
X0397332Y0188558D01*
X0396830Y0188847D01*
X0396271Y0188997D01*
X0392025Y0188997D01*
X0392025Y0182841D01*
X0391669Y0182841D01*
X0391669Y0182485D01*
X0385513Y0182485D01*
X0385513Y0178240D01*
X0385513Y0181086D02*
X0296046Y0181086D01*
X0296063Y0183485D02*
X0385513Y0183485D01*
X0385513Y0182841D02*
X0385513Y0187087D01*
X0385663Y0187646D01*
X0385953Y0188148D01*
X0386362Y0188558D01*
X0386864Y0188847D01*
X0387424Y0188997D01*
X0391669Y0188997D01*
X0391669Y0182841D01*
X0385513Y0182841D01*
X0385513Y0185883D02*
X0295606Y0185883D01*
X0294598Y0188282D02*
X0386087Y0188282D01*
X0391669Y0188282D02*
X0392025Y0188282D01*
X0392025Y0185883D02*
X0391669Y0185883D01*
X0391669Y0183485D02*
X0392025Y0183485D01*
X0392025Y0181086D02*
X0391669Y0181086D01*
X0391669Y0178688D02*
X0392025Y0178688D01*
X0398181Y0178688D02*
X0407167Y0178688D01*
X0407167Y0181086D02*
X0398181Y0181086D01*
X0398181Y0183485D02*
X0407167Y0183485D01*
X0407167Y0185883D02*
X0398181Y0185883D01*
X0397608Y0188282D02*
X0407740Y0188282D01*
X0408407Y0193079D02*
X0397672Y0193079D01*
X0398581Y0195477D02*
X0407167Y0195477D01*
X0407167Y0197876D02*
X0399447Y0197876D01*
X0399447Y0200274D02*
X0407167Y0200274D01*
X0407167Y0202673D02*
X0399447Y0202673D01*
X0399447Y0205071D02*
X0407994Y0205071D01*
X0418594Y0193079D02*
X0419127Y0193079D01*
X0419127Y0190680D02*
X0292809Y0190680D01*
X0292053Y0173891D02*
X0419127Y0173891D01*
X0413679Y0171492D02*
X0413323Y0171492D01*
X0413323Y0169094D02*
X0413679Y0169094D01*
X0413679Y0166695D02*
X0413323Y0166695D01*
X0413323Y0165950D02*
X0407167Y0165950D01*
X0407167Y0161704D01*
X0407317Y0161145D01*
X0407606Y0160643D01*
X0408016Y0160234D01*
X0408518Y0159944D01*
X0409077Y0159794D01*
X0413323Y0159794D01*
X0413323Y0165950D01*
X0413323Y0164297D02*
X0413679Y0164297D01*
X0413679Y0161898D02*
X0413323Y0161898D01*
X0411768Y0157101D02*
X0399447Y0157101D01*
X0399447Y0154703D02*
X0406957Y0154703D01*
X0406398Y0152304D02*
X0399447Y0152304D01*
X0399447Y0149906D02*
X0405901Y0149906D01*
X0405901Y0147507D02*
X0399209Y0147507D01*
X0398581Y0145109D02*
X0405901Y0145109D01*
X0405901Y0142710D02*
X0395091Y0142710D01*
X0399894Y0140312D02*
X0405901Y0140312D01*
X0405901Y0137913D02*
X0402539Y0137913D01*
X0403926Y0135515D02*
X0405901Y0135515D01*
X0405901Y0133116D02*
X0404612Y0133116D01*
X0404764Y0130718D02*
X0405901Y0130718D01*
X0405901Y0128319D02*
X0404413Y0128319D01*
X0403498Y0125921D02*
X0405901Y0125921D01*
X0405901Y0123522D02*
X0401797Y0123522D01*
X0398609Y0121124D02*
X0405901Y0121124D01*
X0405901Y0118725D02*
X0386395Y0118725D01*
X0386395Y0116327D02*
X0405901Y0116327D01*
X0405901Y0113928D02*
X0386395Y0113928D01*
X0386395Y0111529D02*
X0389431Y0111529D01*
X0389356Y0111475D02*
X0388803Y0110922D01*
X0388343Y0110289D01*
X0387988Y0109592D01*
X0387746Y0108847D01*
X0387623Y0108074D01*
X0387623Y0107683D01*
X0387623Y0107292D01*
X0387746Y0106519D01*
X0387988Y0105775D01*
X0388343Y0105077D01*
X0388803Y0104444D01*
X0389356Y0103891D01*
X0389989Y0103431D01*
X0390687Y0103076D01*
X0391431Y0102834D01*
X0392204Y0102711D01*
X0392595Y0102711D01*
X0392595Y0107683D01*
X0387623Y0107683D01*
X0392595Y0107683D01*
X0392595Y0107683D01*
X0392595Y0107683D01*
X0392595Y0102711D01*
X0392986Y0102711D01*
X0393759Y0102834D01*
X0394504Y0103076D01*
X0395201Y0103431D01*
X0395834Y0103891D01*
X0396387Y0104444D01*
X0396847Y0105077D01*
X0397203Y0105775D01*
X0397444Y0106519D01*
X0397567Y0107292D01*
X0397567Y0107683D01*
X0392595Y0107683D01*
X0392595Y0112655D01*
X0392204Y0112655D01*
X0391431Y0112532D01*
X0390687Y0112290D01*
X0389989Y0111935D01*
X0389356Y0111475D01*
X0387838Y0109131D02*
X0386395Y0109131D01*
X0386494Y0106732D02*
X0387712Y0106732D01*
X0388913Y0104334D02*
X0386494Y0104334D01*
X0386494Y0101935D02*
X0405901Y0101935D01*
X0405901Y0099537D02*
X0386395Y0099537D01*
X0386494Y0097138D02*
X0389454Y0097138D01*
X0387633Y0094740D02*
X0386494Y0094740D01*
X0386494Y0092341D02*
X0387223Y0092341D01*
X0387916Y0089943D02*
X0386395Y0089943D01*
X0388108Y0087544D02*
X0390964Y0087544D01*
X0390506Y0085146D02*
X0398795Y0085146D01*
X0398795Y0087544D02*
X0394226Y0087544D01*
X0394406Y0082747D02*
X0398795Y0082747D01*
X0398795Y0080349D02*
X0397305Y0080349D01*
X0397967Y0077950D02*
X0398795Y0077950D01*
X0398795Y0075552D02*
X0397527Y0075552D01*
X0398795Y0073153D02*
X0395662Y0073153D01*
X0398795Y0070755D02*
X0387662Y0070755D01*
X0387748Y0073153D02*
X0389528Y0073153D01*
X0388148Y0068356D02*
X0398795Y0068356D01*
X0398795Y0065958D02*
X0397967Y0065958D01*
X0397967Y0063559D02*
X0398795Y0063559D01*
X0398795Y0061161D02*
X0397967Y0061161D01*
X0397705Y0058762D02*
X0398795Y0058762D01*
X0398795Y0056364D02*
X0287795Y0056364D01*
X0287795Y0057337D02*
X0284749Y0060383D01*
X0282595Y0060383D01*
X0280441Y0060383D01*
X0277395Y0057337D01*
X0277395Y0055183D01*
X0277395Y0053029D01*
X0280441Y0049983D01*
X0282595Y0049983D01*
X0282595Y0055183D01*
X0277395Y0055183D01*
X0282595Y0055183D01*
X0282595Y0055183D01*
X0282595Y0055183D01*
X0282595Y0049983D01*
X0284749Y0049983D01*
X0287795Y0053029D01*
X0287795Y0055183D01*
X0282595Y0055183D01*
X0282595Y0060383D01*
X0282595Y0055183D01*
X0282595Y0055183D01*
X0282595Y0055183D01*
X0287795Y0055183D01*
X0287795Y0057337D01*
X0286370Y0058762D02*
X0387485Y0058762D01*
X0382595Y0062683D02*
X0382595Y0066443D01*
X0382595Y0062683D02*
X0372595Y0062683D01*
X0372595Y0066443D01*
X0372595Y0062683D02*
X0365095Y0062683D01*
X0362595Y0065183D01*
X0362595Y0075183D01*
X0352595Y0085183D01*
X0332595Y0085183D01*
X0324995Y0085146D02*
X0293380Y0085146D01*
X0295779Y0082747D02*
X0324995Y0082747D01*
X0324995Y0080349D02*
X0298177Y0080349D01*
X0300576Y0077950D02*
X0324995Y0077950D01*
X0324995Y0087544D02*
X0285330Y0087544D01*
X0287729Y0089943D02*
X0324995Y0089943D01*
X0324995Y0092341D02*
X0290127Y0092341D01*
X0291395Y0094740D02*
X0324995Y0094740D01*
X0324995Y0097138D02*
X0291395Y0097138D01*
X0291395Y0099537D02*
X0324995Y0099537D01*
X0324995Y0101935D02*
X0291395Y0101935D01*
X0291395Y0104334D02*
X0324995Y0104334D01*
X0324995Y0106732D02*
X0291395Y0106732D01*
X0291395Y0109131D02*
X0324995Y0109131D01*
X0324995Y0111529D02*
X0291395Y0111529D01*
X0291395Y0113928D02*
X0324995Y0113928D01*
X0324995Y0116327D02*
X0291395Y0116327D01*
X0291395Y0118725D02*
X0324995Y0118725D01*
X0324995Y0121124D02*
X0291395Y0121124D01*
X0291395Y0123522D02*
X0324995Y0123522D01*
X0324995Y0125921D02*
X0291395Y0125921D01*
X0291395Y0128319D02*
X0324995Y0128319D01*
X0322005Y0134553D02*
X0322635Y0135183D01*
X0332595Y0135183D01*
X0340195Y0135515D02*
X0373795Y0135515D01*
X0373795Y0137913D02*
X0340195Y0137913D01*
X0340195Y0140312D02*
X0373795Y0140312D01*
X0373795Y0142710D02*
X0340195Y0142710D01*
X0340195Y0145109D02*
X0373795Y0145109D01*
X0374545Y0147507D02*
X0340195Y0147507D01*
X0324995Y0142710D02*
X0291395Y0142710D01*
X0291395Y0140312D02*
X0324995Y0140312D01*
X0321611Y0149553D02*
X0322241Y0150183D01*
X0314604Y0137913D02*
X0314445Y0137913D01*
X0314445Y0135515D02*
X0314604Y0135515D01*
X0314604Y0133116D02*
X0314445Y0133116D01*
X0314445Y0130718D02*
X0314604Y0130718D01*
X0309935Y0130718D02*
X0291395Y0130718D01*
X0291395Y0133116D02*
X0309765Y0133116D01*
X0309765Y0135515D02*
X0291395Y0135515D01*
X0291395Y0137913D02*
X0309797Y0137913D01*
X0287595Y0150183D02*
X0287595Y0095183D01*
X0282595Y0090183D01*
X0212595Y0090183D01*
X0207595Y0085183D01*
X0207595Y0050183D01*
X0212595Y0045183D01*
X0397595Y0045183D01*
X0402595Y0050183D01*
X0402595Y0090183D01*
X0400095Y0092683D01*
X0392595Y0092683D01*
X0395736Y0097138D02*
X0405901Y0097138D01*
X0405901Y0094740D02*
X0403412Y0094740D01*
X0405811Y0092341D02*
X0405901Y0092341D01*
X0405901Y0104334D02*
X0396277Y0104334D01*
X0397478Y0106732D02*
X0405901Y0106732D01*
X0405901Y0109131D02*
X0397352Y0109131D01*
X0397444Y0108847D02*
X0397203Y0109592D01*
X0396847Y0110289D01*
X0396387Y0110922D01*
X0395834Y0111475D01*
X0395201Y0111935D01*
X0394504Y0112290D01*
X0393759Y0112532D01*
X0392986Y0112655D01*
X0392595Y0112655D01*
X0392595Y0107683D01*
X0392595Y0107683D01*
X0392595Y0107683D01*
X0397567Y0107683D01*
X0397567Y0108074D01*
X0397444Y0108847D01*
X0395759Y0111529D02*
X0405901Y0111529D01*
X0392595Y0111529D02*
X0392595Y0111529D01*
X0392595Y0109131D02*
X0392595Y0109131D01*
X0392595Y0106732D02*
X0392595Y0106732D01*
X0392595Y0104334D02*
X0392595Y0104334D01*
X0382595Y0105183D02*
X0381335Y0105183D01*
X0382595Y0105183D02*
X0382595Y0120183D01*
X0377595Y0125183D01*
X0377595Y0145183D01*
X0382005Y0149593D01*
X0391847Y0149593D01*
X0388603Y0142710D02*
X0381395Y0142710D01*
X0381395Y0140312D02*
X0387422Y0140312D01*
X0384777Y0137913D02*
X0381395Y0137913D01*
X0381395Y0135515D02*
X0383390Y0135515D01*
X0382704Y0133116D02*
X0381395Y0133116D01*
X0381395Y0130718D02*
X0382553Y0130718D01*
X0382903Y0128319D02*
X0381395Y0128319D01*
X0382232Y0125921D02*
X0383818Y0125921D01*
X0384630Y0123522D02*
X0385519Y0123522D01*
X0386319Y0121124D02*
X0388707Y0121124D01*
X0378679Y0118725D02*
X0357395Y0118725D01*
X0357395Y0118195D02*
X0357395Y0120183D01*
X0352595Y0120183D01*
X0347795Y0120183D01*
X0347795Y0118195D01*
X0350607Y0115383D01*
X0352595Y0115383D01*
X0352595Y0120183D01*
X0352595Y0120183D01*
X0352595Y0120183D01*
X0347795Y0120183D01*
X0347795Y0122171D01*
X0350607Y0124983D01*
X0352595Y0124983D01*
X0352595Y0120183D01*
X0352595Y0115383D01*
X0354583Y0115383D01*
X0357395Y0118195D01*
X0357395Y0120183D02*
X0352595Y0120183D01*
X0352595Y0120183D01*
X0352595Y0120183D01*
X0352595Y0124983D01*
X0354583Y0124983D01*
X0357395Y0122171D01*
X0357395Y0120183D01*
X0357395Y0121124D02*
X0376281Y0121124D01*
X0375443Y0121962D02*
X0375443Y0121962D01*
X0374170Y0123522D02*
X0356044Y0123522D01*
X0352595Y0123522D02*
X0352595Y0123522D01*
X0352595Y0121124D02*
X0352595Y0121124D01*
X0352595Y0118725D02*
X0352595Y0118725D01*
X0352595Y0116327D02*
X0352595Y0116327D01*
X0349663Y0116327D02*
X0340195Y0116327D01*
X0340195Y0118725D02*
X0347795Y0118725D01*
X0347795Y0121124D02*
X0340195Y0121124D01*
X0340195Y0123522D02*
X0349146Y0123522D01*
X0340195Y0125921D02*
X0373795Y0125921D01*
X0373795Y0128319D02*
X0340195Y0128319D01*
X0340195Y0130718D02*
X0373795Y0130718D01*
X0373795Y0133116D02*
X0340195Y0133116D01*
X0355527Y0116327D02*
X0378795Y0116327D01*
X0378795Y0113928D02*
X0340195Y0113928D01*
X0340195Y0111529D02*
X0378795Y0111529D01*
X0373775Y0110336D02*
X0371006Y0110336D01*
X0370447Y0110186D01*
X0369945Y0109896D01*
X0369535Y0109487D01*
X0369246Y0108985D01*
X0369096Y0108425D01*
X0369096Y0105263D01*
X0373775Y0105263D01*
X0373775Y0110336D01*
X0373775Y0109131D02*
X0373935Y0109131D01*
X0373935Y0106732D02*
X0373775Y0106732D01*
X0373775Y0104334D02*
X0373935Y0104334D01*
X0373935Y0101935D02*
X0373775Y0101935D01*
X0373775Y0099537D02*
X0373935Y0099537D01*
X0373935Y0097138D02*
X0373775Y0097138D01*
X0373775Y0094740D02*
X0373935Y0094740D01*
X0373935Y0092341D02*
X0373775Y0092341D01*
X0377504Y0089943D02*
X0340195Y0089943D01*
X0340195Y0092341D02*
X0369096Y0092341D01*
X0369096Y0094740D02*
X0340195Y0094740D01*
X0340195Y0097138D02*
X0369096Y0097138D01*
X0369586Y0099537D02*
X0340195Y0099537D01*
X0340195Y0101935D02*
X0369097Y0101935D01*
X0369096Y0104334D02*
X0340195Y0104334D01*
X0340195Y0106732D02*
X0369096Y0106732D01*
X0369330Y0109131D02*
X0340195Y0109131D01*
X0355608Y0087544D02*
X0378795Y0087544D01*
X0379758Y0085146D02*
X0358006Y0085146D01*
X0360405Y0082747D02*
X0382157Y0082747D01*
X0380443Y0084462D02*
X0380443Y0084462D01*
X0382595Y0087683D02*
X0382595Y0095183D01*
X0381335Y0095183D01*
X0382595Y0095183D02*
X0382595Y0105183D01*
X0382595Y0087683D02*
X0392595Y0077683D01*
X0384555Y0080349D02*
X0362803Y0080349D01*
X0365202Y0077950D02*
X0367999Y0077950D01*
X0367442Y0075552D02*
X0366395Y0075552D01*
X0366395Y0073153D02*
X0367442Y0073153D01*
X0367528Y0070755D02*
X0366395Y0070755D01*
X0366395Y0068356D02*
X0367042Y0068356D01*
X0358795Y0068356D02*
X0357395Y0068356D01*
X0357395Y0068195D02*
X0357395Y0070183D01*
X0352595Y0070183D01*
X0347795Y0070183D01*
X0347795Y0068195D01*
X0350607Y0065383D01*
X0352595Y0065383D01*
X0352595Y0070183D01*
X0352595Y0070183D01*
X0352595Y0070183D01*
X0347795Y0070183D01*
X0347795Y0072171D01*
X0350607Y0074983D01*
X0352595Y0074983D01*
X0352595Y0070183D01*
X0352595Y0065383D01*
X0354583Y0065383D01*
X0357395Y0068195D01*
X0357395Y0070183D02*
X0352595Y0070183D01*
X0352595Y0070183D01*
X0352595Y0070183D01*
X0352595Y0074983D01*
X0354583Y0074983D01*
X0357395Y0072171D01*
X0357395Y0070183D01*
X0357395Y0070755D02*
X0358795Y0070755D01*
X0358795Y0073153D02*
X0356413Y0073153D01*
X0356852Y0075552D02*
X0340195Y0075552D01*
X0340195Y0077950D02*
X0354454Y0077950D01*
X0352055Y0080349D02*
X0340195Y0080349D01*
X0340195Y0073153D02*
X0348777Y0073153D01*
X0347795Y0070755D02*
X0340195Y0070755D01*
X0340065Y0068356D02*
X0347795Y0068356D01*
X0350032Y0065958D02*
X0339071Y0065958D01*
X0336464Y0063559D02*
X0359155Y0063559D01*
X0358795Y0065958D02*
X0355158Y0065958D01*
X0352595Y0065958D02*
X0352595Y0065958D01*
X0352595Y0068356D02*
X0352595Y0068356D01*
X0352595Y0070755D02*
X0352595Y0070755D01*
X0352595Y0073153D02*
X0352595Y0073153D01*
X0361243Y0061161D02*
X0229537Y0061161D01*
X0227139Y0063559D02*
X0293727Y0063559D01*
X0291072Y0065958D02*
X0224740Y0065958D01*
X0223234Y0068356D02*
X0288674Y0068356D01*
X0286275Y0070755D02*
X0223234Y0070755D01*
X0212035Y0070755D02*
X0211395Y0070755D01*
X0211395Y0073153D02*
X0212035Y0073153D01*
X0212035Y0068356D02*
X0211395Y0068356D01*
X0211395Y0065958D02*
X0212035Y0065958D01*
X0212229Y0063559D02*
X0211395Y0063559D01*
X0211395Y0061161D02*
X0213698Y0061161D01*
X0211395Y0058762D02*
X0216096Y0058762D01*
X0218495Y0056364D02*
X0211395Y0056364D01*
X0211395Y0053965D02*
X0220893Y0053965D01*
X0223292Y0051567D02*
X0211586Y0051567D01*
X0213984Y0049168D02*
X0396206Y0049168D01*
X0398605Y0051567D02*
X0286333Y0051567D01*
X0287795Y0053965D02*
X0398795Y0053965D01*
X0392595Y0062683D02*
X0382595Y0062683D01*
X0382516Y0075552D02*
X0382675Y0075552D01*
X0382675Y0077950D02*
X0382516Y0077950D01*
X0377999Y0077950D02*
X0377191Y0077950D01*
X0372675Y0077950D02*
X0372516Y0077950D01*
X0372516Y0075552D02*
X0372675Y0075552D01*
X0382895Y0145109D02*
X0385113Y0145109D01*
X0399447Y0159500D02*
X0419127Y0159500D01*
X0419127Y0157101D02*
X0415233Y0157101D01*
X0407167Y0161898D02*
X0399447Y0161898D01*
X0399447Y0164297D02*
X0407167Y0164297D01*
X0407167Y0166695D02*
X0399447Y0166695D01*
X0398845Y0169094D02*
X0407167Y0169094D01*
X0407537Y0171492D02*
X0398286Y0171492D01*
X0354886Y0193079D02*
X0340304Y0193079D01*
X0343637Y0195477D02*
X0351553Y0195477D01*
X0350325Y0197876D02*
X0344866Y0197876D01*
X0345195Y0200274D02*
X0349995Y0200274D01*
X0350400Y0202673D02*
X0344790Y0202673D01*
X0343455Y0205071D02*
X0351735Y0205071D01*
X0355327Y0207470D02*
X0341056Y0207470D01*
X0317684Y0209868D02*
X0226319Y0209868D01*
X0224362Y0212267D02*
X0309096Y0212267D01*
X0309096Y0214665D02*
X0219506Y0214665D01*
X0215763Y0214665D02*
X0213895Y0214665D01*
X0213895Y0217064D02*
X0309096Y0217064D01*
X0309096Y0218425D02*
X0309096Y0215263D01*
X0313775Y0215263D01*
X0313775Y0220336D01*
X0311006Y0220336D01*
X0310447Y0220186D01*
X0309945Y0219896D01*
X0309535Y0219487D01*
X0309246Y0218985D01*
X0309096Y0218425D01*
X0309522Y0219462D02*
X0267499Y0219462D01*
X0262773Y0219462D02*
X0262417Y0219462D01*
X0262417Y0221861D02*
X0262773Y0221861D01*
X0262773Y0224260D02*
X0262417Y0224260D01*
X0262417Y0226658D02*
X0262773Y0226658D01*
X0267199Y0226658D02*
X0309172Y0226658D01*
X0309096Y0229057D02*
X0251786Y0229057D01*
X0251882Y0226658D02*
X0257991Y0226658D01*
X0257639Y0224260D02*
X0251882Y0224260D01*
X0251882Y0226443D02*
X0246926Y0226443D01*
X0251882Y0226443D01*
X0246926Y0226443D02*
X0246926Y0226443D01*
X0246926Y0222274D01*
X0246926Y0226443D01*
X0246926Y0226443D01*
X0246926Y0224260D02*
X0246926Y0224260D01*
X0241970Y0224260D02*
X0222748Y0224260D01*
X0222748Y0223594D02*
X0222748Y0226363D01*
X0217675Y0226363D01*
X0217675Y0221684D01*
X0220838Y0221684D01*
X0221397Y0221834D01*
X0221899Y0222123D01*
X0222308Y0222533D01*
X0222598Y0223035D01*
X0222748Y0223594D01*
X0221444Y0221861D02*
X0257639Y0221861D01*
X0257691Y0219462D02*
X0213895Y0219462D01*
X0217516Y0221861D02*
X0217675Y0221861D01*
X0217675Y0224260D02*
X0217516Y0224260D01*
X0222748Y0226658D02*
X0231175Y0226658D01*
X0228348Y0229057D02*
X0222748Y0229057D01*
X0217595Y0233923D02*
X0228855Y0233923D01*
X0232595Y0230183D01*
X0238264Y0230183D01*
X0246926Y0233923D02*
X0250666Y0237663D01*
X0262595Y0237663D01*
X0262595Y0250183D01*
X0258855Y0253923D01*
X0258855Y0265183D01*
X0241335Y0265183D01*
X0245876Y0269831D02*
X0254314Y0269831D01*
X0266256Y0269831D02*
X0266415Y0269831D01*
X0266415Y0270336D02*
X0266415Y0265263D01*
X0271094Y0265263D01*
X0271094Y0268425D01*
X0270944Y0268985D01*
X0270655Y0269487D01*
X0270245Y0269896D01*
X0269744Y0270186D01*
X0269184Y0270336D01*
X0266415Y0270336D01*
X0266415Y0267433D02*
X0266256Y0267433D01*
X0266256Y0265034D02*
X0266415Y0265034D01*
X0266415Y0262636D02*
X0266256Y0262636D01*
X0266256Y0260237D02*
X0266415Y0260237D01*
X0269842Y0260237D02*
X0324995Y0260237D01*
X0324995Y0257839D02*
X0262655Y0257839D01*
X0262712Y0255440D02*
X0324995Y0255440D01*
X0324995Y0253042D02*
X0265111Y0253042D01*
X0266395Y0250643D02*
X0324995Y0250643D01*
X0324995Y0248245D02*
X0266395Y0248245D01*
X0266395Y0245846D02*
X0324995Y0245846D01*
X0324995Y0243448D02*
X0266395Y0243448D01*
X0267904Y0241049D02*
X0324995Y0241049D01*
X0324995Y0238651D02*
X0267951Y0238651D01*
X0267951Y0236252D02*
X0324995Y0236252D01*
X0313775Y0235336D02*
X0313775Y0230263D01*
X0309096Y0230263D01*
X0309096Y0233425D01*
X0309246Y0233985D01*
X0309535Y0234487D01*
X0309945Y0234896D01*
X0310447Y0235186D01*
X0311006Y0235336D01*
X0313775Y0235336D01*
X0313775Y0233854D02*
X0313935Y0233854D01*
X0313935Y0231455D02*
X0313775Y0231455D01*
X0313775Y0229057D02*
X0313935Y0229057D01*
X0313935Y0226658D02*
X0313775Y0226658D01*
X0309096Y0231455D02*
X0252282Y0231455D01*
X0252282Y0233854D02*
X0257462Y0233854D01*
X0267729Y0233854D02*
X0309211Y0233854D01*
X0313775Y0219462D02*
X0313935Y0219462D01*
X0313935Y0217064D02*
X0313775Y0217064D01*
X0313775Y0214665D02*
X0313935Y0214665D01*
X0313935Y0212267D02*
X0313775Y0212267D01*
X0340195Y0231455D02*
X0363887Y0231455D01*
X0363820Y0231704D02*
X0363970Y0231145D01*
X0364260Y0230643D01*
X0364670Y0230234D01*
X0365171Y0229944D01*
X0365731Y0229794D01*
X0368500Y0229794D01*
X0368500Y0234867D01*
X0363820Y0234867D01*
X0363820Y0231704D01*
X0363820Y0233854D02*
X0340195Y0233854D01*
X0340195Y0236252D02*
X0363820Y0236252D01*
X0363820Y0235026D02*
X0363820Y0238189D01*
X0363970Y0238749D01*
X0364260Y0239250D01*
X0364670Y0239660D01*
X0365171Y0239950D01*
X0365731Y0240100D01*
X0368500Y0240100D01*
X0368500Y0235026D01*
X0363820Y0235026D01*
X0363944Y0238651D02*
X0340195Y0238651D01*
X0340195Y0241049D02*
X0349941Y0241049D01*
X0350607Y0240383D02*
X0352595Y0240383D01*
X0352595Y0245183D01*
X0347795Y0245183D01*
X0347795Y0243195D01*
X0350607Y0240383D01*
X0352595Y0240383D02*
X0352595Y0245183D01*
X0352595Y0245183D01*
X0352595Y0245183D01*
X0347795Y0245183D01*
X0347795Y0247171D01*
X0350607Y0249983D01*
X0352595Y0249983D01*
X0352595Y0245183D01*
X0352595Y0245183D01*
X0352595Y0245183D01*
X0357395Y0245183D01*
X0357395Y0243195D01*
X0354583Y0240383D01*
X0352595Y0240383D01*
X0352595Y0241049D02*
X0352595Y0241049D01*
X0352595Y0243448D02*
X0352595Y0243448D01*
X0352595Y0245183D02*
X0357395Y0245183D01*
X0357395Y0247171D01*
X0354583Y0249983D01*
X0352595Y0249983D01*
X0352595Y0245183D01*
X0352595Y0245846D02*
X0352595Y0245846D01*
X0352595Y0248245D02*
X0352595Y0248245D01*
X0348868Y0248245D02*
X0340195Y0248245D01*
X0340195Y0250643D02*
X0372284Y0250643D01*
X0375363Y0253042D02*
X0340195Y0253042D01*
X0340195Y0255440D02*
X0377761Y0255440D01*
X0378995Y0257839D02*
X0340195Y0257839D01*
X0340195Y0260237D02*
X0378995Y0260237D01*
X0378995Y0262636D02*
X0370987Y0262636D01*
X0372587Y0265034D02*
X0378995Y0265034D01*
X0378995Y0267433D02*
X0373660Y0267433D01*
X0377092Y0269831D02*
X0378995Y0269831D01*
X0386195Y0269831D02*
X0387962Y0269831D01*
X0387223Y0272230D02*
X0386195Y0272230D01*
X0386195Y0274628D02*
X0387587Y0274628D01*
X0387030Y0277027D02*
X0389342Y0277027D01*
X0389429Y0279425D02*
X0398995Y0279425D01*
X0398995Y0277027D02*
X0395848Y0277027D01*
X0398995Y0281824D02*
X0391827Y0281824D01*
X0396731Y0284222D02*
X0398995Y0284222D01*
X0398995Y0286621D02*
X0397967Y0286621D01*
X0397856Y0289019D02*
X0398995Y0289019D01*
X0398995Y0291418D02*
X0396457Y0291418D01*
X0398995Y0293816D02*
X0388820Y0293816D01*
X0388733Y0291418D02*
X0386421Y0291418D01*
X0387334Y0289019D02*
X0384023Y0289019D01*
X0381624Y0286621D02*
X0386442Y0286621D01*
X0384043Y0284222D02*
X0380953Y0284222D01*
X0380953Y0281824D02*
X0381645Y0281824D01*
X0373753Y0281824D02*
X0373579Y0281824D01*
X0373614Y0279425D02*
X0373753Y0279425D01*
X0373753Y0277027D02*
X0373614Y0277027D01*
X0368382Y0278765D02*
X0358580Y0278765D01*
X0358580Y0278924D01*
X0363309Y0278924D01*
X0368382Y0278924D01*
X0368382Y0278765D01*
X0368382Y0279425D02*
X0368541Y0279425D01*
X0368541Y0281824D02*
X0368382Y0281824D01*
X0373753Y0284222D02*
X0340195Y0284222D01*
X0340195Y0281824D02*
X0353383Y0281824D01*
X0353348Y0281693D02*
X0353348Y0278924D01*
X0358421Y0278924D01*
X0358421Y0283604D01*
X0355258Y0283604D01*
X0354699Y0283454D01*
X0354197Y0283164D01*
X0353787Y0282754D01*
X0353498Y0282253D01*
X0353348Y0281693D01*
X0353348Y0279425D02*
X0340195Y0279425D01*
X0340195Y0277027D02*
X0353348Y0277027D01*
X0353026Y0274628D02*
X0340195Y0274628D01*
X0340195Y0272230D02*
X0352948Y0272230D01*
X0352948Y0269831D02*
X0340195Y0269831D01*
X0324995Y0269831D02*
X0270310Y0269831D01*
X0271094Y0267433D02*
X0324995Y0267433D01*
X0324995Y0265034D02*
X0271094Y0265034D01*
X0271094Y0262636D02*
X0324995Y0262636D01*
X0324995Y0272230D02*
X0216395Y0272230D01*
X0216395Y0274628D02*
X0324995Y0274628D01*
X0324995Y0277027D02*
X0215945Y0277027D01*
X0215097Y0279425D02*
X0213727Y0279425D01*
X0211663Y0281824D02*
X0211395Y0281824D01*
X0207595Y0280183D02*
X0212595Y0275183D01*
X0212595Y0265183D01*
X0222595Y0265183D01*
X0233855Y0265183D01*
X0229314Y0269831D02*
X0216395Y0269831D01*
X0208658Y0273746D02*
X0203795Y0278609D01*
X0203795Y0278983D01*
X0202595Y0280183D01*
X0202595Y0297683D01*
X0137595Y0297683D01*
X0130095Y0290183D01*
X0130095Y0251423D01*
X0131335Y0250183D01*
X0130095Y0248943D01*
X0130095Y0210183D01*
X0135095Y0205183D01*
X0202595Y0205183D01*
X0210095Y0212683D01*
X0210095Y0225183D01*
X0202595Y0232683D01*
X0187595Y0232683D01*
X0185095Y0235183D01*
X0185095Y0252683D01*
X0185095Y0265183D01*
X0187595Y0267683D01*
X0202595Y0267683D01*
X0208658Y0273746D01*
X0207595Y0280183D02*
X0207595Y0305183D01*
X0222595Y0320183D01*
X0347595Y0320183D01*
X0337514Y0301012D02*
X0385833Y0301012D01*
X0387223Y0303410D02*
X0228742Y0303410D01*
X0226344Y0301012D02*
X0292676Y0301012D01*
X0290277Y0298613D02*
X0223945Y0298613D01*
X0223234Y0296215D02*
X0287879Y0296215D01*
X0284749Y0304983D02*
X0287795Y0308029D01*
X0287795Y0310183D01*
X0282595Y0310183D01*
X0277395Y0310183D01*
X0277395Y0308029D01*
X0280441Y0304983D01*
X0282595Y0304983D01*
X0282595Y0310183D01*
X0282595Y0310183D01*
X0282595Y0310183D01*
X0277395Y0310183D01*
X0277395Y0312337D01*
X0280441Y0315383D01*
X0282595Y0315383D01*
X0282595Y0310183D01*
X0282595Y0304983D01*
X0284749Y0304983D01*
X0285575Y0305809D02*
X0388124Y0305809D01*
X0383434Y0298613D02*
X0355953Y0298613D01*
X0354583Y0299983D02*
X0357395Y0297171D01*
X0357395Y0295183D01*
X0352595Y0295183D01*
X0347795Y0295183D01*
X0347795Y0293195D01*
X0350607Y0290383D01*
X0352595Y0290383D01*
X0352595Y0295183D01*
X0352595Y0295183D01*
X0352595Y0295183D01*
X0347795Y0295183D01*
X0347795Y0297171D01*
X0350607Y0299983D01*
X0352595Y0299983D01*
X0352595Y0295183D01*
X0352595Y0290383D01*
X0354583Y0290383D01*
X0357395Y0293195D01*
X0357395Y0295183D01*
X0352595Y0295183D01*
X0352595Y0295183D01*
X0352595Y0295183D01*
X0352595Y0299983D01*
X0354583Y0299983D01*
X0352595Y0298613D02*
X0352595Y0298613D01*
X0352595Y0296215D02*
X0352595Y0296215D01*
X0352595Y0293816D02*
X0352595Y0293816D01*
X0352595Y0291418D02*
X0352595Y0291418D01*
X0349572Y0291418D02*
X0340195Y0291418D01*
X0340195Y0293816D02*
X0347795Y0293816D01*
X0347795Y0296215D02*
X0340195Y0296215D01*
X0339400Y0298613D02*
X0349237Y0298613D01*
X0357395Y0296215D02*
X0381036Y0296215D01*
X0378637Y0293816D02*
X0357395Y0293816D01*
X0355618Y0291418D02*
X0376239Y0291418D01*
X0374110Y0289019D02*
X0340195Y0289019D01*
X0340195Y0286621D02*
X0373753Y0286621D01*
X0358580Y0281824D02*
X0358421Y0281824D01*
X0358421Y0279425D02*
X0358580Y0279425D01*
X0386195Y0267433D02*
X0391234Y0267433D01*
X0393956Y0267433D02*
X0405901Y0267433D01*
X0405901Y0269831D02*
X0402334Y0269831D01*
X0404733Y0272230D02*
X0405901Y0272230D01*
X0405901Y0265034D02*
X0386195Y0265034D01*
X0386195Y0262636D02*
X0389463Y0262636D01*
X0389534Y0262655D02*
X0388974Y0262505D01*
X0388473Y0262215D01*
X0388063Y0261806D01*
X0387773Y0261304D01*
X0387623Y0260744D01*
X0387623Y0257683D01*
X0387623Y0254622D01*
X0387773Y0254062D01*
X0388063Y0253561D01*
X0388473Y0253151D01*
X0388974Y0252861D01*
X0389534Y0252711D01*
X0392595Y0252711D01*
X0392595Y0257683D01*
X0387623Y0257683D01*
X0392595Y0257683D01*
X0392595Y0257683D01*
X0392595Y0257683D01*
X0392595Y0252711D01*
X0395656Y0252711D01*
X0396216Y0252861D01*
X0396718Y0253151D01*
X0397127Y0253561D01*
X0397417Y0254062D01*
X0397567Y0254622D01*
X0397567Y0257683D01*
X0392595Y0257683D01*
X0392595Y0262655D01*
X0389534Y0262655D01*
X0392595Y0262636D02*
X0392595Y0262636D01*
X0392595Y0262655D02*
X0392595Y0257683D01*
X0392595Y0257683D01*
X0392595Y0257683D01*
X0397567Y0257683D01*
X0397567Y0260744D01*
X0397417Y0261304D01*
X0397127Y0261806D01*
X0396718Y0262215D01*
X0396216Y0262505D01*
X0395656Y0262655D01*
X0392595Y0262655D01*
X0392595Y0260237D02*
X0392595Y0260237D01*
X0392595Y0257839D02*
X0392595Y0257839D01*
X0392595Y0255440D02*
X0392595Y0255440D01*
X0392595Y0253042D02*
X0392595Y0253042D01*
X0388662Y0253042D02*
X0385545Y0253042D01*
X0386195Y0255440D02*
X0387623Y0255440D01*
X0387623Y0257839D02*
X0386195Y0257839D01*
X0386195Y0260237D02*
X0387623Y0260237D01*
X0395727Y0262636D02*
X0405901Y0262636D01*
X0405901Y0260237D02*
X0397567Y0260237D01*
X0397567Y0257839D02*
X0405901Y0257839D01*
X0405901Y0255440D02*
X0397567Y0255440D01*
X0396528Y0253042D02*
X0405901Y0253042D01*
X0405901Y0250643D02*
X0383146Y0250643D01*
X0381219Y0248245D02*
X0405901Y0248245D01*
X0405901Y0245846D02*
X0381219Y0245846D01*
X0381219Y0243448D02*
X0387398Y0243448D01*
X0384767Y0241049D02*
X0381195Y0241049D01*
X0381195Y0238651D02*
X0383382Y0238651D01*
X0382700Y0236252D02*
X0381219Y0236252D01*
X0381219Y0233854D02*
X0382553Y0233854D01*
X0382907Y0231455D02*
X0381414Y0231455D01*
X0383813Y0229057D02*
X0383826Y0229057D01*
X0368659Y0231455D02*
X0368500Y0231455D01*
X0368500Y0233854D02*
X0368659Y0233854D01*
X0368659Y0236252D02*
X0368500Y0236252D01*
X0368500Y0238651D02*
X0368659Y0238651D01*
X0368500Y0240227D02*
X0365731Y0240227D01*
X0365171Y0240377D01*
X0364670Y0240667D01*
X0364260Y0241076D01*
X0363970Y0241578D01*
X0363820Y0242138D01*
X0363820Y0245300D01*
X0368500Y0245300D01*
X0368500Y0240227D01*
X0368500Y0241049D02*
X0368659Y0241049D01*
X0368659Y0243448D02*
X0368500Y0243448D01*
X0368500Y0245846D02*
X0368659Y0245846D01*
X0368659Y0248245D02*
X0368500Y0248245D01*
X0363820Y0248245D02*
X0356322Y0248245D01*
X0357395Y0245846D02*
X0363820Y0245846D01*
X0363820Y0243448D02*
X0357395Y0243448D01*
X0355249Y0241049D02*
X0364287Y0241049D01*
X0347795Y0243448D02*
X0340195Y0243448D01*
X0340195Y0245846D02*
X0347795Y0245846D01*
X0324995Y0279425D02*
X0291550Y0279425D01*
X0294984Y0281824D02*
X0324995Y0281824D01*
X0324995Y0284222D02*
X0297382Y0284222D01*
X0299781Y0286621D02*
X0324995Y0286621D01*
X0287795Y0308207D02*
X0398995Y0308207D01*
X0398995Y0305809D02*
X0397066Y0305809D01*
X0397967Y0303410D02*
X0398995Y0303410D01*
X0398995Y0301012D02*
X0397717Y0301012D01*
X0398995Y0298613D02*
X0396122Y0298613D01*
X0398995Y0296215D02*
X0391218Y0296215D01*
X0397081Y0310606D02*
X0287795Y0310606D01*
X0287795Y0310183D02*
X0287795Y0312337D01*
X0284749Y0315383D01*
X0282595Y0315383D01*
X0282595Y0310183D01*
X0282595Y0310183D01*
X0282595Y0310183D01*
X0287795Y0310183D01*
X0287128Y0313004D02*
X0394683Y0313004D01*
X0392284Y0315403D02*
X0265295Y0315403D01*
X0264915Y0315783D02*
X0245276Y0315783D01*
X0241995Y0312503D01*
X0241995Y0307863D01*
X0245276Y0304583D01*
X0264915Y0304583D01*
X0268195Y0307863D01*
X0268195Y0312503D01*
X0264915Y0315783D01*
X0267693Y0313004D02*
X0278063Y0313004D01*
X0277395Y0310606D02*
X0268195Y0310606D01*
X0268195Y0308207D02*
X0277395Y0308207D01*
X0279615Y0305809D02*
X0266141Y0305809D01*
X0282595Y0305809D02*
X0282595Y0305809D01*
X0282595Y0308207D02*
X0282595Y0308207D01*
X0282595Y0310606D02*
X0282595Y0310606D01*
X0282595Y0313004D02*
X0282595Y0313004D01*
X0244895Y0315403D02*
X0230295Y0315403D01*
X0230767Y0314931D02*
X0230767Y0314931D01*
X0232693Y0313004D02*
X0242497Y0313004D01*
X0241995Y0310606D02*
X0233195Y0310606D01*
X0233195Y0308207D02*
X0241995Y0308207D01*
X0244050Y0305809D02*
X0231141Y0305809D01*
X0232343Y0307011D02*
X0232343Y0307011D01*
X0222497Y0313004D02*
X0220791Y0313004D01*
X0220098Y0310606D02*
X0218392Y0310606D01*
X0217700Y0308207D02*
X0215993Y0308207D01*
X0215301Y0305809D02*
X0213595Y0305809D01*
X0212903Y0303410D02*
X0211395Y0303410D01*
X0211395Y0301012D02*
X0212035Y0301012D01*
X0212035Y0298613D02*
X0211395Y0298613D01*
X0211395Y0296215D02*
X0212035Y0296215D01*
X0212035Y0293816D02*
X0211395Y0293816D01*
X0211395Y0291418D02*
X0211704Y0291418D01*
X0203795Y0301299D02*
X0203351Y0301483D01*
X0136839Y0301483D01*
X0135443Y0300905D01*
X0127943Y0293405D01*
X0126874Y0292336D01*
X0126295Y0290939D01*
X0126295Y0261857D01*
X0121633Y0266519D01*
X0122021Y0266680D01*
X0122752Y0267411D01*
X0123148Y0268367D01*
X0123148Y0274519D01*
X0122873Y0275183D01*
X0123148Y0275847D01*
X0123148Y0281999D01*
X0122752Y0282955D01*
X0122021Y0283686D01*
X0121395Y0283946D01*
X0121395Y0306665D01*
X0121982Y0307252D01*
X0122770Y0309154D01*
X0122770Y0311212D01*
X0121982Y0313114D01*
X0120526Y0314570D01*
X0118624Y0315358D01*
X0116566Y0315358D01*
X0114664Y0314570D01*
X0113208Y0313114D01*
X0112420Y0311212D01*
X0112420Y0309154D01*
X0113208Y0307252D01*
X0113795Y0306665D01*
X0113795Y0283946D01*
X0113170Y0283686D01*
X0112438Y0282955D01*
X0112042Y0281999D01*
X0112042Y0275847D01*
X0112317Y0275183D01*
X0112042Y0274519D01*
X0112042Y0268367D01*
X0112438Y0267411D01*
X0113170Y0266680D01*
X0113557Y0266519D01*
X0109374Y0262336D01*
X0108795Y0260939D01*
X0108795Y0257801D01*
X0108366Y0257623D01*
X0107635Y0256892D01*
X0107239Y0255936D01*
X0107239Y0249390D01*
X0107635Y0248435D01*
X0108366Y0247703D01*
X0109322Y0247307D01*
X0115868Y0247307D01*
X0116824Y0247703D01*
X0117555Y0248435D01*
X0117951Y0249390D01*
X0117951Y0255936D01*
X0117555Y0256892D01*
X0116824Y0257623D01*
X0116395Y0257801D01*
X0116395Y0258609D01*
X0117595Y0259809D01*
X0120055Y0257349D01*
X0120055Y0255436D01*
X0119823Y0255340D01*
X0119092Y0254609D01*
X0118696Y0253653D01*
X0118696Y0246713D01*
X0119092Y0245758D01*
X0119823Y0245026D01*
X0120055Y0244930D01*
X0120055Y0238017D01*
X0117951Y0235913D01*
X0117951Y0240976D01*
X0117555Y0241931D01*
X0116824Y0242663D01*
X0115868Y0243059D01*
X0109322Y0243059D01*
X0108366Y0242663D01*
X0107635Y0241931D01*
X0107239Y0240976D01*
X0107239Y0238314D01*
X0106945Y0238314D01*
X0106768Y0238742D01*
X0106036Y0239474D01*
X0105081Y0239870D01*
X0100109Y0239870D01*
X0099154Y0239474D01*
X0098422Y0238742D01*
X0098245Y0238314D01*
X0092838Y0238314D01*
X0087986Y0243166D01*
X0088195Y0243671D01*
X0088195Y0319027D01*
X0090743Y0321575D01*
X0173795Y0321575D01*
X0173795Y0313701D01*
X0173208Y0313114D01*
X0172420Y0311212D01*
X0172420Y0309154D01*
X0173208Y0307252D01*
X0174664Y0305796D01*
X0176566Y0305008D01*
X0178624Y0305008D01*
X0180526Y0305796D01*
X0181982Y0307252D01*
X0182770Y0309154D01*
X0182770Y0311212D01*
X0181982Y0313114D01*
X0181395Y0313701D01*
X0181395Y0321575D01*
X0218613Y0321575D01*
X0205443Y0308405D01*
X0204374Y0307336D01*
X0203795Y0305939D01*
X0203795Y0301299D01*
X0203795Y0303410D02*
X0121395Y0303410D01*
X0121395Y0301012D02*
X0135702Y0301012D01*
X0133151Y0298613D02*
X0121395Y0298613D01*
X0121395Y0296215D02*
X0130753Y0296215D01*
X0128354Y0293816D02*
X0121395Y0293816D01*
X0121395Y0291418D02*
X0126494Y0291418D01*
X0126295Y0289019D02*
X0121395Y0289019D01*
X0121395Y0286621D02*
X0126295Y0286621D01*
X0126295Y0284222D02*
X0121395Y0284222D01*
X0123148Y0281824D02*
X0126295Y0281824D01*
X0126295Y0279425D02*
X0123148Y0279425D01*
X0123148Y0277027D02*
X0126295Y0277027D01*
X0126295Y0274628D02*
X0123103Y0274628D01*
X0123148Y0272230D02*
X0126295Y0272230D01*
X0126295Y0269831D02*
X0123148Y0269831D01*
X0122761Y0267433D02*
X0126295Y0267433D01*
X0126295Y0265034D02*
X0123118Y0265034D01*
X0125517Y0262636D02*
X0126295Y0262636D01*
X0123855Y0258923D02*
X0117595Y0265183D01*
X0112595Y0260183D01*
X0112595Y0252663D01*
X0107239Y0253042D02*
X0088195Y0253042D01*
X0088195Y0255440D02*
X0107239Y0255440D01*
X0108795Y0257839D02*
X0088195Y0257839D01*
X0088195Y0260237D02*
X0108795Y0260237D01*
X0109674Y0262636D02*
X0088195Y0262636D01*
X0088195Y0265034D02*
X0112072Y0265034D01*
X0112429Y0267433D02*
X0088195Y0267433D01*
X0088195Y0269831D02*
X0112042Y0269831D01*
X0112042Y0272230D02*
X0088195Y0272230D01*
X0088195Y0274628D02*
X0112088Y0274628D01*
X0112042Y0277027D02*
X0088195Y0277027D01*
X0088195Y0279425D02*
X0112042Y0279425D01*
X0112042Y0281824D02*
X0098802Y0281824D01*
X0099945Y0282967D02*
X0096811Y0279833D01*
X0094595Y0279833D01*
X0094595Y0285183D01*
X0089245Y0285183D01*
X0089245Y0282967D01*
X0092379Y0279833D01*
X0094595Y0279833D01*
X0094595Y0285183D01*
X0094595Y0285183D01*
X0094595Y0285183D01*
X0089245Y0285183D01*
X0089245Y0287399D01*
X0092379Y0290533D01*
X0094595Y0290533D01*
X0094595Y0285183D01*
X0094595Y0285183D01*
X0094595Y0285183D01*
X0099945Y0285183D01*
X0099945Y0282967D01*
X0099945Y0284222D02*
X0113795Y0284222D01*
X0113795Y0286621D02*
X0099945Y0286621D01*
X0099945Y0287399D02*
X0099945Y0285183D01*
X0094595Y0285183D01*
X0094595Y0290533D01*
X0096811Y0290533D01*
X0099945Y0287399D01*
X0098325Y0289019D02*
X0113795Y0289019D01*
X0113795Y0291418D02*
X0088195Y0291418D01*
X0088195Y0293816D02*
X0113795Y0293816D01*
X0113795Y0296215D02*
X0088195Y0296215D01*
X0088195Y0298613D02*
X0113795Y0298613D01*
X0113795Y0301012D02*
X0088195Y0301012D01*
X0088195Y0303410D02*
X0113795Y0303410D01*
X0113795Y0305809D02*
X0088195Y0305809D01*
X0088195Y0308207D02*
X0112812Y0308207D01*
X0112420Y0310606D02*
X0088195Y0310606D01*
X0088195Y0313004D02*
X0113163Y0313004D01*
X0117595Y0310183D02*
X0117595Y0278923D01*
X0117595Y0271443D02*
X0117595Y0265183D01*
X0116395Y0257839D02*
X0119566Y0257839D01*
X0120055Y0255440D02*
X0117951Y0255440D01*
X0117951Y0253042D02*
X0118696Y0253042D01*
X0118696Y0250643D02*
X0117951Y0250643D01*
X0117365Y0248245D02*
X0118696Y0248245D01*
X0119055Y0245846D02*
X0099945Y0245846D01*
X0099945Y0245183D02*
X0099945Y0247399D01*
X0096811Y0250533D01*
X0094595Y0250533D01*
X0092379Y0250533D01*
X0089245Y0247399D01*
X0089245Y0245183D01*
X0089245Y0242967D01*
X0092379Y0239833D01*
X0094595Y0239833D01*
X0094595Y0245183D01*
X0089245Y0245183D01*
X0094595Y0245183D01*
X0094595Y0245183D01*
X0094595Y0245183D01*
X0094595Y0239833D01*
X0096811Y0239833D01*
X0099945Y0242967D01*
X0099945Y0245183D01*
X0094595Y0245183D01*
X0094595Y0250533D01*
X0094595Y0245183D01*
X0094595Y0245183D01*
X0094595Y0245183D01*
X0099945Y0245183D01*
X0099945Y0243448D02*
X0120055Y0243448D01*
X0120055Y0241049D02*
X0117921Y0241049D01*
X0117951Y0238651D02*
X0120055Y0238651D01*
X0118290Y0236252D02*
X0117951Y0236252D01*
X0123855Y0236443D02*
X0113264Y0225852D01*
X0106335Y0225852D01*
X0110686Y0222052D02*
X0114020Y0222052D01*
X0115417Y0222631D01*
X0116486Y0223700D01*
X0126295Y0233509D01*
X0126295Y0220329D01*
X0125847Y0220143D01*
X0125115Y0219412D01*
X0124720Y0218456D01*
X0124720Y0211910D01*
X0125115Y0210954D01*
X0125847Y0210223D01*
X0126295Y0210037D01*
X0126295Y0209427D01*
X0126874Y0208031D01*
X0131874Y0203031D01*
X0132121Y0202783D01*
X0084279Y0202783D01*
X0080638Y0206424D01*
X0078757Y0208304D01*
X0076454Y0209634D01*
X0073885Y0210322D01*
X0042765Y0210322D01*
X0040197Y0209634D01*
X0037894Y0208304D01*
X0037795Y0208206D01*
X0037795Y0215340D01*
X0038377Y0215150D01*
X0039186Y0215022D01*
X0042595Y0215022D01*
X0042595Y0220222D01*
X0042595Y0220222D01*
X0042595Y0215022D01*
X0046004Y0215022D01*
X0046813Y0215150D01*
X0047591Y0215403D01*
X0048321Y0215775D01*
X0048983Y0216256D01*
X0049561Y0216835D01*
X0050043Y0217497D01*
X0050414Y0218226D01*
X0050667Y0219005D01*
X0050795Y0219813D01*
X0050795Y0220222D01*
X0042595Y0220222D01*
X0042595Y0220222D01*
X0050795Y0220222D01*
X0050795Y0220632D01*
X0050667Y0221440D01*
X0050414Y0222219D01*
X0050043Y0222948D01*
X0049561Y0223610D01*
X0048983Y0224189D01*
X0048321Y0224670D01*
X0047591Y0225041D01*
X0046813Y0225294D01*
X0046004Y0225422D01*
X0042595Y0225422D01*
X0039186Y0225422D01*
X0038377Y0225294D01*
X0037795Y0225105D01*
X0037795Y0246088D01*
X0038481Y0245804D01*
X0046709Y0245804D01*
X0048000Y0246338D01*
X0070865Y0223473D01*
X0072047Y0222292D01*
X0073590Y0221652D01*
X0094655Y0221652D01*
X0094655Y0218088D01*
X0095294Y0216544D01*
X0096476Y0215363D01*
X0099035Y0212804D01*
X0100216Y0211622D01*
X0101760Y0210983D01*
X0110143Y0210983D01*
X0110155Y0210954D01*
X0110886Y0210223D01*
X0111842Y0209827D01*
X0118388Y0209827D01*
X0119344Y0210223D01*
X0120075Y0210954D01*
X0120471Y0211910D01*
X0120471Y0218456D01*
X0120075Y0219412D01*
X0119344Y0220143D01*
X0118388Y0220539D01*
X0111842Y0220539D01*
X0110886Y0220143D01*
X0110155Y0219412D01*
X0110143Y0219383D01*
X0104335Y0219383D01*
X0103055Y0220663D01*
X0103055Y0220826D01*
X0103850Y0220496D01*
X0108821Y0220496D01*
X0109777Y0220892D01*
X0110508Y0221624D01*
X0110686Y0222052D01*
X0110606Y0221861D02*
X0126295Y0221861D01*
X0126295Y0224260D02*
X0117046Y0224260D01*
X0119444Y0226658D02*
X0126295Y0226658D01*
X0126295Y0229057D02*
X0121843Y0229057D01*
X0124241Y0231455D02*
X0126295Y0231455D01*
X0123855Y0236443D02*
X0123855Y0250183D01*
X0123855Y0258923D01*
X0131335Y0250183D02*
X0157595Y0250183D01*
X0162595Y0255183D01*
X0162595Y0240183D02*
X0157595Y0240183D01*
X0155075Y0240183D01*
X0130075Y0215183D01*
X0124720Y0214665D02*
X0120471Y0214665D01*
X0120471Y0212267D02*
X0124720Y0212267D01*
X0126295Y0209868D02*
X0118488Y0209868D01*
X0111742Y0209868D02*
X0075580Y0209868D01*
X0079592Y0207470D02*
X0127434Y0207470D01*
X0129833Y0205071D02*
X0081990Y0205071D01*
X0080638Y0206424D02*
X0080638Y0206424D01*
X0095079Y0217064D02*
X0049728Y0217064D01*
X0050740Y0219462D02*
X0094655Y0219462D01*
X0097173Y0214665D02*
X0037795Y0214665D01*
X0037795Y0212267D02*
X0099572Y0212267D01*
X0104255Y0219462D02*
X0110205Y0219462D01*
X0120024Y0219462D02*
X0125166Y0219462D01*
X0124720Y0217064D02*
X0120471Y0217064D01*
X0109406Y0234514D02*
X0102595Y0234514D01*
X0091264Y0234514D01*
X0080595Y0245183D01*
X0074081Y0241049D02*
X0065169Y0241049D01*
X0067567Y0238651D02*
X0076506Y0238651D01*
X0076290Y0238740D02*
X0079083Y0237583D01*
X0082107Y0237583D01*
X0082612Y0237792D01*
X0088043Y0232361D01*
X0089112Y0231292D01*
X0090509Y0230714D01*
X0095315Y0230714D01*
X0094682Y0230081D01*
X0094670Y0230052D01*
X0076166Y0230052D01*
X0051254Y0254964D01*
X0049710Y0255604D01*
X0049315Y0255604D01*
X0048767Y0256151D01*
X0048158Y0256404D01*
X0048767Y0256656D01*
X0050343Y0258231D01*
X0051195Y0260290D01*
X0051195Y0262517D01*
X0050343Y0264576D01*
X0049835Y0265083D01*
X0054542Y0265083D01*
X0054542Y0260847D01*
X0054938Y0259891D01*
X0055068Y0259761D01*
X0054942Y0259292D01*
X0054942Y0256522D01*
X0060016Y0256522D01*
X0060016Y0256363D01*
X0060175Y0256363D01*
X0060175Y0256522D01*
X0065248Y0256522D01*
X0070016Y0256522D01*
X0070016Y0256363D01*
X0070175Y0256363D01*
X0070175Y0251684D01*
X0072995Y0251684D01*
X0072995Y0243671D01*
X0074152Y0240878D01*
X0076290Y0238740D01*
X0072364Y0233854D02*
X0086551Y0233854D01*
X0084152Y0236252D02*
X0069966Y0236252D01*
X0074763Y0231455D02*
X0088949Y0231455D01*
X0092502Y0238651D02*
X0098384Y0238651D01*
X0098027Y0241049D02*
X0107270Y0241049D01*
X0107239Y0238651D02*
X0106806Y0238651D01*
X0109406Y0234514D02*
X0112595Y0237703D01*
X0107825Y0248245D02*
X0099100Y0248245D01*
X0094595Y0248245D02*
X0094595Y0248245D01*
X0094595Y0245846D02*
X0094595Y0245846D01*
X0094595Y0243448D02*
X0094595Y0243448D01*
X0094595Y0241049D02*
X0094595Y0241049D01*
X0091163Y0241049D02*
X0090103Y0241049D01*
X0089245Y0243448D02*
X0088102Y0243448D01*
X0088195Y0245846D02*
X0089245Y0245846D01*
X0090091Y0248245D02*
X0088195Y0248245D01*
X0088195Y0250643D02*
X0107239Y0250643D01*
X0072995Y0250643D02*
X0055575Y0250643D01*
X0056293Y0251834D02*
X0056853Y0251684D01*
X0060016Y0251684D01*
X0060016Y0256363D01*
X0054942Y0256363D01*
X0054942Y0253594D01*
X0055092Y0253035D01*
X0055382Y0252533D01*
X0055792Y0252123D01*
X0056293Y0251834D01*
X0055090Y0253042D02*
X0053176Y0253042D01*
X0054942Y0255440D02*
X0050105Y0255440D01*
X0049950Y0257839D02*
X0054942Y0257839D01*
X0054795Y0260237D02*
X0051173Y0260237D01*
X0051146Y0262636D02*
X0054542Y0262636D01*
X0054542Y0265034D02*
X0049884Y0265034D01*
X0060175Y0256363D02*
X0060175Y0251684D01*
X0063338Y0251684D01*
X0063897Y0251834D01*
X0064399Y0252123D01*
X0064808Y0252533D01*
X0065095Y0253030D01*
X0065382Y0252533D01*
X0065792Y0252123D01*
X0066293Y0251834D01*
X0066853Y0251684D01*
X0070016Y0251684D01*
X0070016Y0256363D01*
X0060175Y0256363D01*
X0060175Y0255440D02*
X0060016Y0255440D01*
X0060016Y0253042D02*
X0060175Y0253042D01*
X0057973Y0248245D02*
X0072995Y0248245D01*
X0072995Y0245846D02*
X0060372Y0245846D01*
X0062770Y0243448D02*
X0073088Y0243448D01*
X0070175Y0253042D02*
X0070016Y0253042D01*
X0070016Y0255440D02*
X0070175Y0255440D01*
X0053289Y0241049D02*
X0037795Y0241049D01*
X0037795Y0238651D02*
X0055688Y0238651D01*
X0058086Y0236252D02*
X0037795Y0236252D01*
X0037795Y0233854D02*
X0060485Y0233854D01*
X0062883Y0231455D02*
X0037795Y0231455D01*
X0037795Y0229057D02*
X0065282Y0229057D01*
X0067680Y0226658D02*
X0037795Y0226658D01*
X0042595Y0225422D02*
X0042595Y0220223D01*
X0042595Y0220223D01*
X0042595Y0225422D01*
X0042595Y0224260D02*
X0042595Y0224260D01*
X0042595Y0221861D02*
X0042595Y0221861D01*
X0042595Y0219462D02*
X0042595Y0219462D01*
X0042595Y0217064D02*
X0042595Y0217064D01*
X0041071Y0209868D02*
X0037795Y0209868D01*
X0050530Y0221861D02*
X0073087Y0221861D01*
X0070079Y0224260D02*
X0048885Y0224260D01*
X0050891Y0243448D02*
X0037795Y0243448D01*
X0037795Y0245846D02*
X0038378Y0245846D01*
X0046812Y0245846D02*
X0048492Y0245846D01*
X0088195Y0281824D02*
X0090388Y0281824D01*
X0089245Y0284222D02*
X0088195Y0284222D01*
X0088195Y0286621D02*
X0089245Y0286621D01*
X0088195Y0289019D02*
X0090865Y0289019D01*
X0094595Y0289019D02*
X0094595Y0289019D01*
X0094595Y0286621D02*
X0094595Y0286621D01*
X0094595Y0284222D02*
X0094595Y0284222D01*
X0094595Y0281824D02*
X0094595Y0281824D01*
X0121395Y0305809D02*
X0174651Y0305809D01*
X0172812Y0308207D02*
X0122378Y0308207D01*
X0122770Y0310606D02*
X0172420Y0310606D01*
X0173163Y0313004D02*
X0122028Y0313004D01*
X0127943Y0293405D02*
X0127943Y0293405D01*
X0088195Y0315403D02*
X0173795Y0315403D01*
X0173795Y0317801D02*
X0088195Y0317801D01*
X0089368Y0320200D02*
X0173795Y0320200D01*
X0181395Y0320200D02*
X0217238Y0320200D01*
X0214840Y0317801D02*
X0181395Y0317801D01*
X0181395Y0315403D02*
X0212441Y0315403D01*
X0210043Y0313004D02*
X0182028Y0313004D01*
X0182770Y0310606D02*
X0207644Y0310606D01*
X0205443Y0308405D02*
X0205443Y0308405D01*
X0205245Y0308207D02*
X0182378Y0308207D01*
X0180539Y0305809D02*
X0203795Y0305809D01*
X0223189Y0315403D02*
X0224895Y0315403D01*
X0224423Y0314931D02*
X0224423Y0314931D01*
X0177595Y0310183D02*
X0177595Y0329175D01*
X0212595Y0265183D02*
X0207595Y0260183D01*
X0207595Y0259281D01*
X0194796Y0259281D01*
X0185095Y0252683D02*
X0182595Y0250183D01*
X0194796Y0241085D02*
X0210434Y0241085D01*
X0217595Y0233923D01*
X0132121Y0162583D02*
X0131874Y0162336D01*
X0127943Y0158405D01*
X0126874Y0157336D01*
X0126295Y0155939D01*
X0126295Y0135736D01*
X0121826Y0135736D01*
X0120904Y0136658D01*
X0120904Y0139125D01*
X0120508Y0140081D01*
X0119777Y0140812D01*
X0118821Y0141208D01*
X0117150Y0141208D01*
X0117164Y0141241D01*
X0117164Y0147787D01*
X0116768Y0148742D01*
X0116036Y0149474D01*
X0115081Y0149870D01*
X0110109Y0149870D01*
X0109154Y0149474D01*
X0108422Y0148742D01*
X0108411Y0148714D01*
X0088590Y0148714D01*
X0087047Y0148074D01*
X0077748Y0138775D01*
X0077748Y0139272D01*
X0077598Y0139831D01*
X0077308Y0140333D01*
X0076899Y0140743D01*
X0076397Y0141032D01*
X0075838Y0141182D01*
X0072675Y0141182D01*
X0072675Y0136503D01*
X0072516Y0136503D01*
X0072516Y0141182D01*
X0069353Y0141182D01*
X0068845Y0141046D01*
X0068338Y0141182D01*
X0065175Y0141182D01*
X0065175Y0136503D01*
X0070248Y0136503D01*
X0072516Y0136503D01*
X0072516Y0136344D01*
X0065175Y0136344D01*
X0065175Y0136503D01*
X0065016Y0136503D01*
X0065016Y0141182D01*
X0062878Y0141182D01*
X0084279Y0162583D01*
X0132121Y0162583D01*
X0131436Y0161898D02*
X0083594Y0161898D01*
X0081195Y0159500D02*
X0129038Y0159500D01*
X0127943Y0158405D02*
X0127943Y0158405D01*
X0126777Y0157101D02*
X0078797Y0157101D01*
X0076398Y0154703D02*
X0126295Y0154703D01*
X0126295Y0152304D02*
X0074000Y0152304D01*
X0071601Y0149906D02*
X0126295Y0149906D01*
X0126295Y0147507D02*
X0117164Y0147507D01*
X0117164Y0145109D02*
X0126295Y0145109D01*
X0126295Y0142710D02*
X0117164Y0142710D01*
X0120277Y0140312D02*
X0126295Y0140312D01*
X0126295Y0137913D02*
X0120904Y0137913D01*
X0116335Y0135852D02*
X0122005Y0130183D01*
X0123855Y0130183D01*
X0123855Y0120632D01*
X0125471Y0119016D01*
X0125471Y0108059D01*
X0117595Y0100183D01*
X0117595Y0093923D01*
X0106335Y0093923D01*
X0105075Y0095183D01*
X0099720Y0094740D02*
X0095471Y0094740D01*
X0095471Y0097138D02*
X0099720Y0097138D01*
X0099720Y0098456D02*
X0099720Y0091910D01*
X0100115Y0090954D01*
X0100847Y0090223D01*
X0101802Y0089827D01*
X0108349Y0089827D01*
X0109063Y0090123D01*
X0112293Y0090123D01*
X0112042Y0089519D01*
X0112042Y0083367D01*
X0112438Y0082411D01*
X0113170Y0081680D01*
X0113795Y0081421D01*
X0113795Y0058701D01*
X0113208Y0058114D01*
X0112420Y0056212D01*
X0112420Y0054154D01*
X0113208Y0052252D01*
X0114664Y0050796D01*
X0116566Y0050008D01*
X0118624Y0050008D01*
X0120526Y0050796D01*
X0121982Y0052252D01*
X0122770Y0054154D01*
X0122770Y0056212D01*
X0121982Y0058114D01*
X0121395Y0058701D01*
X0121395Y0081421D01*
X0122021Y0081680D01*
X0122752Y0082411D01*
X0123148Y0083367D01*
X0123148Y0089519D01*
X0122873Y0090183D01*
X0123148Y0090847D01*
X0123148Y0096999D01*
X0122752Y0097955D01*
X0122021Y0098686D01*
X0121633Y0098847D01*
X0126295Y0103509D01*
X0126295Y0074427D01*
X0126874Y0073031D01*
X0127943Y0071962D01*
X0134374Y0065531D01*
X0134374Y0065531D01*
X0135443Y0064462D01*
X0136839Y0063883D01*
X0202051Y0063883D01*
X0203448Y0064462D01*
X0203795Y0064809D01*
X0203795Y0049427D01*
X0204374Y0048031D01*
X0205443Y0046962D01*
X0209374Y0043031D01*
X0209621Y0042783D01*
X0181395Y0042783D01*
X0181395Y0051665D01*
X0181982Y0052252D01*
X0182770Y0054154D01*
X0182770Y0056212D01*
X0181982Y0058114D01*
X0180526Y0059570D01*
X0178624Y0060358D01*
X0176566Y0060358D01*
X0174664Y0059570D01*
X0173208Y0058114D01*
X0172420Y0056212D01*
X0172420Y0054154D01*
X0173208Y0052252D01*
X0173795Y0051665D01*
X0173795Y0042783D01*
X0090743Y0042783D01*
X0088195Y0045331D01*
X0088195Y0089827D01*
X0093388Y0089827D01*
X0094344Y0090223D01*
X0095075Y0090954D01*
X0095471Y0091910D01*
X0095471Y0098456D01*
X0095075Y0099412D01*
X0094344Y0100143D01*
X0093388Y0100539D01*
X0088195Y0100539D01*
X0088195Y0121695D01*
X0087038Y0124488D01*
X0086409Y0125118D01*
X0085677Y0126385D01*
X0084795Y0127267D01*
X0084795Y0133943D01*
X0091166Y0140314D01*
X0104915Y0140314D01*
X0104682Y0140081D01*
X0104286Y0139125D01*
X0104286Y0136883D01*
X0096760Y0136883D01*
X0095216Y0136244D01*
X0094035Y0135062D01*
X0093395Y0133519D01*
X0093395Y0131848D01*
X0094035Y0130304D01*
X0095216Y0129122D01*
X0096760Y0128483D01*
X0105055Y0128483D01*
X0105055Y0125687D01*
X0105634Y0124290D01*
X0106702Y0123221D01*
X0114759Y0115165D01*
X0114759Y0111910D01*
X0115155Y0110954D01*
X0115886Y0110223D01*
X0116842Y0109827D01*
X0121671Y0109827D01*
X0121671Y0109633D01*
X0114374Y0102336D01*
X0113795Y0100939D01*
X0113795Y0098946D01*
X0113170Y0098686D01*
X0112438Y0097955D01*
X0112342Y0097723D01*
X0110431Y0097723D01*
X0110431Y0098456D01*
X0110036Y0099412D01*
X0109304Y0100143D01*
X0108349Y0100539D01*
X0101802Y0100539D01*
X0100847Y0100143D01*
X0100115Y0099412D01*
X0099720Y0098456D01*
X0100241Y0099537D02*
X0094950Y0099537D01*
X0088195Y0101935D02*
X0114208Y0101935D01*
X0113795Y0099537D02*
X0109910Y0099537D01*
X0116372Y0104334D02*
X0088195Y0104334D01*
X0088195Y0106732D02*
X0118771Y0106732D01*
X0121169Y0109131D02*
X0088195Y0109131D01*
X0088195Y0111529D02*
X0114917Y0111529D01*
X0114759Y0113928D02*
X0088195Y0113928D01*
X0088195Y0116327D02*
X0090886Y0116327D01*
X0092379Y0114833D02*
X0089245Y0117967D01*
X0089245Y0120183D01*
X0094595Y0120183D01*
X0094595Y0120183D01*
X0094595Y0120183D01*
X0094595Y0114833D01*
X0092379Y0114833D01*
X0094595Y0114833D02*
X0096811Y0114833D01*
X0099945Y0117967D01*
X0099945Y0120183D01*
X0094595Y0120183D01*
X0089245Y0120183D01*
X0089245Y0122399D01*
X0092379Y0125533D01*
X0094595Y0125533D01*
X0094595Y0120183D01*
X0094595Y0114833D01*
X0094595Y0116327D02*
X0094595Y0116327D01*
X0094595Y0118725D02*
X0094595Y0118725D01*
X0094595Y0120183D02*
X0094595Y0120183D01*
X0094595Y0120183D01*
X0094595Y0125533D01*
X0096811Y0125533D01*
X0099945Y0122399D01*
X0099945Y0120183D01*
X0094595Y0120183D01*
X0094595Y0121124D02*
X0094595Y0121124D01*
X0094595Y0123522D02*
X0094595Y0123522D01*
X0090368Y0123522D02*
X0087438Y0123522D01*
X0088195Y0121124D02*
X0089245Y0121124D01*
X0089245Y0118725D02*
X0088195Y0118725D01*
X0085945Y0125921D02*
X0105055Y0125921D01*
X0105055Y0128319D02*
X0084795Y0128319D01*
X0084795Y0130718D02*
X0093863Y0130718D01*
X0093395Y0133116D02*
X0084795Y0133116D01*
X0086366Y0135515D02*
X0094487Y0135515D01*
X0088765Y0137913D02*
X0104286Y0137913D01*
X0104913Y0140312D02*
X0091163Y0140312D01*
X0084081Y0145109D02*
X0066804Y0145109D01*
X0069203Y0147507D02*
X0086480Y0147507D01*
X0081683Y0142710D02*
X0064406Y0142710D01*
X0065016Y0140312D02*
X0065175Y0140312D01*
X0065175Y0137913D02*
X0065016Y0137913D01*
X0065016Y0136503D02*
X0065016Y0136344D01*
X0059942Y0136344D01*
X0059942Y0133575D01*
X0060068Y0133105D01*
X0059938Y0132975D01*
X0059542Y0132019D01*
X0059542Y0130283D01*
X0045265Y0130283D01*
X0042697Y0129595D01*
X0040394Y0128265D01*
X0037795Y0125667D01*
X0037795Y0137121D01*
X0037894Y0137022D01*
X0040197Y0135693D01*
X0042765Y0135004D01*
X0053846Y0135004D01*
X0056415Y0135693D01*
X0058718Y0137022D01*
X0059942Y0138247D01*
X0059942Y0136503D01*
X0065016Y0136503D01*
X0072516Y0137913D02*
X0072675Y0137913D01*
X0072675Y0140312D02*
X0072516Y0140312D01*
X0077321Y0140312D02*
X0079284Y0140312D01*
X0059942Y0137913D02*
X0059609Y0137913D01*
X0059942Y0135515D02*
X0055750Y0135515D01*
X0060065Y0133116D02*
X0037795Y0133116D01*
X0037795Y0130718D02*
X0059542Y0130718D01*
X0040487Y0128319D02*
X0037795Y0128319D01*
X0037795Y0125921D02*
X0038049Y0125921D01*
X0037795Y0135515D02*
X0040861Y0135515D01*
X0037795Y0153088D02*
X0037795Y0160222D01*
X0038377Y0160032D01*
X0039186Y0159904D01*
X0042595Y0159904D01*
X0042595Y0165104D01*
X0042595Y0165104D01*
X0042595Y0159904D01*
X0046004Y0159904D01*
X0046813Y0160032D01*
X0047591Y0160285D01*
X0048321Y0160657D01*
X0048983Y0161138D01*
X0049561Y0161717D01*
X0050043Y0162379D01*
X0050414Y0163108D01*
X0050667Y0163887D01*
X0050795Y0164695D01*
X0050795Y0165104D01*
X0042595Y0165104D01*
X0042595Y0165104D01*
X0042595Y0170304D01*
X0039186Y0170304D01*
X0038377Y0170176D01*
X0037795Y0169987D01*
X0037795Y0192239D01*
X0037894Y0192140D01*
X0040197Y0190811D01*
X0042765Y0190122D01*
X0068372Y0190122D01*
X0073894Y0184601D01*
X0076197Y0183271D01*
X0078392Y0182683D01*
X0076197Y0182095D01*
X0073894Y0180765D01*
X0048333Y0155204D01*
X0042765Y0155204D01*
X0040197Y0154516D01*
X0037894Y0153186D01*
X0037795Y0153088D01*
X0037795Y0154703D02*
X0040893Y0154703D01*
X0037795Y0157101D02*
X0050230Y0157101D01*
X0052628Y0159500D02*
X0037795Y0159500D01*
X0042595Y0161898D02*
X0042595Y0161898D01*
X0042595Y0164297D02*
X0042595Y0164297D01*
X0042595Y0165104D02*
X0050795Y0165104D01*
X0050795Y0165514D01*
X0050667Y0166322D01*
X0050414Y0167100D01*
X0050043Y0167830D01*
X0049561Y0168492D01*
X0048983Y0169071D01*
X0048321Y0169552D01*
X0047591Y0169923D01*
X0046813Y0170176D01*
X0046004Y0170304D01*
X0042595Y0170304D01*
X0042595Y0165104D01*
X0042595Y0165104D01*
X0042595Y0166695D02*
X0042595Y0166695D01*
X0042595Y0169094D02*
X0042595Y0169094D01*
X0037795Y0171492D02*
X0064621Y0171492D01*
X0062222Y0169094D02*
X0048951Y0169094D01*
X0050546Y0166695D02*
X0059824Y0166695D01*
X0057425Y0164297D02*
X0050732Y0164297D01*
X0049693Y0161898D02*
X0055027Y0161898D01*
X0067019Y0173891D02*
X0037795Y0173891D01*
X0037795Y0176289D02*
X0069418Y0176289D01*
X0071816Y0178688D02*
X0037795Y0178688D01*
X0037795Y0181086D02*
X0074450Y0181086D01*
X0075827Y0183485D02*
X0037795Y0183485D01*
X0037795Y0185883D02*
X0072611Y0185883D01*
X0070213Y0188282D02*
X0037795Y0188282D01*
X0037795Y0190680D02*
X0040683Y0190680D01*
X0108855Y0132683D02*
X0108855Y0126443D01*
X0120115Y0115183D01*
X0113597Y0116327D02*
X0098305Y0116327D01*
X0099945Y0118725D02*
X0111199Y0118725D01*
X0108800Y0121124D02*
X0099945Y0121124D01*
X0098822Y0123522D02*
X0106402Y0123522D01*
X0131335Y0130183D02*
X0172595Y0115183D01*
X0182595Y0115183D02*
X0185095Y0117683D01*
X0185095Y0130183D01*
X0187595Y0132683D01*
X0202595Y0132683D01*
X0210095Y0140183D01*
X0210095Y0153872D01*
X0203784Y0160183D01*
X0135095Y0160183D01*
X0130095Y0155183D01*
X0130095Y0075183D01*
X0137595Y0067683D01*
X0201295Y0067683D01*
X0203795Y0070183D01*
X0203795Y0086483D01*
X0202595Y0087683D01*
X0207595Y0092683D01*
X0202595Y0097683D01*
X0187595Y0097683D01*
X0185095Y0100183D01*
X0185095Y0115183D01*
X0194796Y0106085D02*
X0195698Y0105183D01*
X0207595Y0105183D01*
X0211335Y0108923D01*
X0222595Y0108923D01*
X0231335Y0108923D01*
X0232595Y0110183D01*
X0238264Y0110183D01*
X0241970Y0104334D02*
X0227737Y0104334D01*
X0227748Y0101935D02*
X0257639Y0101935D01*
X0257671Y0099537D02*
X0227748Y0099537D01*
X0226914Y0097138D02*
X0283795Y0097138D01*
X0283795Y0099537D02*
X0267519Y0099537D01*
X0267551Y0099657D02*
X0267551Y0102525D01*
X0262773Y0102525D01*
X0262773Y0097747D01*
X0265641Y0097747D01*
X0266200Y0097897D01*
X0266702Y0098186D01*
X0267111Y0098596D01*
X0267401Y0099098D01*
X0267551Y0099657D01*
X0267551Y0101935D02*
X0283795Y0101935D01*
X0281778Y0094740D02*
X0210856Y0094740D01*
X0208514Y0097138D02*
X0218277Y0097138D01*
X0217442Y0099537D02*
X0206115Y0099537D01*
X0209685Y0101935D02*
X0217442Y0101935D01*
X0217454Y0104334D02*
X0212120Y0104334D01*
X0222516Y0099537D02*
X0222675Y0099537D01*
X0222675Y0097138D02*
X0222516Y0097138D01*
X0213306Y0085146D02*
X0212932Y0085146D01*
X0203795Y0063559D02*
X0121395Y0063559D01*
X0121395Y0061161D02*
X0203795Y0061161D01*
X0203795Y0058762D02*
X0181334Y0058762D01*
X0182707Y0056364D02*
X0203795Y0056364D01*
X0203795Y0053965D02*
X0182692Y0053965D01*
X0181395Y0051567D02*
X0203795Y0051567D01*
X0203902Y0049168D02*
X0181395Y0049168D01*
X0181395Y0046770D02*
X0205635Y0046770D01*
X0208033Y0044371D02*
X0181395Y0044371D01*
X0173795Y0044371D02*
X0089155Y0044371D01*
X0088195Y0046770D02*
X0173795Y0046770D01*
X0173795Y0049168D02*
X0088195Y0049168D01*
X0088195Y0051567D02*
X0113893Y0051567D01*
X0112498Y0053965D02*
X0088195Y0053965D01*
X0088195Y0056364D02*
X0112483Y0056364D01*
X0113795Y0058762D02*
X0088195Y0058762D01*
X0088195Y0061161D02*
X0113795Y0061161D01*
X0113795Y0063559D02*
X0088195Y0063559D01*
X0088195Y0065958D02*
X0113795Y0065958D01*
X0113795Y0068356D02*
X0088195Y0068356D01*
X0088195Y0070755D02*
X0113795Y0070755D01*
X0113795Y0073153D02*
X0088195Y0073153D01*
X0088195Y0075552D02*
X0091660Y0075552D01*
X0092379Y0074833D02*
X0094595Y0074833D01*
X0094595Y0080183D01*
X0089245Y0080183D01*
X0089245Y0077967D01*
X0092379Y0074833D01*
X0094595Y0074833D02*
X0096811Y0074833D01*
X0099945Y0077967D01*
X0099945Y0080183D01*
X0094595Y0080183D01*
X0094595Y0080183D01*
X0094595Y0080183D01*
X0089245Y0080183D01*
X0089245Y0082399D01*
X0092379Y0085533D01*
X0094595Y0085533D01*
X0094595Y0080183D01*
X0094595Y0074833D01*
X0094595Y0075552D02*
X0094595Y0075552D01*
X0094595Y0077950D02*
X0094595Y0077950D01*
X0094595Y0080183D02*
X0094595Y0080183D01*
X0094595Y0080183D01*
X0094595Y0085533D01*
X0096811Y0085533D01*
X0099945Y0082399D01*
X0099945Y0080183D01*
X0094595Y0080183D01*
X0094595Y0080349D02*
X0094595Y0080349D01*
X0094595Y0082747D02*
X0094595Y0082747D01*
X0094595Y0085146D02*
X0094595Y0085146D01*
X0091992Y0085146D02*
X0088195Y0085146D01*
X0088195Y0087544D02*
X0112042Y0087544D01*
X0112042Y0085146D02*
X0097198Y0085146D01*
X0099597Y0082747D02*
X0112299Y0082747D01*
X0113795Y0080349D02*
X0099945Y0080349D01*
X0099928Y0077950D02*
X0113795Y0077950D01*
X0113795Y0075552D02*
X0097530Y0075552D01*
X0089262Y0077950D02*
X0088195Y0077950D01*
X0088195Y0080349D02*
X0089245Y0080349D01*
X0089593Y0082747D02*
X0088195Y0082747D01*
X0093667Y0089943D02*
X0101523Y0089943D01*
X0099720Y0092341D02*
X0095471Y0092341D01*
X0108628Y0089943D02*
X0112218Y0089943D01*
X0116335Y0095183D02*
X0117595Y0093923D01*
X0123148Y0094740D02*
X0126295Y0094740D01*
X0126295Y0097138D02*
X0123090Y0097138D01*
X0122323Y0099537D02*
X0126295Y0099537D01*
X0126295Y0101935D02*
X0124721Y0101935D01*
X0123148Y0092341D02*
X0126295Y0092341D01*
X0126295Y0089943D02*
X0122972Y0089943D01*
X0123148Y0087544D02*
X0126295Y0087544D01*
X0126295Y0085146D02*
X0123148Y0085146D01*
X0122891Y0082747D02*
X0126295Y0082747D01*
X0126295Y0080349D02*
X0121395Y0080349D01*
X0121395Y0077950D02*
X0126295Y0077950D01*
X0126295Y0075552D02*
X0121395Y0075552D01*
X0121395Y0073153D02*
X0126823Y0073153D01*
X0127943Y0071962D02*
X0127943Y0071962D01*
X0129149Y0070755D02*
X0121395Y0070755D01*
X0121395Y0068356D02*
X0131548Y0068356D01*
X0133946Y0065958D02*
X0121395Y0065958D01*
X0121395Y0058762D02*
X0173856Y0058762D01*
X0172483Y0056364D02*
X0122707Y0056364D01*
X0122692Y0053965D02*
X0172498Y0053965D01*
X0173795Y0051567D02*
X0121297Y0051567D01*
X0117595Y0055183D02*
X0117595Y0086443D01*
X0177595Y0055183D02*
X0177595Y0035183D01*
X0224423Y0050436D02*
X0224423Y0050436D01*
X0231898Y0051567D02*
X0243292Y0051567D01*
X0242848Y0052011D02*
X0244423Y0050436D01*
X0245276Y0049583D01*
X0264915Y0049583D01*
X0265767Y0050436D01*
X0265767Y0050436D01*
X0267343Y0052011D01*
X0268195Y0052863D01*
X0268195Y0057503D01*
X0267343Y0058355D01*
X0267343Y0058355D01*
X0265767Y0059931D01*
X0264915Y0060783D01*
X0246481Y0060783D01*
X0245276Y0060783D01*
X0244423Y0059931D01*
X0242848Y0058355D01*
X0241995Y0057503D01*
X0241995Y0052863D01*
X0242848Y0052011D01*
X0242848Y0052011D01*
X0241995Y0053965D02*
X0233195Y0053965D01*
X0232343Y0052011D02*
X0232343Y0052011D01*
X0233195Y0056364D02*
X0241995Y0056364D01*
X0242848Y0058355D02*
X0242848Y0058355D01*
X0243255Y0058762D02*
X0231936Y0058762D01*
X0244423Y0059931D02*
X0244423Y0059931D01*
X0244423Y0050436D02*
X0244423Y0050436D01*
X0266898Y0051567D02*
X0278858Y0051567D01*
X0277395Y0053965D02*
X0268195Y0053965D01*
X0267343Y0052011D02*
X0267343Y0052011D01*
X0268195Y0056364D02*
X0277395Y0056364D01*
X0278820Y0058762D02*
X0266936Y0058762D01*
X0265767Y0059931D02*
X0265767Y0059931D01*
X0282595Y0058762D02*
X0282595Y0058762D01*
X0282595Y0056364D02*
X0282595Y0056364D01*
X0282595Y0053965D02*
X0282595Y0053965D01*
X0282595Y0051567D02*
X0282595Y0051567D01*
X0262773Y0099537D02*
X0262417Y0099537D01*
X0262417Y0101935D02*
X0262773Y0101935D01*
X0262773Y0104334D02*
X0262417Y0104334D01*
X0262417Y0106732D02*
X0262773Y0106732D01*
X0258034Y0106732D02*
X0251882Y0106732D01*
X0251882Y0104334D02*
X0257639Y0104334D01*
X0246926Y0104334D02*
X0246926Y0104334D01*
X0246926Y0113923D02*
X0250666Y0117663D01*
X0262595Y0117663D01*
X0262595Y0125183D01*
X0258855Y0128923D01*
X0258855Y0140183D01*
X0241335Y0140183D01*
X0245598Y0145109D02*
X0254592Y0145109D01*
X0271094Y0142710D02*
X0283795Y0142710D01*
X0283795Y0140312D02*
X0271094Y0140312D01*
X0271094Y0137913D02*
X0283795Y0137913D01*
X0283795Y0135515D02*
X0270290Y0135515D01*
X0233855Y0140183D02*
X0232953Y0139281D01*
X0398586Y0224260D02*
X0405901Y0224260D01*
X0405901Y0226658D02*
X0401784Y0226658D01*
X0403490Y0229057D02*
X0405901Y0229057D01*
X0405901Y0231455D02*
X0404410Y0231455D01*
X0404764Y0233854D02*
X0405901Y0233854D01*
X0405901Y0236252D02*
X0404616Y0236252D01*
X0403934Y0238651D02*
X0405901Y0238651D01*
X0405901Y0241049D02*
X0402549Y0241049D01*
X0399918Y0243448D02*
X0405901Y0243448D01*
D31*
X0080595Y0080183D02*
X0080595Y0042183D01*
X0087595Y0035183D01*
X0177595Y0035183D01*
X0407595Y0035183D01*
X0413501Y0041089D01*
X0413501Y0149593D01*
X0391847Y0149593D02*
X0391847Y0164238D01*
X0390902Y0165183D01*
X0357595Y0165183D01*
X0337595Y0165183D02*
X0332595Y0160183D01*
X0332595Y0150183D01*
X0332595Y0135183D01*
X0332595Y0120183D01*
X0332595Y0085183D01*
X0332595Y0070183D01*
X0297595Y0070183D01*
X0289052Y0078726D01*
X0217635Y0078726D01*
X0080595Y0080183D02*
X0080595Y0095183D01*
X0080595Y0120183D01*
X0080595Y0245183D02*
X0080595Y0270183D01*
X0080595Y0275183D01*
X0077595Y0275183D01*
X0080595Y0275183D02*
X0080595Y0285183D01*
X0080595Y0322175D01*
X0087595Y0329175D01*
X0177595Y0329175D01*
X0402595Y0329175D01*
X0413501Y0318270D01*
X0413501Y0215734D01*
X0391847Y0215734D02*
X0391847Y0201167D01*
X0390863Y0200183D01*
X0357595Y0200183D01*
X0337595Y0200183D02*
X0332595Y0205183D01*
X0332595Y0215183D01*
X0332595Y0230183D01*
X0332595Y0245183D01*
X0332595Y0260183D01*
X0332595Y0265183D01*
X0332595Y0295183D01*
X0297595Y0295183D01*
X0289012Y0286600D01*
X0217635Y0286600D01*
X0390863Y0200183D02*
X0391847Y0199199D01*
X0391847Y0166128D02*
X0390902Y0165183D01*
D32*
X0330823Y0243411D02*
X0332595Y0245183D01*
X0331375Y0258963D02*
X0332595Y0260183D01*
X0332595Y0265183D02*
X0357595Y0265183D01*
X0358501Y0266089D01*
X0358501Y0271364D01*
X0357595Y0265183D02*
X0367595Y0265183D01*
X0368461Y0266049D01*
X0368461Y0271364D01*
X0177792Y0328978D02*
X0177595Y0329175D01*
X0070095Y0275183D02*
X0070095Y0263923D01*
X0060095Y0263923D02*
X0060095Y0275183D01*
X0048875Y0251404D02*
X0042595Y0251404D01*
X0048875Y0251404D02*
X0074426Y0225852D01*
X0098855Y0225852D01*
X0098855Y0218923D01*
X0102595Y0215183D01*
X0115115Y0215183D01*
X0112595Y0144514D02*
X0089426Y0144514D01*
X0080595Y0135683D01*
X0080595Y0120183D01*
X0072595Y0122683D02*
X0072595Y0128943D01*
X0065095Y0128943D02*
X0065095Y0125183D01*
X0070095Y0120183D01*
X0072595Y0122683D01*
X0097595Y0132683D02*
X0108855Y0132683D01*
X0108855Y0135852D01*
X0090115Y0095183D02*
X0080595Y0095183D01*
D33*
X0077595Y0120183D02*
X0070095Y0120183D01*
X0046595Y0120183D01*
X0044095Y0117683D01*
X0044095Y0145104D02*
X0052516Y0145104D01*
X0080095Y0172683D01*
X0205568Y0172683D01*
X0217635Y0160616D01*
X0205607Y0192683D02*
X0080095Y0192683D01*
X0072556Y0200222D01*
X0044095Y0200222D01*
X0044095Y0275183D02*
X0060095Y0275183D01*
X0070095Y0275183D01*
X0077595Y0275183D01*
X0205607Y0192683D02*
X0217635Y0204711D01*
D34*
X0207595Y0210793D02*
X0201985Y0205183D01*
X0137595Y0205183D01*
X0132595Y0210183D01*
X0132595Y0290183D01*
X0137595Y0295183D01*
X0202495Y0295183D01*
X0202495Y0279169D01*
X0203272Y0277294D01*
X0206489Y0274077D01*
X0202595Y0270183D01*
X0187595Y0270183D01*
X0182595Y0265183D01*
X0182595Y0235183D01*
X0187595Y0230183D01*
X0202595Y0230183D01*
X0207595Y0225183D01*
X0207595Y0210793D01*
X0206930Y0210128D02*
X0132650Y0210128D01*
X0132595Y0215127D02*
X0207595Y0215127D01*
X0207595Y0220125D02*
X0132595Y0220125D01*
X0132595Y0225124D02*
X0207595Y0225124D01*
X0202656Y0230122D02*
X0132595Y0230122D01*
X0132595Y0235121D02*
X0182658Y0235121D01*
X0182595Y0240119D02*
X0132595Y0240119D01*
X0132595Y0245118D02*
X0182595Y0245118D01*
X0182595Y0250116D02*
X0132595Y0250116D01*
X0132595Y0255115D02*
X0182595Y0255115D01*
X0182595Y0250183D02*
X0177595Y0250183D01*
X0182595Y0250183D02*
X0194796Y0250183D01*
X0182595Y0260113D02*
X0132595Y0260113D01*
X0132595Y0265112D02*
X0182595Y0265112D01*
X0187522Y0270110D02*
X0132595Y0270110D01*
X0132595Y0275109D02*
X0205457Y0275109D01*
X0202495Y0280107D02*
X0132595Y0280107D01*
X0132595Y0285106D02*
X0202495Y0285106D01*
X0202495Y0290104D02*
X0132595Y0290104D01*
X0137515Y0295103D02*
X0202495Y0295103D01*
X0044095Y0275183D02*
X0044095Y0271404D01*
X0042595Y0271404D01*
X0137595Y0160183D02*
X0201946Y0160183D01*
X0207595Y0154533D01*
X0207595Y0140183D01*
X0202595Y0135183D01*
X0187595Y0135183D01*
X0182595Y0130183D01*
X0182595Y0100183D01*
X0187595Y0095183D01*
X0202595Y0095183D01*
X0206489Y0091289D01*
X0204706Y0089507D01*
X0203272Y0088072D01*
X0202495Y0086198D01*
X0202495Y0070183D01*
X0137595Y0070183D01*
X0132595Y0075183D01*
X0132595Y0155183D01*
X0137595Y0160183D01*
X0137555Y0160143D02*
X0201986Y0160143D01*
X0206984Y0155144D02*
X0132595Y0155144D01*
X0132595Y0150146D02*
X0207595Y0150146D01*
X0207595Y0145147D02*
X0132595Y0145147D01*
X0132595Y0140149D02*
X0207561Y0140149D01*
X0187562Y0135150D02*
X0132595Y0135150D01*
X0132595Y0130152D02*
X0182595Y0130152D01*
X0182595Y0125153D02*
X0132595Y0125153D01*
X0132595Y0120155D02*
X0182595Y0120155D01*
X0182595Y0115183D02*
X0177595Y0115183D01*
X0172595Y0115183D01*
X0170394Y0115183D01*
X0182595Y0115156D02*
X0132595Y0115156D01*
X0132595Y0110158D02*
X0182595Y0110158D01*
X0185095Y0115183D02*
X0194796Y0115183D01*
X0182595Y0105159D02*
X0132595Y0105159D01*
X0132595Y0100161D02*
X0182617Y0100161D01*
X0202616Y0095162D02*
X0132595Y0095162D01*
X0132595Y0090164D02*
X0205363Y0090164D01*
X0202495Y0085165D02*
X0132595Y0085165D01*
X0132595Y0080167D02*
X0202495Y0080167D01*
X0202495Y0075168D02*
X0132610Y0075168D01*
X0044095Y0145104D02*
X0042595Y0145104D01*
D35*
X0347595Y0320183D02*
X0392595Y0320183D01*
X0402595Y0310183D01*
X0402595Y0275183D01*
X0400095Y0272683D01*
X0392595Y0272683D01*
X0382595Y0277683D02*
X0382595Y0255183D01*
X0377595Y0250183D01*
X0377595Y0245183D01*
X0376257Y0245183D01*
X0376060Y0245380D01*
X0377595Y0245183D02*
X0377595Y0235183D01*
X0377359Y0234947D01*
X0376060Y0234947D01*
X0377595Y0235183D02*
X0377595Y0230183D01*
X0391847Y0215931D01*
X0391847Y0215734D01*
X0373534Y0271364D02*
X0368461Y0271364D01*
X0373534Y0271364D02*
X0377353Y0275183D01*
X0377353Y0287441D01*
X0392595Y0302683D01*
X0392595Y0287683D02*
X0382595Y0277683D01*
M02*
