G75*
%MOIN*%
%OFA0B0*%
%FSLAX25Y25*%
%IPPOS*%
%LPD*%
%AMOC8*
5,1,8,0,0,1.08239X$1,22.5*
%
%ADD10R,0.08268X0.08268*%
%ADD11C,0.05150*%
%ADD12C,0.08858*%
%ADD13C,0.06000*%
%ADD14OC8,0.05200*%
%ADD15C,0.05200*%
%ADD16OC8,0.06300*%
%ADD17C,0.06300*%
%ADD18OC8,0.06000*%
%ADD19R,0.05543X0.05543*%
%ADD20C,0.05543*%
%ADD21OC8,0.02978*%
%ADD22C,0.02978*%
%ADD23C,0.02400*%
%ADD24C,0.10000*%
%ADD25C,0.15000*%
%ADD26C,0.05000*%
%ADD27C,0.03200*%
D10*
X0391847Y0149593D03*
X0391847Y0166128D03*
X0391847Y0182663D03*
X0391847Y0199199D03*
X0391847Y0215734D03*
X0413501Y0215734D03*
X0413501Y0199199D03*
X0413501Y0182663D03*
X0413501Y0166128D03*
X0413501Y0149593D03*
D11*
X0177595Y0055183D03*
X0117595Y0055183D03*
X0117595Y0310183D03*
X0177595Y0310183D03*
D12*
X0217635Y0286600D03*
X0217635Y0204711D03*
X0217635Y0160616D03*
X0217635Y0078726D03*
D13*
X0050149Y0105183D02*
X0048889Y0103923D01*
X0042595Y0103923D01*
X0045595Y0103923D02*
X0039595Y0103923D01*
X0039595Y0093923D02*
X0045595Y0093923D01*
X0045595Y0113923D02*
X0039595Y0113923D01*
X0039595Y0145104D02*
X0045595Y0145104D01*
X0044095Y0145104D02*
X0042595Y0145104D01*
X0045595Y0165104D02*
X0039595Y0165104D01*
X0039595Y0200222D02*
X0045595Y0200222D01*
X0044095Y0200222D02*
X0042595Y0200222D01*
X0045595Y0220222D02*
X0039595Y0220222D01*
X0039595Y0251404D02*
X0045595Y0251404D01*
X0050109Y0260183D02*
X0048889Y0261404D01*
X0042595Y0261404D01*
X0045595Y0261404D02*
X0039595Y0261404D01*
X0039595Y0271404D02*
X0045595Y0271404D01*
X0042595Y0271404D02*
X0042595Y0275183D01*
X0044095Y0275183D01*
X0079375Y0271404D02*
X0080595Y0270183D01*
D14*
X0352595Y0245183D03*
X0352595Y0295183D03*
X0352595Y0120183D03*
X0352595Y0070183D03*
D15*
X0332595Y0070183D03*
X0332595Y0120183D03*
X0332595Y0245183D03*
X0332595Y0295183D03*
D16*
X0094595Y0285183D03*
X0094595Y0245183D03*
X0094595Y0120183D03*
X0094595Y0080183D03*
D17*
X0080595Y0080183D03*
X0080595Y0120183D03*
X0080595Y0245183D03*
X0080595Y0285183D03*
D18*
X0227595Y0310183D03*
X0247595Y0310183D03*
X0262595Y0310183D03*
X0282595Y0310183D03*
X0337595Y0200183D03*
X0357595Y0200183D03*
X0357595Y0165183D03*
X0337595Y0165183D03*
X0282595Y0055183D03*
X0262595Y0055183D03*
X0247595Y0055183D03*
X0227595Y0055183D03*
D19*
X0392595Y0062683D03*
X0392595Y0257683D03*
D20*
X0392595Y0272683D03*
X0392595Y0287683D03*
X0392595Y0302683D03*
X0392595Y0107683D03*
X0392595Y0092683D03*
X0392595Y0077683D03*
D21*
X0182595Y0240183D03*
X0182595Y0245183D03*
X0177595Y0245183D03*
X0172595Y0245183D03*
X0167595Y0245183D03*
X0162595Y0245183D03*
X0157595Y0245183D03*
X0157595Y0240183D03*
X0162595Y0240183D03*
X0167595Y0240183D03*
X0172595Y0240183D03*
X0177595Y0240183D03*
X0177595Y0235183D03*
X0172595Y0235183D03*
X0167595Y0235183D03*
X0162595Y0235183D03*
X0157595Y0235183D03*
X0157595Y0250183D03*
X0157595Y0255183D03*
X0162595Y0255183D03*
X0162595Y0250183D03*
X0167595Y0250183D03*
X0167595Y0255183D03*
X0172595Y0255183D03*
X0172595Y0250183D03*
X0177595Y0250183D03*
X0177595Y0255183D03*
X0177595Y0260183D03*
X0172595Y0260183D03*
X0167595Y0260183D03*
X0162595Y0260183D03*
X0157595Y0260183D03*
X0157595Y0265183D03*
X0162595Y0265183D03*
X0167595Y0265183D03*
X0172595Y0265183D03*
X0177595Y0265183D03*
X0182595Y0260183D03*
X0182595Y0255183D03*
X0182595Y0250183D03*
X0080095Y0232683D03*
D22*
X0090095Y0217683D03*
X0090095Y0210183D03*
X0052595Y0167683D03*
X0052595Y0162683D03*
X0070095Y0145183D03*
X0097595Y0132683D03*
X0157595Y0130183D03*
X0162595Y0130183D03*
X0167595Y0130183D03*
X0172595Y0130183D03*
X0177595Y0130183D03*
X0177595Y0125183D03*
X0172595Y0125183D03*
X0167595Y0125183D03*
X0162595Y0125183D03*
X0157595Y0125183D03*
X0157595Y0120183D03*
X0162595Y0120183D03*
X0167595Y0120183D03*
X0172595Y0120183D03*
X0177595Y0120183D03*
X0177595Y0115183D03*
X0172595Y0115183D03*
X0167595Y0115183D03*
X0162595Y0115183D03*
X0157595Y0115183D03*
X0157595Y0110183D03*
X0162595Y0110183D03*
X0167595Y0110183D03*
X0172595Y0110183D03*
X0177595Y0110183D03*
X0177595Y0105183D03*
X0172595Y0105183D03*
X0167595Y0105183D03*
X0162595Y0105183D03*
X0157595Y0105183D03*
X0157595Y0100183D03*
X0162595Y0100183D03*
X0167595Y0100183D03*
X0172595Y0100183D03*
X0177595Y0100183D03*
X0182595Y0105183D03*
X0182595Y0110183D03*
X0182595Y0115183D03*
X0182595Y0120183D03*
X0182595Y0125183D03*
X0277595Y0140183D03*
X0277595Y0105183D03*
D23*
X0290564Y0086326D02*
X0216123Y0086326D01*
X0213329Y0085169D01*
X0212695Y0084535D01*
X0212695Y0155615D01*
X0213653Y0154657D01*
X0216236Y0153587D01*
X0219033Y0153587D01*
X0221616Y0154657D01*
X0223594Y0156634D01*
X0224664Y0159218D01*
X0224664Y0162014D01*
X0223594Y0164598D01*
X0221616Y0166575D01*
X0219033Y0167645D01*
X0216236Y0167645D01*
X0213653Y0166575D01*
X0211675Y0164598D01*
X0210605Y0162014D01*
X0210605Y0159385D01*
X0210484Y0159507D01*
X0208610Y0160283D01*
X0131581Y0160283D01*
X0129706Y0159507D01*
X0128272Y0158072D01*
X0127495Y0156198D01*
X0127495Y0074169D01*
X0128272Y0072294D01*
X0129706Y0070859D01*
X0131581Y0070083D01*
X0208610Y0070083D01*
X0210484Y0070859D01*
X0211919Y0072294D01*
X0212329Y0073284D01*
X0213329Y0072283D01*
X0216123Y0071126D01*
X0285904Y0071126D01*
X0291152Y0065878D01*
X0293290Y0063740D01*
X0296083Y0062583D01*
X0334107Y0062583D01*
X0336900Y0063740D01*
X0339038Y0065878D01*
X0340195Y0068671D01*
X0340195Y0157035D01*
X0344038Y0160878D01*
X0345195Y0163671D01*
X0345195Y0166695D01*
X0344038Y0169488D01*
X0341900Y0171626D01*
X0339107Y0172783D01*
X0336083Y0172783D01*
X0333290Y0171626D01*
X0328290Y0166626D01*
X0326152Y0164488D01*
X0324995Y0161695D01*
X0324995Y0077783D01*
X0300743Y0077783D01*
X0293357Y0085169D01*
X0290564Y0086326D01*
X0293380Y0085146D02*
X0324995Y0085146D01*
X0324995Y0087544D02*
X0212695Y0087544D01*
X0212695Y0085146D02*
X0213306Y0085146D01*
X0212695Y0089943D02*
X0324995Y0089943D01*
X0324995Y0092341D02*
X0212695Y0092341D01*
X0212695Y0094740D02*
X0324995Y0094740D01*
X0324995Y0097138D02*
X0212695Y0097138D01*
X0212695Y0099537D02*
X0324995Y0099537D01*
X0324995Y0101935D02*
X0212695Y0101935D01*
X0212695Y0104334D02*
X0324995Y0104334D01*
X0324995Y0106732D02*
X0212695Y0106732D01*
X0212695Y0109131D02*
X0324995Y0109131D01*
X0324995Y0111529D02*
X0212695Y0111529D01*
X0212695Y0113928D02*
X0324995Y0113928D01*
X0324995Y0116327D02*
X0212695Y0116327D01*
X0212695Y0118725D02*
X0324995Y0118725D01*
X0324995Y0121124D02*
X0212695Y0121124D01*
X0212695Y0123522D02*
X0324995Y0123522D01*
X0324995Y0125921D02*
X0212695Y0125921D01*
X0212695Y0128319D02*
X0324995Y0128319D01*
X0324995Y0130718D02*
X0212695Y0130718D01*
X0212695Y0133116D02*
X0324995Y0133116D01*
X0324995Y0135515D02*
X0212695Y0135515D01*
X0212695Y0137913D02*
X0324995Y0137913D01*
X0324995Y0140312D02*
X0212695Y0140312D01*
X0212695Y0142710D02*
X0324995Y0142710D01*
X0324995Y0145109D02*
X0212695Y0145109D01*
X0212695Y0147507D02*
X0324995Y0147507D01*
X0324995Y0149906D02*
X0212695Y0149906D01*
X0212695Y0152304D02*
X0324995Y0152304D01*
X0324995Y0154703D02*
X0221662Y0154703D01*
X0223787Y0157101D02*
X0324995Y0157101D01*
X0324995Y0159500D02*
X0224664Y0159500D01*
X0224664Y0161898D02*
X0325079Y0161898D01*
X0326073Y0164297D02*
X0223718Y0164297D01*
X0221326Y0166695D02*
X0328359Y0166695D01*
X0330758Y0169094D02*
X0048951Y0169094D01*
X0048983Y0169071D02*
X0048321Y0169552D01*
X0047591Y0169923D01*
X0046813Y0170176D01*
X0046004Y0170304D01*
X0042595Y0170304D01*
X0039186Y0170304D01*
X0038377Y0170176D01*
X0037795Y0169987D01*
X0037795Y0192239D01*
X0037894Y0192140D01*
X0040197Y0190811D01*
X0042765Y0190122D01*
X0053964Y0190122D01*
X0056533Y0190811D01*
X0058836Y0192140D01*
X0060717Y0194021D01*
X0068797Y0202101D01*
X0070677Y0203982D01*
X0072007Y0206285D01*
X0072695Y0208853D01*
X0072695Y0259013D01*
X0072007Y0261582D01*
X0070677Y0263885D01*
X0069479Y0265083D01*
X0072995Y0265083D01*
X0072995Y0243671D01*
X0074152Y0240878D01*
X0076290Y0238740D01*
X0079083Y0237583D01*
X0082107Y0237583D01*
X0084900Y0238740D01*
X0087038Y0240878D01*
X0088195Y0243671D01*
X0088195Y0319027D01*
X0090743Y0321575D01*
X0399447Y0321575D01*
X0405901Y0315122D01*
X0405901Y0214223D01*
X0406767Y0212131D01*
X0406767Y0211083D01*
X0407163Y0210128D01*
X0407894Y0209396D01*
X0408850Y0209000D01*
X0409898Y0209000D01*
X0411989Y0208134D01*
X0415012Y0208134D01*
X0417103Y0209000D01*
X0418152Y0209000D01*
X0419107Y0209396D01*
X0419127Y0209416D01*
X0419127Y0204951D01*
X0418985Y0205093D01*
X0418484Y0205383D01*
X0417924Y0205533D01*
X0413679Y0205533D01*
X0413679Y0199377D01*
X0413323Y0199377D01*
X0413323Y0205533D01*
X0409077Y0205533D01*
X0408518Y0205383D01*
X0408016Y0205093D01*
X0407606Y0204684D01*
X0407317Y0204182D01*
X0407167Y0203622D01*
X0407167Y0199377D01*
X0413323Y0199377D01*
X0413323Y0199021D01*
X0413679Y0199021D01*
X0413679Y0192865D01*
X0417924Y0192865D01*
X0418484Y0193015D01*
X0418985Y0193305D01*
X0419127Y0193447D01*
X0419127Y0188416D01*
X0418985Y0188558D01*
X0418484Y0188847D01*
X0417924Y0188997D01*
X0413679Y0188997D01*
X0413679Y0182841D01*
X0413323Y0182841D01*
X0413323Y0182485D01*
X0413679Y0182485D01*
X0413679Y0176330D01*
X0417924Y0176330D01*
X0418484Y0176479D01*
X0418985Y0176769D01*
X0419127Y0176911D01*
X0419127Y0171880D01*
X0418985Y0172022D01*
X0418484Y0172312D01*
X0417924Y0172462D01*
X0413679Y0172462D01*
X0413679Y0166306D01*
X0413323Y0166306D01*
X0413323Y0172462D01*
X0409077Y0172462D01*
X0408518Y0172312D01*
X0408016Y0172022D01*
X0407606Y0171613D01*
X0407317Y0171111D01*
X0407167Y0170551D01*
X0407167Y0166306D01*
X0413323Y0166306D01*
X0413323Y0165950D01*
X0413679Y0165950D01*
X0413679Y0159794D01*
X0417924Y0159794D01*
X0418484Y0159944D01*
X0418985Y0160234D01*
X0419127Y0160376D01*
X0419127Y0155910D01*
X0419107Y0155931D01*
X0418152Y0156326D01*
X0417103Y0156326D01*
X0415012Y0157193D01*
X0411989Y0157193D01*
X0409898Y0156326D01*
X0408850Y0156326D01*
X0407894Y0155931D01*
X0407163Y0155199D01*
X0406767Y0154244D01*
X0406767Y0153195D01*
X0405901Y0151104D01*
X0405901Y0044237D01*
X0404447Y0042783D01*
X0090743Y0042783D01*
X0088195Y0045331D01*
X0088195Y0121695D01*
X0087038Y0124488D01*
X0084900Y0126626D01*
X0082107Y0127783D01*
X0081135Y0127783D01*
X0081835Y0128483D01*
X0098431Y0128483D01*
X0099974Y0129122D01*
X0101156Y0130304D01*
X0101795Y0131848D01*
X0101795Y0133519D01*
X0101156Y0135062D01*
X0099974Y0136244D01*
X0098431Y0136883D01*
X0079260Y0136883D01*
X0077716Y0136244D01*
X0076535Y0135062D01*
X0070195Y0128723D01*
X0070195Y0136513D01*
X0069507Y0139082D01*
X0068177Y0141385D01*
X0066297Y0143265D01*
X0058256Y0151306D01*
X0056375Y0153186D01*
X0054072Y0154516D01*
X0051504Y0155204D01*
X0042765Y0155204D01*
X0040197Y0154516D01*
X0037894Y0153186D01*
X0037795Y0153088D01*
X0037795Y0160222D01*
X0038377Y0160032D01*
X0039186Y0159904D01*
X0042595Y0159904D01*
X0042595Y0165104D01*
X0042595Y0165104D01*
X0042595Y0159904D01*
X0046004Y0159904D01*
X0046813Y0160032D01*
X0047591Y0160285D01*
X0048321Y0160657D01*
X0048983Y0161138D01*
X0049561Y0161717D01*
X0050043Y0162379D01*
X0050414Y0163108D01*
X0050667Y0163887D01*
X0050795Y0164695D01*
X0050795Y0165104D01*
X0042595Y0165104D01*
X0042595Y0165104D01*
X0042595Y0170304D01*
X0042595Y0165104D01*
X0042595Y0165104D01*
X0050795Y0165104D01*
X0050795Y0165514D01*
X0050667Y0166322D01*
X0050414Y0167100D01*
X0050043Y0167830D01*
X0049561Y0168492D01*
X0048983Y0169071D01*
X0050546Y0166695D02*
X0213943Y0166695D01*
X0211551Y0164297D02*
X0050732Y0164297D01*
X0049693Y0161898D02*
X0210605Y0161898D01*
X0210605Y0159500D02*
X0210491Y0159500D01*
X0212695Y0154703D02*
X0213607Y0154703D01*
X0216236Y0197681D02*
X0219033Y0197681D01*
X0221616Y0198752D01*
X0223594Y0200729D01*
X0224664Y0203312D01*
X0224664Y0206109D01*
X0223594Y0208692D01*
X0221616Y0210670D01*
X0219033Y0211740D01*
X0216236Y0211740D01*
X0213653Y0210670D01*
X0212695Y0209712D01*
X0212695Y0280792D01*
X0213329Y0280157D01*
X0216123Y0279000D01*
X0290524Y0279000D01*
X0293318Y0280157D01*
X0300743Y0287583D01*
X0324995Y0287583D01*
X0324995Y0246695D01*
X0324995Y0203671D01*
X0326152Y0200878D01*
X0333290Y0193740D01*
X0336083Y0192583D01*
X0339107Y0192583D01*
X0341900Y0193740D01*
X0344038Y0195878D01*
X0345195Y0198671D01*
X0345195Y0201695D01*
X0344038Y0204488D01*
X0340195Y0208331D01*
X0340195Y0296695D01*
X0339038Y0299488D01*
X0336900Y0301626D01*
X0334107Y0302783D01*
X0296083Y0302783D01*
X0293290Y0301626D01*
X0291152Y0299488D01*
X0285864Y0294200D01*
X0216123Y0294200D01*
X0213329Y0293043D01*
X0212340Y0292054D01*
X0211919Y0293072D01*
X0210484Y0294507D01*
X0208610Y0295283D01*
X0131581Y0295283D01*
X0129706Y0294507D01*
X0128272Y0293072D01*
X0127495Y0291198D01*
X0127495Y0209169D01*
X0128272Y0207294D01*
X0129706Y0205859D01*
X0131581Y0205083D01*
X0208610Y0205083D01*
X0210484Y0205859D01*
X0210605Y0205981D01*
X0210605Y0203312D01*
X0211675Y0200729D01*
X0213653Y0198752D01*
X0216236Y0197681D01*
X0215767Y0197876D02*
X0064572Y0197876D01*
X0066970Y0200274D02*
X0212130Y0200274D01*
X0210870Y0202673D02*
X0069369Y0202673D01*
X0071306Y0205071D02*
X0210605Y0205071D01*
X0212695Y0209868D02*
X0212852Y0209868D01*
X0212695Y0212267D02*
X0324995Y0212267D01*
X0324995Y0214665D02*
X0212695Y0214665D01*
X0212695Y0217064D02*
X0324995Y0217064D01*
X0324995Y0219462D02*
X0212695Y0219462D01*
X0212695Y0221861D02*
X0324995Y0221861D01*
X0324995Y0224260D02*
X0212695Y0224260D01*
X0212695Y0226658D02*
X0324995Y0226658D01*
X0324995Y0229057D02*
X0212695Y0229057D01*
X0212695Y0231455D02*
X0324995Y0231455D01*
X0324995Y0233854D02*
X0212695Y0233854D01*
X0212695Y0236252D02*
X0324995Y0236252D01*
X0324995Y0238651D02*
X0212695Y0238651D01*
X0212695Y0241049D02*
X0324995Y0241049D01*
X0324995Y0243448D02*
X0212695Y0243448D01*
X0212695Y0245846D02*
X0324995Y0245846D01*
X0324995Y0248245D02*
X0212695Y0248245D01*
X0212695Y0250643D02*
X0324995Y0250643D01*
X0324995Y0253042D02*
X0212695Y0253042D01*
X0212695Y0255440D02*
X0324995Y0255440D01*
X0324995Y0257839D02*
X0212695Y0257839D01*
X0212695Y0260237D02*
X0324995Y0260237D01*
X0324995Y0262636D02*
X0212695Y0262636D01*
X0212695Y0265034D02*
X0324995Y0265034D01*
X0324995Y0267433D02*
X0212695Y0267433D01*
X0212695Y0269831D02*
X0324995Y0269831D01*
X0324995Y0272230D02*
X0212695Y0272230D01*
X0212695Y0274628D02*
X0324995Y0274628D01*
X0324995Y0277027D02*
X0212695Y0277027D01*
X0212695Y0279425D02*
X0215097Y0279425D01*
X0215196Y0293816D02*
X0211174Y0293816D01*
X0224050Y0305809D02*
X0180539Y0305809D01*
X0180526Y0305796D02*
X0181982Y0307252D01*
X0182770Y0309154D01*
X0182770Y0311212D01*
X0181982Y0313114D01*
X0180526Y0314570D01*
X0178624Y0315358D01*
X0176566Y0315358D01*
X0174664Y0314570D01*
X0173208Y0313114D01*
X0172420Y0311212D01*
X0172420Y0309154D01*
X0173208Y0307252D01*
X0174664Y0305796D01*
X0176566Y0305008D01*
X0178624Y0305008D01*
X0180526Y0305796D01*
X0182378Y0308207D02*
X0221995Y0308207D01*
X0221995Y0307863D02*
X0225276Y0304583D01*
X0229915Y0304583D01*
X0233195Y0307863D01*
X0233195Y0312503D01*
X0229915Y0315783D01*
X0225276Y0315783D01*
X0221995Y0312503D01*
X0221995Y0307863D01*
X0221995Y0310606D02*
X0182770Y0310606D01*
X0182028Y0313004D02*
X0222497Y0313004D01*
X0224895Y0315403D02*
X0088195Y0315403D01*
X0088195Y0317801D02*
X0403221Y0317801D01*
X0405619Y0315403D02*
X0265295Y0315403D01*
X0264915Y0315783D02*
X0260276Y0315783D01*
X0256995Y0312503D01*
X0256995Y0307863D01*
X0260276Y0304583D01*
X0264915Y0304583D01*
X0268195Y0307863D01*
X0268195Y0312503D01*
X0264915Y0315783D01*
X0267693Y0313004D02*
X0278063Y0313004D01*
X0277395Y0312337D02*
X0277395Y0310183D01*
X0277395Y0308029D01*
X0280441Y0304983D01*
X0282595Y0304983D01*
X0282595Y0310183D01*
X0277395Y0310183D01*
X0282595Y0310183D01*
X0282595Y0310183D01*
X0282595Y0310183D01*
X0282595Y0304983D01*
X0284749Y0304983D01*
X0287795Y0308029D01*
X0287795Y0310183D01*
X0282595Y0310183D01*
X0282595Y0315383D01*
X0280441Y0315383D01*
X0277395Y0312337D01*
X0277395Y0310606D02*
X0268195Y0310606D01*
X0268195Y0308207D02*
X0277395Y0308207D01*
X0279615Y0305809D02*
X0266141Y0305809D01*
X0259050Y0305809D02*
X0251141Y0305809D01*
X0249915Y0304583D02*
X0253195Y0307863D01*
X0253195Y0312503D01*
X0249915Y0315783D01*
X0245276Y0315783D01*
X0241995Y0312503D01*
X0241995Y0307863D01*
X0245276Y0304583D01*
X0249915Y0304583D01*
X0253195Y0308207D02*
X0256995Y0308207D01*
X0256995Y0310606D02*
X0253195Y0310606D01*
X0252693Y0313004D02*
X0257497Y0313004D01*
X0259895Y0315403D02*
X0250295Y0315403D01*
X0244895Y0315403D02*
X0230295Y0315403D01*
X0232693Y0313004D02*
X0242497Y0313004D01*
X0241995Y0310606D02*
X0233195Y0310606D01*
X0233195Y0308207D02*
X0241995Y0308207D01*
X0244050Y0305809D02*
X0231141Y0305809D01*
X0282595Y0305809D02*
X0282595Y0305809D01*
X0282595Y0308207D02*
X0282595Y0308207D01*
X0282595Y0310183D02*
X0282595Y0310183D01*
X0282595Y0310183D01*
X0282595Y0315383D01*
X0284749Y0315383D01*
X0287795Y0312337D01*
X0287795Y0310183D01*
X0282595Y0310183D01*
X0282595Y0310606D02*
X0282595Y0310606D01*
X0282595Y0313004D02*
X0282595Y0313004D01*
X0287128Y0313004D02*
X0405901Y0313004D01*
X0405901Y0310606D02*
X0287795Y0310606D01*
X0287795Y0308207D02*
X0405901Y0308207D01*
X0405901Y0305809D02*
X0397066Y0305809D01*
X0397149Y0305726D02*
X0395638Y0307237D01*
X0393664Y0308055D01*
X0391527Y0308055D01*
X0389552Y0307237D01*
X0388041Y0305726D01*
X0387223Y0303752D01*
X0387223Y0301615D01*
X0388041Y0299640D01*
X0389552Y0298129D01*
X0391527Y0297311D01*
X0393664Y0297311D01*
X0395638Y0298129D01*
X0397149Y0299640D01*
X0397967Y0301615D01*
X0397967Y0303752D01*
X0397149Y0305726D01*
X0397967Y0303410D02*
X0405901Y0303410D01*
X0405901Y0301012D02*
X0397717Y0301012D01*
X0396122Y0298613D02*
X0405901Y0298613D01*
X0405901Y0296215D02*
X0357395Y0296215D01*
X0357395Y0297171D02*
X0357395Y0295183D01*
X0352595Y0295183D01*
X0347795Y0295183D01*
X0347795Y0293195D01*
X0350607Y0290383D01*
X0352595Y0290383D01*
X0352595Y0295183D01*
X0352595Y0295183D01*
X0352595Y0295183D01*
X0347795Y0295183D01*
X0347795Y0297171D01*
X0350607Y0299983D01*
X0352595Y0299983D01*
X0352595Y0295183D01*
X0352595Y0290383D01*
X0354583Y0290383D01*
X0357395Y0293195D01*
X0357395Y0295183D01*
X0352595Y0295183D01*
X0352595Y0295183D01*
X0352595Y0295183D01*
X0352595Y0299983D01*
X0354583Y0299983D01*
X0357395Y0297171D01*
X0355953Y0298613D02*
X0389068Y0298613D01*
X0387473Y0301012D02*
X0337514Y0301012D01*
X0339400Y0298613D02*
X0349237Y0298613D01*
X0347795Y0296215D02*
X0340195Y0296215D01*
X0340195Y0293816D02*
X0347795Y0293816D01*
X0349572Y0291418D02*
X0340195Y0291418D01*
X0340195Y0289019D02*
X0387334Y0289019D01*
X0387223Y0288752D02*
X0387223Y0286615D01*
X0388041Y0284640D01*
X0389552Y0283129D01*
X0391527Y0282311D01*
X0393664Y0282311D01*
X0395638Y0283129D01*
X0397149Y0284640D01*
X0397967Y0286615D01*
X0397967Y0288752D01*
X0397149Y0290726D01*
X0395638Y0292237D01*
X0393664Y0293055D01*
X0391527Y0293055D01*
X0389552Y0292237D01*
X0388041Y0290726D01*
X0387223Y0288752D01*
X0387223Y0286621D02*
X0340195Y0286621D01*
X0340195Y0284222D02*
X0388459Y0284222D01*
X0391527Y0278055D02*
X0389552Y0277237D01*
X0388041Y0275726D01*
X0387223Y0273752D01*
X0387223Y0271615D01*
X0388041Y0269640D01*
X0389552Y0268129D01*
X0391527Y0267311D01*
X0393664Y0267311D01*
X0395638Y0268129D01*
X0397149Y0269640D01*
X0397967Y0271615D01*
X0397967Y0273752D01*
X0397149Y0275726D01*
X0395638Y0277237D01*
X0393664Y0278055D01*
X0391527Y0278055D01*
X0389342Y0277027D02*
X0340195Y0277027D01*
X0340195Y0279425D02*
X0405901Y0279425D01*
X0405901Y0277027D02*
X0395848Y0277027D01*
X0397604Y0274628D02*
X0405901Y0274628D01*
X0405901Y0272230D02*
X0397967Y0272230D01*
X0397228Y0269831D02*
X0405901Y0269831D01*
X0405901Y0267433D02*
X0393956Y0267433D01*
X0391234Y0267433D02*
X0340195Y0267433D01*
X0340195Y0269831D02*
X0387962Y0269831D01*
X0387223Y0272230D02*
X0340195Y0272230D01*
X0340195Y0274628D02*
X0387587Y0274628D01*
X0396731Y0284222D02*
X0405901Y0284222D01*
X0405901Y0281824D02*
X0340195Y0281824D01*
X0324995Y0281824D02*
X0294984Y0281824D01*
X0297382Y0284222D02*
X0324995Y0284222D01*
X0324995Y0286621D02*
X0299781Y0286621D01*
X0291550Y0279425D02*
X0324995Y0279425D01*
X0340195Y0265034D02*
X0405901Y0265034D01*
X0405901Y0262636D02*
X0395727Y0262636D01*
X0395656Y0262655D02*
X0392595Y0262655D01*
X0389534Y0262655D01*
X0388974Y0262505D01*
X0388473Y0262215D01*
X0388063Y0261806D01*
X0387773Y0261304D01*
X0387623Y0260744D01*
X0387623Y0257683D01*
X0387623Y0254622D01*
X0387773Y0254062D01*
X0388063Y0253561D01*
X0388473Y0253151D01*
X0388974Y0252861D01*
X0389534Y0252711D01*
X0392595Y0252711D01*
X0392595Y0257683D01*
X0387623Y0257683D01*
X0392595Y0257683D01*
X0392595Y0257683D01*
X0392595Y0257683D01*
X0392595Y0252711D01*
X0395656Y0252711D01*
X0396216Y0252861D01*
X0396718Y0253151D01*
X0397127Y0253561D01*
X0397417Y0254062D01*
X0397567Y0254622D01*
X0397567Y0257683D01*
X0392595Y0257683D01*
X0392595Y0262655D01*
X0392595Y0257683D01*
X0392595Y0257683D01*
X0392595Y0257683D01*
X0397567Y0257683D01*
X0397567Y0260744D01*
X0397417Y0261304D01*
X0397127Y0261806D01*
X0396718Y0262215D01*
X0396216Y0262505D01*
X0395656Y0262655D01*
X0392595Y0262636D02*
X0392595Y0262636D01*
X0392595Y0260237D02*
X0392595Y0260237D01*
X0392595Y0257839D02*
X0392595Y0257839D01*
X0392595Y0255440D02*
X0392595Y0255440D01*
X0392595Y0253042D02*
X0392595Y0253042D01*
X0388662Y0253042D02*
X0340195Y0253042D01*
X0340195Y0255440D02*
X0387623Y0255440D01*
X0387623Y0257839D02*
X0340195Y0257839D01*
X0340195Y0260237D02*
X0387623Y0260237D01*
X0389463Y0262636D02*
X0340195Y0262636D01*
X0340195Y0250643D02*
X0405901Y0250643D01*
X0405901Y0248245D02*
X0356322Y0248245D01*
X0357395Y0247171D02*
X0354583Y0249983D01*
X0352595Y0249983D01*
X0350607Y0249983D01*
X0347795Y0247171D01*
X0347795Y0245183D01*
X0347795Y0243195D01*
X0350607Y0240383D01*
X0352595Y0240383D01*
X0352595Y0245183D01*
X0347795Y0245183D01*
X0352595Y0245183D01*
X0352595Y0245183D01*
X0352595Y0245183D01*
X0352595Y0240383D01*
X0354583Y0240383D01*
X0357395Y0243195D01*
X0357395Y0245183D01*
X0352595Y0245183D01*
X0352595Y0249983D01*
X0352595Y0245183D01*
X0352595Y0245183D01*
X0352595Y0245183D01*
X0357395Y0245183D01*
X0357395Y0247171D01*
X0357395Y0245846D02*
X0405901Y0245846D01*
X0405901Y0243448D02*
X0399918Y0243448D01*
X0400477Y0243125D02*
X0397945Y0244587D01*
X0395120Y0245344D01*
X0392196Y0245344D01*
X0389372Y0244587D01*
X0386839Y0243125D01*
X0384772Y0241057D01*
X0383309Y0238525D01*
X0382553Y0235700D01*
X0382553Y0232776D01*
X0383309Y0229952D01*
X0384772Y0227419D01*
X0386839Y0225352D01*
X0389372Y0223889D01*
X0391444Y0223334D01*
X0390335Y0223334D01*
X0388244Y0222468D01*
X0387196Y0222468D01*
X0386240Y0222072D01*
X0385509Y0221341D01*
X0385113Y0220385D01*
X0385113Y0219337D01*
X0384247Y0217246D01*
X0384247Y0207783D01*
X0356083Y0207783D01*
X0353290Y0206626D01*
X0351152Y0204488D01*
X0349995Y0201695D01*
X0349995Y0198671D01*
X0351152Y0195878D01*
X0353290Y0193740D01*
X0356083Y0192583D01*
X0386911Y0192583D01*
X0387196Y0192465D01*
X0388244Y0192465D01*
X0390335Y0191599D01*
X0393359Y0191599D01*
X0395450Y0192465D01*
X0396498Y0192465D01*
X0397454Y0192861D01*
X0398185Y0193592D01*
X0398581Y0194548D01*
X0398581Y0195596D01*
X0399447Y0197687D01*
X0399447Y0217246D01*
X0398581Y0219337D01*
X0398581Y0220385D01*
X0398185Y0221341D01*
X0397454Y0222072D01*
X0396498Y0222468D01*
X0395450Y0222468D01*
X0393845Y0223133D01*
X0395120Y0223133D01*
X0397945Y0223889D01*
X0400477Y0225352D01*
X0402545Y0227419D01*
X0404007Y0229952D01*
X0404764Y0232776D01*
X0404764Y0235700D01*
X0404007Y0238525D01*
X0402545Y0241057D01*
X0400477Y0243125D01*
X0402549Y0241049D02*
X0405901Y0241049D01*
X0405901Y0238651D02*
X0403934Y0238651D01*
X0404616Y0236252D02*
X0405901Y0236252D01*
X0405901Y0233854D02*
X0404764Y0233854D01*
X0404410Y0231455D02*
X0405901Y0231455D01*
X0405901Y0229057D02*
X0403490Y0229057D01*
X0401784Y0226658D02*
X0405901Y0226658D01*
X0405901Y0224260D02*
X0398586Y0224260D01*
X0397665Y0221861D02*
X0405901Y0221861D01*
X0405901Y0219462D02*
X0398581Y0219462D01*
X0399447Y0217064D02*
X0405901Y0217064D01*
X0405901Y0214665D02*
X0399447Y0214665D01*
X0399447Y0212267D02*
X0406711Y0212267D01*
X0407422Y0209868D02*
X0399447Y0209868D01*
X0399447Y0207470D02*
X0419127Y0207470D01*
X0419127Y0205071D02*
X0419007Y0205071D01*
X0413679Y0205071D02*
X0413323Y0205071D01*
X0413323Y0202673D02*
X0413679Y0202673D01*
X0413679Y0200274D02*
X0413323Y0200274D01*
X0413323Y0199021D02*
X0407167Y0199021D01*
X0407167Y0194775D01*
X0407317Y0194216D01*
X0407606Y0193714D01*
X0408016Y0193305D01*
X0408518Y0193015D01*
X0409077Y0192865D01*
X0413323Y0192865D01*
X0413323Y0199021D01*
X0413323Y0197876D02*
X0413679Y0197876D01*
X0413679Y0195477D02*
X0413323Y0195477D01*
X0413323Y0193079D02*
X0413679Y0193079D01*
X0413323Y0188997D02*
X0409077Y0188997D01*
X0408518Y0188847D01*
X0408016Y0188558D01*
X0407606Y0188148D01*
X0407317Y0187646D01*
X0407167Y0187087D01*
X0407167Y0182841D01*
X0413323Y0182841D01*
X0413323Y0188997D01*
X0413323Y0188282D02*
X0413679Y0188282D01*
X0413679Y0185883D02*
X0413323Y0185883D01*
X0413323Y0183485D02*
X0413679Y0183485D01*
X0413323Y0182485D02*
X0407167Y0182485D01*
X0407167Y0178240D01*
X0407317Y0177680D01*
X0407606Y0177179D01*
X0408016Y0176769D01*
X0408518Y0176479D01*
X0409077Y0176330D01*
X0413323Y0176330D01*
X0413323Y0182485D01*
X0413323Y0181086D02*
X0413679Y0181086D01*
X0413679Y0178688D02*
X0413323Y0178688D01*
X0419127Y0176289D02*
X0286288Y0176289D01*
X0285891Y0175603D02*
X0283750Y0173462D01*
X0281128Y0171948D01*
X0278204Y0171164D01*
X0275176Y0171164D01*
X0272251Y0171948D01*
X0269629Y0173462D01*
X0267488Y0175603D01*
X0265974Y0178225D01*
X0265190Y0181149D01*
X0265190Y0184177D01*
X0265974Y0187102D01*
X0267488Y0189724D01*
X0269629Y0191865D01*
X0272251Y0193379D01*
X0275176Y0194163D01*
X0278204Y0194163D01*
X0281128Y0193379D01*
X0283750Y0191865D01*
X0285891Y0189724D01*
X0287405Y0187102D01*
X0288189Y0184177D01*
X0288189Y0181149D01*
X0287405Y0178225D01*
X0285891Y0175603D01*
X0284179Y0173891D02*
X0419127Y0173891D01*
X0413679Y0171492D02*
X0413323Y0171492D01*
X0413323Y0169094D02*
X0413679Y0169094D01*
X0413679Y0166695D02*
X0413323Y0166695D01*
X0413323Y0165950D02*
X0407167Y0165950D01*
X0407167Y0161704D01*
X0407317Y0161145D01*
X0407606Y0160643D01*
X0408016Y0160234D01*
X0408518Y0159944D01*
X0409077Y0159794D01*
X0413323Y0159794D01*
X0413323Y0165950D01*
X0413323Y0164297D02*
X0413679Y0164297D01*
X0413679Y0161898D02*
X0413323Y0161898D01*
X0411768Y0157101D02*
X0399447Y0157101D01*
X0399447Y0154703D02*
X0406957Y0154703D01*
X0406398Y0152304D02*
X0399447Y0152304D01*
X0399447Y0149906D02*
X0405901Y0149906D01*
X0405901Y0147507D02*
X0399209Y0147507D01*
X0399447Y0148081D02*
X0399447Y0167640D01*
X0398581Y0169731D01*
X0398581Y0170779D01*
X0398185Y0171735D01*
X0397454Y0172466D01*
X0396498Y0172862D01*
X0395450Y0172862D01*
X0393359Y0173728D01*
X0390335Y0173728D01*
X0388244Y0172862D01*
X0387196Y0172862D01*
X0387006Y0172783D01*
X0356083Y0172783D01*
X0353290Y0171626D01*
X0351152Y0169488D01*
X0349995Y0166695D01*
X0349995Y0163671D01*
X0351152Y0160878D01*
X0353290Y0158740D01*
X0356083Y0157583D01*
X0384247Y0157583D01*
X0384247Y0148081D01*
X0385113Y0145990D01*
X0385113Y0144941D01*
X0385509Y0143986D01*
X0386240Y0143254D01*
X0387196Y0142859D01*
X0388244Y0142859D01*
X0390335Y0141993D01*
X0391444Y0141993D01*
X0389372Y0141437D01*
X0386839Y0139975D01*
X0384772Y0137908D01*
X0383309Y0135375D01*
X0382553Y0132551D01*
X0382553Y0129627D01*
X0383309Y0126802D01*
X0384772Y0124270D01*
X0386839Y0122202D01*
X0389372Y0120740D01*
X0392196Y0119983D01*
X0395120Y0119983D01*
X0397945Y0120740D01*
X0400477Y0122202D01*
X0402545Y0124270D01*
X0404007Y0126802D01*
X0404764Y0129627D01*
X0404764Y0132551D01*
X0404007Y0135375D01*
X0402545Y0137908D01*
X0400477Y0139975D01*
X0397945Y0141437D01*
X0395120Y0142194D01*
X0393845Y0142194D01*
X0395450Y0142859D01*
X0396498Y0142859D01*
X0397454Y0143254D01*
X0398185Y0143986D01*
X0398581Y0144941D01*
X0398581Y0145990D01*
X0399447Y0148081D01*
X0398581Y0145109D02*
X0405901Y0145109D01*
X0405901Y0142710D02*
X0395091Y0142710D01*
X0399894Y0140312D02*
X0405901Y0140312D01*
X0405901Y0137913D02*
X0402539Y0137913D01*
X0403926Y0135515D02*
X0405901Y0135515D01*
X0405901Y0133116D02*
X0404612Y0133116D01*
X0404764Y0130718D02*
X0405901Y0130718D01*
X0405901Y0128319D02*
X0404413Y0128319D01*
X0403498Y0125921D02*
X0405901Y0125921D01*
X0405901Y0123522D02*
X0401797Y0123522D01*
X0398609Y0121124D02*
X0405901Y0121124D01*
X0405901Y0118725D02*
X0357395Y0118725D01*
X0357395Y0118195D02*
X0357395Y0120183D01*
X0352595Y0120183D01*
X0347795Y0120183D01*
X0347795Y0118195D01*
X0350607Y0115383D01*
X0352595Y0115383D01*
X0352595Y0120183D01*
X0352595Y0120183D01*
X0352595Y0120183D01*
X0347795Y0120183D01*
X0347795Y0122171D01*
X0350607Y0124983D01*
X0352595Y0124983D01*
X0352595Y0120183D01*
X0352595Y0115383D01*
X0354583Y0115383D01*
X0357395Y0118195D01*
X0357395Y0120183D02*
X0352595Y0120183D01*
X0352595Y0120183D01*
X0352595Y0120183D01*
X0352595Y0124983D01*
X0354583Y0124983D01*
X0357395Y0122171D01*
X0357395Y0120183D01*
X0357395Y0121124D02*
X0388707Y0121124D01*
X0385519Y0123522D02*
X0356044Y0123522D01*
X0352595Y0123522D02*
X0352595Y0123522D01*
X0352595Y0121124D02*
X0352595Y0121124D01*
X0352595Y0118725D02*
X0352595Y0118725D01*
X0352595Y0116327D02*
X0352595Y0116327D01*
X0349663Y0116327D02*
X0340195Y0116327D01*
X0340195Y0118725D02*
X0347795Y0118725D01*
X0347795Y0121124D02*
X0340195Y0121124D01*
X0340195Y0123522D02*
X0349146Y0123522D01*
X0340195Y0125921D02*
X0383818Y0125921D01*
X0382903Y0128319D02*
X0340195Y0128319D01*
X0340195Y0130718D02*
X0382553Y0130718D01*
X0382704Y0133116D02*
X0340195Y0133116D01*
X0340195Y0135515D02*
X0383390Y0135515D01*
X0384777Y0137913D02*
X0340195Y0137913D01*
X0340195Y0140312D02*
X0387422Y0140312D01*
X0388603Y0142710D02*
X0340195Y0142710D01*
X0340195Y0145109D02*
X0385113Y0145109D01*
X0384485Y0147507D02*
X0340195Y0147507D01*
X0340195Y0149906D02*
X0384247Y0149906D01*
X0384247Y0152304D02*
X0340195Y0152304D01*
X0340195Y0154703D02*
X0384247Y0154703D01*
X0384247Y0157101D02*
X0340261Y0157101D01*
X0342660Y0159500D02*
X0352530Y0159500D01*
X0350730Y0161898D02*
X0344461Y0161898D01*
X0345195Y0164297D02*
X0349995Y0164297D01*
X0349995Y0166695D02*
X0345195Y0166695D01*
X0344201Y0169094D02*
X0350989Y0169094D01*
X0353156Y0171492D02*
X0342034Y0171492D01*
X0333156Y0171492D02*
X0279428Y0171492D01*
X0273951Y0171492D02*
X0037795Y0171492D01*
X0037795Y0173891D02*
X0269200Y0173891D01*
X0267092Y0176289D02*
X0037795Y0176289D01*
X0037795Y0178688D02*
X0265850Y0178688D01*
X0265207Y0181086D02*
X0037795Y0181086D01*
X0037795Y0183485D02*
X0265190Y0183485D01*
X0265648Y0185883D02*
X0037795Y0185883D01*
X0037795Y0188282D02*
X0266655Y0188282D01*
X0268444Y0190680D02*
X0056046Y0190680D01*
X0059774Y0193079D02*
X0271731Y0193079D01*
X0281648Y0193079D02*
X0334886Y0193079D01*
X0331553Y0195477D02*
X0062173Y0195477D01*
X0072324Y0207470D02*
X0128199Y0207470D01*
X0127495Y0209868D02*
X0072695Y0209868D01*
X0072695Y0212267D02*
X0127495Y0212267D01*
X0127495Y0214665D02*
X0072695Y0214665D01*
X0072695Y0217064D02*
X0127495Y0217064D01*
X0127495Y0219462D02*
X0072695Y0219462D01*
X0072695Y0221861D02*
X0127495Y0221861D01*
X0127495Y0224260D02*
X0072695Y0224260D01*
X0072695Y0226658D02*
X0127495Y0226658D01*
X0127495Y0229057D02*
X0072695Y0229057D01*
X0072695Y0231455D02*
X0127495Y0231455D01*
X0127495Y0233854D02*
X0072695Y0233854D01*
X0072695Y0236252D02*
X0127495Y0236252D01*
X0127495Y0238651D02*
X0084684Y0238651D01*
X0087109Y0241049D02*
X0091163Y0241049D01*
X0092379Y0239833D02*
X0094595Y0239833D01*
X0094595Y0245183D01*
X0089245Y0245183D01*
X0089245Y0242967D01*
X0092379Y0239833D01*
X0094595Y0239833D02*
X0096811Y0239833D01*
X0099945Y0242967D01*
X0099945Y0245183D01*
X0094595Y0245183D01*
X0094595Y0245183D01*
X0094595Y0245183D01*
X0089245Y0245183D01*
X0089245Y0247399D01*
X0092379Y0250533D01*
X0094595Y0250533D01*
X0094595Y0245183D01*
X0094595Y0239833D01*
X0094595Y0241049D02*
X0094595Y0241049D01*
X0094595Y0243448D02*
X0094595Y0243448D01*
X0094595Y0245183D02*
X0094595Y0245183D01*
X0094595Y0245183D01*
X0094595Y0250533D01*
X0096811Y0250533D01*
X0099945Y0247399D01*
X0099945Y0245183D01*
X0094595Y0245183D01*
X0094595Y0245846D02*
X0094595Y0245846D01*
X0094595Y0248245D02*
X0094595Y0248245D01*
X0090091Y0248245D02*
X0088195Y0248245D01*
X0088195Y0250643D02*
X0127495Y0250643D01*
X0127495Y0248245D02*
X0099100Y0248245D01*
X0099945Y0245846D02*
X0127495Y0245846D01*
X0127495Y0243448D02*
X0099945Y0243448D01*
X0098027Y0241049D02*
X0127495Y0241049D01*
X0127495Y0253042D02*
X0088195Y0253042D01*
X0088195Y0255440D02*
X0127495Y0255440D01*
X0127495Y0257839D02*
X0088195Y0257839D01*
X0088195Y0260237D02*
X0127495Y0260237D01*
X0127495Y0262636D02*
X0088195Y0262636D01*
X0088195Y0265034D02*
X0127495Y0265034D01*
X0127495Y0267433D02*
X0088195Y0267433D01*
X0088195Y0269831D02*
X0127495Y0269831D01*
X0127495Y0272230D02*
X0088195Y0272230D01*
X0088195Y0274628D02*
X0127495Y0274628D01*
X0127495Y0277027D02*
X0088195Y0277027D01*
X0088195Y0279425D02*
X0127495Y0279425D01*
X0127495Y0281824D02*
X0098802Y0281824D01*
X0099945Y0282967D02*
X0096811Y0279833D01*
X0094595Y0279833D01*
X0094595Y0285183D01*
X0089245Y0285183D01*
X0089245Y0282967D01*
X0092379Y0279833D01*
X0094595Y0279833D01*
X0094595Y0285183D01*
X0094595Y0285183D01*
X0094595Y0285183D01*
X0089245Y0285183D01*
X0089245Y0287399D01*
X0092379Y0290533D01*
X0094595Y0290533D01*
X0094595Y0285183D01*
X0094595Y0285183D01*
X0094595Y0285183D01*
X0099945Y0285183D01*
X0099945Y0282967D01*
X0099945Y0284222D02*
X0127495Y0284222D01*
X0127495Y0286621D02*
X0099945Y0286621D01*
X0099945Y0287399D02*
X0099945Y0285183D01*
X0094595Y0285183D01*
X0094595Y0290533D01*
X0096811Y0290533D01*
X0099945Y0287399D01*
X0098325Y0289019D02*
X0127495Y0289019D01*
X0127586Y0291418D02*
X0088195Y0291418D01*
X0088195Y0293816D02*
X0129016Y0293816D01*
X0120526Y0305796D02*
X0121982Y0307252D01*
X0122770Y0309154D01*
X0122770Y0311212D01*
X0121982Y0313114D01*
X0120526Y0314570D01*
X0118624Y0315358D01*
X0116566Y0315358D01*
X0114664Y0314570D01*
X0113208Y0313114D01*
X0112420Y0311212D01*
X0112420Y0309154D01*
X0113208Y0307252D01*
X0114664Y0305796D01*
X0116566Y0305008D01*
X0118624Y0305008D01*
X0120526Y0305796D01*
X0120539Y0305809D02*
X0174651Y0305809D01*
X0172812Y0308207D02*
X0122378Y0308207D01*
X0122770Y0310606D02*
X0172420Y0310606D01*
X0173163Y0313004D02*
X0122028Y0313004D01*
X0113163Y0313004D02*
X0088195Y0313004D01*
X0088195Y0310606D02*
X0112420Y0310606D01*
X0112812Y0308207D02*
X0088195Y0308207D01*
X0088195Y0305809D02*
X0114651Y0305809D01*
X0094595Y0289019D02*
X0094595Y0289019D01*
X0094595Y0286621D02*
X0094595Y0286621D01*
X0094595Y0284222D02*
X0094595Y0284222D01*
X0094595Y0281824D02*
X0094595Y0281824D01*
X0090388Y0281824D02*
X0088195Y0281824D01*
X0088195Y0284222D02*
X0089245Y0284222D01*
X0089245Y0286621D02*
X0088195Y0286621D01*
X0088195Y0289019D02*
X0090865Y0289019D01*
X0088195Y0296215D02*
X0287879Y0296215D01*
X0290277Y0298613D02*
X0088195Y0298613D01*
X0088195Y0301012D02*
X0292676Y0301012D01*
X0285575Y0305809D02*
X0388124Y0305809D01*
X0387223Y0303410D02*
X0088195Y0303410D01*
X0089368Y0320200D02*
X0400822Y0320200D01*
X0405901Y0293816D02*
X0357395Y0293816D01*
X0355618Y0291418D02*
X0388733Y0291418D01*
X0396457Y0291418D02*
X0405901Y0291418D01*
X0405901Y0289019D02*
X0397856Y0289019D01*
X0397967Y0286621D02*
X0405901Y0286621D01*
X0405901Y0260237D02*
X0397567Y0260237D01*
X0397567Y0257839D02*
X0405901Y0257839D01*
X0405901Y0255440D02*
X0397567Y0255440D01*
X0396528Y0253042D02*
X0405901Y0253042D01*
X0387398Y0243448D02*
X0357395Y0243448D01*
X0355249Y0241049D02*
X0384767Y0241049D01*
X0383382Y0238651D02*
X0340195Y0238651D01*
X0340195Y0241049D02*
X0349941Y0241049D01*
X0352595Y0241049D02*
X0352595Y0241049D01*
X0352595Y0243448D02*
X0352595Y0243448D01*
X0352595Y0245846D02*
X0352595Y0245846D01*
X0352595Y0248245D02*
X0352595Y0248245D01*
X0348868Y0248245D02*
X0340195Y0248245D01*
X0340195Y0245846D02*
X0347795Y0245846D01*
X0347795Y0243448D02*
X0340195Y0243448D01*
X0340195Y0236252D02*
X0382700Y0236252D01*
X0382553Y0233854D02*
X0340195Y0233854D01*
X0340195Y0231455D02*
X0382907Y0231455D01*
X0383826Y0229057D02*
X0340195Y0229057D01*
X0340195Y0226658D02*
X0385533Y0226658D01*
X0388731Y0224260D02*
X0340195Y0224260D01*
X0340195Y0221861D02*
X0386029Y0221861D01*
X0385113Y0219462D02*
X0340195Y0219462D01*
X0340195Y0217064D02*
X0384247Y0217064D01*
X0384247Y0214665D02*
X0340195Y0214665D01*
X0340195Y0212267D02*
X0384247Y0212267D01*
X0384247Y0209868D02*
X0340195Y0209868D01*
X0341056Y0207470D02*
X0355327Y0207470D01*
X0351735Y0205071D02*
X0343455Y0205071D01*
X0344790Y0202673D02*
X0350400Y0202673D01*
X0349995Y0200274D02*
X0345195Y0200274D01*
X0344866Y0197876D02*
X0350325Y0197876D01*
X0351553Y0195477D02*
X0343637Y0195477D01*
X0340304Y0193079D02*
X0354886Y0193079D01*
X0329154Y0197876D02*
X0219502Y0197876D01*
X0223139Y0200274D02*
X0326756Y0200274D01*
X0325409Y0202673D02*
X0224399Y0202673D01*
X0224664Y0205071D02*
X0324995Y0205071D01*
X0324995Y0207470D02*
X0224100Y0207470D01*
X0222417Y0209868D02*
X0324995Y0209868D01*
X0286724Y0188282D02*
X0386087Y0188282D01*
X0385953Y0188148D02*
X0385663Y0187646D01*
X0385513Y0187087D01*
X0385513Y0182841D01*
X0391669Y0182841D01*
X0391669Y0182485D01*
X0392025Y0182485D01*
X0392025Y0176330D01*
X0396271Y0176330D01*
X0396830Y0176479D01*
X0397332Y0176769D01*
X0397741Y0177179D01*
X0398031Y0177680D01*
X0398181Y0178240D01*
X0398181Y0182485D01*
X0392025Y0182485D01*
X0392025Y0182841D01*
X0398181Y0182841D01*
X0398181Y0187087D01*
X0398031Y0187646D01*
X0397741Y0188148D01*
X0397332Y0188558D01*
X0396830Y0188847D01*
X0396271Y0188997D01*
X0392025Y0188997D01*
X0392025Y0182841D01*
X0391669Y0182841D01*
X0391669Y0188997D01*
X0387424Y0188997D01*
X0386864Y0188847D01*
X0386362Y0188558D01*
X0385953Y0188148D01*
X0385513Y0185883D02*
X0287732Y0185883D01*
X0288189Y0183485D02*
X0385513Y0183485D01*
X0385513Y0182485D02*
X0385513Y0178240D01*
X0385663Y0177680D01*
X0385953Y0177179D01*
X0386362Y0176769D01*
X0386864Y0176479D01*
X0387424Y0176330D01*
X0391669Y0176330D01*
X0391669Y0182485D01*
X0385513Y0182485D01*
X0385513Y0181086D02*
X0288172Y0181086D01*
X0287529Y0178688D02*
X0385513Y0178688D01*
X0391669Y0178688D02*
X0392025Y0178688D01*
X0392025Y0181086D02*
X0391669Y0181086D01*
X0391669Y0183485D02*
X0392025Y0183485D01*
X0392025Y0185883D02*
X0391669Y0185883D01*
X0391669Y0188282D02*
X0392025Y0188282D01*
X0397608Y0188282D02*
X0407740Y0188282D01*
X0407167Y0185883D02*
X0398181Y0185883D01*
X0398181Y0183485D02*
X0407167Y0183485D01*
X0407167Y0181086D02*
X0398181Y0181086D01*
X0398181Y0178688D02*
X0407167Y0178688D01*
X0407537Y0171492D02*
X0398286Y0171492D01*
X0398845Y0169094D02*
X0407167Y0169094D01*
X0407167Y0166695D02*
X0399447Y0166695D01*
X0399447Y0164297D02*
X0407167Y0164297D01*
X0407167Y0161898D02*
X0399447Y0161898D01*
X0399447Y0159500D02*
X0419127Y0159500D01*
X0419127Y0157101D02*
X0415233Y0157101D01*
X0419127Y0190680D02*
X0284935Y0190680D01*
X0355527Y0116327D02*
X0405901Y0116327D01*
X0405901Y0113928D02*
X0340195Y0113928D01*
X0340195Y0111529D02*
X0389431Y0111529D01*
X0389356Y0111475D02*
X0388803Y0110922D01*
X0388343Y0110289D01*
X0387988Y0109592D01*
X0387746Y0108847D01*
X0387623Y0108074D01*
X0387623Y0107683D01*
X0387623Y0107292D01*
X0387746Y0106519D01*
X0387988Y0105775D01*
X0388343Y0105077D01*
X0388803Y0104444D01*
X0389356Y0103891D01*
X0389989Y0103431D01*
X0390687Y0103076D01*
X0391431Y0102834D01*
X0392204Y0102711D01*
X0392595Y0102711D01*
X0392595Y0107683D01*
X0387623Y0107683D01*
X0392595Y0107683D01*
X0392595Y0107683D01*
X0392595Y0107683D01*
X0392595Y0102711D01*
X0392986Y0102711D01*
X0393759Y0102834D01*
X0394504Y0103076D01*
X0395201Y0103431D01*
X0395834Y0103891D01*
X0396387Y0104444D01*
X0396847Y0105077D01*
X0397203Y0105775D01*
X0397444Y0106519D01*
X0397567Y0107292D01*
X0397567Y0107683D01*
X0392595Y0107683D01*
X0392595Y0112655D01*
X0392204Y0112655D01*
X0391431Y0112532D01*
X0390687Y0112290D01*
X0389989Y0111935D01*
X0389356Y0111475D01*
X0387838Y0109131D02*
X0340195Y0109131D01*
X0340195Y0106732D02*
X0387712Y0106732D01*
X0388913Y0104334D02*
X0340195Y0104334D01*
X0340195Y0101935D02*
X0405901Y0101935D01*
X0405901Y0099537D02*
X0340195Y0099537D01*
X0340195Y0097138D02*
X0389454Y0097138D01*
X0389552Y0097237D02*
X0388041Y0095726D01*
X0387223Y0093752D01*
X0387223Y0091615D01*
X0388041Y0089640D01*
X0389552Y0088129D01*
X0391527Y0087311D01*
X0393664Y0087311D01*
X0395638Y0088129D01*
X0397149Y0089640D01*
X0397967Y0091615D01*
X0397967Y0093752D01*
X0397149Y0095726D01*
X0395638Y0097237D01*
X0393664Y0098055D01*
X0391527Y0098055D01*
X0389552Y0097237D01*
X0387633Y0094740D02*
X0340195Y0094740D01*
X0340195Y0092341D02*
X0387223Y0092341D01*
X0387916Y0089943D02*
X0340195Y0089943D01*
X0340195Y0087544D02*
X0390964Y0087544D01*
X0394226Y0087544D02*
X0405901Y0087544D01*
X0405901Y0085146D02*
X0340195Y0085146D01*
X0340195Y0082747D02*
X0390785Y0082747D01*
X0391527Y0083055D02*
X0389552Y0082237D01*
X0388041Y0080726D01*
X0387223Y0078752D01*
X0387223Y0076615D01*
X0388041Y0074640D01*
X0389552Y0073129D01*
X0391527Y0072311D01*
X0393664Y0072311D01*
X0395638Y0073129D01*
X0397149Y0074640D01*
X0397967Y0076615D01*
X0397967Y0078752D01*
X0397149Y0080726D01*
X0395638Y0082237D01*
X0393664Y0083055D01*
X0391527Y0083055D01*
X0394406Y0082747D02*
X0405901Y0082747D01*
X0405901Y0080349D02*
X0397305Y0080349D01*
X0397967Y0077950D02*
X0405901Y0077950D01*
X0405901Y0075552D02*
X0397527Y0075552D01*
X0395662Y0073153D02*
X0405901Y0073153D01*
X0405901Y0070755D02*
X0357395Y0070755D01*
X0357395Y0070183D02*
X0357395Y0072171D01*
X0354583Y0074983D01*
X0352595Y0074983D01*
X0350607Y0074983D01*
X0347795Y0072171D01*
X0347795Y0070183D01*
X0347795Y0068195D01*
X0350607Y0065383D01*
X0352595Y0065383D01*
X0352595Y0070183D01*
X0347795Y0070183D01*
X0352595Y0070183D01*
X0352595Y0070183D01*
X0352595Y0070183D01*
X0352595Y0065383D01*
X0354583Y0065383D01*
X0357395Y0068195D01*
X0357395Y0070183D01*
X0352595Y0070183D01*
X0352595Y0074983D01*
X0352595Y0070183D01*
X0352595Y0070183D01*
X0352595Y0070183D01*
X0357395Y0070183D01*
X0357395Y0068356D02*
X0405901Y0068356D01*
X0405901Y0065958D02*
X0397967Y0065958D01*
X0397967Y0065972D02*
X0397571Y0066927D01*
X0396840Y0067659D01*
X0395884Y0068055D01*
X0389306Y0068055D01*
X0388351Y0067659D01*
X0387619Y0066927D01*
X0387223Y0065972D01*
X0387223Y0059394D01*
X0387619Y0058439D01*
X0388351Y0057707D01*
X0389306Y0057311D01*
X0395884Y0057311D01*
X0396840Y0057707D01*
X0397571Y0058439D01*
X0397967Y0059394D01*
X0397967Y0065972D01*
X0397967Y0063559D02*
X0405901Y0063559D01*
X0405901Y0061161D02*
X0397967Y0061161D01*
X0397705Y0058762D02*
X0405901Y0058762D01*
X0405901Y0056364D02*
X0287795Y0056364D01*
X0287795Y0057337D02*
X0284749Y0060383D01*
X0282595Y0060383D01*
X0280441Y0060383D01*
X0277395Y0057337D01*
X0277395Y0055183D01*
X0277395Y0053029D01*
X0280441Y0049983D01*
X0282595Y0049983D01*
X0282595Y0055183D01*
X0277395Y0055183D01*
X0282595Y0055183D01*
X0282595Y0055183D01*
X0282595Y0055183D01*
X0282595Y0049983D01*
X0284749Y0049983D01*
X0287795Y0053029D01*
X0287795Y0055183D01*
X0282595Y0055183D01*
X0282595Y0060383D01*
X0282595Y0055183D01*
X0282595Y0055183D01*
X0282595Y0055183D01*
X0287795Y0055183D01*
X0287795Y0057337D01*
X0286370Y0058762D02*
X0387485Y0058762D01*
X0387223Y0061161D02*
X0088195Y0061161D01*
X0088195Y0063559D02*
X0293727Y0063559D01*
X0291072Y0065958D02*
X0088195Y0065958D01*
X0088195Y0068356D02*
X0288674Y0068356D01*
X0286275Y0070755D02*
X0210231Y0070755D01*
X0212275Y0073153D02*
X0212460Y0073153D01*
X0225276Y0060783D02*
X0221995Y0057503D01*
X0221995Y0052863D01*
X0225276Y0049583D01*
X0229915Y0049583D01*
X0233195Y0052863D01*
X0233195Y0057503D01*
X0229915Y0060783D01*
X0225276Y0060783D01*
X0223255Y0058762D02*
X0181334Y0058762D01*
X0181982Y0058114D02*
X0180526Y0059570D01*
X0178624Y0060358D01*
X0176566Y0060358D01*
X0174664Y0059570D01*
X0173208Y0058114D01*
X0172420Y0056212D01*
X0172420Y0054154D01*
X0173208Y0052252D01*
X0174664Y0050796D01*
X0176566Y0050008D01*
X0178624Y0050008D01*
X0180526Y0050796D01*
X0181982Y0052252D01*
X0182770Y0054154D01*
X0182770Y0056212D01*
X0181982Y0058114D01*
X0182707Y0056364D02*
X0221995Y0056364D01*
X0221995Y0053965D02*
X0182692Y0053965D01*
X0181297Y0051567D02*
X0223292Y0051567D01*
X0231898Y0051567D02*
X0243292Y0051567D01*
X0241995Y0052863D02*
X0241995Y0057503D01*
X0245276Y0060783D01*
X0249915Y0060783D01*
X0253195Y0057503D01*
X0253195Y0052863D01*
X0249915Y0049583D01*
X0245276Y0049583D01*
X0241995Y0052863D01*
X0241995Y0053965D02*
X0233195Y0053965D01*
X0233195Y0056364D02*
X0241995Y0056364D01*
X0243255Y0058762D02*
X0231936Y0058762D01*
X0251936Y0058762D02*
X0258255Y0058762D01*
X0256995Y0057503D02*
X0256995Y0052863D01*
X0260276Y0049583D01*
X0264915Y0049583D01*
X0268195Y0052863D01*
X0268195Y0057503D01*
X0264915Y0060783D01*
X0260276Y0060783D01*
X0256995Y0057503D01*
X0256995Y0056364D02*
X0253195Y0056364D01*
X0253195Y0053965D02*
X0256995Y0053965D01*
X0258292Y0051567D02*
X0251898Y0051567D01*
X0266898Y0051567D02*
X0278858Y0051567D01*
X0277395Y0053965D02*
X0268195Y0053965D01*
X0268195Y0056364D02*
X0277395Y0056364D01*
X0278820Y0058762D02*
X0266936Y0058762D01*
X0282595Y0058762D02*
X0282595Y0058762D01*
X0282595Y0056364D02*
X0282595Y0056364D01*
X0282595Y0053965D02*
X0282595Y0053965D01*
X0282595Y0051567D02*
X0282595Y0051567D01*
X0286333Y0051567D02*
X0405901Y0051567D01*
X0405901Y0053965D02*
X0287795Y0053965D01*
X0300576Y0077950D02*
X0324995Y0077950D01*
X0324995Y0080349D02*
X0298177Y0080349D01*
X0295779Y0082747D02*
X0324995Y0082747D01*
X0340195Y0080349D02*
X0387885Y0080349D01*
X0387223Y0077950D02*
X0340195Y0077950D01*
X0340195Y0075552D02*
X0387664Y0075552D01*
X0389528Y0073153D02*
X0356413Y0073153D01*
X0352595Y0073153D02*
X0352595Y0073153D01*
X0352595Y0070755D02*
X0352595Y0070755D01*
X0352595Y0068356D02*
X0352595Y0068356D01*
X0352595Y0065958D02*
X0352595Y0065958D01*
X0350032Y0065958D02*
X0339071Y0065958D01*
X0340065Y0068356D02*
X0347795Y0068356D01*
X0347795Y0070755D02*
X0340195Y0070755D01*
X0340195Y0073153D02*
X0348777Y0073153D01*
X0355158Y0065958D02*
X0387223Y0065958D01*
X0387223Y0063559D02*
X0336464Y0063559D01*
X0392595Y0104334D02*
X0392595Y0104334D01*
X0392595Y0106732D02*
X0392595Y0106732D01*
X0392595Y0107683D02*
X0392595Y0107683D01*
X0392595Y0107683D01*
X0392595Y0112655D01*
X0392986Y0112655D01*
X0393759Y0112532D01*
X0394504Y0112290D01*
X0395201Y0111935D01*
X0395834Y0111475D01*
X0396387Y0110922D01*
X0396847Y0110289D01*
X0397203Y0109592D01*
X0397444Y0108847D01*
X0397567Y0108074D01*
X0397567Y0107683D01*
X0392595Y0107683D01*
X0392595Y0109131D02*
X0392595Y0109131D01*
X0392595Y0111529D02*
X0392595Y0111529D01*
X0395759Y0111529D02*
X0405901Y0111529D01*
X0405901Y0109131D02*
X0397352Y0109131D01*
X0397478Y0106732D02*
X0405901Y0106732D01*
X0405901Y0104334D02*
X0396277Y0104334D01*
X0395736Y0097138D02*
X0405901Y0097138D01*
X0405901Y0094740D02*
X0397557Y0094740D01*
X0397967Y0092341D02*
X0405901Y0092341D01*
X0405901Y0089943D02*
X0397274Y0089943D01*
X0405901Y0049168D02*
X0088195Y0049168D01*
X0088195Y0046770D02*
X0405901Y0046770D01*
X0405901Y0044371D02*
X0089155Y0044371D01*
X0088195Y0051567D02*
X0113893Y0051567D01*
X0113208Y0052252D02*
X0114664Y0050796D01*
X0116566Y0050008D01*
X0118624Y0050008D01*
X0120526Y0050796D01*
X0121982Y0052252D01*
X0122770Y0054154D01*
X0122770Y0056212D01*
X0121982Y0058114D01*
X0120526Y0059570D01*
X0118624Y0060358D01*
X0116566Y0060358D01*
X0114664Y0059570D01*
X0113208Y0058114D01*
X0112420Y0056212D01*
X0112420Y0054154D01*
X0113208Y0052252D01*
X0112498Y0053965D02*
X0088195Y0053965D01*
X0088195Y0056364D02*
X0112483Y0056364D01*
X0113856Y0058762D02*
X0088195Y0058762D01*
X0088195Y0070755D02*
X0129959Y0070755D01*
X0127916Y0073153D02*
X0088195Y0073153D01*
X0088195Y0075552D02*
X0091660Y0075552D01*
X0092379Y0074833D02*
X0094595Y0074833D01*
X0094595Y0080183D01*
X0089245Y0080183D01*
X0089245Y0077967D01*
X0092379Y0074833D01*
X0094595Y0074833D02*
X0096811Y0074833D01*
X0099945Y0077967D01*
X0099945Y0080183D01*
X0094595Y0080183D01*
X0094595Y0080183D01*
X0094595Y0080183D01*
X0089245Y0080183D01*
X0089245Y0082399D01*
X0092379Y0085533D01*
X0094595Y0085533D01*
X0094595Y0080183D01*
X0094595Y0074833D01*
X0094595Y0075552D02*
X0094595Y0075552D01*
X0094595Y0077950D02*
X0094595Y0077950D01*
X0094595Y0080183D02*
X0094595Y0080183D01*
X0094595Y0080183D01*
X0094595Y0085533D01*
X0096811Y0085533D01*
X0099945Y0082399D01*
X0099945Y0080183D01*
X0094595Y0080183D01*
X0094595Y0080349D02*
X0094595Y0080349D01*
X0094595Y0082747D02*
X0094595Y0082747D01*
X0094595Y0085146D02*
X0094595Y0085146D01*
X0091992Y0085146D02*
X0088195Y0085146D01*
X0088195Y0087544D02*
X0127495Y0087544D01*
X0127495Y0085146D02*
X0097198Y0085146D01*
X0099597Y0082747D02*
X0127495Y0082747D01*
X0127495Y0080349D02*
X0099945Y0080349D01*
X0099928Y0077950D02*
X0127495Y0077950D01*
X0127495Y0075552D02*
X0097530Y0075552D01*
X0089262Y0077950D02*
X0088195Y0077950D01*
X0088195Y0080349D02*
X0089245Y0080349D01*
X0089593Y0082747D02*
X0088195Y0082747D01*
X0088195Y0089943D02*
X0127495Y0089943D01*
X0127495Y0092341D02*
X0088195Y0092341D01*
X0088195Y0094740D02*
X0127495Y0094740D01*
X0127495Y0097138D02*
X0088195Y0097138D01*
X0088195Y0099537D02*
X0127495Y0099537D01*
X0127495Y0101935D02*
X0088195Y0101935D01*
X0088195Y0104334D02*
X0127495Y0104334D01*
X0127495Y0106732D02*
X0088195Y0106732D01*
X0088195Y0109131D02*
X0127495Y0109131D01*
X0127495Y0111529D02*
X0088195Y0111529D01*
X0088195Y0113928D02*
X0127495Y0113928D01*
X0127495Y0116327D02*
X0098305Y0116327D01*
X0096811Y0114833D02*
X0094595Y0114833D01*
X0094595Y0120183D01*
X0089245Y0120183D01*
X0089245Y0117967D01*
X0092379Y0114833D01*
X0094595Y0114833D01*
X0094595Y0120183D01*
X0094595Y0120183D01*
X0094595Y0120183D01*
X0089245Y0120183D01*
X0089245Y0122399D01*
X0092379Y0125533D01*
X0094595Y0125533D01*
X0094595Y0120183D01*
X0094595Y0120183D01*
X0094595Y0120183D01*
X0099945Y0120183D01*
X0099945Y0117967D01*
X0096811Y0114833D01*
X0094595Y0116327D02*
X0094595Y0116327D01*
X0094595Y0118725D02*
X0094595Y0118725D01*
X0094595Y0120183D02*
X0099945Y0120183D01*
X0099945Y0122399D01*
X0096811Y0125533D01*
X0094595Y0125533D01*
X0094595Y0120183D01*
X0094595Y0121124D02*
X0094595Y0121124D01*
X0094595Y0123522D02*
X0094595Y0123522D01*
X0090368Y0123522D02*
X0087438Y0123522D01*
X0088195Y0121124D02*
X0089245Y0121124D01*
X0089245Y0118725D02*
X0088195Y0118725D01*
X0088195Y0116327D02*
X0090886Y0116327D01*
X0098822Y0123522D02*
X0127495Y0123522D01*
X0127495Y0121124D02*
X0099945Y0121124D01*
X0099945Y0118725D02*
X0127495Y0118725D01*
X0127495Y0125921D02*
X0085606Y0125921D01*
X0081671Y0128319D02*
X0127495Y0128319D01*
X0127495Y0130718D02*
X0101327Y0130718D01*
X0101795Y0133116D02*
X0127495Y0133116D01*
X0127495Y0135515D02*
X0100703Y0135515D01*
X0076987Y0135515D02*
X0070195Y0135515D01*
X0070195Y0133116D02*
X0074588Y0133116D01*
X0072190Y0130718D02*
X0070195Y0130718D01*
X0069820Y0137913D02*
X0127495Y0137913D01*
X0127495Y0140312D02*
X0068797Y0140312D01*
X0066852Y0142710D02*
X0127495Y0142710D01*
X0127495Y0145109D02*
X0064453Y0145109D01*
X0062055Y0147507D02*
X0127495Y0147507D01*
X0127495Y0149906D02*
X0059656Y0149906D01*
X0057258Y0152304D02*
X0127495Y0152304D01*
X0127495Y0154703D02*
X0053376Y0154703D01*
X0040893Y0154703D02*
X0037795Y0154703D01*
X0037795Y0157101D02*
X0127869Y0157101D01*
X0129699Y0159500D02*
X0037795Y0159500D01*
X0042595Y0161898D02*
X0042595Y0161898D01*
X0042595Y0164297D02*
X0042595Y0164297D01*
X0042595Y0166695D02*
X0042595Y0166695D01*
X0042595Y0169094D02*
X0042595Y0169094D01*
X0040683Y0190680D02*
X0037795Y0190680D01*
X0037795Y0208206D02*
X0037795Y0215340D01*
X0038377Y0215150D01*
X0039186Y0215022D01*
X0042595Y0215022D01*
X0042595Y0220222D01*
X0042595Y0220222D01*
X0042595Y0215022D01*
X0046004Y0215022D01*
X0046813Y0215150D01*
X0047591Y0215403D01*
X0048321Y0215775D01*
X0048983Y0216256D01*
X0049561Y0216835D01*
X0050043Y0217497D01*
X0050414Y0218226D01*
X0050667Y0219005D01*
X0050795Y0219813D01*
X0050795Y0220222D01*
X0042595Y0220222D01*
X0042595Y0220222D01*
X0050795Y0220222D01*
X0050795Y0220632D01*
X0050667Y0221440D01*
X0050414Y0222219D01*
X0050043Y0222948D01*
X0049561Y0223610D01*
X0048983Y0224189D01*
X0048321Y0224670D01*
X0047591Y0225041D01*
X0046813Y0225294D01*
X0046004Y0225422D01*
X0042595Y0225422D01*
X0039186Y0225422D01*
X0038377Y0225294D01*
X0037795Y0225105D01*
X0037795Y0246088D01*
X0038481Y0245804D01*
X0046709Y0245804D01*
X0048767Y0246656D01*
X0050343Y0248231D01*
X0051052Y0249943D01*
X0051394Y0249601D01*
X0052495Y0248965D01*
X0052495Y0214367D01*
X0048451Y0210322D01*
X0042765Y0210322D01*
X0040197Y0209634D01*
X0037894Y0208304D01*
X0037795Y0208206D01*
X0037795Y0209868D02*
X0041071Y0209868D01*
X0037795Y0212267D02*
X0050395Y0212267D01*
X0052495Y0214665D02*
X0037795Y0214665D01*
X0042595Y0217064D02*
X0042595Y0217064D01*
X0042595Y0219462D02*
X0042595Y0219462D01*
X0042595Y0220223D02*
X0042595Y0225422D01*
X0042595Y0220223D01*
X0042595Y0220223D01*
X0042595Y0221861D02*
X0042595Y0221861D01*
X0042595Y0224260D02*
X0042595Y0224260D01*
X0037795Y0226658D02*
X0052495Y0226658D01*
X0052495Y0224260D02*
X0048885Y0224260D01*
X0050530Y0221861D02*
X0052495Y0221861D01*
X0052495Y0219462D02*
X0050740Y0219462D01*
X0049728Y0217064D02*
X0052495Y0217064D01*
X0052495Y0229057D02*
X0037795Y0229057D01*
X0037795Y0231455D02*
X0052495Y0231455D01*
X0052495Y0233854D02*
X0037795Y0233854D01*
X0037795Y0236252D02*
X0052495Y0236252D01*
X0052495Y0238651D02*
X0037795Y0238651D01*
X0037795Y0241049D02*
X0052495Y0241049D01*
X0052495Y0243448D02*
X0037795Y0243448D01*
X0037795Y0245846D02*
X0038378Y0245846D01*
X0046812Y0245846D02*
X0052495Y0245846D01*
X0052495Y0248245D02*
X0050348Y0248245D01*
X0072695Y0248245D02*
X0072995Y0248245D01*
X0072995Y0250643D02*
X0072695Y0250643D01*
X0072695Y0253042D02*
X0072995Y0253042D01*
X0072995Y0255440D02*
X0072695Y0255440D01*
X0072695Y0257839D02*
X0072995Y0257839D01*
X0072995Y0260237D02*
X0072367Y0260237D01*
X0072995Y0262636D02*
X0071398Y0262636D01*
X0072995Y0265034D02*
X0069528Y0265034D01*
X0072695Y0245846D02*
X0072995Y0245846D01*
X0073088Y0243448D02*
X0072695Y0243448D01*
X0072695Y0241049D02*
X0074081Y0241049D01*
X0072695Y0238651D02*
X0076506Y0238651D01*
X0088102Y0243448D02*
X0089245Y0243448D01*
X0089245Y0245846D02*
X0088195Y0245846D01*
X0121334Y0058762D02*
X0173856Y0058762D01*
X0172483Y0056364D02*
X0122707Y0056364D01*
X0122692Y0053965D02*
X0172498Y0053965D01*
X0173893Y0051567D02*
X0121297Y0051567D01*
X0397672Y0193079D02*
X0408407Y0193079D01*
X0407167Y0195477D02*
X0398581Y0195477D01*
X0399447Y0197876D02*
X0407167Y0197876D01*
X0407167Y0200274D02*
X0399447Y0200274D01*
X0399447Y0202673D02*
X0407167Y0202673D01*
X0407994Y0205071D02*
X0399447Y0205071D01*
X0418594Y0193079D02*
X0419127Y0193079D01*
X0352595Y0291418D02*
X0352595Y0291418D01*
X0352595Y0293816D02*
X0352595Y0293816D01*
X0352595Y0296215D02*
X0352595Y0296215D01*
X0352595Y0298613D02*
X0352595Y0298613D01*
D24*
X0080595Y0080183D02*
X0080595Y0042183D01*
X0087595Y0035183D01*
X0407595Y0035183D01*
X0413501Y0041089D01*
X0413501Y0149593D01*
X0391847Y0149593D02*
X0391847Y0166128D01*
X0390902Y0165183D01*
X0357595Y0165183D01*
X0337595Y0165183D02*
X0332595Y0160183D01*
X0332595Y0120183D01*
X0332595Y0070183D01*
X0297595Y0070183D01*
X0289052Y0078726D01*
X0217635Y0078726D01*
X0080595Y0080183D02*
X0080595Y0120183D01*
X0060095Y0107683D02*
X0055095Y0107683D01*
X0055095Y0105183D02*
X0050149Y0105183D01*
X0050122Y0105156D01*
X0055095Y0105183D02*
X0057595Y0107683D01*
X0080595Y0245183D02*
X0080595Y0270183D01*
X0080595Y0275183D01*
X0077595Y0275183D01*
X0080595Y0275183D02*
X0080595Y0285183D01*
X0080595Y0322175D01*
X0087595Y0329175D01*
X0402595Y0329175D01*
X0413501Y0318270D01*
X0413501Y0215734D01*
X0391847Y0215734D02*
X0391847Y0199199D01*
X0390863Y0200183D01*
X0357595Y0200183D01*
X0337595Y0200183D02*
X0332595Y0205183D01*
X0332595Y0245183D01*
X0332595Y0295183D01*
X0297595Y0295183D01*
X0289012Y0286600D01*
X0217635Y0286600D01*
X0057595Y0257683D02*
X0055095Y0260183D01*
X0050109Y0260183D01*
X0050102Y0260190D01*
D25*
X0057595Y0257683D02*
X0062595Y0257683D01*
X0062595Y0210183D01*
X0052635Y0200222D01*
X0044095Y0200222D01*
X0044095Y0145104D02*
X0050174Y0145104D01*
X0060095Y0135183D01*
X0060095Y0107683D01*
X0057595Y0107683D01*
X0044095Y0275183D02*
X0077595Y0275183D01*
D26*
X0132595Y0275109D02*
X0207595Y0275109D01*
X0207595Y0270110D02*
X0132595Y0270110D01*
X0132595Y0265112D02*
X0207595Y0265112D01*
X0207595Y0260113D02*
X0132595Y0260113D01*
X0132595Y0255115D02*
X0207595Y0255115D01*
X0207595Y0250116D02*
X0132595Y0250116D01*
X0132595Y0245118D02*
X0207595Y0245118D01*
X0207595Y0240119D02*
X0132595Y0240119D01*
X0132595Y0235121D02*
X0207595Y0235121D01*
X0207595Y0230122D02*
X0132595Y0230122D01*
X0132595Y0225124D02*
X0207595Y0225124D01*
X0207595Y0220125D02*
X0132595Y0220125D01*
X0132595Y0215127D02*
X0207595Y0215127D01*
X0207595Y0210183D02*
X0132595Y0210183D01*
X0132595Y0290183D01*
X0207595Y0290183D01*
X0207595Y0210183D01*
X0132595Y0210183D01*
X0132595Y0290183D01*
X0157595Y0265183D01*
X0132595Y0280107D02*
X0207595Y0280107D01*
X0207595Y0285106D02*
X0132595Y0285106D01*
X0132595Y0290104D02*
X0207595Y0290104D01*
X0207595Y0290183D02*
X0207595Y0210183D01*
X0207595Y0155183D02*
X0207595Y0075183D01*
X0132595Y0075183D01*
X0132595Y0155183D01*
X0207595Y0155183D01*
X0207595Y0075183D01*
X0132595Y0075183D01*
X0132595Y0155183D01*
X0157595Y0130183D01*
X0132595Y0130152D02*
X0207595Y0130152D01*
X0207595Y0135150D02*
X0132595Y0135150D01*
X0132595Y0140149D02*
X0207595Y0140149D01*
X0207595Y0145147D02*
X0132595Y0145147D01*
X0132595Y0150146D02*
X0207595Y0150146D01*
X0207595Y0155144D02*
X0132595Y0155144D01*
X0132595Y0155183D02*
X0207595Y0155183D01*
X0207595Y0125153D02*
X0132595Y0125153D01*
X0132595Y0120155D02*
X0207595Y0120155D01*
X0207595Y0115156D02*
X0132595Y0115156D01*
X0132595Y0110158D02*
X0207595Y0110158D01*
X0207595Y0105159D02*
X0132595Y0105159D01*
X0132595Y0100161D02*
X0207595Y0100161D01*
X0207595Y0095162D02*
X0132595Y0095162D01*
X0132595Y0090164D02*
X0207595Y0090164D01*
X0207595Y0085165D02*
X0132595Y0085165D01*
X0132595Y0080167D02*
X0207595Y0080167D01*
X0207595Y0290183D02*
X0132595Y0290183D01*
D27*
X0097595Y0132683D02*
X0080095Y0132683D01*
X0072595Y0125183D01*
X0072595Y0097683D01*
X0068835Y0093923D01*
X0042595Y0093923D01*
M02*
