%
M48
M72
T01C0.01378
T02C0.03150
T03C0.03200
T04C0.03543
T05C0.04000
T06C0.05512
T07C0.05906
T08C0.11811
T09C0.12598
%
T01
X157595Y100183
X157595Y105183
X162595Y105183
X162595Y100183
X167595Y100183
X167595Y105183
X172595Y105183
X172595Y100183
X177595Y100183
X177595Y105183
X177595Y110183
X172595Y110183
X167595Y110183
X162595Y110183
X157595Y110183
X157595Y115183
X162595Y115183
X167595Y115183
X172595Y115183
X177595Y115183
X177595Y120183
X172595Y120183
X167595Y120183
X162595Y120183
X157595Y120183
X157595Y125183
X162595Y125183
X167595Y125183
X172595Y125183
X177595Y125183
X177595Y130183
X172595Y130183
X167595Y130183
X162595Y130183
X157595Y130183
X182595Y125183
X182595Y120183
X182595Y115183
X182595Y110183
X182595Y105183
X97595Y132683
X70095Y145183
X52595Y162683
X52595Y167683
X90095Y210183
X90095Y217683
X80095Y232683
X157595Y235183
X162595Y235183
X167595Y235183
X172595Y235183
X177595Y235183
X177595Y240183
X172595Y240183
X167595Y240183
X162595Y240183
X157595Y240183
X157595Y245183
X162595Y245183
X167595Y245183
X172595Y245183
X177595Y245183
X177595Y250183
X172595Y250183
X167595Y250183
X162595Y250183
X157595Y250183
X157595Y255183
X162595Y255183
X167595Y255183
X172595Y255183
X177595Y255183
X177595Y260183
X172595Y260183
X167595Y260183
X162595Y260183
X157595Y260183
X157595Y265183
X162595Y265183
X167595Y265183
X172595Y265183
X177595Y265183
X182595Y260183
X182595Y255183
X182595Y250183
X182595Y245183
X182595Y240183
X277595Y140183
X277595Y105183
T02
X177595Y55183
X117595Y55183
X117595Y310183
X177595Y310183
T03
X94595Y285183
X80595Y285183
X80595Y245183
X94595Y245183
X94595Y120183
X80595Y120183
X80595Y80183
X94595Y80183
X332595Y70183
X352595Y70183
X352595Y120183
X332595Y120183
X332595Y245183
X352595Y245183
X352595Y295183
X332595Y295183
T04
X392595Y287683
X392595Y302683
X392595Y272683
X392595Y257683
X392595Y107683
X392595Y92683
X392595Y77683
X392595Y62683
T05
X282595Y55183
X262595Y55183
X247595Y55183
X227595Y55183
X337595Y165183
X357595Y165183
X357595Y200183
X337595Y200183
X282595Y310183
X262595Y310183
X247595Y310183
X227595Y310183
X42595Y271404
X42595Y261404
X42595Y251404
X42595Y220222
X42595Y200222
X42595Y165104
X42595Y145104
X42595Y113923
X42595Y103923
X42595Y93923
T06
X391847Y149593
X391847Y166128
X391847Y182663
X391847Y199199
X391847Y215734
X413501Y215734
X413501Y199199
X413501Y182663
X413501Y166128
X413501Y149593
T07
X217635Y160616
X217635Y204711
X217635Y286600
X217635Y78726
T08
X393658Y131089
X393658Y234238
T09
X64091Y56679
X276690Y182663
X64091Y308648
M30
