%
M48
M72
T01C0.03200
T02C0.04000
T03C0.05118
T04C0.05512
T05C0.05906
T06C0.11811
T07C0.12598
%
T01
X52595Y53933
X52595Y113933
X71795Y161383
X91795Y161383
X170195Y161383
X190195Y161383
X268695Y161383
X288695Y161383
X367095Y161383
X387095Y161383
X403845Y113933
X403845Y53933
T02
X313845Y87683
X288845Y87683
X253845Y96383
X253845Y121383
X288845Y121433
X313845Y121433
X205095Y121383
X205095Y96383
X170095Y87683
X145095Y87683
X145095Y121433
X170095Y121433
X169395Y297133
X169395Y317133
X140995Y317683
X130995Y317683
X120995Y317683
X115095Y298933
X135095Y298933
X209395Y297133
X209395Y317133
X249395Y318233
X249395Y298233
X289395Y298233
X289395Y318233
X317895Y317683
X327895Y317683
X337895Y317683
X343845Y301433
X323845Y301433
T03
X333795Y58933
X343795Y58933
X373795Y58933
X383795Y58933
X125095Y58933
X115095Y58933
X85095Y58933
X75095Y58933
T04
X196324Y58510
X212860Y58510
X229395Y58510
X245931Y58510
X262466Y58510
X262466Y36856
X245931Y36856
X229395Y36856
X212860Y36856
X196324Y36856
T05
X130995Y196688
X130995Y278578
X327895Y278578
X327895Y196688
T06
X280970Y56699
X177820Y56699
T07
X229446Y143293
X394800Y308648
X64091Y308648
M30
