G75*
%MOIN*%
%OFA0B0*%
%FSLAX25Y25*%
%IPPOS*%
%LPD*%
%AMOC8*
5,1,8,0,0,1.08239X$1,22.5*
%
%ADD10C,0.00000*%
%ADD11C,0.00600*%
%ADD12C,0.00500*%
%ADD13C,0.00400*%
%ADD14C,0.02400*%
%ADD15R,0.02400X0.03400*%
%ADD16C,0.00800*%
%ADD17C,0.02000*%
%ADD18R,0.42000X0.03000*%
%ADD19R,0.07500X0.02000*%
%ADD20R,0.03000X0.02000*%
%ADD21R,0.02000X0.10000*%
%ADD22R,0.09000X0.02500*%
%ADD23R,0.15000X0.03200*%
%ADD24R,0.13000X0.02000*%
%ADD25R,0.03200X0.15000*%
%ADD26C,0.01000*%
D10*
X0032595Y0025183D02*
X0032595Y0338175D01*
X0424327Y0338175D01*
X0424327Y0025183D01*
X0032595Y0025183D01*
X0171914Y0056699D02*
X0171916Y0056852D01*
X0171922Y0057006D01*
X0171932Y0057159D01*
X0171946Y0057311D01*
X0171964Y0057464D01*
X0171986Y0057615D01*
X0172011Y0057766D01*
X0172041Y0057917D01*
X0172075Y0058067D01*
X0172112Y0058215D01*
X0172153Y0058363D01*
X0172198Y0058509D01*
X0172247Y0058655D01*
X0172300Y0058799D01*
X0172356Y0058941D01*
X0172416Y0059082D01*
X0172480Y0059222D01*
X0172547Y0059360D01*
X0172618Y0059496D01*
X0172693Y0059630D01*
X0172770Y0059762D01*
X0172852Y0059892D01*
X0172936Y0060020D01*
X0173024Y0060146D01*
X0173115Y0060269D01*
X0173209Y0060390D01*
X0173307Y0060508D01*
X0173407Y0060624D01*
X0173511Y0060737D01*
X0173617Y0060848D01*
X0173726Y0060956D01*
X0173838Y0061061D01*
X0173952Y0061162D01*
X0174070Y0061261D01*
X0174189Y0061357D01*
X0174311Y0061450D01*
X0174436Y0061539D01*
X0174563Y0061626D01*
X0174692Y0061708D01*
X0174823Y0061788D01*
X0174956Y0061864D01*
X0175091Y0061937D01*
X0175228Y0062006D01*
X0175367Y0062071D01*
X0175507Y0062133D01*
X0175649Y0062191D01*
X0175792Y0062246D01*
X0175937Y0062297D01*
X0176083Y0062344D01*
X0176230Y0062387D01*
X0176378Y0062426D01*
X0176527Y0062462D01*
X0176677Y0062493D01*
X0176828Y0062521D01*
X0176979Y0062545D01*
X0177132Y0062565D01*
X0177284Y0062581D01*
X0177437Y0062593D01*
X0177590Y0062601D01*
X0177743Y0062605D01*
X0177897Y0062605D01*
X0178050Y0062601D01*
X0178203Y0062593D01*
X0178356Y0062581D01*
X0178508Y0062565D01*
X0178661Y0062545D01*
X0178812Y0062521D01*
X0178963Y0062493D01*
X0179113Y0062462D01*
X0179262Y0062426D01*
X0179410Y0062387D01*
X0179557Y0062344D01*
X0179703Y0062297D01*
X0179848Y0062246D01*
X0179991Y0062191D01*
X0180133Y0062133D01*
X0180273Y0062071D01*
X0180412Y0062006D01*
X0180549Y0061937D01*
X0180684Y0061864D01*
X0180817Y0061788D01*
X0180948Y0061708D01*
X0181077Y0061626D01*
X0181204Y0061539D01*
X0181329Y0061450D01*
X0181451Y0061357D01*
X0181570Y0061261D01*
X0181688Y0061162D01*
X0181802Y0061061D01*
X0181914Y0060956D01*
X0182023Y0060848D01*
X0182129Y0060737D01*
X0182233Y0060624D01*
X0182333Y0060508D01*
X0182431Y0060390D01*
X0182525Y0060269D01*
X0182616Y0060146D01*
X0182704Y0060020D01*
X0182788Y0059892D01*
X0182870Y0059762D01*
X0182947Y0059630D01*
X0183022Y0059496D01*
X0183093Y0059360D01*
X0183160Y0059222D01*
X0183224Y0059082D01*
X0183284Y0058941D01*
X0183340Y0058799D01*
X0183393Y0058655D01*
X0183442Y0058509D01*
X0183487Y0058363D01*
X0183528Y0058215D01*
X0183565Y0058067D01*
X0183599Y0057917D01*
X0183629Y0057766D01*
X0183654Y0057615D01*
X0183676Y0057464D01*
X0183694Y0057311D01*
X0183708Y0057159D01*
X0183718Y0057006D01*
X0183724Y0056852D01*
X0183726Y0056699D01*
X0183724Y0056546D01*
X0183718Y0056392D01*
X0183708Y0056239D01*
X0183694Y0056087D01*
X0183676Y0055934D01*
X0183654Y0055783D01*
X0183629Y0055632D01*
X0183599Y0055481D01*
X0183565Y0055331D01*
X0183528Y0055183D01*
X0183487Y0055035D01*
X0183442Y0054889D01*
X0183393Y0054743D01*
X0183340Y0054599D01*
X0183284Y0054457D01*
X0183224Y0054316D01*
X0183160Y0054176D01*
X0183093Y0054038D01*
X0183022Y0053902D01*
X0182947Y0053768D01*
X0182870Y0053636D01*
X0182788Y0053506D01*
X0182704Y0053378D01*
X0182616Y0053252D01*
X0182525Y0053129D01*
X0182431Y0053008D01*
X0182333Y0052890D01*
X0182233Y0052774D01*
X0182129Y0052661D01*
X0182023Y0052550D01*
X0181914Y0052442D01*
X0181802Y0052337D01*
X0181688Y0052236D01*
X0181570Y0052137D01*
X0181451Y0052041D01*
X0181329Y0051948D01*
X0181204Y0051859D01*
X0181077Y0051772D01*
X0180948Y0051690D01*
X0180817Y0051610D01*
X0180684Y0051534D01*
X0180549Y0051461D01*
X0180412Y0051392D01*
X0180273Y0051327D01*
X0180133Y0051265D01*
X0179991Y0051207D01*
X0179848Y0051152D01*
X0179703Y0051101D01*
X0179557Y0051054D01*
X0179410Y0051011D01*
X0179262Y0050972D01*
X0179113Y0050936D01*
X0178963Y0050905D01*
X0178812Y0050877D01*
X0178661Y0050853D01*
X0178508Y0050833D01*
X0178356Y0050817D01*
X0178203Y0050805D01*
X0178050Y0050797D01*
X0177897Y0050793D01*
X0177743Y0050793D01*
X0177590Y0050797D01*
X0177437Y0050805D01*
X0177284Y0050817D01*
X0177132Y0050833D01*
X0176979Y0050853D01*
X0176828Y0050877D01*
X0176677Y0050905D01*
X0176527Y0050936D01*
X0176378Y0050972D01*
X0176230Y0051011D01*
X0176083Y0051054D01*
X0175937Y0051101D01*
X0175792Y0051152D01*
X0175649Y0051207D01*
X0175507Y0051265D01*
X0175367Y0051327D01*
X0175228Y0051392D01*
X0175091Y0051461D01*
X0174956Y0051534D01*
X0174823Y0051610D01*
X0174692Y0051690D01*
X0174563Y0051772D01*
X0174436Y0051859D01*
X0174311Y0051948D01*
X0174189Y0052041D01*
X0174070Y0052137D01*
X0173952Y0052236D01*
X0173838Y0052337D01*
X0173726Y0052442D01*
X0173617Y0052550D01*
X0173511Y0052661D01*
X0173407Y0052774D01*
X0173307Y0052890D01*
X0173209Y0053008D01*
X0173115Y0053129D01*
X0173024Y0053252D01*
X0172936Y0053378D01*
X0172852Y0053506D01*
X0172770Y0053636D01*
X0172693Y0053768D01*
X0172618Y0053902D01*
X0172547Y0054038D01*
X0172480Y0054176D01*
X0172416Y0054316D01*
X0172356Y0054457D01*
X0172300Y0054599D01*
X0172247Y0054743D01*
X0172198Y0054889D01*
X0172153Y0055035D01*
X0172112Y0055183D01*
X0172075Y0055331D01*
X0172041Y0055481D01*
X0172011Y0055632D01*
X0171986Y0055783D01*
X0171964Y0055934D01*
X0171946Y0056087D01*
X0171932Y0056239D01*
X0171922Y0056392D01*
X0171916Y0056546D01*
X0171914Y0056699D01*
X0223147Y0143293D02*
X0223149Y0143451D01*
X0223155Y0143609D01*
X0223165Y0143767D01*
X0223179Y0143925D01*
X0223197Y0144082D01*
X0223218Y0144239D01*
X0223244Y0144395D01*
X0223274Y0144551D01*
X0223307Y0144706D01*
X0223345Y0144859D01*
X0223386Y0145012D01*
X0223431Y0145164D01*
X0223480Y0145315D01*
X0223533Y0145464D01*
X0223589Y0145612D01*
X0223649Y0145758D01*
X0223713Y0145903D01*
X0223781Y0146046D01*
X0223852Y0146188D01*
X0223926Y0146328D01*
X0224004Y0146465D01*
X0224086Y0146601D01*
X0224170Y0146735D01*
X0224259Y0146866D01*
X0224350Y0146995D01*
X0224445Y0147122D01*
X0224542Y0147247D01*
X0224643Y0147369D01*
X0224747Y0147488D01*
X0224854Y0147605D01*
X0224964Y0147719D01*
X0225077Y0147830D01*
X0225192Y0147939D01*
X0225310Y0148044D01*
X0225431Y0148146D01*
X0225554Y0148246D01*
X0225680Y0148342D01*
X0225808Y0148435D01*
X0225938Y0148525D01*
X0226071Y0148611D01*
X0226206Y0148695D01*
X0226342Y0148774D01*
X0226481Y0148851D01*
X0226622Y0148923D01*
X0226764Y0148993D01*
X0226908Y0149058D01*
X0227054Y0149120D01*
X0227201Y0149178D01*
X0227350Y0149233D01*
X0227500Y0149284D01*
X0227651Y0149331D01*
X0227803Y0149374D01*
X0227956Y0149413D01*
X0228111Y0149449D01*
X0228266Y0149480D01*
X0228422Y0149508D01*
X0228578Y0149532D01*
X0228735Y0149552D01*
X0228893Y0149568D01*
X0229050Y0149580D01*
X0229209Y0149588D01*
X0229367Y0149592D01*
X0229525Y0149592D01*
X0229683Y0149588D01*
X0229842Y0149580D01*
X0229999Y0149568D01*
X0230157Y0149552D01*
X0230314Y0149532D01*
X0230470Y0149508D01*
X0230626Y0149480D01*
X0230781Y0149449D01*
X0230936Y0149413D01*
X0231089Y0149374D01*
X0231241Y0149331D01*
X0231392Y0149284D01*
X0231542Y0149233D01*
X0231691Y0149178D01*
X0231838Y0149120D01*
X0231984Y0149058D01*
X0232128Y0148993D01*
X0232270Y0148923D01*
X0232411Y0148851D01*
X0232550Y0148774D01*
X0232686Y0148695D01*
X0232821Y0148611D01*
X0232954Y0148525D01*
X0233084Y0148435D01*
X0233212Y0148342D01*
X0233338Y0148246D01*
X0233461Y0148146D01*
X0233582Y0148044D01*
X0233700Y0147939D01*
X0233815Y0147830D01*
X0233928Y0147719D01*
X0234038Y0147605D01*
X0234145Y0147488D01*
X0234249Y0147369D01*
X0234350Y0147247D01*
X0234447Y0147122D01*
X0234542Y0146995D01*
X0234633Y0146866D01*
X0234722Y0146735D01*
X0234806Y0146601D01*
X0234888Y0146465D01*
X0234966Y0146328D01*
X0235040Y0146188D01*
X0235111Y0146046D01*
X0235179Y0145903D01*
X0235243Y0145758D01*
X0235303Y0145612D01*
X0235359Y0145464D01*
X0235412Y0145315D01*
X0235461Y0145164D01*
X0235506Y0145012D01*
X0235547Y0144859D01*
X0235585Y0144706D01*
X0235618Y0144551D01*
X0235648Y0144395D01*
X0235674Y0144239D01*
X0235695Y0144082D01*
X0235713Y0143925D01*
X0235727Y0143767D01*
X0235737Y0143609D01*
X0235743Y0143451D01*
X0235745Y0143293D01*
X0235743Y0143135D01*
X0235737Y0142977D01*
X0235727Y0142819D01*
X0235713Y0142661D01*
X0235695Y0142504D01*
X0235674Y0142347D01*
X0235648Y0142191D01*
X0235618Y0142035D01*
X0235585Y0141880D01*
X0235547Y0141727D01*
X0235506Y0141574D01*
X0235461Y0141422D01*
X0235412Y0141271D01*
X0235359Y0141122D01*
X0235303Y0140974D01*
X0235243Y0140828D01*
X0235179Y0140683D01*
X0235111Y0140540D01*
X0235040Y0140398D01*
X0234966Y0140258D01*
X0234888Y0140121D01*
X0234806Y0139985D01*
X0234722Y0139851D01*
X0234633Y0139720D01*
X0234542Y0139591D01*
X0234447Y0139464D01*
X0234350Y0139339D01*
X0234249Y0139217D01*
X0234145Y0139098D01*
X0234038Y0138981D01*
X0233928Y0138867D01*
X0233815Y0138756D01*
X0233700Y0138647D01*
X0233582Y0138542D01*
X0233461Y0138440D01*
X0233338Y0138340D01*
X0233212Y0138244D01*
X0233084Y0138151D01*
X0232954Y0138061D01*
X0232821Y0137975D01*
X0232686Y0137891D01*
X0232550Y0137812D01*
X0232411Y0137735D01*
X0232270Y0137663D01*
X0232128Y0137593D01*
X0231984Y0137528D01*
X0231838Y0137466D01*
X0231691Y0137408D01*
X0231542Y0137353D01*
X0231392Y0137302D01*
X0231241Y0137255D01*
X0231089Y0137212D01*
X0230936Y0137173D01*
X0230781Y0137137D01*
X0230626Y0137106D01*
X0230470Y0137078D01*
X0230314Y0137054D01*
X0230157Y0137034D01*
X0229999Y0137018D01*
X0229842Y0137006D01*
X0229683Y0136998D01*
X0229525Y0136994D01*
X0229367Y0136994D01*
X0229209Y0136998D01*
X0229050Y0137006D01*
X0228893Y0137018D01*
X0228735Y0137034D01*
X0228578Y0137054D01*
X0228422Y0137078D01*
X0228266Y0137106D01*
X0228111Y0137137D01*
X0227956Y0137173D01*
X0227803Y0137212D01*
X0227651Y0137255D01*
X0227500Y0137302D01*
X0227350Y0137353D01*
X0227201Y0137408D01*
X0227054Y0137466D01*
X0226908Y0137528D01*
X0226764Y0137593D01*
X0226622Y0137663D01*
X0226481Y0137735D01*
X0226342Y0137812D01*
X0226206Y0137891D01*
X0226071Y0137975D01*
X0225938Y0138061D01*
X0225808Y0138151D01*
X0225680Y0138244D01*
X0225554Y0138340D01*
X0225431Y0138440D01*
X0225310Y0138542D01*
X0225192Y0138647D01*
X0225077Y0138756D01*
X0224964Y0138867D01*
X0224854Y0138981D01*
X0224747Y0139098D01*
X0224643Y0139217D01*
X0224542Y0139339D01*
X0224445Y0139464D01*
X0224350Y0139591D01*
X0224259Y0139720D01*
X0224170Y0139851D01*
X0224086Y0139985D01*
X0224004Y0140121D01*
X0223926Y0140258D01*
X0223852Y0140398D01*
X0223781Y0140540D01*
X0223713Y0140683D01*
X0223649Y0140828D01*
X0223589Y0140974D01*
X0223533Y0141122D01*
X0223480Y0141271D01*
X0223431Y0141422D01*
X0223386Y0141574D01*
X0223345Y0141727D01*
X0223307Y0141880D01*
X0223274Y0142035D01*
X0223244Y0142191D01*
X0223218Y0142347D01*
X0223197Y0142504D01*
X0223179Y0142661D01*
X0223165Y0142819D01*
X0223155Y0142977D01*
X0223149Y0143135D01*
X0223147Y0143293D01*
X0275064Y0056699D02*
X0275066Y0056852D01*
X0275072Y0057006D01*
X0275082Y0057159D01*
X0275096Y0057311D01*
X0275114Y0057464D01*
X0275136Y0057615D01*
X0275161Y0057766D01*
X0275191Y0057917D01*
X0275225Y0058067D01*
X0275262Y0058215D01*
X0275303Y0058363D01*
X0275348Y0058509D01*
X0275397Y0058655D01*
X0275450Y0058799D01*
X0275506Y0058941D01*
X0275566Y0059082D01*
X0275630Y0059222D01*
X0275697Y0059360D01*
X0275768Y0059496D01*
X0275843Y0059630D01*
X0275920Y0059762D01*
X0276002Y0059892D01*
X0276086Y0060020D01*
X0276174Y0060146D01*
X0276265Y0060269D01*
X0276359Y0060390D01*
X0276457Y0060508D01*
X0276557Y0060624D01*
X0276661Y0060737D01*
X0276767Y0060848D01*
X0276876Y0060956D01*
X0276988Y0061061D01*
X0277102Y0061162D01*
X0277220Y0061261D01*
X0277339Y0061357D01*
X0277461Y0061450D01*
X0277586Y0061539D01*
X0277713Y0061626D01*
X0277842Y0061708D01*
X0277973Y0061788D01*
X0278106Y0061864D01*
X0278241Y0061937D01*
X0278378Y0062006D01*
X0278517Y0062071D01*
X0278657Y0062133D01*
X0278799Y0062191D01*
X0278942Y0062246D01*
X0279087Y0062297D01*
X0279233Y0062344D01*
X0279380Y0062387D01*
X0279528Y0062426D01*
X0279677Y0062462D01*
X0279827Y0062493D01*
X0279978Y0062521D01*
X0280129Y0062545D01*
X0280282Y0062565D01*
X0280434Y0062581D01*
X0280587Y0062593D01*
X0280740Y0062601D01*
X0280893Y0062605D01*
X0281047Y0062605D01*
X0281200Y0062601D01*
X0281353Y0062593D01*
X0281506Y0062581D01*
X0281658Y0062565D01*
X0281811Y0062545D01*
X0281962Y0062521D01*
X0282113Y0062493D01*
X0282263Y0062462D01*
X0282412Y0062426D01*
X0282560Y0062387D01*
X0282707Y0062344D01*
X0282853Y0062297D01*
X0282998Y0062246D01*
X0283141Y0062191D01*
X0283283Y0062133D01*
X0283423Y0062071D01*
X0283562Y0062006D01*
X0283699Y0061937D01*
X0283834Y0061864D01*
X0283967Y0061788D01*
X0284098Y0061708D01*
X0284227Y0061626D01*
X0284354Y0061539D01*
X0284479Y0061450D01*
X0284601Y0061357D01*
X0284720Y0061261D01*
X0284838Y0061162D01*
X0284952Y0061061D01*
X0285064Y0060956D01*
X0285173Y0060848D01*
X0285279Y0060737D01*
X0285383Y0060624D01*
X0285483Y0060508D01*
X0285581Y0060390D01*
X0285675Y0060269D01*
X0285766Y0060146D01*
X0285854Y0060020D01*
X0285938Y0059892D01*
X0286020Y0059762D01*
X0286097Y0059630D01*
X0286172Y0059496D01*
X0286243Y0059360D01*
X0286310Y0059222D01*
X0286374Y0059082D01*
X0286434Y0058941D01*
X0286490Y0058799D01*
X0286543Y0058655D01*
X0286592Y0058509D01*
X0286637Y0058363D01*
X0286678Y0058215D01*
X0286715Y0058067D01*
X0286749Y0057917D01*
X0286779Y0057766D01*
X0286804Y0057615D01*
X0286826Y0057464D01*
X0286844Y0057311D01*
X0286858Y0057159D01*
X0286868Y0057006D01*
X0286874Y0056852D01*
X0286876Y0056699D01*
X0286874Y0056546D01*
X0286868Y0056392D01*
X0286858Y0056239D01*
X0286844Y0056087D01*
X0286826Y0055934D01*
X0286804Y0055783D01*
X0286779Y0055632D01*
X0286749Y0055481D01*
X0286715Y0055331D01*
X0286678Y0055183D01*
X0286637Y0055035D01*
X0286592Y0054889D01*
X0286543Y0054743D01*
X0286490Y0054599D01*
X0286434Y0054457D01*
X0286374Y0054316D01*
X0286310Y0054176D01*
X0286243Y0054038D01*
X0286172Y0053902D01*
X0286097Y0053768D01*
X0286020Y0053636D01*
X0285938Y0053506D01*
X0285854Y0053378D01*
X0285766Y0053252D01*
X0285675Y0053129D01*
X0285581Y0053008D01*
X0285483Y0052890D01*
X0285383Y0052774D01*
X0285279Y0052661D01*
X0285173Y0052550D01*
X0285064Y0052442D01*
X0284952Y0052337D01*
X0284838Y0052236D01*
X0284720Y0052137D01*
X0284601Y0052041D01*
X0284479Y0051948D01*
X0284354Y0051859D01*
X0284227Y0051772D01*
X0284098Y0051690D01*
X0283967Y0051610D01*
X0283834Y0051534D01*
X0283699Y0051461D01*
X0283562Y0051392D01*
X0283423Y0051327D01*
X0283283Y0051265D01*
X0283141Y0051207D01*
X0282998Y0051152D01*
X0282853Y0051101D01*
X0282707Y0051054D01*
X0282560Y0051011D01*
X0282412Y0050972D01*
X0282263Y0050936D01*
X0282113Y0050905D01*
X0281962Y0050877D01*
X0281811Y0050853D01*
X0281658Y0050833D01*
X0281506Y0050817D01*
X0281353Y0050805D01*
X0281200Y0050797D01*
X0281047Y0050793D01*
X0280893Y0050793D01*
X0280740Y0050797D01*
X0280587Y0050805D01*
X0280434Y0050817D01*
X0280282Y0050833D01*
X0280129Y0050853D01*
X0279978Y0050877D01*
X0279827Y0050905D01*
X0279677Y0050936D01*
X0279528Y0050972D01*
X0279380Y0051011D01*
X0279233Y0051054D01*
X0279087Y0051101D01*
X0278942Y0051152D01*
X0278799Y0051207D01*
X0278657Y0051265D01*
X0278517Y0051327D01*
X0278378Y0051392D01*
X0278241Y0051461D01*
X0278106Y0051534D01*
X0277973Y0051610D01*
X0277842Y0051690D01*
X0277713Y0051772D01*
X0277586Y0051859D01*
X0277461Y0051948D01*
X0277339Y0052041D01*
X0277220Y0052137D01*
X0277102Y0052236D01*
X0276988Y0052337D01*
X0276876Y0052442D01*
X0276767Y0052550D01*
X0276661Y0052661D01*
X0276557Y0052774D01*
X0276457Y0052890D01*
X0276359Y0053008D01*
X0276265Y0053129D01*
X0276174Y0053252D01*
X0276086Y0053378D01*
X0276002Y0053506D01*
X0275920Y0053636D01*
X0275843Y0053768D01*
X0275768Y0053902D01*
X0275697Y0054038D01*
X0275630Y0054176D01*
X0275566Y0054316D01*
X0275506Y0054457D01*
X0275450Y0054599D01*
X0275397Y0054743D01*
X0275348Y0054889D01*
X0275303Y0055035D01*
X0275262Y0055183D01*
X0275225Y0055331D01*
X0275191Y0055481D01*
X0275161Y0055632D01*
X0275136Y0055783D01*
X0275114Y0055934D01*
X0275096Y0056087D01*
X0275082Y0056239D01*
X0275072Y0056392D01*
X0275066Y0056546D01*
X0275064Y0056699D01*
X0388501Y0308648D02*
X0388503Y0308806D01*
X0388509Y0308964D01*
X0388519Y0309122D01*
X0388533Y0309280D01*
X0388551Y0309437D01*
X0388572Y0309594D01*
X0388598Y0309750D01*
X0388628Y0309906D01*
X0388661Y0310061D01*
X0388699Y0310214D01*
X0388740Y0310367D01*
X0388785Y0310519D01*
X0388834Y0310670D01*
X0388887Y0310819D01*
X0388943Y0310967D01*
X0389003Y0311113D01*
X0389067Y0311258D01*
X0389135Y0311401D01*
X0389206Y0311543D01*
X0389280Y0311683D01*
X0389358Y0311820D01*
X0389440Y0311956D01*
X0389524Y0312090D01*
X0389613Y0312221D01*
X0389704Y0312350D01*
X0389799Y0312477D01*
X0389896Y0312602D01*
X0389997Y0312724D01*
X0390101Y0312843D01*
X0390208Y0312960D01*
X0390318Y0313074D01*
X0390431Y0313185D01*
X0390546Y0313294D01*
X0390664Y0313399D01*
X0390785Y0313501D01*
X0390908Y0313601D01*
X0391034Y0313697D01*
X0391162Y0313790D01*
X0391292Y0313880D01*
X0391425Y0313966D01*
X0391560Y0314050D01*
X0391696Y0314129D01*
X0391835Y0314206D01*
X0391976Y0314278D01*
X0392118Y0314348D01*
X0392262Y0314413D01*
X0392408Y0314475D01*
X0392555Y0314533D01*
X0392704Y0314588D01*
X0392854Y0314639D01*
X0393005Y0314686D01*
X0393157Y0314729D01*
X0393310Y0314768D01*
X0393465Y0314804D01*
X0393620Y0314835D01*
X0393776Y0314863D01*
X0393932Y0314887D01*
X0394089Y0314907D01*
X0394247Y0314923D01*
X0394404Y0314935D01*
X0394563Y0314943D01*
X0394721Y0314947D01*
X0394879Y0314947D01*
X0395037Y0314943D01*
X0395196Y0314935D01*
X0395353Y0314923D01*
X0395511Y0314907D01*
X0395668Y0314887D01*
X0395824Y0314863D01*
X0395980Y0314835D01*
X0396135Y0314804D01*
X0396290Y0314768D01*
X0396443Y0314729D01*
X0396595Y0314686D01*
X0396746Y0314639D01*
X0396896Y0314588D01*
X0397045Y0314533D01*
X0397192Y0314475D01*
X0397338Y0314413D01*
X0397482Y0314348D01*
X0397624Y0314278D01*
X0397765Y0314206D01*
X0397904Y0314129D01*
X0398040Y0314050D01*
X0398175Y0313966D01*
X0398308Y0313880D01*
X0398438Y0313790D01*
X0398566Y0313697D01*
X0398692Y0313601D01*
X0398815Y0313501D01*
X0398936Y0313399D01*
X0399054Y0313294D01*
X0399169Y0313185D01*
X0399282Y0313074D01*
X0399392Y0312960D01*
X0399499Y0312843D01*
X0399603Y0312724D01*
X0399704Y0312602D01*
X0399801Y0312477D01*
X0399896Y0312350D01*
X0399987Y0312221D01*
X0400076Y0312090D01*
X0400160Y0311956D01*
X0400242Y0311820D01*
X0400320Y0311683D01*
X0400394Y0311543D01*
X0400465Y0311401D01*
X0400533Y0311258D01*
X0400597Y0311113D01*
X0400657Y0310967D01*
X0400713Y0310819D01*
X0400766Y0310670D01*
X0400815Y0310519D01*
X0400860Y0310367D01*
X0400901Y0310214D01*
X0400939Y0310061D01*
X0400972Y0309906D01*
X0401002Y0309750D01*
X0401028Y0309594D01*
X0401049Y0309437D01*
X0401067Y0309280D01*
X0401081Y0309122D01*
X0401091Y0308964D01*
X0401097Y0308806D01*
X0401099Y0308648D01*
X0401097Y0308490D01*
X0401091Y0308332D01*
X0401081Y0308174D01*
X0401067Y0308016D01*
X0401049Y0307859D01*
X0401028Y0307702D01*
X0401002Y0307546D01*
X0400972Y0307390D01*
X0400939Y0307235D01*
X0400901Y0307082D01*
X0400860Y0306929D01*
X0400815Y0306777D01*
X0400766Y0306626D01*
X0400713Y0306477D01*
X0400657Y0306329D01*
X0400597Y0306183D01*
X0400533Y0306038D01*
X0400465Y0305895D01*
X0400394Y0305753D01*
X0400320Y0305613D01*
X0400242Y0305476D01*
X0400160Y0305340D01*
X0400076Y0305206D01*
X0399987Y0305075D01*
X0399896Y0304946D01*
X0399801Y0304819D01*
X0399704Y0304694D01*
X0399603Y0304572D01*
X0399499Y0304453D01*
X0399392Y0304336D01*
X0399282Y0304222D01*
X0399169Y0304111D01*
X0399054Y0304002D01*
X0398936Y0303897D01*
X0398815Y0303795D01*
X0398692Y0303695D01*
X0398566Y0303599D01*
X0398438Y0303506D01*
X0398308Y0303416D01*
X0398175Y0303330D01*
X0398040Y0303246D01*
X0397904Y0303167D01*
X0397765Y0303090D01*
X0397624Y0303018D01*
X0397482Y0302948D01*
X0397338Y0302883D01*
X0397192Y0302821D01*
X0397045Y0302763D01*
X0396896Y0302708D01*
X0396746Y0302657D01*
X0396595Y0302610D01*
X0396443Y0302567D01*
X0396290Y0302528D01*
X0396135Y0302492D01*
X0395980Y0302461D01*
X0395824Y0302433D01*
X0395668Y0302409D01*
X0395511Y0302389D01*
X0395353Y0302373D01*
X0395196Y0302361D01*
X0395037Y0302353D01*
X0394879Y0302349D01*
X0394721Y0302349D01*
X0394563Y0302353D01*
X0394404Y0302361D01*
X0394247Y0302373D01*
X0394089Y0302389D01*
X0393932Y0302409D01*
X0393776Y0302433D01*
X0393620Y0302461D01*
X0393465Y0302492D01*
X0393310Y0302528D01*
X0393157Y0302567D01*
X0393005Y0302610D01*
X0392854Y0302657D01*
X0392704Y0302708D01*
X0392555Y0302763D01*
X0392408Y0302821D01*
X0392262Y0302883D01*
X0392118Y0302948D01*
X0391976Y0303018D01*
X0391835Y0303090D01*
X0391696Y0303167D01*
X0391560Y0303246D01*
X0391425Y0303330D01*
X0391292Y0303416D01*
X0391162Y0303506D01*
X0391034Y0303599D01*
X0390908Y0303695D01*
X0390785Y0303795D01*
X0390664Y0303897D01*
X0390546Y0304002D01*
X0390431Y0304111D01*
X0390318Y0304222D01*
X0390208Y0304336D01*
X0390101Y0304453D01*
X0389997Y0304572D01*
X0389896Y0304694D01*
X0389799Y0304819D01*
X0389704Y0304946D01*
X0389613Y0305075D01*
X0389524Y0305206D01*
X0389440Y0305340D01*
X0389358Y0305476D01*
X0389280Y0305613D01*
X0389206Y0305753D01*
X0389135Y0305895D01*
X0389067Y0306038D01*
X0389003Y0306183D01*
X0388943Y0306329D01*
X0388887Y0306477D01*
X0388834Y0306626D01*
X0388785Y0306777D01*
X0388740Y0306929D01*
X0388699Y0307082D01*
X0388661Y0307235D01*
X0388628Y0307390D01*
X0388598Y0307546D01*
X0388572Y0307702D01*
X0388551Y0307859D01*
X0388533Y0308016D01*
X0388519Y0308174D01*
X0388509Y0308332D01*
X0388503Y0308490D01*
X0388501Y0308648D01*
X0057792Y0308648D02*
X0057794Y0308806D01*
X0057800Y0308964D01*
X0057810Y0309122D01*
X0057824Y0309280D01*
X0057842Y0309437D01*
X0057863Y0309594D01*
X0057889Y0309750D01*
X0057919Y0309906D01*
X0057952Y0310061D01*
X0057990Y0310214D01*
X0058031Y0310367D01*
X0058076Y0310519D01*
X0058125Y0310670D01*
X0058178Y0310819D01*
X0058234Y0310967D01*
X0058294Y0311113D01*
X0058358Y0311258D01*
X0058426Y0311401D01*
X0058497Y0311543D01*
X0058571Y0311683D01*
X0058649Y0311820D01*
X0058731Y0311956D01*
X0058815Y0312090D01*
X0058904Y0312221D01*
X0058995Y0312350D01*
X0059090Y0312477D01*
X0059187Y0312602D01*
X0059288Y0312724D01*
X0059392Y0312843D01*
X0059499Y0312960D01*
X0059609Y0313074D01*
X0059722Y0313185D01*
X0059837Y0313294D01*
X0059955Y0313399D01*
X0060076Y0313501D01*
X0060199Y0313601D01*
X0060325Y0313697D01*
X0060453Y0313790D01*
X0060583Y0313880D01*
X0060716Y0313966D01*
X0060851Y0314050D01*
X0060987Y0314129D01*
X0061126Y0314206D01*
X0061267Y0314278D01*
X0061409Y0314348D01*
X0061553Y0314413D01*
X0061699Y0314475D01*
X0061846Y0314533D01*
X0061995Y0314588D01*
X0062145Y0314639D01*
X0062296Y0314686D01*
X0062448Y0314729D01*
X0062601Y0314768D01*
X0062756Y0314804D01*
X0062911Y0314835D01*
X0063067Y0314863D01*
X0063223Y0314887D01*
X0063380Y0314907D01*
X0063538Y0314923D01*
X0063695Y0314935D01*
X0063854Y0314943D01*
X0064012Y0314947D01*
X0064170Y0314947D01*
X0064328Y0314943D01*
X0064487Y0314935D01*
X0064644Y0314923D01*
X0064802Y0314907D01*
X0064959Y0314887D01*
X0065115Y0314863D01*
X0065271Y0314835D01*
X0065426Y0314804D01*
X0065581Y0314768D01*
X0065734Y0314729D01*
X0065886Y0314686D01*
X0066037Y0314639D01*
X0066187Y0314588D01*
X0066336Y0314533D01*
X0066483Y0314475D01*
X0066629Y0314413D01*
X0066773Y0314348D01*
X0066915Y0314278D01*
X0067056Y0314206D01*
X0067195Y0314129D01*
X0067331Y0314050D01*
X0067466Y0313966D01*
X0067599Y0313880D01*
X0067729Y0313790D01*
X0067857Y0313697D01*
X0067983Y0313601D01*
X0068106Y0313501D01*
X0068227Y0313399D01*
X0068345Y0313294D01*
X0068460Y0313185D01*
X0068573Y0313074D01*
X0068683Y0312960D01*
X0068790Y0312843D01*
X0068894Y0312724D01*
X0068995Y0312602D01*
X0069092Y0312477D01*
X0069187Y0312350D01*
X0069278Y0312221D01*
X0069367Y0312090D01*
X0069451Y0311956D01*
X0069533Y0311820D01*
X0069611Y0311683D01*
X0069685Y0311543D01*
X0069756Y0311401D01*
X0069824Y0311258D01*
X0069888Y0311113D01*
X0069948Y0310967D01*
X0070004Y0310819D01*
X0070057Y0310670D01*
X0070106Y0310519D01*
X0070151Y0310367D01*
X0070192Y0310214D01*
X0070230Y0310061D01*
X0070263Y0309906D01*
X0070293Y0309750D01*
X0070319Y0309594D01*
X0070340Y0309437D01*
X0070358Y0309280D01*
X0070372Y0309122D01*
X0070382Y0308964D01*
X0070388Y0308806D01*
X0070390Y0308648D01*
X0070388Y0308490D01*
X0070382Y0308332D01*
X0070372Y0308174D01*
X0070358Y0308016D01*
X0070340Y0307859D01*
X0070319Y0307702D01*
X0070293Y0307546D01*
X0070263Y0307390D01*
X0070230Y0307235D01*
X0070192Y0307082D01*
X0070151Y0306929D01*
X0070106Y0306777D01*
X0070057Y0306626D01*
X0070004Y0306477D01*
X0069948Y0306329D01*
X0069888Y0306183D01*
X0069824Y0306038D01*
X0069756Y0305895D01*
X0069685Y0305753D01*
X0069611Y0305613D01*
X0069533Y0305476D01*
X0069451Y0305340D01*
X0069367Y0305206D01*
X0069278Y0305075D01*
X0069187Y0304946D01*
X0069092Y0304819D01*
X0068995Y0304694D01*
X0068894Y0304572D01*
X0068790Y0304453D01*
X0068683Y0304336D01*
X0068573Y0304222D01*
X0068460Y0304111D01*
X0068345Y0304002D01*
X0068227Y0303897D01*
X0068106Y0303795D01*
X0067983Y0303695D01*
X0067857Y0303599D01*
X0067729Y0303506D01*
X0067599Y0303416D01*
X0067466Y0303330D01*
X0067331Y0303246D01*
X0067195Y0303167D01*
X0067056Y0303090D01*
X0066915Y0303018D01*
X0066773Y0302948D01*
X0066629Y0302883D01*
X0066483Y0302821D01*
X0066336Y0302763D01*
X0066187Y0302708D01*
X0066037Y0302657D01*
X0065886Y0302610D01*
X0065734Y0302567D01*
X0065581Y0302528D01*
X0065426Y0302492D01*
X0065271Y0302461D01*
X0065115Y0302433D01*
X0064959Y0302409D01*
X0064802Y0302389D01*
X0064644Y0302373D01*
X0064487Y0302361D01*
X0064328Y0302353D01*
X0064170Y0302349D01*
X0064012Y0302349D01*
X0063854Y0302353D01*
X0063695Y0302361D01*
X0063538Y0302373D01*
X0063380Y0302389D01*
X0063223Y0302409D01*
X0063067Y0302433D01*
X0062911Y0302461D01*
X0062756Y0302492D01*
X0062601Y0302528D01*
X0062448Y0302567D01*
X0062296Y0302610D01*
X0062145Y0302657D01*
X0061995Y0302708D01*
X0061846Y0302763D01*
X0061699Y0302821D01*
X0061553Y0302883D01*
X0061409Y0302948D01*
X0061267Y0303018D01*
X0061126Y0303090D01*
X0060987Y0303167D01*
X0060851Y0303246D01*
X0060716Y0303330D01*
X0060583Y0303416D01*
X0060453Y0303506D01*
X0060325Y0303599D01*
X0060199Y0303695D01*
X0060076Y0303795D01*
X0059955Y0303897D01*
X0059837Y0304002D01*
X0059722Y0304111D01*
X0059609Y0304222D01*
X0059499Y0304336D01*
X0059392Y0304453D01*
X0059288Y0304572D01*
X0059187Y0304694D01*
X0059090Y0304819D01*
X0058995Y0304946D01*
X0058904Y0305075D01*
X0058815Y0305206D01*
X0058731Y0305340D01*
X0058649Y0305476D01*
X0058571Y0305613D01*
X0058497Y0305753D01*
X0058426Y0305895D01*
X0058358Y0306038D01*
X0058294Y0306183D01*
X0058234Y0306329D01*
X0058178Y0306477D01*
X0058125Y0306626D01*
X0058076Y0306777D01*
X0058031Y0306929D01*
X0057990Y0307082D01*
X0057952Y0307235D01*
X0057919Y0307390D01*
X0057889Y0307546D01*
X0057863Y0307702D01*
X0057842Y0307859D01*
X0057824Y0308016D01*
X0057810Y0308174D01*
X0057800Y0308332D01*
X0057794Y0308490D01*
X0057792Y0308648D01*
D11*
X0105595Y0304933D02*
X0105095Y0293433D01*
X0105595Y0304933D02*
X0106595Y0305933D01*
X0143595Y0305933D01*
X0144595Y0304933D01*
X0145095Y0293433D01*
X0149495Y0310683D02*
X0112495Y0310683D01*
X0111495Y0311683D01*
X0110995Y0323183D01*
X0149495Y0310683D02*
X0150495Y0311683D01*
X0150995Y0323183D01*
X0164895Y0310633D02*
X0164895Y0308133D01*
X0173895Y0308133D01*
X0173895Y0310633D01*
X0169395Y0310633D01*
X0164895Y0310633D01*
X0169395Y0310633D02*
X0169395Y0311633D01*
X0151895Y0307133D02*
X0151900Y0307562D01*
X0151916Y0307992D01*
X0151942Y0308420D01*
X0151979Y0308848D01*
X0152027Y0309275D01*
X0152084Y0309701D01*
X0152153Y0310125D01*
X0152231Y0310547D01*
X0152320Y0310967D01*
X0152419Y0311385D01*
X0152529Y0311800D01*
X0152649Y0312213D01*
X0152778Y0312622D01*
X0152918Y0313029D01*
X0153068Y0313431D01*
X0153227Y0313830D01*
X0153396Y0314225D01*
X0153575Y0314615D01*
X0153764Y0315001D01*
X0153961Y0315382D01*
X0154168Y0315759D01*
X0154385Y0316130D01*
X0154610Y0316495D01*
X0154844Y0316855D01*
X0155087Y0317210D01*
X0155339Y0317558D01*
X0155599Y0317900D01*
X0155867Y0318235D01*
X0156144Y0318564D01*
X0156428Y0318885D01*
X0156721Y0319200D01*
X0157021Y0319507D01*
X0157328Y0319807D01*
X0157643Y0320100D01*
X0157964Y0320384D01*
X0158293Y0320661D01*
X0158628Y0320929D01*
X0158970Y0321189D01*
X0159318Y0321441D01*
X0159673Y0321684D01*
X0160033Y0321918D01*
X0160398Y0322143D01*
X0160769Y0322360D01*
X0161146Y0322567D01*
X0161527Y0322764D01*
X0161913Y0322953D01*
X0162303Y0323132D01*
X0162698Y0323301D01*
X0163097Y0323460D01*
X0163499Y0323610D01*
X0163906Y0323750D01*
X0164315Y0323879D01*
X0164728Y0323999D01*
X0165143Y0324109D01*
X0165561Y0324208D01*
X0165981Y0324297D01*
X0166403Y0324375D01*
X0166827Y0324444D01*
X0167253Y0324501D01*
X0167680Y0324549D01*
X0168108Y0324586D01*
X0168536Y0324612D01*
X0168966Y0324628D01*
X0169395Y0324633D01*
X0169824Y0324628D01*
X0170254Y0324612D01*
X0170682Y0324586D01*
X0171110Y0324549D01*
X0171537Y0324501D01*
X0171963Y0324444D01*
X0172387Y0324375D01*
X0172809Y0324297D01*
X0173229Y0324208D01*
X0173647Y0324109D01*
X0174062Y0323999D01*
X0174475Y0323879D01*
X0174884Y0323750D01*
X0175291Y0323610D01*
X0175693Y0323460D01*
X0176092Y0323301D01*
X0176487Y0323132D01*
X0176877Y0322953D01*
X0177263Y0322764D01*
X0177644Y0322567D01*
X0178021Y0322360D01*
X0178392Y0322143D01*
X0178757Y0321918D01*
X0179117Y0321684D01*
X0179472Y0321441D01*
X0179820Y0321189D01*
X0180162Y0320929D01*
X0180497Y0320661D01*
X0180826Y0320384D01*
X0181147Y0320100D01*
X0181462Y0319807D01*
X0181769Y0319507D01*
X0182069Y0319200D01*
X0182362Y0318885D01*
X0182646Y0318564D01*
X0182923Y0318235D01*
X0183191Y0317900D01*
X0183451Y0317558D01*
X0183703Y0317210D01*
X0183946Y0316855D01*
X0184180Y0316495D01*
X0184405Y0316130D01*
X0184622Y0315759D01*
X0184829Y0315382D01*
X0185026Y0315001D01*
X0185215Y0314615D01*
X0185394Y0314225D01*
X0185563Y0313830D01*
X0185722Y0313431D01*
X0185872Y0313029D01*
X0186012Y0312622D01*
X0186141Y0312213D01*
X0186261Y0311800D01*
X0186371Y0311385D01*
X0186470Y0310967D01*
X0186559Y0310547D01*
X0186637Y0310125D01*
X0186706Y0309701D01*
X0186763Y0309275D01*
X0186811Y0308848D01*
X0186848Y0308420D01*
X0186874Y0307992D01*
X0186890Y0307562D01*
X0186895Y0307133D01*
X0186890Y0306704D01*
X0186874Y0306274D01*
X0186848Y0305846D01*
X0186811Y0305418D01*
X0186763Y0304991D01*
X0186706Y0304565D01*
X0186637Y0304141D01*
X0186559Y0303719D01*
X0186470Y0303299D01*
X0186371Y0302881D01*
X0186261Y0302466D01*
X0186141Y0302053D01*
X0186012Y0301644D01*
X0185872Y0301237D01*
X0185722Y0300835D01*
X0185563Y0300436D01*
X0185394Y0300041D01*
X0185215Y0299651D01*
X0185026Y0299265D01*
X0184829Y0298884D01*
X0184622Y0298507D01*
X0184405Y0298136D01*
X0184180Y0297771D01*
X0183946Y0297411D01*
X0183703Y0297056D01*
X0183451Y0296708D01*
X0183191Y0296366D01*
X0182923Y0296031D01*
X0182646Y0295702D01*
X0182362Y0295381D01*
X0182069Y0295066D01*
X0181769Y0294759D01*
X0181462Y0294459D01*
X0181147Y0294166D01*
X0180826Y0293882D01*
X0180497Y0293605D01*
X0180162Y0293337D01*
X0179820Y0293077D01*
X0179472Y0292825D01*
X0179117Y0292582D01*
X0178757Y0292348D01*
X0178392Y0292123D01*
X0178021Y0291906D01*
X0177644Y0291699D01*
X0177263Y0291502D01*
X0176877Y0291313D01*
X0176487Y0291134D01*
X0176092Y0290965D01*
X0175693Y0290806D01*
X0175291Y0290656D01*
X0174884Y0290516D01*
X0174475Y0290387D01*
X0174062Y0290267D01*
X0173647Y0290157D01*
X0173229Y0290058D01*
X0172809Y0289969D01*
X0172387Y0289891D01*
X0171963Y0289822D01*
X0171537Y0289765D01*
X0171110Y0289717D01*
X0170682Y0289680D01*
X0170254Y0289654D01*
X0169824Y0289638D01*
X0169395Y0289633D01*
X0168966Y0289638D01*
X0168536Y0289654D01*
X0168108Y0289680D01*
X0167680Y0289717D01*
X0167253Y0289765D01*
X0166827Y0289822D01*
X0166403Y0289891D01*
X0165981Y0289969D01*
X0165561Y0290058D01*
X0165143Y0290157D01*
X0164728Y0290267D01*
X0164315Y0290387D01*
X0163906Y0290516D01*
X0163499Y0290656D01*
X0163097Y0290806D01*
X0162698Y0290965D01*
X0162303Y0291134D01*
X0161913Y0291313D01*
X0161527Y0291502D01*
X0161146Y0291699D01*
X0160769Y0291906D01*
X0160398Y0292123D01*
X0160033Y0292348D01*
X0159673Y0292582D01*
X0159318Y0292825D01*
X0158970Y0293077D01*
X0158628Y0293337D01*
X0158293Y0293605D01*
X0157964Y0293882D01*
X0157643Y0294166D01*
X0157328Y0294459D01*
X0157021Y0294759D01*
X0156721Y0295066D01*
X0156428Y0295381D01*
X0156144Y0295702D01*
X0155867Y0296031D01*
X0155599Y0296366D01*
X0155339Y0296708D01*
X0155087Y0297056D01*
X0154844Y0297411D01*
X0154610Y0297771D01*
X0154385Y0298136D01*
X0154168Y0298507D01*
X0153961Y0298884D01*
X0153764Y0299265D01*
X0153575Y0299651D01*
X0153396Y0300041D01*
X0153227Y0300436D01*
X0153068Y0300835D01*
X0152918Y0301237D01*
X0152778Y0301644D01*
X0152649Y0302053D01*
X0152529Y0302466D01*
X0152419Y0302881D01*
X0152320Y0303299D01*
X0152231Y0303719D01*
X0152153Y0304141D01*
X0152084Y0304565D01*
X0152027Y0304991D01*
X0151979Y0305418D01*
X0151942Y0305846D01*
X0151916Y0306274D01*
X0151900Y0306704D01*
X0151895Y0307133D01*
X0169395Y0304633D02*
X0169395Y0302633D01*
X0175895Y0318633D02*
X0175895Y0321633D01*
X0177395Y0320133D02*
X0174395Y0320133D01*
X0204895Y0310633D02*
X0204895Y0308133D01*
X0213895Y0308133D01*
X0213895Y0310633D01*
X0209395Y0310633D01*
X0204895Y0310633D01*
X0209395Y0310633D02*
X0209395Y0311633D01*
X0191895Y0307133D02*
X0191900Y0307562D01*
X0191916Y0307992D01*
X0191942Y0308420D01*
X0191979Y0308848D01*
X0192027Y0309275D01*
X0192084Y0309701D01*
X0192153Y0310125D01*
X0192231Y0310547D01*
X0192320Y0310967D01*
X0192419Y0311385D01*
X0192529Y0311800D01*
X0192649Y0312213D01*
X0192778Y0312622D01*
X0192918Y0313029D01*
X0193068Y0313431D01*
X0193227Y0313830D01*
X0193396Y0314225D01*
X0193575Y0314615D01*
X0193764Y0315001D01*
X0193961Y0315382D01*
X0194168Y0315759D01*
X0194385Y0316130D01*
X0194610Y0316495D01*
X0194844Y0316855D01*
X0195087Y0317210D01*
X0195339Y0317558D01*
X0195599Y0317900D01*
X0195867Y0318235D01*
X0196144Y0318564D01*
X0196428Y0318885D01*
X0196721Y0319200D01*
X0197021Y0319507D01*
X0197328Y0319807D01*
X0197643Y0320100D01*
X0197964Y0320384D01*
X0198293Y0320661D01*
X0198628Y0320929D01*
X0198970Y0321189D01*
X0199318Y0321441D01*
X0199673Y0321684D01*
X0200033Y0321918D01*
X0200398Y0322143D01*
X0200769Y0322360D01*
X0201146Y0322567D01*
X0201527Y0322764D01*
X0201913Y0322953D01*
X0202303Y0323132D01*
X0202698Y0323301D01*
X0203097Y0323460D01*
X0203499Y0323610D01*
X0203906Y0323750D01*
X0204315Y0323879D01*
X0204728Y0323999D01*
X0205143Y0324109D01*
X0205561Y0324208D01*
X0205981Y0324297D01*
X0206403Y0324375D01*
X0206827Y0324444D01*
X0207253Y0324501D01*
X0207680Y0324549D01*
X0208108Y0324586D01*
X0208536Y0324612D01*
X0208966Y0324628D01*
X0209395Y0324633D01*
X0209824Y0324628D01*
X0210254Y0324612D01*
X0210682Y0324586D01*
X0211110Y0324549D01*
X0211537Y0324501D01*
X0211963Y0324444D01*
X0212387Y0324375D01*
X0212809Y0324297D01*
X0213229Y0324208D01*
X0213647Y0324109D01*
X0214062Y0323999D01*
X0214475Y0323879D01*
X0214884Y0323750D01*
X0215291Y0323610D01*
X0215693Y0323460D01*
X0216092Y0323301D01*
X0216487Y0323132D01*
X0216877Y0322953D01*
X0217263Y0322764D01*
X0217644Y0322567D01*
X0218021Y0322360D01*
X0218392Y0322143D01*
X0218757Y0321918D01*
X0219117Y0321684D01*
X0219472Y0321441D01*
X0219820Y0321189D01*
X0220162Y0320929D01*
X0220497Y0320661D01*
X0220826Y0320384D01*
X0221147Y0320100D01*
X0221462Y0319807D01*
X0221769Y0319507D01*
X0222069Y0319200D01*
X0222362Y0318885D01*
X0222646Y0318564D01*
X0222923Y0318235D01*
X0223191Y0317900D01*
X0223451Y0317558D01*
X0223703Y0317210D01*
X0223946Y0316855D01*
X0224180Y0316495D01*
X0224405Y0316130D01*
X0224622Y0315759D01*
X0224829Y0315382D01*
X0225026Y0315001D01*
X0225215Y0314615D01*
X0225394Y0314225D01*
X0225563Y0313830D01*
X0225722Y0313431D01*
X0225872Y0313029D01*
X0226012Y0312622D01*
X0226141Y0312213D01*
X0226261Y0311800D01*
X0226371Y0311385D01*
X0226470Y0310967D01*
X0226559Y0310547D01*
X0226637Y0310125D01*
X0226706Y0309701D01*
X0226763Y0309275D01*
X0226811Y0308848D01*
X0226848Y0308420D01*
X0226874Y0307992D01*
X0226890Y0307562D01*
X0226895Y0307133D01*
X0226890Y0306704D01*
X0226874Y0306274D01*
X0226848Y0305846D01*
X0226811Y0305418D01*
X0226763Y0304991D01*
X0226706Y0304565D01*
X0226637Y0304141D01*
X0226559Y0303719D01*
X0226470Y0303299D01*
X0226371Y0302881D01*
X0226261Y0302466D01*
X0226141Y0302053D01*
X0226012Y0301644D01*
X0225872Y0301237D01*
X0225722Y0300835D01*
X0225563Y0300436D01*
X0225394Y0300041D01*
X0225215Y0299651D01*
X0225026Y0299265D01*
X0224829Y0298884D01*
X0224622Y0298507D01*
X0224405Y0298136D01*
X0224180Y0297771D01*
X0223946Y0297411D01*
X0223703Y0297056D01*
X0223451Y0296708D01*
X0223191Y0296366D01*
X0222923Y0296031D01*
X0222646Y0295702D01*
X0222362Y0295381D01*
X0222069Y0295066D01*
X0221769Y0294759D01*
X0221462Y0294459D01*
X0221147Y0294166D01*
X0220826Y0293882D01*
X0220497Y0293605D01*
X0220162Y0293337D01*
X0219820Y0293077D01*
X0219472Y0292825D01*
X0219117Y0292582D01*
X0218757Y0292348D01*
X0218392Y0292123D01*
X0218021Y0291906D01*
X0217644Y0291699D01*
X0217263Y0291502D01*
X0216877Y0291313D01*
X0216487Y0291134D01*
X0216092Y0290965D01*
X0215693Y0290806D01*
X0215291Y0290656D01*
X0214884Y0290516D01*
X0214475Y0290387D01*
X0214062Y0290267D01*
X0213647Y0290157D01*
X0213229Y0290058D01*
X0212809Y0289969D01*
X0212387Y0289891D01*
X0211963Y0289822D01*
X0211537Y0289765D01*
X0211110Y0289717D01*
X0210682Y0289680D01*
X0210254Y0289654D01*
X0209824Y0289638D01*
X0209395Y0289633D01*
X0208966Y0289638D01*
X0208536Y0289654D01*
X0208108Y0289680D01*
X0207680Y0289717D01*
X0207253Y0289765D01*
X0206827Y0289822D01*
X0206403Y0289891D01*
X0205981Y0289969D01*
X0205561Y0290058D01*
X0205143Y0290157D01*
X0204728Y0290267D01*
X0204315Y0290387D01*
X0203906Y0290516D01*
X0203499Y0290656D01*
X0203097Y0290806D01*
X0202698Y0290965D01*
X0202303Y0291134D01*
X0201913Y0291313D01*
X0201527Y0291502D01*
X0201146Y0291699D01*
X0200769Y0291906D01*
X0200398Y0292123D01*
X0200033Y0292348D01*
X0199673Y0292582D01*
X0199318Y0292825D01*
X0198970Y0293077D01*
X0198628Y0293337D01*
X0198293Y0293605D01*
X0197964Y0293882D01*
X0197643Y0294166D01*
X0197328Y0294459D01*
X0197021Y0294759D01*
X0196721Y0295066D01*
X0196428Y0295381D01*
X0196144Y0295702D01*
X0195867Y0296031D01*
X0195599Y0296366D01*
X0195339Y0296708D01*
X0195087Y0297056D01*
X0194844Y0297411D01*
X0194610Y0297771D01*
X0194385Y0298136D01*
X0194168Y0298507D01*
X0193961Y0298884D01*
X0193764Y0299265D01*
X0193575Y0299651D01*
X0193396Y0300041D01*
X0193227Y0300436D01*
X0193068Y0300835D01*
X0192918Y0301237D01*
X0192778Y0301644D01*
X0192649Y0302053D01*
X0192529Y0302466D01*
X0192419Y0302881D01*
X0192320Y0303299D01*
X0192231Y0303719D01*
X0192153Y0304141D01*
X0192084Y0304565D01*
X0192027Y0304991D01*
X0191979Y0305418D01*
X0191942Y0305846D01*
X0191916Y0306274D01*
X0191900Y0306704D01*
X0191895Y0307133D01*
X0209395Y0304633D02*
X0209395Y0302633D01*
X0215895Y0318633D02*
X0215895Y0321633D01*
X0217395Y0320133D02*
X0214395Y0320133D01*
X0244895Y0311733D02*
X0244895Y0309233D01*
X0253895Y0309233D01*
X0253895Y0311733D01*
X0249395Y0311733D01*
X0244895Y0311733D01*
X0249395Y0311733D02*
X0249395Y0312733D01*
X0231895Y0308233D02*
X0231900Y0308662D01*
X0231916Y0309092D01*
X0231942Y0309520D01*
X0231979Y0309948D01*
X0232027Y0310375D01*
X0232084Y0310801D01*
X0232153Y0311225D01*
X0232231Y0311647D01*
X0232320Y0312067D01*
X0232419Y0312485D01*
X0232529Y0312900D01*
X0232649Y0313313D01*
X0232778Y0313722D01*
X0232918Y0314129D01*
X0233068Y0314531D01*
X0233227Y0314930D01*
X0233396Y0315325D01*
X0233575Y0315715D01*
X0233764Y0316101D01*
X0233961Y0316482D01*
X0234168Y0316859D01*
X0234385Y0317230D01*
X0234610Y0317595D01*
X0234844Y0317955D01*
X0235087Y0318310D01*
X0235339Y0318658D01*
X0235599Y0319000D01*
X0235867Y0319335D01*
X0236144Y0319664D01*
X0236428Y0319985D01*
X0236721Y0320300D01*
X0237021Y0320607D01*
X0237328Y0320907D01*
X0237643Y0321200D01*
X0237964Y0321484D01*
X0238293Y0321761D01*
X0238628Y0322029D01*
X0238970Y0322289D01*
X0239318Y0322541D01*
X0239673Y0322784D01*
X0240033Y0323018D01*
X0240398Y0323243D01*
X0240769Y0323460D01*
X0241146Y0323667D01*
X0241527Y0323864D01*
X0241913Y0324053D01*
X0242303Y0324232D01*
X0242698Y0324401D01*
X0243097Y0324560D01*
X0243499Y0324710D01*
X0243906Y0324850D01*
X0244315Y0324979D01*
X0244728Y0325099D01*
X0245143Y0325209D01*
X0245561Y0325308D01*
X0245981Y0325397D01*
X0246403Y0325475D01*
X0246827Y0325544D01*
X0247253Y0325601D01*
X0247680Y0325649D01*
X0248108Y0325686D01*
X0248536Y0325712D01*
X0248966Y0325728D01*
X0249395Y0325733D01*
X0249824Y0325728D01*
X0250254Y0325712D01*
X0250682Y0325686D01*
X0251110Y0325649D01*
X0251537Y0325601D01*
X0251963Y0325544D01*
X0252387Y0325475D01*
X0252809Y0325397D01*
X0253229Y0325308D01*
X0253647Y0325209D01*
X0254062Y0325099D01*
X0254475Y0324979D01*
X0254884Y0324850D01*
X0255291Y0324710D01*
X0255693Y0324560D01*
X0256092Y0324401D01*
X0256487Y0324232D01*
X0256877Y0324053D01*
X0257263Y0323864D01*
X0257644Y0323667D01*
X0258021Y0323460D01*
X0258392Y0323243D01*
X0258757Y0323018D01*
X0259117Y0322784D01*
X0259472Y0322541D01*
X0259820Y0322289D01*
X0260162Y0322029D01*
X0260497Y0321761D01*
X0260826Y0321484D01*
X0261147Y0321200D01*
X0261462Y0320907D01*
X0261769Y0320607D01*
X0262069Y0320300D01*
X0262362Y0319985D01*
X0262646Y0319664D01*
X0262923Y0319335D01*
X0263191Y0319000D01*
X0263451Y0318658D01*
X0263703Y0318310D01*
X0263946Y0317955D01*
X0264180Y0317595D01*
X0264405Y0317230D01*
X0264622Y0316859D01*
X0264829Y0316482D01*
X0265026Y0316101D01*
X0265215Y0315715D01*
X0265394Y0315325D01*
X0265563Y0314930D01*
X0265722Y0314531D01*
X0265872Y0314129D01*
X0266012Y0313722D01*
X0266141Y0313313D01*
X0266261Y0312900D01*
X0266371Y0312485D01*
X0266470Y0312067D01*
X0266559Y0311647D01*
X0266637Y0311225D01*
X0266706Y0310801D01*
X0266763Y0310375D01*
X0266811Y0309948D01*
X0266848Y0309520D01*
X0266874Y0309092D01*
X0266890Y0308662D01*
X0266895Y0308233D01*
X0266890Y0307804D01*
X0266874Y0307374D01*
X0266848Y0306946D01*
X0266811Y0306518D01*
X0266763Y0306091D01*
X0266706Y0305665D01*
X0266637Y0305241D01*
X0266559Y0304819D01*
X0266470Y0304399D01*
X0266371Y0303981D01*
X0266261Y0303566D01*
X0266141Y0303153D01*
X0266012Y0302744D01*
X0265872Y0302337D01*
X0265722Y0301935D01*
X0265563Y0301536D01*
X0265394Y0301141D01*
X0265215Y0300751D01*
X0265026Y0300365D01*
X0264829Y0299984D01*
X0264622Y0299607D01*
X0264405Y0299236D01*
X0264180Y0298871D01*
X0263946Y0298511D01*
X0263703Y0298156D01*
X0263451Y0297808D01*
X0263191Y0297466D01*
X0262923Y0297131D01*
X0262646Y0296802D01*
X0262362Y0296481D01*
X0262069Y0296166D01*
X0261769Y0295859D01*
X0261462Y0295559D01*
X0261147Y0295266D01*
X0260826Y0294982D01*
X0260497Y0294705D01*
X0260162Y0294437D01*
X0259820Y0294177D01*
X0259472Y0293925D01*
X0259117Y0293682D01*
X0258757Y0293448D01*
X0258392Y0293223D01*
X0258021Y0293006D01*
X0257644Y0292799D01*
X0257263Y0292602D01*
X0256877Y0292413D01*
X0256487Y0292234D01*
X0256092Y0292065D01*
X0255693Y0291906D01*
X0255291Y0291756D01*
X0254884Y0291616D01*
X0254475Y0291487D01*
X0254062Y0291367D01*
X0253647Y0291257D01*
X0253229Y0291158D01*
X0252809Y0291069D01*
X0252387Y0290991D01*
X0251963Y0290922D01*
X0251537Y0290865D01*
X0251110Y0290817D01*
X0250682Y0290780D01*
X0250254Y0290754D01*
X0249824Y0290738D01*
X0249395Y0290733D01*
X0248966Y0290738D01*
X0248536Y0290754D01*
X0248108Y0290780D01*
X0247680Y0290817D01*
X0247253Y0290865D01*
X0246827Y0290922D01*
X0246403Y0290991D01*
X0245981Y0291069D01*
X0245561Y0291158D01*
X0245143Y0291257D01*
X0244728Y0291367D01*
X0244315Y0291487D01*
X0243906Y0291616D01*
X0243499Y0291756D01*
X0243097Y0291906D01*
X0242698Y0292065D01*
X0242303Y0292234D01*
X0241913Y0292413D01*
X0241527Y0292602D01*
X0241146Y0292799D01*
X0240769Y0293006D01*
X0240398Y0293223D01*
X0240033Y0293448D01*
X0239673Y0293682D01*
X0239318Y0293925D01*
X0238970Y0294177D01*
X0238628Y0294437D01*
X0238293Y0294705D01*
X0237964Y0294982D01*
X0237643Y0295266D01*
X0237328Y0295559D01*
X0237021Y0295859D01*
X0236721Y0296166D01*
X0236428Y0296481D01*
X0236144Y0296802D01*
X0235867Y0297131D01*
X0235599Y0297466D01*
X0235339Y0297808D01*
X0235087Y0298156D01*
X0234844Y0298511D01*
X0234610Y0298871D01*
X0234385Y0299236D01*
X0234168Y0299607D01*
X0233961Y0299984D01*
X0233764Y0300365D01*
X0233575Y0300751D01*
X0233396Y0301141D01*
X0233227Y0301536D01*
X0233068Y0301935D01*
X0232918Y0302337D01*
X0232778Y0302744D01*
X0232649Y0303153D01*
X0232529Y0303566D01*
X0232419Y0303981D01*
X0232320Y0304399D01*
X0232231Y0304819D01*
X0232153Y0305241D01*
X0232084Y0305665D01*
X0232027Y0306091D01*
X0231979Y0306518D01*
X0231942Y0306946D01*
X0231916Y0307374D01*
X0231900Y0307804D01*
X0231895Y0308233D01*
X0249395Y0305733D02*
X0249395Y0303733D01*
X0255895Y0319733D02*
X0255895Y0322733D01*
X0257395Y0321233D02*
X0254395Y0321233D01*
X0284895Y0311733D02*
X0284895Y0309233D01*
X0293895Y0309233D01*
X0293895Y0311733D01*
X0289395Y0311733D01*
X0284895Y0311733D01*
X0289395Y0311733D02*
X0289395Y0312733D01*
X0271895Y0308233D02*
X0271900Y0308662D01*
X0271916Y0309092D01*
X0271942Y0309520D01*
X0271979Y0309948D01*
X0272027Y0310375D01*
X0272084Y0310801D01*
X0272153Y0311225D01*
X0272231Y0311647D01*
X0272320Y0312067D01*
X0272419Y0312485D01*
X0272529Y0312900D01*
X0272649Y0313313D01*
X0272778Y0313722D01*
X0272918Y0314129D01*
X0273068Y0314531D01*
X0273227Y0314930D01*
X0273396Y0315325D01*
X0273575Y0315715D01*
X0273764Y0316101D01*
X0273961Y0316482D01*
X0274168Y0316859D01*
X0274385Y0317230D01*
X0274610Y0317595D01*
X0274844Y0317955D01*
X0275087Y0318310D01*
X0275339Y0318658D01*
X0275599Y0319000D01*
X0275867Y0319335D01*
X0276144Y0319664D01*
X0276428Y0319985D01*
X0276721Y0320300D01*
X0277021Y0320607D01*
X0277328Y0320907D01*
X0277643Y0321200D01*
X0277964Y0321484D01*
X0278293Y0321761D01*
X0278628Y0322029D01*
X0278970Y0322289D01*
X0279318Y0322541D01*
X0279673Y0322784D01*
X0280033Y0323018D01*
X0280398Y0323243D01*
X0280769Y0323460D01*
X0281146Y0323667D01*
X0281527Y0323864D01*
X0281913Y0324053D01*
X0282303Y0324232D01*
X0282698Y0324401D01*
X0283097Y0324560D01*
X0283499Y0324710D01*
X0283906Y0324850D01*
X0284315Y0324979D01*
X0284728Y0325099D01*
X0285143Y0325209D01*
X0285561Y0325308D01*
X0285981Y0325397D01*
X0286403Y0325475D01*
X0286827Y0325544D01*
X0287253Y0325601D01*
X0287680Y0325649D01*
X0288108Y0325686D01*
X0288536Y0325712D01*
X0288966Y0325728D01*
X0289395Y0325733D01*
X0289824Y0325728D01*
X0290254Y0325712D01*
X0290682Y0325686D01*
X0291110Y0325649D01*
X0291537Y0325601D01*
X0291963Y0325544D01*
X0292387Y0325475D01*
X0292809Y0325397D01*
X0293229Y0325308D01*
X0293647Y0325209D01*
X0294062Y0325099D01*
X0294475Y0324979D01*
X0294884Y0324850D01*
X0295291Y0324710D01*
X0295693Y0324560D01*
X0296092Y0324401D01*
X0296487Y0324232D01*
X0296877Y0324053D01*
X0297263Y0323864D01*
X0297644Y0323667D01*
X0298021Y0323460D01*
X0298392Y0323243D01*
X0298757Y0323018D01*
X0299117Y0322784D01*
X0299472Y0322541D01*
X0299820Y0322289D01*
X0300162Y0322029D01*
X0300497Y0321761D01*
X0300826Y0321484D01*
X0301147Y0321200D01*
X0301462Y0320907D01*
X0301769Y0320607D01*
X0302069Y0320300D01*
X0302362Y0319985D01*
X0302646Y0319664D01*
X0302923Y0319335D01*
X0303191Y0319000D01*
X0303451Y0318658D01*
X0303703Y0318310D01*
X0303946Y0317955D01*
X0304180Y0317595D01*
X0304405Y0317230D01*
X0304622Y0316859D01*
X0304829Y0316482D01*
X0305026Y0316101D01*
X0305215Y0315715D01*
X0305394Y0315325D01*
X0305563Y0314930D01*
X0305722Y0314531D01*
X0305872Y0314129D01*
X0306012Y0313722D01*
X0306141Y0313313D01*
X0306261Y0312900D01*
X0306371Y0312485D01*
X0306470Y0312067D01*
X0306559Y0311647D01*
X0306637Y0311225D01*
X0306706Y0310801D01*
X0306763Y0310375D01*
X0306811Y0309948D01*
X0306848Y0309520D01*
X0306874Y0309092D01*
X0306890Y0308662D01*
X0306895Y0308233D01*
X0306890Y0307804D01*
X0306874Y0307374D01*
X0306848Y0306946D01*
X0306811Y0306518D01*
X0306763Y0306091D01*
X0306706Y0305665D01*
X0306637Y0305241D01*
X0306559Y0304819D01*
X0306470Y0304399D01*
X0306371Y0303981D01*
X0306261Y0303566D01*
X0306141Y0303153D01*
X0306012Y0302744D01*
X0305872Y0302337D01*
X0305722Y0301935D01*
X0305563Y0301536D01*
X0305394Y0301141D01*
X0305215Y0300751D01*
X0305026Y0300365D01*
X0304829Y0299984D01*
X0304622Y0299607D01*
X0304405Y0299236D01*
X0304180Y0298871D01*
X0303946Y0298511D01*
X0303703Y0298156D01*
X0303451Y0297808D01*
X0303191Y0297466D01*
X0302923Y0297131D01*
X0302646Y0296802D01*
X0302362Y0296481D01*
X0302069Y0296166D01*
X0301769Y0295859D01*
X0301462Y0295559D01*
X0301147Y0295266D01*
X0300826Y0294982D01*
X0300497Y0294705D01*
X0300162Y0294437D01*
X0299820Y0294177D01*
X0299472Y0293925D01*
X0299117Y0293682D01*
X0298757Y0293448D01*
X0298392Y0293223D01*
X0298021Y0293006D01*
X0297644Y0292799D01*
X0297263Y0292602D01*
X0296877Y0292413D01*
X0296487Y0292234D01*
X0296092Y0292065D01*
X0295693Y0291906D01*
X0295291Y0291756D01*
X0294884Y0291616D01*
X0294475Y0291487D01*
X0294062Y0291367D01*
X0293647Y0291257D01*
X0293229Y0291158D01*
X0292809Y0291069D01*
X0292387Y0290991D01*
X0291963Y0290922D01*
X0291537Y0290865D01*
X0291110Y0290817D01*
X0290682Y0290780D01*
X0290254Y0290754D01*
X0289824Y0290738D01*
X0289395Y0290733D01*
X0288966Y0290738D01*
X0288536Y0290754D01*
X0288108Y0290780D01*
X0287680Y0290817D01*
X0287253Y0290865D01*
X0286827Y0290922D01*
X0286403Y0290991D01*
X0285981Y0291069D01*
X0285561Y0291158D01*
X0285143Y0291257D01*
X0284728Y0291367D01*
X0284315Y0291487D01*
X0283906Y0291616D01*
X0283499Y0291756D01*
X0283097Y0291906D01*
X0282698Y0292065D01*
X0282303Y0292234D01*
X0281913Y0292413D01*
X0281527Y0292602D01*
X0281146Y0292799D01*
X0280769Y0293006D01*
X0280398Y0293223D01*
X0280033Y0293448D01*
X0279673Y0293682D01*
X0279318Y0293925D01*
X0278970Y0294177D01*
X0278628Y0294437D01*
X0278293Y0294705D01*
X0277964Y0294982D01*
X0277643Y0295266D01*
X0277328Y0295559D01*
X0277021Y0295859D01*
X0276721Y0296166D01*
X0276428Y0296481D01*
X0276144Y0296802D01*
X0275867Y0297131D01*
X0275599Y0297466D01*
X0275339Y0297808D01*
X0275087Y0298156D01*
X0274844Y0298511D01*
X0274610Y0298871D01*
X0274385Y0299236D01*
X0274168Y0299607D01*
X0273961Y0299984D01*
X0273764Y0300365D01*
X0273575Y0300751D01*
X0273396Y0301141D01*
X0273227Y0301536D01*
X0273068Y0301935D01*
X0272918Y0302337D01*
X0272778Y0302744D01*
X0272649Y0303153D01*
X0272529Y0303566D01*
X0272419Y0303981D01*
X0272320Y0304399D01*
X0272231Y0304819D01*
X0272153Y0305241D01*
X0272084Y0305665D01*
X0272027Y0306091D01*
X0271979Y0306518D01*
X0271942Y0306946D01*
X0271916Y0307374D01*
X0271900Y0307804D01*
X0271895Y0308233D01*
X0289395Y0305733D02*
X0289395Y0303733D01*
X0308395Y0311683D02*
X0307895Y0323183D01*
X0297395Y0321233D02*
X0294395Y0321233D01*
X0295895Y0322733D02*
X0295895Y0319733D01*
X0308395Y0311683D02*
X0309395Y0310683D01*
X0346395Y0310683D01*
X0347395Y0311683D01*
X0347895Y0323183D01*
X0352345Y0308433D02*
X0353345Y0307433D01*
X0353845Y0295933D01*
X0352345Y0308433D02*
X0315345Y0308433D01*
X0314345Y0307433D01*
X0313845Y0295933D01*
X0370095Y0169883D02*
X0370095Y0165883D01*
X0372095Y0167883D02*
X0368095Y0167883D01*
X0374595Y0166383D02*
X0374595Y0161383D01*
X0374595Y0156383D01*
X0376595Y0156383D01*
X0376595Y0166383D01*
X0374595Y0166383D01*
X0374595Y0161383D02*
X0371595Y0161383D01*
X0355095Y0161383D02*
X0355102Y0161923D01*
X0355121Y0162462D01*
X0355155Y0163001D01*
X0355201Y0163539D01*
X0355260Y0164076D01*
X0355333Y0164611D01*
X0355419Y0165144D01*
X0355518Y0165675D01*
X0355630Y0166203D01*
X0355754Y0166729D01*
X0355892Y0167251D01*
X0356042Y0167769D01*
X0356205Y0168284D01*
X0356381Y0168795D01*
X0356569Y0169301D01*
X0356770Y0169802D01*
X0356982Y0170298D01*
X0357207Y0170789D01*
X0357444Y0171274D01*
X0357693Y0171754D01*
X0357953Y0172227D01*
X0358225Y0172693D01*
X0358508Y0173153D01*
X0358803Y0173606D01*
X0359108Y0174051D01*
X0359424Y0174488D01*
X0359751Y0174918D01*
X0360089Y0175340D01*
X0360436Y0175753D01*
X0360794Y0176157D01*
X0361162Y0176553D01*
X0361539Y0176939D01*
X0361925Y0177316D01*
X0362321Y0177684D01*
X0362725Y0178042D01*
X0363138Y0178389D01*
X0363560Y0178727D01*
X0363990Y0179054D01*
X0364427Y0179370D01*
X0364872Y0179675D01*
X0365325Y0179970D01*
X0365785Y0180253D01*
X0366251Y0180525D01*
X0366724Y0180785D01*
X0367204Y0181034D01*
X0367689Y0181271D01*
X0368180Y0181496D01*
X0368676Y0181708D01*
X0369177Y0181909D01*
X0369683Y0182097D01*
X0370194Y0182273D01*
X0370709Y0182436D01*
X0371227Y0182586D01*
X0371749Y0182724D01*
X0372275Y0182848D01*
X0372803Y0182960D01*
X0373334Y0183059D01*
X0373867Y0183145D01*
X0374402Y0183218D01*
X0374939Y0183277D01*
X0375477Y0183323D01*
X0376016Y0183357D01*
X0376555Y0183376D01*
X0377095Y0183383D01*
X0377635Y0183376D01*
X0378174Y0183357D01*
X0378713Y0183323D01*
X0379251Y0183277D01*
X0379788Y0183218D01*
X0380323Y0183145D01*
X0380856Y0183059D01*
X0381387Y0182960D01*
X0381915Y0182848D01*
X0382441Y0182724D01*
X0382963Y0182586D01*
X0383481Y0182436D01*
X0383996Y0182273D01*
X0384507Y0182097D01*
X0385013Y0181909D01*
X0385514Y0181708D01*
X0386010Y0181496D01*
X0386501Y0181271D01*
X0386986Y0181034D01*
X0387466Y0180785D01*
X0387939Y0180525D01*
X0388405Y0180253D01*
X0388865Y0179970D01*
X0389318Y0179675D01*
X0389763Y0179370D01*
X0390200Y0179054D01*
X0390630Y0178727D01*
X0391052Y0178389D01*
X0391465Y0178042D01*
X0391869Y0177684D01*
X0392265Y0177316D01*
X0392651Y0176939D01*
X0393028Y0176553D01*
X0393396Y0176157D01*
X0393754Y0175753D01*
X0394101Y0175340D01*
X0394439Y0174918D01*
X0394766Y0174488D01*
X0395082Y0174051D01*
X0395387Y0173606D01*
X0395682Y0173153D01*
X0395965Y0172693D01*
X0396237Y0172227D01*
X0396497Y0171754D01*
X0396746Y0171274D01*
X0396983Y0170789D01*
X0397208Y0170298D01*
X0397420Y0169802D01*
X0397621Y0169301D01*
X0397809Y0168795D01*
X0397985Y0168284D01*
X0398148Y0167769D01*
X0398298Y0167251D01*
X0398436Y0166729D01*
X0398560Y0166203D01*
X0398672Y0165675D01*
X0398771Y0165144D01*
X0398857Y0164611D01*
X0398930Y0164076D01*
X0398989Y0163539D01*
X0399035Y0163001D01*
X0399069Y0162462D01*
X0399088Y0161923D01*
X0399095Y0161383D01*
X0399088Y0160843D01*
X0399069Y0160304D01*
X0399035Y0159765D01*
X0398989Y0159227D01*
X0398930Y0158690D01*
X0398857Y0158155D01*
X0398771Y0157622D01*
X0398672Y0157091D01*
X0398560Y0156563D01*
X0398436Y0156037D01*
X0398298Y0155515D01*
X0398148Y0154997D01*
X0397985Y0154482D01*
X0397809Y0153971D01*
X0397621Y0153465D01*
X0397420Y0152964D01*
X0397208Y0152468D01*
X0396983Y0151977D01*
X0396746Y0151492D01*
X0396497Y0151012D01*
X0396237Y0150539D01*
X0395965Y0150073D01*
X0395682Y0149613D01*
X0395387Y0149160D01*
X0395082Y0148715D01*
X0394766Y0148278D01*
X0394439Y0147848D01*
X0394101Y0147426D01*
X0393754Y0147013D01*
X0393396Y0146609D01*
X0393028Y0146213D01*
X0392651Y0145827D01*
X0392265Y0145450D01*
X0391869Y0145082D01*
X0391465Y0144724D01*
X0391052Y0144377D01*
X0390630Y0144039D01*
X0390200Y0143712D01*
X0389763Y0143396D01*
X0389318Y0143091D01*
X0388865Y0142796D01*
X0388405Y0142513D01*
X0387939Y0142241D01*
X0387466Y0141981D01*
X0386986Y0141732D01*
X0386501Y0141495D01*
X0386010Y0141270D01*
X0385514Y0141058D01*
X0385013Y0140857D01*
X0384507Y0140669D01*
X0383996Y0140493D01*
X0383481Y0140330D01*
X0382963Y0140180D01*
X0382441Y0140042D01*
X0381915Y0139918D01*
X0381387Y0139806D01*
X0380856Y0139707D01*
X0380323Y0139621D01*
X0379788Y0139548D01*
X0379251Y0139489D01*
X0378713Y0139443D01*
X0378174Y0139409D01*
X0377635Y0139390D01*
X0377095Y0139383D01*
X0376555Y0139390D01*
X0376016Y0139409D01*
X0375477Y0139443D01*
X0374939Y0139489D01*
X0374402Y0139548D01*
X0373867Y0139621D01*
X0373334Y0139707D01*
X0372803Y0139806D01*
X0372275Y0139918D01*
X0371749Y0140042D01*
X0371227Y0140180D01*
X0370709Y0140330D01*
X0370194Y0140493D01*
X0369683Y0140669D01*
X0369177Y0140857D01*
X0368676Y0141058D01*
X0368180Y0141270D01*
X0367689Y0141495D01*
X0367204Y0141732D01*
X0366724Y0141981D01*
X0366251Y0142241D01*
X0365785Y0142513D01*
X0365325Y0142796D01*
X0364872Y0143091D01*
X0364427Y0143396D01*
X0363990Y0143712D01*
X0363560Y0144039D01*
X0363138Y0144377D01*
X0362725Y0144724D01*
X0362321Y0145082D01*
X0361925Y0145450D01*
X0361539Y0145827D01*
X0361162Y0146213D01*
X0360794Y0146609D01*
X0360436Y0147013D01*
X0360089Y0147426D01*
X0359751Y0147848D01*
X0359424Y0148278D01*
X0359108Y0148715D01*
X0358803Y0149160D01*
X0358508Y0149613D01*
X0358225Y0150073D01*
X0357953Y0150539D01*
X0357693Y0151012D01*
X0357444Y0151492D01*
X0357207Y0151977D01*
X0356982Y0152468D01*
X0356770Y0152964D01*
X0356569Y0153465D01*
X0356381Y0153971D01*
X0356205Y0154482D01*
X0356042Y0154997D01*
X0355892Y0155515D01*
X0355754Y0156037D01*
X0355630Y0156563D01*
X0355518Y0157091D01*
X0355419Y0157622D01*
X0355333Y0158155D01*
X0355260Y0158690D01*
X0355201Y0159227D01*
X0355155Y0159765D01*
X0355121Y0160304D01*
X0355102Y0160843D01*
X0355095Y0161383D01*
X0379595Y0161383D02*
X0382595Y0161383D01*
X0298845Y0121433D02*
X0298850Y0121801D01*
X0298863Y0122169D01*
X0298886Y0122536D01*
X0298917Y0122903D01*
X0298958Y0123269D01*
X0299007Y0123634D01*
X0299066Y0123997D01*
X0299133Y0124359D01*
X0299209Y0124720D01*
X0299295Y0125078D01*
X0299388Y0125434D01*
X0299491Y0125787D01*
X0299602Y0126138D01*
X0299722Y0126486D01*
X0299850Y0126831D01*
X0299987Y0127173D01*
X0300132Y0127512D01*
X0300285Y0127846D01*
X0300447Y0128177D01*
X0300616Y0128504D01*
X0300794Y0128826D01*
X0300979Y0129145D01*
X0301172Y0129458D01*
X0301373Y0129767D01*
X0301581Y0130070D01*
X0301797Y0130368D01*
X0302020Y0130661D01*
X0302250Y0130949D01*
X0302487Y0131231D01*
X0302731Y0131506D01*
X0302981Y0131776D01*
X0303238Y0132040D01*
X0303502Y0132297D01*
X0303772Y0132547D01*
X0304047Y0132791D01*
X0304329Y0133028D01*
X0304617Y0133258D01*
X0304910Y0133481D01*
X0305208Y0133697D01*
X0305511Y0133905D01*
X0305820Y0134106D01*
X0306133Y0134299D01*
X0306452Y0134484D01*
X0306774Y0134662D01*
X0307101Y0134831D01*
X0307432Y0134993D01*
X0307766Y0135146D01*
X0308105Y0135291D01*
X0308447Y0135428D01*
X0308792Y0135556D01*
X0309140Y0135676D01*
X0309491Y0135787D01*
X0309844Y0135890D01*
X0310200Y0135983D01*
X0310558Y0136069D01*
X0310919Y0136145D01*
X0311281Y0136212D01*
X0311644Y0136271D01*
X0312009Y0136320D01*
X0312375Y0136361D01*
X0312742Y0136392D01*
X0313109Y0136415D01*
X0313477Y0136428D01*
X0313845Y0136433D01*
X0314213Y0136428D01*
X0314581Y0136415D01*
X0314948Y0136392D01*
X0315315Y0136361D01*
X0315681Y0136320D01*
X0316046Y0136271D01*
X0316409Y0136212D01*
X0316771Y0136145D01*
X0317132Y0136069D01*
X0317490Y0135983D01*
X0317846Y0135890D01*
X0318199Y0135787D01*
X0318550Y0135676D01*
X0318898Y0135556D01*
X0319243Y0135428D01*
X0319585Y0135291D01*
X0319924Y0135146D01*
X0320258Y0134993D01*
X0320589Y0134831D01*
X0320916Y0134662D01*
X0321238Y0134484D01*
X0321557Y0134299D01*
X0321870Y0134106D01*
X0322179Y0133905D01*
X0322482Y0133697D01*
X0322780Y0133481D01*
X0323073Y0133258D01*
X0323361Y0133028D01*
X0323643Y0132791D01*
X0323918Y0132547D01*
X0324188Y0132297D01*
X0324452Y0132040D01*
X0324709Y0131776D01*
X0324959Y0131506D01*
X0325203Y0131231D01*
X0325440Y0130949D01*
X0325670Y0130661D01*
X0325893Y0130368D01*
X0326109Y0130070D01*
X0326317Y0129767D01*
X0326518Y0129458D01*
X0326711Y0129145D01*
X0326896Y0128826D01*
X0327074Y0128504D01*
X0327243Y0128177D01*
X0327405Y0127846D01*
X0327558Y0127512D01*
X0327703Y0127173D01*
X0327840Y0126831D01*
X0327968Y0126486D01*
X0328088Y0126138D01*
X0328199Y0125787D01*
X0328302Y0125434D01*
X0328395Y0125078D01*
X0328481Y0124720D01*
X0328557Y0124359D01*
X0328624Y0123997D01*
X0328683Y0123634D01*
X0328732Y0123269D01*
X0328773Y0122903D01*
X0328804Y0122536D01*
X0328827Y0122169D01*
X0328840Y0121801D01*
X0328845Y0121433D01*
X0328840Y0121065D01*
X0328827Y0120697D01*
X0328804Y0120330D01*
X0328773Y0119963D01*
X0328732Y0119597D01*
X0328683Y0119232D01*
X0328624Y0118869D01*
X0328557Y0118507D01*
X0328481Y0118146D01*
X0328395Y0117788D01*
X0328302Y0117432D01*
X0328199Y0117079D01*
X0328088Y0116728D01*
X0327968Y0116380D01*
X0327840Y0116035D01*
X0327703Y0115693D01*
X0327558Y0115354D01*
X0327405Y0115020D01*
X0327243Y0114689D01*
X0327074Y0114362D01*
X0326896Y0114040D01*
X0326711Y0113721D01*
X0326518Y0113408D01*
X0326317Y0113099D01*
X0326109Y0112796D01*
X0325893Y0112498D01*
X0325670Y0112205D01*
X0325440Y0111917D01*
X0325203Y0111635D01*
X0324959Y0111360D01*
X0324709Y0111090D01*
X0324452Y0110826D01*
X0324188Y0110569D01*
X0323918Y0110319D01*
X0323643Y0110075D01*
X0323361Y0109838D01*
X0323073Y0109608D01*
X0322780Y0109385D01*
X0322482Y0109169D01*
X0322179Y0108961D01*
X0321870Y0108760D01*
X0321557Y0108567D01*
X0321238Y0108382D01*
X0320916Y0108204D01*
X0320589Y0108035D01*
X0320258Y0107873D01*
X0319924Y0107720D01*
X0319585Y0107575D01*
X0319243Y0107438D01*
X0318898Y0107310D01*
X0318550Y0107190D01*
X0318199Y0107079D01*
X0317846Y0106976D01*
X0317490Y0106883D01*
X0317132Y0106797D01*
X0316771Y0106721D01*
X0316409Y0106654D01*
X0316046Y0106595D01*
X0315681Y0106546D01*
X0315315Y0106505D01*
X0314948Y0106474D01*
X0314581Y0106451D01*
X0314213Y0106438D01*
X0313845Y0106433D01*
X0313477Y0106438D01*
X0313109Y0106451D01*
X0312742Y0106474D01*
X0312375Y0106505D01*
X0312009Y0106546D01*
X0311644Y0106595D01*
X0311281Y0106654D01*
X0310919Y0106721D01*
X0310558Y0106797D01*
X0310200Y0106883D01*
X0309844Y0106976D01*
X0309491Y0107079D01*
X0309140Y0107190D01*
X0308792Y0107310D01*
X0308447Y0107438D01*
X0308105Y0107575D01*
X0307766Y0107720D01*
X0307432Y0107873D01*
X0307101Y0108035D01*
X0306774Y0108204D01*
X0306452Y0108382D01*
X0306133Y0108567D01*
X0305820Y0108760D01*
X0305511Y0108961D01*
X0305208Y0109169D01*
X0304910Y0109385D01*
X0304617Y0109608D01*
X0304329Y0109838D01*
X0304047Y0110075D01*
X0303772Y0110319D01*
X0303502Y0110569D01*
X0303238Y0110826D01*
X0302981Y0111090D01*
X0302731Y0111360D01*
X0302487Y0111635D01*
X0302250Y0111917D01*
X0302020Y0112205D01*
X0301797Y0112498D01*
X0301581Y0112796D01*
X0301373Y0113099D01*
X0301172Y0113408D01*
X0300979Y0113721D01*
X0300794Y0114040D01*
X0300616Y0114362D01*
X0300447Y0114689D01*
X0300285Y0115020D01*
X0300132Y0115354D01*
X0299987Y0115693D01*
X0299850Y0116035D01*
X0299722Y0116380D01*
X0299602Y0116728D01*
X0299491Y0117079D01*
X0299388Y0117432D01*
X0299295Y0117788D01*
X0299209Y0118146D01*
X0299133Y0118507D01*
X0299066Y0118869D01*
X0299007Y0119232D01*
X0298958Y0119597D01*
X0298917Y0119963D01*
X0298886Y0120330D01*
X0298863Y0120697D01*
X0298850Y0121065D01*
X0298845Y0121433D01*
X0285695Y0152883D02*
X0285695Y0156883D01*
X0283695Y0154883D02*
X0287695Y0154883D01*
X0281195Y0156383D02*
X0281195Y0161383D01*
X0281195Y0166383D01*
X0279195Y0166383D01*
X0279195Y0156383D01*
X0281195Y0156383D01*
X0281195Y0161383D02*
X0284195Y0161383D01*
X0256695Y0161383D02*
X0256702Y0161923D01*
X0256721Y0162462D01*
X0256755Y0163001D01*
X0256801Y0163539D01*
X0256860Y0164076D01*
X0256933Y0164611D01*
X0257019Y0165144D01*
X0257118Y0165675D01*
X0257230Y0166203D01*
X0257354Y0166729D01*
X0257492Y0167251D01*
X0257642Y0167769D01*
X0257805Y0168284D01*
X0257981Y0168795D01*
X0258169Y0169301D01*
X0258370Y0169802D01*
X0258582Y0170298D01*
X0258807Y0170789D01*
X0259044Y0171274D01*
X0259293Y0171754D01*
X0259553Y0172227D01*
X0259825Y0172693D01*
X0260108Y0173153D01*
X0260403Y0173606D01*
X0260708Y0174051D01*
X0261024Y0174488D01*
X0261351Y0174918D01*
X0261689Y0175340D01*
X0262036Y0175753D01*
X0262394Y0176157D01*
X0262762Y0176553D01*
X0263139Y0176939D01*
X0263525Y0177316D01*
X0263921Y0177684D01*
X0264325Y0178042D01*
X0264738Y0178389D01*
X0265160Y0178727D01*
X0265590Y0179054D01*
X0266027Y0179370D01*
X0266472Y0179675D01*
X0266925Y0179970D01*
X0267385Y0180253D01*
X0267851Y0180525D01*
X0268324Y0180785D01*
X0268804Y0181034D01*
X0269289Y0181271D01*
X0269780Y0181496D01*
X0270276Y0181708D01*
X0270777Y0181909D01*
X0271283Y0182097D01*
X0271794Y0182273D01*
X0272309Y0182436D01*
X0272827Y0182586D01*
X0273349Y0182724D01*
X0273875Y0182848D01*
X0274403Y0182960D01*
X0274934Y0183059D01*
X0275467Y0183145D01*
X0276002Y0183218D01*
X0276539Y0183277D01*
X0277077Y0183323D01*
X0277616Y0183357D01*
X0278155Y0183376D01*
X0278695Y0183383D01*
X0279235Y0183376D01*
X0279774Y0183357D01*
X0280313Y0183323D01*
X0280851Y0183277D01*
X0281388Y0183218D01*
X0281923Y0183145D01*
X0282456Y0183059D01*
X0282987Y0182960D01*
X0283515Y0182848D01*
X0284041Y0182724D01*
X0284563Y0182586D01*
X0285081Y0182436D01*
X0285596Y0182273D01*
X0286107Y0182097D01*
X0286613Y0181909D01*
X0287114Y0181708D01*
X0287610Y0181496D01*
X0288101Y0181271D01*
X0288586Y0181034D01*
X0289066Y0180785D01*
X0289539Y0180525D01*
X0290005Y0180253D01*
X0290465Y0179970D01*
X0290918Y0179675D01*
X0291363Y0179370D01*
X0291800Y0179054D01*
X0292230Y0178727D01*
X0292652Y0178389D01*
X0293065Y0178042D01*
X0293469Y0177684D01*
X0293865Y0177316D01*
X0294251Y0176939D01*
X0294628Y0176553D01*
X0294996Y0176157D01*
X0295354Y0175753D01*
X0295701Y0175340D01*
X0296039Y0174918D01*
X0296366Y0174488D01*
X0296682Y0174051D01*
X0296987Y0173606D01*
X0297282Y0173153D01*
X0297565Y0172693D01*
X0297837Y0172227D01*
X0298097Y0171754D01*
X0298346Y0171274D01*
X0298583Y0170789D01*
X0298808Y0170298D01*
X0299020Y0169802D01*
X0299221Y0169301D01*
X0299409Y0168795D01*
X0299585Y0168284D01*
X0299748Y0167769D01*
X0299898Y0167251D01*
X0300036Y0166729D01*
X0300160Y0166203D01*
X0300272Y0165675D01*
X0300371Y0165144D01*
X0300457Y0164611D01*
X0300530Y0164076D01*
X0300589Y0163539D01*
X0300635Y0163001D01*
X0300669Y0162462D01*
X0300688Y0161923D01*
X0300695Y0161383D01*
X0300688Y0160843D01*
X0300669Y0160304D01*
X0300635Y0159765D01*
X0300589Y0159227D01*
X0300530Y0158690D01*
X0300457Y0158155D01*
X0300371Y0157622D01*
X0300272Y0157091D01*
X0300160Y0156563D01*
X0300036Y0156037D01*
X0299898Y0155515D01*
X0299748Y0154997D01*
X0299585Y0154482D01*
X0299409Y0153971D01*
X0299221Y0153465D01*
X0299020Y0152964D01*
X0298808Y0152468D01*
X0298583Y0151977D01*
X0298346Y0151492D01*
X0298097Y0151012D01*
X0297837Y0150539D01*
X0297565Y0150073D01*
X0297282Y0149613D01*
X0296987Y0149160D01*
X0296682Y0148715D01*
X0296366Y0148278D01*
X0296039Y0147848D01*
X0295701Y0147426D01*
X0295354Y0147013D01*
X0294996Y0146609D01*
X0294628Y0146213D01*
X0294251Y0145827D01*
X0293865Y0145450D01*
X0293469Y0145082D01*
X0293065Y0144724D01*
X0292652Y0144377D01*
X0292230Y0144039D01*
X0291800Y0143712D01*
X0291363Y0143396D01*
X0290918Y0143091D01*
X0290465Y0142796D01*
X0290005Y0142513D01*
X0289539Y0142241D01*
X0289066Y0141981D01*
X0288586Y0141732D01*
X0288101Y0141495D01*
X0287610Y0141270D01*
X0287114Y0141058D01*
X0286613Y0140857D01*
X0286107Y0140669D01*
X0285596Y0140493D01*
X0285081Y0140330D01*
X0284563Y0140180D01*
X0284041Y0140042D01*
X0283515Y0139918D01*
X0282987Y0139806D01*
X0282456Y0139707D01*
X0281923Y0139621D01*
X0281388Y0139548D01*
X0280851Y0139489D01*
X0280313Y0139443D01*
X0279774Y0139409D01*
X0279235Y0139390D01*
X0278695Y0139383D01*
X0278155Y0139390D01*
X0277616Y0139409D01*
X0277077Y0139443D01*
X0276539Y0139489D01*
X0276002Y0139548D01*
X0275467Y0139621D01*
X0274934Y0139707D01*
X0274403Y0139806D01*
X0273875Y0139918D01*
X0273349Y0140042D01*
X0272827Y0140180D01*
X0272309Y0140330D01*
X0271794Y0140493D01*
X0271283Y0140669D01*
X0270777Y0140857D01*
X0270276Y0141058D01*
X0269780Y0141270D01*
X0269289Y0141495D01*
X0268804Y0141732D01*
X0268324Y0141981D01*
X0267851Y0142241D01*
X0267385Y0142513D01*
X0266925Y0142796D01*
X0266472Y0143091D01*
X0266027Y0143396D01*
X0265590Y0143712D01*
X0265160Y0144039D01*
X0264738Y0144377D01*
X0264325Y0144724D01*
X0263921Y0145082D01*
X0263525Y0145450D01*
X0263139Y0145827D01*
X0262762Y0146213D01*
X0262394Y0146609D01*
X0262036Y0147013D01*
X0261689Y0147426D01*
X0261351Y0147848D01*
X0261024Y0148278D01*
X0260708Y0148715D01*
X0260403Y0149160D01*
X0260108Y0149613D01*
X0259825Y0150073D01*
X0259553Y0150539D01*
X0259293Y0151012D01*
X0259044Y0151492D01*
X0258807Y0151977D01*
X0258582Y0152468D01*
X0258370Y0152964D01*
X0258169Y0153465D01*
X0257981Y0153971D01*
X0257805Y0154482D01*
X0257642Y0154997D01*
X0257492Y0155515D01*
X0257354Y0156037D01*
X0257230Y0156563D01*
X0257118Y0157091D01*
X0257019Y0157622D01*
X0256933Y0158155D01*
X0256860Y0158690D01*
X0256801Y0159227D01*
X0256755Y0159765D01*
X0256721Y0160304D01*
X0256702Y0160843D01*
X0256695Y0161383D01*
X0273195Y0161383D02*
X0276195Y0161383D01*
X0238845Y0096383D02*
X0238850Y0096751D01*
X0238863Y0097119D01*
X0238886Y0097486D01*
X0238917Y0097853D01*
X0238958Y0098219D01*
X0239007Y0098584D01*
X0239066Y0098947D01*
X0239133Y0099309D01*
X0239209Y0099670D01*
X0239295Y0100028D01*
X0239388Y0100384D01*
X0239491Y0100737D01*
X0239602Y0101088D01*
X0239722Y0101436D01*
X0239850Y0101781D01*
X0239987Y0102123D01*
X0240132Y0102462D01*
X0240285Y0102796D01*
X0240447Y0103127D01*
X0240616Y0103454D01*
X0240794Y0103776D01*
X0240979Y0104095D01*
X0241172Y0104408D01*
X0241373Y0104717D01*
X0241581Y0105020D01*
X0241797Y0105318D01*
X0242020Y0105611D01*
X0242250Y0105899D01*
X0242487Y0106181D01*
X0242731Y0106456D01*
X0242981Y0106726D01*
X0243238Y0106990D01*
X0243502Y0107247D01*
X0243772Y0107497D01*
X0244047Y0107741D01*
X0244329Y0107978D01*
X0244617Y0108208D01*
X0244910Y0108431D01*
X0245208Y0108647D01*
X0245511Y0108855D01*
X0245820Y0109056D01*
X0246133Y0109249D01*
X0246452Y0109434D01*
X0246774Y0109612D01*
X0247101Y0109781D01*
X0247432Y0109943D01*
X0247766Y0110096D01*
X0248105Y0110241D01*
X0248447Y0110378D01*
X0248792Y0110506D01*
X0249140Y0110626D01*
X0249491Y0110737D01*
X0249844Y0110840D01*
X0250200Y0110933D01*
X0250558Y0111019D01*
X0250919Y0111095D01*
X0251281Y0111162D01*
X0251644Y0111221D01*
X0252009Y0111270D01*
X0252375Y0111311D01*
X0252742Y0111342D01*
X0253109Y0111365D01*
X0253477Y0111378D01*
X0253845Y0111383D01*
X0254213Y0111378D01*
X0254581Y0111365D01*
X0254948Y0111342D01*
X0255315Y0111311D01*
X0255681Y0111270D01*
X0256046Y0111221D01*
X0256409Y0111162D01*
X0256771Y0111095D01*
X0257132Y0111019D01*
X0257490Y0110933D01*
X0257846Y0110840D01*
X0258199Y0110737D01*
X0258550Y0110626D01*
X0258898Y0110506D01*
X0259243Y0110378D01*
X0259585Y0110241D01*
X0259924Y0110096D01*
X0260258Y0109943D01*
X0260589Y0109781D01*
X0260916Y0109612D01*
X0261238Y0109434D01*
X0261557Y0109249D01*
X0261870Y0109056D01*
X0262179Y0108855D01*
X0262482Y0108647D01*
X0262780Y0108431D01*
X0263073Y0108208D01*
X0263361Y0107978D01*
X0263643Y0107741D01*
X0263918Y0107497D01*
X0264188Y0107247D01*
X0264452Y0106990D01*
X0264709Y0106726D01*
X0264959Y0106456D01*
X0265203Y0106181D01*
X0265440Y0105899D01*
X0265670Y0105611D01*
X0265893Y0105318D01*
X0266109Y0105020D01*
X0266317Y0104717D01*
X0266518Y0104408D01*
X0266711Y0104095D01*
X0266896Y0103776D01*
X0267074Y0103454D01*
X0267243Y0103127D01*
X0267405Y0102796D01*
X0267558Y0102462D01*
X0267703Y0102123D01*
X0267840Y0101781D01*
X0267968Y0101436D01*
X0268088Y0101088D01*
X0268199Y0100737D01*
X0268302Y0100384D01*
X0268395Y0100028D01*
X0268481Y0099670D01*
X0268557Y0099309D01*
X0268624Y0098947D01*
X0268683Y0098584D01*
X0268732Y0098219D01*
X0268773Y0097853D01*
X0268804Y0097486D01*
X0268827Y0097119D01*
X0268840Y0096751D01*
X0268845Y0096383D01*
X0268840Y0096015D01*
X0268827Y0095647D01*
X0268804Y0095280D01*
X0268773Y0094913D01*
X0268732Y0094547D01*
X0268683Y0094182D01*
X0268624Y0093819D01*
X0268557Y0093457D01*
X0268481Y0093096D01*
X0268395Y0092738D01*
X0268302Y0092382D01*
X0268199Y0092029D01*
X0268088Y0091678D01*
X0267968Y0091330D01*
X0267840Y0090985D01*
X0267703Y0090643D01*
X0267558Y0090304D01*
X0267405Y0089970D01*
X0267243Y0089639D01*
X0267074Y0089312D01*
X0266896Y0088990D01*
X0266711Y0088671D01*
X0266518Y0088358D01*
X0266317Y0088049D01*
X0266109Y0087746D01*
X0265893Y0087448D01*
X0265670Y0087155D01*
X0265440Y0086867D01*
X0265203Y0086585D01*
X0264959Y0086310D01*
X0264709Y0086040D01*
X0264452Y0085776D01*
X0264188Y0085519D01*
X0263918Y0085269D01*
X0263643Y0085025D01*
X0263361Y0084788D01*
X0263073Y0084558D01*
X0262780Y0084335D01*
X0262482Y0084119D01*
X0262179Y0083911D01*
X0261870Y0083710D01*
X0261557Y0083517D01*
X0261238Y0083332D01*
X0260916Y0083154D01*
X0260589Y0082985D01*
X0260258Y0082823D01*
X0259924Y0082670D01*
X0259585Y0082525D01*
X0259243Y0082388D01*
X0258898Y0082260D01*
X0258550Y0082140D01*
X0258199Y0082029D01*
X0257846Y0081926D01*
X0257490Y0081833D01*
X0257132Y0081747D01*
X0256771Y0081671D01*
X0256409Y0081604D01*
X0256046Y0081545D01*
X0255681Y0081496D01*
X0255315Y0081455D01*
X0254948Y0081424D01*
X0254581Y0081401D01*
X0254213Y0081388D01*
X0253845Y0081383D01*
X0253477Y0081388D01*
X0253109Y0081401D01*
X0252742Y0081424D01*
X0252375Y0081455D01*
X0252009Y0081496D01*
X0251644Y0081545D01*
X0251281Y0081604D01*
X0250919Y0081671D01*
X0250558Y0081747D01*
X0250200Y0081833D01*
X0249844Y0081926D01*
X0249491Y0082029D01*
X0249140Y0082140D01*
X0248792Y0082260D01*
X0248447Y0082388D01*
X0248105Y0082525D01*
X0247766Y0082670D01*
X0247432Y0082823D01*
X0247101Y0082985D01*
X0246774Y0083154D01*
X0246452Y0083332D01*
X0246133Y0083517D01*
X0245820Y0083710D01*
X0245511Y0083911D01*
X0245208Y0084119D01*
X0244910Y0084335D01*
X0244617Y0084558D01*
X0244329Y0084788D01*
X0244047Y0085025D01*
X0243772Y0085269D01*
X0243502Y0085519D01*
X0243238Y0085776D01*
X0242981Y0086040D01*
X0242731Y0086310D01*
X0242487Y0086585D01*
X0242250Y0086867D01*
X0242020Y0087155D01*
X0241797Y0087448D01*
X0241581Y0087746D01*
X0241373Y0088049D01*
X0241172Y0088358D01*
X0240979Y0088671D01*
X0240794Y0088990D01*
X0240616Y0089312D01*
X0240447Y0089639D01*
X0240285Y0089970D01*
X0240132Y0090304D01*
X0239987Y0090643D01*
X0239850Y0090985D01*
X0239722Y0091330D01*
X0239602Y0091678D01*
X0239491Y0092029D01*
X0239388Y0092382D01*
X0239295Y0092738D01*
X0239209Y0093096D01*
X0239133Y0093457D01*
X0239066Y0093819D01*
X0239007Y0094182D01*
X0238958Y0094547D01*
X0238917Y0094913D01*
X0238886Y0095280D01*
X0238863Y0095647D01*
X0238850Y0096015D01*
X0238845Y0096383D01*
X0190095Y0096383D02*
X0190100Y0096751D01*
X0190113Y0097119D01*
X0190136Y0097486D01*
X0190167Y0097853D01*
X0190208Y0098219D01*
X0190257Y0098584D01*
X0190316Y0098947D01*
X0190383Y0099309D01*
X0190459Y0099670D01*
X0190545Y0100028D01*
X0190638Y0100384D01*
X0190741Y0100737D01*
X0190852Y0101088D01*
X0190972Y0101436D01*
X0191100Y0101781D01*
X0191237Y0102123D01*
X0191382Y0102462D01*
X0191535Y0102796D01*
X0191697Y0103127D01*
X0191866Y0103454D01*
X0192044Y0103776D01*
X0192229Y0104095D01*
X0192422Y0104408D01*
X0192623Y0104717D01*
X0192831Y0105020D01*
X0193047Y0105318D01*
X0193270Y0105611D01*
X0193500Y0105899D01*
X0193737Y0106181D01*
X0193981Y0106456D01*
X0194231Y0106726D01*
X0194488Y0106990D01*
X0194752Y0107247D01*
X0195022Y0107497D01*
X0195297Y0107741D01*
X0195579Y0107978D01*
X0195867Y0108208D01*
X0196160Y0108431D01*
X0196458Y0108647D01*
X0196761Y0108855D01*
X0197070Y0109056D01*
X0197383Y0109249D01*
X0197702Y0109434D01*
X0198024Y0109612D01*
X0198351Y0109781D01*
X0198682Y0109943D01*
X0199016Y0110096D01*
X0199355Y0110241D01*
X0199697Y0110378D01*
X0200042Y0110506D01*
X0200390Y0110626D01*
X0200741Y0110737D01*
X0201094Y0110840D01*
X0201450Y0110933D01*
X0201808Y0111019D01*
X0202169Y0111095D01*
X0202531Y0111162D01*
X0202894Y0111221D01*
X0203259Y0111270D01*
X0203625Y0111311D01*
X0203992Y0111342D01*
X0204359Y0111365D01*
X0204727Y0111378D01*
X0205095Y0111383D01*
X0205463Y0111378D01*
X0205831Y0111365D01*
X0206198Y0111342D01*
X0206565Y0111311D01*
X0206931Y0111270D01*
X0207296Y0111221D01*
X0207659Y0111162D01*
X0208021Y0111095D01*
X0208382Y0111019D01*
X0208740Y0110933D01*
X0209096Y0110840D01*
X0209449Y0110737D01*
X0209800Y0110626D01*
X0210148Y0110506D01*
X0210493Y0110378D01*
X0210835Y0110241D01*
X0211174Y0110096D01*
X0211508Y0109943D01*
X0211839Y0109781D01*
X0212166Y0109612D01*
X0212488Y0109434D01*
X0212807Y0109249D01*
X0213120Y0109056D01*
X0213429Y0108855D01*
X0213732Y0108647D01*
X0214030Y0108431D01*
X0214323Y0108208D01*
X0214611Y0107978D01*
X0214893Y0107741D01*
X0215168Y0107497D01*
X0215438Y0107247D01*
X0215702Y0106990D01*
X0215959Y0106726D01*
X0216209Y0106456D01*
X0216453Y0106181D01*
X0216690Y0105899D01*
X0216920Y0105611D01*
X0217143Y0105318D01*
X0217359Y0105020D01*
X0217567Y0104717D01*
X0217768Y0104408D01*
X0217961Y0104095D01*
X0218146Y0103776D01*
X0218324Y0103454D01*
X0218493Y0103127D01*
X0218655Y0102796D01*
X0218808Y0102462D01*
X0218953Y0102123D01*
X0219090Y0101781D01*
X0219218Y0101436D01*
X0219338Y0101088D01*
X0219449Y0100737D01*
X0219552Y0100384D01*
X0219645Y0100028D01*
X0219731Y0099670D01*
X0219807Y0099309D01*
X0219874Y0098947D01*
X0219933Y0098584D01*
X0219982Y0098219D01*
X0220023Y0097853D01*
X0220054Y0097486D01*
X0220077Y0097119D01*
X0220090Y0096751D01*
X0220095Y0096383D01*
X0220090Y0096015D01*
X0220077Y0095647D01*
X0220054Y0095280D01*
X0220023Y0094913D01*
X0219982Y0094547D01*
X0219933Y0094182D01*
X0219874Y0093819D01*
X0219807Y0093457D01*
X0219731Y0093096D01*
X0219645Y0092738D01*
X0219552Y0092382D01*
X0219449Y0092029D01*
X0219338Y0091678D01*
X0219218Y0091330D01*
X0219090Y0090985D01*
X0218953Y0090643D01*
X0218808Y0090304D01*
X0218655Y0089970D01*
X0218493Y0089639D01*
X0218324Y0089312D01*
X0218146Y0088990D01*
X0217961Y0088671D01*
X0217768Y0088358D01*
X0217567Y0088049D01*
X0217359Y0087746D01*
X0217143Y0087448D01*
X0216920Y0087155D01*
X0216690Y0086867D01*
X0216453Y0086585D01*
X0216209Y0086310D01*
X0215959Y0086040D01*
X0215702Y0085776D01*
X0215438Y0085519D01*
X0215168Y0085269D01*
X0214893Y0085025D01*
X0214611Y0084788D01*
X0214323Y0084558D01*
X0214030Y0084335D01*
X0213732Y0084119D01*
X0213429Y0083911D01*
X0213120Y0083710D01*
X0212807Y0083517D01*
X0212488Y0083332D01*
X0212166Y0083154D01*
X0211839Y0082985D01*
X0211508Y0082823D01*
X0211174Y0082670D01*
X0210835Y0082525D01*
X0210493Y0082388D01*
X0210148Y0082260D01*
X0209800Y0082140D01*
X0209449Y0082029D01*
X0209096Y0081926D01*
X0208740Y0081833D01*
X0208382Y0081747D01*
X0208021Y0081671D01*
X0207659Y0081604D01*
X0207296Y0081545D01*
X0206931Y0081496D01*
X0206565Y0081455D01*
X0206198Y0081424D01*
X0205831Y0081401D01*
X0205463Y0081388D01*
X0205095Y0081383D01*
X0204727Y0081388D01*
X0204359Y0081401D01*
X0203992Y0081424D01*
X0203625Y0081455D01*
X0203259Y0081496D01*
X0202894Y0081545D01*
X0202531Y0081604D01*
X0202169Y0081671D01*
X0201808Y0081747D01*
X0201450Y0081833D01*
X0201094Y0081926D01*
X0200741Y0082029D01*
X0200390Y0082140D01*
X0200042Y0082260D01*
X0199697Y0082388D01*
X0199355Y0082525D01*
X0199016Y0082670D01*
X0198682Y0082823D01*
X0198351Y0082985D01*
X0198024Y0083154D01*
X0197702Y0083332D01*
X0197383Y0083517D01*
X0197070Y0083710D01*
X0196761Y0083911D01*
X0196458Y0084119D01*
X0196160Y0084335D01*
X0195867Y0084558D01*
X0195579Y0084788D01*
X0195297Y0085025D01*
X0195022Y0085269D01*
X0194752Y0085519D01*
X0194488Y0085776D01*
X0194231Y0086040D01*
X0193981Y0086310D01*
X0193737Y0086585D01*
X0193500Y0086867D01*
X0193270Y0087155D01*
X0193047Y0087448D01*
X0192831Y0087746D01*
X0192623Y0088049D01*
X0192422Y0088358D01*
X0192229Y0088671D01*
X0192044Y0088990D01*
X0191866Y0089312D01*
X0191697Y0089639D01*
X0191535Y0089970D01*
X0191382Y0090304D01*
X0191237Y0090643D01*
X0191100Y0090985D01*
X0190972Y0091330D01*
X0190852Y0091678D01*
X0190741Y0092029D01*
X0190638Y0092382D01*
X0190545Y0092738D01*
X0190459Y0093096D01*
X0190383Y0093457D01*
X0190316Y0093819D01*
X0190257Y0094182D01*
X0190208Y0094547D01*
X0190167Y0094913D01*
X0190136Y0095280D01*
X0190113Y0095647D01*
X0190100Y0096015D01*
X0190095Y0096383D01*
X0155095Y0087683D02*
X0155100Y0088051D01*
X0155113Y0088419D01*
X0155136Y0088786D01*
X0155167Y0089153D01*
X0155208Y0089519D01*
X0155257Y0089884D01*
X0155316Y0090247D01*
X0155383Y0090609D01*
X0155459Y0090970D01*
X0155545Y0091328D01*
X0155638Y0091684D01*
X0155741Y0092037D01*
X0155852Y0092388D01*
X0155972Y0092736D01*
X0156100Y0093081D01*
X0156237Y0093423D01*
X0156382Y0093762D01*
X0156535Y0094096D01*
X0156697Y0094427D01*
X0156866Y0094754D01*
X0157044Y0095076D01*
X0157229Y0095395D01*
X0157422Y0095708D01*
X0157623Y0096017D01*
X0157831Y0096320D01*
X0158047Y0096618D01*
X0158270Y0096911D01*
X0158500Y0097199D01*
X0158737Y0097481D01*
X0158981Y0097756D01*
X0159231Y0098026D01*
X0159488Y0098290D01*
X0159752Y0098547D01*
X0160022Y0098797D01*
X0160297Y0099041D01*
X0160579Y0099278D01*
X0160867Y0099508D01*
X0161160Y0099731D01*
X0161458Y0099947D01*
X0161761Y0100155D01*
X0162070Y0100356D01*
X0162383Y0100549D01*
X0162702Y0100734D01*
X0163024Y0100912D01*
X0163351Y0101081D01*
X0163682Y0101243D01*
X0164016Y0101396D01*
X0164355Y0101541D01*
X0164697Y0101678D01*
X0165042Y0101806D01*
X0165390Y0101926D01*
X0165741Y0102037D01*
X0166094Y0102140D01*
X0166450Y0102233D01*
X0166808Y0102319D01*
X0167169Y0102395D01*
X0167531Y0102462D01*
X0167894Y0102521D01*
X0168259Y0102570D01*
X0168625Y0102611D01*
X0168992Y0102642D01*
X0169359Y0102665D01*
X0169727Y0102678D01*
X0170095Y0102683D01*
X0170463Y0102678D01*
X0170831Y0102665D01*
X0171198Y0102642D01*
X0171565Y0102611D01*
X0171931Y0102570D01*
X0172296Y0102521D01*
X0172659Y0102462D01*
X0173021Y0102395D01*
X0173382Y0102319D01*
X0173740Y0102233D01*
X0174096Y0102140D01*
X0174449Y0102037D01*
X0174800Y0101926D01*
X0175148Y0101806D01*
X0175493Y0101678D01*
X0175835Y0101541D01*
X0176174Y0101396D01*
X0176508Y0101243D01*
X0176839Y0101081D01*
X0177166Y0100912D01*
X0177488Y0100734D01*
X0177807Y0100549D01*
X0178120Y0100356D01*
X0178429Y0100155D01*
X0178732Y0099947D01*
X0179030Y0099731D01*
X0179323Y0099508D01*
X0179611Y0099278D01*
X0179893Y0099041D01*
X0180168Y0098797D01*
X0180438Y0098547D01*
X0180702Y0098290D01*
X0180959Y0098026D01*
X0181209Y0097756D01*
X0181453Y0097481D01*
X0181690Y0097199D01*
X0181920Y0096911D01*
X0182143Y0096618D01*
X0182359Y0096320D01*
X0182567Y0096017D01*
X0182768Y0095708D01*
X0182961Y0095395D01*
X0183146Y0095076D01*
X0183324Y0094754D01*
X0183493Y0094427D01*
X0183655Y0094096D01*
X0183808Y0093762D01*
X0183953Y0093423D01*
X0184090Y0093081D01*
X0184218Y0092736D01*
X0184338Y0092388D01*
X0184449Y0092037D01*
X0184552Y0091684D01*
X0184645Y0091328D01*
X0184731Y0090970D01*
X0184807Y0090609D01*
X0184874Y0090247D01*
X0184933Y0089884D01*
X0184982Y0089519D01*
X0185023Y0089153D01*
X0185054Y0088786D01*
X0185077Y0088419D01*
X0185090Y0088051D01*
X0185095Y0087683D01*
X0185090Y0087315D01*
X0185077Y0086947D01*
X0185054Y0086580D01*
X0185023Y0086213D01*
X0184982Y0085847D01*
X0184933Y0085482D01*
X0184874Y0085119D01*
X0184807Y0084757D01*
X0184731Y0084396D01*
X0184645Y0084038D01*
X0184552Y0083682D01*
X0184449Y0083329D01*
X0184338Y0082978D01*
X0184218Y0082630D01*
X0184090Y0082285D01*
X0183953Y0081943D01*
X0183808Y0081604D01*
X0183655Y0081270D01*
X0183493Y0080939D01*
X0183324Y0080612D01*
X0183146Y0080290D01*
X0182961Y0079971D01*
X0182768Y0079658D01*
X0182567Y0079349D01*
X0182359Y0079046D01*
X0182143Y0078748D01*
X0181920Y0078455D01*
X0181690Y0078167D01*
X0181453Y0077885D01*
X0181209Y0077610D01*
X0180959Y0077340D01*
X0180702Y0077076D01*
X0180438Y0076819D01*
X0180168Y0076569D01*
X0179893Y0076325D01*
X0179611Y0076088D01*
X0179323Y0075858D01*
X0179030Y0075635D01*
X0178732Y0075419D01*
X0178429Y0075211D01*
X0178120Y0075010D01*
X0177807Y0074817D01*
X0177488Y0074632D01*
X0177166Y0074454D01*
X0176839Y0074285D01*
X0176508Y0074123D01*
X0176174Y0073970D01*
X0175835Y0073825D01*
X0175493Y0073688D01*
X0175148Y0073560D01*
X0174800Y0073440D01*
X0174449Y0073329D01*
X0174096Y0073226D01*
X0173740Y0073133D01*
X0173382Y0073047D01*
X0173021Y0072971D01*
X0172659Y0072904D01*
X0172296Y0072845D01*
X0171931Y0072796D01*
X0171565Y0072755D01*
X0171198Y0072724D01*
X0170831Y0072701D01*
X0170463Y0072688D01*
X0170095Y0072683D01*
X0169727Y0072688D01*
X0169359Y0072701D01*
X0168992Y0072724D01*
X0168625Y0072755D01*
X0168259Y0072796D01*
X0167894Y0072845D01*
X0167531Y0072904D01*
X0167169Y0072971D01*
X0166808Y0073047D01*
X0166450Y0073133D01*
X0166094Y0073226D01*
X0165741Y0073329D01*
X0165390Y0073440D01*
X0165042Y0073560D01*
X0164697Y0073688D01*
X0164355Y0073825D01*
X0164016Y0073970D01*
X0163682Y0074123D01*
X0163351Y0074285D01*
X0163024Y0074454D01*
X0162702Y0074632D01*
X0162383Y0074817D01*
X0162070Y0075010D01*
X0161761Y0075211D01*
X0161458Y0075419D01*
X0161160Y0075635D01*
X0160867Y0075858D01*
X0160579Y0076088D01*
X0160297Y0076325D01*
X0160022Y0076569D01*
X0159752Y0076819D01*
X0159488Y0077076D01*
X0159231Y0077340D01*
X0158981Y0077610D01*
X0158737Y0077885D01*
X0158500Y0078167D01*
X0158270Y0078455D01*
X0158047Y0078748D01*
X0157831Y0079046D01*
X0157623Y0079349D01*
X0157422Y0079658D01*
X0157229Y0079971D01*
X0157044Y0080290D01*
X0156866Y0080612D01*
X0156697Y0080939D01*
X0156535Y0081270D01*
X0156382Y0081604D01*
X0156237Y0081943D01*
X0156100Y0082285D01*
X0155972Y0082630D01*
X0155852Y0082978D01*
X0155741Y0083329D01*
X0155638Y0083682D01*
X0155545Y0084038D01*
X0155459Y0084396D01*
X0155383Y0084757D01*
X0155316Y0085119D01*
X0155257Y0085482D01*
X0155208Y0085847D01*
X0155167Y0086213D01*
X0155136Y0086580D01*
X0155113Y0086947D01*
X0155100Y0087315D01*
X0155095Y0087683D01*
X0132752Y0087071D02*
X0131684Y0088139D01*
X0129549Y0088139D01*
X0128482Y0087071D01*
X0128482Y0086003D01*
X0129549Y0084936D01*
X0131684Y0084936D01*
X0132752Y0083868D01*
X0132752Y0082801D01*
X0131684Y0081733D01*
X0129549Y0081733D01*
X0128482Y0082801D01*
X0126306Y0081733D02*
X0122036Y0088139D01*
X0122036Y0081733D01*
X0119861Y0081733D02*
X0115591Y0081733D01*
X0115591Y0088139D01*
X0119861Y0088139D01*
X0117726Y0084936D02*
X0115591Y0084936D01*
X0113415Y0083868D02*
X0113415Y0082801D01*
X0112348Y0081733D01*
X0110213Y0081733D01*
X0109145Y0082801D01*
X0110213Y0084936D02*
X0112348Y0084936D01*
X0113415Y0083868D01*
X0113415Y0087071D02*
X0112348Y0088139D01*
X0110213Y0088139D01*
X0109145Y0087071D01*
X0109145Y0086003D01*
X0110213Y0084936D01*
X0098494Y0081733D02*
X0098494Y0088139D01*
X0094224Y0088139D02*
X0098494Y0081733D01*
X0094224Y0081733D02*
X0094224Y0088139D01*
X0092062Y0088139D02*
X0089927Y0088139D01*
X0090995Y0088139D02*
X0090995Y0081733D01*
X0092062Y0081733D02*
X0089927Y0081733D01*
X0081306Y0081733D02*
X0081306Y0088139D01*
X0079171Y0086003D01*
X0077036Y0088139D01*
X0077036Y0081733D01*
X0074861Y0081733D02*
X0074861Y0088139D01*
X0070591Y0088139D02*
X0070591Y0081733D01*
X0072726Y0083868D01*
X0074861Y0081733D01*
X0068415Y0084936D02*
X0068415Y0087071D01*
X0067348Y0088139D01*
X0064145Y0088139D01*
X0064145Y0081733D01*
X0064145Y0083868D02*
X0067348Y0083868D01*
X0068415Y0084936D01*
X0057095Y0093933D02*
X0056595Y0093433D01*
X0056595Y0074433D01*
X0057095Y0073933D01*
X0057095Y0072433D01*
X0057093Y0072373D01*
X0057088Y0072312D01*
X0057079Y0072253D01*
X0057066Y0072194D01*
X0057050Y0072135D01*
X0057030Y0072078D01*
X0057007Y0072023D01*
X0056980Y0071968D01*
X0056951Y0071916D01*
X0056918Y0071865D01*
X0056882Y0071816D01*
X0056844Y0071770D01*
X0056802Y0071726D01*
X0056758Y0071684D01*
X0056712Y0071646D01*
X0056663Y0071610D01*
X0056612Y0071577D01*
X0056560Y0071548D01*
X0056505Y0071521D01*
X0056450Y0071498D01*
X0056393Y0071478D01*
X0056334Y0071462D01*
X0056275Y0071449D01*
X0056216Y0071440D01*
X0056155Y0071435D01*
X0056095Y0071433D01*
X0049095Y0071433D01*
X0049035Y0071435D01*
X0048974Y0071440D01*
X0048915Y0071449D01*
X0048856Y0071462D01*
X0048797Y0071478D01*
X0048740Y0071498D01*
X0048685Y0071521D01*
X0048630Y0071548D01*
X0048578Y0071577D01*
X0048527Y0071610D01*
X0048478Y0071646D01*
X0048432Y0071684D01*
X0048388Y0071726D01*
X0048346Y0071770D01*
X0048308Y0071816D01*
X0048272Y0071865D01*
X0048239Y0071916D01*
X0048210Y0071968D01*
X0048183Y0072023D01*
X0048160Y0072078D01*
X0048140Y0072135D01*
X0048124Y0072194D01*
X0048111Y0072253D01*
X0048102Y0072312D01*
X0048097Y0072373D01*
X0048095Y0072433D01*
X0048095Y0073933D01*
X0048595Y0074433D01*
X0048595Y0093433D01*
X0048095Y0093933D01*
X0048095Y0095433D01*
X0048097Y0095493D01*
X0048102Y0095554D01*
X0048111Y0095613D01*
X0048124Y0095672D01*
X0048140Y0095731D01*
X0048160Y0095788D01*
X0048183Y0095843D01*
X0048210Y0095898D01*
X0048239Y0095950D01*
X0048272Y0096001D01*
X0048308Y0096050D01*
X0048346Y0096096D01*
X0048388Y0096140D01*
X0048432Y0096182D01*
X0048478Y0096220D01*
X0048527Y0096256D01*
X0048578Y0096289D01*
X0048630Y0096318D01*
X0048685Y0096345D01*
X0048740Y0096368D01*
X0048797Y0096388D01*
X0048856Y0096404D01*
X0048915Y0096417D01*
X0048974Y0096426D01*
X0049035Y0096431D01*
X0049095Y0096433D01*
X0056095Y0096433D01*
X0056155Y0096431D01*
X0056216Y0096426D01*
X0056275Y0096417D01*
X0056334Y0096404D01*
X0056393Y0096388D01*
X0056450Y0096368D01*
X0056505Y0096345D01*
X0056560Y0096318D01*
X0056612Y0096289D01*
X0056663Y0096256D01*
X0056712Y0096220D01*
X0056758Y0096182D01*
X0056802Y0096140D01*
X0056844Y0096096D01*
X0056882Y0096050D01*
X0056918Y0096001D01*
X0056951Y0095950D01*
X0056980Y0095898D01*
X0057007Y0095843D01*
X0057030Y0095788D01*
X0057050Y0095731D01*
X0057066Y0095672D01*
X0057079Y0095613D01*
X0057088Y0095554D01*
X0057093Y0095493D01*
X0057095Y0095433D01*
X0057095Y0093933D01*
X0126306Y0088139D02*
X0126306Y0081733D01*
X0130095Y0121433D02*
X0130100Y0121801D01*
X0130113Y0122169D01*
X0130136Y0122536D01*
X0130167Y0122903D01*
X0130208Y0123269D01*
X0130257Y0123634D01*
X0130316Y0123997D01*
X0130383Y0124359D01*
X0130459Y0124720D01*
X0130545Y0125078D01*
X0130638Y0125434D01*
X0130741Y0125787D01*
X0130852Y0126138D01*
X0130972Y0126486D01*
X0131100Y0126831D01*
X0131237Y0127173D01*
X0131382Y0127512D01*
X0131535Y0127846D01*
X0131697Y0128177D01*
X0131866Y0128504D01*
X0132044Y0128826D01*
X0132229Y0129145D01*
X0132422Y0129458D01*
X0132623Y0129767D01*
X0132831Y0130070D01*
X0133047Y0130368D01*
X0133270Y0130661D01*
X0133500Y0130949D01*
X0133737Y0131231D01*
X0133981Y0131506D01*
X0134231Y0131776D01*
X0134488Y0132040D01*
X0134752Y0132297D01*
X0135022Y0132547D01*
X0135297Y0132791D01*
X0135579Y0133028D01*
X0135867Y0133258D01*
X0136160Y0133481D01*
X0136458Y0133697D01*
X0136761Y0133905D01*
X0137070Y0134106D01*
X0137383Y0134299D01*
X0137702Y0134484D01*
X0138024Y0134662D01*
X0138351Y0134831D01*
X0138682Y0134993D01*
X0139016Y0135146D01*
X0139355Y0135291D01*
X0139697Y0135428D01*
X0140042Y0135556D01*
X0140390Y0135676D01*
X0140741Y0135787D01*
X0141094Y0135890D01*
X0141450Y0135983D01*
X0141808Y0136069D01*
X0142169Y0136145D01*
X0142531Y0136212D01*
X0142894Y0136271D01*
X0143259Y0136320D01*
X0143625Y0136361D01*
X0143992Y0136392D01*
X0144359Y0136415D01*
X0144727Y0136428D01*
X0145095Y0136433D01*
X0145463Y0136428D01*
X0145831Y0136415D01*
X0146198Y0136392D01*
X0146565Y0136361D01*
X0146931Y0136320D01*
X0147296Y0136271D01*
X0147659Y0136212D01*
X0148021Y0136145D01*
X0148382Y0136069D01*
X0148740Y0135983D01*
X0149096Y0135890D01*
X0149449Y0135787D01*
X0149800Y0135676D01*
X0150148Y0135556D01*
X0150493Y0135428D01*
X0150835Y0135291D01*
X0151174Y0135146D01*
X0151508Y0134993D01*
X0151839Y0134831D01*
X0152166Y0134662D01*
X0152488Y0134484D01*
X0152807Y0134299D01*
X0153120Y0134106D01*
X0153429Y0133905D01*
X0153732Y0133697D01*
X0154030Y0133481D01*
X0154323Y0133258D01*
X0154611Y0133028D01*
X0154893Y0132791D01*
X0155168Y0132547D01*
X0155438Y0132297D01*
X0155702Y0132040D01*
X0155959Y0131776D01*
X0156209Y0131506D01*
X0156453Y0131231D01*
X0156690Y0130949D01*
X0156920Y0130661D01*
X0157143Y0130368D01*
X0157359Y0130070D01*
X0157567Y0129767D01*
X0157768Y0129458D01*
X0157961Y0129145D01*
X0158146Y0128826D01*
X0158324Y0128504D01*
X0158493Y0128177D01*
X0158655Y0127846D01*
X0158808Y0127512D01*
X0158953Y0127173D01*
X0159090Y0126831D01*
X0159218Y0126486D01*
X0159338Y0126138D01*
X0159449Y0125787D01*
X0159552Y0125434D01*
X0159645Y0125078D01*
X0159731Y0124720D01*
X0159807Y0124359D01*
X0159874Y0123997D01*
X0159933Y0123634D01*
X0159982Y0123269D01*
X0160023Y0122903D01*
X0160054Y0122536D01*
X0160077Y0122169D01*
X0160090Y0121801D01*
X0160095Y0121433D01*
X0160090Y0121065D01*
X0160077Y0120697D01*
X0160054Y0120330D01*
X0160023Y0119963D01*
X0159982Y0119597D01*
X0159933Y0119232D01*
X0159874Y0118869D01*
X0159807Y0118507D01*
X0159731Y0118146D01*
X0159645Y0117788D01*
X0159552Y0117432D01*
X0159449Y0117079D01*
X0159338Y0116728D01*
X0159218Y0116380D01*
X0159090Y0116035D01*
X0158953Y0115693D01*
X0158808Y0115354D01*
X0158655Y0115020D01*
X0158493Y0114689D01*
X0158324Y0114362D01*
X0158146Y0114040D01*
X0157961Y0113721D01*
X0157768Y0113408D01*
X0157567Y0113099D01*
X0157359Y0112796D01*
X0157143Y0112498D01*
X0156920Y0112205D01*
X0156690Y0111917D01*
X0156453Y0111635D01*
X0156209Y0111360D01*
X0155959Y0111090D01*
X0155702Y0110826D01*
X0155438Y0110569D01*
X0155168Y0110319D01*
X0154893Y0110075D01*
X0154611Y0109838D01*
X0154323Y0109608D01*
X0154030Y0109385D01*
X0153732Y0109169D01*
X0153429Y0108961D01*
X0153120Y0108760D01*
X0152807Y0108567D01*
X0152488Y0108382D01*
X0152166Y0108204D01*
X0151839Y0108035D01*
X0151508Y0107873D01*
X0151174Y0107720D01*
X0150835Y0107575D01*
X0150493Y0107438D01*
X0150148Y0107310D01*
X0149800Y0107190D01*
X0149449Y0107079D01*
X0149096Y0106976D01*
X0148740Y0106883D01*
X0148382Y0106797D01*
X0148021Y0106721D01*
X0147659Y0106654D01*
X0147296Y0106595D01*
X0146931Y0106546D01*
X0146565Y0106505D01*
X0146198Y0106474D01*
X0145831Y0106451D01*
X0145463Y0106438D01*
X0145095Y0106433D01*
X0144727Y0106438D01*
X0144359Y0106451D01*
X0143992Y0106474D01*
X0143625Y0106505D01*
X0143259Y0106546D01*
X0142894Y0106595D01*
X0142531Y0106654D01*
X0142169Y0106721D01*
X0141808Y0106797D01*
X0141450Y0106883D01*
X0141094Y0106976D01*
X0140741Y0107079D01*
X0140390Y0107190D01*
X0140042Y0107310D01*
X0139697Y0107438D01*
X0139355Y0107575D01*
X0139016Y0107720D01*
X0138682Y0107873D01*
X0138351Y0108035D01*
X0138024Y0108204D01*
X0137702Y0108382D01*
X0137383Y0108567D01*
X0137070Y0108760D01*
X0136761Y0108961D01*
X0136458Y0109169D01*
X0136160Y0109385D01*
X0135867Y0109608D01*
X0135579Y0109838D01*
X0135297Y0110075D01*
X0135022Y0110319D01*
X0134752Y0110569D01*
X0134488Y0110826D01*
X0134231Y0111090D01*
X0133981Y0111360D01*
X0133737Y0111635D01*
X0133500Y0111917D01*
X0133270Y0112205D01*
X0133047Y0112498D01*
X0132831Y0112796D01*
X0132623Y0113099D01*
X0132422Y0113408D01*
X0132229Y0113721D01*
X0132044Y0114040D01*
X0131866Y0114362D01*
X0131697Y0114689D01*
X0131535Y0115020D01*
X0131382Y0115354D01*
X0131237Y0115693D01*
X0131100Y0116035D01*
X0130972Y0116380D01*
X0130852Y0116728D01*
X0130741Y0117079D01*
X0130638Y0117432D01*
X0130545Y0117788D01*
X0130459Y0118146D01*
X0130383Y0118507D01*
X0130316Y0118869D01*
X0130257Y0119232D01*
X0130208Y0119597D01*
X0130167Y0119963D01*
X0130136Y0120330D01*
X0130113Y0120697D01*
X0130100Y0121065D01*
X0130095Y0121433D01*
X0090795Y0154883D02*
X0086795Y0154883D01*
X0088795Y0152883D02*
X0088795Y0156883D01*
X0084295Y0156383D02*
X0084295Y0161383D01*
X0084295Y0166383D01*
X0082295Y0166383D01*
X0082295Y0156383D01*
X0084295Y0156383D01*
X0084295Y0161383D02*
X0087295Y0161383D01*
X0059795Y0161383D02*
X0059802Y0161923D01*
X0059821Y0162462D01*
X0059855Y0163001D01*
X0059901Y0163539D01*
X0059960Y0164076D01*
X0060033Y0164611D01*
X0060119Y0165144D01*
X0060218Y0165675D01*
X0060330Y0166203D01*
X0060454Y0166729D01*
X0060592Y0167251D01*
X0060742Y0167769D01*
X0060905Y0168284D01*
X0061081Y0168795D01*
X0061269Y0169301D01*
X0061470Y0169802D01*
X0061682Y0170298D01*
X0061907Y0170789D01*
X0062144Y0171274D01*
X0062393Y0171754D01*
X0062653Y0172227D01*
X0062925Y0172693D01*
X0063208Y0173153D01*
X0063503Y0173606D01*
X0063808Y0174051D01*
X0064124Y0174488D01*
X0064451Y0174918D01*
X0064789Y0175340D01*
X0065136Y0175753D01*
X0065494Y0176157D01*
X0065862Y0176553D01*
X0066239Y0176939D01*
X0066625Y0177316D01*
X0067021Y0177684D01*
X0067425Y0178042D01*
X0067838Y0178389D01*
X0068260Y0178727D01*
X0068690Y0179054D01*
X0069127Y0179370D01*
X0069572Y0179675D01*
X0070025Y0179970D01*
X0070485Y0180253D01*
X0070951Y0180525D01*
X0071424Y0180785D01*
X0071904Y0181034D01*
X0072389Y0181271D01*
X0072880Y0181496D01*
X0073376Y0181708D01*
X0073877Y0181909D01*
X0074383Y0182097D01*
X0074894Y0182273D01*
X0075409Y0182436D01*
X0075927Y0182586D01*
X0076449Y0182724D01*
X0076975Y0182848D01*
X0077503Y0182960D01*
X0078034Y0183059D01*
X0078567Y0183145D01*
X0079102Y0183218D01*
X0079639Y0183277D01*
X0080177Y0183323D01*
X0080716Y0183357D01*
X0081255Y0183376D01*
X0081795Y0183383D01*
X0082335Y0183376D01*
X0082874Y0183357D01*
X0083413Y0183323D01*
X0083951Y0183277D01*
X0084488Y0183218D01*
X0085023Y0183145D01*
X0085556Y0183059D01*
X0086087Y0182960D01*
X0086615Y0182848D01*
X0087141Y0182724D01*
X0087663Y0182586D01*
X0088181Y0182436D01*
X0088696Y0182273D01*
X0089207Y0182097D01*
X0089713Y0181909D01*
X0090214Y0181708D01*
X0090710Y0181496D01*
X0091201Y0181271D01*
X0091686Y0181034D01*
X0092166Y0180785D01*
X0092639Y0180525D01*
X0093105Y0180253D01*
X0093565Y0179970D01*
X0094018Y0179675D01*
X0094463Y0179370D01*
X0094900Y0179054D01*
X0095330Y0178727D01*
X0095752Y0178389D01*
X0096165Y0178042D01*
X0096569Y0177684D01*
X0096965Y0177316D01*
X0097351Y0176939D01*
X0097728Y0176553D01*
X0098096Y0176157D01*
X0098454Y0175753D01*
X0098801Y0175340D01*
X0099139Y0174918D01*
X0099466Y0174488D01*
X0099782Y0174051D01*
X0100087Y0173606D01*
X0100382Y0173153D01*
X0100665Y0172693D01*
X0100937Y0172227D01*
X0101197Y0171754D01*
X0101446Y0171274D01*
X0101683Y0170789D01*
X0101908Y0170298D01*
X0102120Y0169802D01*
X0102321Y0169301D01*
X0102509Y0168795D01*
X0102685Y0168284D01*
X0102848Y0167769D01*
X0102998Y0167251D01*
X0103136Y0166729D01*
X0103260Y0166203D01*
X0103372Y0165675D01*
X0103471Y0165144D01*
X0103557Y0164611D01*
X0103630Y0164076D01*
X0103689Y0163539D01*
X0103735Y0163001D01*
X0103769Y0162462D01*
X0103788Y0161923D01*
X0103795Y0161383D01*
X0103788Y0160843D01*
X0103769Y0160304D01*
X0103735Y0159765D01*
X0103689Y0159227D01*
X0103630Y0158690D01*
X0103557Y0158155D01*
X0103471Y0157622D01*
X0103372Y0157091D01*
X0103260Y0156563D01*
X0103136Y0156037D01*
X0102998Y0155515D01*
X0102848Y0154997D01*
X0102685Y0154482D01*
X0102509Y0153971D01*
X0102321Y0153465D01*
X0102120Y0152964D01*
X0101908Y0152468D01*
X0101683Y0151977D01*
X0101446Y0151492D01*
X0101197Y0151012D01*
X0100937Y0150539D01*
X0100665Y0150073D01*
X0100382Y0149613D01*
X0100087Y0149160D01*
X0099782Y0148715D01*
X0099466Y0148278D01*
X0099139Y0147848D01*
X0098801Y0147426D01*
X0098454Y0147013D01*
X0098096Y0146609D01*
X0097728Y0146213D01*
X0097351Y0145827D01*
X0096965Y0145450D01*
X0096569Y0145082D01*
X0096165Y0144724D01*
X0095752Y0144377D01*
X0095330Y0144039D01*
X0094900Y0143712D01*
X0094463Y0143396D01*
X0094018Y0143091D01*
X0093565Y0142796D01*
X0093105Y0142513D01*
X0092639Y0142241D01*
X0092166Y0141981D01*
X0091686Y0141732D01*
X0091201Y0141495D01*
X0090710Y0141270D01*
X0090214Y0141058D01*
X0089713Y0140857D01*
X0089207Y0140669D01*
X0088696Y0140493D01*
X0088181Y0140330D01*
X0087663Y0140180D01*
X0087141Y0140042D01*
X0086615Y0139918D01*
X0086087Y0139806D01*
X0085556Y0139707D01*
X0085023Y0139621D01*
X0084488Y0139548D01*
X0083951Y0139489D01*
X0083413Y0139443D01*
X0082874Y0139409D01*
X0082335Y0139390D01*
X0081795Y0139383D01*
X0081255Y0139390D01*
X0080716Y0139409D01*
X0080177Y0139443D01*
X0079639Y0139489D01*
X0079102Y0139548D01*
X0078567Y0139621D01*
X0078034Y0139707D01*
X0077503Y0139806D01*
X0076975Y0139918D01*
X0076449Y0140042D01*
X0075927Y0140180D01*
X0075409Y0140330D01*
X0074894Y0140493D01*
X0074383Y0140669D01*
X0073877Y0140857D01*
X0073376Y0141058D01*
X0072880Y0141270D01*
X0072389Y0141495D01*
X0071904Y0141732D01*
X0071424Y0141981D01*
X0070951Y0142241D01*
X0070485Y0142513D01*
X0070025Y0142796D01*
X0069572Y0143091D01*
X0069127Y0143396D01*
X0068690Y0143712D01*
X0068260Y0144039D01*
X0067838Y0144377D01*
X0067425Y0144724D01*
X0067021Y0145082D01*
X0066625Y0145450D01*
X0066239Y0145827D01*
X0065862Y0146213D01*
X0065494Y0146609D01*
X0065136Y0147013D01*
X0064789Y0147426D01*
X0064451Y0147848D01*
X0064124Y0148278D01*
X0063808Y0148715D01*
X0063503Y0149160D01*
X0063208Y0149613D01*
X0062925Y0150073D01*
X0062653Y0150539D01*
X0062393Y0151012D01*
X0062144Y0151492D01*
X0061907Y0151977D01*
X0061682Y0152468D01*
X0061470Y0152964D01*
X0061269Y0153465D01*
X0061081Y0153971D01*
X0060905Y0154482D01*
X0060742Y0154997D01*
X0060592Y0155515D01*
X0060454Y0156037D01*
X0060330Y0156563D01*
X0060218Y0157091D01*
X0060119Y0157622D01*
X0060033Y0158155D01*
X0059960Y0158690D01*
X0059901Y0159227D01*
X0059855Y0159765D01*
X0059821Y0160304D01*
X0059802Y0160843D01*
X0059795Y0161383D01*
X0076295Y0161383D02*
X0079295Y0161383D01*
X0171195Y0167883D02*
X0175195Y0167883D01*
X0173195Y0169883D02*
X0173195Y0165883D01*
X0177695Y0166383D02*
X0177695Y0161383D01*
X0177695Y0156383D01*
X0179695Y0156383D01*
X0179695Y0166383D01*
X0177695Y0166383D01*
X0177695Y0161383D02*
X0174695Y0161383D01*
X0158195Y0161383D02*
X0158202Y0161923D01*
X0158221Y0162462D01*
X0158255Y0163001D01*
X0158301Y0163539D01*
X0158360Y0164076D01*
X0158433Y0164611D01*
X0158519Y0165144D01*
X0158618Y0165675D01*
X0158730Y0166203D01*
X0158854Y0166729D01*
X0158992Y0167251D01*
X0159142Y0167769D01*
X0159305Y0168284D01*
X0159481Y0168795D01*
X0159669Y0169301D01*
X0159870Y0169802D01*
X0160082Y0170298D01*
X0160307Y0170789D01*
X0160544Y0171274D01*
X0160793Y0171754D01*
X0161053Y0172227D01*
X0161325Y0172693D01*
X0161608Y0173153D01*
X0161903Y0173606D01*
X0162208Y0174051D01*
X0162524Y0174488D01*
X0162851Y0174918D01*
X0163189Y0175340D01*
X0163536Y0175753D01*
X0163894Y0176157D01*
X0164262Y0176553D01*
X0164639Y0176939D01*
X0165025Y0177316D01*
X0165421Y0177684D01*
X0165825Y0178042D01*
X0166238Y0178389D01*
X0166660Y0178727D01*
X0167090Y0179054D01*
X0167527Y0179370D01*
X0167972Y0179675D01*
X0168425Y0179970D01*
X0168885Y0180253D01*
X0169351Y0180525D01*
X0169824Y0180785D01*
X0170304Y0181034D01*
X0170789Y0181271D01*
X0171280Y0181496D01*
X0171776Y0181708D01*
X0172277Y0181909D01*
X0172783Y0182097D01*
X0173294Y0182273D01*
X0173809Y0182436D01*
X0174327Y0182586D01*
X0174849Y0182724D01*
X0175375Y0182848D01*
X0175903Y0182960D01*
X0176434Y0183059D01*
X0176967Y0183145D01*
X0177502Y0183218D01*
X0178039Y0183277D01*
X0178577Y0183323D01*
X0179116Y0183357D01*
X0179655Y0183376D01*
X0180195Y0183383D01*
X0180735Y0183376D01*
X0181274Y0183357D01*
X0181813Y0183323D01*
X0182351Y0183277D01*
X0182888Y0183218D01*
X0183423Y0183145D01*
X0183956Y0183059D01*
X0184487Y0182960D01*
X0185015Y0182848D01*
X0185541Y0182724D01*
X0186063Y0182586D01*
X0186581Y0182436D01*
X0187096Y0182273D01*
X0187607Y0182097D01*
X0188113Y0181909D01*
X0188614Y0181708D01*
X0189110Y0181496D01*
X0189601Y0181271D01*
X0190086Y0181034D01*
X0190566Y0180785D01*
X0191039Y0180525D01*
X0191505Y0180253D01*
X0191965Y0179970D01*
X0192418Y0179675D01*
X0192863Y0179370D01*
X0193300Y0179054D01*
X0193730Y0178727D01*
X0194152Y0178389D01*
X0194565Y0178042D01*
X0194969Y0177684D01*
X0195365Y0177316D01*
X0195751Y0176939D01*
X0196128Y0176553D01*
X0196496Y0176157D01*
X0196854Y0175753D01*
X0197201Y0175340D01*
X0197539Y0174918D01*
X0197866Y0174488D01*
X0198182Y0174051D01*
X0198487Y0173606D01*
X0198782Y0173153D01*
X0199065Y0172693D01*
X0199337Y0172227D01*
X0199597Y0171754D01*
X0199846Y0171274D01*
X0200083Y0170789D01*
X0200308Y0170298D01*
X0200520Y0169802D01*
X0200721Y0169301D01*
X0200909Y0168795D01*
X0201085Y0168284D01*
X0201248Y0167769D01*
X0201398Y0167251D01*
X0201536Y0166729D01*
X0201660Y0166203D01*
X0201772Y0165675D01*
X0201871Y0165144D01*
X0201957Y0164611D01*
X0202030Y0164076D01*
X0202089Y0163539D01*
X0202135Y0163001D01*
X0202169Y0162462D01*
X0202188Y0161923D01*
X0202195Y0161383D01*
X0202188Y0160843D01*
X0202169Y0160304D01*
X0202135Y0159765D01*
X0202089Y0159227D01*
X0202030Y0158690D01*
X0201957Y0158155D01*
X0201871Y0157622D01*
X0201772Y0157091D01*
X0201660Y0156563D01*
X0201536Y0156037D01*
X0201398Y0155515D01*
X0201248Y0154997D01*
X0201085Y0154482D01*
X0200909Y0153971D01*
X0200721Y0153465D01*
X0200520Y0152964D01*
X0200308Y0152468D01*
X0200083Y0151977D01*
X0199846Y0151492D01*
X0199597Y0151012D01*
X0199337Y0150539D01*
X0199065Y0150073D01*
X0198782Y0149613D01*
X0198487Y0149160D01*
X0198182Y0148715D01*
X0197866Y0148278D01*
X0197539Y0147848D01*
X0197201Y0147426D01*
X0196854Y0147013D01*
X0196496Y0146609D01*
X0196128Y0146213D01*
X0195751Y0145827D01*
X0195365Y0145450D01*
X0194969Y0145082D01*
X0194565Y0144724D01*
X0194152Y0144377D01*
X0193730Y0144039D01*
X0193300Y0143712D01*
X0192863Y0143396D01*
X0192418Y0143091D01*
X0191965Y0142796D01*
X0191505Y0142513D01*
X0191039Y0142241D01*
X0190566Y0141981D01*
X0190086Y0141732D01*
X0189601Y0141495D01*
X0189110Y0141270D01*
X0188614Y0141058D01*
X0188113Y0140857D01*
X0187607Y0140669D01*
X0187096Y0140493D01*
X0186581Y0140330D01*
X0186063Y0140180D01*
X0185541Y0140042D01*
X0185015Y0139918D01*
X0184487Y0139806D01*
X0183956Y0139707D01*
X0183423Y0139621D01*
X0182888Y0139548D01*
X0182351Y0139489D01*
X0181813Y0139443D01*
X0181274Y0139409D01*
X0180735Y0139390D01*
X0180195Y0139383D01*
X0179655Y0139390D01*
X0179116Y0139409D01*
X0178577Y0139443D01*
X0178039Y0139489D01*
X0177502Y0139548D01*
X0176967Y0139621D01*
X0176434Y0139707D01*
X0175903Y0139806D01*
X0175375Y0139918D01*
X0174849Y0140042D01*
X0174327Y0140180D01*
X0173809Y0140330D01*
X0173294Y0140493D01*
X0172783Y0140669D01*
X0172277Y0140857D01*
X0171776Y0141058D01*
X0171280Y0141270D01*
X0170789Y0141495D01*
X0170304Y0141732D01*
X0169824Y0141981D01*
X0169351Y0142241D01*
X0168885Y0142513D01*
X0168425Y0142796D01*
X0167972Y0143091D01*
X0167527Y0143396D01*
X0167090Y0143712D01*
X0166660Y0144039D01*
X0166238Y0144377D01*
X0165825Y0144724D01*
X0165421Y0145082D01*
X0165025Y0145450D01*
X0164639Y0145827D01*
X0164262Y0146213D01*
X0163894Y0146609D01*
X0163536Y0147013D01*
X0163189Y0147426D01*
X0162851Y0147848D01*
X0162524Y0148278D01*
X0162208Y0148715D01*
X0161903Y0149160D01*
X0161608Y0149613D01*
X0161325Y0150073D01*
X0161053Y0150539D01*
X0160793Y0151012D01*
X0160544Y0151492D01*
X0160307Y0151977D01*
X0160082Y0152468D01*
X0159870Y0152964D01*
X0159669Y0153465D01*
X0159481Y0153971D01*
X0159305Y0154482D01*
X0159142Y0154997D01*
X0158992Y0155515D01*
X0158854Y0156037D01*
X0158730Y0156563D01*
X0158618Y0157091D01*
X0158519Y0157622D01*
X0158433Y0158155D01*
X0158360Y0158690D01*
X0158301Y0159227D01*
X0158255Y0159765D01*
X0158221Y0160304D01*
X0158202Y0160843D01*
X0158195Y0161383D01*
X0182695Y0161383D02*
X0185695Y0161383D01*
X0273845Y0087683D02*
X0273850Y0088051D01*
X0273863Y0088419D01*
X0273886Y0088786D01*
X0273917Y0089153D01*
X0273958Y0089519D01*
X0274007Y0089884D01*
X0274066Y0090247D01*
X0274133Y0090609D01*
X0274209Y0090970D01*
X0274295Y0091328D01*
X0274388Y0091684D01*
X0274491Y0092037D01*
X0274602Y0092388D01*
X0274722Y0092736D01*
X0274850Y0093081D01*
X0274987Y0093423D01*
X0275132Y0093762D01*
X0275285Y0094096D01*
X0275447Y0094427D01*
X0275616Y0094754D01*
X0275794Y0095076D01*
X0275979Y0095395D01*
X0276172Y0095708D01*
X0276373Y0096017D01*
X0276581Y0096320D01*
X0276797Y0096618D01*
X0277020Y0096911D01*
X0277250Y0097199D01*
X0277487Y0097481D01*
X0277731Y0097756D01*
X0277981Y0098026D01*
X0278238Y0098290D01*
X0278502Y0098547D01*
X0278772Y0098797D01*
X0279047Y0099041D01*
X0279329Y0099278D01*
X0279617Y0099508D01*
X0279910Y0099731D01*
X0280208Y0099947D01*
X0280511Y0100155D01*
X0280820Y0100356D01*
X0281133Y0100549D01*
X0281452Y0100734D01*
X0281774Y0100912D01*
X0282101Y0101081D01*
X0282432Y0101243D01*
X0282766Y0101396D01*
X0283105Y0101541D01*
X0283447Y0101678D01*
X0283792Y0101806D01*
X0284140Y0101926D01*
X0284491Y0102037D01*
X0284844Y0102140D01*
X0285200Y0102233D01*
X0285558Y0102319D01*
X0285919Y0102395D01*
X0286281Y0102462D01*
X0286644Y0102521D01*
X0287009Y0102570D01*
X0287375Y0102611D01*
X0287742Y0102642D01*
X0288109Y0102665D01*
X0288477Y0102678D01*
X0288845Y0102683D01*
X0289213Y0102678D01*
X0289581Y0102665D01*
X0289948Y0102642D01*
X0290315Y0102611D01*
X0290681Y0102570D01*
X0291046Y0102521D01*
X0291409Y0102462D01*
X0291771Y0102395D01*
X0292132Y0102319D01*
X0292490Y0102233D01*
X0292846Y0102140D01*
X0293199Y0102037D01*
X0293550Y0101926D01*
X0293898Y0101806D01*
X0294243Y0101678D01*
X0294585Y0101541D01*
X0294924Y0101396D01*
X0295258Y0101243D01*
X0295589Y0101081D01*
X0295916Y0100912D01*
X0296238Y0100734D01*
X0296557Y0100549D01*
X0296870Y0100356D01*
X0297179Y0100155D01*
X0297482Y0099947D01*
X0297780Y0099731D01*
X0298073Y0099508D01*
X0298361Y0099278D01*
X0298643Y0099041D01*
X0298918Y0098797D01*
X0299188Y0098547D01*
X0299452Y0098290D01*
X0299709Y0098026D01*
X0299959Y0097756D01*
X0300203Y0097481D01*
X0300440Y0097199D01*
X0300670Y0096911D01*
X0300893Y0096618D01*
X0301109Y0096320D01*
X0301317Y0096017D01*
X0301518Y0095708D01*
X0301711Y0095395D01*
X0301896Y0095076D01*
X0302074Y0094754D01*
X0302243Y0094427D01*
X0302405Y0094096D01*
X0302558Y0093762D01*
X0302703Y0093423D01*
X0302840Y0093081D01*
X0302968Y0092736D01*
X0303088Y0092388D01*
X0303199Y0092037D01*
X0303302Y0091684D01*
X0303395Y0091328D01*
X0303481Y0090970D01*
X0303557Y0090609D01*
X0303624Y0090247D01*
X0303683Y0089884D01*
X0303732Y0089519D01*
X0303773Y0089153D01*
X0303804Y0088786D01*
X0303827Y0088419D01*
X0303840Y0088051D01*
X0303845Y0087683D01*
X0303840Y0087315D01*
X0303827Y0086947D01*
X0303804Y0086580D01*
X0303773Y0086213D01*
X0303732Y0085847D01*
X0303683Y0085482D01*
X0303624Y0085119D01*
X0303557Y0084757D01*
X0303481Y0084396D01*
X0303395Y0084038D01*
X0303302Y0083682D01*
X0303199Y0083329D01*
X0303088Y0082978D01*
X0302968Y0082630D01*
X0302840Y0082285D01*
X0302703Y0081943D01*
X0302558Y0081604D01*
X0302405Y0081270D01*
X0302243Y0080939D01*
X0302074Y0080612D01*
X0301896Y0080290D01*
X0301711Y0079971D01*
X0301518Y0079658D01*
X0301317Y0079349D01*
X0301109Y0079046D01*
X0300893Y0078748D01*
X0300670Y0078455D01*
X0300440Y0078167D01*
X0300203Y0077885D01*
X0299959Y0077610D01*
X0299709Y0077340D01*
X0299452Y0077076D01*
X0299188Y0076819D01*
X0298918Y0076569D01*
X0298643Y0076325D01*
X0298361Y0076088D01*
X0298073Y0075858D01*
X0297780Y0075635D01*
X0297482Y0075419D01*
X0297179Y0075211D01*
X0296870Y0075010D01*
X0296557Y0074817D01*
X0296238Y0074632D01*
X0295916Y0074454D01*
X0295589Y0074285D01*
X0295258Y0074123D01*
X0294924Y0073970D01*
X0294585Y0073825D01*
X0294243Y0073688D01*
X0293898Y0073560D01*
X0293550Y0073440D01*
X0293199Y0073329D01*
X0292846Y0073226D01*
X0292490Y0073133D01*
X0292132Y0073047D01*
X0291771Y0072971D01*
X0291409Y0072904D01*
X0291046Y0072845D01*
X0290681Y0072796D01*
X0290315Y0072755D01*
X0289948Y0072724D01*
X0289581Y0072701D01*
X0289213Y0072688D01*
X0288845Y0072683D01*
X0288477Y0072688D01*
X0288109Y0072701D01*
X0287742Y0072724D01*
X0287375Y0072755D01*
X0287009Y0072796D01*
X0286644Y0072845D01*
X0286281Y0072904D01*
X0285919Y0072971D01*
X0285558Y0073047D01*
X0285200Y0073133D01*
X0284844Y0073226D01*
X0284491Y0073329D01*
X0284140Y0073440D01*
X0283792Y0073560D01*
X0283447Y0073688D01*
X0283105Y0073825D01*
X0282766Y0073970D01*
X0282432Y0074123D01*
X0282101Y0074285D01*
X0281774Y0074454D01*
X0281452Y0074632D01*
X0281133Y0074817D01*
X0280820Y0075010D01*
X0280511Y0075211D01*
X0280208Y0075419D01*
X0279910Y0075635D01*
X0279617Y0075858D01*
X0279329Y0076088D01*
X0279047Y0076325D01*
X0278772Y0076569D01*
X0278502Y0076819D01*
X0278238Y0077076D01*
X0277981Y0077340D01*
X0277731Y0077610D01*
X0277487Y0077885D01*
X0277250Y0078167D01*
X0277020Y0078455D01*
X0276797Y0078748D01*
X0276581Y0079046D01*
X0276373Y0079349D01*
X0276172Y0079658D01*
X0275979Y0079971D01*
X0275794Y0080290D01*
X0275616Y0080612D01*
X0275447Y0080939D01*
X0275285Y0081270D01*
X0275132Y0081604D01*
X0274987Y0081943D01*
X0274850Y0082285D01*
X0274722Y0082630D01*
X0274602Y0082978D01*
X0274491Y0083329D01*
X0274388Y0083682D01*
X0274295Y0084038D01*
X0274209Y0084396D01*
X0274133Y0084757D01*
X0274066Y0085119D01*
X0274007Y0085482D01*
X0273958Y0085847D01*
X0273917Y0086213D01*
X0273886Y0086580D01*
X0273863Y0086947D01*
X0273850Y0087315D01*
X0273845Y0087683D01*
X0327895Y0085821D02*
X0327895Y0084753D01*
X0328963Y0083686D01*
X0331098Y0083686D01*
X0332165Y0082618D01*
X0332165Y0081551D01*
X0331098Y0080483D01*
X0328963Y0080483D01*
X0327895Y0081551D01*
X0327895Y0085821D02*
X0328963Y0086889D01*
X0331098Y0086889D01*
X0332165Y0085821D01*
X0334341Y0086889D02*
X0334341Y0080483D01*
X0338611Y0080483D01*
X0340786Y0080483D02*
X0340786Y0086889D01*
X0345056Y0080483D01*
X0345056Y0086889D01*
X0347232Y0085821D02*
X0347232Y0084753D01*
X0348299Y0083686D01*
X0350434Y0083686D01*
X0351502Y0082618D01*
X0351502Y0081551D01*
X0350434Y0080483D01*
X0348299Y0080483D01*
X0347232Y0081551D01*
X0347232Y0085821D02*
X0348299Y0086889D01*
X0350434Y0086889D01*
X0351502Y0085821D01*
X0362895Y0086889D02*
X0362895Y0080483D01*
X0362895Y0082618D02*
X0366098Y0082618D01*
X0367165Y0083686D01*
X0367165Y0085821D01*
X0366098Y0086889D01*
X0362895Y0086889D01*
X0369341Y0086889D02*
X0369341Y0080483D01*
X0371476Y0082618D01*
X0373611Y0080483D01*
X0373611Y0086889D01*
X0375786Y0086889D02*
X0377921Y0084753D01*
X0380056Y0086889D01*
X0380056Y0080483D01*
X0375786Y0080483D02*
X0375786Y0086889D01*
X0388677Y0086889D02*
X0390812Y0086889D01*
X0389745Y0086889D02*
X0389745Y0080483D01*
X0390812Y0080483D02*
X0388677Y0080483D01*
X0392974Y0080483D02*
X0392974Y0086889D01*
X0397244Y0080483D01*
X0397244Y0086889D01*
X0399845Y0093433D02*
X0399845Y0074433D01*
X0399345Y0073933D01*
X0399345Y0072433D01*
X0399347Y0072373D01*
X0399352Y0072312D01*
X0399361Y0072253D01*
X0399374Y0072194D01*
X0399390Y0072135D01*
X0399410Y0072078D01*
X0399433Y0072023D01*
X0399460Y0071968D01*
X0399489Y0071916D01*
X0399522Y0071865D01*
X0399558Y0071816D01*
X0399596Y0071770D01*
X0399638Y0071726D01*
X0399682Y0071684D01*
X0399728Y0071646D01*
X0399777Y0071610D01*
X0399828Y0071577D01*
X0399880Y0071548D01*
X0399935Y0071521D01*
X0399990Y0071498D01*
X0400047Y0071478D01*
X0400106Y0071462D01*
X0400165Y0071449D01*
X0400224Y0071440D01*
X0400285Y0071435D01*
X0400345Y0071433D01*
X0407345Y0071433D01*
X0407405Y0071435D01*
X0407466Y0071440D01*
X0407525Y0071449D01*
X0407584Y0071462D01*
X0407643Y0071478D01*
X0407700Y0071498D01*
X0407755Y0071521D01*
X0407810Y0071548D01*
X0407862Y0071577D01*
X0407913Y0071610D01*
X0407962Y0071646D01*
X0408008Y0071684D01*
X0408052Y0071726D01*
X0408094Y0071770D01*
X0408132Y0071816D01*
X0408168Y0071865D01*
X0408201Y0071916D01*
X0408230Y0071968D01*
X0408257Y0072023D01*
X0408280Y0072078D01*
X0408300Y0072135D01*
X0408316Y0072194D01*
X0408329Y0072253D01*
X0408338Y0072312D01*
X0408343Y0072373D01*
X0408345Y0072433D01*
X0408345Y0073933D01*
X0407845Y0074433D01*
X0407845Y0093433D01*
X0408345Y0093933D01*
X0408345Y0095433D01*
X0408343Y0095493D01*
X0408338Y0095554D01*
X0408329Y0095613D01*
X0408316Y0095672D01*
X0408300Y0095731D01*
X0408280Y0095788D01*
X0408257Y0095843D01*
X0408230Y0095898D01*
X0408201Y0095950D01*
X0408168Y0096001D01*
X0408132Y0096050D01*
X0408094Y0096096D01*
X0408052Y0096140D01*
X0408008Y0096182D01*
X0407962Y0096220D01*
X0407913Y0096256D01*
X0407862Y0096289D01*
X0407810Y0096318D01*
X0407755Y0096345D01*
X0407700Y0096368D01*
X0407643Y0096388D01*
X0407584Y0096404D01*
X0407525Y0096417D01*
X0407466Y0096426D01*
X0407405Y0096431D01*
X0407345Y0096433D01*
X0400345Y0096433D01*
X0400285Y0096431D01*
X0400224Y0096426D01*
X0400165Y0096417D01*
X0400106Y0096404D01*
X0400047Y0096388D01*
X0399990Y0096368D01*
X0399935Y0096345D01*
X0399880Y0096318D01*
X0399828Y0096289D01*
X0399777Y0096256D01*
X0399728Y0096220D01*
X0399682Y0096182D01*
X0399638Y0096140D01*
X0399596Y0096096D01*
X0399558Y0096050D01*
X0399522Y0096001D01*
X0399489Y0095950D01*
X0399460Y0095898D01*
X0399433Y0095843D01*
X0399410Y0095788D01*
X0399390Y0095731D01*
X0399374Y0095672D01*
X0399361Y0095613D01*
X0399352Y0095554D01*
X0399347Y0095493D01*
X0399345Y0095433D01*
X0399345Y0093933D01*
X0399845Y0093433D01*
X0338611Y0086889D02*
X0334341Y0086889D01*
X0334341Y0083686D02*
X0336476Y0083686D01*
D12*
X0328008Y0071728D02*
X0328008Y0046138D01*
X0349583Y0046138D01*
X0349583Y0071728D01*
X0328008Y0071728D01*
X0295480Y0098852D02*
X0293145Y0096517D01*
X0293145Y0095933D01*
X0291797Y0095933D02*
X0289461Y0095933D01*
X0290629Y0095933D02*
X0290629Y0099436D01*
X0289461Y0098268D01*
X0288114Y0098268D02*
X0287530Y0097685D01*
X0286362Y0097685D01*
X0285778Y0098268D01*
X0285778Y0098852D01*
X0286362Y0099436D01*
X0287530Y0099436D01*
X0288114Y0098852D01*
X0288114Y0098268D01*
X0287530Y0097685D02*
X0288114Y0097101D01*
X0288114Y0096517D01*
X0287530Y0095933D01*
X0286362Y0095933D01*
X0285778Y0096517D01*
X0285778Y0097101D01*
X0286362Y0097685D01*
X0284430Y0098852D02*
X0282095Y0096517D01*
X0282679Y0095933D01*
X0283847Y0095933D01*
X0284430Y0096517D01*
X0284430Y0098852D01*
X0283847Y0099436D01*
X0282679Y0099436D01*
X0282095Y0098852D01*
X0282095Y0096517D01*
X0293145Y0099436D02*
X0295480Y0099436D01*
X0295480Y0098852D01*
X0294348Y0104183D02*
X0292846Y0105684D01*
X0293597Y0105684D02*
X0291345Y0105684D01*
X0291345Y0104183D02*
X0291345Y0108687D01*
X0293597Y0108687D01*
X0294348Y0107936D01*
X0294348Y0106435D01*
X0293597Y0105684D01*
X0295949Y0106435D02*
X0295949Y0104934D01*
X0296700Y0104183D01*
X0298201Y0104183D01*
X0298952Y0104934D01*
X0298952Y0105684D01*
X0298201Y0106435D01*
X0295949Y0106435D01*
X0297450Y0107936D01*
X0298952Y0108687D01*
X0306363Y0110267D02*
X0308698Y0112602D01*
X0308698Y0110267D01*
X0308114Y0109683D01*
X0306946Y0109683D01*
X0306363Y0110267D01*
X0306363Y0112602D01*
X0306946Y0113186D01*
X0308114Y0113186D01*
X0308698Y0112602D01*
X0310046Y0112602D02*
X0310046Y0112018D01*
X0310630Y0111435D01*
X0311797Y0111435D01*
X0312381Y0110851D01*
X0312381Y0110267D01*
X0311797Y0109683D01*
X0310630Y0109683D01*
X0310046Y0110267D01*
X0310046Y0110851D01*
X0310630Y0111435D01*
X0311797Y0111435D02*
X0312381Y0112018D01*
X0312381Y0112602D01*
X0311797Y0113186D01*
X0310630Y0113186D01*
X0310046Y0112602D01*
X0313729Y0112018D02*
X0314896Y0113186D01*
X0314896Y0109683D01*
X0313729Y0109683D02*
X0316064Y0109683D01*
X0317412Y0109683D02*
X0317412Y0110267D01*
X0319747Y0112602D01*
X0319747Y0113186D01*
X0317412Y0113186D01*
X0327637Y0131683D02*
X0327637Y0136187D01*
X0329889Y0136187D01*
X0330640Y0135436D01*
X0330640Y0133935D01*
X0329889Y0133184D01*
X0327637Y0133184D01*
X0329139Y0133184D02*
X0330640Y0131683D01*
X0332241Y0132434D02*
X0332992Y0131683D01*
X0334493Y0131683D01*
X0335244Y0132434D01*
X0335244Y0133935D01*
X0334493Y0134686D01*
X0333742Y0134686D01*
X0332241Y0133935D01*
X0332241Y0136187D01*
X0335244Y0136187D01*
X0306844Y0176633D02*
X0303841Y0176633D01*
X0306844Y0179636D01*
X0306844Y0180386D01*
X0306093Y0181137D01*
X0304592Y0181137D01*
X0303841Y0180386D01*
X0302240Y0180386D02*
X0302240Y0179636D01*
X0301489Y0178885D01*
X0302240Y0178134D01*
X0302240Y0177384D01*
X0301489Y0176633D01*
X0299988Y0176633D01*
X0299237Y0177384D01*
X0297636Y0177384D02*
X0296885Y0176633D01*
X0295384Y0176633D01*
X0294633Y0177384D01*
X0294633Y0180386D01*
X0295384Y0181137D01*
X0296885Y0181137D01*
X0297636Y0180386D01*
X0299237Y0180386D02*
X0299988Y0181137D01*
X0301489Y0181137D01*
X0302240Y0180386D01*
X0301489Y0178885D02*
X0300739Y0178885D01*
X0265123Y0157136D02*
X0262854Y0157136D01*
X0263988Y0157136D02*
X0263988Y0153733D01*
X0260397Y0153733D02*
X0260397Y0157136D01*
X0259263Y0157136D02*
X0261532Y0157136D01*
X0265045Y0113687D02*
X0267297Y0113687D01*
X0268048Y0112936D01*
X0268048Y0111435D01*
X0267297Y0110684D01*
X0265045Y0110684D01*
X0265045Y0109183D02*
X0265045Y0113687D01*
X0266546Y0110684D02*
X0268048Y0109183D01*
X0269649Y0109183D02*
X0269649Y0109934D01*
X0272652Y0112936D01*
X0272652Y0113687D01*
X0269649Y0113687D01*
X0245595Y0100683D02*
X0245011Y0100683D01*
X0242676Y0103018D01*
X0242092Y0103018D01*
X0242092Y0100683D01*
X0242092Y0098167D02*
X0245595Y0098167D01*
X0245595Y0096999D02*
X0245595Y0099335D01*
X0243260Y0096999D02*
X0242092Y0098167D01*
X0242676Y0095652D02*
X0243260Y0095652D01*
X0243844Y0095068D01*
X0243844Y0093900D01*
X0243260Y0093316D01*
X0242676Y0093316D01*
X0242092Y0093900D01*
X0242092Y0095068D01*
X0242676Y0095652D01*
X0243844Y0095068D02*
X0244427Y0095652D01*
X0245011Y0095652D01*
X0245595Y0095068D01*
X0245595Y0093900D01*
X0245011Y0093316D01*
X0244427Y0093316D01*
X0243844Y0093900D01*
X0242676Y0091968D02*
X0245011Y0091968D01*
X0245595Y0091385D01*
X0245595Y0090217D01*
X0245011Y0089633D01*
X0242676Y0091968D01*
X0242092Y0091385D01*
X0242092Y0090217D01*
X0242676Y0089633D01*
X0245011Y0089633D01*
X0223003Y0111683D02*
X0223003Y0112434D01*
X0226006Y0115436D01*
X0226006Y0116187D01*
X0223003Y0116187D01*
X0219900Y0116187D02*
X0219900Y0111683D01*
X0218399Y0111683D02*
X0221402Y0111683D01*
X0218399Y0114686D02*
X0219900Y0116187D01*
X0216798Y0115436D02*
X0216798Y0113935D01*
X0216047Y0113184D01*
X0213795Y0113184D01*
X0213795Y0111683D02*
X0213795Y0116187D01*
X0216047Y0116187D01*
X0216798Y0115436D01*
X0215296Y0113184D02*
X0216798Y0111683D01*
X0196845Y0100683D02*
X0196261Y0100683D01*
X0193926Y0103018D01*
X0193342Y0103018D01*
X0193342Y0100683D01*
X0193342Y0098167D02*
X0196845Y0098167D01*
X0196845Y0096999D02*
X0196845Y0099335D01*
X0194510Y0096999D02*
X0193342Y0098167D01*
X0193926Y0095652D02*
X0194510Y0095652D01*
X0195094Y0095068D01*
X0195094Y0093900D01*
X0194510Y0093316D01*
X0193926Y0093316D01*
X0193342Y0093900D01*
X0193342Y0095068D01*
X0193926Y0095652D01*
X0195094Y0095068D02*
X0195677Y0095652D01*
X0196261Y0095652D01*
X0196845Y0095068D01*
X0196845Y0093900D01*
X0196261Y0093316D01*
X0195677Y0093316D01*
X0195094Y0093900D01*
X0196261Y0091968D02*
X0196845Y0091385D01*
X0196845Y0090217D01*
X0196261Y0089633D01*
X0193926Y0091968D01*
X0196261Y0091968D01*
X0196261Y0089633D02*
X0193926Y0089633D01*
X0193342Y0090217D01*
X0193342Y0091385D01*
X0193926Y0091968D01*
X0175997Y0079436D02*
X0175997Y0078852D01*
X0173662Y0076517D01*
X0173662Y0075933D01*
X0172314Y0075933D02*
X0169979Y0075933D01*
X0171146Y0075933D02*
X0171146Y0079436D01*
X0169979Y0078268D01*
X0168631Y0078268D02*
X0168047Y0077685D01*
X0166880Y0077685D01*
X0166296Y0078268D01*
X0166296Y0078852D01*
X0166880Y0079436D01*
X0168047Y0079436D01*
X0168631Y0078852D01*
X0168631Y0078268D01*
X0168047Y0077685D02*
X0168631Y0077101D01*
X0168631Y0076517D01*
X0168047Y0075933D01*
X0166880Y0075933D01*
X0166296Y0076517D01*
X0166296Y0077101D01*
X0166880Y0077685D01*
X0164948Y0078852D02*
X0164948Y0076517D01*
X0164364Y0075933D01*
X0163196Y0075933D01*
X0162613Y0076517D01*
X0164948Y0078852D01*
X0164364Y0079436D01*
X0163196Y0079436D01*
X0162613Y0078852D01*
X0162613Y0076517D01*
X0152744Y0077434D02*
X0152744Y0078184D01*
X0151993Y0078935D01*
X0149741Y0078935D01*
X0149741Y0077434D01*
X0150492Y0076683D01*
X0151993Y0076683D01*
X0152744Y0077434D01*
X0151242Y0080436D02*
X0149741Y0078935D01*
X0151242Y0080436D02*
X0152744Y0081187D01*
X0146639Y0081187D02*
X0146639Y0076683D01*
X0148140Y0076683D02*
X0145137Y0076683D01*
X0143536Y0076683D02*
X0142035Y0078184D01*
X0142785Y0078184D02*
X0140533Y0078184D01*
X0140533Y0076683D02*
X0140533Y0081187D01*
X0142785Y0081187D01*
X0143536Y0080436D01*
X0143536Y0078935D01*
X0142785Y0078184D01*
X0145137Y0079686D02*
X0146639Y0081187D01*
X0130883Y0071728D02*
X0130883Y0046138D01*
X0109308Y0046138D01*
X0109308Y0071728D01*
X0130883Y0071728D01*
X0090883Y0071728D02*
X0090883Y0046138D01*
X0069308Y0046138D01*
X0069308Y0071728D01*
X0090883Y0071728D01*
X0138929Y0129683D02*
X0138345Y0130267D01*
X0140680Y0132602D01*
X0140680Y0130267D01*
X0140097Y0129683D01*
X0138929Y0129683D01*
X0138345Y0130267D02*
X0138345Y0132602D01*
X0138929Y0133186D01*
X0140097Y0133186D01*
X0140680Y0132602D01*
X0142028Y0132602D02*
X0142028Y0132018D01*
X0142612Y0131435D01*
X0143780Y0131435D01*
X0144364Y0130851D01*
X0144364Y0130267D01*
X0143780Y0129683D01*
X0142612Y0129683D01*
X0142028Y0130267D01*
X0142028Y0130851D01*
X0142612Y0131435D01*
X0143780Y0131435D02*
X0144364Y0132018D01*
X0144364Y0132602D01*
X0143780Y0133186D01*
X0142612Y0133186D01*
X0142028Y0132602D01*
X0145711Y0132018D02*
X0146879Y0133186D01*
X0146879Y0129683D01*
X0145711Y0129683D02*
X0148047Y0129683D01*
X0149395Y0129683D02*
X0149395Y0130267D01*
X0151730Y0132602D01*
X0151730Y0133186D01*
X0149395Y0133186D01*
X0161345Y0131187D02*
X0161345Y0126683D01*
X0161345Y0128184D02*
X0163597Y0128184D01*
X0164348Y0128935D01*
X0164348Y0130436D01*
X0163597Y0131187D01*
X0161345Y0131187D01*
X0162846Y0128184D02*
X0164348Y0126683D01*
X0165949Y0126683D02*
X0168952Y0126683D01*
X0167450Y0126683D02*
X0167450Y0131187D01*
X0165949Y0129686D01*
X0170553Y0128935D02*
X0170553Y0131187D01*
X0173556Y0131187D01*
X0172805Y0129686D02*
X0173556Y0128935D01*
X0173556Y0127434D01*
X0172805Y0126683D01*
X0171304Y0126683D01*
X0170553Y0127434D01*
X0170553Y0128935D02*
X0172054Y0129686D01*
X0172805Y0129686D01*
X0194079Y0165633D02*
X0194079Y0169036D01*
X0192945Y0169036D02*
X0195214Y0169036D01*
X0196536Y0169036D02*
X0198805Y0169036D01*
X0197671Y0169036D02*
X0197671Y0165633D01*
X0199196Y0176633D02*
X0200697Y0176633D01*
X0201448Y0177384D01*
X0203049Y0177384D02*
X0203800Y0176633D01*
X0205301Y0176633D01*
X0206052Y0177384D01*
X0206052Y0178134D01*
X0205301Y0178885D01*
X0204550Y0178885D01*
X0205301Y0178885D02*
X0206052Y0179636D01*
X0206052Y0180386D01*
X0205301Y0181137D01*
X0203800Y0181137D01*
X0203049Y0180386D01*
X0201448Y0180386D02*
X0200697Y0181137D01*
X0199196Y0181137D01*
X0198445Y0180386D01*
X0198445Y0177384D01*
X0199196Y0176633D01*
X0207653Y0176633D02*
X0210656Y0176633D01*
X0209154Y0176633D02*
X0209154Y0181137D01*
X0207653Y0179636D01*
X0104944Y0180386D02*
X0101941Y0177384D01*
X0101941Y0176633D01*
X0100340Y0177384D02*
X0099589Y0176633D01*
X0098088Y0176633D01*
X0097337Y0177384D01*
X0097337Y0180386D01*
X0098088Y0181137D01*
X0099589Y0181137D01*
X0100340Y0180386D01*
X0101941Y0181137D02*
X0104944Y0181137D01*
X0104944Y0180386D01*
X0068223Y0157136D02*
X0065954Y0157136D01*
X0067088Y0157136D02*
X0067088Y0153733D01*
X0063497Y0153733D02*
X0063497Y0157136D01*
X0062363Y0157136D02*
X0064632Y0157136D01*
X0173662Y0079436D02*
X0175997Y0079436D01*
X0368008Y0071728D02*
X0368008Y0046138D01*
X0389583Y0046138D01*
X0389583Y0071728D01*
X0368008Y0071728D01*
X0390979Y0165633D02*
X0390979Y0169036D01*
X0389845Y0169036D02*
X0392114Y0169036D01*
X0393436Y0169036D02*
X0395705Y0169036D01*
X0394571Y0169036D02*
X0394571Y0165633D01*
X0396096Y0176633D02*
X0397597Y0176633D01*
X0398348Y0177384D01*
X0399949Y0176633D02*
X0402952Y0176633D01*
X0401450Y0176633D02*
X0401450Y0181137D01*
X0399949Y0179636D01*
X0398348Y0180386D02*
X0397597Y0181137D01*
X0396096Y0181137D01*
X0395345Y0180386D01*
X0395345Y0177384D01*
X0396096Y0176633D01*
X0276701Y0289983D02*
X0276701Y0294487D01*
X0274449Y0292235D01*
X0277452Y0292235D01*
X0272848Y0293736D02*
X0272097Y0294487D01*
X0270596Y0294487D01*
X0269845Y0293736D01*
X0269845Y0290734D01*
X0270596Y0289983D01*
X0272097Y0289983D01*
X0272848Y0290734D01*
X0272951Y0318733D02*
X0271450Y0318733D01*
X0270699Y0319484D01*
X0269098Y0319484D02*
X0268347Y0318733D01*
X0266846Y0318733D01*
X0266095Y0319484D01*
X0266095Y0322486D01*
X0266846Y0323237D01*
X0268347Y0323237D01*
X0269098Y0322486D01*
X0270699Y0322486D02*
X0271450Y0323237D01*
X0272951Y0323237D01*
X0273702Y0322486D01*
X0273702Y0321736D01*
X0272951Y0320985D01*
X0273702Y0320234D01*
X0273702Y0319484D01*
X0272951Y0318733D01*
X0272951Y0320985D02*
X0272200Y0320985D01*
X0232302Y0320234D02*
X0232302Y0319484D01*
X0231551Y0318733D01*
X0230050Y0318733D01*
X0229299Y0319484D01*
X0229299Y0320234D01*
X0230050Y0320985D01*
X0231551Y0320985D01*
X0232302Y0320234D01*
X0231551Y0320985D02*
X0232302Y0321736D01*
X0232302Y0322486D01*
X0231551Y0323237D01*
X0230050Y0323237D01*
X0229299Y0322486D01*
X0229299Y0321736D01*
X0230050Y0320985D01*
X0227698Y0322486D02*
X0226947Y0323237D01*
X0225446Y0323237D01*
X0224695Y0322486D01*
X0224695Y0319484D01*
X0225446Y0318733D01*
X0226947Y0318733D01*
X0227698Y0319484D01*
X0191052Y0319484D02*
X0191052Y0322486D01*
X0190301Y0323237D01*
X0188800Y0323237D01*
X0188049Y0322486D01*
X0188049Y0321736D01*
X0188800Y0320985D01*
X0191052Y0320985D01*
X0191052Y0319484D02*
X0190301Y0318733D01*
X0188800Y0318733D01*
X0188049Y0319484D01*
X0186448Y0319484D02*
X0185697Y0318733D01*
X0184196Y0318733D01*
X0183445Y0319484D01*
X0183445Y0322486D01*
X0184196Y0323237D01*
X0185697Y0323237D01*
X0186448Y0322486D01*
X0106352Y0315383D02*
X0103349Y0315383D01*
X0104850Y0315383D02*
X0104850Y0319887D01*
X0103349Y0318386D01*
X0101748Y0319136D02*
X0101748Y0316134D01*
X0100997Y0315383D01*
X0099496Y0315383D01*
X0098745Y0316134D01*
X0098745Y0319136D01*
X0099496Y0319887D01*
X0100997Y0319887D01*
X0101748Y0319136D01*
X0100246Y0316884D02*
X0101748Y0315383D01*
X0099243Y0298737D02*
X0096991Y0296485D01*
X0099994Y0296485D01*
X0099243Y0294233D02*
X0099243Y0298737D01*
X0095390Y0297986D02*
X0095390Y0294984D01*
X0094639Y0294233D01*
X0092387Y0294233D01*
X0092387Y0298737D01*
X0094639Y0298737D01*
X0095390Y0297986D01*
X0350645Y0317384D02*
X0351396Y0316633D01*
X0352897Y0316633D01*
X0353648Y0317384D01*
X0353648Y0320386D01*
X0352897Y0321137D01*
X0351396Y0321137D01*
X0350645Y0320386D01*
X0350645Y0317384D01*
X0352146Y0318134D02*
X0353648Y0316633D01*
X0355249Y0316633D02*
X0358252Y0319636D01*
X0358252Y0320386D01*
X0357501Y0321137D01*
X0356000Y0321137D01*
X0355249Y0320386D01*
X0355249Y0316633D02*
X0358252Y0316633D01*
X0358637Y0302487D02*
X0360889Y0302487D01*
X0361640Y0301736D01*
X0361640Y0298734D01*
X0360889Y0297983D01*
X0358637Y0297983D01*
X0358637Y0302487D01*
X0363241Y0302487D02*
X0366244Y0302487D01*
X0366244Y0301736D01*
X0363241Y0298734D01*
X0363241Y0297983D01*
D13*
X0315001Y0244937D02*
X0312699Y0242635D01*
X0315768Y0242635D01*
X0315001Y0240333D02*
X0315001Y0244937D01*
X0311164Y0240333D02*
X0308095Y0240333D01*
X0308095Y0244937D01*
X0391059Y0111348D02*
X0391826Y0111348D01*
X0392593Y0110581D01*
X0393361Y0111348D01*
X0394128Y0111348D01*
X0394895Y0110581D01*
X0394895Y0109046D01*
X0394128Y0108279D01*
X0394895Y0106744D02*
X0394895Y0103675D01*
X0390291Y0103675D01*
X0391059Y0108279D02*
X0390291Y0109046D01*
X0390291Y0110581D01*
X0391059Y0111348D01*
X0392593Y0110581D02*
X0392593Y0109814D01*
X0382901Y0079399D02*
X0381367Y0079399D01*
X0380599Y0078631D01*
X0379065Y0079399D02*
X0377530Y0079399D01*
X0378298Y0079399D02*
X0378298Y0075562D01*
X0377530Y0074795D01*
X0376763Y0074795D01*
X0375996Y0075562D01*
X0380599Y0074795D02*
X0383669Y0077864D01*
X0383669Y0078631D01*
X0382901Y0079399D01*
X0383669Y0074795D02*
X0380599Y0074795D01*
X0346710Y0077023D02*
X0343641Y0077023D01*
X0345943Y0079325D01*
X0345943Y0074721D01*
X0341339Y0075489D02*
X0341339Y0079325D01*
X0340572Y0079325D02*
X0342106Y0079325D01*
X0341339Y0075489D02*
X0340572Y0074721D01*
X0339804Y0074721D01*
X0339037Y0075489D01*
X0233518Y0071720D02*
X0232751Y0072487D01*
X0231216Y0072487D01*
X0230449Y0071720D01*
X0228914Y0071720D02*
X0228914Y0070185D01*
X0228147Y0069418D01*
X0225845Y0069418D01*
X0225845Y0067883D02*
X0225845Y0072487D01*
X0228147Y0072487D01*
X0228914Y0071720D01*
X0230449Y0067883D02*
X0233518Y0070952D01*
X0233518Y0071720D01*
X0233518Y0067883D02*
X0230449Y0067883D01*
X0128010Y0076739D02*
X0127243Y0075971D01*
X0125708Y0075971D01*
X0124941Y0076739D01*
X0126475Y0078273D02*
X0127243Y0078273D01*
X0128010Y0077506D01*
X0128010Y0076739D01*
X0127243Y0078273D02*
X0128010Y0079041D01*
X0128010Y0079808D01*
X0127243Y0080575D01*
X0125708Y0080575D01*
X0124941Y0079808D01*
X0123406Y0080575D02*
X0121872Y0080575D01*
X0122639Y0080575D02*
X0122639Y0076739D01*
X0121872Y0075971D01*
X0121104Y0075971D01*
X0120337Y0076739D01*
X0088010Y0075971D02*
X0084941Y0075971D01*
X0086475Y0075971D02*
X0086475Y0080575D01*
X0084941Y0079041D01*
X0083406Y0080575D02*
X0081872Y0080575D01*
X0082639Y0080575D02*
X0082639Y0076739D01*
X0081872Y0075971D01*
X0081104Y0075971D01*
X0080337Y0076739D01*
X0067395Y0106633D02*
X0062791Y0106633D01*
X0067395Y0106633D02*
X0067395Y0109702D01*
X0067395Y0111237D02*
X0067395Y0114306D01*
X0067395Y0112772D02*
X0062791Y0112772D01*
X0064326Y0111237D01*
X0111195Y0240333D02*
X0114264Y0240333D01*
X0115799Y0240333D02*
X0118868Y0243402D01*
X0118868Y0244170D01*
X0118101Y0244937D01*
X0116566Y0244937D01*
X0115799Y0244170D01*
X0115799Y0240333D02*
X0118868Y0240333D01*
X0111195Y0240333D02*
X0111195Y0244937D01*
D14*
X0052595Y0106433D02*
X0052595Y0099933D01*
X0052595Y0067933D02*
X0052595Y0061433D01*
X0403845Y0061433D02*
X0403845Y0067933D01*
X0403845Y0099933D02*
X0403845Y0106433D01*
D15*
X0403845Y0108133D03*
X0403845Y0098133D03*
X0403845Y0069733D03*
X0403845Y0059733D03*
X0052595Y0059733D03*
X0052595Y0069733D03*
X0052595Y0098133D03*
X0052595Y0108133D03*
D16*
X0035523Y0188224D02*
X0035523Y0287043D01*
X0226468Y0287043D01*
X0226468Y0188224D01*
X0035523Y0188224D01*
X0232423Y0188224D02*
X0232423Y0287043D01*
X0423368Y0287043D01*
X0423368Y0188224D01*
X0232423Y0188224D01*
D17*
X0142795Y0303533D03*
X0113295Y0313083D03*
X0310195Y0313083D03*
X0351545Y0306033D03*
D18*
X0333845Y0292933D03*
X0327895Y0326183D03*
X0130995Y0326183D03*
X0125095Y0290433D03*
D19*
X0107845Y0292933D03*
X0142345Y0292933D03*
X0148245Y0323683D03*
X0113745Y0323683D03*
X0310645Y0323683D03*
X0316595Y0295433D03*
X0351095Y0295433D03*
X0345145Y0323683D03*
D20*
X0332895Y0323683D03*
X0322895Y0323683D03*
X0135995Y0323683D03*
X0125995Y0323683D03*
D21*
X0079795Y0161383D03*
X0182195Y0161383D03*
X0276695Y0161383D03*
X0379095Y0161383D03*
D22*
X0289395Y0305983D03*
X0249395Y0305983D03*
X0209395Y0304883D03*
X0169395Y0304883D03*
D23*
X0157595Y0121433D03*
X0157595Y0087683D03*
X0301345Y0087683D03*
X0301345Y0121433D03*
D24*
X0125095Y0292933D03*
X0333845Y0295433D03*
D25*
X0253845Y0108883D03*
X0205095Y0108883D03*
D26*
X0186088Y0065400D02*
X0186088Y0028392D01*
X0272702Y0028392D01*
X0272702Y0034691D01*
X0272794Y0034693D01*
X0272886Y0034699D01*
X0272977Y0034709D01*
X0273068Y0034722D01*
X0273158Y0034740D01*
X0273248Y0034761D01*
X0273336Y0034786D01*
X0273423Y0034815D01*
X0273509Y0034847D01*
X0273594Y0034883D01*
X0273677Y0034923D01*
X0273758Y0034966D01*
X0273837Y0035012D01*
X0273914Y0035062D01*
X0273989Y0035115D01*
X0274062Y0035172D01*
X0274132Y0035231D01*
X0274200Y0035293D01*
X0274265Y0035358D01*
X0274327Y0035426D01*
X0274386Y0035496D01*
X0274443Y0035569D01*
X0274496Y0035644D01*
X0274546Y0035721D01*
X0274592Y0035800D01*
X0274635Y0035881D01*
X0274675Y0035964D01*
X0274711Y0036049D01*
X0274743Y0036135D01*
X0274772Y0036222D01*
X0274797Y0036310D01*
X0274818Y0036400D01*
X0274836Y0036490D01*
X0274849Y0036581D01*
X0274859Y0036672D01*
X0274865Y0036764D01*
X0274867Y0036856D01*
X0274865Y0036948D01*
X0274859Y0037040D01*
X0274849Y0037131D01*
X0274836Y0037222D01*
X0274818Y0037312D01*
X0274797Y0037402D01*
X0274772Y0037490D01*
X0274743Y0037577D01*
X0274711Y0037663D01*
X0274675Y0037748D01*
X0274635Y0037831D01*
X0274592Y0037912D01*
X0274546Y0037991D01*
X0274496Y0038068D01*
X0274443Y0038143D01*
X0274386Y0038216D01*
X0274327Y0038286D01*
X0274265Y0038354D01*
X0274200Y0038419D01*
X0274132Y0038481D01*
X0274062Y0038540D01*
X0273989Y0038597D01*
X0273914Y0038650D01*
X0273837Y0038700D01*
X0273758Y0038746D01*
X0273677Y0038789D01*
X0273594Y0038829D01*
X0273509Y0038865D01*
X0273423Y0038897D01*
X0273336Y0038926D01*
X0273248Y0038951D01*
X0273158Y0038972D01*
X0273068Y0038990D01*
X0272977Y0039003D01*
X0272886Y0039013D01*
X0272794Y0039019D01*
X0272702Y0039021D01*
X0272702Y0039022D02*
X0272702Y0065400D01*
X0186088Y0065400D01*
X0185694Y0060675D02*
X0182938Y0060675D01*
X0183331Y0053195D02*
X0183243Y0053062D01*
X0183152Y0052931D01*
X0183058Y0052802D01*
X0182960Y0052675D01*
X0182860Y0052551D01*
X0182756Y0052430D01*
X0182650Y0052311D01*
X0182540Y0052194D01*
X0182428Y0052080D01*
X0182313Y0051969D01*
X0182196Y0051861D01*
X0182076Y0051756D01*
X0181953Y0051654D01*
X0181828Y0051555D01*
X0181700Y0051459D01*
X0181570Y0051366D01*
X0181438Y0051276D01*
X0181304Y0051189D01*
X0181168Y0051106D01*
X0181029Y0051026D01*
X0180889Y0050949D01*
X0180747Y0050876D01*
X0180604Y0050807D01*
X0180458Y0050741D01*
X0180311Y0050678D01*
X0180163Y0050619D01*
X0180013Y0050564D01*
X0179862Y0050512D01*
X0179709Y0050464D01*
X0179556Y0050420D01*
X0179401Y0050380D01*
X0179246Y0050343D01*
X0179090Y0050310D01*
X0178933Y0050281D01*
X0178775Y0050256D01*
X0178617Y0050235D01*
X0178458Y0050217D01*
X0178299Y0050204D01*
X0178139Y0050194D01*
X0177980Y0050188D01*
X0177820Y0050186D01*
X0177660Y0050188D01*
X0177501Y0050194D01*
X0177341Y0050204D01*
X0177182Y0050217D01*
X0177023Y0050235D01*
X0176865Y0050256D01*
X0176707Y0050281D01*
X0176550Y0050310D01*
X0176394Y0050343D01*
X0176239Y0050380D01*
X0176084Y0050420D01*
X0175931Y0050464D01*
X0175778Y0050512D01*
X0175627Y0050564D01*
X0175477Y0050619D01*
X0175329Y0050678D01*
X0175182Y0050741D01*
X0175036Y0050807D01*
X0174893Y0050876D01*
X0174751Y0050949D01*
X0174611Y0051026D01*
X0174472Y0051106D01*
X0174336Y0051189D01*
X0174202Y0051276D01*
X0174070Y0051366D01*
X0173940Y0051459D01*
X0173812Y0051555D01*
X0173687Y0051654D01*
X0173564Y0051756D01*
X0173444Y0051861D01*
X0173327Y0051969D01*
X0173212Y0052080D01*
X0173100Y0052194D01*
X0172990Y0052311D01*
X0172884Y0052430D01*
X0172780Y0052551D01*
X0172680Y0052675D01*
X0172582Y0052802D01*
X0172488Y0052931D01*
X0172397Y0053062D01*
X0172309Y0053195D01*
X0172309Y0060281D01*
X0172397Y0060414D01*
X0172488Y0060545D01*
X0172582Y0060674D01*
X0172680Y0060801D01*
X0172780Y0060925D01*
X0172884Y0061046D01*
X0172990Y0061165D01*
X0173100Y0061282D01*
X0173212Y0061396D01*
X0173327Y0061507D01*
X0173444Y0061615D01*
X0173564Y0061720D01*
X0173687Y0061822D01*
X0173812Y0061921D01*
X0173940Y0062017D01*
X0174070Y0062110D01*
X0174202Y0062200D01*
X0174336Y0062287D01*
X0174472Y0062370D01*
X0174611Y0062450D01*
X0174751Y0062527D01*
X0174893Y0062600D01*
X0175036Y0062669D01*
X0175182Y0062735D01*
X0175329Y0062798D01*
X0175477Y0062857D01*
X0175627Y0062912D01*
X0175778Y0062964D01*
X0175931Y0063012D01*
X0176084Y0063056D01*
X0176239Y0063096D01*
X0176394Y0063133D01*
X0176550Y0063166D01*
X0176707Y0063195D01*
X0176865Y0063220D01*
X0177023Y0063241D01*
X0177182Y0063259D01*
X0177341Y0063272D01*
X0177501Y0063282D01*
X0177660Y0063288D01*
X0177820Y0063290D01*
X0177980Y0063288D01*
X0178139Y0063282D01*
X0178299Y0063272D01*
X0178458Y0063259D01*
X0178617Y0063241D01*
X0178775Y0063220D01*
X0178933Y0063195D01*
X0179090Y0063166D01*
X0179246Y0063133D01*
X0179401Y0063096D01*
X0179556Y0063056D01*
X0179709Y0063012D01*
X0179862Y0062964D01*
X0180013Y0062912D01*
X0180163Y0062857D01*
X0180311Y0062798D01*
X0180458Y0062735D01*
X0180604Y0062669D01*
X0180747Y0062600D01*
X0180889Y0062527D01*
X0181029Y0062450D01*
X0181168Y0062370D01*
X0181304Y0062287D01*
X0181438Y0062200D01*
X0181570Y0062110D01*
X0181700Y0062017D01*
X0181828Y0061921D01*
X0181953Y0061822D01*
X0182076Y0061720D01*
X0182196Y0061615D01*
X0182313Y0061507D01*
X0182428Y0061396D01*
X0182540Y0061282D01*
X0182650Y0061165D01*
X0182756Y0061046D01*
X0182860Y0060925D01*
X0182960Y0060801D01*
X0183058Y0060674D01*
X0183152Y0060545D01*
X0183243Y0060414D01*
X0183331Y0060281D01*
X0182938Y0052801D02*
X0185694Y0052801D01*
X0273096Y0052801D02*
X0275852Y0052801D01*
X0275459Y0060281D02*
X0275547Y0060414D01*
X0275638Y0060545D01*
X0275732Y0060674D01*
X0275830Y0060801D01*
X0275930Y0060925D01*
X0276034Y0061046D01*
X0276140Y0061165D01*
X0276250Y0061282D01*
X0276362Y0061396D01*
X0276477Y0061507D01*
X0276594Y0061615D01*
X0276714Y0061720D01*
X0276837Y0061822D01*
X0276962Y0061921D01*
X0277090Y0062017D01*
X0277220Y0062110D01*
X0277352Y0062200D01*
X0277486Y0062287D01*
X0277622Y0062370D01*
X0277761Y0062450D01*
X0277901Y0062527D01*
X0278043Y0062600D01*
X0278186Y0062669D01*
X0278332Y0062735D01*
X0278479Y0062798D01*
X0278627Y0062857D01*
X0278777Y0062912D01*
X0278928Y0062964D01*
X0279081Y0063012D01*
X0279234Y0063056D01*
X0279389Y0063096D01*
X0279544Y0063133D01*
X0279700Y0063166D01*
X0279857Y0063195D01*
X0280015Y0063220D01*
X0280173Y0063241D01*
X0280332Y0063259D01*
X0280491Y0063272D01*
X0280651Y0063282D01*
X0280810Y0063288D01*
X0280970Y0063290D01*
X0281130Y0063288D01*
X0281289Y0063282D01*
X0281449Y0063272D01*
X0281608Y0063259D01*
X0281767Y0063241D01*
X0281925Y0063220D01*
X0282083Y0063195D01*
X0282240Y0063166D01*
X0282396Y0063133D01*
X0282551Y0063096D01*
X0282706Y0063056D01*
X0282859Y0063012D01*
X0283012Y0062964D01*
X0283163Y0062912D01*
X0283313Y0062857D01*
X0283461Y0062798D01*
X0283608Y0062735D01*
X0283754Y0062669D01*
X0283897Y0062600D01*
X0284039Y0062527D01*
X0284179Y0062450D01*
X0284318Y0062370D01*
X0284454Y0062287D01*
X0284588Y0062200D01*
X0284720Y0062110D01*
X0284850Y0062017D01*
X0284978Y0061921D01*
X0285103Y0061822D01*
X0285226Y0061720D01*
X0285346Y0061615D01*
X0285463Y0061507D01*
X0285578Y0061396D01*
X0285690Y0061282D01*
X0285800Y0061165D01*
X0285906Y0061046D01*
X0286010Y0060925D01*
X0286110Y0060801D01*
X0286208Y0060674D01*
X0286302Y0060545D01*
X0286393Y0060414D01*
X0286481Y0060281D01*
X0286482Y0060281D02*
X0286482Y0053195D01*
X0286481Y0053195D02*
X0286393Y0053062D01*
X0286302Y0052931D01*
X0286208Y0052802D01*
X0286110Y0052675D01*
X0286010Y0052551D01*
X0285906Y0052430D01*
X0285800Y0052311D01*
X0285690Y0052194D01*
X0285578Y0052080D01*
X0285463Y0051969D01*
X0285346Y0051861D01*
X0285226Y0051756D01*
X0285103Y0051654D01*
X0284978Y0051555D01*
X0284850Y0051459D01*
X0284720Y0051366D01*
X0284588Y0051276D01*
X0284454Y0051189D01*
X0284318Y0051106D01*
X0284179Y0051026D01*
X0284039Y0050949D01*
X0283897Y0050876D01*
X0283754Y0050807D01*
X0283608Y0050741D01*
X0283461Y0050678D01*
X0283313Y0050619D01*
X0283163Y0050564D01*
X0283012Y0050512D01*
X0282859Y0050464D01*
X0282706Y0050420D01*
X0282551Y0050380D01*
X0282396Y0050343D01*
X0282240Y0050310D01*
X0282083Y0050281D01*
X0281925Y0050256D01*
X0281767Y0050235D01*
X0281608Y0050217D01*
X0281449Y0050204D01*
X0281289Y0050194D01*
X0281130Y0050188D01*
X0280970Y0050186D01*
X0280810Y0050188D01*
X0280651Y0050194D01*
X0280491Y0050204D01*
X0280332Y0050217D01*
X0280173Y0050235D01*
X0280015Y0050256D01*
X0279857Y0050281D01*
X0279700Y0050310D01*
X0279544Y0050343D01*
X0279389Y0050380D01*
X0279234Y0050420D01*
X0279081Y0050464D01*
X0278928Y0050512D01*
X0278777Y0050564D01*
X0278627Y0050619D01*
X0278479Y0050678D01*
X0278332Y0050741D01*
X0278186Y0050807D01*
X0278043Y0050876D01*
X0277901Y0050949D01*
X0277761Y0051026D01*
X0277622Y0051106D01*
X0277486Y0051189D01*
X0277352Y0051276D01*
X0277220Y0051366D01*
X0277090Y0051459D01*
X0276962Y0051555D01*
X0276837Y0051654D01*
X0276714Y0051756D01*
X0276594Y0051861D01*
X0276477Y0051969D01*
X0276362Y0052080D01*
X0276250Y0052194D01*
X0276140Y0052311D01*
X0276034Y0052430D01*
X0275930Y0052551D01*
X0275830Y0052675D01*
X0275732Y0052802D01*
X0275638Y0052931D01*
X0275547Y0053062D01*
X0275459Y0053195D01*
X0275852Y0060675D02*
X0273096Y0060675D01*
M02*
