G75*
%MOIN*%
%OFA0B0*%
%FSLAX25Y25*%
%IPPOS*%
%LPD*%
%AMOC8*
5,1,8,0,0,1.08239X$1,22.5*
%
%ADD10C,0.00000*%
%ADD11R,0.05118X0.05906*%
%ADD12R,0.05512X0.07087*%
%ADD13C,0.07677*%
%ADD14R,0.02200X0.05200*%
%ADD15R,0.05200X0.02200*%
%ADD16R,0.05906X0.05118*%
%ADD17R,0.07087X0.05512*%
%ADD18OC8,0.05200*%
%ADD19C,0.08858*%
%ADD20C,0.06000*%
%ADD21C,0.05200*%
%ADD22C,0.10000*%
%ADD23OC8,0.10000*%
%ADD24R,0.06299X0.07087*%
%ADD25R,0.07087X0.06299*%
%ADD26OC8,0.06000*%
%ADD27R,0.08268X0.08268*%
%ADD28C,0.02000*%
%ADD29C,0.01200*%
%ADD30C,0.07000*%
%ADD31C,0.10000*%
%ADD32C,0.03200*%
%ADD33C,0.05000*%
%ADD34C,0.02400*%
D10*
X0032595Y0025183D02*
X0032595Y0338175D01*
X0424327Y0338175D01*
X0424327Y0025183D01*
X0032595Y0025183D01*
X0171914Y0056699D02*
X0171916Y0056852D01*
X0171922Y0057006D01*
X0171932Y0057159D01*
X0171946Y0057311D01*
X0171964Y0057464D01*
X0171986Y0057615D01*
X0172011Y0057766D01*
X0172041Y0057917D01*
X0172075Y0058067D01*
X0172112Y0058215D01*
X0172153Y0058363D01*
X0172198Y0058509D01*
X0172247Y0058655D01*
X0172300Y0058799D01*
X0172356Y0058941D01*
X0172416Y0059082D01*
X0172480Y0059222D01*
X0172547Y0059360D01*
X0172618Y0059496D01*
X0172693Y0059630D01*
X0172770Y0059762D01*
X0172852Y0059892D01*
X0172936Y0060020D01*
X0173024Y0060146D01*
X0173115Y0060269D01*
X0173209Y0060390D01*
X0173307Y0060508D01*
X0173407Y0060624D01*
X0173511Y0060737D01*
X0173617Y0060848D01*
X0173726Y0060956D01*
X0173838Y0061061D01*
X0173952Y0061162D01*
X0174070Y0061261D01*
X0174189Y0061357D01*
X0174311Y0061450D01*
X0174436Y0061539D01*
X0174563Y0061626D01*
X0174692Y0061708D01*
X0174823Y0061788D01*
X0174956Y0061864D01*
X0175091Y0061937D01*
X0175228Y0062006D01*
X0175367Y0062071D01*
X0175507Y0062133D01*
X0175649Y0062191D01*
X0175792Y0062246D01*
X0175937Y0062297D01*
X0176083Y0062344D01*
X0176230Y0062387D01*
X0176378Y0062426D01*
X0176527Y0062462D01*
X0176677Y0062493D01*
X0176828Y0062521D01*
X0176979Y0062545D01*
X0177132Y0062565D01*
X0177284Y0062581D01*
X0177437Y0062593D01*
X0177590Y0062601D01*
X0177743Y0062605D01*
X0177897Y0062605D01*
X0178050Y0062601D01*
X0178203Y0062593D01*
X0178356Y0062581D01*
X0178508Y0062565D01*
X0178661Y0062545D01*
X0178812Y0062521D01*
X0178963Y0062493D01*
X0179113Y0062462D01*
X0179262Y0062426D01*
X0179410Y0062387D01*
X0179557Y0062344D01*
X0179703Y0062297D01*
X0179848Y0062246D01*
X0179991Y0062191D01*
X0180133Y0062133D01*
X0180273Y0062071D01*
X0180412Y0062006D01*
X0180549Y0061937D01*
X0180684Y0061864D01*
X0180817Y0061788D01*
X0180948Y0061708D01*
X0181077Y0061626D01*
X0181204Y0061539D01*
X0181329Y0061450D01*
X0181451Y0061357D01*
X0181570Y0061261D01*
X0181688Y0061162D01*
X0181802Y0061061D01*
X0181914Y0060956D01*
X0182023Y0060848D01*
X0182129Y0060737D01*
X0182233Y0060624D01*
X0182333Y0060508D01*
X0182431Y0060390D01*
X0182525Y0060269D01*
X0182616Y0060146D01*
X0182704Y0060020D01*
X0182788Y0059892D01*
X0182870Y0059762D01*
X0182947Y0059630D01*
X0183022Y0059496D01*
X0183093Y0059360D01*
X0183160Y0059222D01*
X0183224Y0059082D01*
X0183284Y0058941D01*
X0183340Y0058799D01*
X0183393Y0058655D01*
X0183442Y0058509D01*
X0183487Y0058363D01*
X0183528Y0058215D01*
X0183565Y0058067D01*
X0183599Y0057917D01*
X0183629Y0057766D01*
X0183654Y0057615D01*
X0183676Y0057464D01*
X0183694Y0057311D01*
X0183708Y0057159D01*
X0183718Y0057006D01*
X0183724Y0056852D01*
X0183726Y0056699D01*
X0183724Y0056546D01*
X0183718Y0056392D01*
X0183708Y0056239D01*
X0183694Y0056087D01*
X0183676Y0055934D01*
X0183654Y0055783D01*
X0183629Y0055632D01*
X0183599Y0055481D01*
X0183565Y0055331D01*
X0183528Y0055183D01*
X0183487Y0055035D01*
X0183442Y0054889D01*
X0183393Y0054743D01*
X0183340Y0054599D01*
X0183284Y0054457D01*
X0183224Y0054316D01*
X0183160Y0054176D01*
X0183093Y0054038D01*
X0183022Y0053902D01*
X0182947Y0053768D01*
X0182870Y0053636D01*
X0182788Y0053506D01*
X0182704Y0053378D01*
X0182616Y0053252D01*
X0182525Y0053129D01*
X0182431Y0053008D01*
X0182333Y0052890D01*
X0182233Y0052774D01*
X0182129Y0052661D01*
X0182023Y0052550D01*
X0181914Y0052442D01*
X0181802Y0052337D01*
X0181688Y0052236D01*
X0181570Y0052137D01*
X0181451Y0052041D01*
X0181329Y0051948D01*
X0181204Y0051859D01*
X0181077Y0051772D01*
X0180948Y0051690D01*
X0180817Y0051610D01*
X0180684Y0051534D01*
X0180549Y0051461D01*
X0180412Y0051392D01*
X0180273Y0051327D01*
X0180133Y0051265D01*
X0179991Y0051207D01*
X0179848Y0051152D01*
X0179703Y0051101D01*
X0179557Y0051054D01*
X0179410Y0051011D01*
X0179262Y0050972D01*
X0179113Y0050936D01*
X0178963Y0050905D01*
X0178812Y0050877D01*
X0178661Y0050853D01*
X0178508Y0050833D01*
X0178356Y0050817D01*
X0178203Y0050805D01*
X0178050Y0050797D01*
X0177897Y0050793D01*
X0177743Y0050793D01*
X0177590Y0050797D01*
X0177437Y0050805D01*
X0177284Y0050817D01*
X0177132Y0050833D01*
X0176979Y0050853D01*
X0176828Y0050877D01*
X0176677Y0050905D01*
X0176527Y0050936D01*
X0176378Y0050972D01*
X0176230Y0051011D01*
X0176083Y0051054D01*
X0175937Y0051101D01*
X0175792Y0051152D01*
X0175649Y0051207D01*
X0175507Y0051265D01*
X0175367Y0051327D01*
X0175228Y0051392D01*
X0175091Y0051461D01*
X0174956Y0051534D01*
X0174823Y0051610D01*
X0174692Y0051690D01*
X0174563Y0051772D01*
X0174436Y0051859D01*
X0174311Y0051948D01*
X0174189Y0052041D01*
X0174070Y0052137D01*
X0173952Y0052236D01*
X0173838Y0052337D01*
X0173726Y0052442D01*
X0173617Y0052550D01*
X0173511Y0052661D01*
X0173407Y0052774D01*
X0173307Y0052890D01*
X0173209Y0053008D01*
X0173115Y0053129D01*
X0173024Y0053252D01*
X0172936Y0053378D01*
X0172852Y0053506D01*
X0172770Y0053636D01*
X0172693Y0053768D01*
X0172618Y0053902D01*
X0172547Y0054038D01*
X0172480Y0054176D01*
X0172416Y0054316D01*
X0172356Y0054457D01*
X0172300Y0054599D01*
X0172247Y0054743D01*
X0172198Y0054889D01*
X0172153Y0055035D01*
X0172112Y0055183D01*
X0172075Y0055331D01*
X0172041Y0055481D01*
X0172011Y0055632D01*
X0171986Y0055783D01*
X0171964Y0055934D01*
X0171946Y0056087D01*
X0171932Y0056239D01*
X0171922Y0056392D01*
X0171916Y0056546D01*
X0171914Y0056699D01*
X0223147Y0143293D02*
X0223149Y0143451D01*
X0223155Y0143609D01*
X0223165Y0143767D01*
X0223179Y0143925D01*
X0223197Y0144082D01*
X0223218Y0144239D01*
X0223244Y0144395D01*
X0223274Y0144551D01*
X0223307Y0144706D01*
X0223345Y0144859D01*
X0223386Y0145012D01*
X0223431Y0145164D01*
X0223480Y0145315D01*
X0223533Y0145464D01*
X0223589Y0145612D01*
X0223649Y0145758D01*
X0223713Y0145903D01*
X0223781Y0146046D01*
X0223852Y0146188D01*
X0223926Y0146328D01*
X0224004Y0146465D01*
X0224086Y0146601D01*
X0224170Y0146735D01*
X0224259Y0146866D01*
X0224350Y0146995D01*
X0224445Y0147122D01*
X0224542Y0147247D01*
X0224643Y0147369D01*
X0224747Y0147488D01*
X0224854Y0147605D01*
X0224964Y0147719D01*
X0225077Y0147830D01*
X0225192Y0147939D01*
X0225310Y0148044D01*
X0225431Y0148146D01*
X0225554Y0148246D01*
X0225680Y0148342D01*
X0225808Y0148435D01*
X0225938Y0148525D01*
X0226071Y0148611D01*
X0226206Y0148695D01*
X0226342Y0148774D01*
X0226481Y0148851D01*
X0226622Y0148923D01*
X0226764Y0148993D01*
X0226908Y0149058D01*
X0227054Y0149120D01*
X0227201Y0149178D01*
X0227350Y0149233D01*
X0227500Y0149284D01*
X0227651Y0149331D01*
X0227803Y0149374D01*
X0227956Y0149413D01*
X0228111Y0149449D01*
X0228266Y0149480D01*
X0228422Y0149508D01*
X0228578Y0149532D01*
X0228735Y0149552D01*
X0228893Y0149568D01*
X0229050Y0149580D01*
X0229209Y0149588D01*
X0229367Y0149592D01*
X0229525Y0149592D01*
X0229683Y0149588D01*
X0229842Y0149580D01*
X0229999Y0149568D01*
X0230157Y0149552D01*
X0230314Y0149532D01*
X0230470Y0149508D01*
X0230626Y0149480D01*
X0230781Y0149449D01*
X0230936Y0149413D01*
X0231089Y0149374D01*
X0231241Y0149331D01*
X0231392Y0149284D01*
X0231542Y0149233D01*
X0231691Y0149178D01*
X0231838Y0149120D01*
X0231984Y0149058D01*
X0232128Y0148993D01*
X0232270Y0148923D01*
X0232411Y0148851D01*
X0232550Y0148774D01*
X0232686Y0148695D01*
X0232821Y0148611D01*
X0232954Y0148525D01*
X0233084Y0148435D01*
X0233212Y0148342D01*
X0233338Y0148246D01*
X0233461Y0148146D01*
X0233582Y0148044D01*
X0233700Y0147939D01*
X0233815Y0147830D01*
X0233928Y0147719D01*
X0234038Y0147605D01*
X0234145Y0147488D01*
X0234249Y0147369D01*
X0234350Y0147247D01*
X0234447Y0147122D01*
X0234542Y0146995D01*
X0234633Y0146866D01*
X0234722Y0146735D01*
X0234806Y0146601D01*
X0234888Y0146465D01*
X0234966Y0146328D01*
X0235040Y0146188D01*
X0235111Y0146046D01*
X0235179Y0145903D01*
X0235243Y0145758D01*
X0235303Y0145612D01*
X0235359Y0145464D01*
X0235412Y0145315D01*
X0235461Y0145164D01*
X0235506Y0145012D01*
X0235547Y0144859D01*
X0235585Y0144706D01*
X0235618Y0144551D01*
X0235648Y0144395D01*
X0235674Y0144239D01*
X0235695Y0144082D01*
X0235713Y0143925D01*
X0235727Y0143767D01*
X0235737Y0143609D01*
X0235743Y0143451D01*
X0235745Y0143293D01*
X0235743Y0143135D01*
X0235737Y0142977D01*
X0235727Y0142819D01*
X0235713Y0142661D01*
X0235695Y0142504D01*
X0235674Y0142347D01*
X0235648Y0142191D01*
X0235618Y0142035D01*
X0235585Y0141880D01*
X0235547Y0141727D01*
X0235506Y0141574D01*
X0235461Y0141422D01*
X0235412Y0141271D01*
X0235359Y0141122D01*
X0235303Y0140974D01*
X0235243Y0140828D01*
X0235179Y0140683D01*
X0235111Y0140540D01*
X0235040Y0140398D01*
X0234966Y0140258D01*
X0234888Y0140121D01*
X0234806Y0139985D01*
X0234722Y0139851D01*
X0234633Y0139720D01*
X0234542Y0139591D01*
X0234447Y0139464D01*
X0234350Y0139339D01*
X0234249Y0139217D01*
X0234145Y0139098D01*
X0234038Y0138981D01*
X0233928Y0138867D01*
X0233815Y0138756D01*
X0233700Y0138647D01*
X0233582Y0138542D01*
X0233461Y0138440D01*
X0233338Y0138340D01*
X0233212Y0138244D01*
X0233084Y0138151D01*
X0232954Y0138061D01*
X0232821Y0137975D01*
X0232686Y0137891D01*
X0232550Y0137812D01*
X0232411Y0137735D01*
X0232270Y0137663D01*
X0232128Y0137593D01*
X0231984Y0137528D01*
X0231838Y0137466D01*
X0231691Y0137408D01*
X0231542Y0137353D01*
X0231392Y0137302D01*
X0231241Y0137255D01*
X0231089Y0137212D01*
X0230936Y0137173D01*
X0230781Y0137137D01*
X0230626Y0137106D01*
X0230470Y0137078D01*
X0230314Y0137054D01*
X0230157Y0137034D01*
X0229999Y0137018D01*
X0229842Y0137006D01*
X0229683Y0136998D01*
X0229525Y0136994D01*
X0229367Y0136994D01*
X0229209Y0136998D01*
X0229050Y0137006D01*
X0228893Y0137018D01*
X0228735Y0137034D01*
X0228578Y0137054D01*
X0228422Y0137078D01*
X0228266Y0137106D01*
X0228111Y0137137D01*
X0227956Y0137173D01*
X0227803Y0137212D01*
X0227651Y0137255D01*
X0227500Y0137302D01*
X0227350Y0137353D01*
X0227201Y0137408D01*
X0227054Y0137466D01*
X0226908Y0137528D01*
X0226764Y0137593D01*
X0226622Y0137663D01*
X0226481Y0137735D01*
X0226342Y0137812D01*
X0226206Y0137891D01*
X0226071Y0137975D01*
X0225938Y0138061D01*
X0225808Y0138151D01*
X0225680Y0138244D01*
X0225554Y0138340D01*
X0225431Y0138440D01*
X0225310Y0138542D01*
X0225192Y0138647D01*
X0225077Y0138756D01*
X0224964Y0138867D01*
X0224854Y0138981D01*
X0224747Y0139098D01*
X0224643Y0139217D01*
X0224542Y0139339D01*
X0224445Y0139464D01*
X0224350Y0139591D01*
X0224259Y0139720D01*
X0224170Y0139851D01*
X0224086Y0139985D01*
X0224004Y0140121D01*
X0223926Y0140258D01*
X0223852Y0140398D01*
X0223781Y0140540D01*
X0223713Y0140683D01*
X0223649Y0140828D01*
X0223589Y0140974D01*
X0223533Y0141122D01*
X0223480Y0141271D01*
X0223431Y0141422D01*
X0223386Y0141574D01*
X0223345Y0141727D01*
X0223307Y0141880D01*
X0223274Y0142035D01*
X0223244Y0142191D01*
X0223218Y0142347D01*
X0223197Y0142504D01*
X0223179Y0142661D01*
X0223165Y0142819D01*
X0223155Y0142977D01*
X0223149Y0143135D01*
X0223147Y0143293D01*
X0275064Y0056699D02*
X0275066Y0056852D01*
X0275072Y0057006D01*
X0275082Y0057159D01*
X0275096Y0057311D01*
X0275114Y0057464D01*
X0275136Y0057615D01*
X0275161Y0057766D01*
X0275191Y0057917D01*
X0275225Y0058067D01*
X0275262Y0058215D01*
X0275303Y0058363D01*
X0275348Y0058509D01*
X0275397Y0058655D01*
X0275450Y0058799D01*
X0275506Y0058941D01*
X0275566Y0059082D01*
X0275630Y0059222D01*
X0275697Y0059360D01*
X0275768Y0059496D01*
X0275843Y0059630D01*
X0275920Y0059762D01*
X0276002Y0059892D01*
X0276086Y0060020D01*
X0276174Y0060146D01*
X0276265Y0060269D01*
X0276359Y0060390D01*
X0276457Y0060508D01*
X0276557Y0060624D01*
X0276661Y0060737D01*
X0276767Y0060848D01*
X0276876Y0060956D01*
X0276988Y0061061D01*
X0277102Y0061162D01*
X0277220Y0061261D01*
X0277339Y0061357D01*
X0277461Y0061450D01*
X0277586Y0061539D01*
X0277713Y0061626D01*
X0277842Y0061708D01*
X0277973Y0061788D01*
X0278106Y0061864D01*
X0278241Y0061937D01*
X0278378Y0062006D01*
X0278517Y0062071D01*
X0278657Y0062133D01*
X0278799Y0062191D01*
X0278942Y0062246D01*
X0279087Y0062297D01*
X0279233Y0062344D01*
X0279380Y0062387D01*
X0279528Y0062426D01*
X0279677Y0062462D01*
X0279827Y0062493D01*
X0279978Y0062521D01*
X0280129Y0062545D01*
X0280282Y0062565D01*
X0280434Y0062581D01*
X0280587Y0062593D01*
X0280740Y0062601D01*
X0280893Y0062605D01*
X0281047Y0062605D01*
X0281200Y0062601D01*
X0281353Y0062593D01*
X0281506Y0062581D01*
X0281658Y0062565D01*
X0281811Y0062545D01*
X0281962Y0062521D01*
X0282113Y0062493D01*
X0282263Y0062462D01*
X0282412Y0062426D01*
X0282560Y0062387D01*
X0282707Y0062344D01*
X0282853Y0062297D01*
X0282998Y0062246D01*
X0283141Y0062191D01*
X0283283Y0062133D01*
X0283423Y0062071D01*
X0283562Y0062006D01*
X0283699Y0061937D01*
X0283834Y0061864D01*
X0283967Y0061788D01*
X0284098Y0061708D01*
X0284227Y0061626D01*
X0284354Y0061539D01*
X0284479Y0061450D01*
X0284601Y0061357D01*
X0284720Y0061261D01*
X0284838Y0061162D01*
X0284952Y0061061D01*
X0285064Y0060956D01*
X0285173Y0060848D01*
X0285279Y0060737D01*
X0285383Y0060624D01*
X0285483Y0060508D01*
X0285581Y0060390D01*
X0285675Y0060269D01*
X0285766Y0060146D01*
X0285854Y0060020D01*
X0285938Y0059892D01*
X0286020Y0059762D01*
X0286097Y0059630D01*
X0286172Y0059496D01*
X0286243Y0059360D01*
X0286310Y0059222D01*
X0286374Y0059082D01*
X0286434Y0058941D01*
X0286490Y0058799D01*
X0286543Y0058655D01*
X0286592Y0058509D01*
X0286637Y0058363D01*
X0286678Y0058215D01*
X0286715Y0058067D01*
X0286749Y0057917D01*
X0286779Y0057766D01*
X0286804Y0057615D01*
X0286826Y0057464D01*
X0286844Y0057311D01*
X0286858Y0057159D01*
X0286868Y0057006D01*
X0286874Y0056852D01*
X0286876Y0056699D01*
X0286874Y0056546D01*
X0286868Y0056392D01*
X0286858Y0056239D01*
X0286844Y0056087D01*
X0286826Y0055934D01*
X0286804Y0055783D01*
X0286779Y0055632D01*
X0286749Y0055481D01*
X0286715Y0055331D01*
X0286678Y0055183D01*
X0286637Y0055035D01*
X0286592Y0054889D01*
X0286543Y0054743D01*
X0286490Y0054599D01*
X0286434Y0054457D01*
X0286374Y0054316D01*
X0286310Y0054176D01*
X0286243Y0054038D01*
X0286172Y0053902D01*
X0286097Y0053768D01*
X0286020Y0053636D01*
X0285938Y0053506D01*
X0285854Y0053378D01*
X0285766Y0053252D01*
X0285675Y0053129D01*
X0285581Y0053008D01*
X0285483Y0052890D01*
X0285383Y0052774D01*
X0285279Y0052661D01*
X0285173Y0052550D01*
X0285064Y0052442D01*
X0284952Y0052337D01*
X0284838Y0052236D01*
X0284720Y0052137D01*
X0284601Y0052041D01*
X0284479Y0051948D01*
X0284354Y0051859D01*
X0284227Y0051772D01*
X0284098Y0051690D01*
X0283967Y0051610D01*
X0283834Y0051534D01*
X0283699Y0051461D01*
X0283562Y0051392D01*
X0283423Y0051327D01*
X0283283Y0051265D01*
X0283141Y0051207D01*
X0282998Y0051152D01*
X0282853Y0051101D01*
X0282707Y0051054D01*
X0282560Y0051011D01*
X0282412Y0050972D01*
X0282263Y0050936D01*
X0282113Y0050905D01*
X0281962Y0050877D01*
X0281811Y0050853D01*
X0281658Y0050833D01*
X0281506Y0050817D01*
X0281353Y0050805D01*
X0281200Y0050797D01*
X0281047Y0050793D01*
X0280893Y0050793D01*
X0280740Y0050797D01*
X0280587Y0050805D01*
X0280434Y0050817D01*
X0280282Y0050833D01*
X0280129Y0050853D01*
X0279978Y0050877D01*
X0279827Y0050905D01*
X0279677Y0050936D01*
X0279528Y0050972D01*
X0279380Y0051011D01*
X0279233Y0051054D01*
X0279087Y0051101D01*
X0278942Y0051152D01*
X0278799Y0051207D01*
X0278657Y0051265D01*
X0278517Y0051327D01*
X0278378Y0051392D01*
X0278241Y0051461D01*
X0278106Y0051534D01*
X0277973Y0051610D01*
X0277842Y0051690D01*
X0277713Y0051772D01*
X0277586Y0051859D01*
X0277461Y0051948D01*
X0277339Y0052041D01*
X0277220Y0052137D01*
X0277102Y0052236D01*
X0276988Y0052337D01*
X0276876Y0052442D01*
X0276767Y0052550D01*
X0276661Y0052661D01*
X0276557Y0052774D01*
X0276457Y0052890D01*
X0276359Y0053008D01*
X0276265Y0053129D01*
X0276174Y0053252D01*
X0276086Y0053378D01*
X0276002Y0053506D01*
X0275920Y0053636D01*
X0275843Y0053768D01*
X0275768Y0053902D01*
X0275697Y0054038D01*
X0275630Y0054176D01*
X0275566Y0054316D01*
X0275506Y0054457D01*
X0275450Y0054599D01*
X0275397Y0054743D01*
X0275348Y0054889D01*
X0275303Y0055035D01*
X0275262Y0055183D01*
X0275225Y0055331D01*
X0275191Y0055481D01*
X0275161Y0055632D01*
X0275136Y0055783D01*
X0275114Y0055934D01*
X0275096Y0056087D01*
X0275082Y0056239D01*
X0275072Y0056392D01*
X0275066Y0056546D01*
X0275064Y0056699D01*
X0388501Y0308648D02*
X0388503Y0308806D01*
X0388509Y0308964D01*
X0388519Y0309122D01*
X0388533Y0309280D01*
X0388551Y0309437D01*
X0388572Y0309594D01*
X0388598Y0309750D01*
X0388628Y0309906D01*
X0388661Y0310061D01*
X0388699Y0310214D01*
X0388740Y0310367D01*
X0388785Y0310519D01*
X0388834Y0310670D01*
X0388887Y0310819D01*
X0388943Y0310967D01*
X0389003Y0311113D01*
X0389067Y0311258D01*
X0389135Y0311401D01*
X0389206Y0311543D01*
X0389280Y0311683D01*
X0389358Y0311820D01*
X0389440Y0311956D01*
X0389524Y0312090D01*
X0389613Y0312221D01*
X0389704Y0312350D01*
X0389799Y0312477D01*
X0389896Y0312602D01*
X0389997Y0312724D01*
X0390101Y0312843D01*
X0390208Y0312960D01*
X0390318Y0313074D01*
X0390431Y0313185D01*
X0390546Y0313294D01*
X0390664Y0313399D01*
X0390785Y0313501D01*
X0390908Y0313601D01*
X0391034Y0313697D01*
X0391162Y0313790D01*
X0391292Y0313880D01*
X0391425Y0313966D01*
X0391560Y0314050D01*
X0391696Y0314129D01*
X0391835Y0314206D01*
X0391976Y0314278D01*
X0392118Y0314348D01*
X0392262Y0314413D01*
X0392408Y0314475D01*
X0392555Y0314533D01*
X0392704Y0314588D01*
X0392854Y0314639D01*
X0393005Y0314686D01*
X0393157Y0314729D01*
X0393310Y0314768D01*
X0393465Y0314804D01*
X0393620Y0314835D01*
X0393776Y0314863D01*
X0393932Y0314887D01*
X0394089Y0314907D01*
X0394247Y0314923D01*
X0394404Y0314935D01*
X0394563Y0314943D01*
X0394721Y0314947D01*
X0394879Y0314947D01*
X0395037Y0314943D01*
X0395196Y0314935D01*
X0395353Y0314923D01*
X0395511Y0314907D01*
X0395668Y0314887D01*
X0395824Y0314863D01*
X0395980Y0314835D01*
X0396135Y0314804D01*
X0396290Y0314768D01*
X0396443Y0314729D01*
X0396595Y0314686D01*
X0396746Y0314639D01*
X0396896Y0314588D01*
X0397045Y0314533D01*
X0397192Y0314475D01*
X0397338Y0314413D01*
X0397482Y0314348D01*
X0397624Y0314278D01*
X0397765Y0314206D01*
X0397904Y0314129D01*
X0398040Y0314050D01*
X0398175Y0313966D01*
X0398308Y0313880D01*
X0398438Y0313790D01*
X0398566Y0313697D01*
X0398692Y0313601D01*
X0398815Y0313501D01*
X0398936Y0313399D01*
X0399054Y0313294D01*
X0399169Y0313185D01*
X0399282Y0313074D01*
X0399392Y0312960D01*
X0399499Y0312843D01*
X0399603Y0312724D01*
X0399704Y0312602D01*
X0399801Y0312477D01*
X0399896Y0312350D01*
X0399987Y0312221D01*
X0400076Y0312090D01*
X0400160Y0311956D01*
X0400242Y0311820D01*
X0400320Y0311683D01*
X0400394Y0311543D01*
X0400465Y0311401D01*
X0400533Y0311258D01*
X0400597Y0311113D01*
X0400657Y0310967D01*
X0400713Y0310819D01*
X0400766Y0310670D01*
X0400815Y0310519D01*
X0400860Y0310367D01*
X0400901Y0310214D01*
X0400939Y0310061D01*
X0400972Y0309906D01*
X0401002Y0309750D01*
X0401028Y0309594D01*
X0401049Y0309437D01*
X0401067Y0309280D01*
X0401081Y0309122D01*
X0401091Y0308964D01*
X0401097Y0308806D01*
X0401099Y0308648D01*
X0401097Y0308490D01*
X0401091Y0308332D01*
X0401081Y0308174D01*
X0401067Y0308016D01*
X0401049Y0307859D01*
X0401028Y0307702D01*
X0401002Y0307546D01*
X0400972Y0307390D01*
X0400939Y0307235D01*
X0400901Y0307082D01*
X0400860Y0306929D01*
X0400815Y0306777D01*
X0400766Y0306626D01*
X0400713Y0306477D01*
X0400657Y0306329D01*
X0400597Y0306183D01*
X0400533Y0306038D01*
X0400465Y0305895D01*
X0400394Y0305753D01*
X0400320Y0305613D01*
X0400242Y0305476D01*
X0400160Y0305340D01*
X0400076Y0305206D01*
X0399987Y0305075D01*
X0399896Y0304946D01*
X0399801Y0304819D01*
X0399704Y0304694D01*
X0399603Y0304572D01*
X0399499Y0304453D01*
X0399392Y0304336D01*
X0399282Y0304222D01*
X0399169Y0304111D01*
X0399054Y0304002D01*
X0398936Y0303897D01*
X0398815Y0303795D01*
X0398692Y0303695D01*
X0398566Y0303599D01*
X0398438Y0303506D01*
X0398308Y0303416D01*
X0398175Y0303330D01*
X0398040Y0303246D01*
X0397904Y0303167D01*
X0397765Y0303090D01*
X0397624Y0303018D01*
X0397482Y0302948D01*
X0397338Y0302883D01*
X0397192Y0302821D01*
X0397045Y0302763D01*
X0396896Y0302708D01*
X0396746Y0302657D01*
X0396595Y0302610D01*
X0396443Y0302567D01*
X0396290Y0302528D01*
X0396135Y0302492D01*
X0395980Y0302461D01*
X0395824Y0302433D01*
X0395668Y0302409D01*
X0395511Y0302389D01*
X0395353Y0302373D01*
X0395196Y0302361D01*
X0395037Y0302353D01*
X0394879Y0302349D01*
X0394721Y0302349D01*
X0394563Y0302353D01*
X0394404Y0302361D01*
X0394247Y0302373D01*
X0394089Y0302389D01*
X0393932Y0302409D01*
X0393776Y0302433D01*
X0393620Y0302461D01*
X0393465Y0302492D01*
X0393310Y0302528D01*
X0393157Y0302567D01*
X0393005Y0302610D01*
X0392854Y0302657D01*
X0392704Y0302708D01*
X0392555Y0302763D01*
X0392408Y0302821D01*
X0392262Y0302883D01*
X0392118Y0302948D01*
X0391976Y0303018D01*
X0391835Y0303090D01*
X0391696Y0303167D01*
X0391560Y0303246D01*
X0391425Y0303330D01*
X0391292Y0303416D01*
X0391162Y0303506D01*
X0391034Y0303599D01*
X0390908Y0303695D01*
X0390785Y0303795D01*
X0390664Y0303897D01*
X0390546Y0304002D01*
X0390431Y0304111D01*
X0390318Y0304222D01*
X0390208Y0304336D01*
X0390101Y0304453D01*
X0389997Y0304572D01*
X0389896Y0304694D01*
X0389799Y0304819D01*
X0389704Y0304946D01*
X0389613Y0305075D01*
X0389524Y0305206D01*
X0389440Y0305340D01*
X0389358Y0305476D01*
X0389280Y0305613D01*
X0389206Y0305753D01*
X0389135Y0305895D01*
X0389067Y0306038D01*
X0389003Y0306183D01*
X0388943Y0306329D01*
X0388887Y0306477D01*
X0388834Y0306626D01*
X0388785Y0306777D01*
X0388740Y0306929D01*
X0388699Y0307082D01*
X0388661Y0307235D01*
X0388628Y0307390D01*
X0388598Y0307546D01*
X0388572Y0307702D01*
X0388551Y0307859D01*
X0388533Y0308016D01*
X0388519Y0308174D01*
X0388509Y0308332D01*
X0388503Y0308490D01*
X0388501Y0308648D01*
X0057792Y0308648D02*
X0057794Y0308806D01*
X0057800Y0308964D01*
X0057810Y0309122D01*
X0057824Y0309280D01*
X0057842Y0309437D01*
X0057863Y0309594D01*
X0057889Y0309750D01*
X0057919Y0309906D01*
X0057952Y0310061D01*
X0057990Y0310214D01*
X0058031Y0310367D01*
X0058076Y0310519D01*
X0058125Y0310670D01*
X0058178Y0310819D01*
X0058234Y0310967D01*
X0058294Y0311113D01*
X0058358Y0311258D01*
X0058426Y0311401D01*
X0058497Y0311543D01*
X0058571Y0311683D01*
X0058649Y0311820D01*
X0058731Y0311956D01*
X0058815Y0312090D01*
X0058904Y0312221D01*
X0058995Y0312350D01*
X0059090Y0312477D01*
X0059187Y0312602D01*
X0059288Y0312724D01*
X0059392Y0312843D01*
X0059499Y0312960D01*
X0059609Y0313074D01*
X0059722Y0313185D01*
X0059837Y0313294D01*
X0059955Y0313399D01*
X0060076Y0313501D01*
X0060199Y0313601D01*
X0060325Y0313697D01*
X0060453Y0313790D01*
X0060583Y0313880D01*
X0060716Y0313966D01*
X0060851Y0314050D01*
X0060987Y0314129D01*
X0061126Y0314206D01*
X0061267Y0314278D01*
X0061409Y0314348D01*
X0061553Y0314413D01*
X0061699Y0314475D01*
X0061846Y0314533D01*
X0061995Y0314588D01*
X0062145Y0314639D01*
X0062296Y0314686D01*
X0062448Y0314729D01*
X0062601Y0314768D01*
X0062756Y0314804D01*
X0062911Y0314835D01*
X0063067Y0314863D01*
X0063223Y0314887D01*
X0063380Y0314907D01*
X0063538Y0314923D01*
X0063695Y0314935D01*
X0063854Y0314943D01*
X0064012Y0314947D01*
X0064170Y0314947D01*
X0064328Y0314943D01*
X0064487Y0314935D01*
X0064644Y0314923D01*
X0064802Y0314907D01*
X0064959Y0314887D01*
X0065115Y0314863D01*
X0065271Y0314835D01*
X0065426Y0314804D01*
X0065581Y0314768D01*
X0065734Y0314729D01*
X0065886Y0314686D01*
X0066037Y0314639D01*
X0066187Y0314588D01*
X0066336Y0314533D01*
X0066483Y0314475D01*
X0066629Y0314413D01*
X0066773Y0314348D01*
X0066915Y0314278D01*
X0067056Y0314206D01*
X0067195Y0314129D01*
X0067331Y0314050D01*
X0067466Y0313966D01*
X0067599Y0313880D01*
X0067729Y0313790D01*
X0067857Y0313697D01*
X0067983Y0313601D01*
X0068106Y0313501D01*
X0068227Y0313399D01*
X0068345Y0313294D01*
X0068460Y0313185D01*
X0068573Y0313074D01*
X0068683Y0312960D01*
X0068790Y0312843D01*
X0068894Y0312724D01*
X0068995Y0312602D01*
X0069092Y0312477D01*
X0069187Y0312350D01*
X0069278Y0312221D01*
X0069367Y0312090D01*
X0069451Y0311956D01*
X0069533Y0311820D01*
X0069611Y0311683D01*
X0069685Y0311543D01*
X0069756Y0311401D01*
X0069824Y0311258D01*
X0069888Y0311113D01*
X0069948Y0310967D01*
X0070004Y0310819D01*
X0070057Y0310670D01*
X0070106Y0310519D01*
X0070151Y0310367D01*
X0070192Y0310214D01*
X0070230Y0310061D01*
X0070263Y0309906D01*
X0070293Y0309750D01*
X0070319Y0309594D01*
X0070340Y0309437D01*
X0070358Y0309280D01*
X0070372Y0309122D01*
X0070382Y0308964D01*
X0070388Y0308806D01*
X0070390Y0308648D01*
X0070388Y0308490D01*
X0070382Y0308332D01*
X0070372Y0308174D01*
X0070358Y0308016D01*
X0070340Y0307859D01*
X0070319Y0307702D01*
X0070293Y0307546D01*
X0070263Y0307390D01*
X0070230Y0307235D01*
X0070192Y0307082D01*
X0070151Y0306929D01*
X0070106Y0306777D01*
X0070057Y0306626D01*
X0070004Y0306477D01*
X0069948Y0306329D01*
X0069888Y0306183D01*
X0069824Y0306038D01*
X0069756Y0305895D01*
X0069685Y0305753D01*
X0069611Y0305613D01*
X0069533Y0305476D01*
X0069451Y0305340D01*
X0069367Y0305206D01*
X0069278Y0305075D01*
X0069187Y0304946D01*
X0069092Y0304819D01*
X0068995Y0304694D01*
X0068894Y0304572D01*
X0068790Y0304453D01*
X0068683Y0304336D01*
X0068573Y0304222D01*
X0068460Y0304111D01*
X0068345Y0304002D01*
X0068227Y0303897D01*
X0068106Y0303795D01*
X0067983Y0303695D01*
X0067857Y0303599D01*
X0067729Y0303506D01*
X0067599Y0303416D01*
X0067466Y0303330D01*
X0067331Y0303246D01*
X0067195Y0303167D01*
X0067056Y0303090D01*
X0066915Y0303018D01*
X0066773Y0302948D01*
X0066629Y0302883D01*
X0066483Y0302821D01*
X0066336Y0302763D01*
X0066187Y0302708D01*
X0066037Y0302657D01*
X0065886Y0302610D01*
X0065734Y0302567D01*
X0065581Y0302528D01*
X0065426Y0302492D01*
X0065271Y0302461D01*
X0065115Y0302433D01*
X0064959Y0302409D01*
X0064802Y0302389D01*
X0064644Y0302373D01*
X0064487Y0302361D01*
X0064328Y0302353D01*
X0064170Y0302349D01*
X0064012Y0302349D01*
X0063854Y0302353D01*
X0063695Y0302361D01*
X0063538Y0302373D01*
X0063380Y0302389D01*
X0063223Y0302409D01*
X0063067Y0302433D01*
X0062911Y0302461D01*
X0062756Y0302492D01*
X0062601Y0302528D01*
X0062448Y0302567D01*
X0062296Y0302610D01*
X0062145Y0302657D01*
X0061995Y0302708D01*
X0061846Y0302763D01*
X0061699Y0302821D01*
X0061553Y0302883D01*
X0061409Y0302948D01*
X0061267Y0303018D01*
X0061126Y0303090D01*
X0060987Y0303167D01*
X0060851Y0303246D01*
X0060716Y0303330D01*
X0060583Y0303416D01*
X0060453Y0303506D01*
X0060325Y0303599D01*
X0060199Y0303695D01*
X0060076Y0303795D01*
X0059955Y0303897D01*
X0059837Y0304002D01*
X0059722Y0304111D01*
X0059609Y0304222D01*
X0059499Y0304336D01*
X0059392Y0304453D01*
X0059288Y0304572D01*
X0059187Y0304694D01*
X0059090Y0304819D01*
X0058995Y0304946D01*
X0058904Y0305075D01*
X0058815Y0305206D01*
X0058731Y0305340D01*
X0058649Y0305476D01*
X0058571Y0305613D01*
X0058497Y0305753D01*
X0058426Y0305895D01*
X0058358Y0306038D01*
X0058294Y0306183D01*
X0058234Y0306329D01*
X0058178Y0306477D01*
X0058125Y0306626D01*
X0058076Y0306777D01*
X0058031Y0306929D01*
X0057990Y0307082D01*
X0057952Y0307235D01*
X0057919Y0307390D01*
X0057889Y0307546D01*
X0057863Y0307702D01*
X0057842Y0307859D01*
X0057824Y0308016D01*
X0057810Y0308174D01*
X0057800Y0308332D01*
X0057794Y0308490D01*
X0057792Y0308648D01*
D11*
X0057605Y0252683D03*
X0065085Y0252683D03*
X0101355Y0236433D03*
X0108835Y0236433D03*
X0108835Y0227683D03*
X0101355Y0227683D03*
X0330105Y0222683D03*
X0337585Y0222683D03*
X0348855Y0235183D03*
X0356335Y0235183D03*
X0356335Y0206433D03*
X0348855Y0206433D03*
D12*
X0338038Y0212683D03*
X0324652Y0212683D03*
X0115538Y0217683D03*
X0102152Y0217683D03*
X0065538Y0261433D03*
X0052152Y0261433D03*
D13*
X0075095Y0058933D03*
X0085095Y0058933D03*
X0115095Y0058933D03*
X0125095Y0058933D03*
X0333795Y0058933D03*
X0343795Y0058933D03*
X0373795Y0058933D03*
X0383795Y0058933D03*
D14*
X0383895Y0243933D03*
X0391295Y0243933D03*
X0387595Y0253933D03*
X0106295Y0243933D03*
X0098895Y0243933D03*
X0102595Y0253933D03*
X0090095Y0233933D03*
X0086395Y0223933D03*
X0093795Y0223933D03*
D15*
X0065095Y0237733D03*
X0065095Y0245133D03*
X0055095Y0241433D03*
X0347595Y0226383D03*
X0357595Y0222683D03*
X0365095Y0222633D03*
X0375095Y0218933D03*
X0365095Y0215233D03*
X0347595Y0218983D03*
D16*
X0393845Y0222693D03*
X0393845Y0230173D03*
X0402595Y0230173D03*
X0402595Y0222693D03*
X0078845Y0222693D03*
X0078845Y0230173D03*
X0075095Y0256443D03*
X0075095Y0263923D03*
D17*
X0090095Y0261876D03*
X0090095Y0248490D03*
X0383845Y0233126D03*
X0383845Y0219740D03*
X0401345Y0238490D03*
X0401345Y0251876D03*
D18*
X0387095Y0161383D03*
X0403845Y0113933D03*
X0403845Y0053933D03*
X0268695Y0161383D03*
X0190195Y0161383D03*
X0071795Y0161383D03*
X0052595Y0113933D03*
X0052595Y0053933D03*
D19*
X0130995Y0196688D03*
X0130995Y0278578D03*
X0327895Y0278578D03*
X0327895Y0196688D03*
D20*
X0323845Y0298433D02*
X0323845Y0304433D01*
X0327895Y0314683D02*
X0327895Y0320683D01*
X0317895Y0320683D02*
X0317895Y0314683D01*
X0337895Y0314683D02*
X0337895Y0320683D01*
X0343845Y0304433D02*
X0343845Y0298433D01*
X0140995Y0314683D02*
X0140995Y0320683D01*
X0130995Y0320683D02*
X0130995Y0314683D01*
X0120995Y0314683D02*
X0120995Y0320683D01*
X0115095Y0301933D02*
X0115095Y0295933D01*
X0135095Y0295933D02*
X0135095Y0301933D01*
D21*
X0170195Y0161383D03*
X0091795Y0161383D03*
X0288695Y0161383D03*
X0367095Y0161383D03*
D22*
X0209395Y0317133D03*
X0169395Y0317133D03*
X0249395Y0318233D03*
X0289395Y0318233D03*
D23*
X0289395Y0298233D03*
X0249395Y0298233D03*
X0209395Y0297133D03*
X0169395Y0297133D03*
D24*
X0155607Y0285183D03*
X0155607Y0276433D03*
X0144583Y0276433D03*
X0144583Y0285183D03*
X0304583Y0282683D03*
X0304583Y0273933D03*
X0315607Y0273933D03*
X0315607Y0282683D03*
X0273107Y0083933D03*
X0262083Y0083933D03*
X0262083Y0073933D03*
X0273107Y0073933D03*
X0196857Y0073933D03*
X0185833Y0073933D03*
X0185833Y0083933D03*
X0196857Y0083933D03*
D25*
X0193845Y0100921D03*
X0183845Y0100921D03*
X0173845Y0100921D03*
X0163845Y0100921D03*
X0163845Y0111945D03*
X0173845Y0111945D03*
X0183845Y0111945D03*
X0193845Y0111945D03*
X0155095Y0056945D03*
X0155095Y0045921D03*
X0142595Y0045921D03*
X0142595Y0056945D03*
X0263845Y0100921D03*
X0273845Y0100921D03*
X0283845Y0100921D03*
X0293845Y0100921D03*
X0293845Y0111945D03*
X0283845Y0111945D03*
X0273845Y0111945D03*
X0263845Y0111945D03*
X0301345Y0056945D03*
X0312595Y0056945D03*
X0312595Y0045921D03*
X0301345Y0045921D03*
D26*
X0288845Y0087683D03*
X0313845Y0087683D03*
X0313845Y0121433D03*
X0288845Y0121433D03*
X0253845Y0121383D03*
X0253845Y0096383D03*
X0205095Y0096383D03*
X0205095Y0121383D03*
X0170095Y0121433D03*
X0145095Y0121433D03*
X0145095Y0087683D03*
X0170095Y0087683D03*
D27*
X0196324Y0058510D03*
X0212860Y0058510D03*
X0229395Y0058510D03*
X0245931Y0058510D03*
X0262466Y0058510D03*
X0262466Y0036856D03*
X0245931Y0036856D03*
X0229395Y0036856D03*
X0212860Y0036856D03*
X0196324Y0036856D03*
D28*
X0203724Y0037174D02*
X0212482Y0037174D01*
X0212482Y0037234D02*
X0212482Y0036478D01*
X0213238Y0036478D01*
X0213238Y0037234D01*
X0218994Y0037234D01*
X0218994Y0041253D01*
X0218857Y0041762D01*
X0218594Y0042218D01*
X0218222Y0042591D01*
X0217766Y0042854D01*
X0217257Y0042990D01*
X0213238Y0042990D01*
X0213238Y0037234D01*
X0212482Y0037234D01*
X0206726Y0037234D01*
X0206726Y0041253D01*
X0206862Y0041762D01*
X0207125Y0042218D01*
X0207498Y0042591D01*
X0207954Y0042854D01*
X0208463Y0042990D01*
X0212482Y0042990D01*
X0212482Y0037234D01*
X0212482Y0036478D02*
X0206726Y0036478D01*
X0206726Y0032459D01*
X0206862Y0031950D01*
X0207125Y0031494D01*
X0207498Y0031122D01*
X0207954Y0030859D01*
X0208463Y0030722D01*
X0212482Y0030722D01*
X0212482Y0036478D01*
X0213238Y0036478D02*
X0213238Y0030722D01*
X0217257Y0030722D01*
X0217766Y0030859D01*
X0218222Y0031122D01*
X0218594Y0031494D01*
X0218857Y0031950D01*
X0218994Y0032459D01*
X0218994Y0036478D01*
X0213238Y0036478D01*
X0213238Y0037174D02*
X0229017Y0037174D01*
X0229017Y0037234D02*
X0229017Y0036478D01*
X0229773Y0036478D01*
X0229773Y0030722D01*
X0233792Y0030722D01*
X0234301Y0030859D01*
X0234757Y0031122D01*
X0235129Y0031494D01*
X0235393Y0031950D01*
X0235529Y0032459D01*
X0235529Y0036478D01*
X0229773Y0036478D01*
X0229773Y0037234D01*
X0235529Y0037234D01*
X0235529Y0041253D01*
X0235393Y0041762D01*
X0235129Y0042218D01*
X0234757Y0042591D01*
X0234301Y0042854D01*
X0233792Y0042990D01*
X0229773Y0042990D01*
X0229773Y0037234D01*
X0229017Y0037234D01*
X0223261Y0037234D01*
X0223261Y0041253D01*
X0223398Y0041762D01*
X0223661Y0042218D01*
X0224033Y0042591D01*
X0224489Y0042854D01*
X0224998Y0042990D01*
X0229017Y0042990D01*
X0229017Y0037234D01*
X0229017Y0036478D02*
X0223261Y0036478D01*
X0223261Y0032459D01*
X0223398Y0031950D01*
X0223661Y0031494D01*
X0224033Y0031122D01*
X0224489Y0030859D01*
X0224998Y0030722D01*
X0229017Y0030722D01*
X0229017Y0036478D01*
X0229773Y0037174D02*
X0245553Y0037174D01*
X0245553Y0037234D02*
X0245553Y0036478D01*
X0246309Y0036478D01*
X0246309Y0037234D01*
X0252064Y0037234D01*
X0252064Y0041253D01*
X0251928Y0041762D01*
X0251665Y0042218D01*
X0251292Y0042591D01*
X0250836Y0042854D01*
X0250328Y0042990D01*
X0246309Y0042990D01*
X0246309Y0037234D01*
X0245553Y0037234D01*
X0239797Y0037234D01*
X0239797Y0041253D01*
X0239933Y0041762D01*
X0240196Y0042218D01*
X0240569Y0042591D01*
X0241025Y0042854D01*
X0241533Y0042990D01*
X0245553Y0042990D01*
X0245553Y0037234D01*
X0245553Y0036478D02*
X0239797Y0036478D01*
X0239797Y0032459D01*
X0239933Y0031950D01*
X0240196Y0031494D01*
X0240569Y0031122D01*
X0241025Y0030859D01*
X0241533Y0030722D01*
X0245553Y0030722D01*
X0245553Y0036478D01*
X0246309Y0036478D02*
X0246309Y0030722D01*
X0250328Y0030722D01*
X0250836Y0030859D01*
X0251292Y0031122D01*
X0251665Y0031494D01*
X0251928Y0031950D01*
X0252064Y0032459D01*
X0252064Y0036478D01*
X0246309Y0036478D01*
X0246309Y0037174D02*
X0255021Y0037174D01*
X0254965Y0036932D02*
X0255444Y0034027D01*
X0255932Y0033241D01*
X0255932Y0032245D01*
X0256298Y0031363D01*
X0256973Y0030688D01*
X0257855Y0030322D01*
X0258677Y0030322D01*
X0258872Y0030183D01*
X0200116Y0030183D01*
X0200256Y0030322D01*
X0200936Y0030322D01*
X0201818Y0030688D01*
X0202493Y0031363D01*
X0202858Y0032245D01*
X0202858Y0033293D01*
X0203724Y0035384D01*
X0203724Y0038328D01*
X0202858Y0040419D01*
X0202858Y0041468D01*
X0202493Y0042350D01*
X0201818Y0043025D01*
X0200936Y0043390D01*
X0199887Y0043390D01*
X0197796Y0044256D01*
X0194852Y0044256D01*
X0192761Y0043390D01*
X0191713Y0043390D01*
X0190831Y0043025D01*
X0190156Y0042350D01*
X0189838Y0041583D01*
X0160744Y0041583D01*
X0161038Y0042294D01*
X0161038Y0049548D01*
X0160673Y0050430D01*
X0159998Y0051105D01*
X0159116Y0051471D01*
X0151074Y0051471D01*
X0150192Y0051105D01*
X0149517Y0050430D01*
X0149152Y0049548D01*
X0149152Y0042294D01*
X0149446Y0041583D01*
X0148244Y0041583D01*
X0148538Y0042294D01*
X0148538Y0049548D01*
X0148173Y0050430D01*
X0147498Y0051105D01*
X0146616Y0051471D01*
X0138574Y0051471D01*
X0137692Y0051105D01*
X0137017Y0050430D01*
X0136652Y0049548D01*
X0136652Y0042294D01*
X0136946Y0041583D01*
X0054160Y0041583D01*
X0048995Y0046748D01*
X0048995Y0048033D01*
X0053769Y0048033D01*
X0055937Y0048931D01*
X0057597Y0050591D01*
X0058495Y0052759D01*
X0058495Y0055107D01*
X0057597Y0057275D01*
X0055937Y0058935D01*
X0053769Y0059833D01*
X0048995Y0059833D01*
X0048995Y0110462D01*
X0050524Y0108933D01*
X0054666Y0108933D01*
X0057595Y0111862D01*
X0057595Y0116004D01*
X0055995Y0117604D01*
X0055995Y0233775D01*
X0056503Y0234283D01*
X0059521Y0234283D01*
X0060771Y0234801D01*
X0060852Y0234882D01*
X0061136Y0234598D01*
X0062018Y0234233D01*
X0068173Y0234233D01*
X0068414Y0234333D01*
X0074099Y0234333D01*
X0073858Y0234092D01*
X0073492Y0233210D01*
X0073492Y0227137D01*
X0073858Y0226255D01*
X0074051Y0226062D01*
X0074029Y0226024D01*
X0073892Y0225515D01*
X0073892Y0222972D01*
X0078566Y0222972D01*
X0078566Y0222413D01*
X0079125Y0222413D01*
X0079125Y0218134D01*
X0082061Y0218134D01*
X0082570Y0218270D01*
X0083026Y0218533D01*
X0083398Y0218906D01*
X0083662Y0219362D01*
X0083798Y0219871D01*
X0083798Y0220002D01*
X0084067Y0219733D01*
X0084523Y0219469D01*
X0085032Y0219333D01*
X0086395Y0219333D01*
X0086395Y0223933D01*
X0086395Y0223933D01*
X0086395Y0219333D01*
X0087758Y0219333D01*
X0088267Y0219469D01*
X0088723Y0219733D01*
X0089096Y0220105D01*
X0089359Y0220561D01*
X0089495Y0221070D01*
X0089495Y0223933D01*
X0086395Y0223933D01*
X0086395Y0223933D01*
X0089495Y0223933D01*
X0089495Y0226783D01*
X0089521Y0226783D01*
X0090342Y0227123D01*
X0090295Y0227010D01*
X0090295Y0220856D01*
X0090661Y0219974D01*
X0091336Y0219298D01*
X0092218Y0218933D01*
X0095373Y0218933D01*
X0096255Y0219298D01*
X0096930Y0219974D01*
X0096996Y0220134D01*
X0096996Y0213662D01*
X0097362Y0212780D01*
X0098037Y0212105D01*
X0098919Y0211740D01*
X0105386Y0211740D01*
X0106268Y0212105D01*
X0106943Y0212780D01*
X0107308Y0213662D01*
X0107308Y0221704D01*
X0106943Y0222586D01*
X0106798Y0222730D01*
X0108556Y0222730D01*
X0108556Y0227403D01*
X0109115Y0227403D01*
X0109115Y0222730D01*
X0111458Y0222730D01*
X0111182Y0222454D01*
X0110918Y0221998D01*
X0110782Y0221490D01*
X0110782Y0218061D01*
X0115160Y0218061D01*
X0115160Y0217305D01*
X0115916Y0217305D01*
X0115916Y0212140D01*
X0118557Y0212140D01*
X0119066Y0212276D01*
X0119522Y0212539D01*
X0119894Y0212912D01*
X0120158Y0213368D01*
X0120294Y0213876D01*
X0120294Y0217305D01*
X0115916Y0217305D01*
X0115916Y0218061D01*
X0120294Y0218061D01*
X0120294Y0221490D01*
X0120158Y0221998D01*
X0119894Y0222454D01*
X0119522Y0222827D01*
X0119066Y0223090D01*
X0118557Y0223226D01*
X0115916Y0223226D01*
X0115916Y0218061D01*
X0115160Y0218061D01*
X0115160Y0223226D01*
X0112719Y0223226D01*
X0112995Y0223502D01*
X0113258Y0223958D01*
X0113394Y0224467D01*
X0113394Y0227404D01*
X0109115Y0227404D01*
X0109115Y0227963D01*
X0113394Y0227963D01*
X0113394Y0230899D01*
X0113258Y0231408D01*
X0113060Y0231751D01*
X0113429Y0232121D01*
X0113794Y0233003D01*
X0113794Y0233512D01*
X0119539Y0234086D01*
X0121695Y0230491D01*
X0121695Y0210341D01*
X0118687Y0207333D01*
X0089419Y0207333D01*
X0088169Y0206815D01*
X0083169Y0201815D01*
X0082213Y0200859D01*
X0081695Y0199609D01*
X0081695Y0064277D01*
X0081561Y0064222D01*
X0079806Y0062467D01*
X0079784Y0062413D01*
X0079549Y0062737D01*
X0078899Y0063386D01*
X0078155Y0063927D01*
X0077336Y0064344D01*
X0076462Y0064628D01*
X0075555Y0064772D01*
X0075375Y0064772D01*
X0075375Y0059213D01*
X0074816Y0059213D01*
X0074816Y0064772D01*
X0074636Y0064772D01*
X0073728Y0064628D01*
X0072854Y0064344D01*
X0072035Y0063927D01*
X0071292Y0063386D01*
X0070642Y0062737D01*
X0070102Y0061993D01*
X0069684Y0061174D01*
X0069400Y0060300D01*
X0069257Y0059393D01*
X0069257Y0059213D01*
X0074816Y0059213D01*
X0074816Y0058654D01*
X0069257Y0058654D01*
X0069257Y0058474D01*
X0069400Y0057566D01*
X0069684Y0056692D01*
X0070102Y0055873D01*
X0070642Y0055129D01*
X0071292Y0054480D01*
X0072035Y0053939D01*
X0072854Y0053522D01*
X0073728Y0053238D01*
X0074636Y0053094D01*
X0074816Y0053094D01*
X0074816Y0058653D01*
X0075375Y0058653D01*
X0075375Y0053094D01*
X0075555Y0053094D01*
X0076462Y0053238D01*
X0077336Y0053522D01*
X0078155Y0053939D01*
X0078899Y0054480D01*
X0079549Y0055129D01*
X0079784Y0055453D01*
X0079806Y0055399D01*
X0081561Y0053644D01*
X0083854Y0052694D01*
X0086336Y0052694D01*
X0088629Y0053644D01*
X0090384Y0055399D01*
X0091334Y0057692D01*
X0091334Y0060174D01*
X0090384Y0062467D01*
X0088629Y0064222D01*
X0088495Y0064277D01*
X0088495Y0156364D01*
X0090622Y0155483D01*
X0171369Y0155483D01*
X0173537Y0156381D01*
X0175197Y0158041D01*
X0176095Y0160209D01*
X0176095Y0162557D01*
X0175197Y0164725D01*
X0173537Y0166385D01*
X0171369Y0167283D01*
X0136895Y0167283D01*
X0136895Y0193087D01*
X0137824Y0195330D01*
X0137824Y0198047D01*
X0136785Y0200557D01*
X0134864Y0202478D01*
X0132354Y0203517D01*
X0129637Y0203517D01*
X0127127Y0202478D01*
X0125206Y0200557D01*
X0124166Y0198047D01*
X0124166Y0195330D01*
X0125095Y0193087D01*
X0125095Y0167283D01*
X0090622Y0167283D01*
X0088495Y0166402D01*
X0088495Y0197525D01*
X0091503Y0200533D01*
X0120771Y0200533D01*
X0122021Y0201051D01*
X0127978Y0207007D01*
X0128495Y0208257D01*
X0128495Y0231014D01*
X0128558Y0231265D01*
X0128495Y0231685D01*
X0128495Y0232109D01*
X0128396Y0232347D01*
X0128359Y0232602D01*
X0128140Y0232967D01*
X0127978Y0233359D01*
X0127795Y0233541D01*
X0124303Y0239362D01*
X0124022Y0239886D01*
X0123956Y0239940D01*
X0123913Y0240012D01*
X0123435Y0240366D01*
X0122975Y0240743D01*
X0122894Y0240767D01*
X0122826Y0240818D01*
X0122249Y0240962D01*
X0121680Y0241133D01*
X0121596Y0241125D01*
X0121514Y0241146D01*
X0120926Y0241058D01*
X0113602Y0240326D01*
X0113429Y0240745D01*
X0112754Y0241420D01*
X0111872Y0241786D01*
X0109795Y0241786D01*
X0109795Y0245646D01*
X0110771Y0246051D01*
X0111728Y0247007D01*
X0113271Y0248551D01*
X0114228Y0249507D01*
X0114745Y0250757D01*
X0114745Y0271275D01*
X0123271Y0279801D01*
X0124228Y0280757D01*
X0124745Y0282007D01*
X0124745Y0310796D01*
X0125573Y0311624D01*
X0125995Y0312643D01*
X0126417Y0311624D01*
X0127936Y0310105D01*
X0129921Y0309283D01*
X0132069Y0309283D01*
X0134054Y0310105D01*
X0135095Y0311146D01*
X0135095Y0307333D01*
X0134021Y0307333D01*
X0132036Y0306511D01*
X0130517Y0304992D01*
X0129695Y0303007D01*
X0129695Y0301314D01*
X0129195Y0300107D01*
X0129195Y0285224D01*
X0127127Y0284367D01*
X0125206Y0282446D01*
X0124166Y0279936D01*
X0124166Y0277220D01*
X0125206Y0274710D01*
X0127127Y0272788D01*
X0129637Y0271749D01*
X0129718Y0271749D01*
X0130036Y0271431D01*
X0130184Y0271370D01*
X0130303Y0271263D01*
X0131263Y0270923D01*
X0132204Y0270533D01*
X0132364Y0270533D01*
X0132515Y0270480D01*
X0133533Y0270533D01*
X0140852Y0270533D01*
X0140956Y0270490D01*
X0148210Y0270490D01*
X0149092Y0270855D01*
X0149768Y0271530D01*
X0150133Y0272412D01*
X0150133Y0274414D01*
X0150457Y0275197D01*
X0150457Y0272626D01*
X0150594Y0272118D01*
X0150857Y0271662D01*
X0151229Y0271289D01*
X0151685Y0271026D01*
X0152194Y0270890D01*
X0155032Y0270890D01*
X0155032Y0275858D01*
X0156182Y0275858D01*
X0156182Y0277008D01*
X0160757Y0277008D01*
X0160757Y0280240D01*
X0160620Y0280748D01*
X0160586Y0280808D01*
X0160620Y0280868D01*
X0160757Y0281376D01*
X0160757Y0284608D01*
X0156182Y0284608D01*
X0156182Y0285758D01*
X0160757Y0285758D01*
X0160757Y0288990D01*
X0160620Y0289498D01*
X0160357Y0289954D01*
X0159985Y0290327D01*
X0159529Y0290590D01*
X0159020Y0290726D01*
X0156182Y0290726D01*
X0156182Y0285758D01*
X0155032Y0285758D01*
X0155032Y0290726D01*
X0152194Y0290726D01*
X0151685Y0290590D01*
X0151229Y0290327D01*
X0150857Y0289954D01*
X0150594Y0289498D01*
X0150457Y0288990D01*
X0150457Y0286419D01*
X0150133Y0287203D01*
X0150133Y0289204D01*
X0149768Y0290086D01*
X0149092Y0290761D01*
X0148210Y0291126D01*
X0140995Y0291126D01*
X0140995Y0296489D01*
X0145997Y0301491D01*
X0146895Y0303659D01*
X0146895Y0318857D01*
X0146395Y0320064D01*
X0146395Y0321757D01*
X0145573Y0323742D01*
X0145571Y0323744D01*
X0161995Y0323744D01*
X0161995Y0315661D01*
X0163122Y0312941D01*
X0165203Y0310860D01*
X0167923Y0309733D01*
X0170867Y0309733D01*
X0173587Y0310860D01*
X0175669Y0312941D01*
X0176795Y0315661D01*
X0176795Y0323744D01*
X0201995Y0323744D01*
X0201995Y0315661D01*
X0203122Y0312941D01*
X0205203Y0310860D01*
X0207923Y0309733D01*
X0210867Y0309733D01*
X0213587Y0310860D01*
X0215669Y0312941D01*
X0216795Y0315661D01*
X0216795Y0323744D01*
X0241995Y0323744D01*
X0241995Y0316761D01*
X0243122Y0314041D01*
X0245203Y0311960D01*
X0247923Y0310833D01*
X0250867Y0310833D01*
X0253587Y0311960D01*
X0255669Y0314041D01*
X0256795Y0316761D01*
X0256795Y0323744D01*
X0281995Y0323744D01*
X0281995Y0316761D01*
X0283122Y0314041D01*
X0285203Y0311960D01*
X0287923Y0310833D01*
X0290867Y0310833D01*
X0293587Y0311960D01*
X0295669Y0314041D01*
X0296795Y0316761D01*
X0296795Y0323744D01*
X0313319Y0323744D01*
X0313317Y0323742D01*
X0312495Y0321757D01*
X0312495Y0321283D01*
X0304379Y0321283D01*
X0303056Y0320735D01*
X0302043Y0319722D01*
X0299543Y0317222D01*
X0298995Y0315899D01*
X0298995Y0296674D01*
X0298293Y0295972D01*
X0295793Y0293472D01*
X0291806Y0289485D01*
X0291806Y0289485D01*
X0290793Y0288472D01*
X0290245Y0287149D01*
X0290245Y0268217D01*
X0290793Y0266894D01*
X0291806Y0265881D01*
X0295793Y0261894D01*
X0296806Y0260881D01*
X0298129Y0260333D01*
X0379854Y0260333D01*
X0380195Y0259992D01*
X0380195Y0243317D01*
X0380295Y0243076D01*
X0380295Y0238282D01*
X0379824Y0238282D01*
X0378942Y0237916D01*
X0378267Y0237241D01*
X0377902Y0236359D01*
X0377902Y0229893D01*
X0378267Y0229011D01*
X0378942Y0228335D01*
X0379824Y0227970D01*
X0387866Y0227970D01*
X0388492Y0228230D01*
X0388492Y0227137D01*
X0388784Y0226433D01*
X0388492Y0225729D01*
X0388492Y0224637D01*
X0387866Y0224896D01*
X0379824Y0224896D01*
X0378942Y0224531D01*
X0378267Y0223856D01*
X0377902Y0222973D01*
X0377902Y0222533D01*
X0374379Y0222533D01*
X0374138Y0222433D01*
X0372018Y0222433D01*
X0371136Y0222068D01*
X0370461Y0221393D01*
X0370095Y0220510D01*
X0370095Y0217356D01*
X0370461Y0216474D01*
X0371136Y0215798D01*
X0372018Y0215433D01*
X0374138Y0215433D01*
X0374379Y0215333D01*
X0378559Y0215333D01*
X0378942Y0214950D01*
X0379824Y0214584D01*
X0387866Y0214584D01*
X0388748Y0214950D01*
X0389423Y0215625D01*
X0389637Y0216140D01*
X0391608Y0216140D01*
X0392932Y0216688D01*
X0393977Y0217734D01*
X0397275Y0217734D01*
X0398157Y0218099D01*
X0398220Y0218162D01*
X0398283Y0218099D01*
X0399165Y0217734D01*
X0399387Y0217734D01*
X0399845Y0217276D01*
X0399845Y0117004D01*
X0398845Y0116004D01*
X0398845Y0111862D01*
X0401774Y0108933D01*
X0405916Y0108933D01*
X0407695Y0110712D01*
X0407695Y0059833D01*
X0402672Y0059833D01*
X0400503Y0058935D01*
X0398843Y0057275D01*
X0397945Y0055107D01*
X0397945Y0052759D01*
X0398843Y0050591D01*
X0400503Y0048931D01*
X0402672Y0048033D01*
X0407495Y0048033D01*
X0401220Y0041583D01*
X0318244Y0041583D01*
X0318538Y0042294D01*
X0318538Y0049548D01*
X0318173Y0050430D01*
X0317498Y0051105D01*
X0316616Y0051471D01*
X0308574Y0051471D01*
X0307692Y0051105D01*
X0307017Y0050430D01*
X0306970Y0050317D01*
X0306923Y0050430D01*
X0306248Y0051105D01*
X0305366Y0051471D01*
X0297324Y0051471D01*
X0296442Y0051105D01*
X0295767Y0050430D01*
X0295402Y0049548D01*
X0295402Y0042294D01*
X0295696Y0041583D01*
X0295587Y0041583D01*
X0294123Y0041583D01*
X0294115Y0041580D01*
X0280335Y0041548D01*
X0268950Y0041588D01*
X0268634Y0042350D01*
X0267959Y0043025D01*
X0267077Y0043390D01*
X0265851Y0043390D01*
X0265621Y0043555D01*
X0262755Y0044224D01*
X0259850Y0043745D01*
X0259279Y0043390D01*
X0257855Y0043390D01*
X0256973Y0043025D01*
X0256298Y0042350D01*
X0255932Y0041468D01*
X0255932Y0040214D01*
X0255634Y0039799D01*
X0254965Y0036932D01*
X0255254Y0035176D02*
X0252064Y0035176D01*
X0252064Y0033177D02*
X0255932Y0033177D01*
X0256482Y0031179D02*
X0251349Y0031179D01*
X0246309Y0031179D02*
X0245553Y0031179D01*
X0245553Y0033177D02*
X0246309Y0033177D01*
X0246309Y0035176D02*
X0245553Y0035176D01*
X0245553Y0039173D02*
X0246309Y0039173D01*
X0246309Y0041171D02*
X0245553Y0041171D01*
X0252064Y0041171D02*
X0255932Y0041171D01*
X0255488Y0039173D02*
X0252064Y0039173D01*
X0257322Y0043170D02*
X0201468Y0043170D01*
X0202858Y0041171D02*
X0206726Y0041171D01*
X0206726Y0039173D02*
X0203375Y0039173D01*
X0203638Y0035176D02*
X0206726Y0035176D01*
X0206726Y0033177D02*
X0202858Y0033177D01*
X0202308Y0031179D02*
X0207441Y0031179D01*
X0212482Y0031179D02*
X0213238Y0031179D01*
X0213238Y0033177D02*
X0212482Y0033177D01*
X0212482Y0035176D02*
X0213238Y0035176D01*
X0213238Y0039173D02*
X0212482Y0039173D01*
X0212482Y0041171D02*
X0213238Y0041171D01*
X0218994Y0041171D02*
X0223261Y0041171D01*
X0223261Y0039173D02*
X0218994Y0039173D01*
X0218994Y0035176D02*
X0223261Y0035176D01*
X0223261Y0033177D02*
X0218994Y0033177D01*
X0218278Y0031179D02*
X0223977Y0031179D01*
X0229017Y0031179D02*
X0229773Y0031179D01*
X0229773Y0033177D02*
X0229017Y0033177D01*
X0229017Y0035176D02*
X0229773Y0035176D01*
X0229773Y0039173D02*
X0229017Y0039173D01*
X0229017Y0041171D02*
X0229773Y0041171D01*
X0235529Y0041171D02*
X0239797Y0041171D01*
X0239797Y0039173D02*
X0235529Y0039173D01*
X0235529Y0035176D02*
X0239797Y0035176D01*
X0239797Y0033177D02*
X0235529Y0033177D01*
X0234814Y0031179D02*
X0240512Y0031179D01*
X0241319Y0051976D02*
X0250542Y0051976D01*
X0251424Y0052341D01*
X0251692Y0052610D01*
X0256704Y0052610D01*
X0256973Y0052341D01*
X0257855Y0051976D01*
X0267077Y0051976D01*
X0267959Y0052341D01*
X0268634Y0053016D01*
X0269000Y0053899D01*
X0269000Y0063121D01*
X0268634Y0064003D01*
X0267983Y0064654D01*
X0267983Y0070030D01*
X0268094Y0069618D01*
X0268357Y0069162D01*
X0268729Y0068789D01*
X0269185Y0068526D01*
X0269694Y0068390D01*
X0272532Y0068390D01*
X0272532Y0073358D01*
X0273682Y0073358D01*
X0273682Y0074508D01*
X0278257Y0074508D01*
X0278257Y0077740D01*
X0278120Y0078248D01*
X0277857Y0078704D01*
X0277628Y0078933D01*
X0277857Y0079162D01*
X0278120Y0079618D01*
X0278257Y0080126D01*
X0278257Y0083358D01*
X0273682Y0083358D01*
X0273682Y0084508D01*
X0278257Y0084508D01*
X0278257Y0087740D01*
X0278120Y0088248D01*
X0277857Y0088704D01*
X0277485Y0089077D01*
X0277029Y0089340D01*
X0276520Y0089476D01*
X0273682Y0089476D01*
X0273682Y0084508D01*
X0272532Y0084508D01*
X0272532Y0089476D01*
X0269694Y0089476D01*
X0269185Y0089340D01*
X0268729Y0089077D01*
X0268357Y0088704D01*
X0268094Y0088248D01*
X0267957Y0087740D01*
X0267957Y0085169D01*
X0267654Y0085901D01*
X0267633Y0085973D01*
X0267633Y0087954D01*
X0267268Y0088836D01*
X0266592Y0089511D01*
X0265710Y0089876D01*
X0263507Y0089876D01*
X0259745Y0091926D01*
X0259745Y0095850D01*
X0260039Y0095772D01*
X0263270Y0095772D01*
X0263270Y0100346D01*
X0264420Y0100346D01*
X0264420Y0095772D01*
X0267652Y0095772D01*
X0268160Y0095908D01*
X0268616Y0096171D01*
X0268845Y0096400D01*
X0269074Y0096171D01*
X0269530Y0095908D01*
X0270039Y0095772D01*
X0273270Y0095772D01*
X0273270Y0100346D01*
X0274420Y0100346D01*
X0274420Y0095772D01*
X0277652Y0095772D01*
X0278160Y0095908D01*
X0278616Y0096171D01*
X0278845Y0096400D01*
X0279074Y0096171D01*
X0279530Y0095908D01*
X0280039Y0095772D01*
X0283270Y0095772D01*
X0283270Y0100346D01*
X0284420Y0100346D01*
X0284420Y0095772D01*
X0287652Y0095772D01*
X0288160Y0095908D01*
X0288616Y0096171D01*
X0288845Y0096400D01*
X0289074Y0096171D01*
X0289530Y0095908D01*
X0290039Y0095772D01*
X0293270Y0095772D01*
X0293270Y0100346D01*
X0294420Y0100346D01*
X0294420Y0095772D01*
X0297652Y0095772D01*
X0298160Y0095908D01*
X0298616Y0096171D01*
X0298989Y0096544D01*
X0299252Y0097000D01*
X0299388Y0097508D01*
X0299388Y0100346D01*
X0294420Y0100346D01*
X0294420Y0101496D01*
X0299388Y0101496D01*
X0299388Y0104334D01*
X0299252Y0104843D01*
X0298989Y0105299D01*
X0298616Y0105671D01*
X0298160Y0105935D01*
X0297652Y0106071D01*
X0295081Y0106071D01*
X0295865Y0106395D01*
X0297866Y0106395D01*
X0298748Y0106761D01*
X0299423Y0107436D01*
X0299788Y0108318D01*
X0299788Y0115572D01*
X0299745Y0115676D01*
X0299745Y0117607D01*
X0298847Y0119775D01*
X0295138Y0123484D01*
X0296338Y0124683D01*
X0308805Y0124683D01*
X0307945Y0122607D01*
X0307945Y0086509D01*
X0308843Y0084341D01*
X0310503Y0082681D01*
X0312672Y0081783D01*
X0315019Y0081783D01*
X0317187Y0082681D01*
X0318847Y0084341D01*
X0319745Y0086509D01*
X0319745Y0122607D01*
X0318885Y0124683D01*
X0325102Y0124683D01*
X0330795Y0118990D01*
X0330795Y0064443D01*
X0330261Y0064222D01*
X0328506Y0062467D01*
X0327557Y0060174D01*
X0327557Y0057692D01*
X0328506Y0055399D01*
X0330261Y0053644D01*
X0332554Y0052694D01*
X0335036Y0052694D01*
X0337329Y0053644D01*
X0338795Y0055110D01*
X0340261Y0053644D01*
X0342554Y0052694D01*
X0345036Y0052694D01*
X0347329Y0053644D01*
X0349084Y0055399D01*
X0350034Y0057692D01*
X0350034Y0060174D01*
X0349084Y0062467D01*
X0347329Y0064222D01*
X0345036Y0065172D01*
X0342554Y0065172D01*
X0340261Y0064222D01*
X0338795Y0062756D01*
X0337329Y0064222D01*
X0336795Y0064443D01*
X0336795Y0120830D01*
X0336338Y0121932D01*
X0328888Y0129382D01*
X0328045Y0130226D01*
X0326942Y0130683D01*
X0294498Y0130683D01*
X0293396Y0130226D01*
X0290361Y0127191D01*
X0290019Y0127333D01*
X0287672Y0127333D01*
X0287551Y0127283D01*
X0252672Y0127283D01*
X0250503Y0126385D01*
X0248843Y0124725D01*
X0247945Y0122557D01*
X0247945Y0120209D01*
X0248843Y0118041D01*
X0250503Y0116381D01*
X0252672Y0115483D01*
X0257902Y0115483D01*
X0257902Y0108318D01*
X0258267Y0107436D01*
X0258942Y0106761D01*
X0259824Y0106395D01*
X0261826Y0106395D01*
X0262609Y0106071D01*
X0260039Y0106071D01*
X0259530Y0105935D01*
X0259074Y0105671D01*
X0258701Y0105299D01*
X0258438Y0104843D01*
X0258302Y0104334D01*
X0258302Y0101496D01*
X0263270Y0101496D01*
X0263270Y0100346D01*
X0258302Y0100346D01*
X0258302Y0100270D01*
X0257187Y0101385D01*
X0255019Y0102283D01*
X0252672Y0102283D01*
X0250503Y0101385D01*
X0248843Y0099725D01*
X0247945Y0097557D01*
X0247945Y0088735D01*
X0247854Y0087879D01*
X0247945Y0087570D01*
X0247945Y0087248D01*
X0248274Y0086453D01*
X0248517Y0085628D01*
X0248720Y0085377D01*
X0248843Y0085079D01*
X0249452Y0084471D01*
X0249992Y0083802D01*
X0250275Y0083647D01*
X0250503Y0083419D01*
X0251298Y0083090D01*
X0256183Y0080429D01*
X0256183Y0064410D01*
X0251692Y0064410D01*
X0251424Y0064678D01*
X0250542Y0065044D01*
X0241319Y0065044D01*
X0240437Y0064678D01*
X0239762Y0064003D01*
X0239397Y0063121D01*
X0239397Y0053899D01*
X0239762Y0053016D01*
X0240437Y0052341D01*
X0241319Y0051976D01*
X0239702Y0053162D02*
X0235138Y0053162D01*
X0235129Y0053148D02*
X0235393Y0053604D01*
X0235529Y0054113D01*
X0235529Y0058132D01*
X0229773Y0058132D01*
X0229773Y0058888D01*
X0229017Y0058888D01*
X0229017Y0064644D01*
X0224998Y0064644D01*
X0224489Y0064507D01*
X0224033Y0064244D01*
X0223661Y0063872D01*
X0223398Y0063416D01*
X0223261Y0062907D01*
X0223261Y0058888D01*
X0229017Y0058888D01*
X0229017Y0058132D01*
X0223261Y0058132D01*
X0223261Y0054113D01*
X0223398Y0053604D01*
X0223661Y0053148D01*
X0224033Y0052776D01*
X0224489Y0052512D01*
X0224998Y0052376D01*
X0229017Y0052376D01*
X0229017Y0058132D01*
X0229773Y0058132D01*
X0229773Y0052376D01*
X0233792Y0052376D01*
X0234301Y0052512D01*
X0234757Y0052776D01*
X0235129Y0053148D01*
X0235529Y0055161D02*
X0239397Y0055161D01*
X0239397Y0057159D02*
X0235529Y0057159D01*
X0235529Y0058888D02*
X0229773Y0058888D01*
X0229773Y0064644D01*
X0233792Y0064644D01*
X0234301Y0064507D01*
X0234757Y0064244D01*
X0235129Y0063872D01*
X0235393Y0063416D01*
X0235529Y0062907D01*
X0235529Y0058888D01*
X0235529Y0059158D02*
X0239397Y0059158D01*
X0239397Y0061156D02*
X0235529Y0061156D01*
X0235463Y0063155D02*
X0239411Y0063155D01*
X0229773Y0063155D02*
X0229017Y0063155D01*
X0229017Y0061156D02*
X0229773Y0061156D01*
X0229773Y0059158D02*
X0229017Y0059158D01*
X0229017Y0057159D02*
X0229773Y0057159D01*
X0229773Y0055161D02*
X0229017Y0055161D01*
X0229017Y0053162D02*
X0229773Y0053162D01*
X0223653Y0053162D02*
X0219089Y0053162D01*
X0219028Y0053016D02*
X0219394Y0053899D01*
X0219394Y0063121D01*
X0219028Y0064003D01*
X0218353Y0064678D01*
X0217471Y0065044D01*
X0208248Y0065044D01*
X0207366Y0064678D01*
X0207098Y0064410D01*
X0202757Y0064410D01*
X0202757Y0080612D01*
X0207770Y0083655D01*
X0208437Y0083931D01*
X0208764Y0084258D01*
X0209160Y0084498D01*
X0209586Y0085080D01*
X0210097Y0085591D01*
X0210274Y0086018D01*
X0210547Y0086391D01*
X0210719Y0087092D01*
X0210995Y0087759D01*
X0210995Y0088222D01*
X0211105Y0088671D01*
X0210995Y0089385D01*
X0210995Y0097557D01*
X0210097Y0099725D01*
X0208437Y0101385D01*
X0206269Y0102283D01*
X0203922Y0102283D01*
X0201753Y0101385D01*
X0200093Y0099725D01*
X0199388Y0098023D01*
X0199388Y0100346D01*
X0194420Y0100346D01*
X0194420Y0095772D01*
X0197652Y0095772D01*
X0198160Y0095908D01*
X0198616Y0096171D01*
X0198989Y0096544D01*
X0199195Y0096901D01*
X0199195Y0092254D01*
X0195278Y0089876D01*
X0193230Y0089876D01*
X0192348Y0089511D01*
X0191673Y0088836D01*
X0191307Y0087954D01*
X0191307Y0086077D01*
X0191233Y0085774D01*
X0190983Y0085169D01*
X0190983Y0087740D01*
X0190847Y0088248D01*
X0190583Y0088704D01*
X0190211Y0089077D01*
X0189755Y0089340D01*
X0189246Y0089476D01*
X0186408Y0089476D01*
X0186408Y0084508D01*
X0185259Y0084508D01*
X0185259Y0089476D01*
X0182420Y0089476D01*
X0181912Y0089340D01*
X0181456Y0089077D01*
X0181083Y0088704D01*
X0180820Y0088248D01*
X0180684Y0087740D01*
X0180684Y0084508D01*
X0185258Y0084508D01*
X0185258Y0083358D01*
X0180684Y0083358D01*
X0180684Y0080126D01*
X0180820Y0079618D01*
X0181083Y0079162D01*
X0181312Y0078933D01*
X0181083Y0078704D01*
X0180820Y0078248D01*
X0180684Y0077740D01*
X0180684Y0074508D01*
X0185258Y0074508D01*
X0185258Y0073358D01*
X0180684Y0073358D01*
X0180684Y0070126D01*
X0180820Y0069618D01*
X0181083Y0069162D01*
X0181456Y0068789D01*
X0181912Y0068526D01*
X0182420Y0068390D01*
X0185259Y0068390D01*
X0185259Y0073358D01*
X0186408Y0073358D01*
X0186408Y0068390D01*
X0189246Y0068390D01*
X0189755Y0068526D01*
X0190211Y0068789D01*
X0190583Y0069162D01*
X0190847Y0069618D01*
X0190957Y0070030D01*
X0190957Y0064731D01*
X0190831Y0064678D01*
X0190156Y0064003D01*
X0189790Y0063121D01*
X0189790Y0053899D01*
X0190156Y0053016D01*
X0190831Y0052341D01*
X0191713Y0051976D01*
X0200936Y0051976D01*
X0201818Y0052341D01*
X0202086Y0052610D01*
X0207098Y0052610D01*
X0207366Y0052341D01*
X0208248Y0051976D01*
X0217471Y0051976D01*
X0218353Y0052341D01*
X0219028Y0053016D01*
X0219394Y0055161D02*
X0223261Y0055161D01*
X0223261Y0057159D02*
X0219394Y0057159D01*
X0219394Y0059158D02*
X0223261Y0059158D01*
X0223261Y0061156D02*
X0219394Y0061156D01*
X0219380Y0063155D02*
X0223328Y0063155D01*
X0202757Y0065153D02*
X0256183Y0065153D01*
X0256183Y0067152D02*
X0202757Y0067152D01*
X0202757Y0069150D02*
X0256183Y0069150D01*
X0256183Y0071149D02*
X0202757Y0071149D01*
X0202757Y0073147D02*
X0256183Y0073147D01*
X0256183Y0075146D02*
X0202757Y0075146D01*
X0202757Y0077144D02*
X0256183Y0077144D01*
X0256183Y0079143D02*
X0202757Y0079143D01*
X0203629Y0081141D02*
X0254875Y0081141D01*
X0251178Y0083140D02*
X0206921Y0083140D01*
X0209644Y0085138D02*
X0248819Y0085138D01*
X0247991Y0087137D02*
X0210737Y0087137D01*
X0211034Y0089135D02*
X0247945Y0089135D01*
X0247945Y0091134D02*
X0210995Y0091134D01*
X0210995Y0093132D02*
X0247945Y0093132D01*
X0247945Y0095131D02*
X0210995Y0095131D01*
X0210995Y0097129D02*
X0247945Y0097129D01*
X0248596Y0099128D02*
X0210344Y0099128D01*
X0208696Y0101127D02*
X0250245Y0101127D01*
X0257446Y0101127D02*
X0263270Y0101127D01*
X0264420Y0101127D02*
X0273270Y0101127D01*
X0273270Y0101496D02*
X0269388Y0101496D01*
X0264420Y0101496D01*
X0264420Y0100346D01*
X0273270Y0100346D01*
X0273270Y0101496D01*
X0274420Y0101496D02*
X0278302Y0101496D01*
X0283270Y0101496D01*
X0283270Y0100346D01*
X0274420Y0100346D01*
X0274420Y0101496D01*
X0274420Y0101127D02*
X0283270Y0101127D01*
X0284420Y0101127D02*
X0293270Y0101127D01*
X0293270Y0101496D02*
X0293270Y0100346D01*
X0284420Y0100346D01*
X0284420Y0101496D01*
X0289388Y0101496D01*
X0293270Y0101496D01*
X0294420Y0101127D02*
X0307945Y0101127D01*
X0307945Y0103125D02*
X0299388Y0103125D01*
X0299090Y0105124D02*
X0307945Y0105124D01*
X0307945Y0107122D02*
X0299109Y0107122D01*
X0299788Y0109121D02*
X0307945Y0109121D01*
X0307945Y0111119D02*
X0299788Y0111119D01*
X0299788Y0113118D02*
X0307945Y0113118D01*
X0307945Y0115116D02*
X0299788Y0115116D01*
X0299745Y0117115D02*
X0307945Y0117115D01*
X0307945Y0119113D02*
X0299121Y0119113D01*
X0297510Y0121112D02*
X0307945Y0121112D01*
X0308154Y0123110D02*
X0295512Y0123110D01*
X0292275Y0129106D02*
X0166665Y0129106D01*
X0165545Y0130226D02*
X0164442Y0130683D01*
X0123248Y0130683D01*
X0122146Y0130226D01*
X0121302Y0129382D01*
X0112552Y0120632D01*
X0112095Y0119530D01*
X0112095Y0064443D01*
X0111561Y0064222D01*
X0109806Y0062467D01*
X0108857Y0060174D01*
X0108857Y0057692D01*
X0109806Y0055399D01*
X0111561Y0053644D01*
X0113854Y0052694D01*
X0116336Y0052694D01*
X0118629Y0053644D01*
X0120095Y0055110D01*
X0121561Y0053644D01*
X0123854Y0052694D01*
X0126336Y0052694D01*
X0128629Y0053644D01*
X0130384Y0055399D01*
X0131334Y0057692D01*
X0131334Y0060174D01*
X0130384Y0062467D01*
X0128629Y0064222D01*
X0126336Y0065172D01*
X0123854Y0065172D01*
X0121561Y0064222D01*
X0120095Y0062756D01*
X0118629Y0064222D01*
X0118095Y0064443D01*
X0118095Y0117690D01*
X0125088Y0124683D01*
X0140055Y0124683D01*
X0139195Y0122607D01*
X0139195Y0086509D01*
X0140093Y0084341D01*
X0141753Y0082681D01*
X0143922Y0081783D01*
X0146269Y0081783D01*
X0148437Y0082681D01*
X0150097Y0084341D01*
X0150995Y0086509D01*
X0150995Y0122607D01*
X0150135Y0124683D01*
X0162602Y0124683D01*
X0163802Y0123484D01*
X0158843Y0118525D01*
X0157945Y0116357D01*
X0157945Y0115676D01*
X0157902Y0115572D01*
X0157902Y0108318D01*
X0158267Y0107436D01*
X0158942Y0106761D01*
X0159824Y0106395D01*
X0161826Y0106395D01*
X0162609Y0106071D01*
X0160039Y0106071D01*
X0159530Y0105935D01*
X0159074Y0105671D01*
X0158701Y0105299D01*
X0158438Y0104843D01*
X0158302Y0104334D01*
X0158302Y0101496D01*
X0163270Y0101496D01*
X0163270Y0100346D01*
X0164420Y0100346D01*
X0164420Y0095772D01*
X0167652Y0095772D01*
X0168160Y0095908D01*
X0168616Y0096171D01*
X0168845Y0096400D01*
X0169074Y0096171D01*
X0169530Y0095908D01*
X0170039Y0095772D01*
X0173270Y0095772D01*
X0173270Y0100346D01*
X0174420Y0100346D01*
X0174420Y0095772D01*
X0177652Y0095772D01*
X0178160Y0095908D01*
X0178616Y0096171D01*
X0178845Y0096400D01*
X0179074Y0096171D01*
X0179530Y0095908D01*
X0180039Y0095772D01*
X0183270Y0095772D01*
X0183270Y0100346D01*
X0184420Y0100346D01*
X0184420Y0095772D01*
X0187652Y0095772D01*
X0188160Y0095908D01*
X0188616Y0096171D01*
X0188845Y0096400D01*
X0189074Y0096171D01*
X0189530Y0095908D01*
X0190039Y0095772D01*
X0193270Y0095772D01*
X0193270Y0100346D01*
X0194420Y0100346D01*
X0194420Y0101496D01*
X0199388Y0101496D01*
X0199388Y0104334D01*
X0199252Y0104843D01*
X0198989Y0105299D01*
X0198616Y0105671D01*
X0198160Y0105935D01*
X0197652Y0106071D01*
X0195081Y0106071D01*
X0195865Y0106395D01*
X0197866Y0106395D01*
X0198748Y0106761D01*
X0199423Y0107436D01*
X0199788Y0108318D01*
X0199788Y0115533D01*
X0203801Y0115533D01*
X0203922Y0115483D01*
X0206269Y0115483D01*
X0208437Y0116381D01*
X0210097Y0118041D01*
X0210995Y0120209D01*
X0210995Y0122557D01*
X0210097Y0124725D01*
X0208387Y0126435D01*
X0206219Y0127333D01*
X0168922Y0127333D01*
X0168579Y0127191D01*
X0165545Y0130226D01*
X0163428Y0123110D02*
X0150787Y0123110D01*
X0150995Y0121112D02*
X0161430Y0121112D01*
X0159431Y0119113D02*
X0150995Y0119113D01*
X0150995Y0117115D02*
X0158259Y0117115D01*
X0157902Y0115116D02*
X0150995Y0115116D01*
X0150995Y0113118D02*
X0157902Y0113118D01*
X0157902Y0111119D02*
X0150995Y0111119D01*
X0150995Y0109121D02*
X0157902Y0109121D01*
X0158581Y0107122D02*
X0150995Y0107122D01*
X0150995Y0105124D02*
X0158600Y0105124D01*
X0158302Y0103125D02*
X0150995Y0103125D01*
X0150995Y0101127D02*
X0163270Y0101127D01*
X0163270Y0100346D02*
X0158302Y0100346D01*
X0158302Y0097508D01*
X0158438Y0097000D01*
X0158701Y0096544D01*
X0159074Y0096171D01*
X0159530Y0095908D01*
X0160039Y0095772D01*
X0163270Y0095772D01*
X0163270Y0100346D01*
X0164420Y0100346D02*
X0164420Y0101496D01*
X0168302Y0101496D01*
X0173270Y0101496D01*
X0173270Y0100346D01*
X0164420Y0100346D01*
X0164420Y0101127D02*
X0173270Y0101127D01*
X0174420Y0101127D02*
X0183270Y0101127D01*
X0183270Y0101496D02*
X0183270Y0100346D01*
X0174420Y0100346D01*
X0174420Y0101496D01*
X0179388Y0101496D01*
X0183270Y0101496D01*
X0184420Y0101496D02*
X0193270Y0101496D01*
X0193270Y0100346D01*
X0188302Y0100346D01*
X0184420Y0100346D01*
X0184420Y0101496D01*
X0184420Y0101127D02*
X0193270Y0101127D01*
X0194420Y0101127D02*
X0201495Y0101127D01*
X0199846Y0099128D02*
X0199388Y0099128D01*
X0199195Y0095131D02*
X0150995Y0095131D01*
X0150995Y0097129D02*
X0158403Y0097129D01*
X0158302Y0099128D02*
X0150995Y0099128D01*
X0150995Y0093132D02*
X0199195Y0093132D01*
X0197350Y0091134D02*
X0173715Y0091134D01*
X0175095Y0089754D02*
X0172166Y0092683D01*
X0170095Y0092683D01*
X0168024Y0092683D01*
X0165095Y0089754D01*
X0165095Y0087683D01*
X0165095Y0085612D01*
X0168024Y0082683D01*
X0170095Y0082683D01*
X0170095Y0087683D01*
X0165095Y0087683D01*
X0170095Y0087683D01*
X0170095Y0087683D01*
X0170095Y0087683D01*
X0170095Y0082683D01*
X0172166Y0082683D01*
X0175095Y0085612D01*
X0175095Y0087683D01*
X0170095Y0087683D01*
X0170095Y0092683D01*
X0170095Y0087683D01*
X0170095Y0087683D01*
X0170095Y0087683D01*
X0175095Y0087683D01*
X0175095Y0089754D01*
X0175095Y0089135D02*
X0181557Y0089135D01*
X0180684Y0087137D02*
X0175095Y0087137D01*
X0174622Y0085138D02*
X0180684Y0085138D01*
X0180684Y0083140D02*
X0172623Y0083140D01*
X0170095Y0083140D02*
X0170095Y0083140D01*
X0170095Y0085138D02*
X0170095Y0085138D01*
X0170095Y0087137D02*
X0170095Y0087137D01*
X0170095Y0089135D02*
X0170095Y0089135D01*
X0170095Y0091134D02*
X0170095Y0091134D01*
X0166475Y0091134D02*
X0150995Y0091134D01*
X0150995Y0089135D02*
X0165095Y0089135D01*
X0165095Y0087137D02*
X0150995Y0087137D01*
X0150427Y0085138D02*
X0165569Y0085138D01*
X0167567Y0083140D02*
X0148896Y0083140D01*
X0141294Y0083140D02*
X0118095Y0083140D01*
X0118095Y0085138D02*
X0139763Y0085138D01*
X0139195Y0087137D02*
X0118095Y0087137D01*
X0118095Y0089135D02*
X0139195Y0089135D01*
X0139195Y0091134D02*
X0118095Y0091134D01*
X0118095Y0093132D02*
X0139195Y0093132D01*
X0139195Y0095131D02*
X0118095Y0095131D01*
X0118095Y0097129D02*
X0139195Y0097129D01*
X0139195Y0099128D02*
X0118095Y0099128D01*
X0118095Y0101127D02*
X0139195Y0101127D01*
X0139195Y0103125D02*
X0118095Y0103125D01*
X0118095Y0105124D02*
X0139195Y0105124D01*
X0139195Y0107122D02*
X0118095Y0107122D01*
X0118095Y0109121D02*
X0139195Y0109121D01*
X0139195Y0111119D02*
X0118095Y0111119D01*
X0118095Y0113118D02*
X0139195Y0113118D01*
X0139195Y0115116D02*
X0118095Y0115116D01*
X0118095Y0117115D02*
X0139195Y0117115D01*
X0139195Y0119113D02*
X0119518Y0119113D01*
X0121516Y0121112D02*
X0139195Y0121112D01*
X0139404Y0123110D02*
X0123515Y0123110D01*
X0117028Y0125109D02*
X0088495Y0125109D01*
X0088495Y0127107D02*
X0119027Y0127107D01*
X0121025Y0129106D02*
X0088495Y0129106D01*
X0088495Y0131104D02*
X0370455Y0131104D01*
X0370455Y0129106D02*
X0329165Y0129106D01*
X0331164Y0127107D02*
X0370455Y0127107D01*
X0370455Y0125109D02*
X0333162Y0125109D01*
X0335161Y0123110D02*
X0370455Y0123110D01*
X0370455Y0121112D02*
X0336678Y0121112D01*
X0336795Y0119113D02*
X0370455Y0119113D01*
X0370455Y0117115D02*
X0336795Y0117115D01*
X0336795Y0115116D02*
X0370455Y0115116D01*
X0370455Y0113118D02*
X0336795Y0113118D01*
X0336795Y0111119D02*
X0370455Y0111119D01*
X0370455Y0109121D02*
X0336795Y0109121D01*
X0336795Y0107122D02*
X0370455Y0107122D01*
X0370455Y0105124D02*
X0336795Y0105124D01*
X0336795Y0103125D02*
X0370455Y0103125D01*
X0370455Y0101127D02*
X0336795Y0101127D01*
X0336795Y0099128D02*
X0370455Y0099128D01*
X0370455Y0097129D02*
X0336795Y0097129D01*
X0336795Y0095131D02*
X0370455Y0095131D01*
X0370455Y0093132D02*
X0336795Y0093132D01*
X0336795Y0091134D02*
X0370455Y0091134D01*
X0370455Y0089135D02*
X0336795Y0089135D01*
X0336795Y0087137D02*
X0370455Y0087137D01*
X0370455Y0085138D02*
X0336795Y0085138D01*
X0336795Y0083140D02*
X0370455Y0083140D01*
X0370455Y0081141D02*
X0336795Y0081141D01*
X0336795Y0079143D02*
X0370455Y0079143D01*
X0370455Y0077144D02*
X0336795Y0077144D01*
X0336795Y0075146D02*
X0370455Y0075146D01*
X0370455Y0073147D02*
X0336795Y0073147D01*
X0336795Y0071149D02*
X0370395Y0071149D01*
X0370395Y0072000D02*
X0370395Y0064277D01*
X0370261Y0064222D01*
X0368506Y0062467D01*
X0367557Y0060174D01*
X0367557Y0057692D01*
X0368506Y0055399D01*
X0370261Y0053644D01*
X0372554Y0052694D01*
X0375036Y0052694D01*
X0377329Y0053644D01*
X0379084Y0055399D01*
X0379106Y0055453D01*
X0379342Y0055129D01*
X0379992Y0054480D01*
X0380735Y0053939D01*
X0381554Y0053522D01*
X0382428Y0053238D01*
X0383336Y0053094D01*
X0383516Y0053094D01*
X0383516Y0058653D01*
X0384075Y0058653D01*
X0384075Y0053094D01*
X0384255Y0053094D01*
X0385162Y0053238D01*
X0386036Y0053522D01*
X0386855Y0053939D01*
X0387599Y0054480D01*
X0388249Y0055129D01*
X0388789Y0055873D01*
X0389206Y0056692D01*
X0389490Y0057566D01*
X0389634Y0058474D01*
X0389634Y0058654D01*
X0384075Y0058654D01*
X0384075Y0059213D01*
X0383516Y0059213D01*
X0383516Y0064772D01*
X0383336Y0064772D01*
X0382428Y0064628D01*
X0381554Y0064344D01*
X0380735Y0063927D01*
X0379992Y0063386D01*
X0379342Y0062737D01*
X0379106Y0062413D01*
X0379084Y0062467D01*
X0377329Y0064222D01*
X0377195Y0064277D01*
X0377195Y0070562D01*
X0377255Y0070707D01*
X0377255Y0192100D01*
X0376737Y0193349D01*
X0375781Y0194306D01*
X0372978Y0197109D01*
X0372021Y0198065D01*
X0370771Y0198583D01*
X0360253Y0198583D01*
X0359745Y0199091D01*
X0359745Y0201235D01*
X0360254Y0201446D01*
X0360929Y0202121D01*
X0361294Y0203003D01*
X0361294Y0209863D01*
X0360929Y0210745D01*
X0360254Y0211420D01*
X0360197Y0211444D01*
X0360386Y0211633D01*
X0365811Y0211633D01*
X0366053Y0211733D01*
X0368173Y0211733D01*
X0369055Y0212098D01*
X0369730Y0212774D01*
X0370095Y0213656D01*
X0370095Y0216810D01*
X0369730Y0217693D01*
X0369055Y0218368D01*
X0368173Y0218733D01*
X0366053Y0218733D01*
X0365811Y0218833D01*
X0358179Y0218833D01*
X0356856Y0218285D01*
X0354306Y0215735D01*
X0353293Y0214722D01*
X0352745Y0213399D01*
X0352745Y0211556D01*
X0352595Y0211494D01*
X0351891Y0211786D01*
X0345819Y0211786D01*
X0344936Y0211420D01*
X0344261Y0210745D01*
X0343966Y0210033D01*
X0343194Y0210033D01*
X0343194Y0215383D01*
X0348311Y0215383D01*
X0348553Y0215483D01*
X0350673Y0215483D01*
X0351555Y0215848D01*
X0352230Y0216524D01*
X0352595Y0217406D01*
X0352595Y0220560D01*
X0352230Y0221443D01*
X0351555Y0222118D01*
X0350673Y0222483D01*
X0348553Y0222483D01*
X0348311Y0222583D01*
X0342544Y0222583D01*
X0342544Y0226113D01*
X0342179Y0226995D01*
X0341504Y0227670D01*
X0340622Y0228036D01*
X0334549Y0228036D01*
X0333667Y0227670D01*
X0333474Y0227478D01*
X0333436Y0227500D01*
X0332927Y0227636D01*
X0330385Y0227636D01*
X0330385Y0222963D01*
X0329825Y0222963D01*
X0329825Y0222404D01*
X0325546Y0222404D01*
X0325546Y0219467D01*
X0325682Y0218958D01*
X0325946Y0218502D01*
X0326221Y0218226D01*
X0325030Y0218226D01*
X0325030Y0213061D01*
X0324274Y0213061D01*
X0324274Y0212305D01*
X0319896Y0212305D01*
X0319896Y0208876D01*
X0320033Y0208368D01*
X0320296Y0207912D01*
X0320668Y0207539D01*
X0321124Y0207276D01*
X0321633Y0207140D01*
X0324274Y0207140D01*
X0324274Y0212305D01*
X0325030Y0212305D01*
X0325030Y0207140D01*
X0327671Y0207140D01*
X0328180Y0207276D01*
X0328636Y0207539D01*
X0329009Y0207912D01*
X0329272Y0208368D01*
X0329408Y0208876D01*
X0329408Y0212305D01*
X0325030Y0212305D01*
X0325030Y0213061D01*
X0329408Y0213061D01*
X0329408Y0216490D01*
X0329272Y0216998D01*
X0329009Y0217454D01*
X0328733Y0217730D01*
X0329825Y0217730D01*
X0329825Y0222403D01*
X0330385Y0222403D01*
X0330385Y0217730D01*
X0332927Y0217730D01*
X0333436Y0217867D01*
X0333474Y0217889D01*
X0333512Y0217850D01*
X0333248Y0217586D01*
X0332882Y0216704D01*
X0332882Y0208662D01*
X0333248Y0207780D01*
X0333923Y0207105D01*
X0334805Y0206740D01*
X0335947Y0206740D01*
X0339306Y0203381D01*
X0340629Y0202833D01*
X0343966Y0202833D01*
X0344261Y0202121D01*
X0344936Y0201446D01*
X0345819Y0201080D01*
X0351891Y0201080D01*
X0352595Y0201372D01*
X0352945Y0201227D01*
X0352945Y0197007D01*
X0353463Y0195757D01*
X0354419Y0194801D01*
X0356919Y0192301D01*
X0358169Y0191783D01*
X0368687Y0191783D01*
X0370455Y0190015D01*
X0370455Y0166367D01*
X0370437Y0166385D01*
X0368269Y0167283D01*
X0333795Y0167283D01*
X0333795Y0193087D01*
X0334724Y0195330D01*
X0334724Y0198047D01*
X0333685Y0200557D01*
X0331764Y0202478D01*
X0329254Y0203517D01*
X0326537Y0203517D01*
X0324027Y0202478D01*
X0322106Y0200557D01*
X0321066Y0198047D01*
X0321066Y0195330D01*
X0321995Y0193087D01*
X0321995Y0167283D01*
X0287522Y0167283D01*
X0285353Y0166385D01*
X0283693Y0164725D01*
X0282795Y0162557D01*
X0282795Y0160209D01*
X0283693Y0158041D01*
X0285353Y0156381D01*
X0287522Y0155483D01*
X0368269Y0155483D01*
X0370437Y0156381D01*
X0370455Y0156399D01*
X0370455Y0072144D01*
X0370395Y0072000D01*
X0370395Y0069150D02*
X0336795Y0069150D01*
X0336795Y0067152D02*
X0370395Y0067152D01*
X0370395Y0065153D02*
X0345080Y0065153D01*
X0342510Y0065153D02*
X0336795Y0065153D01*
X0338396Y0063155D02*
X0339194Y0063155D01*
X0330795Y0065153D02*
X0287938Y0065153D01*
X0287666Y0065425D02*
X0285179Y0066861D01*
X0282406Y0067604D01*
X0279534Y0067604D01*
X0276761Y0066861D01*
X0274274Y0065425D01*
X0272243Y0063395D01*
X0270808Y0060908D01*
X0270064Y0058135D01*
X0270064Y0055263D01*
X0270808Y0052489D01*
X0272243Y0050003D01*
X0274274Y0047972D01*
X0276761Y0046537D01*
X0279534Y0045793D01*
X0282406Y0045793D01*
X0285179Y0046537D01*
X0287666Y0047972D01*
X0289697Y0050003D01*
X0291132Y0052489D01*
X0291875Y0055263D01*
X0291875Y0058135D01*
X0291132Y0060908D01*
X0289697Y0063395D01*
X0287666Y0065425D01*
X0289835Y0063155D02*
X0329194Y0063155D01*
X0327963Y0061156D02*
X0317835Y0061156D01*
X0317739Y0061323D02*
X0317366Y0061695D01*
X0316910Y0061958D01*
X0316402Y0062094D01*
X0313170Y0062094D01*
X0313170Y0057520D01*
X0312020Y0057520D01*
X0312020Y0056370D01*
X0307052Y0056370D01*
X0307052Y0053532D01*
X0307188Y0053023D01*
X0307451Y0052567D01*
X0307824Y0052195D01*
X0308280Y0051932D01*
X0308789Y0051795D01*
X0312020Y0051795D01*
X0312020Y0056370D01*
X0313170Y0056370D01*
X0313170Y0057520D01*
X0318138Y0057520D01*
X0318138Y0060358D01*
X0318002Y0060866D01*
X0317739Y0061323D01*
X0318138Y0059158D02*
X0327557Y0059158D01*
X0327777Y0057159D02*
X0313170Y0057159D01*
X0313170Y0056370D02*
X0318138Y0056370D01*
X0318138Y0053532D01*
X0318002Y0053023D01*
X0317739Y0052567D01*
X0317366Y0052195D01*
X0316910Y0051932D01*
X0316402Y0051795D01*
X0313170Y0051795D01*
X0313170Y0056370D01*
X0313170Y0055161D02*
X0312020Y0055161D01*
X0312020Y0057159D02*
X0301920Y0057159D01*
X0301920Y0057520D02*
X0306888Y0057520D01*
X0306888Y0060358D01*
X0306752Y0060866D01*
X0306489Y0061323D01*
X0306116Y0061695D01*
X0305660Y0061958D01*
X0305152Y0062094D01*
X0301920Y0062094D01*
X0301920Y0057520D01*
X0300770Y0057520D01*
X0300770Y0056370D01*
X0295802Y0056370D01*
X0295802Y0053532D01*
X0295938Y0053023D01*
X0296201Y0052567D01*
X0296574Y0052195D01*
X0297030Y0051932D01*
X0297539Y0051795D01*
X0300770Y0051795D01*
X0300770Y0056370D01*
X0301920Y0056370D01*
X0301920Y0057520D01*
X0300770Y0057520D02*
X0300770Y0062094D01*
X0297539Y0062094D01*
X0297030Y0061958D01*
X0296574Y0061695D01*
X0296201Y0061323D01*
X0295938Y0060866D01*
X0295802Y0060358D01*
X0295802Y0057520D01*
X0300770Y0057520D01*
X0300770Y0057159D02*
X0291875Y0057159D01*
X0291848Y0055161D02*
X0295802Y0055161D01*
X0295901Y0053162D02*
X0291313Y0053162D01*
X0290367Y0051164D02*
X0296583Y0051164D01*
X0295402Y0049165D02*
X0288859Y0049165D01*
X0286271Y0047167D02*
X0295402Y0047167D01*
X0295402Y0045168D02*
X0161038Y0045168D01*
X0161038Y0043170D02*
X0191181Y0043170D01*
X0185709Y0049165D02*
X0273081Y0049165D01*
X0271573Y0051164D02*
X0187217Y0051164D01*
X0186547Y0050003D02*
X0187983Y0052489D01*
X0188726Y0055263D01*
X0188726Y0058135D01*
X0187983Y0060908D01*
X0186547Y0063395D01*
X0184516Y0065425D01*
X0182030Y0066861D01*
X0179256Y0067604D01*
X0176385Y0067604D01*
X0173611Y0066861D01*
X0171124Y0065425D01*
X0169094Y0063395D01*
X0167658Y0060908D01*
X0166915Y0058135D01*
X0166915Y0055263D01*
X0167658Y0052489D01*
X0169094Y0050003D01*
X0171124Y0047972D01*
X0173611Y0046537D01*
X0176385Y0045793D01*
X0179256Y0045793D01*
X0182030Y0046537D01*
X0184516Y0047972D01*
X0186547Y0050003D01*
X0188163Y0053162D02*
X0190095Y0053162D01*
X0189790Y0055161D02*
X0188698Y0055161D01*
X0188726Y0057159D02*
X0189790Y0057159D01*
X0189790Y0059158D02*
X0188452Y0059158D01*
X0187839Y0061156D02*
X0189790Y0061156D01*
X0189804Y0063155D02*
X0186686Y0063155D01*
X0184789Y0065153D02*
X0190957Y0065153D01*
X0190957Y0067152D02*
X0180945Y0067152D01*
X0181095Y0069150D02*
X0118095Y0069150D01*
X0118095Y0067152D02*
X0174696Y0067152D01*
X0170852Y0065153D02*
X0126380Y0065153D01*
X0123810Y0065153D02*
X0118095Y0065153D01*
X0119696Y0063155D02*
X0120494Y0063155D01*
X0118095Y0071149D02*
X0180684Y0071149D01*
X0180684Y0073147D02*
X0118095Y0073147D01*
X0118095Y0075146D02*
X0180684Y0075146D01*
X0180684Y0077144D02*
X0118095Y0077144D01*
X0118095Y0079143D02*
X0181102Y0079143D01*
X0180684Y0081141D02*
X0118095Y0081141D01*
X0112095Y0081141D02*
X0088495Y0081141D01*
X0088495Y0079143D02*
X0112095Y0079143D01*
X0112095Y0077144D02*
X0088495Y0077144D01*
X0088495Y0075146D02*
X0112095Y0075146D01*
X0112095Y0073147D02*
X0088495Y0073147D01*
X0088495Y0071149D02*
X0112095Y0071149D01*
X0112095Y0069150D02*
X0088495Y0069150D01*
X0088495Y0067152D02*
X0112095Y0067152D01*
X0112095Y0065153D02*
X0088495Y0065153D01*
X0089696Y0063155D02*
X0110494Y0063155D01*
X0109263Y0061156D02*
X0090927Y0061156D01*
X0091334Y0059158D02*
X0108857Y0059158D01*
X0109077Y0057159D02*
X0091113Y0057159D01*
X0090145Y0055161D02*
X0110045Y0055161D01*
X0112725Y0053162D02*
X0087465Y0053162D01*
X0082725Y0053162D02*
X0075982Y0053162D01*
X0075375Y0053162D02*
X0074816Y0053162D01*
X0074208Y0053162D02*
X0058495Y0053162D01*
X0058473Y0055161D02*
X0070619Y0055161D01*
X0069532Y0057159D02*
X0057645Y0057159D01*
X0055399Y0059158D02*
X0074816Y0059158D01*
X0074816Y0061156D02*
X0075375Y0061156D01*
X0075375Y0063155D02*
X0074816Y0063155D01*
X0071060Y0063155D02*
X0048995Y0063155D01*
X0048995Y0065153D02*
X0081695Y0065153D01*
X0081695Y0067152D02*
X0048995Y0067152D01*
X0048995Y0069150D02*
X0081695Y0069150D01*
X0081695Y0071149D02*
X0048995Y0071149D01*
X0048995Y0073147D02*
X0081695Y0073147D01*
X0081695Y0075146D02*
X0048995Y0075146D01*
X0048995Y0077144D02*
X0081695Y0077144D01*
X0081695Y0079143D02*
X0048995Y0079143D01*
X0048995Y0081141D02*
X0081695Y0081141D01*
X0081695Y0083140D02*
X0048995Y0083140D01*
X0048995Y0085138D02*
X0081695Y0085138D01*
X0081695Y0087137D02*
X0048995Y0087137D01*
X0048995Y0089135D02*
X0081695Y0089135D01*
X0081695Y0091134D02*
X0048995Y0091134D01*
X0048995Y0093132D02*
X0081695Y0093132D01*
X0081695Y0095131D02*
X0048995Y0095131D01*
X0048995Y0097129D02*
X0081695Y0097129D01*
X0081695Y0099128D02*
X0048995Y0099128D01*
X0048995Y0101127D02*
X0081695Y0101127D01*
X0081695Y0103125D02*
X0048995Y0103125D01*
X0048995Y0105124D02*
X0081695Y0105124D01*
X0081695Y0107122D02*
X0048995Y0107122D01*
X0048995Y0109121D02*
X0050337Y0109121D01*
X0054854Y0109121D02*
X0081695Y0109121D01*
X0081695Y0111119D02*
X0056852Y0111119D01*
X0057595Y0113118D02*
X0081695Y0113118D01*
X0081695Y0115116D02*
X0057595Y0115116D01*
X0056485Y0117115D02*
X0081695Y0117115D01*
X0081695Y0119113D02*
X0055995Y0119113D01*
X0055995Y0121112D02*
X0081695Y0121112D01*
X0081695Y0123110D02*
X0055995Y0123110D01*
X0055995Y0125109D02*
X0081695Y0125109D01*
X0081695Y0127107D02*
X0055995Y0127107D01*
X0055995Y0129106D02*
X0081695Y0129106D01*
X0081695Y0131104D02*
X0055995Y0131104D01*
X0055995Y0133103D02*
X0081695Y0133103D01*
X0081695Y0135101D02*
X0055995Y0135101D01*
X0055995Y0137100D02*
X0081695Y0137100D01*
X0081695Y0139098D02*
X0055995Y0139098D01*
X0055995Y0141097D02*
X0081695Y0141097D01*
X0081695Y0143095D02*
X0055995Y0143095D01*
X0055995Y0145094D02*
X0081695Y0145094D01*
X0081695Y0147092D02*
X0055995Y0147092D01*
X0055995Y0149091D02*
X0081695Y0149091D01*
X0081695Y0151089D02*
X0055995Y0151089D01*
X0055995Y0153088D02*
X0081695Y0153088D01*
X0081695Y0155086D02*
X0055995Y0155086D01*
X0055995Y0157085D02*
X0069588Y0157085D01*
X0069890Y0156783D02*
X0071795Y0156783D01*
X0071795Y0161383D01*
X0067195Y0161383D01*
X0067195Y0159478D01*
X0069890Y0156783D01*
X0071795Y0156783D02*
X0073701Y0156783D01*
X0076395Y0159478D01*
X0076395Y0161383D01*
X0071795Y0161383D01*
X0071795Y0161383D01*
X0071795Y0161383D01*
X0067195Y0161383D01*
X0067195Y0163288D01*
X0069890Y0165983D01*
X0071795Y0165983D01*
X0071795Y0161383D01*
X0071795Y0156783D01*
X0071795Y0157085D02*
X0071795Y0157085D01*
X0071795Y0159083D02*
X0071795Y0159083D01*
X0071795Y0161082D02*
X0071795Y0161082D01*
X0071795Y0161383D02*
X0071795Y0161383D01*
X0071795Y0161383D01*
X0071795Y0165983D01*
X0073701Y0165983D01*
X0076395Y0163288D01*
X0076395Y0161383D01*
X0071795Y0161383D01*
X0071795Y0163080D02*
X0071795Y0163080D01*
X0071795Y0165079D02*
X0071795Y0165079D01*
X0068986Y0165079D02*
X0055995Y0165079D01*
X0055995Y0167077D02*
X0081695Y0167077D01*
X0081695Y0165079D02*
X0074605Y0165079D01*
X0076395Y0163080D02*
X0081695Y0163080D01*
X0081695Y0161082D02*
X0076395Y0161082D01*
X0076001Y0159083D02*
X0081695Y0159083D01*
X0081695Y0157085D02*
X0074002Y0157085D01*
X0067589Y0159083D02*
X0055995Y0159083D01*
X0055995Y0161082D02*
X0067195Y0161082D01*
X0067195Y0163080D02*
X0055995Y0163080D01*
X0055995Y0169076D02*
X0081695Y0169076D01*
X0081695Y0171074D02*
X0055995Y0171074D01*
X0055995Y0173073D02*
X0081695Y0173073D01*
X0081695Y0175071D02*
X0055995Y0175071D01*
X0055995Y0177070D02*
X0081695Y0177070D01*
X0081695Y0179068D02*
X0055995Y0179068D01*
X0055995Y0181067D02*
X0081695Y0181067D01*
X0081695Y0183065D02*
X0055995Y0183065D01*
X0055995Y0185064D02*
X0081695Y0185064D01*
X0081695Y0187062D02*
X0055995Y0187062D01*
X0055995Y0189061D02*
X0081695Y0189061D01*
X0081695Y0191060D02*
X0055995Y0191060D01*
X0055995Y0193058D02*
X0081695Y0193058D01*
X0081695Y0195057D02*
X0055995Y0195057D01*
X0055995Y0197055D02*
X0081695Y0197055D01*
X0081695Y0199054D02*
X0055995Y0199054D01*
X0055995Y0201052D02*
X0082406Y0201052D01*
X0083169Y0201815D02*
X0083169Y0201815D01*
X0084404Y0203051D02*
X0055995Y0203051D01*
X0055995Y0205049D02*
X0086403Y0205049D01*
X0088730Y0207048D02*
X0055995Y0207048D01*
X0055995Y0209046D02*
X0120400Y0209046D01*
X0121695Y0211045D02*
X0055995Y0211045D01*
X0055995Y0213043D02*
X0097253Y0213043D01*
X0096996Y0215042D02*
X0055995Y0215042D01*
X0055995Y0217040D02*
X0096996Y0217040D01*
X0096996Y0219039D02*
X0095627Y0219039D01*
X0091963Y0219039D02*
X0083475Y0219039D01*
X0086395Y0221037D02*
X0086395Y0221037D01*
X0086395Y0223036D02*
X0086395Y0223036D01*
X0089495Y0223036D02*
X0090295Y0223036D01*
X0090295Y0225034D02*
X0089495Y0225034D01*
X0090124Y0227033D02*
X0090304Y0227033D01*
X0088845Y0230183D02*
X0078855Y0230183D01*
X0078845Y0230173D01*
X0073492Y0231030D02*
X0055995Y0231030D01*
X0055995Y0233028D02*
X0073492Y0233028D01*
X0075145Y0237733D02*
X0085902Y0248490D01*
X0090095Y0248490D01*
X0096358Y0248490D01*
X0096801Y0248933D01*
X0108845Y0248933D01*
X0111345Y0251433D01*
X0111345Y0272683D01*
X0121345Y0282683D01*
X0121345Y0287683D01*
X0121345Y0307683D01*
X0121345Y0308933D01*
X0121345Y0317333D01*
X0120995Y0317683D01*
X0115595Y0313609D02*
X0116417Y0311624D01*
X0117936Y0310105D01*
X0117945Y0310102D01*
X0117945Y0306043D01*
X0117716Y0306209D01*
X0117014Y0306567D01*
X0116266Y0306810D01*
X0115489Y0306933D01*
X0115095Y0306933D01*
X0114702Y0306933D01*
X0113924Y0306810D01*
X0113176Y0306567D01*
X0112475Y0306209D01*
X0111838Y0305747D01*
X0111281Y0305190D01*
X0110819Y0304554D01*
X0110461Y0303852D01*
X0110218Y0303104D01*
X0110095Y0302327D01*
X0110095Y0298933D01*
X0110095Y0295540D01*
X0110218Y0294762D01*
X0110461Y0294014D01*
X0110819Y0293312D01*
X0111281Y0292676D01*
X0111838Y0292119D01*
X0112475Y0291657D01*
X0113176Y0291299D01*
X0113924Y0291056D01*
X0114702Y0290933D01*
X0115095Y0290933D01*
X0115095Y0298933D01*
X0110095Y0298933D01*
X0115095Y0298933D01*
X0115095Y0298933D01*
X0115095Y0298933D01*
X0115095Y0290933D01*
X0115489Y0290933D01*
X0116266Y0291056D01*
X0117014Y0291299D01*
X0117716Y0291657D01*
X0117945Y0291823D01*
X0117945Y0284091D01*
X0108463Y0274609D01*
X0107945Y0273359D01*
X0107945Y0252841D01*
X0107437Y0252333D01*
X0106095Y0252333D01*
X0106095Y0257010D01*
X0107945Y0257010D01*
X0106095Y0257010D02*
X0105995Y0257252D01*
X0105995Y0260859D01*
X0105478Y0262109D01*
X0104228Y0263359D01*
X0103271Y0264315D01*
X0102021Y0264833D01*
X0096038Y0264833D01*
X0096038Y0265109D01*
X0095673Y0265991D01*
X0094998Y0266666D01*
X0094116Y0267032D01*
X0089428Y0267032D01*
X0088724Y0267323D01*
X0080297Y0267323D01*
X0080083Y0267842D01*
X0079407Y0268517D01*
X0078525Y0268882D01*
X0071665Y0268882D01*
X0070783Y0268517D01*
X0070108Y0267842D01*
X0069742Y0266960D01*
X0069742Y0266922D01*
X0069653Y0267011D01*
X0068771Y0267376D01*
X0062305Y0267376D01*
X0061423Y0267011D01*
X0060748Y0266336D01*
X0060382Y0265454D01*
X0060382Y0258036D01*
X0057308Y0258036D01*
X0057308Y0265454D01*
X0056943Y0266336D01*
X0056268Y0267011D01*
X0055386Y0267376D01*
X0048995Y0267376D01*
X0048995Y0319868D01*
X0052871Y0323744D01*
X0116419Y0323744D01*
X0116417Y0323742D01*
X0115595Y0321757D01*
X0115595Y0313609D01*
X0115860Y0312969D02*
X0074631Y0312969D01*
X0074620Y0313009D02*
X0073133Y0315586D01*
X0071029Y0317689D01*
X0068453Y0319177D01*
X0065579Y0319947D01*
X0062604Y0319947D01*
X0059730Y0319177D01*
X0057153Y0317689D01*
X0055050Y0315586D01*
X0053562Y0313009D01*
X0052792Y0310135D01*
X0052792Y0307160D01*
X0053562Y0304286D01*
X0055050Y0301710D01*
X0057153Y0299606D01*
X0059730Y0298118D01*
X0062604Y0297348D01*
X0065579Y0297348D01*
X0068453Y0298118D01*
X0071029Y0299606D01*
X0073133Y0301710D01*
X0074620Y0304286D01*
X0075390Y0307160D01*
X0075390Y0310135D01*
X0074620Y0313009D01*
X0075167Y0310970D02*
X0117071Y0310970D01*
X0117945Y0308972D02*
X0075390Y0308972D01*
X0075340Y0306973D02*
X0117945Y0306973D01*
X0115095Y0306933D02*
X0115095Y0298933D01*
X0115095Y0306933D01*
X0115095Y0304975D02*
X0115095Y0304975D01*
X0115095Y0302976D02*
X0115095Y0302976D01*
X0115095Y0300978D02*
X0115095Y0300978D01*
X0115095Y0298979D02*
X0115095Y0298979D01*
X0115095Y0298933D02*
X0115095Y0298933D01*
X0115095Y0296981D02*
X0115095Y0296981D01*
X0115095Y0294982D02*
X0115095Y0294982D01*
X0115095Y0292984D02*
X0115095Y0292984D01*
X0115095Y0290985D02*
X0115095Y0290985D01*
X0114373Y0290985D02*
X0048995Y0290985D01*
X0048995Y0288987D02*
X0117945Y0288987D01*
X0117945Y0290985D02*
X0115817Y0290985D01*
X0117945Y0286988D02*
X0048995Y0286988D01*
X0048995Y0284990D02*
X0117945Y0284990D01*
X0116845Y0282991D02*
X0048995Y0282991D01*
X0048995Y0280993D02*
X0114846Y0280993D01*
X0112848Y0278994D02*
X0048995Y0278994D01*
X0048995Y0276995D02*
X0110849Y0276995D01*
X0108851Y0274997D02*
X0048995Y0274997D01*
X0048995Y0272998D02*
X0107945Y0272998D01*
X0107945Y0271000D02*
X0048995Y0271000D01*
X0048995Y0269001D02*
X0107945Y0269001D01*
X0107945Y0267003D02*
X0094186Y0267003D01*
X0096038Y0265004D02*
X0107945Y0265004D01*
X0107945Y0263006D02*
X0104581Y0263006D01*
X0105934Y0261007D02*
X0107945Y0261007D01*
X0107945Y0259009D02*
X0105995Y0259009D01*
X0102595Y0260183D02*
X0102595Y0253933D01*
X0106095Y0253013D02*
X0107945Y0253013D01*
X0107945Y0255012D02*
X0106095Y0255012D01*
X0102595Y0260183D02*
X0101345Y0261433D01*
X0090538Y0261433D01*
X0090095Y0261876D01*
X0088048Y0263923D01*
X0075095Y0263923D01*
X0069760Y0267003D02*
X0069661Y0267003D01*
X0065538Y0261433D02*
X0065538Y0256474D01*
X0065570Y0256443D01*
X0075095Y0256443D01*
X0075145Y0256393D01*
X0065538Y0256474D02*
X0065538Y0253136D01*
X0065085Y0252683D01*
X0065095Y0252673D01*
X0065095Y0245133D01*
X0060095Y0246433D02*
X0057605Y0248923D01*
X0057605Y0252683D01*
X0057308Y0259009D02*
X0060382Y0259009D01*
X0060382Y0261007D02*
X0057308Y0261007D01*
X0057308Y0263006D02*
X0060382Y0263006D01*
X0060382Y0265004D02*
X0057308Y0265004D01*
X0056276Y0267003D02*
X0061415Y0267003D01*
X0052152Y0261433D02*
X0045095Y0261433D01*
X0043845Y0260183D01*
X0041865Y0260183D01*
X0041595Y0259914D01*
X0041595Y0246158D02*
X0046320Y0241433D01*
X0055095Y0241433D01*
X0055095Y0237683D02*
X0058845Y0237683D01*
X0055095Y0237683D02*
X0052595Y0235183D01*
X0052595Y0220183D01*
X0052595Y0217683D01*
X0052595Y0113933D01*
X0088495Y0113118D02*
X0112095Y0113118D01*
X0112095Y0115116D02*
X0088495Y0115116D01*
X0088495Y0117115D02*
X0112095Y0117115D01*
X0112095Y0119113D02*
X0088495Y0119113D01*
X0088495Y0121112D02*
X0113031Y0121112D01*
X0115030Y0123110D02*
X0088495Y0123110D01*
X0088495Y0133103D02*
X0224498Y0133103D01*
X0225084Y0132764D02*
X0227958Y0131994D01*
X0230933Y0131994D01*
X0233807Y0132764D01*
X0236383Y0134252D01*
X0238487Y0136355D01*
X0239975Y0138932D01*
X0240745Y0141806D01*
X0240745Y0144781D01*
X0239975Y0147655D01*
X0238487Y0150231D01*
X0236383Y0152335D01*
X0233807Y0153822D01*
X0230933Y0154593D01*
X0227958Y0154593D01*
X0225084Y0153822D01*
X0222508Y0152335D01*
X0220404Y0150231D01*
X0218916Y0147655D01*
X0218146Y0144781D01*
X0218146Y0141806D01*
X0218916Y0138932D01*
X0220404Y0136355D01*
X0222508Y0134252D01*
X0225084Y0132764D01*
X0221658Y0135101D02*
X0088495Y0135101D01*
X0088495Y0137100D02*
X0219974Y0137100D01*
X0218872Y0139098D02*
X0088495Y0139098D01*
X0088495Y0141097D02*
X0218336Y0141097D01*
X0218146Y0143095D02*
X0088495Y0143095D01*
X0088495Y0145094D02*
X0218230Y0145094D01*
X0218766Y0147092D02*
X0088495Y0147092D01*
X0088495Y0149091D02*
X0219745Y0149091D01*
X0221262Y0151089D02*
X0088495Y0151089D01*
X0088495Y0153088D02*
X0223812Y0153088D01*
X0235079Y0153088D02*
X0370455Y0153088D01*
X0370455Y0155086D02*
X0088495Y0155086D01*
X0088495Y0167077D02*
X0090125Y0167077D01*
X0088495Y0169076D02*
X0125095Y0169076D01*
X0125095Y0171074D02*
X0088495Y0171074D01*
X0088495Y0173073D02*
X0125095Y0173073D01*
X0125095Y0175071D02*
X0088495Y0175071D01*
X0088495Y0177070D02*
X0125095Y0177070D01*
X0125095Y0179068D02*
X0088495Y0179068D01*
X0088495Y0181067D02*
X0125095Y0181067D01*
X0125095Y0183065D02*
X0088495Y0183065D01*
X0088495Y0185064D02*
X0125095Y0185064D01*
X0125095Y0187062D02*
X0088495Y0187062D01*
X0088495Y0189061D02*
X0125095Y0189061D01*
X0125095Y0191060D02*
X0088495Y0191060D01*
X0088495Y0193058D02*
X0125095Y0193058D01*
X0124279Y0195057D02*
X0088495Y0195057D01*
X0088495Y0197055D02*
X0124166Y0197055D01*
X0124583Y0199054D02*
X0090024Y0199054D01*
X0090095Y0203933D02*
X0085095Y0198933D01*
X0085095Y0058933D01*
X0080494Y0063155D02*
X0079130Y0063155D01*
X0075375Y0057159D02*
X0074816Y0057159D01*
X0074816Y0055161D02*
X0075375Y0055161D01*
X0079571Y0055161D02*
X0080045Y0055161D01*
X0069678Y0061156D02*
X0048995Y0061156D01*
X0057834Y0051164D02*
X0137833Y0051164D01*
X0138280Y0051932D02*
X0138789Y0051795D01*
X0142020Y0051795D01*
X0142020Y0056370D01*
X0137052Y0056370D01*
X0137052Y0053532D01*
X0137188Y0053023D01*
X0137451Y0052567D01*
X0137824Y0052195D01*
X0138280Y0051932D01*
X0137151Y0053162D02*
X0127465Y0053162D01*
X0130145Y0055161D02*
X0137052Y0055161D01*
X0137052Y0057520D02*
X0142020Y0057520D01*
X0142020Y0056370D01*
X0143170Y0056370D01*
X0143170Y0057520D01*
X0142020Y0057520D01*
X0142020Y0062094D01*
X0138789Y0062094D01*
X0138280Y0061958D01*
X0137824Y0061695D01*
X0137451Y0061323D01*
X0137188Y0060866D01*
X0137052Y0060358D01*
X0137052Y0057520D01*
X0137052Y0059158D02*
X0131334Y0059158D01*
X0131113Y0057159D02*
X0142020Y0057159D01*
X0143170Y0057159D02*
X0154520Y0057159D01*
X0154520Y0057520D02*
X0154520Y0056370D01*
X0149552Y0056370D01*
X0149552Y0053532D01*
X0149688Y0053023D01*
X0149951Y0052567D01*
X0150324Y0052195D01*
X0150780Y0051932D01*
X0151289Y0051795D01*
X0154520Y0051795D01*
X0154520Y0056370D01*
X0155670Y0056370D01*
X0155670Y0057520D01*
X0154520Y0057520D01*
X0149552Y0057520D01*
X0149552Y0060358D01*
X0149688Y0060866D01*
X0149951Y0061323D01*
X0150324Y0061695D01*
X0150780Y0061958D01*
X0151289Y0062094D01*
X0154520Y0062094D01*
X0154520Y0057520D01*
X0155670Y0057520D02*
X0155670Y0062094D01*
X0158902Y0062094D01*
X0159410Y0061958D01*
X0159866Y0061695D01*
X0160239Y0061323D01*
X0160502Y0060866D01*
X0160638Y0060358D01*
X0160638Y0057520D01*
X0155670Y0057520D01*
X0155670Y0057159D02*
X0166915Y0057159D01*
X0166942Y0055161D02*
X0160638Y0055161D01*
X0160638Y0056370D02*
X0160638Y0053532D01*
X0160502Y0053023D01*
X0160239Y0052567D01*
X0159866Y0052195D01*
X0159410Y0051932D01*
X0158902Y0051795D01*
X0155670Y0051795D01*
X0155670Y0056370D01*
X0160638Y0056370D01*
X0160638Y0059158D02*
X0167189Y0059158D01*
X0167801Y0061156D02*
X0160335Y0061156D01*
X0155670Y0061156D02*
X0154520Y0061156D01*
X0154520Y0059158D02*
X0155670Y0059158D01*
X0155670Y0055161D02*
X0154520Y0055161D01*
X0154520Y0053162D02*
X0155670Y0053162D01*
X0159857Y0051164D02*
X0168423Y0051164D01*
X0167478Y0053162D02*
X0160539Y0053162D01*
X0161038Y0049165D02*
X0169931Y0049165D01*
X0172519Y0047167D02*
X0161038Y0047167D01*
X0150333Y0051164D02*
X0147357Y0051164D01*
X0146910Y0051932D02*
X0147366Y0052195D01*
X0147739Y0052567D01*
X0148002Y0053023D01*
X0148138Y0053532D01*
X0148138Y0056370D01*
X0143170Y0056370D01*
X0143170Y0051795D01*
X0146402Y0051795D01*
X0146910Y0051932D01*
X0148039Y0053162D02*
X0149651Y0053162D01*
X0149552Y0055161D02*
X0148138Y0055161D01*
X0148138Y0057520D02*
X0148138Y0060358D01*
X0148002Y0060866D01*
X0147739Y0061323D01*
X0147366Y0061695D01*
X0146910Y0061958D01*
X0146402Y0062094D01*
X0143170Y0062094D01*
X0143170Y0057520D01*
X0148138Y0057520D01*
X0148138Y0059158D02*
X0149552Y0059158D01*
X0149855Y0061156D02*
X0147835Y0061156D01*
X0143170Y0061156D02*
X0142020Y0061156D01*
X0142020Y0059158D02*
X0143170Y0059158D01*
X0143170Y0055161D02*
X0142020Y0055161D01*
X0142020Y0053162D02*
X0143170Y0053162D01*
X0148538Y0049165D02*
X0149152Y0049165D01*
X0149152Y0047167D02*
X0148538Y0047167D01*
X0148538Y0045168D02*
X0149152Y0045168D01*
X0149152Y0043170D02*
X0148538Y0043170D01*
X0136652Y0043170D02*
X0052574Y0043170D01*
X0050575Y0045168D02*
X0136652Y0045168D01*
X0136652Y0047167D02*
X0048995Y0047167D01*
X0056171Y0049165D02*
X0136652Y0049165D01*
X0137355Y0061156D02*
X0130927Y0061156D01*
X0129696Y0063155D02*
X0168955Y0063155D01*
X0185259Y0069150D02*
X0186408Y0069150D01*
X0186408Y0071149D02*
X0185259Y0071149D01*
X0185259Y0073147D02*
X0186408Y0073147D01*
X0186408Y0074508D02*
X0185259Y0074508D01*
X0185259Y0079476D01*
X0185259Y0083358D01*
X0186408Y0083358D01*
X0186408Y0074508D01*
X0186408Y0075146D02*
X0185259Y0075146D01*
X0185259Y0077144D02*
X0186408Y0077144D01*
X0186408Y0079143D02*
X0185259Y0079143D01*
X0185259Y0081141D02*
X0186408Y0081141D01*
X0186408Y0083140D02*
X0185259Y0083140D01*
X0185259Y0085138D02*
X0186408Y0085138D01*
X0186408Y0087137D02*
X0185259Y0087137D01*
X0185259Y0089135D02*
X0186408Y0089135D01*
X0190109Y0089135D02*
X0191972Y0089135D01*
X0191307Y0087137D02*
X0190983Y0087137D01*
X0193270Y0097129D02*
X0194420Y0097129D01*
X0194420Y0099128D02*
X0193270Y0099128D01*
X0199388Y0103125D02*
X0258302Y0103125D01*
X0258600Y0105124D02*
X0199090Y0105124D01*
X0199109Y0107122D02*
X0258581Y0107122D01*
X0257902Y0109121D02*
X0199788Y0109121D01*
X0199788Y0111119D02*
X0257902Y0111119D01*
X0257902Y0113118D02*
X0199788Y0113118D01*
X0199788Y0115116D02*
X0257902Y0115116D01*
X0249770Y0117115D02*
X0209171Y0117115D01*
X0210541Y0119113D02*
X0248399Y0119113D01*
X0247945Y0121112D02*
X0210995Y0121112D01*
X0210766Y0123110D02*
X0248174Y0123110D01*
X0249227Y0125109D02*
X0209713Y0125109D01*
X0206764Y0127107D02*
X0252247Y0127107D01*
X0238917Y0137100D02*
X0370455Y0137100D01*
X0370455Y0139098D02*
X0240019Y0139098D01*
X0240555Y0141097D02*
X0370455Y0141097D01*
X0370455Y0143095D02*
X0240745Y0143095D01*
X0240661Y0145094D02*
X0370455Y0145094D01*
X0370455Y0147092D02*
X0240125Y0147092D01*
X0239146Y0149091D02*
X0370455Y0149091D01*
X0370455Y0151089D02*
X0237629Y0151089D01*
X0237233Y0135101D02*
X0370455Y0135101D01*
X0370455Y0133103D02*
X0234393Y0133103D01*
X0264095Y0159478D02*
X0266790Y0156783D01*
X0268695Y0156783D01*
X0268695Y0161383D01*
X0264095Y0161383D01*
X0264095Y0159478D01*
X0264489Y0159083D02*
X0194401Y0159083D01*
X0194795Y0159478D02*
X0194795Y0161383D01*
X0190195Y0161383D01*
X0185595Y0161383D01*
X0185595Y0159478D01*
X0188290Y0156783D01*
X0190195Y0156783D01*
X0190195Y0161383D01*
X0190195Y0161383D01*
X0190195Y0161383D01*
X0185595Y0161383D01*
X0185595Y0163288D01*
X0188290Y0165983D01*
X0190195Y0165983D01*
X0190195Y0161383D01*
X0190195Y0156783D01*
X0192101Y0156783D01*
X0194795Y0159478D01*
X0194795Y0161082D02*
X0264095Y0161082D01*
X0264095Y0161383D02*
X0268695Y0161383D01*
X0268695Y0161383D01*
X0268695Y0161383D01*
X0268695Y0156783D01*
X0270601Y0156783D01*
X0273295Y0159478D01*
X0273295Y0161383D01*
X0268695Y0161383D01*
X0268695Y0165983D01*
X0266790Y0165983D01*
X0264095Y0163288D01*
X0264095Y0161383D01*
X0264095Y0163080D02*
X0194795Y0163080D01*
X0194795Y0163288D02*
X0192101Y0165983D01*
X0190195Y0165983D01*
X0190195Y0161383D01*
X0190195Y0161383D01*
X0190195Y0161383D01*
X0194795Y0161383D01*
X0194795Y0163288D01*
X0193005Y0165079D02*
X0265886Y0165079D01*
X0268695Y0165079D02*
X0268695Y0165079D01*
X0268695Y0165983D02*
X0270601Y0165983D01*
X0273295Y0163288D01*
X0273295Y0161383D01*
X0268695Y0161383D01*
X0268695Y0161383D01*
X0268695Y0161383D01*
X0268695Y0165983D01*
X0268695Y0163080D02*
X0268695Y0163080D01*
X0268695Y0161082D02*
X0268695Y0161082D01*
X0268695Y0159083D02*
X0268695Y0159083D01*
X0268695Y0157085D02*
X0268695Y0157085D01*
X0266488Y0157085D02*
X0192402Y0157085D01*
X0190195Y0157085D02*
X0190195Y0157085D01*
X0190195Y0159083D02*
X0190195Y0159083D01*
X0190195Y0161082D02*
X0190195Y0161082D01*
X0190195Y0163080D02*
X0190195Y0163080D01*
X0190195Y0165079D02*
X0190195Y0165079D01*
X0187386Y0165079D02*
X0174843Y0165079D01*
X0175878Y0163080D02*
X0185595Y0163080D01*
X0185595Y0161082D02*
X0176095Y0161082D01*
X0175629Y0159083D02*
X0185989Y0159083D01*
X0187988Y0157085D02*
X0174241Y0157085D01*
X0171865Y0167077D02*
X0287025Y0167077D01*
X0284047Y0165079D02*
X0271505Y0165079D01*
X0273295Y0163080D02*
X0283012Y0163080D01*
X0282795Y0161082D02*
X0273295Y0161082D01*
X0272901Y0159083D02*
X0283262Y0159083D01*
X0284650Y0157085D02*
X0270902Y0157085D01*
X0319537Y0123110D02*
X0326675Y0123110D01*
X0328674Y0121112D02*
X0319745Y0121112D01*
X0319745Y0119113D02*
X0330672Y0119113D01*
X0330795Y0117115D02*
X0319745Y0117115D01*
X0319745Y0115116D02*
X0330795Y0115116D01*
X0330795Y0113118D02*
X0319745Y0113118D01*
X0319745Y0111119D02*
X0330795Y0111119D01*
X0330795Y0109121D02*
X0319745Y0109121D01*
X0319745Y0107122D02*
X0330795Y0107122D01*
X0330795Y0105124D02*
X0319745Y0105124D01*
X0319745Y0103125D02*
X0330795Y0103125D01*
X0330795Y0101127D02*
X0319745Y0101127D01*
X0319745Y0099128D02*
X0330795Y0099128D01*
X0330795Y0097129D02*
X0319745Y0097129D01*
X0319745Y0095131D02*
X0330795Y0095131D01*
X0330795Y0093132D02*
X0319745Y0093132D01*
X0319745Y0091134D02*
X0330795Y0091134D01*
X0330795Y0089135D02*
X0319745Y0089135D01*
X0319745Y0087137D02*
X0330795Y0087137D01*
X0330795Y0085138D02*
X0319177Y0085138D01*
X0317646Y0083140D02*
X0330795Y0083140D01*
X0330795Y0081141D02*
X0278257Y0081141D01*
X0278257Y0083140D02*
X0286317Y0083140D01*
X0286774Y0082683D02*
X0288845Y0082683D01*
X0288845Y0087683D01*
X0283845Y0087683D01*
X0283845Y0085612D01*
X0286774Y0082683D01*
X0288845Y0082683D02*
X0288845Y0087683D01*
X0288845Y0087683D01*
X0288845Y0087683D01*
X0283845Y0087683D01*
X0283845Y0089754D01*
X0286774Y0092683D01*
X0288845Y0092683D01*
X0288845Y0087683D01*
X0288845Y0087683D01*
X0288845Y0087683D01*
X0293845Y0087683D01*
X0293845Y0085612D01*
X0290916Y0082683D01*
X0288845Y0082683D01*
X0288845Y0083140D02*
X0288845Y0083140D01*
X0288845Y0085138D02*
X0288845Y0085138D01*
X0288845Y0087137D02*
X0288845Y0087137D01*
X0288845Y0087683D02*
X0293845Y0087683D01*
X0293845Y0089754D01*
X0290916Y0092683D01*
X0288845Y0092683D01*
X0288845Y0087683D01*
X0288845Y0089135D02*
X0288845Y0089135D01*
X0288845Y0091134D02*
X0288845Y0091134D01*
X0285225Y0091134D02*
X0261198Y0091134D01*
X0259745Y0093132D02*
X0307945Y0093132D01*
X0307945Y0091134D02*
X0292465Y0091134D01*
X0293845Y0089135D02*
X0307945Y0089135D01*
X0307945Y0087137D02*
X0293845Y0087137D01*
X0293372Y0085138D02*
X0308513Y0085138D01*
X0310044Y0083140D02*
X0291373Y0083140D01*
X0284319Y0085138D02*
X0278257Y0085138D01*
X0278257Y0087137D02*
X0283845Y0087137D01*
X0283845Y0089135D02*
X0277383Y0089135D01*
X0273682Y0089135D02*
X0272532Y0089135D01*
X0272532Y0087137D02*
X0273682Y0087137D01*
X0273682Y0085138D02*
X0272532Y0085138D01*
X0272532Y0083358D02*
X0273682Y0083358D01*
X0273682Y0074508D01*
X0272532Y0074508D01*
X0272532Y0078390D01*
X0272532Y0083358D01*
X0272532Y0083140D02*
X0273682Y0083140D01*
X0273682Y0081141D02*
X0272532Y0081141D01*
X0272532Y0079143D02*
X0273682Y0079143D01*
X0273682Y0077144D02*
X0272532Y0077144D01*
X0272532Y0075146D02*
X0273682Y0075146D01*
X0273682Y0073358D02*
X0278257Y0073358D01*
X0278257Y0070126D01*
X0278120Y0069618D01*
X0277857Y0069162D01*
X0277485Y0068789D01*
X0277029Y0068526D01*
X0276520Y0068390D01*
X0273682Y0068390D01*
X0273682Y0073358D01*
X0273682Y0073147D02*
X0272532Y0073147D01*
X0272532Y0071149D02*
X0273682Y0071149D01*
X0273682Y0069150D02*
X0272532Y0069150D01*
X0268368Y0069150D02*
X0267983Y0069150D01*
X0267983Y0067152D02*
X0277845Y0067152D01*
X0277846Y0069150D02*
X0330795Y0069150D01*
X0330795Y0067152D02*
X0284094Y0067152D01*
X0278257Y0071149D02*
X0330795Y0071149D01*
X0330795Y0073147D02*
X0278257Y0073147D01*
X0278257Y0075146D02*
X0330795Y0075146D01*
X0330795Y0077144D02*
X0278257Y0077144D01*
X0277838Y0079143D02*
X0330795Y0079143D01*
X0348396Y0063155D02*
X0369194Y0063155D01*
X0367963Y0061156D02*
X0349627Y0061156D01*
X0350034Y0059158D02*
X0367557Y0059158D01*
X0367777Y0057159D02*
X0349813Y0057159D01*
X0348845Y0055161D02*
X0368745Y0055161D01*
X0371425Y0053162D02*
X0346165Y0053162D01*
X0341425Y0053162D02*
X0336165Y0053162D01*
X0331425Y0053162D02*
X0318039Y0053162D01*
X0318138Y0055161D02*
X0328745Y0055161D01*
X0318538Y0049165D02*
X0400269Y0049165D01*
X0398606Y0051164D02*
X0317357Y0051164D01*
X0318538Y0047167D02*
X0406652Y0047167D01*
X0404708Y0045168D02*
X0318538Y0045168D01*
X0318538Y0043170D02*
X0402764Y0043170D01*
X0397945Y0053162D02*
X0384682Y0053162D01*
X0384075Y0053162D02*
X0383516Y0053162D01*
X0382908Y0053162D02*
X0376165Y0053162D01*
X0378845Y0055161D02*
X0379319Y0055161D01*
X0383516Y0055161D02*
X0384075Y0055161D01*
X0384075Y0057159D02*
X0383516Y0057159D01*
X0384075Y0059158D02*
X0401041Y0059158D01*
X0398795Y0057159D02*
X0389358Y0057159D01*
X0389634Y0059213D02*
X0384075Y0059213D01*
X0384075Y0064772D01*
X0384255Y0064772D01*
X0385162Y0064628D01*
X0386036Y0064344D01*
X0386855Y0063927D01*
X0387599Y0063386D01*
X0388249Y0062737D01*
X0388789Y0061993D01*
X0389206Y0061174D01*
X0389490Y0060300D01*
X0389634Y0059393D01*
X0389634Y0059213D01*
X0389212Y0061156D02*
X0407695Y0061156D01*
X0407695Y0063155D02*
X0387830Y0063155D01*
X0384075Y0063155D02*
X0383516Y0063155D01*
X0383516Y0061156D02*
X0384075Y0061156D01*
X0379760Y0063155D02*
X0378396Y0063155D01*
X0377195Y0065153D02*
X0407695Y0065153D01*
X0407695Y0067152D02*
X0377195Y0067152D01*
X0377195Y0069150D02*
X0407695Y0069150D01*
X0407695Y0071149D02*
X0377255Y0071149D01*
X0377255Y0073147D02*
X0407695Y0073147D01*
X0407695Y0075146D02*
X0377255Y0075146D01*
X0377255Y0077144D02*
X0407695Y0077144D01*
X0407695Y0079143D02*
X0377255Y0079143D01*
X0377255Y0081141D02*
X0407695Y0081141D01*
X0407695Y0083140D02*
X0377255Y0083140D01*
X0377255Y0085138D02*
X0407695Y0085138D01*
X0407695Y0087137D02*
X0377255Y0087137D01*
X0377255Y0089135D02*
X0407695Y0089135D01*
X0407695Y0091134D02*
X0377255Y0091134D01*
X0377255Y0093132D02*
X0407695Y0093132D01*
X0407695Y0095131D02*
X0377255Y0095131D01*
X0377255Y0097129D02*
X0407695Y0097129D01*
X0407695Y0099128D02*
X0377255Y0099128D01*
X0377255Y0101127D02*
X0407695Y0101127D01*
X0407695Y0103125D02*
X0377255Y0103125D01*
X0377255Y0105124D02*
X0407695Y0105124D01*
X0407695Y0107122D02*
X0377255Y0107122D01*
X0377255Y0109121D02*
X0401587Y0109121D01*
X0399588Y0111119D02*
X0377255Y0111119D01*
X0377255Y0113118D02*
X0398845Y0113118D01*
X0398845Y0115116D02*
X0377255Y0115116D01*
X0377255Y0117115D02*
X0399845Y0117115D01*
X0399845Y0119113D02*
X0377255Y0119113D01*
X0377255Y0121112D02*
X0399845Y0121112D01*
X0399845Y0123110D02*
X0377255Y0123110D01*
X0377255Y0125109D02*
X0399845Y0125109D01*
X0399845Y0127107D02*
X0377255Y0127107D01*
X0377255Y0129106D02*
X0399845Y0129106D01*
X0399845Y0131104D02*
X0377255Y0131104D01*
X0377255Y0133103D02*
X0399845Y0133103D01*
X0399845Y0135101D02*
X0377255Y0135101D01*
X0377255Y0137100D02*
X0399845Y0137100D01*
X0399845Y0139098D02*
X0377255Y0139098D01*
X0377255Y0141097D02*
X0399845Y0141097D01*
X0399845Y0143095D02*
X0377255Y0143095D01*
X0377255Y0145094D02*
X0399845Y0145094D01*
X0399845Y0147092D02*
X0377255Y0147092D01*
X0377255Y0149091D02*
X0399845Y0149091D01*
X0399845Y0151089D02*
X0377255Y0151089D01*
X0377255Y0153088D02*
X0399845Y0153088D01*
X0399845Y0155086D02*
X0377255Y0155086D01*
X0377255Y0157085D02*
X0384888Y0157085D01*
X0385190Y0156783D02*
X0387095Y0156783D01*
X0387095Y0161383D01*
X0382495Y0161383D01*
X0382495Y0159478D01*
X0385190Y0156783D01*
X0387095Y0156783D02*
X0389001Y0156783D01*
X0391695Y0159478D01*
X0391695Y0161383D01*
X0387095Y0161383D01*
X0387095Y0161383D01*
X0387095Y0161383D01*
X0382495Y0161383D01*
X0382495Y0163288D01*
X0385190Y0165983D01*
X0387095Y0165983D01*
X0387095Y0161383D01*
X0387095Y0156783D01*
X0387095Y0157085D02*
X0387095Y0157085D01*
X0387095Y0159083D02*
X0387095Y0159083D01*
X0387095Y0161082D02*
X0387095Y0161082D01*
X0387095Y0161383D02*
X0387095Y0161383D01*
X0387095Y0161383D01*
X0387095Y0165983D01*
X0389001Y0165983D01*
X0391695Y0163288D01*
X0391695Y0161383D01*
X0387095Y0161383D01*
X0387095Y0163080D02*
X0387095Y0163080D01*
X0387095Y0165079D02*
X0387095Y0165079D01*
X0384286Y0165079D02*
X0377255Y0165079D01*
X0377255Y0167077D02*
X0399845Y0167077D01*
X0399845Y0165079D02*
X0389905Y0165079D01*
X0391695Y0163080D02*
X0399845Y0163080D01*
X0399845Y0161082D02*
X0391695Y0161082D01*
X0391301Y0159083D02*
X0399845Y0159083D01*
X0399845Y0157085D02*
X0389302Y0157085D01*
X0382889Y0159083D02*
X0377255Y0159083D01*
X0377255Y0161082D02*
X0382495Y0161082D01*
X0382495Y0163080D02*
X0377255Y0163080D01*
X0377255Y0169076D02*
X0399845Y0169076D01*
X0399845Y0171074D02*
X0377255Y0171074D01*
X0377255Y0173073D02*
X0399845Y0173073D01*
X0399845Y0175071D02*
X0377255Y0175071D01*
X0377255Y0177070D02*
X0399845Y0177070D01*
X0399845Y0179068D02*
X0377255Y0179068D01*
X0377255Y0181067D02*
X0399845Y0181067D01*
X0399845Y0183065D02*
X0377255Y0183065D01*
X0377255Y0185064D02*
X0399845Y0185064D01*
X0399845Y0187062D02*
X0377255Y0187062D01*
X0377255Y0189061D02*
X0399845Y0189061D01*
X0399845Y0191060D02*
X0377255Y0191060D01*
X0376858Y0193058D02*
X0399845Y0193058D01*
X0399845Y0195057D02*
X0375030Y0195057D01*
X0373031Y0197055D02*
X0399845Y0197055D01*
X0399845Y0199054D02*
X0359783Y0199054D01*
X0359745Y0201052D02*
X0399845Y0201052D01*
X0399845Y0203051D02*
X0361294Y0203051D01*
X0361294Y0205049D02*
X0399845Y0205049D01*
X0399845Y0207048D02*
X0361294Y0207048D01*
X0361294Y0209046D02*
X0399845Y0209046D01*
X0399845Y0211045D02*
X0360630Y0211045D01*
X0356345Y0206423D02*
X0356335Y0206433D01*
X0356345Y0206423D02*
X0356345Y0197683D01*
X0358845Y0195183D01*
X0370095Y0195183D01*
X0373855Y0191423D01*
X0373855Y0071383D01*
X0373795Y0071323D01*
X0373795Y0058933D01*
X0388271Y0055161D02*
X0397968Y0055161D01*
X0406104Y0109121D02*
X0407695Y0109121D01*
X0370455Y0167077D02*
X0368765Y0167077D01*
X0370455Y0169076D02*
X0333795Y0169076D01*
X0333795Y0171074D02*
X0370455Y0171074D01*
X0370455Y0173073D02*
X0333795Y0173073D01*
X0333795Y0175071D02*
X0370455Y0175071D01*
X0370455Y0177070D02*
X0333795Y0177070D01*
X0333795Y0179068D02*
X0370455Y0179068D01*
X0370455Y0181067D02*
X0333795Y0181067D01*
X0333795Y0183065D02*
X0370455Y0183065D01*
X0370455Y0185064D02*
X0333795Y0185064D01*
X0333795Y0187062D02*
X0370455Y0187062D01*
X0370455Y0189061D02*
X0333795Y0189061D01*
X0333795Y0191060D02*
X0369410Y0191060D01*
X0356162Y0193058D02*
X0333795Y0193058D01*
X0334611Y0195057D02*
X0354163Y0195057D01*
X0352945Y0197055D02*
X0334724Y0197055D01*
X0334307Y0199054D02*
X0352945Y0199054D01*
X0352945Y0201052D02*
X0333189Y0201052D01*
X0330380Y0203051D02*
X0340104Y0203051D01*
X0337638Y0205049D02*
X0126019Y0205049D01*
X0127994Y0207048D02*
X0334062Y0207048D01*
X0332882Y0209046D02*
X0329408Y0209046D01*
X0329408Y0211045D02*
X0332882Y0211045D01*
X0332882Y0213043D02*
X0325030Y0213043D01*
X0324274Y0213043D02*
X0128495Y0213043D01*
X0128495Y0211045D02*
X0319896Y0211045D01*
X0319896Y0209046D02*
X0128495Y0209046D01*
X0125095Y0208933D02*
X0120095Y0203933D01*
X0090095Y0203933D01*
X0107052Y0213043D02*
X0111106Y0213043D01*
X0111182Y0212912D02*
X0111554Y0212539D01*
X0112010Y0212276D01*
X0112519Y0212140D01*
X0115160Y0212140D01*
X0115160Y0217305D01*
X0110782Y0217305D01*
X0110782Y0213876D01*
X0110918Y0213368D01*
X0111182Y0212912D01*
X0110782Y0215042D02*
X0107308Y0215042D01*
X0107308Y0217040D02*
X0110782Y0217040D01*
X0110782Y0219039D02*
X0107308Y0219039D01*
X0107308Y0221037D02*
X0110782Y0221037D01*
X0109115Y0223036D02*
X0108556Y0223036D01*
X0108556Y0225034D02*
X0109115Y0225034D01*
X0109115Y0227033D02*
X0108556Y0227033D01*
X0113394Y0227033D02*
X0121695Y0227033D01*
X0121695Y0229031D02*
X0113394Y0229031D01*
X0113359Y0231030D02*
X0121372Y0231030D01*
X0120173Y0233028D02*
X0113794Y0233028D01*
X0108835Y0236433D02*
X0121345Y0237683D01*
X0125095Y0231433D01*
X0125095Y0208933D01*
X0121695Y0213043D02*
X0119970Y0213043D01*
X0120294Y0215042D02*
X0121695Y0215042D01*
X0121695Y0217040D02*
X0120294Y0217040D01*
X0120294Y0219039D02*
X0121695Y0219039D01*
X0121695Y0221037D02*
X0120294Y0221037D01*
X0119160Y0223036D02*
X0121695Y0223036D01*
X0121695Y0225034D02*
X0113394Y0225034D01*
X0115160Y0223036D02*
X0115916Y0223036D01*
X0115916Y0221037D02*
X0115160Y0221037D01*
X0115160Y0219039D02*
X0115916Y0219039D01*
X0115916Y0217040D02*
X0115160Y0217040D01*
X0115160Y0215042D02*
X0115916Y0215042D01*
X0115916Y0213043D02*
X0115160Y0213043D01*
X0124021Y0203051D02*
X0128510Y0203051D01*
X0125701Y0201052D02*
X0122022Y0201052D01*
X0133480Y0203051D02*
X0325410Y0203051D01*
X0322601Y0201052D02*
X0136289Y0201052D01*
X0137407Y0199054D02*
X0321483Y0199054D01*
X0321066Y0197055D02*
X0137824Y0197055D01*
X0137711Y0195057D02*
X0321179Y0195057D01*
X0321995Y0193058D02*
X0136895Y0193058D01*
X0136895Y0191060D02*
X0321995Y0191060D01*
X0321995Y0189061D02*
X0136895Y0189061D01*
X0136895Y0187062D02*
X0321995Y0187062D01*
X0321995Y0185064D02*
X0136895Y0185064D01*
X0136895Y0183065D02*
X0321995Y0183065D01*
X0321995Y0181067D02*
X0136895Y0181067D01*
X0136895Y0179068D02*
X0321995Y0179068D01*
X0321995Y0177070D02*
X0136895Y0177070D01*
X0136895Y0175071D02*
X0321995Y0175071D01*
X0321995Y0173073D02*
X0136895Y0173073D01*
X0136895Y0171074D02*
X0321995Y0171074D01*
X0321995Y0169076D02*
X0136895Y0169076D01*
X0128495Y0215042D02*
X0319896Y0215042D01*
X0319896Y0216490D02*
X0319896Y0213061D01*
X0324274Y0213061D01*
X0324274Y0218226D01*
X0321633Y0218226D01*
X0321124Y0218090D01*
X0320668Y0217827D01*
X0320296Y0217454D01*
X0320033Y0216998D01*
X0319896Y0216490D01*
X0320057Y0217040D02*
X0128495Y0217040D01*
X0128495Y0219039D02*
X0325661Y0219039D01*
X0325546Y0221037D02*
X0128495Y0221037D01*
X0128495Y0223036D02*
X0325546Y0223036D01*
X0325546Y0222963D02*
X0329825Y0222963D01*
X0329825Y0227636D01*
X0327283Y0227636D01*
X0326774Y0227500D01*
X0326318Y0227236D01*
X0325946Y0226864D01*
X0325682Y0226408D01*
X0325546Y0225899D01*
X0325546Y0222963D01*
X0325546Y0225034D02*
X0128495Y0225034D01*
X0128495Y0227033D02*
X0326114Y0227033D01*
X0329825Y0227033D02*
X0330385Y0227033D01*
X0330385Y0225034D02*
X0329825Y0225034D01*
X0329825Y0223036D02*
X0330385Y0223036D01*
X0330385Y0221037D02*
X0329825Y0221037D01*
X0329825Y0219039D02*
X0330385Y0219039D01*
X0329248Y0217040D02*
X0333021Y0217040D01*
X0332882Y0215042D02*
X0329408Y0215042D01*
X0325030Y0215042D02*
X0324274Y0215042D01*
X0324274Y0217040D02*
X0325030Y0217040D01*
X0325030Y0211045D02*
X0324274Y0211045D01*
X0324274Y0209046D02*
X0325030Y0209046D01*
X0342544Y0223036D02*
X0352595Y0223036D01*
X0352595Y0224260D02*
X0352595Y0221106D01*
X0352961Y0220224D01*
X0353636Y0219548D01*
X0354518Y0219183D01*
X0356567Y0219183D01*
X0356929Y0219033D01*
X0365811Y0219033D01*
X0366053Y0219133D01*
X0368173Y0219133D01*
X0369055Y0219498D01*
X0369730Y0220174D01*
X0370095Y0221056D01*
X0370095Y0224210D01*
X0369730Y0225093D01*
X0369055Y0225768D01*
X0368173Y0226133D01*
X0366053Y0226133D01*
X0365811Y0226233D01*
X0361195Y0226233D01*
X0361195Y0231513D01*
X0361294Y0231753D01*
X0361294Y0238613D01*
X0360929Y0239495D01*
X0360254Y0240170D01*
X0359372Y0240536D01*
X0353299Y0240536D01*
X0352417Y0240170D01*
X0352224Y0239978D01*
X0352186Y0240000D01*
X0351677Y0240136D01*
X0349135Y0240136D01*
X0349135Y0235463D01*
X0348575Y0235463D01*
X0348575Y0234904D01*
X0344296Y0234904D01*
X0344296Y0231967D01*
X0344432Y0231458D01*
X0344696Y0231002D01*
X0345068Y0230630D01*
X0345524Y0230367D01*
X0346033Y0230230D01*
X0348575Y0230230D01*
X0348575Y0234903D01*
X0349135Y0234903D01*
X0349135Y0230230D01*
X0351677Y0230230D01*
X0352186Y0230367D01*
X0352224Y0230389D01*
X0352417Y0230196D01*
X0353299Y0229830D01*
X0353995Y0229830D01*
X0353995Y0225967D01*
X0353636Y0225818D01*
X0352961Y0225143D01*
X0352595Y0224260D01*
X0352059Y0224511D02*
X0352195Y0225020D01*
X0352195Y0226383D01*
X0347595Y0226383D01*
X0342995Y0226383D01*
X0342995Y0225020D01*
X0343131Y0224511D01*
X0343395Y0224055D01*
X0343767Y0223683D01*
X0344223Y0223419D01*
X0344732Y0223283D01*
X0347595Y0223283D01*
X0347595Y0226383D01*
X0347595Y0226383D01*
X0347595Y0226383D01*
X0342995Y0226383D01*
X0342995Y0227746D01*
X0343131Y0228255D01*
X0343395Y0228711D01*
X0343767Y0229083D01*
X0344223Y0229347D01*
X0344732Y0229483D01*
X0347595Y0229483D01*
X0347595Y0226383D01*
X0347595Y0223283D01*
X0350458Y0223283D01*
X0350967Y0223419D01*
X0351423Y0223683D01*
X0351796Y0224055D01*
X0352059Y0224511D01*
X0352195Y0225034D02*
X0352916Y0225034D01*
X0352195Y0226383D02*
X0347595Y0226383D01*
X0347595Y0226383D01*
X0347595Y0226383D01*
X0347595Y0229483D01*
X0350458Y0229483D01*
X0350967Y0229347D01*
X0351423Y0229083D01*
X0351796Y0228711D01*
X0352059Y0228255D01*
X0352195Y0227746D01*
X0352195Y0226383D01*
X0352195Y0227033D02*
X0353995Y0227033D01*
X0353995Y0229031D02*
X0351475Y0229031D01*
X0349135Y0231030D02*
X0348575Y0231030D01*
X0348575Y0233028D02*
X0349135Y0233028D01*
X0348575Y0235027D02*
X0126904Y0235027D01*
X0125705Y0237025D02*
X0344296Y0237025D01*
X0344296Y0238399D02*
X0344296Y0235463D01*
X0348575Y0235463D01*
X0348575Y0240136D01*
X0346033Y0240136D01*
X0345524Y0240000D01*
X0345068Y0239736D01*
X0344696Y0239364D01*
X0344432Y0238908D01*
X0344296Y0238399D01*
X0344499Y0239024D02*
X0124506Y0239024D01*
X0122048Y0241022D02*
X0380295Y0241022D01*
X0380295Y0239024D02*
X0361124Y0239024D01*
X0361294Y0237025D02*
X0378178Y0237025D01*
X0377902Y0235027D02*
X0361294Y0235027D01*
X0361294Y0233028D02*
X0377902Y0233028D01*
X0377902Y0231030D02*
X0361195Y0231030D01*
X0361195Y0229031D02*
X0378259Y0229031D01*
X0377928Y0223036D02*
X0370095Y0223036D01*
X0370087Y0221037D02*
X0370313Y0221037D01*
X0370095Y0219039D02*
X0365825Y0219039D01*
X0370000Y0217040D02*
X0370226Y0217040D01*
X0370095Y0215042D02*
X0378850Y0215042D01*
X0369841Y0213043D02*
X0399845Y0213043D01*
X0399845Y0215042D02*
X0388840Y0215042D01*
X0393284Y0217040D02*
X0399845Y0217040D01*
X0388492Y0225034D02*
X0369754Y0225034D01*
X0361195Y0227033D02*
X0388535Y0227033D01*
X0380295Y0243021D02*
X0109795Y0243021D01*
X0109795Y0245019D02*
X0380195Y0245019D01*
X0380195Y0247018D02*
X0111738Y0247018D01*
X0111728Y0247007D02*
X0111728Y0247007D01*
X0113271Y0248551D02*
X0113271Y0248551D01*
X0113737Y0249016D02*
X0380195Y0249016D01*
X0380195Y0251015D02*
X0114745Y0251015D01*
X0114745Y0253013D02*
X0380195Y0253013D01*
X0380195Y0255012D02*
X0114745Y0255012D01*
X0114745Y0257010D02*
X0380195Y0257010D01*
X0380195Y0259009D02*
X0114745Y0259009D01*
X0114745Y0261007D02*
X0296680Y0261007D01*
X0294681Y0263006D02*
X0114745Y0263006D01*
X0114745Y0265004D02*
X0292683Y0265004D01*
X0290748Y0267003D02*
X0114745Y0267003D01*
X0114745Y0269001D02*
X0290245Y0269001D01*
X0290245Y0271000D02*
X0159431Y0271000D01*
X0159529Y0271026D02*
X0159985Y0271289D01*
X0160357Y0271662D01*
X0160620Y0272118D01*
X0160757Y0272626D01*
X0160757Y0275858D01*
X0156182Y0275858D01*
X0156182Y0270890D01*
X0159020Y0270890D01*
X0159529Y0271026D01*
X0160757Y0272998D02*
X0290245Y0272998D01*
X0290245Y0274997D02*
X0160757Y0274997D01*
X0160757Y0278994D02*
X0290245Y0278994D01*
X0290245Y0276995D02*
X0156182Y0276995D01*
X0156182Y0277008D02*
X0155032Y0277008D01*
X0155032Y0284608D01*
X0156182Y0284608D01*
X0156182Y0279640D01*
X0156182Y0277008D01*
X0156182Y0278994D02*
X0155032Y0278994D01*
X0155032Y0280993D02*
X0156182Y0280993D01*
X0156182Y0282991D02*
X0155032Y0282991D01*
X0156182Y0284990D02*
X0290245Y0284990D01*
X0290245Y0286988D02*
X0160757Y0286988D01*
X0160757Y0288987D02*
X0291307Y0288987D01*
X0292295Y0291233D02*
X0289395Y0291233D01*
X0289395Y0298233D01*
X0282395Y0298233D01*
X0282395Y0295334D01*
X0286496Y0291233D01*
X0289395Y0291233D01*
X0289395Y0298233D01*
X0289395Y0298233D01*
X0289395Y0298233D01*
X0282395Y0298233D01*
X0282395Y0301133D01*
X0286496Y0305233D01*
X0289395Y0305233D01*
X0289395Y0298233D01*
X0289395Y0298233D01*
X0289395Y0305233D01*
X0292295Y0305233D01*
X0296395Y0301133D01*
X0296395Y0298233D01*
X0289395Y0298233D01*
X0289395Y0298233D01*
X0296395Y0298233D01*
X0296395Y0295334D01*
X0292295Y0291233D01*
X0293306Y0290985D02*
X0213147Y0290985D01*
X0212295Y0290133D02*
X0209395Y0290133D01*
X0209395Y0297133D01*
X0202395Y0297133D01*
X0202395Y0294234D01*
X0206496Y0290133D01*
X0209395Y0290133D01*
X0209395Y0297133D01*
X0209395Y0297133D01*
X0209395Y0297133D01*
X0202395Y0297133D01*
X0202395Y0300033D01*
X0206496Y0304133D01*
X0209395Y0304133D01*
X0209395Y0297133D01*
X0209395Y0297133D01*
X0209395Y0304133D01*
X0212295Y0304133D01*
X0216395Y0300033D01*
X0216395Y0297133D01*
X0209395Y0297133D01*
X0209395Y0297133D01*
X0216395Y0297133D01*
X0216395Y0294234D01*
X0212295Y0290133D01*
X0209395Y0290985D02*
X0209395Y0290985D01*
X0209395Y0292984D02*
X0209395Y0292984D01*
X0209395Y0294982D02*
X0209395Y0294982D01*
X0209395Y0296981D02*
X0209395Y0296981D01*
X0209395Y0298979D02*
X0209395Y0298979D01*
X0209395Y0300978D02*
X0209395Y0300978D01*
X0209395Y0302976D02*
X0209395Y0302976D01*
X0205339Y0302976D02*
X0173452Y0302976D01*
X0172295Y0304133D02*
X0169395Y0304133D01*
X0166496Y0304133D01*
X0162395Y0300033D01*
X0162395Y0297133D01*
X0162395Y0294234D01*
X0166496Y0290133D01*
X0169395Y0290133D01*
X0169395Y0297133D01*
X0162395Y0297133D01*
X0169395Y0297133D01*
X0169395Y0297133D01*
X0169395Y0297133D01*
X0169395Y0290133D01*
X0172295Y0290133D01*
X0176395Y0294234D01*
X0176395Y0297133D01*
X0169395Y0297133D01*
X0169395Y0304133D01*
X0169395Y0297133D01*
X0169395Y0297133D01*
X0169395Y0297133D01*
X0176395Y0297133D01*
X0176395Y0300033D01*
X0172295Y0304133D01*
X0169395Y0302976D02*
X0169395Y0302976D01*
X0169395Y0300978D02*
X0169395Y0300978D01*
X0169395Y0298979D02*
X0169395Y0298979D01*
X0169395Y0296981D02*
X0169395Y0296981D01*
X0169395Y0294982D02*
X0169395Y0294982D01*
X0169395Y0292984D02*
X0169395Y0292984D01*
X0169395Y0290985D02*
X0169395Y0290985D01*
X0165644Y0290985D02*
X0148551Y0290985D01*
X0150133Y0288987D02*
X0150457Y0288987D01*
X0150457Y0286988D02*
X0150222Y0286988D01*
X0155032Y0286988D02*
X0156182Y0286988D01*
X0156182Y0288987D02*
X0155032Y0288987D01*
X0160757Y0282991D02*
X0290245Y0282991D01*
X0290245Y0280993D02*
X0160654Y0280993D01*
X0156182Y0274997D02*
X0155032Y0274997D01*
X0155032Y0272998D02*
X0156182Y0272998D01*
X0156182Y0271000D02*
X0155032Y0271000D01*
X0151783Y0271000D02*
X0149237Y0271000D01*
X0150133Y0272998D02*
X0150457Y0272998D01*
X0150457Y0274997D02*
X0150375Y0274997D01*
X0131045Y0271000D02*
X0114745Y0271000D01*
X0116469Y0272998D02*
X0126917Y0272998D01*
X0125087Y0274997D02*
X0118467Y0274997D01*
X0120466Y0276995D02*
X0124259Y0276995D01*
X0124166Y0278994D02*
X0122464Y0278994D01*
X0123271Y0279801D02*
X0123271Y0279801D01*
X0124325Y0280993D02*
X0124603Y0280993D01*
X0124745Y0282991D02*
X0125750Y0282991D01*
X0124745Y0284990D02*
X0128629Y0284990D01*
X0129195Y0286988D02*
X0124745Y0286988D01*
X0124745Y0288987D02*
X0129195Y0288987D01*
X0129195Y0290985D02*
X0124745Y0290985D01*
X0124745Y0292984D02*
X0129195Y0292984D01*
X0129195Y0294982D02*
X0124745Y0294982D01*
X0124745Y0296981D02*
X0129195Y0296981D01*
X0129195Y0298979D02*
X0124745Y0298979D01*
X0124745Y0300978D02*
X0129556Y0300978D01*
X0129695Y0302976D02*
X0124745Y0302976D01*
X0124745Y0304975D02*
X0130510Y0304975D01*
X0133152Y0306973D02*
X0124745Y0306973D01*
X0124745Y0308972D02*
X0135095Y0308972D01*
X0135095Y0310970D02*
X0134919Y0310970D01*
X0127071Y0310970D02*
X0124919Y0310970D01*
X0115595Y0314967D02*
X0073490Y0314967D01*
X0071753Y0316966D02*
X0115595Y0316966D01*
X0115595Y0318964D02*
X0068821Y0318964D01*
X0059362Y0318964D02*
X0048995Y0318964D01*
X0048995Y0316966D02*
X0056430Y0316966D01*
X0054693Y0314967D02*
X0048995Y0314967D01*
X0048995Y0312969D02*
X0053551Y0312969D01*
X0053016Y0310970D02*
X0048995Y0310970D01*
X0048995Y0308972D02*
X0052792Y0308972D01*
X0052842Y0306973D02*
X0048995Y0306973D01*
X0048995Y0304975D02*
X0053378Y0304975D01*
X0054318Y0302976D02*
X0048995Y0302976D01*
X0048995Y0300978D02*
X0055782Y0300978D01*
X0058239Y0298979D02*
X0048995Y0298979D01*
X0048995Y0296981D02*
X0110095Y0296981D01*
X0110095Y0298979D02*
X0069943Y0298979D01*
X0072401Y0300978D02*
X0110095Y0300978D01*
X0110198Y0302976D02*
X0073864Y0302976D01*
X0074805Y0304975D02*
X0111125Y0304975D01*
X0110183Y0294982D02*
X0048995Y0294982D01*
X0048995Y0292984D02*
X0111058Y0292984D01*
X0140995Y0292984D02*
X0163645Y0292984D01*
X0162395Y0294982D02*
X0140995Y0294982D01*
X0141487Y0296981D02*
X0162395Y0296981D01*
X0162395Y0298979D02*
X0143485Y0298979D01*
X0145484Y0300978D02*
X0163340Y0300978D01*
X0165339Y0302976D02*
X0146612Y0302976D01*
X0146895Y0304975D02*
X0246237Y0304975D01*
X0246496Y0305233D02*
X0242395Y0301133D01*
X0242395Y0298233D01*
X0242395Y0295334D01*
X0246496Y0291233D01*
X0249395Y0291233D01*
X0249395Y0298233D01*
X0242395Y0298233D01*
X0249395Y0298233D01*
X0249395Y0298233D01*
X0249395Y0298233D01*
X0249395Y0291233D01*
X0252295Y0291233D01*
X0256395Y0295334D01*
X0256395Y0298233D01*
X0249395Y0298233D01*
X0249395Y0305233D01*
X0246496Y0305233D01*
X0249395Y0305233D02*
X0249395Y0298233D01*
X0249395Y0298233D01*
X0249395Y0298233D01*
X0256395Y0298233D01*
X0256395Y0301133D01*
X0252295Y0305233D01*
X0249395Y0305233D01*
X0249395Y0304975D02*
X0249395Y0304975D01*
X0249395Y0302976D02*
X0249395Y0302976D01*
X0249395Y0300978D02*
X0249395Y0300978D01*
X0249395Y0298979D02*
X0249395Y0298979D01*
X0249395Y0296981D02*
X0249395Y0296981D01*
X0249395Y0294982D02*
X0249395Y0294982D01*
X0249395Y0292984D02*
X0249395Y0292984D01*
X0244745Y0292984D02*
X0215145Y0292984D01*
X0216395Y0294982D02*
X0242747Y0294982D01*
X0242395Y0296981D02*
X0216395Y0296981D01*
X0216395Y0298979D02*
X0242395Y0298979D01*
X0242395Y0300978D02*
X0215450Y0300978D01*
X0213452Y0302976D02*
X0244239Y0302976D01*
X0252553Y0304975D02*
X0286237Y0304975D01*
X0284239Y0302976D02*
X0254552Y0302976D01*
X0256395Y0300978D02*
X0282395Y0300978D01*
X0282395Y0298979D02*
X0256395Y0298979D01*
X0256395Y0296981D02*
X0282395Y0296981D01*
X0282747Y0294982D02*
X0256044Y0294982D01*
X0254045Y0292984D02*
X0284745Y0292984D01*
X0289395Y0292984D02*
X0289395Y0292984D01*
X0289395Y0294982D02*
X0289395Y0294982D01*
X0289395Y0296981D02*
X0289395Y0296981D01*
X0289395Y0298979D02*
X0289395Y0298979D01*
X0289395Y0300978D02*
X0289395Y0300978D01*
X0289395Y0302976D02*
X0289395Y0302976D01*
X0289395Y0304975D02*
X0289395Y0304975D01*
X0292553Y0304975D02*
X0298995Y0304975D01*
X0298995Y0306973D02*
X0146895Y0306973D01*
X0146895Y0308972D02*
X0298995Y0308972D01*
X0298995Y0310970D02*
X0291198Y0310970D01*
X0287592Y0310970D02*
X0251198Y0310970D01*
X0247592Y0310970D02*
X0213697Y0310970D01*
X0215680Y0312969D02*
X0244194Y0312969D01*
X0242738Y0314967D02*
X0216508Y0314967D01*
X0216795Y0316966D02*
X0241995Y0316966D01*
X0241995Y0318964D02*
X0216795Y0318964D01*
X0216795Y0320963D02*
X0241995Y0320963D01*
X0241995Y0322961D02*
X0216795Y0322961D01*
X0201995Y0322961D02*
X0176795Y0322961D01*
X0176795Y0320963D02*
X0201995Y0320963D01*
X0201995Y0318964D02*
X0176795Y0318964D01*
X0176795Y0316966D02*
X0201995Y0316966D01*
X0202283Y0314967D02*
X0176508Y0314967D01*
X0175680Y0312969D02*
X0203110Y0312969D01*
X0205093Y0310970D02*
X0173697Y0310970D01*
X0165093Y0310970D02*
X0146895Y0310970D01*
X0146895Y0312969D02*
X0163110Y0312969D01*
X0162283Y0314967D02*
X0146895Y0314967D01*
X0146895Y0316966D02*
X0161995Y0316966D01*
X0161995Y0318964D02*
X0146851Y0318964D01*
X0146395Y0320963D02*
X0161995Y0320963D01*
X0161995Y0322961D02*
X0145896Y0322961D01*
X0116094Y0322961D02*
X0052088Y0322961D01*
X0050090Y0320963D02*
X0115595Y0320963D01*
X0175450Y0300978D02*
X0203340Y0300978D01*
X0202395Y0298979D02*
X0176395Y0298979D01*
X0176395Y0296981D02*
X0202395Y0296981D01*
X0202395Y0294982D02*
X0176395Y0294982D01*
X0175145Y0292984D02*
X0203645Y0292984D01*
X0205644Y0290985D02*
X0173147Y0290985D01*
X0120568Y0241022D02*
X0113152Y0241022D01*
X0108835Y0236433D02*
X0106314Y0238954D01*
X0106314Y0240380D01*
X0106295Y0240399D01*
X0106295Y0243933D01*
X0098895Y0243933D02*
X0098845Y0243933D01*
X0095095Y0240183D01*
X0091345Y0240183D01*
X0090095Y0238933D01*
X0090095Y0233933D01*
X0090095Y0231433D01*
X0088845Y0230183D01*
X0093795Y0223933D02*
X0101209Y0223933D01*
X0101355Y0223787D01*
X0101355Y0218480D01*
X0102152Y0217683D01*
X0101355Y0223787D02*
X0101355Y0227683D01*
X0101355Y0236433D01*
X0090095Y0248490D02*
X0089652Y0248933D01*
X0075145Y0237733D02*
X0065095Y0237733D01*
X0073492Y0229031D02*
X0055995Y0229031D01*
X0055995Y0227033D02*
X0073535Y0227033D01*
X0073892Y0225034D02*
X0055995Y0225034D01*
X0055995Y0223036D02*
X0073892Y0223036D01*
X0073892Y0222413D02*
X0073892Y0219871D01*
X0074029Y0219362D01*
X0074292Y0218906D01*
X0074664Y0218533D01*
X0075120Y0218270D01*
X0075629Y0218134D01*
X0078566Y0218134D01*
X0078566Y0222413D01*
X0073892Y0222413D01*
X0073892Y0221037D02*
X0055995Y0221037D01*
X0055995Y0219039D02*
X0074215Y0219039D01*
X0078566Y0219039D02*
X0079125Y0219039D01*
X0079125Y0221037D02*
X0078566Y0221037D01*
X0089486Y0221037D02*
X0090295Y0221037D01*
X0128495Y0229031D02*
X0343715Y0229031D01*
X0342995Y0227033D02*
X0342142Y0227033D01*
X0342544Y0225034D02*
X0342995Y0225034D01*
X0347595Y0225034D02*
X0347595Y0225034D01*
X0347595Y0227033D02*
X0347595Y0227033D01*
X0347595Y0229031D02*
X0347595Y0229031D01*
X0344680Y0231030D02*
X0128499Y0231030D01*
X0128115Y0233028D02*
X0344296Y0233028D01*
X0348575Y0237025D02*
X0349135Y0237025D01*
X0349135Y0239024D02*
X0348575Y0239024D01*
X0352398Y0221037D02*
X0352623Y0221037D01*
X0352595Y0219039D02*
X0356916Y0219039D01*
X0355611Y0217040D02*
X0352444Y0217040D01*
X0353613Y0215042D02*
X0343194Y0215042D01*
X0343194Y0213043D02*
X0352745Y0213043D01*
X0344561Y0211045D02*
X0343194Y0211045D01*
X0386345Y0264024D02*
X0385834Y0264535D01*
X0383384Y0266985D01*
X0382061Y0267533D01*
X0300336Y0267533D01*
X0297445Y0270424D01*
X0297445Y0284942D01*
X0299664Y0287160D01*
X0299570Y0286998D01*
X0299434Y0286490D01*
X0299434Y0283258D01*
X0304008Y0283258D01*
X0304008Y0282108D01*
X0299434Y0282108D01*
X0299434Y0278876D01*
X0299570Y0278368D01*
X0299605Y0278308D01*
X0299570Y0278248D01*
X0299434Y0277740D01*
X0299434Y0274508D01*
X0304008Y0274508D01*
X0304008Y0273358D01*
X0299434Y0273358D01*
X0299434Y0270126D01*
X0299570Y0269618D01*
X0299833Y0269162D01*
X0300206Y0268789D01*
X0300662Y0268526D01*
X0301170Y0268390D01*
X0304009Y0268390D01*
X0304009Y0273358D01*
X0305158Y0273358D01*
X0305158Y0268390D01*
X0307996Y0268390D01*
X0308505Y0268526D01*
X0308961Y0268789D01*
X0309333Y0269162D01*
X0309597Y0269618D01*
X0309733Y0270126D01*
X0309733Y0272697D01*
X0309734Y0272695D01*
X0309735Y0272625D01*
X0310057Y0271895D01*
X0310057Y0269912D01*
X0310423Y0269030D01*
X0311098Y0268355D01*
X0311980Y0267990D01*
X0319234Y0267990D01*
X0320116Y0268355D01*
X0320791Y0269030D01*
X0321157Y0269912D01*
X0321157Y0271914D01*
X0321473Y0272678D01*
X0324294Y0272678D01*
X0326537Y0271749D01*
X0329254Y0271749D01*
X0331497Y0272678D01*
X0338414Y0272678D01*
X0340582Y0273576D01*
X0348847Y0281841D01*
X0349745Y0284009D01*
X0349745Y0302607D01*
X0349245Y0303814D01*
X0349245Y0305507D01*
X0348423Y0307492D01*
X0346904Y0309011D01*
X0344919Y0309833D01*
X0343795Y0309833D01*
X0343795Y0318857D01*
X0343295Y0320064D01*
X0343295Y0321757D01*
X0342473Y0323742D01*
X0342471Y0323744D01*
X0402319Y0323744D01*
X0407695Y0318368D01*
X0407695Y0265033D01*
X0388129Y0265033D01*
X0386806Y0264485D01*
X0386345Y0264024D01*
X0385365Y0265004D02*
X0388060Y0265004D01*
X0383341Y0267003D02*
X0407695Y0267003D01*
X0407695Y0269001D02*
X0320762Y0269001D01*
X0321157Y0271000D02*
X0407695Y0271000D01*
X0407695Y0272998D02*
X0339187Y0272998D01*
X0342003Y0274997D02*
X0407695Y0274997D01*
X0407695Y0276995D02*
X0344001Y0276995D01*
X0346000Y0278994D02*
X0407695Y0278994D01*
X0407695Y0280993D02*
X0347998Y0280993D01*
X0349323Y0282991D02*
X0407695Y0282991D01*
X0407695Y0284990D02*
X0349745Y0284990D01*
X0349745Y0286988D02*
X0407695Y0286988D01*
X0407695Y0288987D02*
X0349745Y0288987D01*
X0349745Y0290985D02*
X0407695Y0290985D01*
X0407695Y0292984D02*
X0349745Y0292984D01*
X0349745Y0294982D02*
X0407695Y0294982D01*
X0407695Y0296981D02*
X0349745Y0296981D01*
X0349745Y0298979D02*
X0388948Y0298979D01*
X0387862Y0299606D02*
X0390439Y0298118D01*
X0393312Y0297348D01*
X0396287Y0297348D01*
X0399161Y0298118D01*
X0401738Y0299606D01*
X0403841Y0301710D01*
X0405329Y0304286D01*
X0406099Y0307160D01*
X0406099Y0310135D01*
X0405329Y0313009D01*
X0403841Y0315586D01*
X0401738Y0317689D01*
X0399161Y0319177D01*
X0396287Y0319947D01*
X0393312Y0319947D01*
X0390439Y0319177D01*
X0387862Y0317689D01*
X0385758Y0315586D01*
X0384271Y0313009D01*
X0383501Y0310135D01*
X0383501Y0307160D01*
X0384271Y0304286D01*
X0385758Y0301710D01*
X0387862Y0299606D01*
X0386490Y0300978D02*
X0349745Y0300978D01*
X0349592Y0302976D02*
X0385027Y0302976D01*
X0384086Y0304975D02*
X0349245Y0304975D01*
X0348638Y0306973D02*
X0383551Y0306973D01*
X0383501Y0308972D02*
X0346943Y0308972D01*
X0343795Y0310970D02*
X0383724Y0310970D01*
X0384260Y0312969D02*
X0343795Y0312969D01*
X0343795Y0314967D02*
X0385401Y0314967D01*
X0387138Y0316966D02*
X0343795Y0316966D01*
X0343751Y0318964D02*
X0390070Y0318964D01*
X0399529Y0318964D02*
X0407099Y0318964D01*
X0407695Y0316966D02*
X0402461Y0316966D01*
X0404198Y0314967D02*
X0407695Y0314967D01*
X0407695Y0312969D02*
X0405340Y0312969D01*
X0405875Y0310970D02*
X0407695Y0310970D01*
X0407695Y0308972D02*
X0406099Y0308972D01*
X0406049Y0306973D02*
X0407695Y0306973D01*
X0407695Y0304975D02*
X0405513Y0304975D01*
X0404573Y0302976D02*
X0407695Y0302976D01*
X0407695Y0300978D02*
X0403109Y0300978D01*
X0400652Y0298979D02*
X0407695Y0298979D01*
X0405100Y0320963D02*
X0343295Y0320963D01*
X0342796Y0322961D02*
X0403102Y0322961D01*
X0337945Y0298989D02*
X0337945Y0287627D01*
X0334796Y0284478D01*
X0331497Y0284478D01*
X0329254Y0285407D01*
X0326537Y0285407D01*
X0324294Y0284478D01*
X0321250Y0284478D01*
X0321157Y0284703D01*
X0321157Y0286704D01*
X0320791Y0287586D01*
X0320116Y0288261D01*
X0319234Y0288626D01*
X0311980Y0288626D01*
X0311098Y0288261D01*
X0310423Y0287586D01*
X0310057Y0286704D01*
X0310057Y0284703D01*
X0309733Y0283919D01*
X0309733Y0286490D01*
X0309597Y0286998D01*
X0309333Y0287454D01*
X0308961Y0287827D01*
X0308505Y0288090D01*
X0307996Y0288226D01*
X0305158Y0288226D01*
X0305158Y0283258D01*
X0304009Y0283258D01*
X0304009Y0288226D01*
X0301170Y0288226D01*
X0300662Y0288090D01*
X0300500Y0287997D01*
X0300884Y0288381D01*
X0303384Y0290881D01*
X0304634Y0292131D01*
X0305647Y0293144D01*
X0306195Y0294467D01*
X0306195Y0313692D01*
X0306586Y0314083D01*
X0312495Y0314083D01*
X0312495Y0313609D01*
X0313317Y0311624D01*
X0314836Y0310105D01*
X0316821Y0309283D01*
X0318969Y0309283D01*
X0320954Y0310105D01*
X0322473Y0311624D01*
X0322895Y0312643D01*
X0323317Y0311624D01*
X0324836Y0310105D01*
X0326821Y0309283D01*
X0328969Y0309283D01*
X0330954Y0310105D01*
X0331995Y0311146D01*
X0331995Y0306209D01*
X0332893Y0304041D01*
X0337945Y0298989D01*
X0337945Y0298979D02*
X0328845Y0298979D01*
X0328845Y0298040D02*
X0328845Y0301433D01*
X0323845Y0301433D01*
X0318845Y0301433D01*
X0318845Y0298040D01*
X0318968Y0297262D01*
X0319211Y0296514D01*
X0319569Y0295812D01*
X0320031Y0295176D01*
X0320588Y0294619D01*
X0321225Y0294157D01*
X0321926Y0293799D01*
X0322674Y0293556D01*
X0323452Y0293433D01*
X0323845Y0293433D01*
X0323845Y0301433D01*
X0323845Y0301433D01*
X0323845Y0301433D01*
X0318845Y0301433D01*
X0318845Y0304827D01*
X0318968Y0305604D01*
X0319211Y0306352D01*
X0319569Y0307054D01*
X0320031Y0307690D01*
X0320588Y0308247D01*
X0321225Y0308709D01*
X0321926Y0309067D01*
X0322674Y0309310D01*
X0323452Y0309433D01*
X0323845Y0309433D01*
X0323845Y0301433D01*
X0323845Y0293433D01*
X0324239Y0293433D01*
X0325016Y0293556D01*
X0325764Y0293799D01*
X0326466Y0294157D01*
X0327102Y0294619D01*
X0327659Y0295176D01*
X0328122Y0295812D01*
X0328479Y0296514D01*
X0328722Y0297262D01*
X0328845Y0298040D01*
X0328630Y0296981D02*
X0337945Y0296981D01*
X0337945Y0294982D02*
X0327465Y0294982D01*
X0323845Y0294982D02*
X0323845Y0294982D01*
X0323845Y0296981D02*
X0323845Y0296981D01*
X0323845Y0298979D02*
X0323845Y0298979D01*
X0323845Y0300978D02*
X0323845Y0300978D01*
X0323845Y0301433D02*
X0323845Y0301433D01*
X0323845Y0301433D01*
X0323845Y0309433D01*
X0324239Y0309433D01*
X0325016Y0309310D01*
X0325764Y0309067D01*
X0326466Y0308709D01*
X0327102Y0308247D01*
X0327659Y0307690D01*
X0328122Y0307054D01*
X0328479Y0306352D01*
X0328722Y0305604D01*
X0328845Y0304827D01*
X0328845Y0301433D01*
X0323845Y0301433D01*
X0323845Y0302976D02*
X0323845Y0302976D01*
X0323845Y0304975D02*
X0323845Y0304975D01*
X0323845Y0306973D02*
X0323845Y0306973D01*
X0323845Y0308972D02*
X0323845Y0308972D01*
X0323971Y0310970D02*
X0321819Y0310970D01*
X0321739Y0308972D02*
X0306195Y0308972D01*
X0306195Y0310970D02*
X0313971Y0310970D01*
X0312760Y0312969D02*
X0306195Y0312969D01*
X0306195Y0306973D02*
X0319528Y0306973D01*
X0318869Y0304975D02*
X0306195Y0304975D01*
X0306195Y0302976D02*
X0318845Y0302976D01*
X0318845Y0300978D02*
X0306195Y0300978D01*
X0306195Y0298979D02*
X0318845Y0298979D01*
X0319060Y0296981D02*
X0306195Y0296981D01*
X0306195Y0294982D02*
X0320225Y0294982D01*
X0328845Y0300978D02*
X0335957Y0300978D01*
X0333958Y0302976D02*
X0328845Y0302976D01*
X0328822Y0304975D02*
X0332507Y0304975D01*
X0331995Y0306973D02*
X0328163Y0306973D01*
X0325951Y0308972D02*
X0331995Y0308972D01*
X0331995Y0310970D02*
X0331819Y0310970D01*
X0312994Y0322961D02*
X0296795Y0322961D01*
X0296795Y0320963D02*
X0303606Y0320963D01*
X0301285Y0318964D02*
X0296795Y0318964D01*
X0296795Y0316966D02*
X0299437Y0316966D01*
X0298995Y0314967D02*
X0296052Y0314967D01*
X0294596Y0312969D02*
X0298995Y0312969D01*
X0298995Y0302976D02*
X0294552Y0302976D01*
X0296395Y0300978D02*
X0298995Y0300978D01*
X0298995Y0298979D02*
X0296395Y0298979D01*
X0296395Y0296981D02*
X0298995Y0296981D01*
X0297303Y0294982D02*
X0296044Y0294982D01*
X0295305Y0292984D02*
X0294045Y0292984D01*
X0299491Y0286988D02*
X0299567Y0286988D01*
X0299434Y0284990D02*
X0297493Y0284990D01*
X0297445Y0282991D02*
X0304008Y0282991D01*
X0304009Y0282108D02*
X0305158Y0282108D01*
X0305158Y0274508D01*
X0304009Y0274508D01*
X0304009Y0279476D01*
X0304009Y0282108D01*
X0304009Y0280993D02*
X0305158Y0280993D01*
X0305158Y0278994D02*
X0304009Y0278994D01*
X0304009Y0276995D02*
X0305158Y0276995D01*
X0305158Y0274997D02*
X0304009Y0274997D01*
X0304009Y0272998D02*
X0305158Y0272998D01*
X0305158Y0271000D02*
X0304009Y0271000D01*
X0304009Y0269001D02*
X0305158Y0269001D01*
X0309173Y0269001D02*
X0310452Y0269001D01*
X0310057Y0271000D02*
X0309733Y0271000D01*
X0299994Y0269001D02*
X0298868Y0269001D01*
X0299434Y0271000D02*
X0297445Y0271000D01*
X0297445Y0272998D02*
X0299434Y0272998D01*
X0299434Y0274997D02*
X0297445Y0274997D01*
X0297445Y0276995D02*
X0299434Y0276995D01*
X0299434Y0278994D02*
X0297445Y0278994D01*
X0297445Y0280993D02*
X0299434Y0280993D01*
X0304009Y0284990D02*
X0305158Y0284990D01*
X0305158Y0286988D02*
X0304009Y0286988D01*
X0301490Y0288987D02*
X0337945Y0288987D01*
X0337945Y0290985D02*
X0303488Y0290985D01*
X0305487Y0292984D02*
X0337945Y0292984D01*
X0337306Y0286988D02*
X0321039Y0286988D01*
X0321157Y0284990D02*
X0325529Y0284990D01*
X0330262Y0284990D02*
X0335308Y0284990D01*
X0310175Y0286988D02*
X0309599Y0286988D01*
X0309733Y0284990D02*
X0310057Y0284990D01*
X0284194Y0312969D02*
X0254596Y0312969D01*
X0256052Y0314967D02*
X0282738Y0314967D01*
X0281995Y0316966D02*
X0256795Y0316966D01*
X0256795Y0318964D02*
X0281995Y0318964D01*
X0281995Y0320963D02*
X0256795Y0320963D01*
X0256795Y0322961D02*
X0281995Y0322961D01*
X0112095Y0111119D02*
X0088495Y0111119D01*
X0088495Y0109121D02*
X0112095Y0109121D01*
X0112095Y0107122D02*
X0088495Y0107122D01*
X0088495Y0105124D02*
X0112095Y0105124D01*
X0112095Y0103125D02*
X0088495Y0103125D01*
X0088495Y0101127D02*
X0112095Y0101127D01*
X0112095Y0099128D02*
X0088495Y0099128D01*
X0088495Y0097129D02*
X0112095Y0097129D01*
X0112095Y0095131D02*
X0088495Y0095131D01*
X0088495Y0093132D02*
X0112095Y0093132D01*
X0112095Y0091134D02*
X0088495Y0091134D01*
X0088495Y0089135D02*
X0112095Y0089135D01*
X0112095Y0087137D02*
X0088495Y0087137D01*
X0088495Y0085138D02*
X0112095Y0085138D01*
X0112095Y0083140D02*
X0088495Y0083140D01*
X0117465Y0053162D02*
X0122725Y0053162D01*
X0163270Y0097129D02*
X0164420Y0097129D01*
X0164420Y0099128D02*
X0163270Y0099128D01*
X0173270Y0099128D02*
X0174420Y0099128D01*
X0174420Y0097129D02*
X0173270Y0097129D01*
X0183270Y0097129D02*
X0184420Y0097129D01*
X0184420Y0099128D02*
X0183270Y0099128D01*
X0190572Y0069150D02*
X0190957Y0069150D01*
X0183121Y0047167D02*
X0275669Y0047167D01*
X0270627Y0053162D02*
X0268695Y0053162D01*
X0269000Y0055161D02*
X0270092Y0055161D01*
X0270064Y0057159D02*
X0269000Y0057159D01*
X0269000Y0059158D02*
X0270339Y0059158D01*
X0270951Y0061156D02*
X0269000Y0061156D01*
X0268986Y0063155D02*
X0272105Y0063155D01*
X0274002Y0065153D02*
X0267983Y0065153D01*
X0290989Y0061156D02*
X0296105Y0061156D01*
X0295802Y0059158D02*
X0291601Y0059158D01*
X0300770Y0059158D02*
X0301920Y0059158D01*
X0301920Y0061156D02*
X0300770Y0061156D01*
X0301920Y0056370D02*
X0306888Y0056370D01*
X0306888Y0053532D01*
X0306752Y0053023D01*
X0306489Y0052567D01*
X0306116Y0052195D01*
X0305660Y0051932D01*
X0305152Y0051795D01*
X0301920Y0051795D01*
X0301920Y0056370D01*
X0301920Y0055161D02*
X0300770Y0055161D01*
X0300770Y0053162D02*
X0301920Y0053162D01*
X0306107Y0051164D02*
X0307833Y0051164D01*
X0307151Y0053162D02*
X0306789Y0053162D01*
X0306888Y0055161D02*
X0307052Y0055161D01*
X0307052Y0057520D02*
X0312020Y0057520D01*
X0312020Y0062094D01*
X0308789Y0062094D01*
X0308280Y0061958D01*
X0307824Y0061695D01*
X0307451Y0061323D01*
X0307188Y0060866D01*
X0307052Y0060358D01*
X0307052Y0057520D01*
X0307052Y0059158D02*
X0306888Y0059158D01*
X0306585Y0061156D02*
X0307355Y0061156D01*
X0312020Y0061156D02*
X0313170Y0061156D01*
X0313170Y0059158D02*
X0312020Y0059158D01*
X0312020Y0053162D02*
X0313170Y0053162D01*
X0295402Y0043170D02*
X0267610Y0043170D01*
X0267633Y0087137D02*
X0267957Y0087137D01*
X0268831Y0089135D02*
X0266968Y0089135D01*
X0264420Y0097129D02*
X0263270Y0097129D01*
X0263270Y0099128D02*
X0264420Y0099128D01*
X0259745Y0095131D02*
X0307945Y0095131D01*
X0307945Y0097129D02*
X0299287Y0097129D01*
X0299388Y0099128D02*
X0307945Y0099128D01*
X0294420Y0099128D02*
X0293270Y0099128D01*
X0293270Y0097129D02*
X0294420Y0097129D01*
X0284420Y0097129D02*
X0283270Y0097129D01*
X0283270Y0099128D02*
X0284420Y0099128D01*
X0274420Y0099128D02*
X0273270Y0099128D01*
X0273270Y0097129D02*
X0274420Y0097129D01*
D29*
X0288845Y0121433D02*
X0295095Y0127683D01*
X0326345Y0127683D01*
X0333795Y0120233D01*
X0333795Y0058933D01*
X0170095Y0121433D02*
X0163845Y0127683D01*
X0123845Y0127683D01*
X0115095Y0118933D01*
X0115095Y0058933D01*
X0044548Y0215183D02*
X0041595Y0218136D01*
X0043890Y0225183D02*
X0043706Y0230183D01*
X0041595Y0228073D01*
X0059276Y0238114D02*
X0060095Y0238933D01*
X0060095Y0246433D01*
D30*
X0130995Y0278578D02*
X0133378Y0276433D01*
X0144583Y0276433D01*
X0135095Y0278150D02*
X0130995Y0278578D01*
X0135095Y0278150D02*
X0135095Y0284319D01*
X0135959Y0285183D01*
X0144583Y0285183D01*
X0135095Y0284319D02*
X0135095Y0298933D01*
X0140995Y0304833D01*
X0140995Y0317683D01*
X0130995Y0317683D02*
X0130995Y0330777D01*
X0130628Y0331144D01*
X0122595Y0329935D02*
X0121387Y0331144D01*
X0130995Y0196688D02*
X0130995Y0162075D01*
X0131687Y0161383D01*
X0170195Y0161383D01*
X0131687Y0161383D02*
X0091795Y0161383D01*
X0145095Y0121433D02*
X0145095Y0087683D01*
X0163845Y0111945D02*
X0163845Y0115183D01*
X0170095Y0121433D01*
X0173223Y0121433D01*
X0173845Y0120811D01*
X0173845Y0111945D01*
X0183845Y0111945D02*
X0183845Y0120082D01*
X0185197Y0121433D01*
X0173223Y0121433D01*
X0185197Y0121433D02*
X0192560Y0121433D01*
X0193845Y0120148D01*
X0193845Y0111945D01*
X0192560Y0121433D02*
X0205045Y0121433D01*
X0205095Y0121383D01*
X0205095Y0096383D02*
X0205095Y0093933D01*
X0205095Y0088933D01*
X0196857Y0083933D01*
X0196857Y0073933D01*
X0196857Y0059043D01*
X0196324Y0058510D01*
X0212860Y0058510D01*
X0245931Y0058510D02*
X0258534Y0058510D01*
X0262083Y0058710D01*
X0262083Y0073933D01*
X0262083Y0083933D01*
X0253845Y0088421D01*
X0253845Y0096383D01*
X0263845Y0111945D02*
X0263845Y0120418D01*
X0264811Y0121383D01*
X0273053Y0121383D01*
X0273845Y0120591D01*
X0273845Y0111945D01*
X0273053Y0121383D02*
X0283183Y0121383D01*
X0283845Y0120721D01*
X0283845Y0111945D01*
X0293845Y0111945D02*
X0293845Y0116433D01*
X0288845Y0121433D01*
X0288795Y0121383D01*
X0283183Y0121383D01*
X0264811Y0121383D02*
X0253845Y0121383D01*
X0288695Y0161383D02*
X0327765Y0161383D01*
X0327895Y0161513D01*
X0327895Y0196688D01*
X0327765Y0161383D02*
X0367095Y0161383D01*
X0313845Y0121433D02*
X0313845Y0087683D01*
X0262466Y0058510D02*
X0258534Y0058510D01*
X0403845Y0053933D02*
X0415073Y0053933D01*
X0415095Y0053911D01*
X0315607Y0273933D02*
X0315607Y0282683D01*
X0315490Y0279050D02*
X0315962Y0278578D01*
X0327895Y0278578D01*
X0337240Y0278578D01*
X0343845Y0285183D01*
X0343845Y0301433D01*
X0337895Y0307383D01*
X0337895Y0317683D01*
X0327895Y0317683D02*
X0327895Y0330952D01*
X0328087Y0331144D01*
X0315490Y0279050D02*
X0315607Y0273933D01*
X0052595Y0053933D02*
X0042001Y0053933D01*
X0041595Y0053527D01*
D31*
X0041595Y0043683D01*
X0051095Y0034183D01*
X0142500Y0034183D01*
X0153890Y0034183D01*
X0193651Y0034183D01*
X0196324Y0036856D01*
X0262506Y0036683D02*
X0265971Y0034198D01*
X0280330Y0034148D01*
X0295595Y0034183D01*
X0301524Y0034183D01*
X0313766Y0034183D01*
X0404345Y0034183D01*
X0415095Y0045233D01*
X0415095Y0053911D01*
X0415095Y0249153D01*
X0415095Y0272133D01*
X0415095Y0321433D01*
X0405385Y0331144D01*
X0328087Y0331144D01*
X0289202Y0331144D01*
X0289395Y0330951D01*
X0289395Y0318233D01*
X0289202Y0331144D02*
X0251126Y0331144D01*
X0249395Y0329413D01*
X0249395Y0318233D01*
X0251126Y0331144D02*
X0210424Y0331144D01*
X0209395Y0330115D01*
X0209395Y0317133D01*
X0210424Y0331144D02*
X0167015Y0331144D01*
X0169395Y0328763D01*
X0169395Y0317133D01*
X0167015Y0331144D02*
X0130628Y0331144D01*
X0121387Y0331144D01*
X0049806Y0331144D01*
X0041595Y0322933D01*
X0041595Y0259914D01*
X0041595Y0246158D01*
X0041595Y0228073D01*
X0041595Y0218136D01*
X0041595Y0053527D01*
D32*
X0041595Y0246158D02*
X0044370Y0248933D01*
X0402595Y0222693D02*
X0402595Y0220183D01*
X0403845Y0218933D01*
X0403845Y0113933D01*
D33*
X0312595Y0045921D02*
X0312595Y0035354D01*
X0313766Y0034183D01*
X0301524Y0034183D02*
X0301345Y0034362D01*
X0301345Y0045921D01*
X0155095Y0045921D02*
X0155095Y0035388D01*
X0153890Y0034183D01*
X0142595Y0034278D02*
X0142500Y0034183D01*
X0142595Y0034278D02*
X0142595Y0045921D01*
D34*
X0337595Y0210183D02*
X0341345Y0206433D01*
X0348855Y0206433D01*
X0356335Y0206433D02*
X0356345Y0206443D01*
X0356345Y0212683D01*
X0358895Y0215233D01*
X0365095Y0215233D01*
X0375095Y0218933D02*
X0383038Y0218933D01*
X0383845Y0219740D01*
X0390892Y0219740D01*
X0393845Y0222693D01*
X0393930Y0230173D02*
X0393845Y0230173D01*
X0393845Y0230258D02*
X0393930Y0230173D01*
X0401294Y0230173D01*
X0401345Y0230224D01*
X0401345Y0238490D01*
X0393845Y0237683D02*
X0393845Y0230258D01*
X0393845Y0237683D02*
X0391295Y0240233D01*
X0391295Y0243933D01*
X0383895Y0243933D02*
X0383795Y0244033D01*
X0383795Y0261483D01*
X0381345Y0263933D01*
X0298845Y0263933D01*
X0293845Y0268933D01*
X0293845Y0286433D01*
X0298845Y0291433D01*
X0301345Y0293933D01*
X0302595Y0295183D01*
X0302595Y0315183D01*
X0305095Y0317683D01*
X0317895Y0317683D01*
X0387595Y0260183D02*
X0388845Y0261433D01*
X0401337Y0261433D01*
X0401345Y0261425D01*
X0401345Y0251876D01*
X0401337Y0261433D02*
X0414255Y0261433D01*
X0414853Y0260835D01*
X0415095Y0272133D01*
X0414853Y0260835D02*
X0414545Y0246433D01*
X0402595Y0230173D02*
X0401294Y0230173D01*
X0383895Y0233176D02*
X0383895Y0243933D01*
X0387595Y0253933D02*
X0387595Y0260183D01*
X0383895Y0233176D02*
X0383845Y0233126D01*
X0365095Y0222633D02*
X0357645Y0222633D01*
X0357595Y0222683D01*
X0357595Y0233923D01*
X0356335Y0235183D01*
X0347595Y0218983D02*
X0337845Y0218983D01*
X0337585Y0218723D01*
X0337585Y0222683D01*
X0337585Y0218723D02*
X0337585Y0213136D01*
X0337595Y0213126D01*
X0337595Y0210183D01*
X0338038Y0212683D02*
X0337585Y0213136D01*
M02*
