G75*
%MOIN*%
%OFA0B0*%
%FSLAX25Y25*%
%IPPOS*%
%LPD*%
%AMOC8*
5,1,8,0,0,1.08239X$1,22.5*
%
%ADD10C,0.00000*%
%ADD11C,0.00700*%
%ADD12C,0.00400*%
%ADD13C,0.00800*%
%ADD14R,0.02400X0.06200*%
%ADD15C,0.00600*%
%ADD16C,0.00300*%
%ADD17C,0.00500*%
%ADD18R,0.06200X0.02400*%
D10*
X0032595Y0025183D02*
X0032595Y0338175D01*
X0424327Y0338175D01*
X0424327Y0025183D01*
X0032595Y0025183D01*
X0171914Y0056699D02*
X0171916Y0056852D01*
X0171922Y0057006D01*
X0171932Y0057159D01*
X0171946Y0057311D01*
X0171964Y0057464D01*
X0171986Y0057615D01*
X0172011Y0057766D01*
X0172041Y0057917D01*
X0172075Y0058067D01*
X0172112Y0058215D01*
X0172153Y0058363D01*
X0172198Y0058509D01*
X0172247Y0058655D01*
X0172300Y0058799D01*
X0172356Y0058941D01*
X0172416Y0059082D01*
X0172480Y0059222D01*
X0172547Y0059360D01*
X0172618Y0059496D01*
X0172693Y0059630D01*
X0172770Y0059762D01*
X0172852Y0059892D01*
X0172936Y0060020D01*
X0173024Y0060146D01*
X0173115Y0060269D01*
X0173209Y0060390D01*
X0173307Y0060508D01*
X0173407Y0060624D01*
X0173511Y0060737D01*
X0173617Y0060848D01*
X0173726Y0060956D01*
X0173838Y0061061D01*
X0173952Y0061162D01*
X0174070Y0061261D01*
X0174189Y0061357D01*
X0174311Y0061450D01*
X0174436Y0061539D01*
X0174563Y0061626D01*
X0174692Y0061708D01*
X0174823Y0061788D01*
X0174956Y0061864D01*
X0175091Y0061937D01*
X0175228Y0062006D01*
X0175367Y0062071D01*
X0175507Y0062133D01*
X0175649Y0062191D01*
X0175792Y0062246D01*
X0175937Y0062297D01*
X0176083Y0062344D01*
X0176230Y0062387D01*
X0176378Y0062426D01*
X0176527Y0062462D01*
X0176677Y0062493D01*
X0176828Y0062521D01*
X0176979Y0062545D01*
X0177132Y0062565D01*
X0177284Y0062581D01*
X0177437Y0062593D01*
X0177590Y0062601D01*
X0177743Y0062605D01*
X0177897Y0062605D01*
X0178050Y0062601D01*
X0178203Y0062593D01*
X0178356Y0062581D01*
X0178508Y0062565D01*
X0178661Y0062545D01*
X0178812Y0062521D01*
X0178963Y0062493D01*
X0179113Y0062462D01*
X0179262Y0062426D01*
X0179410Y0062387D01*
X0179557Y0062344D01*
X0179703Y0062297D01*
X0179848Y0062246D01*
X0179991Y0062191D01*
X0180133Y0062133D01*
X0180273Y0062071D01*
X0180412Y0062006D01*
X0180549Y0061937D01*
X0180684Y0061864D01*
X0180817Y0061788D01*
X0180948Y0061708D01*
X0181077Y0061626D01*
X0181204Y0061539D01*
X0181329Y0061450D01*
X0181451Y0061357D01*
X0181570Y0061261D01*
X0181688Y0061162D01*
X0181802Y0061061D01*
X0181914Y0060956D01*
X0182023Y0060848D01*
X0182129Y0060737D01*
X0182233Y0060624D01*
X0182333Y0060508D01*
X0182431Y0060390D01*
X0182525Y0060269D01*
X0182616Y0060146D01*
X0182704Y0060020D01*
X0182788Y0059892D01*
X0182870Y0059762D01*
X0182947Y0059630D01*
X0183022Y0059496D01*
X0183093Y0059360D01*
X0183160Y0059222D01*
X0183224Y0059082D01*
X0183284Y0058941D01*
X0183340Y0058799D01*
X0183393Y0058655D01*
X0183442Y0058509D01*
X0183487Y0058363D01*
X0183528Y0058215D01*
X0183565Y0058067D01*
X0183599Y0057917D01*
X0183629Y0057766D01*
X0183654Y0057615D01*
X0183676Y0057464D01*
X0183694Y0057311D01*
X0183708Y0057159D01*
X0183718Y0057006D01*
X0183724Y0056852D01*
X0183726Y0056699D01*
X0183724Y0056546D01*
X0183718Y0056392D01*
X0183708Y0056239D01*
X0183694Y0056087D01*
X0183676Y0055934D01*
X0183654Y0055783D01*
X0183629Y0055632D01*
X0183599Y0055481D01*
X0183565Y0055331D01*
X0183528Y0055183D01*
X0183487Y0055035D01*
X0183442Y0054889D01*
X0183393Y0054743D01*
X0183340Y0054599D01*
X0183284Y0054457D01*
X0183224Y0054316D01*
X0183160Y0054176D01*
X0183093Y0054038D01*
X0183022Y0053902D01*
X0182947Y0053768D01*
X0182870Y0053636D01*
X0182788Y0053506D01*
X0182704Y0053378D01*
X0182616Y0053252D01*
X0182525Y0053129D01*
X0182431Y0053008D01*
X0182333Y0052890D01*
X0182233Y0052774D01*
X0182129Y0052661D01*
X0182023Y0052550D01*
X0181914Y0052442D01*
X0181802Y0052337D01*
X0181688Y0052236D01*
X0181570Y0052137D01*
X0181451Y0052041D01*
X0181329Y0051948D01*
X0181204Y0051859D01*
X0181077Y0051772D01*
X0180948Y0051690D01*
X0180817Y0051610D01*
X0180684Y0051534D01*
X0180549Y0051461D01*
X0180412Y0051392D01*
X0180273Y0051327D01*
X0180133Y0051265D01*
X0179991Y0051207D01*
X0179848Y0051152D01*
X0179703Y0051101D01*
X0179557Y0051054D01*
X0179410Y0051011D01*
X0179262Y0050972D01*
X0179113Y0050936D01*
X0178963Y0050905D01*
X0178812Y0050877D01*
X0178661Y0050853D01*
X0178508Y0050833D01*
X0178356Y0050817D01*
X0178203Y0050805D01*
X0178050Y0050797D01*
X0177897Y0050793D01*
X0177743Y0050793D01*
X0177590Y0050797D01*
X0177437Y0050805D01*
X0177284Y0050817D01*
X0177132Y0050833D01*
X0176979Y0050853D01*
X0176828Y0050877D01*
X0176677Y0050905D01*
X0176527Y0050936D01*
X0176378Y0050972D01*
X0176230Y0051011D01*
X0176083Y0051054D01*
X0175937Y0051101D01*
X0175792Y0051152D01*
X0175649Y0051207D01*
X0175507Y0051265D01*
X0175367Y0051327D01*
X0175228Y0051392D01*
X0175091Y0051461D01*
X0174956Y0051534D01*
X0174823Y0051610D01*
X0174692Y0051690D01*
X0174563Y0051772D01*
X0174436Y0051859D01*
X0174311Y0051948D01*
X0174189Y0052041D01*
X0174070Y0052137D01*
X0173952Y0052236D01*
X0173838Y0052337D01*
X0173726Y0052442D01*
X0173617Y0052550D01*
X0173511Y0052661D01*
X0173407Y0052774D01*
X0173307Y0052890D01*
X0173209Y0053008D01*
X0173115Y0053129D01*
X0173024Y0053252D01*
X0172936Y0053378D01*
X0172852Y0053506D01*
X0172770Y0053636D01*
X0172693Y0053768D01*
X0172618Y0053902D01*
X0172547Y0054038D01*
X0172480Y0054176D01*
X0172416Y0054316D01*
X0172356Y0054457D01*
X0172300Y0054599D01*
X0172247Y0054743D01*
X0172198Y0054889D01*
X0172153Y0055035D01*
X0172112Y0055183D01*
X0172075Y0055331D01*
X0172041Y0055481D01*
X0172011Y0055632D01*
X0171986Y0055783D01*
X0171964Y0055934D01*
X0171946Y0056087D01*
X0171932Y0056239D01*
X0171922Y0056392D01*
X0171916Y0056546D01*
X0171914Y0056699D01*
X0223147Y0143293D02*
X0223149Y0143451D01*
X0223155Y0143609D01*
X0223165Y0143767D01*
X0223179Y0143925D01*
X0223197Y0144082D01*
X0223218Y0144239D01*
X0223244Y0144395D01*
X0223274Y0144551D01*
X0223307Y0144706D01*
X0223345Y0144859D01*
X0223386Y0145012D01*
X0223431Y0145164D01*
X0223480Y0145315D01*
X0223533Y0145464D01*
X0223589Y0145612D01*
X0223649Y0145758D01*
X0223713Y0145903D01*
X0223781Y0146046D01*
X0223852Y0146188D01*
X0223926Y0146328D01*
X0224004Y0146465D01*
X0224086Y0146601D01*
X0224170Y0146735D01*
X0224259Y0146866D01*
X0224350Y0146995D01*
X0224445Y0147122D01*
X0224542Y0147247D01*
X0224643Y0147369D01*
X0224747Y0147488D01*
X0224854Y0147605D01*
X0224964Y0147719D01*
X0225077Y0147830D01*
X0225192Y0147939D01*
X0225310Y0148044D01*
X0225431Y0148146D01*
X0225554Y0148246D01*
X0225680Y0148342D01*
X0225808Y0148435D01*
X0225938Y0148525D01*
X0226071Y0148611D01*
X0226206Y0148695D01*
X0226342Y0148774D01*
X0226481Y0148851D01*
X0226622Y0148923D01*
X0226764Y0148993D01*
X0226908Y0149058D01*
X0227054Y0149120D01*
X0227201Y0149178D01*
X0227350Y0149233D01*
X0227500Y0149284D01*
X0227651Y0149331D01*
X0227803Y0149374D01*
X0227956Y0149413D01*
X0228111Y0149449D01*
X0228266Y0149480D01*
X0228422Y0149508D01*
X0228578Y0149532D01*
X0228735Y0149552D01*
X0228893Y0149568D01*
X0229050Y0149580D01*
X0229209Y0149588D01*
X0229367Y0149592D01*
X0229525Y0149592D01*
X0229683Y0149588D01*
X0229842Y0149580D01*
X0229999Y0149568D01*
X0230157Y0149552D01*
X0230314Y0149532D01*
X0230470Y0149508D01*
X0230626Y0149480D01*
X0230781Y0149449D01*
X0230936Y0149413D01*
X0231089Y0149374D01*
X0231241Y0149331D01*
X0231392Y0149284D01*
X0231542Y0149233D01*
X0231691Y0149178D01*
X0231838Y0149120D01*
X0231984Y0149058D01*
X0232128Y0148993D01*
X0232270Y0148923D01*
X0232411Y0148851D01*
X0232550Y0148774D01*
X0232686Y0148695D01*
X0232821Y0148611D01*
X0232954Y0148525D01*
X0233084Y0148435D01*
X0233212Y0148342D01*
X0233338Y0148246D01*
X0233461Y0148146D01*
X0233582Y0148044D01*
X0233700Y0147939D01*
X0233815Y0147830D01*
X0233928Y0147719D01*
X0234038Y0147605D01*
X0234145Y0147488D01*
X0234249Y0147369D01*
X0234350Y0147247D01*
X0234447Y0147122D01*
X0234542Y0146995D01*
X0234633Y0146866D01*
X0234722Y0146735D01*
X0234806Y0146601D01*
X0234888Y0146465D01*
X0234966Y0146328D01*
X0235040Y0146188D01*
X0235111Y0146046D01*
X0235179Y0145903D01*
X0235243Y0145758D01*
X0235303Y0145612D01*
X0235359Y0145464D01*
X0235412Y0145315D01*
X0235461Y0145164D01*
X0235506Y0145012D01*
X0235547Y0144859D01*
X0235585Y0144706D01*
X0235618Y0144551D01*
X0235648Y0144395D01*
X0235674Y0144239D01*
X0235695Y0144082D01*
X0235713Y0143925D01*
X0235727Y0143767D01*
X0235737Y0143609D01*
X0235743Y0143451D01*
X0235745Y0143293D01*
X0235743Y0143135D01*
X0235737Y0142977D01*
X0235727Y0142819D01*
X0235713Y0142661D01*
X0235695Y0142504D01*
X0235674Y0142347D01*
X0235648Y0142191D01*
X0235618Y0142035D01*
X0235585Y0141880D01*
X0235547Y0141727D01*
X0235506Y0141574D01*
X0235461Y0141422D01*
X0235412Y0141271D01*
X0235359Y0141122D01*
X0235303Y0140974D01*
X0235243Y0140828D01*
X0235179Y0140683D01*
X0235111Y0140540D01*
X0235040Y0140398D01*
X0234966Y0140258D01*
X0234888Y0140121D01*
X0234806Y0139985D01*
X0234722Y0139851D01*
X0234633Y0139720D01*
X0234542Y0139591D01*
X0234447Y0139464D01*
X0234350Y0139339D01*
X0234249Y0139217D01*
X0234145Y0139098D01*
X0234038Y0138981D01*
X0233928Y0138867D01*
X0233815Y0138756D01*
X0233700Y0138647D01*
X0233582Y0138542D01*
X0233461Y0138440D01*
X0233338Y0138340D01*
X0233212Y0138244D01*
X0233084Y0138151D01*
X0232954Y0138061D01*
X0232821Y0137975D01*
X0232686Y0137891D01*
X0232550Y0137812D01*
X0232411Y0137735D01*
X0232270Y0137663D01*
X0232128Y0137593D01*
X0231984Y0137528D01*
X0231838Y0137466D01*
X0231691Y0137408D01*
X0231542Y0137353D01*
X0231392Y0137302D01*
X0231241Y0137255D01*
X0231089Y0137212D01*
X0230936Y0137173D01*
X0230781Y0137137D01*
X0230626Y0137106D01*
X0230470Y0137078D01*
X0230314Y0137054D01*
X0230157Y0137034D01*
X0229999Y0137018D01*
X0229842Y0137006D01*
X0229683Y0136998D01*
X0229525Y0136994D01*
X0229367Y0136994D01*
X0229209Y0136998D01*
X0229050Y0137006D01*
X0228893Y0137018D01*
X0228735Y0137034D01*
X0228578Y0137054D01*
X0228422Y0137078D01*
X0228266Y0137106D01*
X0228111Y0137137D01*
X0227956Y0137173D01*
X0227803Y0137212D01*
X0227651Y0137255D01*
X0227500Y0137302D01*
X0227350Y0137353D01*
X0227201Y0137408D01*
X0227054Y0137466D01*
X0226908Y0137528D01*
X0226764Y0137593D01*
X0226622Y0137663D01*
X0226481Y0137735D01*
X0226342Y0137812D01*
X0226206Y0137891D01*
X0226071Y0137975D01*
X0225938Y0138061D01*
X0225808Y0138151D01*
X0225680Y0138244D01*
X0225554Y0138340D01*
X0225431Y0138440D01*
X0225310Y0138542D01*
X0225192Y0138647D01*
X0225077Y0138756D01*
X0224964Y0138867D01*
X0224854Y0138981D01*
X0224747Y0139098D01*
X0224643Y0139217D01*
X0224542Y0139339D01*
X0224445Y0139464D01*
X0224350Y0139591D01*
X0224259Y0139720D01*
X0224170Y0139851D01*
X0224086Y0139985D01*
X0224004Y0140121D01*
X0223926Y0140258D01*
X0223852Y0140398D01*
X0223781Y0140540D01*
X0223713Y0140683D01*
X0223649Y0140828D01*
X0223589Y0140974D01*
X0223533Y0141122D01*
X0223480Y0141271D01*
X0223431Y0141422D01*
X0223386Y0141574D01*
X0223345Y0141727D01*
X0223307Y0141880D01*
X0223274Y0142035D01*
X0223244Y0142191D01*
X0223218Y0142347D01*
X0223197Y0142504D01*
X0223179Y0142661D01*
X0223165Y0142819D01*
X0223155Y0142977D01*
X0223149Y0143135D01*
X0223147Y0143293D01*
X0275064Y0056699D02*
X0275066Y0056852D01*
X0275072Y0057006D01*
X0275082Y0057159D01*
X0275096Y0057311D01*
X0275114Y0057464D01*
X0275136Y0057615D01*
X0275161Y0057766D01*
X0275191Y0057917D01*
X0275225Y0058067D01*
X0275262Y0058215D01*
X0275303Y0058363D01*
X0275348Y0058509D01*
X0275397Y0058655D01*
X0275450Y0058799D01*
X0275506Y0058941D01*
X0275566Y0059082D01*
X0275630Y0059222D01*
X0275697Y0059360D01*
X0275768Y0059496D01*
X0275843Y0059630D01*
X0275920Y0059762D01*
X0276002Y0059892D01*
X0276086Y0060020D01*
X0276174Y0060146D01*
X0276265Y0060269D01*
X0276359Y0060390D01*
X0276457Y0060508D01*
X0276557Y0060624D01*
X0276661Y0060737D01*
X0276767Y0060848D01*
X0276876Y0060956D01*
X0276988Y0061061D01*
X0277102Y0061162D01*
X0277220Y0061261D01*
X0277339Y0061357D01*
X0277461Y0061450D01*
X0277586Y0061539D01*
X0277713Y0061626D01*
X0277842Y0061708D01*
X0277973Y0061788D01*
X0278106Y0061864D01*
X0278241Y0061937D01*
X0278378Y0062006D01*
X0278517Y0062071D01*
X0278657Y0062133D01*
X0278799Y0062191D01*
X0278942Y0062246D01*
X0279087Y0062297D01*
X0279233Y0062344D01*
X0279380Y0062387D01*
X0279528Y0062426D01*
X0279677Y0062462D01*
X0279827Y0062493D01*
X0279978Y0062521D01*
X0280129Y0062545D01*
X0280282Y0062565D01*
X0280434Y0062581D01*
X0280587Y0062593D01*
X0280740Y0062601D01*
X0280893Y0062605D01*
X0281047Y0062605D01*
X0281200Y0062601D01*
X0281353Y0062593D01*
X0281506Y0062581D01*
X0281658Y0062565D01*
X0281811Y0062545D01*
X0281962Y0062521D01*
X0282113Y0062493D01*
X0282263Y0062462D01*
X0282412Y0062426D01*
X0282560Y0062387D01*
X0282707Y0062344D01*
X0282853Y0062297D01*
X0282998Y0062246D01*
X0283141Y0062191D01*
X0283283Y0062133D01*
X0283423Y0062071D01*
X0283562Y0062006D01*
X0283699Y0061937D01*
X0283834Y0061864D01*
X0283967Y0061788D01*
X0284098Y0061708D01*
X0284227Y0061626D01*
X0284354Y0061539D01*
X0284479Y0061450D01*
X0284601Y0061357D01*
X0284720Y0061261D01*
X0284838Y0061162D01*
X0284952Y0061061D01*
X0285064Y0060956D01*
X0285173Y0060848D01*
X0285279Y0060737D01*
X0285383Y0060624D01*
X0285483Y0060508D01*
X0285581Y0060390D01*
X0285675Y0060269D01*
X0285766Y0060146D01*
X0285854Y0060020D01*
X0285938Y0059892D01*
X0286020Y0059762D01*
X0286097Y0059630D01*
X0286172Y0059496D01*
X0286243Y0059360D01*
X0286310Y0059222D01*
X0286374Y0059082D01*
X0286434Y0058941D01*
X0286490Y0058799D01*
X0286543Y0058655D01*
X0286592Y0058509D01*
X0286637Y0058363D01*
X0286678Y0058215D01*
X0286715Y0058067D01*
X0286749Y0057917D01*
X0286779Y0057766D01*
X0286804Y0057615D01*
X0286826Y0057464D01*
X0286844Y0057311D01*
X0286858Y0057159D01*
X0286868Y0057006D01*
X0286874Y0056852D01*
X0286876Y0056699D01*
X0286874Y0056546D01*
X0286868Y0056392D01*
X0286858Y0056239D01*
X0286844Y0056087D01*
X0286826Y0055934D01*
X0286804Y0055783D01*
X0286779Y0055632D01*
X0286749Y0055481D01*
X0286715Y0055331D01*
X0286678Y0055183D01*
X0286637Y0055035D01*
X0286592Y0054889D01*
X0286543Y0054743D01*
X0286490Y0054599D01*
X0286434Y0054457D01*
X0286374Y0054316D01*
X0286310Y0054176D01*
X0286243Y0054038D01*
X0286172Y0053902D01*
X0286097Y0053768D01*
X0286020Y0053636D01*
X0285938Y0053506D01*
X0285854Y0053378D01*
X0285766Y0053252D01*
X0285675Y0053129D01*
X0285581Y0053008D01*
X0285483Y0052890D01*
X0285383Y0052774D01*
X0285279Y0052661D01*
X0285173Y0052550D01*
X0285064Y0052442D01*
X0284952Y0052337D01*
X0284838Y0052236D01*
X0284720Y0052137D01*
X0284601Y0052041D01*
X0284479Y0051948D01*
X0284354Y0051859D01*
X0284227Y0051772D01*
X0284098Y0051690D01*
X0283967Y0051610D01*
X0283834Y0051534D01*
X0283699Y0051461D01*
X0283562Y0051392D01*
X0283423Y0051327D01*
X0283283Y0051265D01*
X0283141Y0051207D01*
X0282998Y0051152D01*
X0282853Y0051101D01*
X0282707Y0051054D01*
X0282560Y0051011D01*
X0282412Y0050972D01*
X0282263Y0050936D01*
X0282113Y0050905D01*
X0281962Y0050877D01*
X0281811Y0050853D01*
X0281658Y0050833D01*
X0281506Y0050817D01*
X0281353Y0050805D01*
X0281200Y0050797D01*
X0281047Y0050793D01*
X0280893Y0050793D01*
X0280740Y0050797D01*
X0280587Y0050805D01*
X0280434Y0050817D01*
X0280282Y0050833D01*
X0280129Y0050853D01*
X0279978Y0050877D01*
X0279827Y0050905D01*
X0279677Y0050936D01*
X0279528Y0050972D01*
X0279380Y0051011D01*
X0279233Y0051054D01*
X0279087Y0051101D01*
X0278942Y0051152D01*
X0278799Y0051207D01*
X0278657Y0051265D01*
X0278517Y0051327D01*
X0278378Y0051392D01*
X0278241Y0051461D01*
X0278106Y0051534D01*
X0277973Y0051610D01*
X0277842Y0051690D01*
X0277713Y0051772D01*
X0277586Y0051859D01*
X0277461Y0051948D01*
X0277339Y0052041D01*
X0277220Y0052137D01*
X0277102Y0052236D01*
X0276988Y0052337D01*
X0276876Y0052442D01*
X0276767Y0052550D01*
X0276661Y0052661D01*
X0276557Y0052774D01*
X0276457Y0052890D01*
X0276359Y0053008D01*
X0276265Y0053129D01*
X0276174Y0053252D01*
X0276086Y0053378D01*
X0276002Y0053506D01*
X0275920Y0053636D01*
X0275843Y0053768D01*
X0275768Y0053902D01*
X0275697Y0054038D01*
X0275630Y0054176D01*
X0275566Y0054316D01*
X0275506Y0054457D01*
X0275450Y0054599D01*
X0275397Y0054743D01*
X0275348Y0054889D01*
X0275303Y0055035D01*
X0275262Y0055183D01*
X0275225Y0055331D01*
X0275191Y0055481D01*
X0275161Y0055632D01*
X0275136Y0055783D01*
X0275114Y0055934D01*
X0275096Y0056087D01*
X0275082Y0056239D01*
X0275072Y0056392D01*
X0275066Y0056546D01*
X0275064Y0056699D01*
X0388501Y0308648D02*
X0388503Y0308806D01*
X0388509Y0308964D01*
X0388519Y0309122D01*
X0388533Y0309280D01*
X0388551Y0309437D01*
X0388572Y0309594D01*
X0388598Y0309750D01*
X0388628Y0309906D01*
X0388661Y0310061D01*
X0388699Y0310214D01*
X0388740Y0310367D01*
X0388785Y0310519D01*
X0388834Y0310670D01*
X0388887Y0310819D01*
X0388943Y0310967D01*
X0389003Y0311113D01*
X0389067Y0311258D01*
X0389135Y0311401D01*
X0389206Y0311543D01*
X0389280Y0311683D01*
X0389358Y0311820D01*
X0389440Y0311956D01*
X0389524Y0312090D01*
X0389613Y0312221D01*
X0389704Y0312350D01*
X0389799Y0312477D01*
X0389896Y0312602D01*
X0389997Y0312724D01*
X0390101Y0312843D01*
X0390208Y0312960D01*
X0390318Y0313074D01*
X0390431Y0313185D01*
X0390546Y0313294D01*
X0390664Y0313399D01*
X0390785Y0313501D01*
X0390908Y0313601D01*
X0391034Y0313697D01*
X0391162Y0313790D01*
X0391292Y0313880D01*
X0391425Y0313966D01*
X0391560Y0314050D01*
X0391696Y0314129D01*
X0391835Y0314206D01*
X0391976Y0314278D01*
X0392118Y0314348D01*
X0392262Y0314413D01*
X0392408Y0314475D01*
X0392555Y0314533D01*
X0392704Y0314588D01*
X0392854Y0314639D01*
X0393005Y0314686D01*
X0393157Y0314729D01*
X0393310Y0314768D01*
X0393465Y0314804D01*
X0393620Y0314835D01*
X0393776Y0314863D01*
X0393932Y0314887D01*
X0394089Y0314907D01*
X0394247Y0314923D01*
X0394404Y0314935D01*
X0394563Y0314943D01*
X0394721Y0314947D01*
X0394879Y0314947D01*
X0395037Y0314943D01*
X0395196Y0314935D01*
X0395353Y0314923D01*
X0395511Y0314907D01*
X0395668Y0314887D01*
X0395824Y0314863D01*
X0395980Y0314835D01*
X0396135Y0314804D01*
X0396290Y0314768D01*
X0396443Y0314729D01*
X0396595Y0314686D01*
X0396746Y0314639D01*
X0396896Y0314588D01*
X0397045Y0314533D01*
X0397192Y0314475D01*
X0397338Y0314413D01*
X0397482Y0314348D01*
X0397624Y0314278D01*
X0397765Y0314206D01*
X0397904Y0314129D01*
X0398040Y0314050D01*
X0398175Y0313966D01*
X0398308Y0313880D01*
X0398438Y0313790D01*
X0398566Y0313697D01*
X0398692Y0313601D01*
X0398815Y0313501D01*
X0398936Y0313399D01*
X0399054Y0313294D01*
X0399169Y0313185D01*
X0399282Y0313074D01*
X0399392Y0312960D01*
X0399499Y0312843D01*
X0399603Y0312724D01*
X0399704Y0312602D01*
X0399801Y0312477D01*
X0399896Y0312350D01*
X0399987Y0312221D01*
X0400076Y0312090D01*
X0400160Y0311956D01*
X0400242Y0311820D01*
X0400320Y0311683D01*
X0400394Y0311543D01*
X0400465Y0311401D01*
X0400533Y0311258D01*
X0400597Y0311113D01*
X0400657Y0310967D01*
X0400713Y0310819D01*
X0400766Y0310670D01*
X0400815Y0310519D01*
X0400860Y0310367D01*
X0400901Y0310214D01*
X0400939Y0310061D01*
X0400972Y0309906D01*
X0401002Y0309750D01*
X0401028Y0309594D01*
X0401049Y0309437D01*
X0401067Y0309280D01*
X0401081Y0309122D01*
X0401091Y0308964D01*
X0401097Y0308806D01*
X0401099Y0308648D01*
X0401097Y0308490D01*
X0401091Y0308332D01*
X0401081Y0308174D01*
X0401067Y0308016D01*
X0401049Y0307859D01*
X0401028Y0307702D01*
X0401002Y0307546D01*
X0400972Y0307390D01*
X0400939Y0307235D01*
X0400901Y0307082D01*
X0400860Y0306929D01*
X0400815Y0306777D01*
X0400766Y0306626D01*
X0400713Y0306477D01*
X0400657Y0306329D01*
X0400597Y0306183D01*
X0400533Y0306038D01*
X0400465Y0305895D01*
X0400394Y0305753D01*
X0400320Y0305613D01*
X0400242Y0305476D01*
X0400160Y0305340D01*
X0400076Y0305206D01*
X0399987Y0305075D01*
X0399896Y0304946D01*
X0399801Y0304819D01*
X0399704Y0304694D01*
X0399603Y0304572D01*
X0399499Y0304453D01*
X0399392Y0304336D01*
X0399282Y0304222D01*
X0399169Y0304111D01*
X0399054Y0304002D01*
X0398936Y0303897D01*
X0398815Y0303795D01*
X0398692Y0303695D01*
X0398566Y0303599D01*
X0398438Y0303506D01*
X0398308Y0303416D01*
X0398175Y0303330D01*
X0398040Y0303246D01*
X0397904Y0303167D01*
X0397765Y0303090D01*
X0397624Y0303018D01*
X0397482Y0302948D01*
X0397338Y0302883D01*
X0397192Y0302821D01*
X0397045Y0302763D01*
X0396896Y0302708D01*
X0396746Y0302657D01*
X0396595Y0302610D01*
X0396443Y0302567D01*
X0396290Y0302528D01*
X0396135Y0302492D01*
X0395980Y0302461D01*
X0395824Y0302433D01*
X0395668Y0302409D01*
X0395511Y0302389D01*
X0395353Y0302373D01*
X0395196Y0302361D01*
X0395037Y0302353D01*
X0394879Y0302349D01*
X0394721Y0302349D01*
X0394563Y0302353D01*
X0394404Y0302361D01*
X0394247Y0302373D01*
X0394089Y0302389D01*
X0393932Y0302409D01*
X0393776Y0302433D01*
X0393620Y0302461D01*
X0393465Y0302492D01*
X0393310Y0302528D01*
X0393157Y0302567D01*
X0393005Y0302610D01*
X0392854Y0302657D01*
X0392704Y0302708D01*
X0392555Y0302763D01*
X0392408Y0302821D01*
X0392262Y0302883D01*
X0392118Y0302948D01*
X0391976Y0303018D01*
X0391835Y0303090D01*
X0391696Y0303167D01*
X0391560Y0303246D01*
X0391425Y0303330D01*
X0391292Y0303416D01*
X0391162Y0303506D01*
X0391034Y0303599D01*
X0390908Y0303695D01*
X0390785Y0303795D01*
X0390664Y0303897D01*
X0390546Y0304002D01*
X0390431Y0304111D01*
X0390318Y0304222D01*
X0390208Y0304336D01*
X0390101Y0304453D01*
X0389997Y0304572D01*
X0389896Y0304694D01*
X0389799Y0304819D01*
X0389704Y0304946D01*
X0389613Y0305075D01*
X0389524Y0305206D01*
X0389440Y0305340D01*
X0389358Y0305476D01*
X0389280Y0305613D01*
X0389206Y0305753D01*
X0389135Y0305895D01*
X0389067Y0306038D01*
X0389003Y0306183D01*
X0388943Y0306329D01*
X0388887Y0306477D01*
X0388834Y0306626D01*
X0388785Y0306777D01*
X0388740Y0306929D01*
X0388699Y0307082D01*
X0388661Y0307235D01*
X0388628Y0307390D01*
X0388598Y0307546D01*
X0388572Y0307702D01*
X0388551Y0307859D01*
X0388533Y0308016D01*
X0388519Y0308174D01*
X0388509Y0308332D01*
X0388503Y0308490D01*
X0388501Y0308648D01*
X0057792Y0308648D02*
X0057794Y0308806D01*
X0057800Y0308964D01*
X0057810Y0309122D01*
X0057824Y0309280D01*
X0057842Y0309437D01*
X0057863Y0309594D01*
X0057889Y0309750D01*
X0057919Y0309906D01*
X0057952Y0310061D01*
X0057990Y0310214D01*
X0058031Y0310367D01*
X0058076Y0310519D01*
X0058125Y0310670D01*
X0058178Y0310819D01*
X0058234Y0310967D01*
X0058294Y0311113D01*
X0058358Y0311258D01*
X0058426Y0311401D01*
X0058497Y0311543D01*
X0058571Y0311683D01*
X0058649Y0311820D01*
X0058731Y0311956D01*
X0058815Y0312090D01*
X0058904Y0312221D01*
X0058995Y0312350D01*
X0059090Y0312477D01*
X0059187Y0312602D01*
X0059288Y0312724D01*
X0059392Y0312843D01*
X0059499Y0312960D01*
X0059609Y0313074D01*
X0059722Y0313185D01*
X0059837Y0313294D01*
X0059955Y0313399D01*
X0060076Y0313501D01*
X0060199Y0313601D01*
X0060325Y0313697D01*
X0060453Y0313790D01*
X0060583Y0313880D01*
X0060716Y0313966D01*
X0060851Y0314050D01*
X0060987Y0314129D01*
X0061126Y0314206D01*
X0061267Y0314278D01*
X0061409Y0314348D01*
X0061553Y0314413D01*
X0061699Y0314475D01*
X0061846Y0314533D01*
X0061995Y0314588D01*
X0062145Y0314639D01*
X0062296Y0314686D01*
X0062448Y0314729D01*
X0062601Y0314768D01*
X0062756Y0314804D01*
X0062911Y0314835D01*
X0063067Y0314863D01*
X0063223Y0314887D01*
X0063380Y0314907D01*
X0063538Y0314923D01*
X0063695Y0314935D01*
X0063854Y0314943D01*
X0064012Y0314947D01*
X0064170Y0314947D01*
X0064328Y0314943D01*
X0064487Y0314935D01*
X0064644Y0314923D01*
X0064802Y0314907D01*
X0064959Y0314887D01*
X0065115Y0314863D01*
X0065271Y0314835D01*
X0065426Y0314804D01*
X0065581Y0314768D01*
X0065734Y0314729D01*
X0065886Y0314686D01*
X0066037Y0314639D01*
X0066187Y0314588D01*
X0066336Y0314533D01*
X0066483Y0314475D01*
X0066629Y0314413D01*
X0066773Y0314348D01*
X0066915Y0314278D01*
X0067056Y0314206D01*
X0067195Y0314129D01*
X0067331Y0314050D01*
X0067466Y0313966D01*
X0067599Y0313880D01*
X0067729Y0313790D01*
X0067857Y0313697D01*
X0067983Y0313601D01*
X0068106Y0313501D01*
X0068227Y0313399D01*
X0068345Y0313294D01*
X0068460Y0313185D01*
X0068573Y0313074D01*
X0068683Y0312960D01*
X0068790Y0312843D01*
X0068894Y0312724D01*
X0068995Y0312602D01*
X0069092Y0312477D01*
X0069187Y0312350D01*
X0069278Y0312221D01*
X0069367Y0312090D01*
X0069451Y0311956D01*
X0069533Y0311820D01*
X0069611Y0311683D01*
X0069685Y0311543D01*
X0069756Y0311401D01*
X0069824Y0311258D01*
X0069888Y0311113D01*
X0069948Y0310967D01*
X0070004Y0310819D01*
X0070057Y0310670D01*
X0070106Y0310519D01*
X0070151Y0310367D01*
X0070192Y0310214D01*
X0070230Y0310061D01*
X0070263Y0309906D01*
X0070293Y0309750D01*
X0070319Y0309594D01*
X0070340Y0309437D01*
X0070358Y0309280D01*
X0070372Y0309122D01*
X0070382Y0308964D01*
X0070388Y0308806D01*
X0070390Y0308648D01*
X0070388Y0308490D01*
X0070382Y0308332D01*
X0070372Y0308174D01*
X0070358Y0308016D01*
X0070340Y0307859D01*
X0070319Y0307702D01*
X0070293Y0307546D01*
X0070263Y0307390D01*
X0070230Y0307235D01*
X0070192Y0307082D01*
X0070151Y0306929D01*
X0070106Y0306777D01*
X0070057Y0306626D01*
X0070004Y0306477D01*
X0069948Y0306329D01*
X0069888Y0306183D01*
X0069824Y0306038D01*
X0069756Y0305895D01*
X0069685Y0305753D01*
X0069611Y0305613D01*
X0069533Y0305476D01*
X0069451Y0305340D01*
X0069367Y0305206D01*
X0069278Y0305075D01*
X0069187Y0304946D01*
X0069092Y0304819D01*
X0068995Y0304694D01*
X0068894Y0304572D01*
X0068790Y0304453D01*
X0068683Y0304336D01*
X0068573Y0304222D01*
X0068460Y0304111D01*
X0068345Y0304002D01*
X0068227Y0303897D01*
X0068106Y0303795D01*
X0067983Y0303695D01*
X0067857Y0303599D01*
X0067729Y0303506D01*
X0067599Y0303416D01*
X0067466Y0303330D01*
X0067331Y0303246D01*
X0067195Y0303167D01*
X0067056Y0303090D01*
X0066915Y0303018D01*
X0066773Y0302948D01*
X0066629Y0302883D01*
X0066483Y0302821D01*
X0066336Y0302763D01*
X0066187Y0302708D01*
X0066037Y0302657D01*
X0065886Y0302610D01*
X0065734Y0302567D01*
X0065581Y0302528D01*
X0065426Y0302492D01*
X0065271Y0302461D01*
X0065115Y0302433D01*
X0064959Y0302409D01*
X0064802Y0302389D01*
X0064644Y0302373D01*
X0064487Y0302361D01*
X0064328Y0302353D01*
X0064170Y0302349D01*
X0064012Y0302349D01*
X0063854Y0302353D01*
X0063695Y0302361D01*
X0063538Y0302373D01*
X0063380Y0302389D01*
X0063223Y0302409D01*
X0063067Y0302433D01*
X0062911Y0302461D01*
X0062756Y0302492D01*
X0062601Y0302528D01*
X0062448Y0302567D01*
X0062296Y0302610D01*
X0062145Y0302657D01*
X0061995Y0302708D01*
X0061846Y0302763D01*
X0061699Y0302821D01*
X0061553Y0302883D01*
X0061409Y0302948D01*
X0061267Y0303018D01*
X0061126Y0303090D01*
X0060987Y0303167D01*
X0060851Y0303246D01*
X0060716Y0303330D01*
X0060583Y0303416D01*
X0060453Y0303506D01*
X0060325Y0303599D01*
X0060199Y0303695D01*
X0060076Y0303795D01*
X0059955Y0303897D01*
X0059837Y0304002D01*
X0059722Y0304111D01*
X0059609Y0304222D01*
X0059499Y0304336D01*
X0059392Y0304453D01*
X0059288Y0304572D01*
X0059187Y0304694D01*
X0059090Y0304819D01*
X0058995Y0304946D01*
X0058904Y0305075D01*
X0058815Y0305206D01*
X0058731Y0305340D01*
X0058649Y0305476D01*
X0058571Y0305613D01*
X0058497Y0305753D01*
X0058426Y0305895D01*
X0058358Y0306038D01*
X0058294Y0306183D01*
X0058234Y0306329D01*
X0058178Y0306477D01*
X0058125Y0306626D01*
X0058076Y0306777D01*
X0058031Y0306929D01*
X0057990Y0307082D01*
X0057952Y0307235D01*
X0057919Y0307390D01*
X0057889Y0307546D01*
X0057863Y0307702D01*
X0057842Y0307859D01*
X0057824Y0308016D01*
X0057810Y0308174D01*
X0057800Y0308332D01*
X0057794Y0308490D01*
X0057792Y0308648D01*
D11*
X0178949Y0240254D02*
X0180267Y0240254D01*
X0182903Y0237619D01*
X0182903Y0240254D02*
X0182903Y0234983D01*
X0185550Y0237619D02*
X0190822Y0237619D01*
X0190822Y0238936D02*
X0189504Y0240254D01*
X0186868Y0240254D01*
X0185550Y0238936D01*
X0185550Y0237619D01*
X0186868Y0234983D02*
X0189504Y0234983D01*
X0190822Y0236301D01*
X0190822Y0238936D01*
X0193469Y0238936D02*
X0194787Y0240254D01*
X0198740Y0240254D01*
X0198740Y0242890D02*
X0198740Y0234983D01*
X0194787Y0234983D01*
X0193469Y0236301D01*
X0193469Y0238936D01*
X0201384Y0234983D02*
X0204020Y0234983D01*
X0202702Y0234983D02*
X0202702Y0240254D01*
X0204020Y0240254D01*
X0202702Y0242890D02*
X0202702Y0244208D01*
X0206667Y0238936D02*
X0207985Y0240254D01*
X0210620Y0240254D01*
X0211938Y0238936D01*
X0211938Y0236301D01*
X0210620Y0234983D01*
X0207985Y0234983D01*
X0206667Y0237619D02*
X0211938Y0237619D01*
X0214584Y0240254D02*
X0215902Y0240254D01*
X0218537Y0237619D01*
X0218537Y0240254D02*
X0218537Y0234983D01*
X0223820Y0234983D02*
X0223820Y0242890D01*
X0221185Y0242890D02*
X0226456Y0242890D01*
X0237022Y0242890D02*
X0242294Y0242890D01*
X0239658Y0242890D02*
X0239658Y0234983D01*
X0244941Y0234983D02*
X0250212Y0234983D01*
X0250212Y0242890D01*
X0244941Y0242890D01*
X0247577Y0238936D02*
X0250212Y0238936D01*
X0252860Y0242890D02*
X0258131Y0242890D01*
X0258131Y0234983D01*
X0260779Y0236301D02*
X0262096Y0234983D01*
X0264732Y0234983D01*
X0266050Y0236301D01*
X0268697Y0236301D02*
X0268697Y0241572D01*
X0270015Y0242890D01*
X0272651Y0242890D01*
X0273969Y0241572D01*
X0273969Y0236301D01*
X0272651Y0234983D01*
X0270015Y0234983D01*
X0268697Y0236301D01*
X0266050Y0240254D02*
X0264732Y0238936D01*
X0262096Y0238936D01*
X0260779Y0237619D01*
X0260779Y0236301D01*
X0258131Y0238936D02*
X0255495Y0238936D01*
X0260779Y0241572D02*
X0262096Y0242890D01*
X0264732Y0242890D01*
X0266050Y0241572D01*
X0266050Y0240254D01*
X0276616Y0242890D02*
X0276616Y0234983D01*
X0281887Y0234983D02*
X0281887Y0242890D01*
X0279252Y0240254D01*
X0276616Y0242890D01*
X0206667Y0238936D02*
X0206667Y0237619D01*
D12*
X0214182Y0226988D02*
X0213315Y0226120D01*
X0216784Y0222650D01*
X0215917Y0221783D01*
X0214182Y0221783D01*
X0213315Y0222650D01*
X0213315Y0226120D01*
X0214182Y0226988D02*
X0215917Y0226988D01*
X0216784Y0226120D01*
X0216784Y0222650D01*
X0218495Y0222650D02*
X0218495Y0221783D01*
X0219362Y0221783D01*
X0219362Y0222650D01*
X0218495Y0222650D01*
X0221049Y0221783D02*
X0224519Y0221783D01*
X0221049Y0225253D01*
X0221049Y0226120D01*
X0221917Y0226988D01*
X0223651Y0226988D01*
X0224519Y0226120D01*
X0231386Y0222650D02*
X0231386Y0221783D01*
X0232253Y0221783D01*
X0232253Y0222650D01*
X0231386Y0222650D01*
X0233948Y0225253D02*
X0234816Y0225253D01*
X0236550Y0223518D01*
X0238237Y0223518D02*
X0241707Y0223518D01*
X0241707Y0224385D02*
X0240839Y0225253D01*
X0239105Y0225253D01*
X0238237Y0224385D01*
X0238237Y0223518D01*
X0239105Y0221783D02*
X0240839Y0221783D01*
X0241707Y0222650D01*
X0241707Y0224385D01*
X0243394Y0223518D02*
X0243394Y0226988D01*
X0246863Y0226988D02*
X0246863Y0223518D01*
X0245128Y0221783D01*
X0243394Y0223518D01*
X0236550Y0221783D02*
X0236550Y0225253D01*
X0237378Y0216853D02*
X0240847Y0213383D01*
X0237378Y0213383D01*
X0235691Y0213383D02*
X0234824Y0213383D01*
X0234824Y0214250D01*
X0235691Y0214250D01*
X0235691Y0213383D01*
X0237378Y0216853D02*
X0240847Y0216853D01*
X0242534Y0215985D02*
X0242534Y0215118D01*
X0246004Y0215118D01*
X0246004Y0215985D02*
X0246004Y0214250D01*
X0245136Y0213383D01*
X0243402Y0213383D01*
X0242534Y0215985D02*
X0243402Y0216853D01*
X0245136Y0216853D01*
X0246004Y0215985D01*
X0247691Y0214250D02*
X0247691Y0217720D01*
X0248558Y0218588D01*
X0251160Y0218588D01*
X0251160Y0213383D01*
X0248558Y0213383D01*
X0247691Y0214250D01*
X0227956Y0213383D02*
X0224487Y0216853D01*
X0224487Y0217720D01*
X0225354Y0218588D01*
X0227089Y0218588D01*
X0227956Y0217720D01*
X0227956Y0213383D02*
X0224487Y0213383D01*
X0222800Y0214250D02*
X0219330Y0217720D01*
X0219330Y0214250D01*
X0220198Y0213383D01*
X0221933Y0213383D01*
X0222800Y0214250D01*
X0222800Y0217720D01*
X0221933Y0218588D01*
X0220198Y0218588D01*
X0219330Y0217720D01*
X0217644Y0216853D02*
X0215909Y0218588D01*
X0215909Y0213383D01*
X0217644Y0213383D02*
X0214174Y0213383D01*
X0212487Y0213383D02*
X0212487Y0214250D01*
X0209018Y0217720D01*
X0209018Y0218588D01*
X0212487Y0218588D01*
X0170378Y0274133D02*
X0168843Y0274133D01*
X0168076Y0274900D01*
X0166541Y0274133D02*
X0163472Y0274133D01*
X0165007Y0274133D02*
X0165007Y0278737D01*
X0166541Y0277202D01*
X0168076Y0277970D02*
X0168843Y0278737D01*
X0170378Y0278737D01*
X0171145Y0277970D01*
X0171145Y0274900D01*
X0170378Y0274133D01*
X0161937Y0274900D02*
X0158868Y0277970D01*
X0158868Y0274900D01*
X0159635Y0274133D01*
X0161170Y0274133D01*
X0161937Y0274900D01*
X0161937Y0277970D01*
X0161170Y0278737D01*
X0159635Y0278737D01*
X0158868Y0277970D01*
X0158868Y0282883D02*
X0161937Y0282883D01*
X0160403Y0282883D02*
X0160403Y0287487D01*
X0161937Y0285952D01*
X0163472Y0282883D02*
X0166541Y0282883D01*
X0165007Y0282883D02*
X0165007Y0287487D01*
X0166541Y0285952D01*
X0168076Y0286720D02*
X0168843Y0287487D01*
X0170378Y0287487D01*
X0171145Y0286720D01*
X0171145Y0283650D01*
X0170378Y0282883D01*
X0168843Y0282883D01*
X0168076Y0283650D01*
X0122878Y0238737D02*
X0123645Y0237970D01*
X0123645Y0234900D01*
X0122878Y0234133D01*
X0121343Y0234133D01*
X0120576Y0234900D01*
X0119041Y0234900D02*
X0118274Y0234133D01*
X0116739Y0234133D01*
X0115972Y0234900D01*
X0115972Y0236435D01*
X0116739Y0237202D01*
X0117507Y0237202D01*
X0119041Y0236435D01*
X0119041Y0238737D01*
X0115972Y0238737D01*
X0120576Y0237970D02*
X0121343Y0238737D01*
X0122878Y0238737D01*
X0123645Y0229987D02*
X0121343Y0229987D01*
X0120576Y0229220D01*
X0120576Y0227685D01*
X0121343Y0226918D01*
X0123645Y0226918D01*
X0122111Y0226918D02*
X0120576Y0225383D01*
X0119041Y0226150D02*
X0118274Y0225383D01*
X0116739Y0225383D01*
X0115972Y0226150D01*
X0115972Y0229220D01*
X0116739Y0229987D01*
X0118274Y0229987D01*
X0119041Y0229220D01*
X0119041Y0228452D01*
X0118274Y0227685D01*
X0115972Y0227685D01*
X0123645Y0225383D02*
X0123645Y0229987D01*
X0122714Y0219237D02*
X0122714Y0214633D01*
X0121180Y0214633D02*
X0124249Y0214633D01*
X0125784Y0215400D02*
X0125784Y0218470D01*
X0126551Y0219237D01*
X0128853Y0219237D01*
X0128853Y0214633D01*
X0126551Y0214633D01*
X0125784Y0215400D01*
X0124249Y0217702D02*
X0122714Y0219237D01*
X0081149Y0218143D02*
X0080382Y0218910D01*
X0077312Y0215841D01*
X0076545Y0216608D01*
X0076545Y0218143D01*
X0077312Y0218910D01*
X0080382Y0218910D01*
X0081149Y0218143D02*
X0081149Y0216608D01*
X0080382Y0215841D01*
X0077312Y0215841D01*
X0076545Y0214306D02*
X0076545Y0211237D01*
X0076545Y0212772D02*
X0081149Y0212772D01*
X0079614Y0211237D01*
X0078847Y0209702D02*
X0078080Y0208935D01*
X0078080Y0206633D01*
X0078080Y0208168D02*
X0076545Y0209702D01*
X0078847Y0209702D02*
X0080382Y0209702D01*
X0081149Y0208935D01*
X0081149Y0206633D01*
X0076545Y0206633D01*
X0047395Y0250383D02*
X0047395Y0254987D01*
X0045093Y0254987D01*
X0044326Y0254220D01*
X0044326Y0252685D01*
X0045093Y0251918D01*
X0047395Y0251918D01*
X0045861Y0251918D02*
X0044326Y0250383D01*
X0042791Y0250383D02*
X0039722Y0250383D01*
X0041257Y0250383D02*
X0041257Y0254987D01*
X0042791Y0253452D01*
X0038187Y0254220D02*
X0037420Y0254987D01*
X0035885Y0254987D01*
X0035118Y0254220D01*
X0035118Y0253452D01*
X0038187Y0250383D01*
X0035118Y0250383D01*
X0040739Y0258633D02*
X0042274Y0258633D01*
X0043041Y0259400D01*
X0044576Y0259400D02*
X0044576Y0262470D01*
X0045343Y0263237D01*
X0047645Y0263237D01*
X0047645Y0258633D01*
X0045343Y0258633D01*
X0044576Y0259400D01*
X0041507Y0260935D02*
X0040739Y0260935D01*
X0039972Y0260168D01*
X0039972Y0259400D01*
X0040739Y0258633D01*
X0040739Y0260935D02*
X0039972Y0261702D01*
X0039972Y0262470D01*
X0040739Y0263237D01*
X0042274Y0263237D01*
X0043041Y0262470D01*
X0072795Y0266571D02*
X0077399Y0266571D01*
X0077399Y0268873D01*
X0076632Y0269641D01*
X0075097Y0269641D01*
X0074330Y0268873D01*
X0074330Y0266571D01*
X0074330Y0268106D02*
X0072795Y0269641D01*
X0072795Y0271175D02*
X0072795Y0274244D01*
X0072795Y0272710D02*
X0077399Y0272710D01*
X0075864Y0271175D01*
X0075864Y0275779D02*
X0077399Y0277314D01*
X0072795Y0277314D01*
X0072795Y0278848D02*
X0072795Y0275779D01*
X0088295Y0274098D02*
X0088295Y0271029D01*
X0091364Y0274098D01*
X0092132Y0274098D01*
X0092899Y0273331D01*
X0092899Y0271796D01*
X0092132Y0271029D01*
X0092132Y0269494D02*
X0089062Y0269494D01*
X0088295Y0268727D01*
X0088295Y0266425D01*
X0092899Y0266425D01*
X0092899Y0268727D01*
X0092132Y0269494D01*
X0162312Y0138910D02*
X0163080Y0138910D01*
X0163847Y0138143D01*
X0163847Y0135841D01*
X0162312Y0135841D01*
X0161545Y0136608D01*
X0161545Y0138143D01*
X0162312Y0138910D01*
X0165382Y0137376D02*
X0163847Y0135841D01*
X0165382Y0137376D02*
X0166149Y0138910D01*
X0161545Y0134306D02*
X0161545Y0131237D01*
X0161545Y0132772D02*
X0166149Y0132772D01*
X0164614Y0131237D01*
X0165382Y0129702D02*
X0166149Y0128935D01*
X0166149Y0127400D01*
X0165382Y0126633D01*
X0162312Y0126633D01*
X0161545Y0127400D01*
X0161545Y0128935D01*
X0162312Y0129702D01*
X0171545Y0128935D02*
X0172312Y0129702D01*
X0171545Y0128935D02*
X0171545Y0127400D01*
X0172312Y0126633D01*
X0175382Y0126633D01*
X0176149Y0127400D01*
X0176149Y0128935D01*
X0175382Y0129702D01*
X0174614Y0131237D02*
X0176149Y0132772D01*
X0171545Y0132772D01*
X0171545Y0134306D02*
X0171545Y0131237D01*
X0172312Y0135841D02*
X0171545Y0136608D01*
X0171545Y0138143D01*
X0172312Y0138910D01*
X0173080Y0138910D01*
X0173847Y0138143D01*
X0173847Y0137376D01*
X0173847Y0138143D02*
X0174614Y0138910D01*
X0175382Y0138910D01*
X0176149Y0138143D01*
X0176149Y0136608D01*
X0175382Y0135841D01*
X0181545Y0135841D02*
X0184614Y0138910D01*
X0185382Y0138910D01*
X0186149Y0138143D01*
X0186149Y0136608D01*
X0185382Y0135841D01*
X0186149Y0132772D02*
X0181545Y0132772D01*
X0181545Y0134306D02*
X0181545Y0131237D01*
X0182312Y0129702D02*
X0181545Y0128935D01*
X0181545Y0127400D01*
X0182312Y0126633D01*
X0185382Y0126633D01*
X0186149Y0127400D01*
X0186149Y0128935D01*
X0185382Y0129702D01*
X0184614Y0131237D02*
X0186149Y0132772D01*
X0191545Y0132772D02*
X0196149Y0132772D01*
X0194614Y0131237D01*
X0195382Y0129702D02*
X0196149Y0128935D01*
X0196149Y0127400D01*
X0195382Y0126633D01*
X0192312Y0126633D01*
X0191545Y0127400D01*
X0191545Y0128935D01*
X0192312Y0129702D01*
X0191545Y0131237D02*
X0191545Y0134306D01*
X0191545Y0135841D02*
X0192312Y0135841D01*
X0195382Y0138910D01*
X0196149Y0138910D01*
X0196149Y0135841D01*
X0181545Y0135841D02*
X0181545Y0138910D01*
X0202135Y0086237D02*
X0201368Y0085470D01*
X0201368Y0084702D01*
X0202135Y0083935D01*
X0203670Y0083935D01*
X0204437Y0084702D01*
X0204437Y0085470D01*
X0203670Y0086237D01*
X0202135Y0086237D01*
X0202135Y0083935D02*
X0201368Y0083168D01*
X0201368Y0082400D01*
X0202135Y0081633D01*
X0203670Y0081633D01*
X0204437Y0082400D01*
X0204437Y0083168D01*
X0203670Y0083935D01*
X0205972Y0081633D02*
X0209041Y0081633D01*
X0207507Y0081633D02*
X0207507Y0086237D01*
X0209041Y0084702D01*
X0210576Y0085470D02*
X0211343Y0086237D01*
X0212878Y0086237D01*
X0213645Y0085470D01*
X0213645Y0082400D01*
X0212878Y0081633D01*
X0211343Y0081633D01*
X0210576Y0082400D01*
X0211343Y0076237D02*
X0212878Y0076237D01*
X0213645Y0075470D01*
X0213645Y0072400D01*
X0212878Y0071633D01*
X0211343Y0071633D01*
X0210576Y0072400D01*
X0209041Y0071633D02*
X0205972Y0071633D01*
X0207507Y0071633D02*
X0207507Y0076237D01*
X0209041Y0074702D01*
X0210576Y0075470D02*
X0211343Y0076237D01*
X0204437Y0075470D02*
X0204437Y0074702D01*
X0203670Y0073935D01*
X0201368Y0073935D01*
X0201368Y0072400D02*
X0201368Y0075470D01*
X0202135Y0076237D01*
X0203670Y0076237D01*
X0204437Y0075470D01*
X0204437Y0072400D02*
X0203670Y0071633D01*
X0202135Y0071633D01*
X0201368Y0072400D01*
X0246430Y0072400D02*
X0247197Y0071633D01*
X0248732Y0071633D01*
X0249499Y0072400D01*
X0249499Y0073168D01*
X0248732Y0073935D01*
X0247197Y0073935D01*
X0246430Y0073168D01*
X0246430Y0072400D01*
X0247197Y0073935D02*
X0246430Y0074702D01*
X0246430Y0075470D01*
X0247197Y0076237D01*
X0248732Y0076237D01*
X0249499Y0075470D01*
X0249499Y0074702D01*
X0248732Y0073935D01*
X0251034Y0074702D02*
X0251034Y0075470D01*
X0251801Y0076237D01*
X0253336Y0076237D01*
X0254103Y0075470D01*
X0255638Y0075470D02*
X0256405Y0076237D01*
X0257940Y0076237D01*
X0258707Y0075470D01*
X0258707Y0072400D01*
X0257940Y0071633D01*
X0256405Y0071633D01*
X0255638Y0072400D01*
X0254103Y0071633D02*
X0251034Y0071633D01*
X0254103Y0071633D02*
X0251034Y0074702D01*
X0251034Y0081633D02*
X0254103Y0081633D01*
X0251034Y0084702D01*
X0251034Y0085470D01*
X0251801Y0086237D01*
X0253336Y0086237D01*
X0254103Y0085470D01*
X0255638Y0085470D02*
X0256405Y0086237D01*
X0257940Y0086237D01*
X0258707Y0085470D01*
X0258707Y0082400D01*
X0257940Y0081633D01*
X0256405Y0081633D01*
X0255638Y0082400D01*
X0249499Y0082400D02*
X0249499Y0081633D01*
X0249499Y0082400D02*
X0246430Y0085470D01*
X0246430Y0086237D01*
X0249499Y0086237D01*
X0262312Y0122821D02*
X0261545Y0123589D01*
X0261545Y0125123D01*
X0262312Y0125891D01*
X0261545Y0127425D02*
X0264614Y0130494D01*
X0265382Y0130494D01*
X0266149Y0129727D01*
X0266149Y0128193D01*
X0265382Y0127425D01*
X0265382Y0125891D02*
X0266149Y0125123D01*
X0266149Y0123589D01*
X0265382Y0122821D01*
X0262312Y0122821D01*
X0261545Y0127425D02*
X0261545Y0130494D01*
X0262312Y0132029D02*
X0261545Y0132796D01*
X0261545Y0134331D01*
X0262312Y0135098D01*
X0263080Y0135098D01*
X0263847Y0134331D01*
X0263847Y0132029D01*
X0262312Y0132029D01*
X0263847Y0132029D02*
X0265382Y0133564D01*
X0266149Y0135098D01*
X0271545Y0134331D02*
X0271545Y0132796D01*
X0272312Y0132029D01*
X0273847Y0132029D02*
X0274614Y0133564D01*
X0274614Y0134331D01*
X0273847Y0135098D01*
X0272312Y0135098D01*
X0271545Y0134331D01*
X0273847Y0132029D02*
X0276149Y0132029D01*
X0276149Y0135098D01*
X0275382Y0130494D02*
X0276149Y0129727D01*
X0276149Y0128193D01*
X0275382Y0127425D01*
X0275382Y0125891D02*
X0276149Y0125123D01*
X0276149Y0123589D01*
X0275382Y0122821D01*
X0272312Y0122821D01*
X0271545Y0123589D01*
X0271545Y0125123D01*
X0272312Y0125891D01*
X0271545Y0127425D02*
X0274614Y0130494D01*
X0275382Y0130494D01*
X0271545Y0130494D02*
X0271545Y0127425D01*
X0281545Y0127425D02*
X0284614Y0130494D01*
X0285382Y0130494D01*
X0286149Y0129727D01*
X0286149Y0128193D01*
X0285382Y0127425D01*
X0285382Y0125891D02*
X0286149Y0125123D01*
X0286149Y0123589D01*
X0285382Y0122821D01*
X0282312Y0122821D01*
X0281545Y0123589D01*
X0281545Y0125123D01*
X0282312Y0125891D01*
X0281545Y0127425D02*
X0281545Y0130494D01*
X0281545Y0132029D02*
X0284614Y0135098D01*
X0285382Y0135098D01*
X0286149Y0134331D01*
X0286149Y0132796D01*
X0285382Y0132029D01*
X0281545Y0132029D02*
X0281545Y0135098D01*
X0291545Y0134591D02*
X0291545Y0137660D01*
X0291545Y0136126D02*
X0296149Y0136126D01*
X0294614Y0134591D01*
X0294614Y0133056D02*
X0295382Y0133056D01*
X0296149Y0132289D01*
X0296149Y0130754D01*
X0295382Y0129987D01*
X0295382Y0128452D02*
X0296149Y0127685D01*
X0296149Y0126150D01*
X0295382Y0125383D01*
X0292312Y0125383D01*
X0291545Y0126150D01*
X0291545Y0127685D01*
X0292312Y0128452D01*
X0291545Y0129987D02*
X0294614Y0133056D01*
X0291545Y0133056D02*
X0291545Y0129987D01*
X0301347Y0071348D02*
X0301347Y0068279D01*
X0303649Y0070581D01*
X0299045Y0070581D01*
X0299045Y0066744D02*
X0299045Y0063675D01*
X0302114Y0066744D01*
X0302882Y0066744D01*
X0303649Y0065977D01*
X0303649Y0064443D01*
X0302882Y0063675D01*
X0302882Y0062141D02*
X0303649Y0061373D01*
X0303649Y0059839D01*
X0302882Y0059071D01*
X0299812Y0059071D01*
X0299045Y0059839D01*
X0299045Y0061373D01*
X0299812Y0062141D01*
X0310295Y0061373D02*
X0311062Y0062141D01*
X0310295Y0061373D02*
X0310295Y0059839D01*
X0311062Y0059071D01*
X0314132Y0059071D01*
X0314899Y0059839D01*
X0314899Y0061373D01*
X0314132Y0062141D01*
X0313364Y0063675D02*
X0314899Y0065210D01*
X0310295Y0065210D01*
X0310295Y0066744D02*
X0310295Y0063675D01*
X0311062Y0068279D02*
X0310295Y0069046D01*
X0310295Y0070581D01*
X0311062Y0071348D01*
X0312597Y0071348D01*
X0313364Y0070581D01*
X0313364Y0069814D01*
X0312597Y0068279D01*
X0314899Y0068279D01*
X0314899Y0071348D01*
X0347135Y0196633D02*
X0346368Y0197400D01*
X0346368Y0200470D01*
X0347135Y0201237D01*
X0348670Y0201237D01*
X0349437Y0200470D01*
X0349437Y0199702D01*
X0348670Y0198935D01*
X0346368Y0198935D01*
X0347135Y0196633D02*
X0348670Y0196633D01*
X0349437Y0197400D01*
X0350972Y0196633D02*
X0354041Y0196633D01*
X0350972Y0199702D01*
X0350972Y0200470D01*
X0351739Y0201237D01*
X0353274Y0201237D01*
X0354041Y0200470D01*
X0355576Y0200470D02*
X0356343Y0201237D01*
X0357878Y0201237D01*
X0358645Y0200470D01*
X0358645Y0197400D01*
X0357878Y0196633D01*
X0356343Y0196633D01*
X0355576Y0197400D01*
X0391545Y0209133D02*
X0396149Y0209133D01*
X0396149Y0211435D01*
X0395382Y0212202D01*
X0393847Y0212202D01*
X0393080Y0211435D01*
X0393080Y0209133D01*
X0393080Y0210668D02*
X0391545Y0212202D01*
X0392312Y0213737D02*
X0391545Y0214504D01*
X0391545Y0216039D01*
X0392312Y0216806D01*
X0393080Y0216806D01*
X0393847Y0216039D01*
X0393847Y0215272D01*
X0393847Y0216039D02*
X0394614Y0216806D01*
X0395382Y0216806D01*
X0396149Y0216039D01*
X0396149Y0214504D01*
X0395382Y0213737D01*
X0400295Y0212202D02*
X0401830Y0210668D01*
X0401830Y0211435D02*
X0401830Y0209133D01*
X0400295Y0209133D02*
X0404899Y0209133D01*
X0404899Y0211435D01*
X0404132Y0212202D01*
X0402597Y0212202D01*
X0401830Y0211435D01*
X0402597Y0213737D02*
X0402597Y0216806D01*
X0400295Y0216039D02*
X0404899Y0216039D01*
X0402597Y0213737D01*
X0378895Y0231133D02*
X0376593Y0231133D01*
X0375826Y0231900D01*
X0375826Y0234970D01*
X0376593Y0235737D01*
X0378895Y0235737D01*
X0378895Y0231133D01*
X0374291Y0231900D02*
X0373524Y0231133D01*
X0371989Y0231133D01*
X0371222Y0231900D01*
X0371222Y0233435D01*
X0371989Y0234202D01*
X0372757Y0234202D01*
X0374291Y0233435D01*
X0374291Y0235737D01*
X0371222Y0235737D01*
X0357395Y0240383D02*
X0357395Y0244987D01*
X0355093Y0244987D01*
X0354326Y0244220D01*
X0354326Y0242685D01*
X0355093Y0241918D01*
X0357395Y0241918D01*
X0355861Y0241918D02*
X0354326Y0240383D01*
X0352791Y0240383D02*
X0349722Y0240383D01*
X0351257Y0240383D02*
X0351257Y0244987D01*
X0352791Y0243452D01*
X0348187Y0244220D02*
X0347420Y0244987D01*
X0345885Y0244987D01*
X0345118Y0244220D01*
X0345118Y0243452D01*
X0345885Y0242685D01*
X0345118Y0241918D01*
X0345118Y0241150D01*
X0345885Y0240383D01*
X0347420Y0240383D01*
X0348187Y0241150D01*
X0346653Y0242685D02*
X0345885Y0242685D01*
X0319895Y0224987D02*
X0319895Y0220383D01*
X0319895Y0221918D02*
X0317593Y0221918D01*
X0316826Y0222685D01*
X0316826Y0224220D01*
X0317593Y0224987D01*
X0319895Y0224987D01*
X0318361Y0221918D02*
X0316826Y0220383D01*
X0315291Y0221150D02*
X0315291Y0221918D01*
X0314524Y0222685D01*
X0312989Y0222685D01*
X0312222Y0221918D01*
X0312222Y0221150D01*
X0312989Y0220383D01*
X0314524Y0220383D01*
X0315291Y0221150D01*
X0314524Y0222685D02*
X0315291Y0223452D01*
X0315291Y0224220D01*
X0314524Y0224987D01*
X0312989Y0224987D01*
X0312222Y0224220D01*
X0312222Y0223452D01*
X0312989Y0222685D01*
X0313239Y0215737D02*
X0312472Y0214970D01*
X0312472Y0214202D01*
X0313239Y0213435D01*
X0314774Y0213435D01*
X0315541Y0214202D01*
X0315541Y0214970D01*
X0314774Y0215737D01*
X0313239Y0215737D01*
X0313239Y0213435D02*
X0312472Y0212668D01*
X0312472Y0211900D01*
X0313239Y0211133D01*
X0314774Y0211133D01*
X0315541Y0211900D01*
X0315541Y0212668D01*
X0314774Y0213435D01*
X0317076Y0211900D02*
X0317076Y0214970D01*
X0317843Y0215737D01*
X0320145Y0215737D01*
X0320145Y0211133D01*
X0317843Y0211133D01*
X0317076Y0211900D01*
X0296690Y0271633D02*
X0295155Y0271633D01*
X0294388Y0272400D01*
X0292853Y0271633D02*
X0289784Y0274702D01*
X0289784Y0275470D01*
X0290551Y0276237D01*
X0292086Y0276237D01*
X0292853Y0275470D01*
X0294388Y0275470D02*
X0295155Y0276237D01*
X0296690Y0276237D01*
X0297457Y0275470D01*
X0297457Y0272400D01*
X0296690Y0271633D01*
X0292853Y0271633D02*
X0289784Y0271633D01*
X0288249Y0272400D02*
X0285180Y0275470D01*
X0285180Y0272400D01*
X0285947Y0271633D01*
X0287482Y0271633D01*
X0288249Y0272400D01*
X0288249Y0275470D01*
X0287482Y0276237D01*
X0285947Y0276237D01*
X0285180Y0275470D01*
X0289697Y0280383D02*
X0288930Y0281150D01*
X0288930Y0281918D01*
X0289697Y0282685D01*
X0291999Y0282685D01*
X0291999Y0281150D01*
X0291232Y0280383D01*
X0289697Y0280383D01*
X0291999Y0282685D02*
X0290464Y0284220D01*
X0288930Y0284987D01*
X0293534Y0284220D02*
X0294301Y0284987D01*
X0295836Y0284987D01*
X0296603Y0284220D01*
X0296603Y0281150D01*
X0295836Y0280383D01*
X0294301Y0280383D01*
X0293534Y0281150D01*
X0407045Y0247081D02*
X0407045Y0245546D01*
X0407812Y0244779D01*
X0409347Y0244779D01*
X0409347Y0247081D01*
X0408580Y0247848D01*
X0407812Y0247848D01*
X0407045Y0247081D01*
X0409347Y0244779D02*
X0410882Y0246314D01*
X0411649Y0247848D01*
X0410882Y0243244D02*
X0411649Y0242477D01*
X0411649Y0240175D01*
X0407045Y0240175D01*
X0407045Y0242477D01*
X0407812Y0243244D01*
X0410882Y0243244D01*
X0157399Y0070581D02*
X0156632Y0071348D01*
X0155864Y0071348D01*
X0155097Y0070581D01*
X0154330Y0071348D01*
X0153562Y0071348D01*
X0152795Y0070581D01*
X0152795Y0069046D01*
X0153562Y0068279D01*
X0152795Y0066744D02*
X0152795Y0063675D01*
X0155864Y0066744D01*
X0156632Y0066744D01*
X0157399Y0065977D01*
X0157399Y0064443D01*
X0156632Y0063675D01*
X0156632Y0062141D02*
X0157399Y0061373D01*
X0157399Y0059839D01*
X0156632Y0059071D01*
X0153562Y0059071D01*
X0152795Y0059839D01*
X0152795Y0061373D01*
X0153562Y0062141D01*
X0156632Y0068279D02*
X0157399Y0069046D01*
X0157399Y0070581D01*
X0155097Y0070581D02*
X0155097Y0069814D01*
X0144899Y0070581D02*
X0142597Y0068279D01*
X0142597Y0071348D01*
X0140295Y0070581D02*
X0144899Y0070581D01*
X0144899Y0065210D02*
X0140295Y0065210D01*
X0140295Y0066744D02*
X0140295Y0063675D01*
X0141062Y0062141D02*
X0140295Y0061373D01*
X0140295Y0059839D01*
X0141062Y0059071D01*
X0144132Y0059071D01*
X0144899Y0059839D01*
X0144899Y0061373D01*
X0144132Y0062141D01*
X0143364Y0063675D02*
X0144899Y0065210D01*
D13*
X0329377Y0210715D02*
X0329377Y0214652D01*
X0333314Y0212683D01*
X0329377Y0210715D01*
X0381877Y0228402D02*
X0383845Y0224465D01*
X0385814Y0228402D01*
X0381877Y0228402D01*
X0399377Y0243215D02*
X0403314Y0243215D01*
X0401345Y0247152D01*
X0399377Y0243215D01*
X0110814Y0219652D02*
X0110814Y0215715D01*
X0106877Y0217683D01*
X0110814Y0219652D01*
X0092064Y0253215D02*
X0088127Y0253215D01*
X0090095Y0257152D01*
X0092064Y0253215D01*
X0060814Y0259465D02*
X0060814Y0263402D01*
X0056877Y0261433D01*
X0060814Y0259465D01*
D14*
X0056645Y0261433D03*
X0106645Y0217683D03*
X0333545Y0212683D03*
D15*
X0350395Y0216583D02*
X0351395Y0216583D01*
X0353795Y0216583D01*
X0355895Y0216583D01*
X0355895Y0220283D01*
X0355895Y0225083D02*
X0355895Y0228783D01*
X0350395Y0228783D01*
X0349295Y0223983D02*
X0349295Y0221383D01*
X0351395Y0216583D02*
X0351397Y0216652D01*
X0351403Y0216720D01*
X0351413Y0216788D01*
X0351426Y0216855D01*
X0351444Y0216921D01*
X0351465Y0216986D01*
X0351490Y0217050D01*
X0351518Y0217112D01*
X0351550Y0217173D01*
X0351585Y0217232D01*
X0351624Y0217288D01*
X0351666Y0217343D01*
X0351711Y0217394D01*
X0351759Y0217444D01*
X0351809Y0217490D01*
X0351862Y0217533D01*
X0351918Y0217574D01*
X0351975Y0217611D01*
X0352035Y0217644D01*
X0352097Y0217675D01*
X0352160Y0217701D01*
X0352224Y0217724D01*
X0352290Y0217744D01*
X0352357Y0217759D01*
X0352424Y0217771D01*
X0352492Y0217779D01*
X0352561Y0217783D01*
X0352629Y0217783D01*
X0352698Y0217779D01*
X0352766Y0217771D01*
X0352833Y0217759D01*
X0352900Y0217744D01*
X0352966Y0217724D01*
X0353030Y0217701D01*
X0353093Y0217675D01*
X0353155Y0217644D01*
X0353215Y0217611D01*
X0353272Y0217574D01*
X0353328Y0217533D01*
X0353381Y0217490D01*
X0353431Y0217444D01*
X0353479Y0217394D01*
X0353524Y0217343D01*
X0353566Y0217288D01*
X0353605Y0217232D01*
X0353640Y0217173D01*
X0353672Y0217112D01*
X0353700Y0217050D01*
X0353725Y0216986D01*
X0353746Y0216921D01*
X0353764Y0216855D01*
X0353777Y0216788D01*
X0353787Y0216720D01*
X0353793Y0216652D01*
X0353795Y0216583D01*
X0366795Y0217633D02*
X0366795Y0220233D01*
X0367895Y0225033D02*
X0373395Y0225033D01*
X0373395Y0221333D01*
X0373395Y0216533D02*
X0373395Y0212833D01*
X0371295Y0212833D01*
X0368895Y0212833D01*
X0367895Y0212833D01*
X0368895Y0212833D02*
X0368897Y0212902D01*
X0368903Y0212970D01*
X0368913Y0213038D01*
X0368926Y0213105D01*
X0368944Y0213171D01*
X0368965Y0213236D01*
X0368990Y0213300D01*
X0369018Y0213362D01*
X0369050Y0213423D01*
X0369085Y0213482D01*
X0369124Y0213538D01*
X0369166Y0213593D01*
X0369211Y0213644D01*
X0369259Y0213694D01*
X0369309Y0213740D01*
X0369362Y0213783D01*
X0369418Y0213824D01*
X0369475Y0213861D01*
X0369535Y0213894D01*
X0369597Y0213925D01*
X0369660Y0213951D01*
X0369724Y0213974D01*
X0369790Y0213994D01*
X0369857Y0214009D01*
X0369924Y0214021D01*
X0369992Y0214029D01*
X0370061Y0214033D01*
X0370129Y0214033D01*
X0370198Y0214029D01*
X0370266Y0214021D01*
X0370333Y0214009D01*
X0370400Y0213994D01*
X0370466Y0213974D01*
X0370530Y0213951D01*
X0370593Y0213925D01*
X0370655Y0213894D01*
X0370715Y0213861D01*
X0370772Y0213824D01*
X0370828Y0213783D01*
X0370881Y0213740D01*
X0370931Y0213694D01*
X0370979Y0213644D01*
X0371024Y0213593D01*
X0371066Y0213538D01*
X0371105Y0213482D01*
X0371140Y0213423D01*
X0371172Y0213362D01*
X0371200Y0213300D01*
X0371225Y0213236D01*
X0371246Y0213171D01*
X0371264Y0213105D01*
X0371277Y0213038D01*
X0371287Y0212970D01*
X0371293Y0212902D01*
X0371295Y0212833D01*
X0386295Y0245633D02*
X0388895Y0245633D01*
X0393695Y0246733D02*
X0393695Y0247733D01*
X0393695Y0250133D01*
X0393695Y0252233D01*
X0389995Y0252233D01*
X0393695Y0250133D02*
X0393626Y0250131D01*
X0393558Y0250125D01*
X0393490Y0250115D01*
X0393423Y0250102D01*
X0393357Y0250084D01*
X0393292Y0250063D01*
X0393228Y0250038D01*
X0393166Y0250010D01*
X0393105Y0249978D01*
X0393046Y0249943D01*
X0392990Y0249904D01*
X0392935Y0249862D01*
X0392884Y0249817D01*
X0392834Y0249769D01*
X0392788Y0249719D01*
X0392745Y0249666D01*
X0392704Y0249610D01*
X0392667Y0249553D01*
X0392634Y0249493D01*
X0392603Y0249431D01*
X0392577Y0249368D01*
X0392554Y0249304D01*
X0392534Y0249238D01*
X0392519Y0249171D01*
X0392507Y0249104D01*
X0392499Y0249036D01*
X0392495Y0248967D01*
X0392495Y0248899D01*
X0392499Y0248830D01*
X0392507Y0248762D01*
X0392519Y0248695D01*
X0392534Y0248628D01*
X0392554Y0248562D01*
X0392577Y0248498D01*
X0392603Y0248435D01*
X0392634Y0248373D01*
X0392667Y0248313D01*
X0392704Y0248256D01*
X0392745Y0248200D01*
X0392788Y0248147D01*
X0392834Y0248097D01*
X0392884Y0248049D01*
X0392935Y0248004D01*
X0392990Y0247962D01*
X0393046Y0247923D01*
X0393105Y0247888D01*
X0393166Y0247856D01*
X0393228Y0247828D01*
X0393292Y0247803D01*
X0393357Y0247782D01*
X0393423Y0247764D01*
X0393490Y0247751D01*
X0393558Y0247741D01*
X0393626Y0247735D01*
X0393695Y0247733D01*
X0385195Y0252233D02*
X0381495Y0252233D01*
X0381495Y0246733D01*
X0108695Y0246733D02*
X0108695Y0247733D01*
X0108695Y0250133D01*
X0108695Y0252233D01*
X0104995Y0252233D01*
X0100195Y0252233D02*
X0096495Y0252233D01*
X0096495Y0246733D01*
X0101295Y0245633D02*
X0103895Y0245633D01*
X0108695Y0247733D02*
X0108626Y0247735D01*
X0108558Y0247741D01*
X0108490Y0247751D01*
X0108423Y0247764D01*
X0108357Y0247782D01*
X0108292Y0247803D01*
X0108228Y0247828D01*
X0108166Y0247856D01*
X0108105Y0247888D01*
X0108046Y0247923D01*
X0107990Y0247962D01*
X0107935Y0248004D01*
X0107884Y0248049D01*
X0107834Y0248097D01*
X0107788Y0248147D01*
X0107745Y0248200D01*
X0107704Y0248256D01*
X0107667Y0248313D01*
X0107634Y0248373D01*
X0107603Y0248435D01*
X0107577Y0248498D01*
X0107554Y0248562D01*
X0107534Y0248628D01*
X0107519Y0248695D01*
X0107507Y0248762D01*
X0107499Y0248830D01*
X0107495Y0248899D01*
X0107495Y0248967D01*
X0107499Y0249036D01*
X0107507Y0249104D01*
X0107519Y0249171D01*
X0107534Y0249238D01*
X0107554Y0249304D01*
X0107577Y0249368D01*
X0107603Y0249431D01*
X0107634Y0249493D01*
X0107667Y0249553D01*
X0107704Y0249610D01*
X0107745Y0249666D01*
X0107788Y0249719D01*
X0107834Y0249769D01*
X0107884Y0249817D01*
X0107935Y0249862D01*
X0107990Y0249904D01*
X0108046Y0249943D01*
X0108105Y0249978D01*
X0108166Y0250010D01*
X0108228Y0250038D01*
X0108292Y0250063D01*
X0108357Y0250084D01*
X0108423Y0250102D01*
X0108490Y0250115D01*
X0108558Y0250125D01*
X0108626Y0250131D01*
X0108695Y0250133D01*
X0096195Y0232233D02*
X0092495Y0232233D01*
X0096195Y0232233D02*
X0096195Y0230133D01*
X0096195Y0227733D01*
X0096195Y0226733D01*
X0096195Y0227733D02*
X0096126Y0227735D01*
X0096058Y0227741D01*
X0095990Y0227751D01*
X0095923Y0227764D01*
X0095857Y0227782D01*
X0095792Y0227803D01*
X0095728Y0227828D01*
X0095666Y0227856D01*
X0095605Y0227888D01*
X0095546Y0227923D01*
X0095490Y0227962D01*
X0095435Y0228004D01*
X0095384Y0228049D01*
X0095334Y0228097D01*
X0095288Y0228147D01*
X0095245Y0228200D01*
X0095204Y0228256D01*
X0095167Y0228313D01*
X0095134Y0228373D01*
X0095103Y0228435D01*
X0095077Y0228498D01*
X0095054Y0228562D01*
X0095034Y0228628D01*
X0095019Y0228695D01*
X0095007Y0228762D01*
X0094999Y0228830D01*
X0094995Y0228899D01*
X0094995Y0228967D01*
X0094999Y0229036D01*
X0095007Y0229104D01*
X0095019Y0229171D01*
X0095034Y0229238D01*
X0095054Y0229304D01*
X0095077Y0229368D01*
X0095103Y0229431D01*
X0095134Y0229493D01*
X0095167Y0229553D01*
X0095204Y0229610D01*
X0095245Y0229666D01*
X0095288Y0229719D01*
X0095334Y0229769D01*
X0095384Y0229817D01*
X0095435Y0229862D01*
X0095490Y0229904D01*
X0095546Y0229943D01*
X0095605Y0229978D01*
X0095666Y0230010D01*
X0095728Y0230038D01*
X0095792Y0230063D01*
X0095857Y0230084D01*
X0095923Y0230102D01*
X0095990Y0230115D01*
X0096058Y0230125D01*
X0096126Y0230131D01*
X0096195Y0230133D01*
X0091395Y0225633D02*
X0088795Y0225633D01*
X0083995Y0226733D02*
X0083995Y0232233D01*
X0087695Y0232233D01*
X0063395Y0240133D02*
X0063395Y0242733D01*
X0056795Y0243833D02*
X0056795Y0247533D01*
X0058895Y0247533D01*
X0061295Y0247533D01*
X0062295Y0247533D01*
X0061295Y0247533D02*
X0061293Y0247464D01*
X0061287Y0247396D01*
X0061277Y0247328D01*
X0061264Y0247261D01*
X0061246Y0247195D01*
X0061225Y0247130D01*
X0061200Y0247066D01*
X0061172Y0247004D01*
X0061140Y0246943D01*
X0061105Y0246884D01*
X0061066Y0246828D01*
X0061024Y0246773D01*
X0060979Y0246722D01*
X0060931Y0246672D01*
X0060881Y0246626D01*
X0060828Y0246583D01*
X0060772Y0246542D01*
X0060715Y0246505D01*
X0060655Y0246472D01*
X0060593Y0246441D01*
X0060530Y0246415D01*
X0060466Y0246392D01*
X0060400Y0246372D01*
X0060333Y0246357D01*
X0060266Y0246345D01*
X0060198Y0246337D01*
X0060129Y0246333D01*
X0060061Y0246333D01*
X0059992Y0246337D01*
X0059924Y0246345D01*
X0059857Y0246357D01*
X0059790Y0246372D01*
X0059724Y0246392D01*
X0059660Y0246415D01*
X0059597Y0246441D01*
X0059535Y0246472D01*
X0059475Y0246505D01*
X0059418Y0246542D01*
X0059362Y0246583D01*
X0059309Y0246626D01*
X0059259Y0246672D01*
X0059211Y0246722D01*
X0059166Y0246773D01*
X0059124Y0246828D01*
X0059085Y0246884D01*
X0059050Y0246943D01*
X0059018Y0247004D01*
X0058990Y0247066D01*
X0058965Y0247130D01*
X0058944Y0247195D01*
X0058926Y0247261D01*
X0058913Y0247328D01*
X0058903Y0247396D01*
X0058897Y0247464D01*
X0058895Y0247533D01*
X0056795Y0239033D02*
X0056795Y0235333D01*
X0062295Y0235333D01*
D16*
X0065109Y0247767D02*
X0068245Y0250903D01*
X0066677Y0250903D02*
X0066677Y0247767D01*
X0068245Y0247767D02*
X0065109Y0250903D01*
X0065109Y0249335D02*
X0068245Y0249335D01*
X0096429Y0223919D02*
X0099565Y0220783D01*
X0097997Y0220783D02*
X0097997Y0223919D01*
X0099565Y0223919D02*
X0096429Y0220783D01*
X0096429Y0222351D02*
X0099565Y0222351D01*
X0108929Y0240783D02*
X0112065Y0243919D01*
X0110497Y0243919D02*
X0110497Y0240783D01*
X0112065Y0240783D02*
X0108929Y0243919D01*
X0108929Y0242351D02*
X0112065Y0242351D01*
X0344445Y0216349D02*
X0347581Y0213213D01*
X0346013Y0213213D02*
X0346013Y0216349D01*
X0347581Y0216349D02*
X0344445Y0213213D01*
X0344445Y0214781D02*
X0347581Y0214781D01*
X0361945Y0212599D02*
X0365081Y0209463D01*
X0363513Y0209463D02*
X0363513Y0212599D01*
X0365081Y0212599D02*
X0361945Y0209463D01*
X0361945Y0211031D02*
X0365081Y0211031D01*
X0393929Y0240783D02*
X0397065Y0243919D01*
X0395497Y0243919D02*
X0395497Y0240783D01*
X0397065Y0240783D02*
X0393929Y0243919D01*
X0393929Y0242351D02*
X0397065Y0242351D01*
D17*
X0379695Y0247434D02*
X0378945Y0246683D01*
X0377443Y0246683D01*
X0376693Y0247434D01*
X0376693Y0251187D01*
X0375091Y0251187D02*
X0375091Y0248935D01*
X0373590Y0249686D01*
X0372839Y0249686D01*
X0372089Y0248935D01*
X0372089Y0247434D01*
X0372839Y0246683D01*
X0374341Y0246683D01*
X0375091Y0247434D01*
X0375091Y0251187D02*
X0372089Y0251187D01*
X0379695Y0251187D02*
X0379695Y0247434D01*
X0343445Y0233687D02*
X0343445Y0229934D01*
X0342695Y0229183D01*
X0341193Y0229183D01*
X0340443Y0229934D01*
X0340443Y0233687D01*
X0338841Y0231435D02*
X0336589Y0231435D01*
X0335839Y0230684D01*
X0335839Y0229934D01*
X0336589Y0229183D01*
X0338091Y0229183D01*
X0338841Y0229934D01*
X0338841Y0231435D01*
X0337340Y0232936D01*
X0335839Y0233687D01*
X0370339Y0211187D02*
X0370339Y0206683D01*
X0369589Y0208935D02*
X0372591Y0208935D01*
X0370339Y0211187D01*
X0374193Y0211187D02*
X0374193Y0207434D01*
X0374943Y0206683D01*
X0376445Y0206683D01*
X0377195Y0207434D01*
X0377195Y0211187D01*
X0119695Y0247434D02*
X0118945Y0246683D01*
X0117443Y0246683D01*
X0116693Y0247434D01*
X0116693Y0251187D01*
X0115091Y0250436D02*
X0114341Y0251187D01*
X0112839Y0251187D01*
X0112089Y0250436D01*
X0112089Y0249686D01*
X0115091Y0246683D01*
X0112089Y0246683D01*
X0119695Y0247434D02*
X0119695Y0251187D01*
X0094695Y0219937D02*
X0094695Y0216184D01*
X0093945Y0215433D01*
X0092443Y0215433D01*
X0091693Y0216184D01*
X0091693Y0219937D01*
X0090091Y0218436D02*
X0088590Y0219937D01*
X0088590Y0215433D01*
X0090091Y0215433D02*
X0087089Y0215433D01*
X0064695Y0229934D02*
X0063945Y0229183D01*
X0062443Y0229183D01*
X0061693Y0229934D01*
X0061693Y0233687D01*
X0060091Y0232936D02*
X0059341Y0233687D01*
X0057839Y0233687D01*
X0057089Y0232936D01*
X0057089Y0232186D01*
X0057839Y0231435D01*
X0057089Y0230684D01*
X0057089Y0229934D01*
X0057839Y0229183D01*
X0059341Y0229183D01*
X0060091Y0229934D01*
X0058590Y0231435D02*
X0057839Y0231435D01*
X0064695Y0229934D02*
X0064695Y0233687D01*
D18*
X0090095Y0257383D03*
X0383845Y0224233D03*
X0401345Y0247383D03*
M02*
